<svg width="180" height="34" fill="none" xmlns="http://www.w3.org/2000/svg"><path fill-rule="evenodd" clip-rule="evenodd" d="M45.02 10.477l-11.044 6.16 11.045 6.16c2.865 1.483 5.73 1.393 8.595-.18l10.721-5.98-10.72-5.98c-1.433-.81-2.866-1.214-4.299-1.26-1.386 0-2.819.36-4.297 1.08zm-15.381 6.14l-11.466-6.525c-1.314-.54-2.583-.765-3.852-.675-1.27.09-2.538.495-3.807 1.215L0 16.617l10.514 5.985c2.538 1.44 5.076 1.665 7.659.54l11.466-6.525z" fill="#0A0854"/><path fill-rule="evenodd" clip-rule="evenodd" d="M17.35 7.184l11.51 6.565c2.493 1.08 4.895.9 7.297-.36l10.831-6.16-10.469-5.981c-2.945-1.664-5.846-1.664-8.746 0L17.349 7.184z" fill="#ED1C24"/><path fill-rule="evenodd" clip-rule="evenodd" d="M28.86 19.518l-11.51 6.559 10.423 5.93c2.945 1.662 5.846 1.662 8.746 0l10.469-5.975-10.831-6.154c-2.402-1.303-4.85-1.438-7.297-.36zm148.835 7.183l.135-1.27h-3.977l.452-4.265h-1.492l-.587 5.58h5.469v-.045zm-8.001 0l.136-1.27h-3.978l.452-4.265h-1.491l-.588 5.58h5.469v-.045zm-10.26-2.087h-2.35l1.446-2.268.904 2.268zm2.531 2.087l-2.26-5.58h-2.079l-3.435 5.58h1.627l.588-.953h3.525l.407.953h1.627zm-8.814-4.265l.136-1.27h-6.147l-.136 1.27h2.305l-.452 4.265h1.492l.452-4.265h2.35zm-9.04 4.265l.136-1.225h-4.339l.135-1.089h4.113l.091-1.043h-4.113l.09-.998h4.294l.136-1.225h-5.741l-.587 5.58h5.785zm-8.543 0l.588-5.58h-2.124l-2.712 4.083-1.763-4.083h-2.215l-.588 5.58h1.492l.407-4.083 1.763 4.083h1.446l2.667-4.083-.407 4.083h1.446zm-20.656-1.95v-.182h-1.492v.181c-.09.636-.361.68-.994.68h-1.808c-.678 0-.768-.317-.678-1.133l.09-.862c.091-.772.272-1.044.859-1.044h1.853c.498 0 .859.045.859.545l-.045.226h1.537l.045-.226c.181-1.68-.633-1.815-1.898-1.815h-1.989c-1.401 0-2.486.272-2.667 2.087l-.136 1.452c-.226 2.041.95 2.087 2.26 2.087h1.808c.724 0 1.266 0 1.808-.409.452-.408.543-.953.588-1.588zm-9.356 1.95l.135-1.225h-4.339l.136-1.089h4.113l.09-1.043h-4.113l.091-.998h4.294l.135-1.225h-5.74l-.588 5.58h5.786zm-16.543-4.265l.135-1.27H82.64l-.135 1.27h2.486l-.452 4.265h1.491l.452-4.265h2.532zm6.87.5c-.045.453-.136.59-.542.59h-2.758l.136-1.18h2.757c.407 0 .452.136.407.59zm1.22 3.765l-.994-2.132c.723-.09 1.175-.454 1.266-1.497v-.136c0-.091.045-.182.045-.227.135-1.316-.498-1.543-1.582-1.543h-4.43l-.588 5.58h1.492l.226-2.086h1.898l.995 2.087h1.672V26.7zm27.165 0l-1.265-2.767 1.853-2.768h-1.718l-1.401 2.087h-2.441l.226-2.087h-1.491l-.588 5.58h1.492l.226-2.177h2.395l1.04 2.178h1.672V26.7zm-44.205-1.77c.135-1.27-.226-1.587-1.898-1.587l-2.35-.046c-.408 0-.588-.045-.543-.499.045-.317.135-.499.904-.499h3.616l.135-1.225h-3.616c-1.446 0-2.35.091-2.53 1.679-.182 1.588.632 1.633 1.988 1.679l2.08.045c.587 0 .767.045.722.5-.045.453-.27.498-.994.498H73.87l-.136 1.225h3.706c2.441.046 2.531-.862 2.622-1.77zM180 5.06h-18.216c-.678 0-1.265.544-1.31 1.18l-.136 1.27h7.142l-1.04 9.754h3.887c.678 0 1.266-.544 1.311-1.18.316-2.858.588-5.716.904-8.574h5.966c.678 0 1.266-.545 1.311-1.18L180 5.06zM98.776 17.31c-2.034 0-3.48-1.679-3.3-3.675.18-1.634.362-3.267.497-4.9.226-2.042 2.034-3.675 4.068-3.675h11.707c2.034 0 3.48 1.679 3.3 3.675-.181 1.633-.362 3.266-.498 4.9-.226 2.041-2.034 3.675-4.068 3.675H98.776zm1.808-3.675c-.091.68.407 1.18 1.085 1.18h6.508c.678 0 1.266-.545 1.311-1.18.181-1.634.362-3.267.497-4.9.091-.68-.407-1.18-1.085-1.18h-6.508c-.678 0-1.266.545-1.311 1.18-.181 1.633-.362 3.266-.497 4.9zm31.097-4.855c-.09.68-.678 1.18-1.311 1.18h-5.378l-.272 2.495 4.882 4.9h5.966l-4.881-4.9h2.034c2.034 0 3.842-1.679 4.068-3.675.226-2.041-1.266-3.675-3.3-3.675h-14.193c-.678 0-1.265.545-1.31 1.18l-1.176 11.07h3.888c.678 0 1.265-.544 1.31-1.18.317-2.858.588-5.716.904-8.574h7.684c.633-.046 1.13.499 1.085 1.18zm10.713 3.675c-2.034 0-3.481-1.679-3.3-3.675.226-2.041 2.034-3.675 4.068-3.675h14.826l-.136 1.27c-.09.681-.678 1.18-1.311 1.18h-11.029c-.678 0-1.265.545-1.31 1.18-.091.68.406 1.18 1.084 1.18h9.447c2.034 0 3.481 1.678 3.3 3.674-.226 2.042-2.034 3.675-4.068 3.675h-14.826l.136-1.27c.09-.68.678-1.18 1.311-1.18h11.028c.678 0 1.266-.544 1.311-1.18.091-.68-.407-1.179-1.085-1.179h-9.446zm-64.727 0c-2.034 0-3.48-1.679-3.3-3.675.227-2.041 2.035-3.675 4.069-3.675H93.26l-.135 1.27c-.09.681-.678 1.18-1.311 1.18H80.786c-.678 0-1.266.545-1.31 1.18-.091.68.406 1.18 1.084 1.18h9.447c2.034 0 3.48 1.678 3.3 3.674-.227 2.042-2.035 3.675-4.069 3.675H74.413l.136-1.27c.09-.68.677-1.18 1.31-1.18h11.03c.677 0 1.265-.544 1.31-1.18.09-.68-.407-1.179-1.085-1.179h-9.447z" fill="#0A0854"/></svg>