<svg width="303" height="1160" viewBox="0 0 303 1160" fill="none" xmlns="http://www.w3.org/2000/svg">
<rect x="58.1172" y="89.3828" width="9.1924" height="1.78967" transform="rotate(-135 58.1172 89.3828)" fill="#ED1C24"/>
<rect x="51.6172" y="88.1172" width="9.1924" height="1.78967" transform="rotate(-45 51.6172 88.1172)" fill="#ED1C24"/>
<path d="M25.952 12H28.416V3.072H31.824V0.799999H22.544V3.072H25.952V12ZM44.327 0.799999H42.039L37.111 8.144V0.799999H34.679V12H36.999L41.895 4.656V12H44.327V0.799999ZM47.9828 12H50.4468V3.024H54.8628V12H57.3268V0.799999H47.9828V12ZM71.9789 12.192C74.1389 12.192 75.4189 11.52 76.5709 10.288L75.0029 8.608C74.1229 9.408 73.3389 9.92 72.0589 9.92C70.1389 9.92 68.8109 8.32 68.8109 6.4C68.8109 4.448 70.1709 2.88 72.0589 2.88C73.3389 2.88 74.0749 3.344 74.9389 4.128L76.4109 2.432C75.3709 1.408 74.1869 0.608 72.0749 0.608C68.6349 0.608 66.2349 3.216 66.2349 6.4C66.2349 9.648 68.6829 12.192 71.9789 12.192ZM79.5034 12H88.0314V9.808H81.9514V7.456H87.2314V5.264H81.9514V2.992H87.9514V0.799999H79.5034V12ZM93.7901 12H96.2541V3.072H99.6621V0.799999H90.3821V3.072H93.7901V12ZM102.517 12H104.981V8.576L106.277 7.232L109.749 12H112.709L107.941 5.552L112.501 0.799999H109.525L104.981 5.696V0.799999H102.517V12ZM124.813 0.799999H122.525L117.597 8.144V0.799999H115.165V12H117.485L122.381 4.656V12H124.813V0.799999Z" fill="#0A0854"/>
<path d="M23.344 220H25.808V216.64H27.68C30.192 216.64 32.208 215.296 32.208 212.704C32.208 210.384 30.592 208.8 27.92 208.8H23.344V220ZM25.808 214.448V211.024H27.712C28.944 211.024 29.712 211.616 29.712 212.72C29.712 213.712 28.992 214.448 27.76 214.448H25.808ZM34.0315 220H36.5435L37.5675 217.488H42.3035L43.3275 220H45.9035L41.1035 208.72H38.8315L34.0315 220ZM38.4475 215.312L39.9355 211.68L41.4235 215.312H38.4475ZM52.5761 208.608C50.4481 208.608 49.1041 209.36 48.0641 210.448L49.3601 212.016C50.1121 211.248 51.0081 210.784 52.3841 210.784C53.4561 210.784 54.1921 211.248 54.1921 212.032C54.1921 212.88 53.4881 213.328 52.1921 213.328H50.9281V215.376H52.2241C53.5041 215.376 54.4481 215.76 54.4481 216.688C54.4481 217.552 53.6001 218.032 52.5601 218.032C51.1041 218.032 49.9041 217.504 48.9921 216.608L47.6801 218.32C48.8801 219.536 50.3041 220.192 52.6561 220.192C55.2641 220.192 56.9121 218.768 56.9121 216.832C56.9121 215.408 56.0161 214.576 54.8161 214.192C55.8081 213.76 56.6241 213.008 56.6241 211.616C56.6241 209.872 54.9761 208.608 52.5761 208.608ZM60.0209 220H62.4369V212.736L65.5569 217.472H65.6209L68.7729 212.688V220H71.2209V208.8H68.5649L65.6209 213.536L62.6769 208.8H60.0209V220ZM74.8715 220H83.3995V217.808H77.3195V215.456H82.5995V213.264H77.3195V210.992H83.3195V208.8H74.8715V220ZM86.5502 220H89.0142V216.64H90.8862C93.3982 216.64 95.4142 215.296 95.4142 212.704C95.4142 210.384 93.7982 208.8 91.1262 208.8H86.5502V220ZM89.0142 214.448V211.024H90.9182C92.1502 211.024 92.9182 211.616 92.9182 212.72C92.9182 213.712 92.1982 214.448 90.9662 214.448H89.0142ZM112.819 208.8H107.699C105.075 208.8 103.475 210.176 103.475 212.496C103.475 214.336 104.451 215.472 105.875 216L103.139 220H106.019L108.419 216.416H110.355V220H112.819V208.8ZM107.859 214.24C106.659 214.24 105.971 213.6 105.971 212.656C105.971 211.568 106.707 211.024 107.907 211.024H110.355V214.24H107.859ZM122.973 220H125.437V208.8H122.973V213.632C122.461 214.032 121.517 214.352 120.525 214.352C119.261 214.352 118.717 213.568 118.717 212.176V208.8H116.253V212.896C116.253 215.488 117.789 216.656 120.013 216.656C121.149 216.656 122.221 216.192 122.973 215.824V220ZM129.078 220H137.606V217.808H131.526V215.456H136.806V213.264H131.526V210.992H137.526V208.8H129.078V220ZM150.404 208.8H148.116L143.188 216.144V208.8H140.756V220H143.076L147.972 212.656V220H150.404V208.8ZM145.62 207.952C147.092 207.952 148.084 207.056 148.308 205.52L146.884 205.264C146.676 205.92 146.292 206.336 145.62 206.336C144.948 206.336 144.564 205.92 144.356 205.264L142.932 205.52C143.156 207.056 144.148 207.952 145.62 207.952ZM154.06 220H156.524V216.576L157.82 215.232L161.292 220H164.252L159.484 213.552L164.044 208.8H161.068L156.524 213.696V208.8H154.06V220ZM176.356 208.8H174.068L169.14 216.144V208.8H166.708V220H169.028L173.924 212.656V220H176.356V208.8Z" fill="#0A0854"/>
<path d="M23.344 637H25.808V628.024H30.224V637H32.688V625.8H23.344V637ZM37.8233 625.8V628.12C37.8233 634.152 37.0713 635 35.7433 635C35.5833 635 35.4713 634.984 35.3593 634.968L35.1993 637C35.5033 637.08 36.0953 637.144 36.4953 637.144C39.0553 637.144 40.1273 635.464 40.1273 628.872V628.024H43.3593V637H45.8233V625.8H37.8233ZM54.9071 637.192C58.3631 637.192 60.8751 634.584 60.8751 631.4C60.8751 628.184 58.3951 625.608 54.9391 625.608C51.4831 625.608 48.9711 628.216 48.9711 631.4C48.9711 634.616 51.4511 637.192 54.9071 637.192ZM54.9391 634.92C52.9551 634.92 51.5471 633.32 51.5471 631.4C51.5471 629.448 52.9231 627.88 54.9071 627.88C56.8911 627.88 58.2991 629.48 58.2991 631.4C58.2991 633.352 56.9231 634.92 54.9391 634.92ZM78.3569 639.336H80.4049L80.7249 634.776H79.3969V625.8H76.9329V634.776H72.9329V625.8H70.4689V634.776H66.4849V625.8H64.0209V637H78.3569V639.336ZM82.4584 637H84.9704L85.9944 634.488H90.7304L91.7544 637H94.3304L89.5304 625.72H87.2584L82.4584 637ZM86.8744 632.312L88.3624 628.68L89.8504 632.312H86.8744ZM95.835 639.336H98.059L98.219 637H105.227V639.336H107.291L107.611 634.776H106.267V625.8H98.123V627.112C98.123 630.936 97.723 632.84 96.891 634.776H95.835V639.336ZM103.803 628.024V634.776H99.483C100.123 633.224 100.491 631.528 100.491 629.16V628.024H103.803ZM110.292 637H114.98C117.604 637 119.236 635.544 119.236 633.24C119.236 631.048 117.732 629.608 115.14 629.608H112.756V625.8H110.292V637ZM114.932 631.72C116.164 631.72 116.788 632.264 116.788 633.208C116.788 634.248 116.164 634.776 114.948 634.776H112.756V631.72H114.932ZM28.784 659.192C32.24 659.192 34.752 656.584 34.752 653.4C34.752 650.184 32.272 647.608 28.816 647.608C25.36 647.608 22.848 650.216 22.848 653.4C22.848 656.616 25.328 659.192 28.784 659.192ZM28.816 656.92C26.832 656.92 25.424 655.32 25.424 653.4C25.424 651.448 26.8 649.88 28.784 649.88C30.768 649.88 32.176 651.48 32.176 653.4C32.176 655.352 30.8 656.92 28.816 656.92ZM40.5058 659H42.9698V650.072H46.3778V647.8H37.0978V650.072H40.5058V659ZM49.2328 659H51.6968V655.576L52.9928 654.232L56.4648 659H59.4248L54.6568 652.552L59.2168 647.8H56.2408L51.6968 652.696V647.8H49.2328V659ZM61.8803 659H64.3443V655.64H66.2163C68.7283 655.64 70.7443 654.296 70.7443 651.704C70.7443 649.384 69.1283 647.8 66.4563 647.8H61.8803V659ZM64.3443 653.448V650.024H66.2483C67.4803 650.024 68.2483 650.616 68.2483 651.72C68.2483 652.712 67.5283 653.448 66.2963 653.448H64.3443ZM73.5278 659H78.2158C80.8398 659 82.4718 657.544 82.4718 655.24C82.4718 653.048 80.9678 651.608 78.3758 651.608H75.9918V647.8H73.5278V659ZM78.1678 653.72C79.3998 653.72 80.0238 654.264 80.0238 655.208C80.0238 656.248 79.3998 656.776 78.1838 656.776H75.9918V653.72H78.1678ZM83.7198 659H86.1838V647.8H83.7198V659ZM92.4395 659H94.9035V650.072H98.3115V647.8H89.0315V650.072H92.4395V659ZM106.607 659.192C110.063 659.192 112.575 656.584 112.575 653.4C112.575 650.184 110.095 647.608 106.639 647.608C103.183 647.608 100.671 650.216 100.671 653.4C100.671 656.616 103.151 659.192 106.607 659.192ZM106.639 656.92C104.655 656.92 103.247 655.32 103.247 653.4C103.247 651.448 104.623 649.88 106.607 649.88C108.591 649.88 109.999 651.48 109.999 653.4C109.999 655.352 108.623 656.92 106.639 656.92ZM118.184 650.024H123.544V647.8H115.72V659H118.184V650.024ZM131.683 659.192C135.139 659.192 137.651 656.584 137.651 653.4C137.651 650.184 135.171 647.608 131.715 647.608C128.259 647.608 125.747 650.216 125.747 653.4C125.747 656.616 128.227 659.192 131.683 659.192ZM131.715 656.92C129.731 656.92 128.323 655.32 128.323 653.4C128.323 651.448 129.699 649.88 131.683 649.88C133.667 649.88 135.075 651.48 135.075 653.4C135.075 655.352 133.699 656.92 131.715 656.92ZM151.801 659.192C153.961 659.192 155.241 658.52 156.393 657.288L154.825 655.608C153.945 656.408 153.161 656.92 151.881 656.92C149.961 656.92 148.633 655.32 148.633 653.4C148.633 651.448 149.993 649.88 151.881 649.88C153.161 649.88 153.897 650.344 154.761 651.128L156.233 649.432C155.193 648.408 154.009 647.608 151.897 647.608C148.457 647.608 146.057 650.216 146.057 653.4C146.057 656.648 148.505 659.192 151.801 659.192ZM159.326 659H167.854V656.808H161.774V654.456H167.054V652.264H161.774V649.992H167.774V647.8H159.326V659ZM177.501 659H179.965V647.8H177.501V652.632C176.989 653.032 176.045 653.352 175.053 653.352C173.789 653.352 173.245 652.568 173.245 651.176V647.8H170.781V651.896C170.781 654.488 172.317 655.656 174.541 655.656C175.677 655.656 176.749 655.192 177.501 654.824V659ZM183.605 659H192.133V656.808H186.053V654.456H191.333V652.264H186.053V649.992H192.053V647.8H183.605V659ZM195.284 659H197.748V654.504H202.292V659H204.756V647.8H202.292V652.232H197.748V647.8H195.284V659ZM218.048 647.8H215.76L210.832 655.144V647.8H208.4V659H210.72L215.616 651.656V659H218.048V647.8ZM230.568 647.8H225.448C222.824 647.8 221.224 649.176 221.224 651.496C221.224 653.336 222.2 654.472 223.624 655L220.888 659H223.768L226.168 655.416H228.104V659H230.568V647.8ZM225.608 653.24C224.408 653.24 223.72 652.6 223.72 651.656C223.72 650.568 224.456 650.024 225.656 650.024H228.104V653.24H225.608Z" fill="#0A0854"/>
<path d="M30.688 420.584C32.496 420.584 33.696 421.656 33.696 423.304C33.696 424.984 32.496 426.04 30.688 426.04V420.584ZM30.688 429.448V428.232C34.144 428.232 36.24 426.088 36.24 423.272C36.24 420.456 34.112 418.392 30.688 418.392V417.368H28.224V418.392C24.784 418.392 22.672 420.456 22.672 423.256C22.672 426.088 24.768 428.232 28.224 428.232V429.448H30.688ZM28.224 426.04C26.416 426.04 25.2 424.984 25.2 423.304C25.2 421.656 26.416 420.584 28.224 420.584V426.04ZM44.6503 429.192C48.1063 429.192 50.6183 426.584 50.6183 423.4C50.6183 420.184 48.1383 417.608 44.6823 417.608C41.2263 417.608 38.7143 420.216 38.7143 423.4C38.7143 426.616 41.1943 429.192 44.6503 429.192ZM44.6823 426.92C42.6983 426.92 41.2903 425.32 41.2903 423.4C41.2903 421.448 42.6663 419.88 44.6503 419.88C46.6343 419.88 48.0423 421.48 48.0423 423.4C48.0423 425.352 46.6663 426.92 44.6823 426.92ZM53.764 429H56.228V425.64H58.1C60.612 425.64 62.628 424.296 62.628 421.704C62.628 419.384 61.012 417.8 58.34 417.8H53.764V429ZM56.228 423.448V420.024H58.132C59.364 420.024 60.132 420.616 60.132 421.72C60.132 422.712 59.412 423.448 58.18 423.448H56.228ZM65.4115 429H67.8275V421.736L70.9475 426.472H71.0115L74.1635 421.688V429H76.6115V417.8H73.9555L71.0115 422.536L68.0675 417.8H65.4115V429ZM79.3021 429H81.8141L82.8381 426.488H87.5741L88.5981 429H91.1741L86.3741 417.72H84.1021L79.3021 429ZM83.7181 424.312L85.2061 420.68L86.6941 424.312H83.7181ZM108.484 417.8H103.364C100.74 417.8 99.1396 419.176 99.1396 421.496C99.1396 423.336 100.116 424.472 101.54 425L98.8036 429H101.684L104.084 425.416H106.02V429H108.484V417.8ZM103.524 423.24C102.324 423.24 101.636 422.6 101.636 421.656C101.636 420.568 102.372 420.024 103.572 420.024H106.02V423.24H103.524ZM118.638 429H121.102V417.8H118.638V422.632C118.126 423.032 117.182 423.352 116.19 423.352C114.926 423.352 114.382 422.568 114.382 421.176V417.8H111.918V421.896C111.918 424.488 113.454 425.656 115.678 425.656C116.814 425.656 117.886 425.192 118.638 424.824V429ZM124.743 429H133.271V426.808H127.191V424.456H132.471V422.264H127.191V419.992H133.191V417.8H124.743V429ZM146.069 417.8H143.781L138.853 425.144V417.8H136.421V429H138.741L143.637 421.656V429H146.069V417.8ZM141.285 416.952C142.757 416.952 143.75 416.056 143.974 414.52L142.549 414.264C142.341 414.92 141.957 415.336 141.285 415.336C140.613 415.336 140.229 414.92 140.021 414.264L138.597 414.52C138.821 416.056 139.813 416.952 141.285 416.952ZM149.725 429H152.189V425.576L153.485 424.232L156.957 429H159.917L155.149 422.552L159.709 417.8H156.733L152.189 422.696V417.8H149.725V429ZM172.021 417.8H169.733L164.805 425.144V417.8H162.373V429H164.693L169.589 421.656V429H172.021V417.8Z" fill="#0A0854"/>
<path d="M52.976 55H54.096V46.208H57.386V45.2H49.686V46.208H52.976V55ZM59.2821 55H60.3181L64.6301 49.274V55H65.7081V47.762H64.6581L60.3601 53.488V47.762H59.2821V55ZM68.1142 55H69.1922V48.714H73.3082V55H74.3862V47.762H68.1142V55ZM84.2551 55.168C85.6131 55.168 86.4811 54.58 87.2091 53.768L86.4951 53.11C85.9211 53.726 85.2351 54.202 84.3111 54.202C82.7991 54.202 81.6511 52.956 81.6511 51.388C81.6511 49.806 82.7711 48.56 84.2411 48.56C85.2211 48.56 85.8931 49.022 86.4671 49.624L87.1531 48.896C86.4811 48.182 85.6271 47.608 84.2551 47.608C82.1411 47.608 80.5451 49.344 80.5451 51.388C80.5451 53.446 82.1411 55.168 84.2551 55.168ZM92.1551 55.168C93.5271 55.168 94.4091 54.622 95.1371 53.81L94.4651 53.208C93.8771 53.824 93.1771 54.23 92.1831 54.23C90.9091 54.23 89.7891 53.348 89.6351 51.822H95.3751C95.3891 51.654 95.3891 51.542 95.3891 51.444C95.3891 49.316 94.1571 47.608 92.0151 47.608C90.0131 47.608 88.5431 49.288 88.5431 51.388C88.5431 53.642 90.1671 55.168 92.1551 55.168ZM89.6351 50.954C89.7891 49.554 90.7411 48.518 91.9871 48.518C93.4151 48.518 94.1711 49.638 94.2971 50.954H89.6351ZM99.0263 55H100.118V48.714H102.708V47.762H96.4363V48.714H99.0263V55ZM104.276 55H105.354V53.25L106.88 51.682L109.456 55H110.73L107.622 50.898L110.646 47.762H109.316L105.354 51.934V47.762H104.276V55ZM112.22 55H113.256L117.568 49.274V55H118.646V47.762H117.596L113.298 53.488V47.762H112.22V55ZM125.249 55H126.327V51.836H130.499V55H131.577V47.762H130.499V50.884H126.327V47.762H125.249V55ZM137.289 55.168C139.473 55.168 141.083 53.432 141.083 51.388C141.083 49.316 139.487 47.608 137.317 47.608C135.133 47.608 133.537 49.344 133.537 51.388C133.537 53.46 135.119 55.168 137.289 55.168ZM137.317 54.202C135.791 54.202 134.643 52.942 134.643 51.388C134.643 49.834 135.721 48.56 137.289 48.56C138.815 48.56 139.977 49.834 139.977 51.388C139.977 52.942 138.885 54.202 137.317 54.202ZM143.036 55H144.086V49.484L146.732 53.152L149.406 49.484V55H150.498V47.762H149.462L146.76 51.57L144.058 47.762H143.036V55ZM156.071 55.168C157.443 55.168 158.325 54.622 159.053 53.81L158.381 53.208C157.793 53.824 157.093 54.23 156.099 54.23C154.825 54.23 153.705 53.348 153.551 51.822H159.291C159.305 51.654 159.305 51.542 159.305 51.444C159.305 49.316 158.073 47.608 155.931 47.608C153.929 47.608 152.459 49.288 152.459 51.388C152.459 53.642 154.083 55.168 156.071 55.168ZM153.551 50.954C153.705 49.554 154.657 48.518 155.903 48.518C157.331 48.518 158.087 49.638 158.213 50.954H153.551ZM161.192 57.24H162.27V53.614C162.83 54.426 163.698 55.154 165.042 55.154C166.792 55.154 168.5 53.754 168.5 51.388C168.5 48.98 166.778 47.608 165.042 47.608C163.712 47.608 162.858 48.35 162.27 49.218V47.762H161.192V57.24ZM164.846 54.188C163.502 54.188 162.228 53.068 162.228 51.388C162.228 49.708 163.502 48.574 164.846 48.574C166.218 48.574 167.394 49.666 167.394 51.374C167.394 53.152 166.246 54.188 164.846 54.188ZM175.988 55H177.08V45.13H176.268L173.874 45.956L174.14 46.852L175.988 46.278V55Z" fill="#1B222A"/>
<path d="M77.976 90H79.096V81.208H82.386V80.2H74.686V81.208H77.976V90ZM84.2821 90H85.3181L89.6301 84.274V90H90.7081V82.762H89.6581L85.3601 88.488V82.762H84.2821V90ZM93.1142 90H94.1922V83.714H98.3082V90H99.3862V82.762H93.1142V90ZM109.255 90.168C110.613 90.168 111.481 89.58 112.209 88.768L111.495 88.11C110.921 88.726 110.235 89.202 109.311 89.202C107.799 89.202 106.651 87.956 106.651 86.388C106.651 84.806 107.771 83.56 109.241 83.56C110.221 83.56 110.893 84.022 111.467 84.624L112.153 83.896C111.481 83.182 110.627 82.608 109.255 82.608C107.141 82.608 105.545 84.344 105.545 86.388C105.545 88.446 107.141 90.168 109.255 90.168ZM117.155 90.168C118.527 90.168 119.409 89.622 120.137 88.81L119.465 88.208C118.877 88.824 118.177 89.23 117.183 89.23C115.909 89.23 114.789 88.348 114.635 86.822H120.375C120.389 86.654 120.389 86.542 120.389 86.444C120.389 84.316 119.157 82.608 117.015 82.608C115.013 82.608 113.543 84.288 113.543 86.388C113.543 88.642 115.167 90.168 117.155 90.168ZM114.635 85.954C114.789 84.554 115.741 83.518 116.987 83.518C118.415 83.518 119.171 84.638 119.297 85.954H114.635ZM124.026 90H125.118V83.714H127.708V82.762H121.436V83.714H124.026V90ZM129.276 90H130.354V88.25L131.88 86.682L134.456 90H135.73L132.622 85.898L135.646 82.762H134.316L130.354 86.934V82.762H129.276V90ZM137.22 90H138.256L142.568 84.274V90H143.646V82.762H142.596L138.298 88.488V82.762H137.22V90ZM150.249 90H151.327V86.836H155.499V90H156.577V82.762H155.499V85.884H151.327V82.762H150.249V90ZM162.289 90.168C164.473 90.168 166.083 88.432 166.083 86.388C166.083 84.316 164.487 82.608 162.317 82.608C160.133 82.608 158.537 84.344 158.537 86.388C158.537 88.46 160.119 90.168 162.289 90.168ZM162.317 89.202C160.791 89.202 159.643 87.942 159.643 86.388C159.643 84.834 160.721 83.56 162.289 83.56C163.815 83.56 164.977 84.834 164.977 86.388C164.977 87.942 163.885 89.202 162.317 89.202ZM168.036 90H169.086V84.484L171.732 88.152L174.406 84.484V90H175.498V82.762H174.462L171.76 86.57L169.058 82.762H168.036V90ZM181.071 90.168C182.443 90.168 183.325 89.622 184.053 88.81L183.381 88.208C182.793 88.824 182.093 89.23 181.099 89.23C179.825 89.23 178.705 88.348 178.551 86.822H184.291C184.305 86.654 184.305 86.542 184.305 86.444C184.305 84.316 183.073 82.608 180.931 82.608C178.929 82.608 177.459 84.288 177.459 86.388C177.459 88.642 179.083 90.168 181.071 90.168ZM178.551 85.954C178.705 84.554 179.657 83.518 180.903 83.518C182.331 83.518 183.087 84.638 183.213 85.954H178.551ZM186.192 92.24H187.27V88.614C187.83 89.426 188.698 90.154 190.042 90.154C191.792 90.154 193.5 88.754 193.5 86.388C193.5 83.98 191.778 82.608 190.042 82.608C188.712 82.608 187.858 83.35 187.27 84.218V82.762H186.192V92.24ZM189.846 89.188C188.502 89.188 187.228 88.068 187.228 86.388C187.228 84.708 188.502 83.574 189.846 83.574C191.218 83.574 192.394 84.666 192.394 86.374C192.394 88.152 191.246 89.188 189.846 89.188ZM200.988 90H202.08V80.13H201.268L198.874 80.956L199.14 81.852L200.988 81.278V90Z" fill="#ED1C24"/>
<path d="M52.976 123H54.096V114.208H57.386V113.2H49.686V114.208H52.976V123ZM59.2821 123H60.3181L64.6301 117.274V123H65.7081V115.762H64.6581L60.3601 121.488V115.762H59.2821V123ZM68.1142 123H69.1922V116.714H73.3082V123H74.3862V115.762H68.1142V123ZM84.2551 123.168C85.6131 123.168 86.4811 122.58 87.2091 121.768L86.4951 121.11C85.9211 121.726 85.2351 122.202 84.3111 122.202C82.7991 122.202 81.6511 120.956 81.6511 119.388C81.6511 117.806 82.7711 116.56 84.2411 116.56C85.2211 116.56 85.8931 117.022 86.4671 117.624L87.1531 116.896C86.4811 116.182 85.6271 115.608 84.2551 115.608C82.1411 115.608 80.5451 117.344 80.5451 119.388C80.5451 121.446 82.1411 123.168 84.2551 123.168ZM92.1551 123.168C93.5271 123.168 94.4091 122.622 95.1371 121.81L94.4651 121.208C93.8771 121.824 93.1771 122.23 92.1831 122.23C90.9091 122.23 89.7891 121.348 89.6351 119.822H95.3751C95.3891 119.654 95.3891 119.542 95.3891 119.444C95.3891 117.316 94.1571 115.608 92.0151 115.608C90.0131 115.608 88.5431 117.288 88.5431 119.388C88.5431 121.642 90.1671 123.168 92.1551 123.168ZM89.6351 118.954C89.7891 117.554 90.7411 116.518 91.9871 116.518C93.4151 116.518 94.1711 117.638 94.2971 118.954H89.6351ZM99.0263 123H100.118V116.714H102.708V115.762H96.4363V116.714H99.0263V123ZM104.276 123H105.354V121.25L106.88 119.682L109.456 123H110.73L107.622 118.898L110.646 115.762H109.316L105.354 119.934V115.762H104.276V123ZM112.22 123H113.256L117.568 117.274V123H118.646V115.762H117.596L113.298 121.488V115.762H112.22V123ZM125.249 123H126.327V119.836H130.499V123H131.577V115.762H130.499V118.884H126.327V115.762H125.249V123ZM137.289 123.168C139.473 123.168 141.083 121.432 141.083 119.388C141.083 117.316 139.487 115.608 137.317 115.608C135.133 115.608 133.537 117.344 133.537 119.388C133.537 121.46 135.119 123.168 137.289 123.168ZM137.317 122.202C135.791 122.202 134.643 120.942 134.643 119.388C134.643 117.834 135.721 116.56 137.289 116.56C138.815 116.56 139.977 117.834 139.977 119.388C139.977 120.942 138.885 122.202 137.317 122.202ZM143.036 123H144.086V117.484L146.732 121.152L149.406 117.484V123H150.498V115.762H149.462L146.76 119.57L144.058 115.762H143.036V123ZM156.071 123.168C157.443 123.168 158.325 122.622 159.053 121.81L158.381 121.208C157.793 121.824 157.093 122.23 156.099 122.23C154.825 122.23 153.705 121.348 153.551 119.822H159.291C159.305 119.654 159.305 119.542 159.305 119.444C159.305 117.316 158.073 115.608 155.931 115.608C153.929 115.608 152.459 117.288 152.459 119.388C152.459 121.642 154.083 123.168 156.071 123.168ZM153.551 118.954C153.705 117.554 154.657 116.518 155.903 116.518C157.331 116.518 158.087 117.638 158.213 118.954H153.551ZM161.192 125.24H162.27V121.614C162.83 122.426 163.698 123.154 165.042 123.154C166.792 123.154 168.5 121.754 168.5 119.388C168.5 116.98 166.778 115.608 165.042 115.608C163.712 115.608 162.858 116.35 162.27 117.218V115.762H161.192V125.24ZM164.846 122.188C163.502 122.188 162.228 121.068 162.228 119.388C162.228 117.708 163.502 116.574 164.846 116.574C166.218 116.574 167.394 117.666 167.394 119.374C167.394 121.152 166.246 122.188 164.846 122.188ZM175.988 123H177.08V113.13H176.268L173.874 113.956L174.14 114.852L175.988 114.278V123Z" fill="#1B222A"/>
<path d="M52.976 157H54.096V148.208H57.386V147.2H49.686V148.208H52.976V157ZM59.2821 157H60.3181L64.6301 151.274V157H65.7081V149.762H64.6581L60.3601 155.488V149.762H59.2821V157ZM68.1142 157H69.1922V150.714H73.3082V157H74.3862V149.762H68.1142V157ZM84.2551 157.168C85.6131 157.168 86.4811 156.58 87.2091 155.768L86.4951 155.11C85.9211 155.726 85.2351 156.202 84.3111 156.202C82.7991 156.202 81.6511 154.956 81.6511 153.388C81.6511 151.806 82.7711 150.56 84.2411 150.56C85.2211 150.56 85.8931 151.022 86.4671 151.624L87.1531 150.896C86.4811 150.182 85.6271 149.608 84.2551 149.608C82.1411 149.608 80.5451 151.344 80.5451 153.388C80.5451 155.446 82.1411 157.168 84.2551 157.168ZM92.1551 157.168C93.5271 157.168 94.4091 156.622 95.1371 155.81L94.4651 155.208C93.8771 155.824 93.1771 156.23 92.1831 156.23C90.9091 156.23 89.7891 155.348 89.6351 153.822H95.3751C95.3891 153.654 95.3891 153.542 95.3891 153.444C95.3891 151.316 94.1571 149.608 92.0151 149.608C90.0131 149.608 88.5431 151.288 88.5431 153.388C88.5431 155.642 90.1671 157.168 92.1551 157.168ZM89.6351 152.954C89.7891 151.554 90.7411 150.518 91.9871 150.518C93.4151 150.518 94.1711 151.638 94.2971 152.954H89.6351ZM99.0263 157H100.118V150.714H102.708V149.762H96.4363V150.714H99.0263V157ZM104.276 157H105.354V155.25L106.88 153.682L109.456 157H110.73L107.622 152.898L110.646 149.762H109.316L105.354 153.934V149.762H104.276V157ZM112.22 157H113.256L117.568 151.274V157H118.646V149.762H117.596L113.298 155.488V149.762H112.22V157ZM125.249 157H126.327V153.836H130.499V157H131.577V149.762H130.499V152.884H126.327V149.762H125.249V157ZM137.289 157.168C139.473 157.168 141.083 155.432 141.083 153.388C141.083 151.316 139.487 149.608 137.317 149.608C135.133 149.608 133.537 151.344 133.537 153.388C133.537 155.46 135.119 157.168 137.289 157.168ZM137.317 156.202C135.791 156.202 134.643 154.942 134.643 153.388C134.643 151.834 135.721 150.56 137.289 150.56C138.815 150.56 139.977 151.834 139.977 153.388C139.977 154.942 138.885 156.202 137.317 156.202ZM143.036 157H144.086V151.484L146.732 155.152L149.406 151.484V157H150.498V149.762H149.462L146.76 153.57L144.058 149.762H143.036V157ZM156.071 157.168C157.443 157.168 158.325 156.622 159.053 155.81L158.381 155.208C157.793 155.824 157.093 156.23 156.099 156.23C154.825 156.23 153.705 155.348 153.551 153.822H159.291C159.305 153.654 159.305 153.542 159.305 153.444C159.305 151.316 158.073 149.608 155.931 149.608C153.929 149.608 152.459 151.288 152.459 153.388C152.459 155.642 154.083 157.168 156.071 157.168ZM153.551 152.954C153.705 151.554 154.657 150.518 155.903 150.518C157.331 150.518 158.087 151.638 158.213 152.954H153.551ZM161.192 159.24H162.27V155.614C162.83 156.426 163.698 157.154 165.042 157.154C166.792 157.154 168.5 155.754 168.5 153.388C168.5 150.98 166.778 149.608 165.042 149.608C163.712 149.608 162.858 150.35 162.27 151.218V149.762H161.192V159.24ZM164.846 156.188C163.502 156.188 162.228 155.068 162.228 153.388C162.228 151.708 163.502 150.574 164.846 150.574C166.218 150.574 167.394 151.666 167.394 153.374C167.394 155.152 166.246 156.188 164.846 156.188ZM175.988 157H177.08V147.13H176.268L173.874 147.956L174.14 148.852L175.988 148.278V157Z" fill="#1B222A"/>
<rect x="58.1172" y="303.383" width="9.1924" height="1.78967" transform="rotate(-135 58.1172 303.383)" fill="#ED1C24"/>
<rect x="51.6172" y="302.117" width="9.1924" height="1.78967" transform="rotate(-45 51.6172 302.117)" fill="#ED1C24"/>
<path d="M49.546 269H50.75L53.004 266.046L55.244 269H56.49L53.634 265.29L56.378 261.762H55.174L53.032 264.562L50.89 261.762H49.658L52.388 265.318L49.546 269ZM57.5851 269H58.7891L61.0431 266.046L63.2831 269H64.5291L61.6731 265.29L64.4171 261.762H63.2131L61.0711 264.562L58.9291 261.762H57.6971L60.4271 265.318L57.5851 269ZM65.6241 269H66.8281L69.0821 266.046L71.3221 269H72.5681L69.7121 265.29L72.4561 261.762H71.2521L69.1101 264.562L66.9681 261.762H65.7361L68.4661 265.318L65.6241 269ZM78.2245 265.36H82.1165V264.226H78.2245V265.36ZM87.7726 269H88.9766L91.2306 266.046L93.4706 269H94.7166L91.8606 265.29L94.6046 261.762H93.4006L91.2586 264.562L89.1166 261.762H87.8846L90.6146 265.318L87.7726 269ZM95.8116 269H97.0156L99.2696 266.046L101.51 269H102.756L99.8996 265.29L102.644 261.762H101.44L99.2976 264.562L97.1556 261.762H95.9236L98.6536 265.318L95.8116 269ZM103.851 269H105.055L107.309 266.046L109.549 269H110.795L107.939 265.29L110.683 261.762H109.479L107.337 264.562L105.195 261.762H103.963L106.693 265.318L103.851 269Z" fill="#1B222A"/>
<path d="M74.546 304H75.75L78.004 301.046L80.244 304H81.49L78.634 300.29L81.378 296.762H80.174L78.032 299.562L75.89 296.762H74.658L77.388 300.318L74.546 304ZM82.5851 304H83.7891L86.0431 301.046L88.2831 304H89.5291L86.6731 300.29L89.4171 296.762H88.2131L86.0711 299.562L83.9291 296.762H82.6971L85.4271 300.318L82.5851 304ZM90.6241 304H91.8281L94.0821 301.046L96.3221 304H97.5681L94.7121 300.29L97.4561 296.762H96.2521L94.1101 299.562L91.9681 296.762H90.7361L93.4661 300.318L90.6241 304ZM103.224 300.36H107.116V299.226H103.224V300.36ZM112.773 304H113.977L116.231 301.046L118.471 304H119.717L116.861 300.29L119.605 296.762H118.401L116.259 299.562L114.117 296.762H112.885L115.615 300.318L112.773 304ZM120.812 304H122.016L124.27 301.046L126.51 304H127.756L124.9 300.29L127.644 296.762H126.44L124.298 299.562L122.156 296.762H120.924L123.654 300.318L120.812 304ZM128.851 304H130.055L132.309 301.046L134.549 304H135.795L132.939 300.29L135.683 296.762H134.479L132.337 299.562L130.195 296.762H128.963L131.693 300.318L128.851 304Z" fill="#ED1C24"/>
<path d="M49.546 337H50.75L53.004 334.046L55.244 337H56.49L53.634 333.29L56.378 329.762H55.174L53.032 332.562L50.89 329.762H49.658L52.388 333.318L49.546 337ZM57.5851 337H58.7891L61.0431 334.046L63.2831 337H64.5291L61.6731 333.29L64.4171 329.762H63.2131L61.0711 332.562L58.9291 329.762H57.6971L60.4271 333.318L57.5851 337ZM65.6241 337H66.8281L69.0821 334.046L71.3221 337H72.5681L69.7121 333.29L72.4561 329.762H71.2521L69.1101 332.562L66.9681 329.762H65.7361L68.4661 333.318L65.6241 337ZM78.2245 333.36H82.1165V332.226H78.2245V333.36ZM87.7726 337H88.9766L91.2306 334.046L93.4706 337H94.7166L91.8606 333.29L94.6046 329.762H93.4006L91.2586 332.562L89.1166 329.762H87.8846L90.6146 333.318L87.7726 337ZM95.8116 337H97.0156L99.2696 334.046L101.51 337H102.756L99.8996 333.29L102.644 329.762H101.44L99.2976 332.562L97.1556 329.762H95.9236L98.6536 333.318L95.8116 337ZM103.851 337H105.055L107.309 334.046L109.549 337H110.795L107.939 333.29L110.683 329.762H109.479L107.337 332.562L105.195 329.762H103.963L106.693 333.318L103.851 337Z" fill="#1B222A"/>
<path d="M49.546 371H50.75L53.004 368.046L55.244 371H56.49L53.634 367.29L56.378 363.762H55.174L53.032 366.562L50.89 363.762H49.658L52.388 367.318L49.546 371ZM57.5851 371H58.7891L61.0431 368.046L63.2831 371H64.5291L61.6731 367.29L64.4171 363.762H63.2131L61.0711 366.562L58.9291 363.762H57.6971L60.4271 367.318L57.5851 371ZM65.6241 371H66.8281L69.0821 368.046L71.3221 371H72.5681L69.7121 367.29L72.4561 363.762H71.2521L69.1101 366.562L66.9681 363.762H65.7361L68.4661 367.318L65.6241 371ZM78.2245 367.36H82.1165V366.226H78.2245V367.36ZM87.7726 371H88.9766L91.2306 368.046L93.4706 371H94.7166L91.8606 367.29L94.6046 363.762H93.4006L91.2586 366.562L89.1166 363.762H87.8846L90.6146 367.318L87.7726 371ZM95.8116 371H97.0156L99.2696 368.046L101.51 371H102.756L99.8996 367.29L102.644 363.762H101.44L99.2976 366.562L97.1556 363.762H95.9236L98.6536 367.318L95.8116 371ZM103.851 371H105.055L107.309 368.046L109.549 371H110.795L107.939 367.29L110.683 363.762H109.479L107.337 366.562L105.195 363.762H103.963L106.693 367.318L103.851 371Z" fill="#1B222A"/>
<rect x="58.1172" y="509.383" width="9.1924" height="1.78967" transform="rotate(-135 58.1172 509.383)" fill="#ED1C24"/>
<rect x="51.6172" y="508.117" width="9.1924" height="1.78967" transform="rotate(-45 51.6172 508.117)" fill="#ED1C24"/>
<path d="M54.726 475.364H55.832V474.286C58.996 474.286 60.788 472.606 60.788 470.058C60.788 467.51 58.982 465.844 55.832 465.844V464.878H54.726V465.844C51.576 465.844 49.77 467.51 49.77 470.058C49.77 472.606 51.562 474.286 54.726 474.286V475.364ZM54.726 473.278C52.304 473.278 50.918 472.158 50.918 470.072C50.918 468 52.304 466.852 54.726 466.852V473.278ZM55.832 473.278V466.852C58.254 466.852 59.64 468 59.64 470.072C59.64 472.158 58.254 473.278 55.832 473.278ZM66.0725 475.168C68.2565 475.168 69.8665 473.432 69.8665 471.388C69.8665 469.316 68.2705 467.608 66.1005 467.608C63.9165 467.608 62.3205 469.344 62.3205 471.388C62.3205 473.46 63.9025 475.168 66.0725 475.168ZM66.1005 474.202C64.5745 474.202 63.4265 472.942 63.4265 471.388C63.4265 469.834 64.5045 468.56 66.0725 468.56C67.5985 468.56 68.7605 469.834 68.7605 471.388C68.7605 472.942 67.6685 474.202 66.1005 474.202ZM71.8192 477.24H72.8972V473.614C73.4572 474.426 74.3252 475.154 75.6692 475.154C77.4192 475.154 79.1272 473.754 79.1272 471.388C79.1272 468.98 77.4052 467.608 75.6692 467.608C74.3392 467.608 73.4852 468.35 72.8972 469.218V467.762H71.8192V477.24ZM75.4732 474.188C74.1292 474.188 72.8552 473.068 72.8552 471.388C72.8552 469.708 74.1292 468.574 75.4732 468.574C76.8452 468.574 78.0212 469.666 78.0212 471.374C78.0212 473.152 76.8732 474.188 75.4732 474.188ZM81.1161 475H82.1661V469.484L84.8121 473.152L87.4861 469.484V475H88.5781V467.762H87.5421L84.8401 471.57L82.1381 467.762H81.1161V475ZM93.1432 475.154C94.4172 475.154 95.2432 474.566 95.7472 473.922V475H96.8112V470.576C96.8112 469.652 96.5592 468.952 96.0552 468.448C95.5372 467.93 94.7392 467.65 93.7172 467.65C92.6532 467.65 91.8832 467.902 91.0852 468.266L91.4072 469.148C92.0792 468.84 92.7512 468.63 93.6052 468.63C94.9632 468.63 95.7472 469.302 95.7472 470.59V470.814C95.1032 470.632 94.4592 470.506 93.5352 470.506C91.7012 470.506 90.4412 471.318 90.4412 472.872C90.4412 474.384 91.7852 475.154 93.1432 475.154ZM93.3532 474.286C92.3732 474.286 91.5332 473.754 91.5332 472.844C91.5332 471.948 92.3032 471.36 93.6472 471.36C94.5292 471.36 95.2292 471.514 95.7612 471.668V472.34C95.7612 473.488 94.6832 474.286 93.3532 474.286ZM103.292 475H104.37V471.836H108.542V475H109.62V467.762H108.542V470.884H104.37V467.762H103.292V475ZM115.332 475.168C117.516 475.168 119.126 473.432 119.126 471.388C119.126 469.316 117.53 467.608 115.36 467.608C113.176 467.608 111.58 469.344 111.58 471.388C111.58 473.46 113.162 475.168 115.332 475.168ZM115.36 474.202C113.834 474.202 112.686 472.942 112.686 471.388C112.686 469.834 113.764 468.56 115.332 468.56C116.858 468.56 118.02 469.834 118.02 471.388C118.02 472.942 116.928 474.202 115.36 474.202ZM121.079 475H122.129V469.484L124.775 473.152L127.449 469.484V475H128.541V467.762H127.505L124.803 471.57L122.101 467.762H121.079V475ZM134.114 475.168C135.486 475.168 136.368 474.622 137.096 473.81L136.424 473.208C135.836 473.824 135.136 474.23 134.142 474.23C132.868 474.23 131.748 473.348 131.594 471.822H137.334C137.348 471.654 137.348 471.542 137.348 471.444C137.348 469.316 136.116 467.608 133.974 467.608C131.972 467.608 130.502 469.288 130.502 471.388C130.502 473.642 132.126 475.168 134.114 475.168ZM131.594 470.954C131.748 469.554 132.7 468.518 133.946 468.518C135.374 468.518 136.13 469.638 136.256 470.954H131.594ZM139.235 477.24H140.313V473.614C140.873 474.426 141.741 475.154 143.085 475.154C144.835 475.154 146.543 473.754 146.543 471.388C146.543 468.98 144.821 467.608 143.085 467.608C141.755 467.608 140.901 468.35 140.313 469.218V467.762H139.235V477.24ZM142.889 474.188C141.545 474.188 140.271 473.068 140.271 471.388C140.271 469.708 141.545 468.574 142.889 468.574C144.261 468.574 145.437 469.666 145.437 471.374C145.437 473.152 144.289 474.188 142.889 474.188ZM154.031 475H155.123V465.13H154.311L151.917 465.956L152.183 466.852L154.031 466.278V475Z" fill="#1B222A"/>
<path d="M79.726 510.364H80.832V509.286C83.996 509.286 85.788 507.606 85.788 505.058C85.788 502.51 83.982 500.844 80.832 500.844V499.878H79.726V500.844C76.576 500.844 74.77 502.51 74.77 505.058C74.77 507.606 76.562 509.286 79.726 509.286V510.364ZM79.726 508.278C77.304 508.278 75.918 507.158 75.918 505.072C75.918 503 77.304 501.852 79.726 501.852V508.278ZM80.832 508.278V501.852C83.254 501.852 84.64 503 84.64 505.072C84.64 507.158 83.254 508.278 80.832 508.278ZM91.0725 510.168C93.2565 510.168 94.8665 508.432 94.8665 506.388C94.8665 504.316 93.2705 502.608 91.1005 502.608C88.9165 502.608 87.3205 504.344 87.3205 506.388C87.3205 508.46 88.9025 510.168 91.0725 510.168ZM91.1005 509.202C89.5745 509.202 88.4265 507.942 88.4265 506.388C88.4265 504.834 89.5045 503.56 91.0725 503.56C92.5985 503.56 93.7605 504.834 93.7605 506.388C93.7605 507.942 92.6685 509.202 91.1005 509.202ZM96.8192 512.24H97.8972V508.614C98.4572 509.426 99.3252 510.154 100.669 510.154C102.419 510.154 104.127 508.754 104.127 506.388C104.127 503.98 102.405 502.608 100.669 502.608C99.3392 502.608 98.4852 503.35 97.8972 504.218V502.762H96.8192V512.24ZM100.473 509.188C99.1292 509.188 97.8552 508.068 97.8552 506.388C97.8552 504.708 99.1292 503.574 100.473 503.574C101.845 503.574 103.021 504.666 103.021 506.374C103.021 508.152 101.873 509.188 100.473 509.188ZM106.116 510H107.166V504.484L109.812 508.152L112.486 504.484V510H113.578V502.762H112.542L109.84 506.57L107.138 502.762H106.116V510ZM118.143 510.154C119.417 510.154 120.243 509.566 120.747 508.922V510H121.811V505.576C121.811 504.652 121.559 503.952 121.055 503.448C120.537 502.93 119.739 502.65 118.717 502.65C117.653 502.65 116.883 502.902 116.085 503.266L116.407 504.148C117.079 503.84 117.751 503.63 118.605 503.63C119.963 503.63 120.747 504.302 120.747 505.59V505.814C120.103 505.632 119.459 505.506 118.535 505.506C116.701 505.506 115.441 506.318 115.441 507.872C115.441 509.384 116.785 510.154 118.143 510.154ZM118.353 509.286C117.373 509.286 116.533 508.754 116.533 507.844C116.533 506.948 117.303 506.36 118.647 506.36C119.529 506.36 120.229 506.514 120.761 506.668V507.34C120.761 508.488 119.683 509.286 118.353 509.286ZM128.292 510H129.37V506.836H133.542V510H134.62V502.762H133.542V505.884H129.37V502.762H128.292V510ZM140.332 510.168C142.516 510.168 144.126 508.432 144.126 506.388C144.126 504.316 142.53 502.608 140.36 502.608C138.176 502.608 136.58 504.344 136.58 506.388C136.58 508.46 138.162 510.168 140.332 510.168ZM140.36 509.202C138.834 509.202 137.686 507.942 137.686 506.388C137.686 504.834 138.764 503.56 140.332 503.56C141.858 503.56 143.02 504.834 143.02 506.388C143.02 507.942 141.928 509.202 140.36 509.202ZM146.079 510H147.129V504.484L149.775 508.152L152.449 504.484V510H153.541V502.762H152.505L149.803 506.57L147.101 502.762H146.079V510ZM159.114 510.168C160.486 510.168 161.368 509.622 162.096 508.81L161.424 508.208C160.836 508.824 160.136 509.23 159.142 509.23C157.868 509.23 156.748 508.348 156.594 506.822H162.334C162.348 506.654 162.348 506.542 162.348 506.444C162.348 504.316 161.116 502.608 158.974 502.608C156.972 502.608 155.502 504.288 155.502 506.388C155.502 508.642 157.126 510.168 159.114 510.168ZM156.594 505.954C156.748 504.554 157.7 503.518 158.946 503.518C160.374 503.518 161.13 504.638 161.256 505.954H156.594ZM164.235 512.24H165.313V508.614C165.873 509.426 166.741 510.154 168.085 510.154C169.835 510.154 171.543 508.754 171.543 506.388C171.543 503.98 169.821 502.608 168.085 502.608C166.755 502.608 165.901 503.35 165.313 504.218V502.762H164.235V512.24ZM167.889 509.188C166.545 509.188 165.271 508.068 165.271 506.388C165.271 504.708 166.545 503.574 167.889 503.574C169.261 503.574 170.437 504.666 170.437 506.374C170.437 508.152 169.289 509.188 167.889 509.188ZM179.031 510H180.123V500.13H179.311L176.917 500.956L177.183 501.852L179.031 501.278V510Z" fill="#ED1C24"/>
<path d="M54.726 543.364H55.832V542.286C58.996 542.286 60.788 540.606 60.788 538.058C60.788 535.51 58.982 533.844 55.832 533.844V532.878H54.726V533.844C51.576 533.844 49.77 535.51 49.77 538.058C49.77 540.606 51.562 542.286 54.726 542.286V543.364ZM54.726 541.278C52.304 541.278 50.918 540.158 50.918 538.072C50.918 536 52.304 534.852 54.726 534.852V541.278ZM55.832 541.278V534.852C58.254 534.852 59.64 536 59.64 538.072C59.64 540.158 58.254 541.278 55.832 541.278ZM66.0725 543.168C68.2565 543.168 69.8665 541.432 69.8665 539.388C69.8665 537.316 68.2705 535.608 66.1005 535.608C63.9165 535.608 62.3205 537.344 62.3205 539.388C62.3205 541.46 63.9025 543.168 66.0725 543.168ZM66.1005 542.202C64.5745 542.202 63.4265 540.942 63.4265 539.388C63.4265 537.834 64.5045 536.56 66.0725 536.56C67.5985 536.56 68.7605 537.834 68.7605 539.388C68.7605 540.942 67.6685 542.202 66.1005 542.202ZM71.8192 545.24H72.8972V541.614C73.4572 542.426 74.3252 543.154 75.6692 543.154C77.4192 543.154 79.1272 541.754 79.1272 539.388C79.1272 536.98 77.4052 535.608 75.6692 535.608C74.3392 535.608 73.4852 536.35 72.8972 537.218V535.762H71.8192V545.24ZM75.4732 542.188C74.1292 542.188 72.8552 541.068 72.8552 539.388C72.8552 537.708 74.1292 536.574 75.4732 536.574C76.8452 536.574 78.0212 537.666 78.0212 539.374C78.0212 541.152 76.8732 542.188 75.4732 542.188ZM81.1161 543H82.1661V537.484L84.8121 541.152L87.4861 537.484V543H88.5781V535.762H87.5421L84.8401 539.57L82.1381 535.762H81.1161V543ZM93.1432 543.154C94.4172 543.154 95.2432 542.566 95.7472 541.922V543H96.8112V538.576C96.8112 537.652 96.5592 536.952 96.0552 536.448C95.5372 535.93 94.7392 535.65 93.7172 535.65C92.6532 535.65 91.8832 535.902 91.0852 536.266L91.4072 537.148C92.0792 536.84 92.7512 536.63 93.6052 536.63C94.9632 536.63 95.7472 537.302 95.7472 538.59V538.814C95.1032 538.632 94.4592 538.506 93.5352 538.506C91.7012 538.506 90.4412 539.318 90.4412 540.872C90.4412 542.384 91.7852 543.154 93.1432 543.154ZM93.3532 542.286C92.3732 542.286 91.5332 541.754 91.5332 540.844C91.5332 539.948 92.3032 539.36 93.6472 539.36C94.5292 539.36 95.2292 539.514 95.7612 539.668V540.34C95.7612 541.488 94.6832 542.286 93.3532 542.286ZM103.292 543H104.37V539.836H108.542V543H109.62V535.762H108.542V538.884H104.37V535.762H103.292V543ZM115.332 543.168C117.516 543.168 119.126 541.432 119.126 539.388C119.126 537.316 117.53 535.608 115.36 535.608C113.176 535.608 111.58 537.344 111.58 539.388C111.58 541.46 113.162 543.168 115.332 543.168ZM115.36 542.202C113.834 542.202 112.686 540.942 112.686 539.388C112.686 537.834 113.764 536.56 115.332 536.56C116.858 536.56 118.02 537.834 118.02 539.388C118.02 540.942 116.928 542.202 115.36 542.202ZM121.079 543H122.129V537.484L124.775 541.152L127.449 537.484V543H128.541V535.762H127.505L124.803 539.57L122.101 535.762H121.079V543ZM134.114 543.168C135.486 543.168 136.368 542.622 137.096 541.81L136.424 541.208C135.836 541.824 135.136 542.23 134.142 542.23C132.868 542.23 131.748 541.348 131.594 539.822H137.334C137.348 539.654 137.348 539.542 137.348 539.444C137.348 537.316 136.116 535.608 133.974 535.608C131.972 535.608 130.502 537.288 130.502 539.388C130.502 541.642 132.126 543.168 134.114 543.168ZM131.594 538.954C131.748 537.554 132.7 536.518 133.946 536.518C135.374 536.518 136.13 537.638 136.256 538.954H131.594ZM139.235 545.24H140.313V541.614C140.873 542.426 141.741 543.154 143.085 543.154C144.835 543.154 146.543 541.754 146.543 539.388C146.543 536.98 144.821 535.608 143.085 535.608C141.755 535.608 140.901 536.35 140.313 537.218V535.762H139.235V545.24ZM142.889 542.188C141.545 542.188 140.271 541.068 140.271 539.388C140.271 537.708 141.545 536.574 142.889 536.574C144.261 536.574 145.437 537.666 145.437 539.374C145.437 541.152 144.289 542.188 142.889 542.188ZM154.031 543H155.123V533.13H154.311L151.917 533.956L152.183 534.852L154.031 534.278V543Z" fill="#1B222A"/>
<path d="M54.726 577.364H55.832V576.286C58.996 576.286 60.788 574.606 60.788 572.058C60.788 569.51 58.982 567.844 55.832 567.844V566.878H54.726V567.844C51.576 567.844 49.77 569.51 49.77 572.058C49.77 574.606 51.562 576.286 54.726 576.286V577.364ZM54.726 575.278C52.304 575.278 50.918 574.158 50.918 572.072C50.918 570 52.304 568.852 54.726 568.852V575.278ZM55.832 575.278V568.852C58.254 568.852 59.64 570 59.64 572.072C59.64 574.158 58.254 575.278 55.832 575.278ZM66.0725 577.168C68.2565 577.168 69.8665 575.432 69.8665 573.388C69.8665 571.316 68.2705 569.608 66.1005 569.608C63.9165 569.608 62.3205 571.344 62.3205 573.388C62.3205 575.46 63.9025 577.168 66.0725 577.168ZM66.1005 576.202C64.5745 576.202 63.4265 574.942 63.4265 573.388C63.4265 571.834 64.5045 570.56 66.0725 570.56C67.5985 570.56 68.7605 571.834 68.7605 573.388C68.7605 574.942 67.6685 576.202 66.1005 576.202ZM71.8192 579.24H72.8972V575.614C73.4572 576.426 74.3252 577.154 75.6692 577.154C77.4192 577.154 79.1272 575.754 79.1272 573.388C79.1272 570.98 77.4052 569.608 75.6692 569.608C74.3392 569.608 73.4852 570.35 72.8972 571.218V569.762H71.8192V579.24ZM75.4732 576.188C74.1292 576.188 72.8552 575.068 72.8552 573.388C72.8552 571.708 74.1292 570.574 75.4732 570.574C76.8452 570.574 78.0212 571.666 78.0212 573.374C78.0212 575.152 76.8732 576.188 75.4732 576.188ZM81.1161 577H82.1661V571.484L84.8121 575.152L87.4861 571.484V577H88.5781V569.762H87.5421L84.8401 573.57L82.1381 569.762H81.1161V577ZM93.1432 577.154C94.4172 577.154 95.2432 576.566 95.7472 575.922V577H96.8112V572.576C96.8112 571.652 96.5592 570.952 96.0552 570.448C95.5372 569.93 94.7392 569.65 93.7172 569.65C92.6532 569.65 91.8832 569.902 91.0852 570.266L91.4072 571.148C92.0792 570.84 92.7512 570.63 93.6052 570.63C94.9632 570.63 95.7472 571.302 95.7472 572.59V572.814C95.1032 572.632 94.4592 572.506 93.5352 572.506C91.7012 572.506 90.4412 573.318 90.4412 574.872C90.4412 576.384 91.7852 577.154 93.1432 577.154ZM93.3532 576.286C92.3732 576.286 91.5332 575.754 91.5332 574.844C91.5332 573.948 92.3032 573.36 93.6472 573.36C94.5292 573.36 95.2292 573.514 95.7612 573.668V574.34C95.7612 575.488 94.6832 576.286 93.3532 576.286ZM103.292 577H104.37V573.836H108.542V577H109.62V569.762H108.542V572.884H104.37V569.762H103.292V577ZM115.332 577.168C117.516 577.168 119.126 575.432 119.126 573.388C119.126 571.316 117.53 569.608 115.36 569.608C113.176 569.608 111.58 571.344 111.58 573.388C111.58 575.46 113.162 577.168 115.332 577.168ZM115.36 576.202C113.834 576.202 112.686 574.942 112.686 573.388C112.686 571.834 113.764 570.56 115.332 570.56C116.858 570.56 118.02 571.834 118.02 573.388C118.02 574.942 116.928 576.202 115.36 576.202ZM121.079 577H122.129V571.484L124.775 575.152L127.449 571.484V577H128.541V569.762H127.505L124.803 573.57L122.101 569.762H121.079V577ZM134.114 577.168C135.486 577.168 136.368 576.622 137.096 575.81L136.424 575.208C135.836 575.824 135.136 576.23 134.142 576.23C132.868 576.23 131.748 575.348 131.594 573.822H137.334C137.348 573.654 137.348 573.542 137.348 573.444C137.348 571.316 136.116 569.608 133.974 569.608C131.972 569.608 130.502 571.288 130.502 573.388C130.502 575.642 132.126 577.168 134.114 577.168ZM131.594 572.954C131.748 571.554 132.7 570.518 133.946 570.518C135.374 570.518 136.13 571.638 136.256 572.954H131.594ZM139.235 579.24H140.313V575.614C140.873 576.426 141.741 577.154 143.085 577.154C144.835 577.154 146.543 575.754 146.543 573.388C146.543 570.98 144.821 569.608 143.085 569.608C141.755 569.608 140.901 570.35 140.313 571.218V569.762H139.235V579.24ZM142.889 576.188C141.545 576.188 140.271 575.068 140.271 573.388C140.271 571.708 141.545 570.574 142.889 570.574C144.261 570.574 145.437 571.666 145.437 573.374C145.437 575.152 144.289 576.188 142.889 576.188ZM154.031 577H155.123V567.13H154.311L151.917 567.956L152.183 568.852L154.031 568.278V577Z" fill="#1B222A"/>
<rect width="244" height="3" rx="1.5" transform="matrix(1 0 0 -1 23 920)" fill="#61A0FF"/>
<rect width="153" height="3" rx="1.5" transform="matrix(1 0 0 -1 69 920)" fill="#ED1C24"/>
<path d="M31.648 889.336H33.696L34.016 884.776H32.688V875.8H30.224V884.776H25.808V875.8H23.344V887H31.648V889.336ZM36.7103 887H45.2383V884.808H39.1583V882.456H44.4383V880.264H39.1583V877.992H45.1583V875.8H36.7103V887ZM48.389 887H50.853V882.504H55.397V887H57.861V875.8H55.397V880.232H50.853V875.8H48.389V887ZM60.5453 887H63.0573L64.0813 884.488H68.8173L69.8413 887H72.4173L67.6173 875.72H65.3453L60.5453 887ZM64.9613 882.312L66.4493 878.68L67.9373 882.312H64.9613Z" fill="#0A0854"/>
<rect x="58.1172" y="757.383" width="9.1924" height="1.78967" transform="rotate(-135 58.1172 757.383)" fill="#ED1C24"/>
<rect x="51.6172" y="756.117" width="9.1924" height="1.78967" transform="rotate(-45 51.6172 756.117)" fill="#ED1C24"/>
<path d="M49.546 723H50.75L53.004 720.046L55.244 723H56.49L53.634 719.29L56.378 715.762H55.174L53.032 718.562L50.89 715.762H49.658L52.388 719.318L49.546 723ZM57.5851 723H58.7891L61.0431 720.046L63.2831 723H64.5291L61.6731 719.29L64.4171 715.762H63.2131L61.0711 718.562L58.9291 715.762H57.6971L60.4271 719.318L57.5851 723ZM65.6241 723H66.8281L69.0821 720.046L71.3221 723H72.5681L69.7121 719.29L72.4561 715.762H71.2521L69.1101 718.562L66.9681 715.762H65.7361L68.4661 719.318L65.6241 723ZM78.2245 719.36H82.1165V718.226H78.2245V719.36ZM87.7726 723H88.9766L91.2306 720.046L93.4706 723H94.7166L91.8606 719.29L94.6046 715.762H93.4006L91.2586 718.562L89.1166 715.762H87.8846L90.6146 719.318L87.7726 723ZM95.8116 723H97.0156L99.2696 720.046L101.51 723H102.756L99.8996 719.29L102.644 715.762H101.44L99.2976 718.562L97.1556 715.762H95.9236L98.6536 719.318L95.8116 723ZM103.851 723H105.055L107.309 720.046L109.549 723H110.795L107.939 719.29L110.683 715.762H109.479L107.337 718.562L105.195 715.762H103.963L106.693 719.318L103.851 723Z" fill="#1B222A"/>
<path d="M74.546 758H75.75L78.004 755.046L80.244 758H81.49L78.634 754.29L81.378 750.762H80.174L78.032 753.562L75.89 750.762H74.658L77.388 754.318L74.546 758ZM82.5851 758H83.7891L86.0431 755.046L88.2831 758H89.5291L86.6731 754.29L89.4171 750.762H88.2131L86.0711 753.562L83.9291 750.762H82.6971L85.4271 754.318L82.5851 758ZM90.6241 758H91.8281L94.0821 755.046L96.3221 758H97.5681L94.7121 754.29L97.4561 750.762H96.2521L94.1101 753.562L91.9681 750.762H90.7361L93.4661 754.318L90.6241 758ZM103.224 754.36H107.116V753.226H103.224V754.36ZM112.773 758H113.977L116.231 755.046L118.471 758H119.717L116.861 754.29L119.605 750.762H118.401L116.259 753.562L114.117 750.762H112.885L115.615 754.318L112.773 758ZM120.812 758H122.016L124.27 755.046L126.51 758H127.756L124.9 754.29L127.644 750.762H126.44L124.298 753.562L122.156 750.762H120.924L123.654 754.318L120.812 758ZM128.851 758H130.055L132.309 755.046L134.549 758H135.795L132.939 754.29L135.683 750.762H134.479L132.337 753.562L130.195 750.762H128.963L131.693 754.318L128.851 758Z" fill="#ED1C24"/>
<path d="M49.546 791H50.75L53.004 788.046L55.244 791H56.49L53.634 787.29L56.378 783.762H55.174L53.032 786.562L50.89 783.762H49.658L52.388 787.318L49.546 791ZM57.5851 791H58.7891L61.0431 788.046L63.2831 791H64.5291L61.6731 787.29L64.4171 783.762H63.2131L61.0711 786.562L58.9291 783.762H57.6971L60.4271 787.318L57.5851 791ZM65.6241 791H66.8281L69.0821 788.046L71.3221 791H72.5681L69.7121 787.29L72.4561 783.762H71.2521L69.1101 786.562L66.9681 783.762H65.7361L68.4661 787.318L65.6241 791ZM78.2245 787.36H82.1165V786.226H78.2245V787.36ZM87.7726 791H88.9766L91.2306 788.046L93.4706 791H94.7166L91.8606 787.29L94.6046 783.762H93.4006L91.2586 786.562L89.1166 783.762H87.8846L90.6146 787.318L87.7726 791ZM95.8116 791H97.0156L99.2696 788.046L101.51 791H102.756L99.8996 787.29L102.644 783.762H101.44L99.2976 786.562L97.1556 783.762H95.9236L98.6536 787.318L95.8116 791ZM103.851 791H105.055L107.309 788.046L109.549 791H110.795L107.939 787.29L110.683 783.762H109.479L107.337 786.562L105.195 783.762H103.963L106.693 787.318L103.851 791Z" fill="#1B222A"/>
<path d="M49.546 825H50.75L53.004 822.046L55.244 825H56.49L53.634 821.29L56.378 817.762H55.174L53.032 820.562L50.89 817.762H49.658L52.388 821.318L49.546 825ZM57.5851 825H58.7891L61.0431 822.046L63.2831 825H64.5291L61.6731 821.29L64.4171 817.762H63.2131L61.0711 820.562L58.9291 817.762H57.6971L60.4271 821.318L57.5851 825ZM65.6241 825H66.8281L69.0821 822.046L71.3221 825H72.5681L69.7121 821.29L72.4561 817.762H71.2521L69.1101 820.562L66.9681 817.762H65.7361L68.4661 821.318L65.6241 825ZM78.2245 821.36H82.1165V820.226H78.2245V821.36ZM87.7726 825H88.9766L91.2306 822.046L93.4706 825H94.7166L91.8606 821.29L94.6046 817.762H93.4006L91.2586 820.562L89.1166 817.762H87.8846L90.6146 821.318L87.7726 825ZM95.8116 825H97.0156L99.2696 822.046L101.51 825H102.756L99.8996 821.29L102.644 817.762H101.44L99.2976 820.562L97.1556 817.762H95.9236L98.6536 821.318L95.8116 825ZM103.851 825H105.055L107.309 822.046L109.549 825H110.795L107.939 821.29L110.683 817.762H109.479L107.337 820.562L105.195 817.762H103.963L106.693 821.318L103.851 825Z" fill="#1B222A"/>
<path d="M58.546 942H59.75L62.004 939.046L64.244 942H65.49L62.634 938.29L65.378 934.762H64.174L62.032 937.562L59.89 934.762H58.658L61.388 938.318L58.546 942ZM66.5851 942H67.7891L70.0431 939.046L72.2831 942H73.5291L70.6731 938.29L73.4171 934.762H72.2131L70.0711 937.562L67.9291 934.762H66.6971L69.4271 938.318L66.5851 942ZM74.6241 942H75.8281L78.0821 939.046L80.3221 942H81.5681L78.7121 938.29L81.4561 934.762H80.2521L78.1101 937.562L75.9681 934.762H74.7361L77.4661 938.318L74.6241 942Z" fill="#1B222A"/>
<path d="M206.546 942H207.75L210.004 939.046L212.244 942H213.49L210.634 938.29L213.378 934.762H212.174L210.032 937.562L207.89 934.762H206.658L209.388 938.318L206.546 942ZM214.585 942H215.789L218.043 939.046L220.283 942H221.529L218.673 938.29L221.417 934.762H220.213L218.071 937.562L215.929 934.762H214.697L217.427 938.318L214.585 942ZM222.624 942H223.828L226.082 939.046L228.322 942H229.568L226.712 938.29L229.456 934.762H228.252L226.11 937.562L223.968 934.762H222.736L225.466 938.318L222.624 942Z" fill="#1B222A"/>
<rect x="62" y="912" width="14" height="14" rx="7" fill="#0A0854"/>
<rect x="66" y="916" width="6" height="6" rx="3" fill="white"/>
<rect x="212" y="912" width="14" height="14" rx="7" fill="#0A0854"/>
<rect x="216" y="916" width="6" height="6" rx="3" fill="white"/>
<path d="M97.8717 1007.19C100.032 1007.19 101.312 1006.52 102.464 1005.29L100.896 1003.61C100.016 1004.41 99.2317 1004.92 97.9517 1004.92C96.0317 1004.92 94.7037 1003.32 94.7037 1001.4C94.7037 999.448 96.0637 997.88 97.9517 997.88C99.2317 997.88 99.9677 998.344 100.832 999.128L102.304 997.432C101.264 996.408 100.08 995.608 97.9677 995.608C94.5277 995.608 92.1277 998.216 92.1277 1001.4C92.1277 1004.65 94.5757 1007.19 97.8717 1007.19ZM110.1 998.024H116.228V995.8H107.636V1007H112.82C115.412 1007 116.996 1005.74 116.996 1003.45C116.996 1001.35 115.588 999.976 113.06 999.976H110.1V998.024ZM112.804 1002.02C113.972 1002.02 114.532 1002.49 114.532 1003.35C114.532 1004.33 113.972 1004.78 112.82 1004.78H110.1V1002.02H112.804ZM122.227 1007H124.691V1003.64H126.563C129.075 1003.64 131.091 1002.3 131.091 999.704C131.091 997.384 129.475 995.8 126.803 995.8H122.227V1007ZM124.691 1001.45V998.024H126.595C127.827 998.024 128.595 998.616 128.595 999.72C128.595 1000.71 127.875 1001.45 126.643 1001.45H124.691ZM141.554 1007.19C145.01 1007.19 147.522 1004.58 147.522 1001.4C147.522 998.184 145.042 995.608 141.586 995.608C138.13 995.608 135.618 998.216 135.618 1001.4C135.618 1004.62 138.098 1007.19 141.554 1007.19ZM141.586 1004.92C139.602 1004.92 138.194 1003.32 138.194 1001.4C138.194 999.448 139.57 997.88 141.554 997.88C143.538 997.88 144.946 999.48 144.946 1001.4C144.946 1003.35 143.57 1004.92 141.586 1004.92ZM158.156 1007.19C160.316 1007.19 161.596 1006.52 162.748 1005.29L161.18 1003.61C160.3 1004.41 159.516 1004.92 158.236 1004.92C156.316 1004.92 154.988 1003.32 154.988 1001.4C154.988 999.448 156.348 997.88 158.236 997.88C159.516 997.88 160.252 998.344 161.116 999.128L162.588 997.432C161.548 996.408 160.364 995.608 158.252 995.608C154.812 995.608 152.412 998.216 152.412 1001.4C152.412 1004.65 154.86 1007.19 158.156 1007.19ZM177.569 995.8H175.281L170.353 1003.14V995.8H167.921V1007H170.241L175.137 999.656V1007H177.569V995.8ZM186.072 1007H188.536V998.072H191.944V995.8H182.664V998.072H186.072V1007ZM197.039 1007H201.727C204.351 1007 205.983 1005.54 205.983 1003.24C205.983 1001.05 204.479 999.608 201.887 999.608H199.503V995.8H197.039V1007ZM201.679 1001.72C202.911 1001.72 203.535 1002.26 203.535 1003.21C203.535 1004.25 202.911 1004.78 201.695 1004.78H199.503V1001.72H201.679ZM75.4784 1026H80.8064C83.3344 1026 84.9984 1024.98 84.9984 1022.93C84.9984 1021.39 84.1984 1020.64 82.9024 1020.14C83.7024 1019.7 84.3744 1018.99 84.3744 1017.73C84.3744 1016.93 84.1184 1016.3 83.6064 1015.79C82.9664 1015.15 81.9584 1014.8 80.6784 1014.8H75.4784V1026ZM77.8784 1019.33V1016.96H80.3104C81.3504 1016.96 81.9264 1017.38 81.9264 1018.11C81.9264 1018.98 81.2384 1019.33 80.1504 1019.33H77.8784ZM77.8784 1023.84V1021.38H80.7264C81.9904 1021.38 82.5504 1021.84 82.5504 1022.59C82.5504 1023.46 81.8944 1023.84 80.8064 1023.84H77.8784ZM95.4733 1026.19C97.6333 1026.19 98.9133 1025.52 100.065 1024.29L98.4973 1022.61C97.6173 1023.41 96.8333 1023.92 95.5533 1023.92C93.6333 1023.92 92.3053 1022.32 92.3053 1020.4C92.3053 1018.45 93.6653 1016.88 95.5533 1016.88C96.8333 1016.88 97.5693 1017.34 98.4333 1018.13L99.9053 1016.43C98.8653 1015.41 97.6813 1014.61 95.5693 1014.61C92.1293 1014.61 89.7293 1017.22 89.7293 1020.4C89.7293 1023.65 92.1773 1026.19 95.4733 1026.19ZM105.238 1026H113.766V1023.81H107.686V1021.46H112.966V1019.26H107.686V1016.99H113.686V1014.8H105.238V1026ZM134.497 1017.58C136.305 1017.58 137.505 1018.66 137.505 1020.3C137.505 1021.98 136.305 1023.04 134.497 1023.04V1017.58ZM134.497 1026.45V1025.23C137.953 1025.23 140.049 1023.09 140.049 1020.27C140.049 1017.46 137.921 1015.39 134.497 1015.39V1014.37H132.033V1015.39C128.593 1015.39 126.481 1017.46 126.481 1020.26C126.481 1023.09 128.577 1025.23 132.033 1025.23V1026.45H134.497ZM132.033 1023.04C130.225 1023.04 129.009 1021.98 129.009 1020.3C129.009 1018.66 130.225 1017.58 132.033 1017.58V1023.04ZM154.908 1014.8H152.62L147.692 1022.14V1014.8H145.26V1026H147.58L152.476 1018.66V1026H154.908V1014.8ZM162.291 1014.8V1017.12C162.291 1023.15 161.539 1024 160.211 1024C160.051 1024 159.939 1023.98 159.827 1023.97L159.667 1026C159.971 1026.08 160.563 1026.14 160.963 1026.14C163.523 1026.14 164.595 1024.46 164.595 1017.87V1017.02H167.827V1026H170.291V1014.8H162.291ZM176.175 1026H180.863C183.487 1026 185.119 1024.54 185.119 1022.24C185.119 1020.05 183.615 1018.61 181.023 1018.61H178.639V1014.8H176.175V1026ZM180.815 1020.72C182.047 1020.72 182.671 1021.26 182.671 1022.21C182.671 1023.25 182.047 1023.78 180.831 1023.78H178.639V1020.72H180.815ZM192.811 1026H195.275V1017.07H198.683V1014.8H189.403V1017.07H192.811V1026ZM203.778 1026H206.242V1022.64H208.114C210.626 1022.64 212.642 1021.3 212.642 1018.7C212.642 1016.38 211.026 1014.8 208.354 1014.8H203.778V1026ZM206.242 1020.45V1017.02H208.146C209.378 1017.02 210.146 1017.62 210.146 1018.72C210.146 1019.71 209.426 1020.45 208.194 1020.45H206.242ZM217.666 1026H222.354C224.978 1026 226.61 1024.54 226.61 1022.24C226.61 1020.05 225.106 1018.61 222.514 1018.61H220.13V1014.8H217.666V1026ZM222.306 1020.72C223.538 1020.72 224.162 1021.26 224.162 1022.21C224.162 1023.25 223.538 1023.78 222.322 1023.78H220.13V1020.72H222.306ZM227.858 1026H230.322V1014.8H227.858V1026Z" fill="#0A0854"/>
<path d="M99.344 1093H101.808V1084.02H106.224V1093H108.688V1081.8H99.344V1093ZM111.375 1093H113.839V1089.64H115.711C118.223 1089.64 120.239 1088.3 120.239 1085.7C120.239 1083.38 118.623 1081.8 115.951 1081.8H111.375V1093ZM113.839 1087.45V1084.02H115.743C116.975 1084.02 117.743 1084.62 117.743 1085.72C117.743 1086.71 117.023 1087.45 115.791 1087.45H113.839ZM131.711 1081.8H129.423L124.495 1089.14V1081.8H122.063V1093H124.383L129.279 1085.66V1093H131.711V1081.8ZM134.407 1093H136.823V1085.74L139.943 1090.47H140.007L143.159 1085.69V1093H145.607V1081.8H142.951L140.007 1086.54L137.062 1081.8H134.407V1093ZM148.297 1093H156.825V1090.81H150.745V1088.46H156.025V1086.26H150.745V1083.99H156.745V1081.8H148.297V1093ZM159.016 1093H161.48V1088.5H166.024V1093H168.488V1081.8H166.024V1086.23H161.48V1081.8H159.016V1093ZM180.82 1081.8H178.532L173.604 1089.14V1081.8H171.172V1093H173.492L178.388 1085.66V1093H180.82V1081.8ZM186.124 1093H188.588V1084.07H191.996V1081.8H182.716V1084.07H186.124V1093ZM193.891 1093H198.579C201.203 1093 202.835 1091.54 202.835 1089.24C202.835 1087.05 201.331 1085.61 198.739 1085.61H196.355V1081.8H193.891V1093ZM198.531 1087.72C199.763 1087.72 200.387 1088.26 200.387 1089.21C200.387 1090.25 199.763 1090.78 198.547 1090.78H196.355V1087.72H198.531Z" fill="white"/>
<g filter="url(#filter0_d)">
<rect x="34" y="1048" width="235" height="64" fill="white"/>
<rect x="36.5" y="1050.5" width="230" height="59" stroke="#DEEFFF" stroke-width="5"/>
</g>
<path d="M59.344 1086H61.808V1077.02H66.224V1086H68.688V1074.8H59.344V1086ZM74.5752 1086H77.0392V1082.64H78.9113C81.4233 1082.64 83.4392 1081.3 83.4392 1078.7C83.4392 1076.38 81.8232 1074.8 79.1512 1074.8H74.5752V1086ZM77.0392 1080.45V1077.02H78.9433C80.1753 1077.02 80.9433 1077.62 80.9433 1078.72C80.9433 1079.71 80.2232 1080.45 78.9913 1080.45H77.0392ZM98.1108 1074.8H95.8228L90.8947 1082.14V1074.8H88.4627V1086H90.7827L95.6788 1078.66V1086H98.1108V1074.8ZM104.006 1086H106.422V1078.74L109.542 1083.47H109.606L112.758 1078.69V1086H115.206V1074.8H112.55L109.606 1079.54L106.662 1074.8H104.006V1086ZM121.097 1086H129.625V1083.81H123.545V1081.46H128.825V1079.26H123.545V1076.99H129.545V1074.8H121.097V1086ZM135.016 1086H137.48V1081.5H142.024V1086H144.488V1074.8H142.024V1079.23H137.48V1074.8H135.016V1086ZM160.02 1074.8H157.732L152.804 1082.14V1074.8H150.372V1086H152.692L157.588 1078.66V1086H160.02V1074.8ZM168.524 1086H170.988V1077.07H174.396V1074.8H165.116V1077.07H168.524V1086ZM179.491 1086H184.179C186.803 1086 188.435 1084.54 188.435 1082.24C188.435 1080.05 186.931 1078.61 184.339 1078.61H181.955V1074.8H179.491V1086ZM184.131 1080.72C185.363 1080.72 185.987 1081.26 185.987 1082.21C185.987 1083.25 185.363 1083.78 184.147 1083.78H181.955V1080.72H184.131Z" fill="#0A0854"/>
<path d="M236.712 1079.49C237.379 1079.88 237.379 1080.84 236.712 1081.23L226.5 1087.12C225.833 1087.51 225 1087.03 225 1086.26L225 1074.46C225 1073.69 225.833 1073.21 226.5 1073.6L236.712 1079.49Z" stroke="#ED1C24" stroke-width="2"/>
<defs>
<filter id="filter0_d" x="0" y="1028" width="303" height="132" filterUnits="userSpaceOnUse" color-interpolation-filters="sRGB">
<feFlood flood-opacity="0" result="BackgroundImageFix"/>
<feColorMatrix in="SourceAlpha" type="matrix" values="0 0 0 0 0 0 0 0 0 0 0 0 0 0 0 0 0 0 127 0"/>
<feOffset dy="14"/>
<feGaussianBlur stdDeviation="17"/>
<feColorMatrix type="matrix" values="0 0 0 0 0 0 0 0 0 0 0 0 0 0 0 0 0 0 0.1 0"/>
<feBlend mode="normal" in2="BackgroundImageFix" result="effect1_dropShadow"/>
<feBlend mode="normal" in="SourceGraphic" in2="effect1_dropShadow" result="shape"/>
</filter>
</defs>
</svg>
