<svg width="691" height="79" fill="none" xmlns="http://www.w3.org/2000/svg"><path d="M126.584 46.264l-2.744-.644V31.088l2.744-.644-.084-1.708h-9.38l-.112 1.596 2.576.784V45.62l-2.604.784.112 1.596h9.408l.084-1.736zm1.204-9.128l2.856-3.052c1.456-1.512 2.772-2.604 4.956-3.612v-1.736h-7.392l-.112 1.652 2.156.672-5.796 6.944v.588l8.456 10.22 3.556-.784.392-1.26-9.072-9.632zm20.59-2.856c-3.052 0-3.64 0-6.468-.112l-.14 1.568 2.352.588c-.14 6.132-1.008 8.568-2.296 9.8l-2.38-1.484c-.924.532-1.4 1.204-1.4 1.904 0 1.204 1.288 1.82 2.576 1.82 4.144 0 5.124-4.816 5.404-12.04h3.248v9.464l-1.82.672.084 1.54h7.28l.084-1.484-1.848-.672V36.24l2.072-.448-.056-1.596c-2.66.084-4.004.084-6.692.084zm14.705 2.044l1.932-.504-.084-1.484h-7.616l-.112 1.456 2.016.532v9.464l-1.932.756.112 1.456h7.364l.084-1.54-1.764-.56v-.756l5.236-5.32v5.964l-1.848.756.056 1.456h7.392l.084-1.54-1.82-.56v-9.576l1.932-.476-.084-1.512h-7.42l-.056 1.456 1.764.56v.728l-5.236 5.32v-6.076zm15.059 9.464l-1.932.756.112 1.456h7.336l.084-1.54-1.736-.56v-4.06h5.152v3.948l-1.904.756.112 1.456h7.336l.084-1.54-1.764-.56v-9.576l2.156-.504-.084-1.512h-7.616l-.056 1.456 1.736.588v3.528h-5.18v-3.556l1.96-.504-.112-1.512h-7.644l-.112 1.456 2.072.56v9.464zm22.921-9.464l1.932-.504-.084-1.484h-7.616l-.112 1.456 2.016.532v9.464l-1.932.756.112 1.456h7.364l.084-1.54-1.764-.56v-.756l5.236-5.32v5.964l-1.848.756.056 1.456h7.392l.084-1.54-1.82-.56v-9.576l1.932-.476-.084-1.512h-7.42l-.056 1.456 1.764.56v.728l-5.236 5.32v-6.076zm25.167 12.404l2.996-.84.28-1.12-7.056-7 1.456-1.344c1.316-1.176 2.884-2.268 4.676-2.94v-1.372c-2.128.056-4.452.168-6.552.224l-.028 1.26 1.596.672-4.06 4.2v.588l6.692 7.672zm-7.028-14.812l-.336-.168-5.46.84v1.456l1.904.56c.028 1.54.028 8.204.028 9.128l-2.128.868.112 1.4h7.672l.056-1.484-1.792-.672-.056-11.928zm25.779 7.168c0-4.34-2.24-7.056-6.804-7.056-4.9 0-7.28 3.444-7.28 7.308 0 4.368 2.072 7.056 6.972 7.056 4.872 0 7.112-3.5 7.112-7.308zm-9.856-.196c0-2.156.42-4.592 2.8-4.592 2.296 0 2.856 2.632 2.856 5.18 0 2.352-.532 4.536-2.828 4.536-2.352 0-2.828-2.38-2.828-5.124zm12.265-1.4v2.548h8.512v-2.548h-8.512zm24.178-3.248l1.932-.476c-.056-.504-.056-1.036-.112-1.54-2.548.056-4.284.056-6.832.056-2.744 0-3.276 0-6.188-.084a26.204 26.204 0 0 1-.14 1.54c.7.168 1.4.364 2.1.504 0 .532-.056 1.064-.056 1.54-.168 3.584-.896 6.076-2.744 7.952-.644.084-1.288.14-1.932.196-.084.112-.112.196-.168.308.056 1.96.14 3.92.224 5.936h2.016c.224-1.4.476-2.8.728-4.172h10.36c.224 1.344.42 2.772.616 4.172h2.072l.42-5.796-.168-.336-2.128-.196V36.24zm-3.78.084v9.436h-5.796c1.484-2.128 2.1-4.564 2.212-7.896.028-.476.028-1.008.028-1.54h3.556zm13.967 0l1.932-.504-.084-1.484h-7.616l-.112 1.456 2.016.532v9.464l-1.932.756.112 1.456h7.364l.084-1.54-1.764-.56v-.756l5.236-5.32v5.964l-1.848.756.056 1.456h7.392l.084-1.54-1.82-.56v-9.576l1.932-.476-.084-1.512h-7.42l-.056 1.456 1.764.56v.728l-5.236 5.32v-6.076zm21.051 9.912c.196 1.96 1.288 2.1 2.268 2.1 1.344 0 2.856-.476 3.752-1.036v-1.512l-2.156-.504v-6.72c0-3.332-1.848-4.564-5.04-4.564-2.156 0-4.34.644-5.964 1.512l.616 2.156c1.344-.392 3.108-.616 4.144-.616 1.708 0 2.296.448 2.296 1.988v1.064c-4.62.224-6.048.952-6.664 1.316-1.26.784-1.456 2.24-1.456 3.08 0 1.848.98 3.892 4.004 3.892.672 0 1.484-.168 2.24-.364l1.876-1.792h.084zm-2.576-.56c-1.008 0-1.456-.616-1.456-1.54 0-.644.224-1.82 3.948-2.212v2.8c-.812.616-1.792.952-2.492.952zm12.027.14l-1.96.728c.056.476.084.98.112 1.456h7.364l.084-1.512-1.736-.56V36.52h3.92c.364.728.672 1.484 1.036 2.212.476-.084.98-.168 1.456-.28 0-1.316 0-2.66-.028-3.976l-.42-.196c-.7 0-1.4.028-2.044.028-1.176.028-2.212.056-3.472.056-1.092 0-4.424-.028-5.88-.056-.084.504-.14 1.036-.196 1.54l1.736.476c0 3.164.028 6.328.028 9.492zm13.842-.028l-1.932.756.112 1.456h7.336l.084-1.54-1.736-.56v-4.06h5.152v3.948l-1.904.756.112 1.456h7.336l.084-1.54-1.764-.56v-9.576l2.156-.504-.084-1.512h-7.616l-.056 1.456 1.736.588v3.528h-5.18v-3.556l1.96-.504-.112-1.512h-7.644l-.112 1.456 2.072.56v9.464zm31.265-4.704c0-4.34-2.24-7.056-6.804-7.056-4.9 0-7.28 3.444-7.28 7.308 0 4.368 2.072 7.056 6.972 7.056 4.872 0 7.112-3.5 7.112-7.308zm-9.856-.196c0-2.156.42-4.592 2.8-4.592 2.296 0 2.856 2.632 2.856 5.18 0 2.352-.532 4.536-2.828 4.536-2.352 0-2.828-2.38-2.828-5.124zm12.096.504c0 4.564 1.96 7 6.776 7 1.428 0 3.724-.42 5.124-1.344l-.616-2.212c-1.148.308-2.464.504-3.22.504-3.164 0-3.836-1.596-3.836-4.396 0-2.24.784-4.2 2.8-4.48l3.136 2.492c.952-.364 1.764-1.26 1.764-2.212 0-1.736-2.184-2.716-4.76-2.716-4.172 0-7.14 2.548-7.168 7.364zm22.067 4.536c0-3.22-.028-6.44-.028-9.66h2.548l1.232 2.744c.476-.056.98-.112 1.456-.196 0-1.428-.028-2.856-.028-4.312-.168-.056-.336-.14-.504-.224-.532 0-1.092.028-1.652.028a316.67 316.67 0 0 1-5.012.056c-1.624 0-3.304-.028-4.956-.056-.56 0-1.12-.028-1.652-.028a3.967 3.967 0 0 1-.504.224c0 1.456-.028 2.884-.028 4.312.476.084.98.14 1.456.196l1.204-2.744h2.576v9.548l-2.016.756.112 1.428h7.56c.056-.504.056-1.008.112-1.512-.644-.196-1.26-.392-1.876-.56zm12.33-9.604l1.932-.504-.084-1.484h-7.616l-.112 1.456 2.016.532v9.464l-1.932.756.112 1.456h7.364l.084-1.54-1.764-.56v-.756l5.236-5.32v5.964l-1.848.756.056 1.456h7.392l.084-1.54-1.82-.56v-9.576l1.932-.476-.084-1.512h-7.42l-.056 1.456 1.764.56v.728l-5.236 5.32v-6.076zm26.371.196l1.932-.756-.112-1.456h-7.14l-.084 1.596 1.512.532.028 3.78c-.812.504-1.68.868-2.492.868-1.624 0-2.184-.728-2.184-2.044v-2.576l1.512-.588-.084-1.568h-6.944l-.084 1.484 1.652.644v2.94c0 3.78 1.652 4.816 4.032 4.816.756 0 1.932-.112 2.8-.336l1.792-1.96s.028.028.056.028v3.892l-2.156.84c.056.448.084.896.112 1.344h7.7l.084-1.428c-.644-.224-1.288-.42-1.932-.616V36.52zm11.254-2.492c-5.6 0-6.916 3.808-6.916 7.336 0 4.396 1.848 7.028 6.916 7.028 2.156 0 4.396-.616 5.88-1.54l-.672-2.128c-1.288.476-2.912.728-3.752.728-2.912 0-4.06-1.26-4.144-4.396l8.792-.504.224-.364c-.056-2.856-.952-6.16-6.328-6.16zm-2.66 5.488c0-1.652.532-3.388 2.408-3.388 1.68 0 2.044 1.372 2.044 2.856l-4.452.532zm11.084 1.876c0 4.564 1.96 7 6.776 7 1.428 0 3.724-.42 5.124-1.344l-.616-2.212c-1.148.308-2.464.504-3.22.504-3.164 0-3.836-1.596-3.836-4.396 0-2.24.784-4.2 2.8-4.48l3.136 2.492c.952-.364 1.764-1.26 1.764-2.212 0-1.736-2.184-2.716-4.76-2.716-4.172 0-7.14 2.548-7.168 7.364zm25.93 7.336l2.996-.84.28-1.12-7.056-7 1.456-1.344c1.316-1.176 2.884-2.268 4.676-2.94v-1.372c-2.128.056-4.452.168-6.552.224l-.028 1.26 1.596.672-4.06 4.2v.588l6.692 7.672zm-7.028-14.812l-.336-.168-5.46.84v1.456l1.904.56c.028 1.54.028 8.204.028 9.128l-2.128.868.112 1.4h7.672l.056-1.484-1.792-.672-.056-11.928zm17.435 2.408l1.932-.504-.084-1.484h-7.616l-.112 1.456 2.016.532v9.464l-1.932.756.112 1.456h7.364l.084-1.54-1.764-.56v-.756l5.236-5.32v5.964l-1.848.756.056 1.456h7.392l.084-1.54-1.82-.56v-9.576l1.932-.476-.084-1.512h-7.42l-.056 1.456 1.764.56v.728l-5.236 5.32v-6.076zm18.868 0l1.932-.504-.084-1.484h-7.616l-.112 1.456 2.016.532v9.464l-1.932.756.112 1.456h7.364l.084-1.54-1.764-.56v-.756l5.236-5.32v5.964l-1.848.756.056 1.456h7.392l.084-1.54-1.82-.56v-9.576l1.932-.476-.084-1.512h-7.42l-.056 1.456 1.764.56v.728l-5.236 5.32v-6.076zm2.436-3.444c1.932 0 3.976-1.176 5.768-3.92-.448-.364-.896-.7-1.344-1.092-1.82 2.156-3.388 2.66-4.088 2.66-.868 0-2.072-.924-2.912-2.492-.868.392-1.736.756-2.576 1.148 0 .056-.028.056-.028.084.84 1.764 2.632 3.612 5.18 3.612zm34.16 19.292h2.296c.084-1.96.224-3.892.308-5.824l-.168-.308-2.128-.224V36.38c.532-.168 1.064-.364 1.624-.532-.056-.532-.056-1.036-.112-1.54h-7.168c-.056.476-.084.952-.112 1.456l1.932.728v9.212c-1.68 0-3.332.028-5.012.028V36.38l1.652-.532c-.056-.532-.056-1.036-.112-1.54h-7.224c-.056.476-.084.952-.112 1.456l1.932.728v9.352l-2.016.7c.056.476.084.98.112 1.456 1.176 0 2.38-.028 3.696-.028h4.928c2.128 0 3.024.028 5.096.028l.588 4.172zm11.474-18.144c-5.6 0-6.916 3.808-6.916 7.336 0 4.396 1.848 7.028 6.916 7.028 2.156 0 4.396-.616 5.88-1.54l-.672-2.128c-1.288.476-2.912.728-3.752.728-2.912 0-4.06-1.26-4.144-4.396l8.792-.504.224-.364c-.056-2.856-.952-6.16-6.328-6.16zm-2.66 5.488c0-1.652.532-3.388 2.408-3.388 1.68 0 2.044 1.372 2.044 2.856l-4.452.532zm13.016 6.272l-1.932.756.112 1.456h7.336l.084-1.54-1.736-.56v-4.06h5.152v3.948l-1.904.756.112 1.456h7.336l.084-1.54-1.764-.56v-9.576l2.156-.504-.084-1.512h-7.616l-.056 1.456 1.736.588v3.528h-5.18v-3.556l1.96-.504-.112-1.512h-7.644l-.112 1.456 2.072.56v9.464zm25.357.14c0-3.22-.028-6.44-.028-9.66h2.548l1.232 2.744c.476-.056.98-.112 1.456-.196 0-1.428-.028-2.856-.028-4.312a3.967 3.967 0 0 1-.504-.224c-.532 0-1.092.028-1.652.028a316.67 316.67 0 0 1-5.012.056c-1.624 0-3.304-.028-4.956-.056-.56 0-1.12-.028-1.652-.028a3.967 3.967 0 0 1-.504.224c0 1.456-.028 2.884-.028 4.312.476.084.98.14 1.456.196l1.204-2.744h2.576v9.548l-2.016.756.112 1.428h7.56c.056-.504.056-1.008.112-1.512-.644-.196-1.26-.392-1.876-.56zm11.49 1.792a8.79 8.79 0 0 0 3.388.644c4.508 0 6.216-3.192 6.216-7.476 0-3.64-1.372-6.944-5.404-6.944-.644 0-1.4.112-2.24.336l-2.128 1.988-.084-.028-.504-2.128-.336-.14-4.76.784v1.456l1.988.56v15.204l-2.016.784.112 1.428h8.008l.112-1.512-2.324-.7-.028-4.256zm5.544-6.44c0 2.408-.924 4.312-3.36 4.312a6.31 6.31 0 0 1-2.184-.42v-7.364c.672-.392 1.68-.784 2.576-.784 2.324 0 2.968 2.044 2.968 4.256zm15.507-10.892l2.296.672v14.56l-2.52.784.112 1.596h9.296l.084-1.764-2.772-.616v-5.208c1.064.196 2.044.252 2.716.252 4.956 0 7.308-2.94 7.308-6.272 0-3.78-2.576-5.656-6.608-5.656-1.736 0-3.528.084-5.46.084-1.624 0-2.66-.028-4.228-.056l-.224 1.624zm12.096 4.34c0 1.596-.84 3.36-4.284 3.36-.308 0-.84-.028-1.316-.084v-6.58a8.763 8.763 0 0 1 1.68-.168c2.408 0 3.92 1.092 3.92 3.472zm20.274-.224c.812-1.988 1.932-3.304 3.668-4.032l-.112-1.736-7.056.028-.112 1.68 2.324.672c-.616 1.344-2.52 7.14-2.94 8.064h-.112l-3.108-7.672c-.336-.896-.644-1.792-.7-2.8h-6.244l-.196 1.68 2.156.756 4.816 11.004h2.24l-.644 1.512c-.448 1.148-1.176 2.044-2.1 2.24l-3.08-1.932c-.98.448-1.764 1.26-1.764 2.352 0 1.484 1.484 2.352 3.332 2.352 2.688 0 4.368-1.484 5.516-4.256l4.116-9.912zm19.55-3.416c.84-.224 1.708-.392 2.576-.616l-.112-1.708c-3.444.056-5.152.056-8.624.056-3.612 0-4.732 0-8.344-.056-.028.56-.056 1.092-.112 1.652.896.224 1.792.476 2.66.728v1.932c0 5.292-1.176 9.772-3.836 12.124-.7.084-1.428.168-2.128.28-.084.112-.168.196-.224.308l.308 7.336h1.988c.42-1.708.84-3.416 1.288-5.124h13.552l.84 5.124h2.24c.168-2.436.392-4.872.56-7.28l-.196-.336a77.097 77.097 0 0 0-2.408-.224c0-4.732-.028-9.492-.028-14.196zm-4.228.168v14.112c-1.288 0-2.716.028-4.116.028h-4.172c2.436-3.5 2.996-8.092 3.024-12.264v-1.876h5.264zm9.264-.896l2.52.784v14.448l-2.576.812.112 1.596h9.212l.112-1.792-2.604-.644v-6.496h7.812v6.524l-2.492.784.168 1.624h9.184l.084-1.792-2.688-.644V31.116l2.688-.644-.112-1.736h-9.1l-.112 1.652 2.38.756V36.8h-7.812v-5.684l2.604-.644-.112-1.736h-9.156l-.112 1.624z" fill="#3E9BD6"/><path d="M72.93 71.588C66.672 59.26 80.764 47.488 91.81 56c2.611-6.357 3.21-12.77 1.197-19.623 3.156 4.92 2.666 14.04.054 20.894 10.338 14.206-9.195 29.13-19.642 15.201C-11.569 86.678-28.98-22.88 60.198 5.81-33.007-16.301-.306 86.789 72.93 71.588zm15.996 3.316c0-1.603-.054-1.88-.653-2.93-1.034-1.768-2.666-2.597-4.625-2.929v-.553c.925-.11 1.85-.166 2.666-.276 2.83-.553 4.897-2.045 5.931-4.864.816-2.156.326-4.146-1.088-5.86-1.251-1.492-2.884-2.045-4.788-1.934-1.415.055-2.612.718-3.646 1.602-.38.332-.761.83-.326 1.438.544.22.925-.056 1.251-.442 1.197-1.217 2.612-1.603 4.244-1.161 2.014.553 3.483 2.708 3.265 4.643-.163 1.382-.816 2.598-1.85 3.593-1.578 1.492-3.754 1.935-5.876 1.935-.055-.166 0-.332 0-.443.054-.055.326-.11.38-.165.164-.056.381-.166.599-.166 2.285-.387 3.754-1.935 4.843-3.87.38-.663.707-1.437.272-2.377-.381-.055-.871-.165-1.306-.165H77.554c-.544 0-1.033.11-1.632.166-.054.331-.109.608-.054.829.598 2.763 2.285 4.532 4.897 5.361.38.111.816.222 1.251.332-.054.166.054.332 0 .498H79.35c-.925.055-1.524.608-1.578 1.492-.054.995.599 1.769 1.632 1.824.87.055 1.741 0 2.775 0v.553c-.217.166-.816.332-1.088.387-1.306.442-2.013 1.437-2.448 2.708-.327.885 0 1.327.924 1.327h7.673c.055-.995.055-1.16-.217-1.769-.544-1.216-1.47-1.934-2.612-2.432-.272-.11-.109-.055-.599-.276v-.608c1.524.386 3.21 1.216 3.7 2.874.164.608.164.719.381 1.492-.054.774 1.034.609 1.034.166z" fill="#58C1B2"/><path d="M40.72 9.789c.761-.055 1.36-.11 1.958-.11h16.486c1.415 0 1.524.11 1.524 1.492v2.598c0 .94-.163 1.105-1.143 1.105h-1.523a2.299 2.299 0 0 0-2.177 2.101c-.054.94 0 1.88 0 2.874 1.36-.773 2.612-1.437 4.244-1.382v10.724c-1.469.166-2.829-.055-4.19.055v.664c1.361.055 2.667.166 4.027.22.054.222.163.388.163.553v5.915c0 .166-.108.332-.217.498-1.306.055-2.612.11-3.972.22v.609h3.917c.055.166.272.442.272.718 0 3.151-.054 6.412-.054 9.563 0 .055-.054.055-.054.166-1.36.055-1.905-.166-2.667-.387 2.83 4.146 9.359 3.538 11.209.332-1.306-.387-2.612.442-4.026.055.653-.553 1.197-1.05 1.85-1.437.707-.387 1.088-1.106 1.577-1.659.49-.608.925-1.27 1.36-1.934.381-.663.708-1.437.98-2.156.272-.719.544-1.492.816-2.266 3.755.718 7.346 1.658 10.882 3.648-2.557 2.045-5.332 3.206-8.161 4.256-.817 2.377-2.231 4.257-3.972 5.97-1.85 1.88-4.135 2.874-6.584 3.317-3.917.663-7.563 0-10.882-2.267-2.122-1.437-3.809-3.372-5.006-5.693-.163-.332-.38-.664-.49-.995-.162-.387-.435-.608-.87-.774a26.99 26.99 0 0 1-5.386-2.598c-.49-.332-.98-.553-1.252-1.216.218-.166.327-.332.544-.442 1.578-.664 3.21-1.272 4.788-1.935.327-.11.925 0 .762-.83-.272.056-.544.056-.816.111-1.796.553-3.591 1.216-5.278 2.1-.38.222-.816.333-1.197.498-1.687-1.603-3.047-3.371-3.809-5.583-.816-2.376-.598-4.643.381-6.909.762-1.714 2.013-3.095 3.428-4.312 2.285 1.327 4.68 2.267 7.182 2.985l.163-.166c-.054-.165-.108-.442-.272-.497-.326-.166-.707-.276-1.033-.387a27.9 27.9 0 0 1-5.115-2.156c-.272-.553.109-.718.38-.94 1.524-1.105 3.157-1.934 4.898-2.708.326-.11.598-.276.98-.387 0-1.382.054-2.708 0-4.035-.055-.995-.926-1.714-1.905-1.769-.599-.055-1.143 0-1.741 0-.816 0-1.034-.221-1.034-1.05V10.95c-.109-.553-.054-.774.054-1.161zm15.017 4.422c-2.667-.553-4.843 1.271-4.843 3.98v24.93c0 .442.055.884.109 1.326.435 2.654 1.741 4.81 3.754 6.523a11.329 11.329 0 0 0 4.407 2.322c3.21.829 6.04-.111 8.652-2.046.217-.166.435-.331.598-.442-.218-.166-.326-.166-.38-.11a7.647 7.647 0 0 1-4.027 1.492c-1.143.11-2.285.276-3.374-.11a22.296 22.296 0 0 1-1.632-.774c-2.938-1.603-4.516-4.146-4.57-7.518-.055-8.789 0-17.578-.055-26.367 0-.884.272-1.603.708-2.321.163-.332.38-.553.652-.885zm-10.665-.221c1.524 1.327 1.687 2.93 1.687 4.588v21.945c0 .884.054 1.768.218 2.653.761 4.643 3.536 7.739 7.345 10.06 2.394 1.438 5.114 1.659 7.835 1.438.598-.056 1.197-.277 1.85-.388-.544-.165-1.034-.165-1.524-.165-1.74.055-3.427 0-5.114-.664-.87-.331-1.578-.94-2.285-1.437-2.177-1.492-3.646-3.538-4.408-6.136-.435-1.492-.435-3.04-.435-4.587V18.523c0-.885-.163-1.77-.653-2.543-.98-1.603-2.448-2.1-4.516-1.99zm-3.101-.608h3.972c1.632 0 3.047.553 4.026 1.99.163.276.38.553.599.884a3.2 3.2 0 0 0 .217-.387c.762-1.326 1.85-2.21 3.374-2.377.87-.11 1.74-.055 2.611-.11h2.503v-2.266H41.971v2.266z" fill="#137BBC"/><path d="M82.778 41.794c-.544-.221-1.034-.332-1.469-.553-2.72-1.382-5.604-2.21-8.542-2.93a32.55 32.55 0 0 0-1.47-.331c0-.442-.054-.884 0-1.271.219-1.438.382-2.875.273-4.312-.054-.83-.218-1.658-.272-2.432-.055-.277 0-.553 0-.83.98-.22 1.85-.497 2.775-.718 2.775-.608 5.386-1.548 7.89-2.93.707-.386.924-.386 1.523.222 1.414 1.437 2.557 2.985 3.155 4.974.871 3.04.327 5.86-1.523 8.402-.707.94-1.47 1.714-2.34 2.709zm-.979-17.578c.054.608-.327.774-.707.94-1.796.94-3.646 1.603-5.55 2.156-1.36.387-2.83.718-4.081.995-.653-.221-.653-.774-.762-1.161-.598-2.045-1.469-3.925-2.883-5.528-.708-.829-1.578-1.548-2.395-2.321-.217-.222-.49-.387-.707-.719 1.85-.276 3.591.332 5.496.498 0-.774.054-1.548 0-2.322-.11-1.05-1.089-1.824-2.122-1.88h-1.633c-.435 0-.816-.055-1.034-.497V9.844c.327-.055.599-.166.925-.166H78.48c.218 0 .38.056.599.056.272.718.326 2.985.163 4.864-.327.055-.653.221-.98.221-.49.055-1.034 0-1.523 0-1.197.055-2.068.885-2.122 2.045-.055 1.106 0 2.267 0 3.427 2.503 1.05 4.951 2.267 7.182 3.925zM66.836 13.382c2.122-.055 4.353-.332 5.55 2.1.163-.165.218-.276.272-.331.816-1.271 1.959-1.824 3.428-1.769h1.687c.217-.83.326-1.492.108-2.266h-10.99c-.055.718-.055 1.437-.055 2.266zm5.93 6.467h.273c.272-1.547-.272-3.15.435-4.643-.761.663-1.034 1.493-.925 2.432.055.442.11.885.163 1.272 0 .387 0 .663.055.94zm-1.087-.331h.435c-.163-1.272.272-2.598-.38-3.814-.164-.332-.327-.664-.871-.664.598.719.761 1.438.816 2.211v2.267zm-1.415 9.839c.109.166.327.442.327.718.272 1.77.38 3.538.163 5.362-.11.719-.218 1.493-.327 2.322-.435 0-.87.055-1.251 0-2.503-.387-5.06-.608-7.563-.608-.707 0-.925-.221-.925-.94V30.96c0-.663.218-.83.87-.885l3.047-.165c1.85-.166 3.7-.387 5.66-.553z" fill="#137BBC"/><path d="M70.264 28.472c-2.067.553-7.563.995-9.413.719-.054-.276-.163-.553-.163-.83v-9.617c0-.056.054-.11.109-.277 1.36-.055 2.611.498 3.754 1.161 1.796 1.106 3.047 2.709 4.08 4.533.763 1.382 1.307 2.764 1.633 4.311zm-9.467 19.734c-.055-.387-.11-.774-.11-1.16v-8.569c0-.442.273-.718.708-.663 2.068.11 4.135.221 6.148.387.817.055 1.578.221 2.395.332-.055 3.482-4.299 9.839-9.141 9.673z" fill="#137BBC"/><path d="M77.773 61.583h10.12c-.435 2.045-2.83 3.317-4.407 3.482-2.177.166-4.788-1.05-5.713-3.482zm7.508 12.327h-4.788c1.306-1.825 3.32-1.825 4.788 0zm-6.257-5.252c0-.442.272-.276 2.993-.276 0 .276 0 .442.054.663-2.83 0-3.047-.055-3.047-.387z" fill="#58C1B2"/></svg>