<svg version="1.0" xmlns="http://www.w3.org/2000/svg" width="373.333" height="373.333" viewBox="0 0 280 280"><path d="M37.2 26.2c-1.4 1.4-1.7 20.5-.3 22.7.6.9 2.8 1.3 6.7 1.2 7.6-.1 11.7 1.3 14.9 5C60.9 58 61 58.8 61 69.5v11.4l-9.7 4.6C39.2 91.2 27 98.7 27 100.4c0 1.6 14.5 8.4 25.8 12.1 6.4 2.1 8.2 3.1 8.2 4.6 0 1-.2 1.9-.5 1.9-2.1 0-20.9-7-28.9-10.8l-9.9-4.7-6.4 7c-10.8 11.8-16 25.4-15 38.9 1 11.7 6.8 24.1 15.9 33.6 7.4 7.7 6.8 7.5 13.9 3.9 6.9-3.4 16-7 25.2-9.9l5.7-1.8v2.2c-.1 1.8-1.6 2.6-10.3 5.4-12.5 4.1-21.1 8.2-21.5 10.2-.4 2.6 20.6 14.4 34.1 19.1 2.8 1 4.2 2.3 5.2 4.6 2.4 5.8 10.1 16.6 15.6 22.2 15.7 15.6 34.6 23.4 57.4 23.4 27.8.1 52.4-15.1 64.6-39.9l4-8.2 7.7-2.7c12.6-4.5 34.2-16.2 34.2-18.6 0-2.1-23.1-11.1-38.3-15-18.1-4.7-17.6-4.8-20.6 3.7-3.2 8.7-7.2 16.2-12.1 22.8-4.2 5.7-13.2 14.3-16.7 15.9-6.2 2.8 2.2 3.9 12.2 1.7 2.2-.5 5.1-1 6.4-1 2.5 0 2.4.1-1 3.6-8.9 9.4-23.1 13.6-36.9 11-7.4-1.5-19-9.2-22.1-14.7-.8-1.5-.3-1.5 4.1.2 2.8 1 6.4 1.9 8 1.9h3l-.2-26.8-.3-26.7-10.7.2c-10.1.2-10.8.1-10.8-1.8 0-1.5.7-1.9 3.3-2 10.3-.4 16.3-.7 17.5-.8.9-.1 1.2-4.3 1.2-17.5 0-9.6-.3-17.7-.8-17.9-.4-.3-4.8-.6-9.7-.8-10.5-.3-11.5-.5-11.5-2.8 0-1.6 1.1-1.7 11-1.3l11 .4V97.1c0-26.5-.1-28.1-1.8-28.1-3 0-12.5 3.1-15.8 5.1-1.7 1-3.5 1.9-4 1.9s-.8-3.9-.7-8.6c.3-13.1 3.6-16.6 15.6-17.1 3.9-.1 7.7-.5 8.4-.7 1.8-.7 1.8-21.7.1-23.4-1.7-1.7-100.9-1.7-102.6 0zm96.9 7.5c.1 1 .2 3.4.2 5.3l.1 3.5-15 .5c-11.6.4-15.7.9-18.5 2.3-4.5 2.2-9.4 7-11 10.6l-1.3 2.8-3-4.6c-1.7-2.5-5.3-5.9-8-7.6-4.8-2.9-5.3-3-19.8-3.3L43 42.8V32h45.5c42.6 0 45.5.1 45.6 1.7zM74.8 48.1c5 2.5 9.9 8 11.2 12.9.6 2.1 1 30.8 1 72 .1 74.5.1 74.1 5.8 86.3 16.5 35.2 63.6 44.1 92.7 17.6 5-4.6 13.5-16.5 13.5-18.9 0-.5.5-1 1-1 1.6 0 1.2 1-3.5 8.5-8.8 14.2-22.4 23.8-40.5 28.6-7.6 2-25.3 1.5-34.3-1-25-6.9-43.8-25.5-51.3-50.6-1.6-5.4-1.8-12.3-2.1-74-.2-40.4-.8-69.5-1.4-71.7-.5-2-2.4-5.3-4.3-7.2-3-3.3-3.1-3.5-1.2-3.8 3.9-.6 9.1.3 13.4 2.3zm40.1.9c-2.1 2-4.2 5.2-4.8 7.5-.8 2.8-1.1 26.4-1.1 77l.1 73 2.4 6.8c2.8 8.2 8.6 16.1 15.3 21.1 19 13.9 48.3 10.5 61.9-7.3 7.6-10 7.5-9.9 5.2-5.1-3.2 6.7-15.1 17.9-23 21.7-28.2 13.6-61.9 2.4-75.4-24.9-5.8-12-6-14.7-5.9-89.3.2-72.7 0-70.6 5.7-76.7 4.5-4.8 10.7-7.3 18.5-7.3h4.8l-3.7 3.5z"/><path d="M167.2 26.7c-1.2 2.4-.9 21 .3 22.2.6.6 4.5 1.2 8.8 1.4 12.1.6 15.7 4.2 15.7 15.9 0 7.4-.1 7.4-6 5.9-3.5-1-8-1.6-17.7-2.7-6.9-.8-7 .9-.2 5.5 10.1 6.9 19.4 20.5 25.1 36.6 3 8.6 3.5 9 10.8 7.2 1.4-.3 3.9-.9 5.5-1.2C223 115 253 103.3 253 100.6c0-2.6-25.5-16.9-35.2-19.8-4.2-1.2-3.9-.4-4.1-13.9 0-3.6.5-8 1.2-9.6 1.9-4.5 7.3-7 15.3-7.1 3.7 0 7.2-.3 7.8-.7 1.5-.9 1.3-21.8-.2-23.3-.9-.9-10.1-1.2-35.5-1.2-31.6 0-34.3.1-35.1 1.7zm65.2 8c-.1 1.6-.3 4-.3 5.4-.1 2.6-.2 2.7-8.9 3.1-9.9.4-13.4 2-17.6 7.6l-2.3 3.2-2.8-3.6c-4.1-5.3-9.4-7.4-19.2-7.4H173V32h59.6l-.2 2.7zm-32.8 19c2.6 4 3.4 21.3 1 21.3-1.3 0-1.6-1.2-1.6-7.1 0-8.5-1.4-13.7-4.6-17.4-1.3-1.6-2.4-3-2.4-3.2 0-1.1 5.9 4 7.6 6.4zm12.6-4.4c-3.8 4-5.2 9.1-5.2 18.7 0 5.3-.4 9-1 9-1.1 0-1.1-.2-1.2-9.8-.1-9.4.9-12.8 4.8-16.8 3.8-3.8 6-4.7 2.6-1.1z"/><path d="M142 97.1v28.1l14.8-.6c8.1-.3 15.8-.8 17.2-1.1 1.4-.2 4.8-.7 7.5-.9 5.2-.6 10.5-1.6 10.5-2 0-.2-.9-3.2-2.1-6.7-7-21.4-21.5-37.9-38-43-10.9-3.4-9.9-6-9.9 26.2zm109.5 9.5c-7.5 4.5-32.1 13.1-45.5 15.8-6.5 1.3-7.4 1.6-8.2 2.8-.4.7-.5 2-.2 2.8 1.2 2.9 1.4 27 .3 34-.6 4-.9 7.4-.6 7.6.2.2 5.8 1.7 12.3 3.3 14.2 3.5 25.5 7.2 34.4 11.3 14 6.5 12.1 6.4 18 .5 6.3-6.2 12.1-14.8 15.2-22.6 1.8-4.5 2.2-7.6 2.2-16.1 0-9-.4-11.4-2.6-16.7-4.4-10.3-16.1-25.4-19.7-25.2-.9 0-3.4 1.2-5.6 2.5zm-67 19.5c-7.2 1.2-15.8 2-28 2.5-6.6.3-12.6.7-13.2.9-1 .3-1.3 4.8-1.3 18 0 9.6.3 17.5.8 17.5.4.1 5 .3 10.2.5 9.2.4 11.7.6 26.5 2.2 13.5 1.4 12.8 1.5 14.1-4.7 1.4-6.9 1.5-24.7.2-32.2-1.1-6.3-.7-6.1-9.3-4.7zm-41.8 43.5c-.4.4-.7 12.6-.7 27.1V223h3c4 0 13.6-3.7 18.5-7.1 9.3-6.4 15.8-14.2 21.5-25.6 3.8-7.9 6.7-15.9 5.9-16.8-1.8-1.7-46.6-5.4-48.2-3.9z"/></svg>