<svg width="206" height="206" viewBox="0 0 206 206" fill="none" xmlns="http://www.w3.org/2000/svg">
<rect x="71" width="190" height="100" rx="50" transform="rotate(45 71 0)" fill="#EBF2FA"/>
<circle cx="102.459" cy="101.459" r="75" fill="#2D9CDB"/>
<circle cx="102.459" cy="101.459" r="60.5" stroke="#FCFCFC" stroke-opacity="0.2" stroke-width="7"/>
<path d="M102.804 115.438L100.616 117.781L109.679 126.219L124.054 110.75L121.866 108.563L109.522 121.844L102.804 115.438Z" fill="white"/>
<path d="M99.835 127V123.875H89.6787L89.0537 123.25V119.188H96.8662V116.062H89.0537V86.375H110.929V108.25H114.054V79.5L111.554 77H88.4287L85.9287 79.5V124.5L88.4287 127H99.835ZM89.0537 80.75L89.6787 80.125H110.304L110.929 80.75V83.25H89.0537V80.75Z" fill="white"/>
</svg>
