<svg width="206" height="206" viewBox="0 0 206 206" fill="none" xmlns="http://www.w3.org/2000/svg">
<rect x="71" width="190" height="100" rx="50" transform="rotate(45 71 0)" fill="#EBF2FA"/>
<circle cx="102.459" cy="101.459" r="75" fill="#2D9CDB"/>
<circle cx="102.459" cy="101.459" r="60.5" stroke="#FCFCFC" stroke-opacity="0.2" stroke-width="7"/>
<path d="M108.25 90.3929V88.8304C108.25 87.1116 106.844 85.7054 105.125 85.7054H103.562V84.1429H100.438V85.7054H98.875C97.1562 85.7054 95.75 87.1116 95.75 88.8304V91.9554C95.75 93.6741 97.1562 95.0804 98.875 95.0804H105.125V98.2054H98.875V96.6429H95.75V98.2054C95.75 99.9241 97.1562 101.33 98.875 101.33H100.438V102.893H103.562V101.33H105.125C106.844 101.33 108.25 99.9241 108.25 98.2054V95.0804C108.25 93.3616 106.844 91.9554 105.125 91.9554H98.875V88.8304H105.125V90.3929H108.25Z" fill="white"/>
<path d="M77 126.33H85.5938L111.531 121.33L126.062 112.424C126.687 112.112 127 111.487 127 110.862C127 110.237 126.844 109.612 126.219 109.143C124.031 107.112 120.75 106.799 118.094 108.205L109.5 112.112H106.375C107 111.174 107.156 110.08 107.156 108.987V105.862H89.3438C87.4688 105.862 85.5937 106.643 84.1875 108.049L77 116.799V126.33ZM80.125 118.049L86.5312 110.237C87.3125 109.455 88.25 109.143 89.3438 109.143H104.187C104.187 110.862 102.625 112.268 100.906 112.268H100.75H94.1875V115.393H110.437L119.812 111.174C120.75 110.549 122 110.393 123.094 110.862L110.594 118.518L85.2813 123.205H80.125V118.049Z" fill="white"/>
<path d="M80.125 104.455H83.25V98.2054H85.75L87.9375 100.393V104.455H91.0625V99.1429L87 95.0804H83.25V88.8304H87L91.0625 84.7679V81.0179H112.938V84.7679L117 88.8304H120.75V95.0804H117L112.938 99.1429V104.455H116.062V100.393L118.25 98.2054H120.75V104.455H123.875V77.8929H80.125V104.455ZM120.75 85.7054H118.25L116.062 83.5179V81.0179H120.75V85.7054ZM87.9375 81.0179V83.5179L85.75 85.7054H83.25V81.0179H87.9375Z" fill="white"/>
</svg>
