<svg width="206" height="206" viewBox="0 0 206 206" fill="none" xmlns="http://www.w3.org/2000/svg">
<rect x="71" width="190" height="100" rx="50" transform="rotate(45 71 0)" fill="#EBF2FA"/>
<circle cx="102.459" cy="101.459" r="75" fill="#2D9CDB"/>
<circle cx="102.459" cy="101.459" r="60.5" stroke="#FCFCFC" stroke-opacity="0.2" stroke-width="7"/>
<path d="M111.688 126.219L126.063 110.75L123.875 108.562L111.531 121.844L104.813 115.438L102.625 117.781L111.688 126.219Z" fill="white"/>
<path d="M98.875 117.625H80.125V92.625H123.875V105.125H127V80.125H119.188V77H116.062V80.125H108.719V77H105.594V80.125H98.25V77H95.125V80.125H87.9375V77H84.8125V80.125H77V120.75H98.875V117.625ZM80.125 83.25H84.8125V86.375H87.9375V83.25H95.2812V86.375H98.4062V83.25H105.75V86.375H108.875V83.25H116.062V86.375H119.188V83.25H123.875V89.5H80.125V83.25Z" fill="white"/>
<path d="M98.875 123.875H77V127H98.875V123.875Z" fill="white"/>
<path d="M106.688 97.3125H103.562V100.438H106.688V97.3125Z" fill="white"/>
<path d="M112.938 97.3125H109.812V100.438H112.938V97.3125Z" fill="white"/>
<path d="M119.188 97.3125H116.062V100.438H119.188V97.3125Z" fill="white"/>
<path d="M87.9375 103.562H84.8125V106.688H87.9375V103.562Z" fill="white"/>
<path d="M94.1875 103.562H91.0625V106.688H94.1875V103.562Z" fill="white"/>
<path d="M100.438 103.562H97.3125V106.688H100.438V103.562Z" fill="white"/>
<path d="M87.9375 109.812H84.8125V112.938H87.9375V109.812Z" fill="white"/>
<path d="M94.1875 109.812H91.0625V112.938H94.1875V109.812Z" fill="white"/>
<path d="M100.438 109.812H97.3125V112.938H100.438V109.812Z" fill="white"/>
<path d="M106.688 103.562H103.562V106.688H106.688V103.562Z" fill="white"/>
<path d="M112.938 103.562H109.812V106.688H112.938V103.562Z" fill="white"/>
<path d="M119.188 103.562H116.062V106.688H119.188V103.562Z" fill="white"/>
</svg>
