<svg width="206" height="206" viewBox="0 0 206 206" fill="none" xmlns="http://www.w3.org/2000/svg">
<rect x="71" width="190" height="100" rx="50" transform="rotate(45 71 0)" fill="#EBF2FA"/>
<circle cx="102.459" cy="101.459" r="75" fill="#2D9CDB"/>
<circle cx="102.459" cy="101.459" r="60.5" stroke="#FCFCFC" stroke-opacity="0.2" stroke-width="7"/>
<path d="M102.078 108.348C105.526 108.348 108.348 105.527 108.348 102.078C108.348 98.6301 105.526 95.8088 102.078 95.8088C98.6299 95.8088 95.8086 98.6301 95.8086 102.078C95.8086 105.527 98.6299 108.348 102.078 108.348ZM102.078 98.9436C103.802 98.9436 105.213 100.354 105.213 102.078C105.213 103.803 103.802 105.213 102.078 105.213C100.354 105.213 98.9434 103.803 98.9434 102.078C98.9434 100.354 100.354 98.9436 102.078 98.9436Z" fill="white"/>
<path d="M84.0533 111.326L81.3887 116.812L87.1881 122.611L92.674 119.947L95.8088 121.201L97.8464 127H106.154L108.191 121.201L111.326 119.947L116.812 122.611L122.611 116.812L119.947 111.326L121.201 108.191L127 106.154V97.8464L121.201 95.8088L119.947 92.674L122.611 87.1881L116.812 81.3887L111.326 84.0533L108.191 82.7994L106.154 77H97.8464L95.8088 82.7994L92.674 84.0533L87.1881 81.3887L81.3887 87.1881L84.0533 92.674L82.7994 95.8088L77 98.0031V106.31L82.7994 108.348L84.0533 111.326ZM80.1348 100.197L85.1505 98.4734L87.5016 92.674L85.1505 87.9718L87.9718 85.1505L92.674 87.5016L98.3166 85.1505L100.197 80.1348H103.959L105.683 85.1505L111.483 87.5016L116.185 85.1505L119.006 87.9718L116.655 92.674L119.006 98.3166L124.022 100.041V103.803L119.006 105.527L116.655 111.483L119.006 116.342L116.185 119.006L111.483 116.655L105.84 119.006L103.959 124.022H100.197L98.4734 119.006L92.674 116.655L87.9718 119.006L85.1505 116.185L87.5016 111.483L85.1505 105.84L80.1348 103.959V100.197Z" fill="white"/>
</svg>
