<svg width="50" height="50" viewBox="0 0 50 50" fill="none" xmlns="http://www.w3.org/2000/svg">
<rect width="50" height="50" rx="25" fill="black" fill-opacity="0.3"/>
<g opacity="0.6" clip-path="url(#clip0)">
<path d="M16.2384 25.2304L17.0118 26.0038C17.1948 26.1869 17.4916 26.1869 17.6747 26.0038L23.7344 19.944V33.2812C23.7344 33.5401 23.9443 33.75 24.2032 33.75H25.2969C25.5558 33.75 25.7657 33.5401 25.7657 33.2812V19.944L31.8255 26.0038C32.0085 26.1869 32.3053 26.1869 32.4884 26.0038L33.2618 25.2304C33.4448 25.0474 33.4448 24.7506 33.2618 24.5675L25.0815 16.3873C24.8985 16.2042 24.6017 16.2042 24.4186 16.3873L16.2384 24.5675C16.0553 24.7506 16.0553 25.0474 16.2384 25.2304Z" fill="white"/>
</g>
<defs>
<clipPath id="clip0">
<rect width="17.5" height="20" fill="white" transform="translate(16 15)"/>
</clipPath>
</defs>
</svg>
