<svg width="80" height="80" viewBox="0 0 80 80" fill="none" xmlns="http://www.w3.org/2000/svg">
<path fill-rule="evenodd" clip-rule="evenodd" d="M40.0002 76.6667C19.7497 76.6667 3.3335 60.2504 3.3335 40C3.3335 19.7496 19.7497 3.33337 40.0002 3.33337C60.2505 3.33337 76.6668 19.7496 76.6668 40C76.6668 60.2504 60.2505 76.6667 40.0002 76.6667ZM40.0002 70C56.5688 70 70.0002 56.5687 70.0002 40C70.0002 23.4315 56.5688 10 40.0002 10C23.4316 10 10.0002 23.4315 10.0002 40C10.0002 56.5687 23.4316 70 40.0002 70ZM50.9765 27.643L33.3335 45.286L25.6905 37.643L20.9765 42.357L33.3335 54.714L55.6905 32.3571L50.9765 27.643Z" fill="#26CB5E"/>
</svg>
