<svg width="104" height="37" viewBox="0 0 104 37" fill="none" xmlns="http://www.w3.org/2000/svg">
<path d="M9.656 5.2L13.464 29H9.69L9.044 24.682H4.454L3.808 29H0.374L4.182 5.2H9.656ZM6.732 9.416L4.93 21.452H8.534L6.732 9.416ZM21.0537 5.2C24.771 5.2 26.6297 7.16067 26.6297 11.082V14.176C26.6297 18.0973 24.771 20.058 21.0537 20.058H19.2857V29H15.5457V5.2H21.0537ZM21.0537 8.6H19.2857V16.658H21.0537C21.6657 16.658 22.119 16.488 22.4137 16.148C22.731 15.808 22.8897 15.23 22.8897 14.414V10.844C22.8897 10.028 22.731 9.45 22.4137 9.11C22.119 8.77 21.6657 8.6 21.0537 8.6ZM34.2101 5.2C37.9274 5.2 39.7861 7.16067 39.7861 11.082V14.176C39.7861 18.0973 37.9274 20.058 34.2101 20.058H32.4421V29H28.7021V5.2H34.2101ZM34.2101 8.6H32.4421V16.658H34.2101C34.8221 16.658 35.2754 16.488 35.5701 16.148C35.8874 15.808 36.0461 15.23 36.0461 14.414V10.844C36.0461 10.028 35.8874 9.45 35.5701 9.11C35.2754 8.77 34.8221 8.6 34.2101 8.6Z" fill="#FFA944"/>
<path d="M40.9745 24.682V21.282L47.7745 5.2H51.8545V21.282H53.6225V24.682H51.8545V29H48.1825V24.682H40.9745ZM44.4085 21.282H48.1825V12.34L44.4085 21.282ZM55.203 10.912C55.203 8.98533 55.6677 7.512 56.597 6.492C57.5263 5.44933 58.8977 4.928 60.711 4.928C62.5243 4.928 63.8957 5.44933 64.825 6.492C65.7543 7.512 66.219 8.98533 66.219 10.912V11.66H62.683V10.674C62.683 9.11 62.0597 8.328 60.813 8.328C59.5663 8.328 58.943 9.11 58.943 10.674C58.943 11.3313 59.079 11.9547 59.351 12.544C59.623 13.1333 59.9743 13.666 60.405 14.142C60.8357 14.618 61.3117 15.094 61.833 15.57C62.3543 16.0233 62.8643 16.5107 63.363 17.032C63.8843 17.5307 64.3603 18.0747 64.791 18.664C65.2217 19.2307 65.573 19.9107 65.845 20.704C66.117 21.4973 66.253 22.3587 66.253 23.288C66.253 25.2147 65.777 26.6993 64.825 27.742C63.873 28.762 62.4903 29.272 60.677 29.272C58.8637 29.272 57.481 28.762 56.529 27.742C55.577 26.6993 55.101 25.2147 55.101 23.288V21.826H58.637V23.526C58.637 25.0673 59.283 25.838 60.575 25.838C61.867 25.838 62.513 25.0673 62.513 23.526C62.513 22.642 62.2637 21.8147 61.765 21.044C61.2663 20.2507 60.6543 19.5367 59.929 18.902C59.2263 18.2673 58.5123 17.61 57.787 16.93C57.0617 16.2273 56.4497 15.366 55.951 14.346C55.4523 13.3033 55.203 12.1587 55.203 10.912ZM72.4758 8.6V15.23H77.6098V18.63H72.4758V25.6H78.9358V29H68.7358V5.2H78.9358V8.6H72.4758ZM81.5934 29V5.2H85.3334V25.6H91.4874V29H81.5934ZM93.4548 29V5.2H97.1948V25.6H103.349V29H93.4548Z" fill="white"/>
<rect width="40" height="2" fill="white"/>
<rect x="41" y="32" width="63" height="2" fill="white"/>
</svg>
