<svg width="23" height="26" viewBox="0 0 23 26" fill="none" xmlns="http://www.w3.org/2000/svg">
<g clip-path="url(#clip0)">
<path d="M13.1993 23.3391C6.26913 21.4822 2.16671 14.3615 4.02088 7.44166C4.10235 7.13761 4.38278 6.93357 4.69288 6.94443L7.67685 7.04899C7.83419 7.0545 7.98459 7.11512 8.10176 7.22026C8.21894 7.32541 8.29543 7.46839 8.31788 7.62421L8.80399 10.9981C8.82475 11.1422 8.7981 11.2891 8.72805 11.4168C8.65799 11.5444 8.54834 11.6459 8.41562 11.7058L6.41863 12.607C6.84441 14.9891 8.11336 17.1527 9.92478 18.6799L11.7038 17.401C11.822 17.316 11.9647 17.2718 12.1103 17.2749C12.2559 17.2781 12.3965 17.3285 12.5109 17.4185L15.1897 19.5265C15.3134 19.6238 15.399 19.7616 15.4315 19.9156C15.4639 20.0697 15.4412 20.2302 15.3673 20.3692L13.9659 23.0057C13.8946 23.1398 13.78 23.2457 13.6408 23.3062C13.5016 23.3668 13.3459 23.3784 13.1993 23.3391ZM10.2296 6.49299C11.0215 6.94006 11.509 7.78447 11.5003 8.69374C11.4974 8.99731 11.2123 9.219 10.9174 9.14664L10.6035 9.06963C10.398 9.01923 10.2534 8.83774 10.2456 8.62631C10.2379 8.42261 10.1806 8.22387 10.0786 8.04734C9.97672 7.8708 9.83325 7.72181 9.66069 7.6133C9.48148 7.5008 9.39663 7.28484 9.45573 7.08166L9.54602 6.77126C9.63077 6.47975 9.9653 6.34372 10.2296 6.49299ZM11.5537 1.61549C14.9867 2.86319 17.0218 6.39176 16.3863 9.98577C16.339 10.2534 16.0747 10.4249 15.8108 10.3601L15.5061 10.2854C15.2664 10.2266 15.1125 9.99259 15.1547 9.74947C15.6727 6.7649 13.9839 3.84304 11.1426 2.80023C10.9109 2.7152 10.7852 2.46492 10.8541 2.22798L10.9417 1.92674C11.0176 1.66584 11.2983 1.52267 11.5537 1.61549ZM10.8763 4.0337C13.0006 4.89663 14.2687 7.08854 13.9534 9.36334C13.915 9.63991 13.6459 9.8228 13.3748 9.75621L13.069 9.68111C12.8377 9.62432 12.6832 9.40339 12.7144 9.16727C12.937 7.47972 11.9993 5.85569 10.4266 5.20473C10.2065 5.11365 10.0925 4.8694 10.1589 4.6407L10.2468 4.33834C10.3247 4.07022 10.6176 3.92861 10.8763 4.0337Z" fill="white"/>
</g>
<defs>
<clipPath id="clip0">
<rect width="15" height="20" fill="white" transform="translate(0.00488281 8.08972) rotate(-30)"/>
</clipPath>
</defs>
</svg>
