<?xml version="1.0" encoding="UTF-8"?> <svg xmlns="http://www.w3.org/2000/svg" width="61" height="78" viewBox="0 0 61 78" fill="none"> <path fill-rule="evenodd" clip-rule="evenodd" d="M33.5241 0.292893C33.1336 -0.097631 32.5004 -0.0976311 32.1099 0.292893L5.13079 27.272C5.03906 27.3638 4.96888 27.4689 4.92024 27.5811C2.02699 30.8434 0 35.0038 0 38.8322C0 43.0638 1.52467 46.7128 4.31784 49.5475C4.36728 49.6585 4.43753 49.7617 4.52766 49.8509L32.5338 77.5839C32.5365 77.5866 32.5408 77.5866 32.5435 77.5839C32.5453 77.5821 32.5478 77.5815 32.5501 77.5821C32.5512 77.5824 32.5523 77.583 32.5531 77.5839L32.577 77.6078C32.5928 77.6236 32.6185 77.6236 32.6344 77.6078L60.2919 49.9502C60.6825 49.5597 60.6825 48.9265 60.2919 48.536L55.4404 43.6845C55.0499 43.2939 54.4167 43.2939 54.0262 43.6845L33.3032 64.4075C32.9126 64.798 32.2795 64.798 31.8889 64.4075L11.3996 43.9181V43.8531C9.98129 42.222 8.9815 40.3649 8.9815 38.8321C8.9815 36.7595 9.32695 35.205 11.2269 35.205C11.5442 35.3108 11.8377 35.4729 12.1117 35.6672L32.1099 55.6654C32.5004 56.0559 33.1336 56.0559 33.5241 55.6654L60.5033 28.6862C60.8938 28.2957 60.8938 27.6626 60.5033 27.272L33.5241 0.292893ZM38.1507 27.9791L32.8171 22.6456L27.4836 27.9791L32.8171 33.3126L38.1507 27.9791Z" fill="white"></path> </svg> 