<svg xmlns="http://www.w3.org/2000/svg" width="67" height="66"><g fill="none" fill-rule="evenodd"><rect width="67" height="66" fill="#FBF5E6" rx="9"/><path d="M55.709 36.361a1.687 1.687 0 0 1-.809.824c-.259.127-.518.19-.809.19-.291 0-.55-.063-.809-.19a1.687 1.687 0 0 1-.808-.824 1.659 1.659 0 0 1 .064-1.459c.42-.824.841-1.68 1.197-2.536l.033-.064c.064-.126.161-.19.29-.19.13 0 .26.064.292.19l.032.064a36.41 36.41 0 0 0 1.197 2.536c.292.476.324 1.015.13 1.459zm-43.547 6.563v2.537c0 .19.162.317.323.317h2.524a.321.321 0 0 0 .323-.317v-2.537c0-3.297 1.36-6.436 3.786-8.687l-2.103-2.347c-3.074 2.854-4.853 6.849-4.853 11.034zm43.547-14.965c-.033-.096-.065-.159-.162-.19l-6.244-3.552a9.192 9.192 0 0 0-4.465-1.173H38.53v-.095c0-.19-.129-.317-.323-.317H35.78v4.248h2.427a.32.32 0 0 0 .323-.317v-.095h5.921c1.197 0 2.394.317 3.43.888l5.92 3.361a.295.295 0 0 0 .162.032c.13 0 .226-.064.29-.159l1.424-2.41a.192.192 0 0 0 .033-.221zm-21.191-5.644a.596.596 0 0 0-.162-.413c-1.812-2.029-4.95-2.22-7.02-.475l-9.61 8.212a.74.74 0 0 0-.226.444c0 .158.032.349.162.476l.13.158.226.222 2.103 2.346.226.254.194.222 3.106 3.488c.647.729 1.585 1.11 2.524 1.11a3.41 3.41 0 0 0 2.2-.793l5.92-5.073.097-.095s0-.032.033-.032c.032-.032.032-.095.064-.127v-.032c0-.031.033-.095.033-.127v-9.765zm-6.989 14.3c-.84.729-2.135.634-2.879-.19l-2.718-3.076 6.956-5.961 2.103 2.378-.453-.032c-1.553-.063-2.976.793-3.59 2.188l-1.295 2.917c-.13.317 0 .698.323.824.098.032.162.064.26.064a.64.64 0 0 0 .582-.38l1.294-2.918a2.409 2.409 0 0 1 2.33-1.427l1.714.096.776.887-5.403 4.63z" fill="#EEA820" fill-rule="nonzero"/></g></svg>