<svg xmlns="http://www.w3.org/2000/svg" width="67" height="66"><g fill="none" fill-rule="evenodd"><rect width="67" height="66" fill="#FBF5E6" rx="9"/><path fill="#EEA820" fill-rule="nonzero" d="M22.61 50c3.544 0 6.436-2.906 6.597-6.538h16.605V50h1.975v-6.538H51V16h-1.976v3.762c-.688-.888-1.893-1.48-3.266-1.48H36.57v-1.48h-4.89v1.48h-9.188c-1.374 0-2.579.592-3.267 1.48V16H17.25v23.153A6.976 6.976 0 0 0 16 43.147C16 46.926 18.965 50 22.61 50zm2.414-6.538c-.15 1.242-1.174 2.208-2.413 2.208-1.342 0-2.434-1.132-2.434-2.523 0-1.391 1.092-2.523 2.434-2.523.767 0 1.452.37 1.898.948a2.568 2.568 0 0 1 .515 1.89zm-5.799-7.834h13.263c-.499.392-.809.936-.809 1.536 0 1.194 1.225 2.165 2.731 2.165h8.623c1.506 0 2.73-.971 2.73-2.165 0-.6-.31-1.144-.808-1.536h4.07v5.786H29c-.744-2.941-3.322-5.12-6.389-5.12a6.386 6.386 0 0 0-3.385.977v-1.643z"/></g></svg>