<svg xmlns="http://www.w3.org/2000/svg" width="67" height="66"><g fill="none" fill-rule="evenodd"><rect width="67" height="66" fill="#FBF5E6" rx="9"/><path fill="#EEA820" fill-rule="nonzero" d="M47 20.694v-3.228H20.077v3.228h1.207v30.1H20V54h26.961v-3.206h-1.284v-30.1H47zM33.5 45.666c-4.964 0-8.987-4.018-8.987-8.976 0-4.957 4.023-8.976 8.987-8.976s8.987 4.018 8.987 8.976c0 4.957-4.023 8.976-8.987 8.976zm9.61-29.491h-7.703V13h7.703v3.175zM33.5 30.686s-3.967 5.459-3.967 7.648a3.965 3.965 0 0 0 3.967 3.962 3.965 3.965 0 0 0 3.967-3.962c0-2.189-3.967-7.648-3.967-7.648zm.06 10.086a.48.48 0 1 1 0-.96 1.51 1.51 0 0 0 1.51-1.51.48.48 0 1 1 .962 0 2.473 2.473 0 0 1-2.473 2.47z"/></g></svg>