<svg xmlns="http://www.w3.org/2000/svg" width="67" height="66"><g fill="none" fill-rule="evenodd"><rect width="67" height="66" fill="#FBF5E6" rx="9"/><path fill="#EEA820" fill-rule="nonzero" d="M47.714 30.853c-.026-4.4-1.103-6.319-2.678-7.78-3.381-3.139.242-3.012-1.185-7.41-1.043-3.215-9.474-4.928-9.474 3.293 0 5.93 6.795 6.484 9.266 7.838 1.873 1.027 1.971 3.11 1.91 4.06h-1.56v7.951L30.637 42.42v-4.58L18 42.179V53h31V30.853h-1.286zM27.421 50.027h-6.54v-4.756h6.54v4.756zm9.37 0h-6.54v-4.756h6.54v4.756zm9.369 0h-6.54v-4.756h6.54v4.756z"/></g></svg>