<svg xmlns="http://www.w3.org/2000/svg" width="67" height="66"><g fill="none" fill-rule="evenodd"><rect width="67" height="66" fill="#FBF5E6" rx="9"/><g fill="#EEA820" fill-rule="nonzero"><path d="M13.906 38h27.188c.5 0 .906-.397.906-.886V22.66c0-1.47-1.217-2.66-2.719-2.66H15.72C14.217 20 13 21.191 13 22.66v14.454c0 .49.406.886.906.886zM48.5 39a3.5 3.5 0 1 0 0 7 3.5 3.5 0 0 0 0-7zm0 4.837a1.337 1.337 0 1 1 0-2.675 1.337 1.337 0 0 1 0 2.675zM20.5 39a3.5 3.5 0 1 0 0 7.001 3.5 3.5 0 0 0 0-7.001zm0 4.837a1.337 1.337 0 1 1 0-2.673 1.337 1.337 0 0 1 0 2.673zm-4.79-1.645a4.846 4.846 0 0 1 1.213-2.93c.133-.15.092-.262-.107-.262h-2.923c-.493 0-.893.413-.893.921v1.238c0 1.016.8 1.841 1.785 1.841h.761c.099 0 .17-.082.164-.184v-.023a5.06 5.06 0 0 1-.002-.569l.002-.032z"/><path d="M54.408 39.13l-.005-5.888c.002-.5-.233-1.228-.523-1.63l-4.975-6.886c-.29-.401-.92-.726-1.408-.726h-3.165c-.975 0-1.766.809-1.766 1.806v12.728c0 .3-.237.542-.53.542H24.182c-.195 0-.236.11-.104.257a4.737 4.737 0 0 1 1.199 3.46v.026c-.007.1.064.181.161.181h18.309c.098 0 .168-.08.162-.18a4.62 4.62 0 0 1-.01-.311c0-2.595 2.055-4.698 4.59-4.698 2.535 0 4.59 2.103 4.59 4.698 0 .104-.004.208-.01.31-.008.1.064.181.161.181h.006C54.21 43 55 42.191 55 41.194v-1.215a.901.901 0 0 0-.592-.849zm-3.64-7.013c0 .3-.237.542-.529.542h-4.815a.536.536 0 0 1-.53-.542v-5.192c0-.3.237-.542.53-.542h1.243c.293 0 .67.195.845.436l2.941 4.06c.174.24.316.615.316.836v.402z"/></g></g></svg>