<svg xmlns="http://www.w3.org/2000/svg" width="67" height="66"><g fill="none" fill-rule="evenodd"><rect width="67" height="66" fill="#FBF5E6" rx="9"/><path d="M47.964 31.025v1.65h7.393v2.475h-9.036v-4.125H44.68v-4.95l-.033-.825h-.575l-3.894-2.566a4.125 4.125 0 0 1-.977 1.328c-.349.326-.748.59-1.183.784l-.937.43-1.774.808 3.105 2.046-1.03 3.334-3.721 3.736h6.09v-.825h1.643V36.8H33.18v4.95h2.746a4.546 4.546 0 0 0-1.716 5.08A4.518 4.518 0 0 0 38.518 50H51.66a4.518 4.518 0 0 0 4.308-3.17 4.546 4.546 0 0 0-1.716-5.08H57V31.025h-9.036zm-9.446 16.5a2.058 2.058 0 0 1-2.054-2.063c0-1.139.92-2.062 2.054-2.062s2.053.923 2.053 2.063c0 .547-.216 1.071-.601 1.458a2.05 2.05 0 0 1-1.452.604zm6.571 0a2.058 2.058 0 0 1-2.053-2.063c0-1.139.92-2.062 2.053-2.062 1.134 0 2.054.923 2.054 2.063 0 .547-.217 1.071-.602 1.458a2.05 2.05 0 0 1-1.452.604zm6.572 0a2.058 2.058 0 0 1-2.054-2.063c0-1.139.92-2.062 2.054-2.062s2.053.923 2.053 2.063c0 .547-.216 1.071-.601 1.458a2.049 2.049 0 0 1-1.452.604zm-14.375-6.6V38.45h1.643v2.475h-1.643zm1.503-19.181a2.738 2.738 0 0 0-.074-2.129l-.099-.206a2.755 2.755 0 0 0-1.535-1.446 2.739 2.739 0 0 0-2.104.068l-7.09 3.234-.83-.556a4.658 4.658 0 0 0-4.222-.488l-5.03 1.894a5.9 5.9 0 0 0-.993-.163 6.254 6.254 0 0 0-5.676 2.842l-.136.207v12.624h1.643v-1.991l10.737-6.03-1.755-4.647-.08-.158a6.932 6.932 0 0 0-1.669-1.701l3.536-1.332a3.008 3.008 0 0 1 2.71.304l-3.392 1.546c.082.116.148.215.189.281l.05.074.164.322.303.817.88 2.326.583 1.543 12.453-5.693a2.706 2.706 0 0 0 1.437-1.542z" fill="#EEA820" fill-rule="nonzero"/></g></svg>