<svg xmlns="http://www.w3.org/2000/svg" width="67" height="66"><g fill="none" fill-rule="evenodd"><rect width="67" height="66" fill="#FBF5E6" rx="9"/><path fill="#EEA820" fill-rule="nonzero" d="M34.26 17l-3.557 12.296h-4.715v-9.459H23.95v9.38l-6.753.827.56 6.148H14v6.503h2.597v.433c0 3.271 2.718 5.872 5.954 5.872 3.197 0 5.954-2.562 5.954-5.872 0-1.143-.32-2.207-.919-3.113h6.474c.48 5.123 4.875 8.946 9.95 8.946 5.355 0 9.99-4.335 9.99-9.853 0-4.413-2.917-8.039-6.833-9.34V17.04H34.26V17zm2.038 2.443h8.112v9.813h-.44c-1.199 0-2.358.237-3.437.63l-6.953-.551 2.718-9.852v-.04zm7.672 15.724c2.557 0 4.076 1.853 4.076 3.941 0 2.089-1.519 3.941-4.076 3.941-2.557 0-4.076-1.852-4.076-3.94 0-2.09 1.519-3.942 4.076-3.942zm-21.459 5.124c1.759 0 3.077 1.34 3.077 2.837 0 1.537-1.278 2.838-3.077 2.838-1.758 0-3.076-1.34-3.076-2.838 0-1.537 1.278-2.837 3.076-2.837z"/></g></svg>