<svg xmlns="http://www.w3.org/2000/svg" width="92" height="25"><g fill="none" fill-rule="evenodd"><path fill="#EEA820" fill-rule="nonzero" d="M9.597 0C5.974 3.86 0 10.392 0 15.44c0 2.967 2.394 9.499 9.565 9.499 7.171 0 9.565-6.532 9.565-9.498 0-5.049-6.27-11.58-9.533-15.441zM2.394 14.252c.593 0 2.394 5.933 6.875 8.015-5.085 1.189-8.676-5.638-6.875-8.015z"/><path fill="#FFF" d="M42.821 19.896H39.98l-5.742-9.717-.058.01v9.707h-2.852V5.677h2.852l5.742 9.707.058-.01V5.677h2.842v14.219zm10.293-3.067h-4.99l-.967 3.067h-2.88l4.892-14.219h2.92l4.873 14.219H54.08l-.967-3.067zm-4.287-2.236h3.584l-1.758-5.586h-.058l-1.768 5.586zm18.271-.605h-5.957v5.908H58.29V5.677h9.805v2.197H61.14v3.916h5.957v2.198zm12.754-6.114H75.83v12.022h-2.852V7.874h-4.004V5.677h10.88v2.197zm8.243 8.955h-4.99l-.967 3.067h-2.881l4.892-14.219h2.92l4.873 14.219h-2.88l-.967-3.067zm-4.288-2.236h3.584l-1.757-5.586h-.059l-1.768 5.586z" opacity=".946"/></g></svg>