<svg xmlns="http://www.w3.org/2000/svg" width="1440" height="217"><path fill="#D8D8D8" fill-rule="evenodd" d="M1440 43.85c-64.662-12.309-133.323-13.307-205.985-2.994-108.992 15.469-115.188 74.628-539.96 7.984-108.257-16.985-141.527 3.558-208.503 45.191s-130.567 68.004-181.922 83.05c-43.735 12.814-75.395 23.965-153.737 32.247C120.502 212.435 70.538 214.993 0 217v-37.923c70.538-2.008 120.502-4.565 149.893-7.672 78.342-8.283 110.002-20.432 153.737-33.245 51.355-15.046 121.708-34.524 181.922-60.097C545.765 52.49 597.01 26.917 709.75 34.59c424.167 28.864 398.573 15.791 553.452-23.016C1304.49 1.228 1363.423-2.18 1440 1.344V43.85z" opacity=".246"/></svg>