<?xml version="1.0" encoding="UTF-8"?>
<svg width="2868px" height="762px" viewBox="0 0 2868 762" version="1.1" xmlns="http://www.w3.org/2000/svg" xmlns:xlink="http://www.w3.org/1999/xlink">
    <!-- Generator: Sketch 53 (72520) - https://sketchapp.com -->
    <title>logo</title>
    <desc>Created with Sketch.</desc>
    <g id="Page-1" stroke="none" stroke-width="1" fill="none" fill-rule="evenodd">
        <g id="logo">
            <g id="logo_mini">
                <path d="M517.082564,761 L517.082564,644.812744 L599.762007,587.759732 L599.762007,273.217897 L343.446163,110.653859 L88.4031221,273.217897 L88.4031221,587.759732 L172.082564,645.469955 L172.082564,761 L171.710937,761 L2.55795385e-12,642.578125 L2.27373675e-13,218.945312 L343.498347,0 L688.710937,218.945312 L688.710937,642.578125 L517.097656,761 L517.082564,761 Z" id="Combined-Shape" fill="#404048"></path>
                <path d="M344.428516,193.671535 L425.745796,274.988814 L344.428516,356.306094 L263.111236,274.988814 L344.428516,193.671535 Z M457.790951,280.59281 L457.790951,385.860398 L356.182304,481.488814 L356.182304,378.428297 L457.790951,280.59281 Z M231.171257,281.138859 L330.389141,378.364629 L330.182304,481.488814 L230.95999,386.471479 L231.171257,281.138859 Z M457.975783,419.777856 L457.975783,525.045444 L356.182304,620.862941 L356.182304,517.802424 L457.975783,419.777856 Z M231.3078,420.992413 L330.826734,517.969512 L330.389141,620.862941 L230.860836,526.089334 L231.3078,420.992413 Z M458.192793,560.777856 L458.192793,666.045444 L356.182304,761.488814 L356.182304,658.428297 L458.192793,560.777856 Z M230.954247,561.138859 L331.033571,657.936021 L330.826734,761.060206 L230.742981,666.471479 L230.954247,561.138859 Z" id="Combined-Shape" fill="#FFA95A"></path>
            </g>
            <path d="M2530.81888,520.364236 C2519.25135,502.305225 2510.73581,482.103646 2506,460.487231 C2526.07608,458.348713 2541.71415,441.357663 2541.71415,420.714146 C2541.71415,400.070629 2526.07608,383.07958 2506,380.941062 C2510.73581,359.324647 2519.25135,339.123068 2530.81888,321.064057 C2546.5267,333.737016 2569.59044,332.776885 2584.18366,318.183663 C2598.77688,303.590441 2599.73702,280.526703 2587.06406,264.818881 C2605.12307,253.251351 2625.32465,244.735814 2646.94106,240 C2649.07958,260.076076 2666.07063,275.714146 2686.71415,275.714146 C2707.35766,275.714146 2724.34871,260.076076 2726.48723,240 C2748.10365,244.735814 2768.30522,253.251351 2786.36424,264.818881 C2773.69128,280.526703 2774.65141,303.590441 2789.24463,318.183663 C2803.83785,332.776885 2826.90159,333.737016 2842.60941,321.064057 C2854.17694,339.123068 2862.69248,359.324647 2867.42829,380.941062 C2847.35222,383.07958 2831.71415,400.070629 2831.71415,420.714146 C2831.71415,441.357663 2847.35222,458.348713 2867.42829,460.487231 C2862.69248,482.103646 2854.17694,502.305225 2842.60941,520.364236 C2826.90159,507.691277 2803.83785,508.651408 2789.24463,523.24463 C2774.65141,537.837851 2773.69128,560.90159 2786.36424,576.609412 C2768.30522,588.176941 2748.10365,596.692479 2726.48723,601.428293 C2724.34871,581.352217 2707.35766,565.714146 2686.71415,565.714146 C2666.07063,565.714146 2649.07958,581.352217 2646.94106,601.428293 C2625.32465,596.692479 2605.12307,588.176941 2587.06406,576.609412 C2599.73702,560.90159 2598.77688,537.837851 2584.18366,523.24463 C2569.59044,508.651408 2546.5267,507.691277 2530.81888,520.364236 Z M2687.21415,527.714146 C2746.03247,527.714146 2793.71415,480.032472 2793.71415,421.214146 C2793.71415,362.39582 2746.03247,314.714146 2687.21415,314.714146 C2628.39582,314.714146 2580.71415,362.39582 2580.71415,421.214146 C2580.71415,480.032472 2628.39582,527.714146 2687.21415,527.714146 Z" id="Combined-Shape" fill="#FFA95A"></path>
            <text id="АГРО" font-family="Circe-Light, Circe" font-size="440" font-weight="300" line-spacing="640" letter-spacing="-8" fill="#404048">
                <tspan x="775" y="571">АГР</tspan>
                <tspan x="1536.4" y="571">О</tspan>
            </text>
            <text id="ПР" font-family="Circe-ExtraBold, Circe" font-size="440" font-weight="600" line-spacing="640" letter-spacing="-8" fill="#FFA95A">
                <tspan x="1888" y="571">ПР</tspan>
            </text>
        </g>
    </g>
</svg>