<?xml version="1.0" standalone="no"?>
<!DOCTYPE svg PUBLIC "-//W3C//DTD SVG 20010904//EN"
 "http://www.w3.org/TR/2001/REC-SVG-20010904/DTD/svg10.dtd">
<svg version="1.0" xmlns="http://www.w3.org/2000/svg"
 width="60.000000pt" height="39.000000pt" viewBox="0 0 60.000000 39.000000"
 preserveAspectRatio="xMidYMid meet">

<g transform="translate(0.000000,39.000000) scale(0.100000,-0.100000)"
fill="#000000" stroke="none">
<path d="M180 381 c-54 -18 -108 -51 -143 -90 -33 -37 -37 -47 -37 -96 0 -49
4 -59 36 -95 55 -60 127 -91 229 -98 192 -12 335 74 335 201 0 42 -5 53 -40
91 -61 66 -123 89 -250 93 -58 1 -116 -1 -130 -6z m265 -45 c20 -9 35 -21 33
-28 -6 -17 -49 -46 -79 -53 -24 -6 -27 -3 -33 28 -4 19 -15 46 -26 60 l-19 24
44 -8 c24 -4 60 -15 80 -23z m-195 -13 c-11 -21 -21 -46 -24 -55 -7 -23 -23
-23 -64 2 -32 20 -50 45 -39 56 12 12 84 33 114 34 l31 0 -18 -37z m80 -32
c16 -38 7 -51 -36 -51 -28 0 -34 4 -34 21 0 59 49 80 70 30z m-232 -36 c13
-14 46 -33 72 -42 47 -17 49 -19 55 -65 4 -26 15 -63 25 -83 17 -33 17 -35 0
-35 -39 0 -122 35 -160 67 -52 45 -68 95 -46 146 18 44 23 45 54 12z m462 -31
c27 -80 -61 -165 -193 -189 l-39 -8 17 33 c9 18 19 56 22 85 l5 52 50 12 c28
8 60 25 76 41 31 32 45 26 62 -26z m-220 -51 c0 -54 -37 -100 -61 -76 -11 11
-30 83 -24 92 2 4 22 6 44 6 35 0 41 -3 41 -22z"/>
</g>
</svg>
