<svg width="130" height="37" fill="none" xmlns="http://www.w3.org/2000/svg"><path fill-rule="evenodd" clip-rule="evenodd" d="M40.637 24.047a1.822 1.822 0 0 1 .616-2.503 1.826 1.826 0 0 1 2.505.615 7.634 7.634 0 0 0 2.798 2.701 7.65 7.65 0 0 0 3.752.98 7.633 7.633 0 0 0 5.408-2.236 7.609 7.609 0 0 0 2.239-5.402c0-2.106-.856-4.02-2.24-5.402a7.624 7.624 0 0 0-5.407-2.237c-5.475 0-9.979 5.12-14.885 10.705-6.247 7.107-13.09 14.89-24.03 15.418a1.825 1.825 0 0 1-.172-3.645c9.39-.454 15.695-7.623 21.451-14.177 5.48-6.236 10.512-11.96 17.631-11.96 3.121 0 5.95 1.266 7.996 3.31a11.261 11.261 0 0 1 3.314 7.988c0 3.118-1.268 5.944-3.314 7.988a11.284 11.284 0 0 1-7.996 3.31c-2.01 0-3.899-.526-5.543-1.449a11.407 11.407 0 0 1-4.123-4.004zM25.794 7.425c-1.66-2.148-3.946-4.072-6.561-5.418C16.81.761 14.092 0 11.305 0a1.83 1.83 0 1 0 0 3.66c2.187 0 4.332.605 6.253 1.596 2.14 1.1 3.997 2.664 5.339 4.4a1.829 1.829 0 0 0 2.563.329 1.82 1.82 0 0 0 .334-2.56z" fill="#fff"/><path fill-rule="evenodd" clip-rule="evenodd" d="M20.976 12.65c.522.86.245 1.982-.616 2.503a1.826 1.826 0 0 1-2.505-.615 7.676 7.676 0 0 0-2.797-2.7 7.648 7.648 0 0 0-3.753-.981 7.633 7.633 0 0 0-5.407 2.237 7.609 7.609 0 0 0-2.24 5.401 7.62 7.62 0 0 0 2.24 5.402 7.624 7.624 0 0 0 5.407 2.237c5.475 0 9.98-5.12 14.885-10.704C32.438 8.323 39.28.538 50.22.012a1.825 1.825 0 0 1 .172 3.645c-9.39.453-15.694 7.622-21.451 14.176-5.48 6.236-10.512 11.961-17.63 11.961a11.29 11.29 0 0 1-7.997-3.31A11.261 11.261 0 0 1 0 18.494a11.26 11.26 0 0 1 3.314-7.988 11.284 11.284 0 0 1 7.996-3.31c2.01 0 3.899.526 5.543 1.45a11.403 11.403 0 0 1 4.123 4.003zm14.839 16.617c1.66 2.149 3.945 4.073 6.56 5.418 2.427 1.246 5.141 2.007 7.928 2.007a1.83 1.83 0 1 0 0-3.66c-2.187 0-4.332-.605-6.252-1.596-2.14-1.1-3.998-2.664-5.34-4.4a1.829 1.829 0 0 0-2.896 2.231zM77.835 5.83a3.713 3.713 0 0 0-.14-.456 2.94 2.94 0 0 0-.718-1.065c-.317-.305-.719-.54-1.204-.71-.485-.171-1.054-.254-1.707-.259-.578 0-1.115.065-1.605.203a3.56 3.56 0 0 0-1.273.623c-.36.28-.639.631-.844 1.065-.2.429-.303.945-.303 1.535.004.517.088.95.256 1.3a2.3 2.3 0 0 0 .686.863c.284.221.61.392.975.512.359.12.741.203 1.129.249.321.037.63.074.923.11.294.038.555.088.784.153.228.064.41.161.546.29.13.125.2.3.2.521a.88.88 0 0 1-.168.508 1.179 1.179 0 0 1-.499.396 1.927 1.927 0 0 1-.83.162c-.397 0-.71-.046-.943-.139a1.052 1.052 0 0 1-.513-.396 1.097 1.097 0 0 1-.093-.18.702.702 0 0 0-.667-.447h-1.129a.69.69 0 0 0-.564.272.68.68 0 0 0-.13.608c.078.323.21.614.382.881.322.489.783.872 1.385 1.134.602.268 1.325.402 2.174.406.578 0 1.115-.064 1.61-.193.494-.13.932-.328 1.305-.595.373-.268.667-.609.877-1.024.21-.415.317-.913.322-1.485-.005-.466-.084-.876-.242-1.217a2.53 2.53 0 0 0-.649-.863c-.27-.23-.578-.41-.914-.539a4.268 4.268 0 0 0-1.045-.254c-.36-.037-.7-.064-1.017-.087a5.788 5.788 0 0 1-.844-.12 1.193 1.193 0 0 1-.579-.305c-.14-.147-.21-.364-.214-.65.004-.364.14-.64.41-.825.266-.19.644-.281 1.124-.281.266 0 .509.036.724.12a1.1 1.1 0 0 1 .513.382c.046.06.084.13.112.208a.702.702 0 0 0 .667.452h1.04c.224 0 .42-.093.56-.268.13-.17.181-.378.13-.595zm42.271-2.471c.896-.005 1.656.138 2.267.424.224.106.429.23.616.378.182-.148.387-.277.611-.378.606-.286 1.362-.424 2.267-.424.896-.005 1.656.138 2.267.424a2.879 2.879 0 0 1 1.39 1.346c.317.61.476 1.402.476 2.375v5.732a.71.71 0 0 1-.714.706h-1.04a.71.71 0 0 1-.714-.706V7.555c-.004-.503-.074-.9-.214-1.194a1.333 1.333 0 0 0-.583-.637 1.844 1.844 0 0 0-.863-.184c-.42 0-.747.078-.985.24a1.253 1.253 0 0 0-.499.677c-.093.277-.14.614-.14.996v5.783a.709.709 0 0 1-.713.706h-1.041a.71.71 0 0 1-.713-.706V7.555c-.005-.503-.07-.9-.215-1.194a1.333 1.333 0 0 0-.583-.637 1.839 1.839 0 0 0-.863-.184c-.42 0-.746.078-.984.24a1.248 1.248 0 0 0-.499.677c-.098.3-.145.66-.14 1.084v5.7a.71.71 0 0 1-.714.705h-1.04a.71.71 0 0 1-.714-.705V7.48c0-.968.154-1.752.462-2.36a2.866 2.866 0 0 1 1.371-1.338c.588-.29 1.344-.429 2.244-.424zm-8.126 7.779a.939.939 0 0 1-.317.401c-.266.198-.686.295-1.269.295-1.376.019-1.679-.774-1.679-2.015v-.295h5.061a.71.71 0 0 0 .714-.706v-1.35c0-2.79-1.301-4.114-4.133-4.105-2.831-.009-4.133 1.314-4.133 4.104v2.394c0 2.79 1.302 4.113 4.133 4.104 1.395.004 2.435-.263 3.116-.803.495-.392.807-.931.942-1.623a.708.708 0 0 0-.704-.84h-1.068a.677.677 0 0 0-.663.439zm-3.26-3.874c.037-1.097.382-1.784 1.637-1.78 1.255 0 1.6.688 1.637 1.78h-3.274zM97.184 5.83a2.986 2.986 0 0 0-.854-1.522c-.317-.304-.718-.539-1.203-.71-.485-.17-1.054-.253-1.707-.258-.579 0-1.115.065-1.605.203a3.597 3.597 0 0 0-1.273.623c-.36.28-.64.631-.845 1.065-.2.429-.298.945-.303 1.535.005.517.089.95.261 1.3a2.3 2.3 0 0 0 .686.863c.285.221.611.392.975.512.36.12.742.203 1.129.249.322.037.63.074.923.11.294.038.556.088.784.153.229.064.41.161.546.29.13.125.2.3.2.521a.88.88 0 0 1-.167.508 1.179 1.179 0 0 1-.5.396 1.927 1.927 0 0 1-.83.162c-.396 0-.709-.046-.942-.139a1.052 1.052 0 0 1-.513-.396 1.081 1.081 0 0 1-.089-.18.702.702 0 0 0-.667-.447h-1.138a.69.69 0 0 0-.565.272.68.68 0 0 0-.13.608c.08.323.21.614.382.881.322.489.784.872 1.386 1.134.602.268 1.325.402 2.174.406.578 0 1.114-.064 1.609-.193.494-.13.933-.328 1.31-.595.374-.268.668-.609.877-1.024.21-.415.318-.913.322-1.485-.004-.466-.084-.876-.242-1.217a2.532 2.532 0 0 0-.649-.863c-.27-.23-.578-.41-.914-.539a4.267 4.267 0 0 0-1.045-.254 33.46 33.46 0 0 0-1.017-.087 5.788 5.788 0 0 1-.844-.12 1.194 1.194 0 0 1-.578-.305c-.14-.147-.21-.364-.215-.65.005-.364.14-.64.41-.825.266-.19.644-.281 1.125-.281.266 0 .508.036.723.12a1.1 1.1 0 0 1 .513.382.74.74 0 0 1 .112.208.702.702 0 0 0 .667.452h1.04c.224 0 .42-.093.56-.268a.74.74 0 0 0 .121-.595zM79.575 10.3c0 .756.121 1.415.378 1.969.252.553.63.982 1.138 1.286.509.3 1.148.457 1.917.457.285 0 .57-.028.859-.097.289-.065.56-.161.811-.3.252-.138.471-.313.658-.535v.775c0 1.245-.303 2.034-1.68 2.015-.582-.004-1.002-.101-1.268-.3a.921.921 0 0 1-.317-.4.703.703 0 0 0-.663-.443h-1.073a.708.708 0 0 0-.704.839c.135.691.448 1.231.942 1.623.681.54 1.722.807 3.116.802 2.832.01 4.115-1.314 4.115-4.104v-9.56a.71.71 0 0 0-.714-.706h-1.04a.71.71 0 0 0-.714.706v5.7c-.005.59-.15 1.023-.439 1.319-.293.29-.704.433-1.24.433a2.1 2.1 0 0 1-.877-.18 1.182 1.182 0 0 1-.546-.558c-.121-.258-.187-.6-.187-1.024v-5.68a.71.71 0 0 0-.713-.706h-1.04a.71.71 0 0 0-.714.705c-.005 1.988-.005 3.975-.005 5.963zM102.6 1.96a.71.71 0 0 0-.714-.705h-1.04a.713.713 0 0 0-.714.705v1.42h-1.33a.713.713 0 0 0-.713.706v.844a.71.71 0 0 0 .714.706h1.329v5.155c0 .032.005.065.005.097.028.48.13.904.317 1.268.205.415.504.756.877 1.024.378.267.812.466 1.311.595a6.294 6.294 0 0 0 1.609.193.46.46 0 0 0 .462-.452v-1.23a.463.463 0 0 0-.462-.457h-.107c-.621-.005-1.535-.342-1.535-1.075V5.637h1.39a.71.71 0 0 0 .714-.706v-.844a.71.71 0 0 0-.714-.705h-1.39v-1.42h-.009zM73.81 22.89c.896-.005 1.656.138 2.267.424a2.883 2.883 0 0 1 1.39 1.346c.317.61.476 1.402.476 2.375v2.818c0 .756-.121 1.416-.378 1.969a2.82 2.82 0 0 1-1.138 1.286c-.508.3-1.147.457-1.917.457-.285 0-.574-.028-.858-.097a3.211 3.211 0 0 1-.812-.295 2.216 2.216 0 0 1-.658-.535v3.08a.713.713 0 0 1-.713.706h-1.04a.717.717 0 0 1-.719-.706v-8.706c0-.968.154-1.757.462-2.36a2.865 2.865 0 0 1 1.371-1.338c.611-.286 1.367-.429 2.267-.424zm35.018 0c.895-.005 1.656.138 2.267.424.224.106.429.23.615.378a2.79 2.79 0 0 1 .612-.378c.606-.286 1.362-.424 2.267-.424.895-.005 1.655.138 2.267.424a2.887 2.887 0 0 1 1.39 1.346c.317.61.475 1.402.475 2.375v5.732a.709.709 0 0 1-.713.706h-1.041a.713.713 0 0 1-.713-.706v-5.681c-.005-.503-.07-.9-.215-1.194a1.334 1.334 0 0 0-.583-.637 1.84 1.84 0 0 0-.863-.184c-.42 0-.746.078-.984.24a1.248 1.248 0 0 0-.499.677c-.093.277-.14.614-.14.997v5.782a.71.71 0 0 1-.714.706h-1.04a.713.713 0 0 1-.714-.706v-5.681c-.004-.503-.07-.9-.214-1.194a1.334 1.334 0 0 0-.583-.637 1.845 1.845 0 0 0-.863-.184c-.42 0-.747.078-.985.24a1.253 1.253 0 0 0-.499.677c-.098.3-.144.66-.14 1.084v5.7a.709.709 0 0 1-.713.705h-1.041a.713.713 0 0 1-.713-.705v-5.76c0-.968.154-1.752.462-2.36a2.862 2.862 0 0 1 1.371-1.338c.588-.29 1.339-.429 2.244-.424zm-21.131 3.887c0-.756-.121-1.416-.378-1.969a2.794 2.794 0 0 0-1.138-1.287c-.509-.3-1.148-.456-1.917-.456-.285 0-.574.028-.859.097-.289.064-.56.161-.811.295a2.217 2.217 0 0 0-.658.535v-3.08a.713.713 0 0 0-.714-.706h-1.04a.713.713 0 0 0-.714.706V32.74a.71.71 0 0 0 .714.706h1.04a.71.71 0 0 0 .714-.706v-5.7c.005-.59.15-1.023.438-1.318.294-.29.705-.433 1.241-.433.346.004.635.064.877.18.238.115.42.304.546.557.121.259.187.6.187 1.024v5.681a.71.71 0 0 0 .718.706h1.04a.71.71 0 0 0 .714-.706v-5.953zm11.876 6.673h1.04a.71.71 0 0 0 .714-.706V26.89c.005-.447.079-.807.233-1.075a1.3 1.3 0 0 1 .616-.576c.256-.115.546-.17.868-.17.139 0 .275.008.401.032a.38.38 0 0 0 .438-.323l.168-1.513a.354.354 0 0 0-.093-.29.365.365 0 0 0-.28-.12h-.033a3.308 3.308 0 0 0-1.758.493 3.15 3.15 0 0 0-.747.646l-.051-.447a.713.713 0 0 0-.709-.628h-.793a.713.713 0 0 0-.714.706v9.112a.691.691 0 0 0 .7.715zm-4.6-4.192a3.81 3.81 0 0 1-.149.77c-.07.25-.181.47-.326.669a1.491 1.491 0 0 1-.579.47c-.242.115-.54.175-.9.18a2.7 2.7 0 0 1-.756-.088 1.086 1.086 0 0 1-.517-.29.825.825 0 0 1-.191-.549.938.938 0 0 1 .321-.729c.22-.203.579-.345 1.083-.428.508-.083 1.18-.083 2.015-.005zm-3.027-3.293a1.75 1.75 0 0 1 .089-.309.853.853 0 0 1 .471-.47c.215-.097.504-.143.863-.138.43 0 .76.087.998.263.233.175.397.438.485.784.089.346.131.784.126 1.31-1.222-.088-2.267-.028-3.12.17-.854.198-1.507.549-1.955 1.051-.452.498-.676 1.167-.68 1.988.004.498.079.927.232 1.3.154.374.369.683.644.932.275.244.597.433.97.558.374.124.78.189 1.218.189a3.85 3.85 0 0 0 1.124-.171c.35-.11.667-.267.952-.47.284-.203.527-.438.723-.715l.12.636a.71.71 0 0 0 .705.577h.714a.71.71 0 0 0 .714-.706v-5.769c.004-.908-.136-1.669-.415-2.278a2.83 2.83 0 0 0-1.302-1.37c-.588-.303-1.348-.456-2.272-.456-.853-.004-1.572.12-2.155.37a2.554 2.554 0 0 0-1.306 1.184c-.196.374-.312.83-.35 1.365a.678.678 0 0 0 .192.53.7.7 0 0 0 .522.226h.984c.35 0 .644-.24.71-.58zm-18.08 5.363c.345-.004.635-.064.877-.18.238-.115.42-.304.546-.557.121-.259.186-.6.186-1.024v-2.481c-.004-.503-.074-.9-.214-1.194a1.332 1.332 0 0 0-.583-.637 1.84 1.84 0 0 0-.863-.184c-.42 0-.746.078-.984.24a1.249 1.249 0 0 0-.5.677c-.097.3-.144.66-.14 1.084v2.518c.005.59.15 1.024.439 1.319.29.276.7.42 1.236.42z" fill="#fff"/></svg>