<svg width="478" height="300" fill="none" xmlns="http://www.w3.org/2000/svg"><g clip-path="url(#clip0)"><path d="M388.084 11.208C381.768.538 369.274.04 369.274.04s-12.175-1.557-19.985 14.695c-7.28 15.148-17.327 29.774-1.618 33.32l2.838-8.832 1.757 9.49c2.237.16 4.48.199 6.721.114 16.824-.543 32.845.16 32.329-5.878-.685-8.025 2.844-21.473-3.232-31.74z" fill="#2F2E41"/><path d="M355.848 285.776c53.325 0 96.553-2.509 96.553-5.604 0-3.094-43.228-5.603-96.553-5.603-53.324 0-96.553 2.509-96.553 5.603 0 3.095 43.229 5.604 96.553 5.604zm-230.606 1.293c67.608 0 122.415-2.509 122.415-5.604 0-3.094-54.807-5.603-122.415-5.603S2.826 278.371 2.826 281.465c0 3.095 54.808 5.604 122.416 5.604zM273.088 300c60.229 0 109.054-2.509 109.054-5.604 0-3.094-48.825-5.603-109.054-5.603-60.228 0-109.053 2.509-109.053 5.603 0 3.095 48.825 5.604 109.053 5.604z" fill="#3F3D56"/><path d="M318.46 257.383c.398 13.603-7.55 18.588-17.525 18.879a29.769 29.769 0 0 1-2.066-.01c-9.021-.375-16.162-5.163-16.531-17.814-.383-13.092 15.867-30.102 17.086-31.36l.002-.001.07-.072s18.567 16.777 18.964 30.378z" fill="#774CDA"/><path d="M300.217 274.201l6.336-9.423-6.323 10.436.013 1.061c-.462.003-.921-.005-1.374-.023l.314-13.629-.008-.106.011-.02.03-1.288-6.939-10.074 6.931 9.11.025.273.237-10.298-5.993-10.445 6.01 8.636-.063-21.333v-.071l.003.07.397 16.813 5.463-6.829-5.445 8.278.119 9.21 5.027-8.989-5.008 10.344.066 5.121 7.31-12.522-7.287 14.309.148 11.389z" fill="#3F3D56"/><path d="M36.13 262.125c.397 13.602-7.551 18.588-17.526 18.879-.232.007-.462.011-.692.012-.462.004-.92-.004-1.374-.023C7.517 280.619.376 275.83.007 263.18c-.383-13.092 15.867-30.102 17.086-31.36l.002-.001.07-.072s18.567 16.776 18.964 30.378z" fill="#774CDA"/><path d="M17.886 278.942l6.336-9.422-6.323 10.436.013 1.06a27.21 27.21 0 0 1-1.374-.023l.314-13.629-.009-.105.012-.02.03-1.288-6.939-10.075 6.93 9.111.025.272.238-10.297-5.994-10.445 6.01 8.636-.062-21.333v-.071l.002.069.398 16.814 5.462-6.83-5.444 8.278.12 9.211 5.026-8.989-5.008 10.343.066 5.122 7.31-12.522-7.288 14.308.149 11.389zm424.142-8.726l31.927-47.477-31.861 52.585.066 5.342c-2.33.018-4.638-.021-6.924-.116l1.584-68.673-.044-.529.059-.103.151-6.489-34.963-50.761 34.922 45.904.124 1.372 1.196-51.885-30.199-52.628 30.285 43.514-.316-107.492v-.358l.011.352 2.004 84.718 27.523-34.412-27.433 41.71.601 46.41 25.327-45.294-25.234 52.117.335 25.806L478 140.735l-36.719 72.097.747 57.384z" fill="#3F3D56"/><path d="M350.662 112.271s-7.397 19.826-2.663 37.58c4.735 17.754 17.163 60.069 17.163 60.069l16.571 32.845s9.469 6.51 15.091-6.806l-15.091-28.407 14.772-51.326a66.216 66.216 0 0 0 1.746-29.567c-.842-4.874-2.278-9.75-4.682-13.5 0 0-38.468-5.918-42.907-.888z" fill="#2F2E41"/><path d="M366.049 206.369l-8.877 46.161s9.173 6.51 14.5 4.439l8.877-34.029-14.5-16.571z" fill="#2F2E41"/><path d="M358.356 251.643l-9.469 19.233-3.847 7.694s-21.01 20.121-4.439 18.05c16.571-2.071 17.755-5.03 17.755-5.03l3.255-4.735.887 1.776s4.735-3.847 4.735-5.031c0-1.183-1.775-13.315-1.775-13.315l2.367-14.204-9.469-4.438zm26.927-9.173l5.031 13.611-2.959 11.836s-11.541 15.683.296 14.796c11.836-.888 13.907-9.469 13.907-9.469l1.776-5.623 1.479.592 4.439-7.989-8.285-13.316-5.623-9.765-10.061 5.327z" fill="#2F2E41"/><path d="M416.65 128.842l1.775 9.173s7.398 16.571 0 17.163c-7.398.591-7.398-16.275-7.398-16.275l.592-6.806 5.031-3.255zM289.113 81.201l-10.357-1.775s-20.418-10.653-20.122-2.96c.296 7.694 19.234 11.245 19.234 11.245l5.623 2.072 5.622-8.582zm79.304-43.202c7.517 0 13.612-6.094 13.612-13.612 0-7.517-6.095-13.611-13.612-13.611-7.518 0-13.612 6.094-13.612 13.611 0 7.518 6.094 13.612 13.612 13.612z" fill="#FFB8B8"/><path d="M362.498 33.56s2.959 11.245-2.367 13.612c-5.326 2.367-5.918 4.143-5.918 4.143s35.509 11.244 38.172-2.071l-12.132-6.806s-1.184-9.47-2.367-10.061c-1.184-.592-15.388 1.184-15.388 1.184z" fill="#FFB8B8"/><path d="M404.846 57.138a3.55 3.55 0 0 0-1.533-2.168c-3.09-1.99-11.132-7.045-12.229-6.457-1.362.73-11.807 5.73-32.477-.616 0 0-15.638 4.305-20.077 7.264-4.439 2.96-13.717 12.511-13.717 12.511s-42.106 6.794-41.81 10.345c.296 3.55-3.018 12.069-3.018 12.069s27.587 5.603 55.604-6.034c0 0 8.859 20.525 7.971 24.372-.887 3.847-.887 6.51 6.215 5.918 7.101-.591 18.05-2.367 23.672-1.479 5.623.888 26.632 2.367 26.632.888v-9.174s6.51 31.958 10.653 31.958c4.142 0 10.557-2.497 13.221-11.966l-12.932-41.38-6.175-26.05z" fill="#D0CDE1"/><path opacity=".2" d="M372.222 144.537l-7.308 63.364 1.284.148 7.308-63.364-1.284-.148z" fill="#000"/><path d="M385.292 10.666L372.948 4.2l-17.046 2.646-3.527 15.576 8.779-.338 2.453-5.722v5.628l4.051-.155 2.351-9.111 1.47 9.698 14.401-.294-.588-11.462z" fill="#2F2E41"/><path d="M253.875 53.666a5.208 5.208 0 0 0-8.502 1.682 5.216 5.216 0 0 0 .006 3.99 5.192 5.192 0 0 0 1.134 1.69l7.362 7.362 7.362-7.362a5.205 5.205 0 0 0-7.362-7.362zm19.397-25.862a5.208 5.208 0 0 0-8.502 1.682 5.196 5.196 0 0 0 1.14 5.68l7.362 7.362 7.362-7.362a5.205 5.205 0 0 0-7.362-7.362zM244.824 3.666a7.654 7.654 0 0 0-5.406-2.242 7.644 7.644 0 0 0-5.405 13.052l10.811 10.81 10.81-10.81a7.656 7.656 0 0 0 2.242-5.406 7.652 7.652 0 0 0-2.239-5.407 7.641 7.641 0 0 0-10.813.003z" fill="#FF6584"/><path d="M224.381 108.19H29.551v172.413h194.83V108.19z" fill="#3F3D56"/><path d="M208.864 125.431H45.499v102.586h163.365V125.431z" fill="#fff"/><path d="M140.94 228.63l.577-.182a37.25 37.25 0 0 0 25.815-36.883c-.145-3.9-.91-7.751-2.267-11.41a37.205 37.205 0 0 0-40.992-23.796 37.205 37.205 0 0 0-31.103 35.766 37.17 37.17 0 0 0 25.263 36.13c.194.068.392.133.586.193h10.668l11.453.182z" fill="#2F2E41"/><path d="M119.401 220.737l-1.168 7.517-.03.194h-11.436l.901-5.793.612-3.931 11.121 2.013zm21.539 7.892l.031-.181.668-3.685-11.121-2.013-1.03 5.698 11.452.181z" fill="#2F2E41"/><path d="M132.763 196.635c7.021 0 12.712-5.692 12.712-12.712 0-7.021-5.691-12.713-12.712-12.713s-12.712 5.692-12.712 12.713c0 7.02 5.691 12.712 12.712 12.712z" fill="#fff"/><path d="M137.988 183.603a4.237 4.237 0 1 0 0-8.474 4.237 4.237 0 0 0 0 8.474z" fill="#3F3D56"/><path d="M100.817 152.557c-.559-13.771 11.309-25.434 26.508-26.051 15.199-.618 27.974 10.045 28.534 23.815.559 13.77-10.007 16.899-25.206 17.516-15.199.617-29.277-1.51-29.836-15.28z" fill="#774CDA"/><path d="M165.809 191.935c10.011-2.295 17.543-6.703 16.823-9.846-.721-3.143-9.421-3.83-19.432-1.535-10.012 2.294-17.544 6.702-16.823 9.845.72 3.143 9.42 3.831 19.432 1.536zm-73.014 12.142c10.012-2.295 17.544-6.703 16.823-9.846-.72-3.143-9.42-3.83-19.432-1.536-10.011 2.295-17.543 6.703-16.823 9.846.72 3.143 9.42 3.831 19.432 1.536z" fill="#2F2E41"/><path d="M119.943 207.679a8.471 8.471 0 0 0 10.137 9.797 8.46 8.46 0 0 0 3.033-1.32 8.457 8.457 0 0 0 3.509-5.458c.834-4.606-2.727-6.235-7.333-7.069-4.605-.834-8.512-.556-9.346 4.05z" fill="#fff"/><path d="M145.501 243.534H45.499v6.035h100.002v-6.035zm63.363 12.932H45.499v6.034h163.365v-6.034z" fill="#774CDA"/></g><defs><clipPath id="clip0"><path fill="#fff" d="M0 0h478v300H0z"/></clipPath></defs></svg>