<svg width="54" height="54" fill="none" xmlns="http://www.w3.org/2000/svg"><g clip-path="url(#clip0)" fill="#774CDA"><path d="M50.57 40.337a4.48 4.48 0 0 0-2.872-7.935c-.125 0-.242.027-.365.037a4.528 4.528 0 0 0-4.134-2.737 4.466 4.466 0 0 0-4.183 2.888 4.024 4.024 0 0 0-2.434 0 4.472 4.472 0 0 0-8.359-.015 4.212 4.212 0 0 0-2.44.015 4.472 4.472 0 0 0-8.365 0 4.024 4.024 0 0 0-2.434 0 4.466 4.466 0 0 0-4.183-2.888 4.527 4.527 0 0 0-4.134 2.737c-.122-.01-.24-.037-.365-.037a4.48 4.48 0 0 0-2.871 7.935 6.674 6.674 0 0 0-3.429 5.89V53.1a.9.9 0 0 0 .9.9h52.196a.9.9 0 0 0 .9-.899v-6.873a6.674 6.674 0 0 0-3.428-5.891zm-2.872-6.135a2.7 2.7 0 1 1 0 5.4 2.7 2.7 0 0 1 0-5.4zm-4.5-2.7a2.71 2.71 0 0 1 2.385 1.453A4.486 4.486 0 0 0 43.2 36.89a2.75 2.75 0 0 1-.918-.153 4.47 4.47 0 0 0-1.665-3.313 2.682 2.682 0 0 1 2.582-1.92zm-5.399 2.7a2.7 2.7 0 1 1 0 5.4 2.7 2.7 0 0 1 0-5.4zm-5.4-2.7a2.682 2.682 0 0 1 2.582 1.92 4.469 4.469 0 0 0-1.663 3.295 2.745 2.745 0 0 1-1.83.002 4.501 4.501 0 0 0-1.666-3.315 2.684 2.684 0 0 1 2.578-1.902zm-7.718 4.012a2.693 2.693 0 1 1 4.624 2.761 2.693 2.693 0 0 1-4.624-2.76zm-3.08-4.012a2.682 2.682 0 0 1 2.581 1.92 4.469 4.469 0 0 0-1.663 3.295 2.744 2.744 0 0 1-1.837 0 4.469 4.469 0 0 0-1.663-3.295 2.682 2.682 0 0 1 2.582-1.92zm-5.4 2.7a2.7 2.7 0 1 1 0 5.4 2.7 2.7 0 0 1 0-5.4zm-5.4-2.7a2.682 2.682 0 0 1 2.582 1.92 4.47 4.47 0 0 0-1.665 3.314 2.744 2.744 0 0 1-.918.153 4.485 4.485 0 0 0-2.382-3.934 2.711 2.711 0 0 1 2.383-1.453zm-4.5 2.7a2.7 2.7 0 1 1 0 5.4 2.7 2.7 0 0 1 0-5.4zm3.6 12.026V52.2H1.802v-5.972a4.677 4.677 0 0 1 4.5-4.827 4.467 4.467 0 0 1 3.975 2.596 6.885 6.885 0 0 0-.376 2.23zm-.733-5.887a4.504 4.504 0 0 0 1.264-1.663c.123.01.246.024.37.024.41-.001.82-.059 1.216-.17.278.702.73 1.323 1.312 1.805a6.414 6.414 0 0 0-2.082 1.81 6.363 6.363 0 0 0-2.08-1.806zM20.7 46.228V52.2h-9v-5.972a4.677 4.677 0 0 1 4.5-4.827 4.677 4.677 0 0 1 4.5 4.827zm-1.629-5.891a4.493 4.493 0 0 0 1.312-1.806 4.437 4.437 0 0 0 2.433 0 4.5 4.5 0 0 0 1.312 1.806 6.479 6.479 0 0 0-2.529 2.495 6.479 6.479 0 0 0-2.528-2.495zm12.428 5.89v5.974h-9v-5.973A4.677 4.677 0 0 1 27 41.4a4.677 4.677 0 0 1 4.5 4.827zm-1.629-5.89a4.493 4.493 0 0 0 1.312-1.806 4.437 4.437 0 0 0 2.434 0 4.488 4.488 0 0 0 1.311 1.806 6.478 6.478 0 0 0-2.528 2.495 6.48 6.48 0 0 0-2.529-2.495zm12.428 5.89v5.974h-9v-5.973a4.51 4.51 0 1 1 9 0zm.453-4.08a6.416 6.416 0 0 0-2.082-1.81 4.493 4.493 0 0 0 1.312-1.806c.396.112.805.17 1.217.17.123 0 .246-.013.369-.023a4.502 4.502 0 0 0 1.264 1.663 6.363 6.363 0 0 0-2.08 1.806zm9.446 4.08v5.974h-8.1v-5.973a6.888 6.888 0 0 0-.374-2.23 4.467 4.467 0 0 1 3.974-2.597 4.677 4.677 0 0 1 4.5 4.827zM37.69 2.117a7.046 7.046 0 0 0-9.974-.096L27 2.73l-.715-.708a7.046 7.046 0 0 0-9.88 0 6.68 6.68 0 0 0 .004 9.545l9.961 9.78a.9.9 0 0 0 1.26 0l9.965-9.782a6.68 6.68 0 0 0 .095-9.447zm-1.28 8.086a4.129 4.129 0 0 1-.079.079l-9.33 9.16-9.33-9.158a4.881 4.881 0 0 1 0-6.983 5.242 5.242 0 0 1 7.348 0l1.348 1.334a.9.9 0 0 0 1.266 0l1.348-1.334a5.242 5.242 0 0 1 7.348 0 4.88 4.88 0 0 1 .08 6.902zM13.296 15.02a4.24 4.24 0 0 0-.261-.26 4.794 4.794 0 0 0-5.834-.483 4.796 4.796 0 0 0-5.833.483 4.208 4.208 0 0 0 0 6.207l5.218 4.892a.895.895 0 0 0 1.23 0l5.22-4.893a4.208 4.208 0 0 0 .26-5.945zm-1.316 4.458a2.39 2.39 0 0 1-.175.175L7.2 23.97l-4.603-4.316a2.444 2.444 0 0 1-.796-1.79c.004-.682.293-1.33.796-1.79a2.96 2.96 0 0 1 3.988 0 .898.898 0 0 0 1.23 0 2.96 2.96 0 0 1 3.989 0 2.41 2.41 0 0 1 .175 3.405zm40.912-4.458a4.213 4.213 0 0 0-.26-.26 4.793 4.793 0 0 0-5.834-.483 4.796 4.796 0 0 0-5.833.483 4.208 4.208 0 0 0 0 6.207l5.218 4.892a.9.9 0 0 0 1.23 0l5.22-4.892a4.208 4.208 0 0 0 .26-5.946zm-1.315 4.458c-.055.062-.114.12-.175.176l-4.604 4.315-4.603-4.315a2.41 2.41 0 0 1 0-3.58 2.96 2.96 0 0 1 3.988 0 .898.898 0 0 0 1.23 0 2.96 2.96 0 0 1 3.989 0 2.41 2.41 0 0 1 .175 3.404z"/></g><defs><clipPath id="clip0"><path fill="#fff" d="M0 0h54v54H0z"/></clipPath></defs></svg>