<svg width="45" height="45" fill="none" xmlns="http://www.w3.org/2000/svg"><g clip-path="url(#clip0)" fill="#5E2AD7"><path d="M13.499 5.25a3 3 0 1 0 0 6 3 3 0 0 0 0-6zm0 4.5a1.5 1.5 0 1 1 0-3 1.5 1.5 0 0 1 0 3zm18-4.5a3 3 0 1 0 0 6 3 3 0 0 0 0-6zm0 4.5a1.5 1.5 0 1 1 0-3 1.5 1.5 0 0 1 0 3z"/><path d="M44.705 9.904L31.955.154a.75.75 0 0 0-.91 0L22.5 6.688 13.956.154a.75.75 0 0 0-.912 0L.294 9.904A.75.75 0 0 0 0 10.5v33.75c0 .414.336.75.75.75h43.5a.75.75 0 0 0 .75-.75V10.5a.75.75 0 0 0-.295-.596zM25.5 43.5h-24V10.87l12-9.176 12 9.177V43.5zm18 0H27v-9.75h14.25A.75.75 0 0 0 42 33V16.5a.75.75 0 0 0-.75-.75H27V10.5a.75.75 0 0 0-.294-.596l-2.971-2.272L31.5 1.694l12 9.177V43.5zm-8.25-12.75A.75.75 0 0 0 36 30a2.252 2.252 0 0 1 2.25-2.25A.75.75 0 0 0 39 27v-4.5a.75.75 0 0 0-.75-.75A2.252 2.252 0 0 1 36 19.5a.75.75 0 0 0-.75-.75H27v-1.5h13.5v15H27v-1.5h8.25zM27 29.25v-9h7.575a3.761 3.761 0 0 0 2.925 2.924v3.151a3.761 3.761 0 0 0-2.925 2.925H27z"/><path d="M13.499 15a9.01 9.01 0 0 0-9 9 9 9 0 1 0 9-9zm0 16.5a7.5 7.5 0 0 1 0-15 7.508 7.508 0 0 1 7.5 7.5 7.5 7.5 0 0 1-7.5 7.5z"/><path d="M15.21 23.901a5.873 5.873 0 0 0-1.704-.763C12.367 22.773 12 22.585 12 21.75c.02-.82.68-1.48 1.5-1.5.828 0 1.499.672 1.5 1.5h1.5a2.997 2.997 0 0 0-2.25-2.893V18h-1.5v.861a3.04 3.04 0 0 0-2.25 2.889c0 1.998 1.473 2.471 2.549 2.817a4.61 4.61 0 0 1 1.28.549 1.457 1.457 0 0 1-.732 2.632 1.417 1.417 0 0 1-1.096-.39A1.515 1.515 0 0 1 12 26.25h-1.5a3 3 0 0 0 2.25 2.894V30h1.5v-.859a2.95 2.95 0 0 0 .96-5.24z"/></g><defs><clipPath id="clip0"><path fill="#fff" d="M0 0h45v45H0z"/></clipPath></defs></svg>