<svg width="45" height="45" fill="none" xmlns="http://www.w3.org/2000/svg"><g clip-path="url(#clip0)" fill="#5E2AD7"><path d="M31.744 21.545l-1.308-.577a8.547 8.547 0 0 0-.195-.628l.726-1.253a.752.752 0 0 0 .006-.742 9.962 9.962 0 0 0-1.276-1.783.75.75 0 0 0-.726-.231l-1.377.315a8.338 8.338 0 0 0-.503-.37l-.133-1.458a.751.751 0 0 0-.431-.612 9.57 9.57 0 0 0-2.056-.69.753.753 0 0 0-.741.27L22.768 15h-.537l-.961-1.215a.752.752 0 0 0-.742-.27 9.57 9.57 0 0 0-2.055.691.75.75 0 0 0-.431.613l-.134 1.456a8.482 8.482 0 0 0-.502.37l-1.377-.314a.75.75 0 0 0-.727.23 9.942 9.942 0 0 0-1.276 1.783.751.751 0 0 0 .006.743l.728 1.253a8.19 8.19 0 0 0-.194.622l-1.36.58a.75.75 0 0 0-.456.69v2.037c0 .3.179.572.455.69l1.36.58c.059.216.123.423.194.621l-.727 1.253a.751.751 0 0 0-.006.742c.359.64.787 1.238 1.276 1.784a.75.75 0 0 0 .727.23l1.376-.315c.161.129.33.253.503.371l.133 1.457c.025.266.19.5.432.612a9.538 9.538 0 0 0 2.055.69.754.754 0 0 0 .742-.269l.961-1.215h.537l.962 1.215a.751.751 0 0 0 .741.27 9.57 9.57 0 0 0 2.056-.69.751.751 0 0 0 .431-.613l.133-1.457c.174-.118.341-.242.503-.37l1.377.315a.749.749 0 0 0 .726-.231 9.947 9.947 0 0 0 1.276-1.783.752.752 0 0 0-.006-.742l-.727-1.253a8.3 8.3 0 0 0 .196-.628l1.308-.578a.75.75 0 0 0 .447-.686v-2.038a.75.75 0 0 0-.447-.686zm-1.053 2.235l-1.197.529a.75.75 0 0 0-.428.518c-.084.38-.2.752-.347 1.113a.75.75 0 0 0 .044.663l.686 1.183a8.316 8.316 0 0 1-.587.82l-1.296-.297a.747.747 0 0 0-.664.168c-.287.253-.594.48-.92.68a.753.753 0 0 0-.352.57l-.126 1.376c-.292.12-.591.221-.896.306l-.888-1.124a.75.75 0 0 0-.588-.285h-1.264a.75.75 0 0 0-.588.285l-.889 1.124a8.125 8.125 0 0 1-.896-.306l-.126-1.377a.751.751 0 0 0-.352-.569 6.804 6.804 0 0 1-.92-.68.747.747 0 0 0-.664-.168l-1.296.296a8.439 8.439 0 0 1-.587-.82l.687-1.182a.752.752 0 0 0 .044-.664 6.924 6.924 0 0 1-.347-1.112.75.75 0 0 0-.437-.522l-1.247-.532v-1.046l1.247-.532a.75.75 0 0 0 .437-.522c.084-.38.2-.752.347-1.112a.751.751 0 0 0-.044-.664l-.686-1.183a8.55 8.55 0 0 1 .586-.82l1.297.297a.748.748 0 0 0 .664-.168c.287-.252.594-.48.92-.68.2-.124.33-.335.351-.57l.126-1.376c.293-.12.592-.221.896-.305l.889 1.123a.75.75 0 0 0 .588.285h1.264a.75.75 0 0 0 .588-.285l.889-1.123c.304.084.603.186.896.305l.126 1.377a.752.752 0 0 0 .352.57c.325.2.632.427.919.679.18.16.428.223.664.168l1.297-.296c.211.261.407.535.586.82l-.686 1.183a.752.752 0 0 0-.044.663c.147.36.263.733.347 1.112a.75.75 0 0 0 .428.519l1.197.528v1.06z"/><path d="M22.5 18a5.25 5.25 0 0 0-5.25 5.25 5.256 5.256 0 0 0 5.25 5.25 5.25 5.25 0 1 0 0-10.5zm0 9a3.75 3.75 0 1 1 0-7.5 3.75 3.75 0 0 1 0 7.5zM6.026 20.681a2.97 2.97 0 0 0 .724-1.931 3 3 0 1 0-6 0c.003.71.26 1.395.724 1.932A2.99 2.99 0 0 0 0 23.25v5.25c0 .414.336.75.75.75h6a.75.75 0 0 0 .75-.75v-5.25a2.99 2.99 0 0 0-1.474-2.569zm-2.276-3.43a1.5 1.5 0 1 1 0 2.999 1.5 1.5 0 0 1 0-3zM6 27.75H1.5v-4.5a1.5 1.5 0 0 1 1.5-1.5h1.5a1.5 1.5 0 0 1 1.5 1.5v4.5zM26.932 39a4.504 4.504 0 0 0-3.682-3.682V34.5h-1.5v.818A4.504 4.504 0 0 0 18.068 39h-.818v1.5h.818a4.504 4.504 0 0 0 3.682 3.682V45h1.5v-.818a4.504 4.504 0 0 0 3.682-3.682h.818V39h-.818zm-1.538 1.5a2.996 2.996 0 0 1-2.144 2.144V42h-1.5v.644a2.996 2.996 0 0 1-2.143-2.144h.643V39h-.643a2.996 2.996 0 0 1 2.143-2.144v.644h1.5v-.644A2.996 2.996 0 0 1 25.393 39h-.643v1.5h.643zM22.348.003A4.502 4.502 0 0 0 18 4.352a4.325 4.325 0 0 0 2.25 3.765v3.133c0 .415.335.75.75.75h3a.75.75 0 0 0 .75-.75V8.117A4.326 4.326 0 0 0 27 4.352 4.503 4.503 0 0 0 22.348.003zm.902 10.498h-1.5V9h1.5v1.5zm.459-3.543a.744.744 0 0 0-.437.542h-1.544a.744.744 0 0 0-.438-.542 2.852 2.852 0 0 1-1.79-2.606 3.004 3.004 0 0 1 6 0 2.852 2.852 0 0 1-1.791 2.606zM16.5 3.75H15v1.5h1.5v-1.5zm13.5 0h-1.5v1.5H30v-1.5zM28.497.22l-1.061 1.06 1.06 1.06 1.061-1.06-1.06-1.06zM16.5.222l-1.062 1.061 1.061 1.06 1.06-1.06L16.5.223zm0 6.217l-1.06 1.06L16.5 8.56l1.061-1.06-1.06-1.061zm12 .001L27.439 7.5l1.06 1.06L29.56 7.5 28.5 6.44zM42 21.75h-2.25a1.5 1.5 0 1 1 0-3h4.5v-1.5H42v-1.5h-1.5v1.5h-.75a3 3 0 0 0 0 6H42a1.5 1.5 0 1 1 0 3h-4.5v1.5h3v1.5H42v-1.5a3 3 0 0 0 0-6zm-36.003 8.7l-1.374.6a19.455 19.455 0 0 0 10.223 10.14l.588-1.38a17.965 17.965 0 0 1-9.437-9.36zm33.006 0a17.978 17.978 0 0 1-9.303 9.302l.6 1.375A19.471 19.471 0 0 0 40.377 31.05l-1.374-.6zM31.77 6.09l-.713 1.32a18.011 18.011 0 0 1 7.284 7.284l1.32-.714a19.507 19.507 0 0 0-7.891-7.89zm-18.54 0a19.512 19.512 0 0 0-7.89 7.89l1.32.714a18.006 18.006 0 0 1 7.283-7.284l-.713-1.32z"/></g><defs><clipPath id="clip0"><path fill="#fff" d="M0 0h45v45H0z"/></clipPath></defs></svg>