<svg width="45" height="45" fill="none" xmlns="http://www.w3.org/2000/svg"><path d="M22.5 0C10.455 0 3 8.954 3 17.25c0 5.51 2.519 11.486 6.75 16.047v7.953c0 .414.335.75.75.75h3v2.25c0 .414.335.75.75.75h16.5a.75.75 0 0 0 .75-.75V42h3a.75.75 0 0 0 .75-.75v-7.953C39.481 28.737 42 22.76 42 17.25 42 8.954 34.545 0 22.5 0zM30 43.5H15V42h15v1.5zm3.75-3h-22.5V39h22.5v1.5zm0-3h-22.5V36h22.5v1.5zm.206-5.016a.752.752 0 0 0-.206.516v1.5h-22.5V33a.752.752 0 0 0-.206-.516C6.946 28.169 4.5 22.474 4.5 17.25c0-7.575 6.882-15.75 18-15.75s18 8.175 18 15.75c0 5.224-2.446 10.919-6.544 15.234z" fill="#5E2AD7"/><path d="M36.903 15.582l-1.66-.348c-.08-.361-.18-.724-.293-1.083l1.271-1.134a.751.751 0 0 0 .19-.855 15.065 15.065 0 0 0-1.852-3.158.744.744 0 0 0-.831-.26l-1.604.524a13.029 13.029 0 0 0-.8-.797l.525-1.592a.75.75 0 0 0-.262-.835 15.135 15.135 0 0 0-3.17-1.845.751.751 0 0 0-.85.189l-1.143 1.269c-.36-.114-.723-.211-1.087-.293l-.353-1.761A.75.75 0 0 0 24.25 3h-3.5a.75.75 0 0 0-.735.603l-.352 1.761c-.363.08-.726.178-1.088.293l-1.142-1.269a.755.755 0 0 0-.85-.189 15.16 15.16 0 0 0-3.17 1.845.75.75 0 0 0-.262.835l.525 1.592c-.278.254-.546.52-.8.797l-1.603-.525a.752.752 0 0 0-.831.26 15.037 15.037 0 0 0-1.854 3.16.75.75 0 0 0 .19.854l1.272 1.134c-.114.359-.213.72-.294 1.083l-1.66.348a.75.75 0 0 0-.596.733v3.486a.75.75 0 0 0 .596.734l1.66.347c.081.362.18.724.294 1.083L8.777 23.1a.751.751 0 0 0-.19.855 15.06 15.06 0 0 0 1.853 3.158c.193.256.527.36.83.26l1.604-.525c.255.277.523.544.8.797l-.524 1.593a.749.749 0 0 0 .261.834 15.108 15.108 0 0 0 3.171 1.846.751.751 0 0 0 .85-.19l1.142-1.268c.363.114.728.212 1.093.294l.348 1.651a.75.75 0 0 0 .734.595h3.5a.75.75 0 0 0 .734-.595l.348-1.651c.365-.082.73-.18 1.093-.294l1.142 1.268a.75.75 0 0 0 .85.19 15.11 15.11 0 0 0 3.171-1.846.749.749 0 0 0 .262-.834l-.525-1.592c.276-.253.543-.52.8-.797l1.603.524c.304.1.638-.003.83-.259a15.04 15.04 0 0 0 1.854-3.16.75.75 0 0 0-.19-.854l-1.272-1.135c.115-.359.213-.72.294-1.082l1.66-.348a.75.75 0 0 0 .596-.734v-3.486a.75.75 0 0 0-.596-.734zm-.904 3.61l-1.546.324a.75.75 0 0 0-.584.6c-.114.62-.279 1.23-.494 1.824a.75.75 0 0 0 .206.814l1.23 1.098a13.692 13.692 0 0 1-1.135 1.927l-1.554-.508a.75.75 0 0 0-.804.225c-.411.483-.861.931-1.345 1.34a.75.75 0 0 0-.229.81l.509 1.541c-.614.43-1.262.808-1.938 1.132L27.21 29.09a.748.748 0 0 0-.81-.204c-.596.213-1.21.378-1.834.492a.75.75 0 0 0-.6.583L23.64 31.5h-2.284l-.324-1.539a.75.75 0 0 0-.6-.583 11.68 11.68 0 0 1-1.835-.492.745.745 0 0 0-.81.204l-1.105 1.229a13.735 13.735 0 0 1-1.937-1.132l.508-1.542a.75.75 0 0 0-.228-.809 11.556 11.556 0 0 1-1.346-1.34.75.75 0 0 0-.804-.226l-1.553.508a13.58 13.58 0 0 1-1.135-1.926l1.23-1.098a.75.75 0 0 0 .206-.814 11.357 11.357 0 0 1-.494-1.825.75.75 0 0 0-.585-.6L9 19.192v-2.267l1.546-.325a.75.75 0 0 0 .585-.6c.113-.62.278-1.23.493-1.823a.75.75 0 0 0-.205-.815l-1.23-1.098a13.63 13.63 0 0 1 1.134-1.926l1.554.509c.29.094.607.005.805-.227a11.7 11.7 0 0 1 1.346-1.34.75.75 0 0 0 .227-.809l-.508-1.541c.614-.43 1.262-.809 1.938-1.132l1.104 1.228a.743.743 0 0 0 .81.205c.596-.214 1.21-.379 1.834-.492a.75.75 0 0 0 .602-.59l.33-1.649h2.27l.33 1.648c.06.302.3.537.603.591a11.56 11.56 0 0 1 1.834.491.747.747 0 0 0 .81-.204l1.105-1.228c.675.324 1.323.702 1.937 1.131l-.509 1.543a.75.75 0 0 0 .229.808c.484.41.934.857 1.345 1.34.198.23.515.32.805.226l1.553-.508c.43.61.81 1.254 1.135 1.926l-1.23 1.098a.75.75 0 0 0-.206.815c.215.593.38 1.203.494 1.824a.75.75 0 0 0 .584.6l1.546.324v2.267z" fill="#5E2AD7"/><path d="M29.054 18c.364-.642.668-1.315.906-2.013.696-2.087.495-3.82-.567-4.882-1.06-1.06-2.792-1.261-4.881-.566a11.89 11.89 0 0 0-2.013.906 11.887 11.887 0 0 0-2.012-.906c-2.088-.695-3.822-.495-4.882.566-1.061 1.062-1.263 2.795-.567 4.882.239.698.542 1.371.906 2.013a11.879 11.879 0 0 0-.906 2.012c-.696 2.087-.494 3.82.567 4.882a3.572 3.572 0 0 0 2.615.974 7.239 7.239 0 0 0 2.267-.407 11.879 11.879 0 0 0 2.012-.906c.642.364 1.315.667 2.013.906a7.238 7.238 0 0 0 2.266.407 3.572 3.572 0 0 0 2.616-.974c1.06-1.061 1.262-2.795.566-4.881A11.887 11.887 0 0 0 29.054 18zm-12.389-5.834a2.15 2.15 0 0 1 1.565-.532 5.735 5.735 0 0 1 1.782.328c.348.119.69.258 1.022.416a18.25 18.25 0 0 0-4.156 4.157 9.64 9.64 0 0 1-.417-1.023c-.5-1.497-.425-2.717.204-3.346zm3.347 11.872c-1.498.5-2.717.425-3.346-.204-.63-.63-.704-1.85-.205-3.347.12-.348.258-.69.417-1.022a18.1 18.1 0 0 0 1.91 2.247 18.154 18.154 0 0 0 2.246 1.91 9.626 9.626 0 0 1-1.022.416zM17.69 18a16.725 16.725 0 0 1 4.81-4.809A16.725 16.725 0 0 1 27.307 18a16.725 16.725 0 0 1-4.809 4.808A16.723 16.723 0 0 1 17.691 18zm10.643 5.834c-.63.63-1.849.704-3.346.204a9.7 9.7 0 0 1-1.022-.416 18.25 18.25 0 0 0 4.156-4.157c.158.333.297.674.416 1.022.5 1.498.425 2.717-.204 3.347zm.204-8.322c-.119.349-.258.69-.416 1.023a18.25 18.25 0 0 0-4.157-4.157 9.67 9.67 0 0 1 1.023-.416 5.727 5.727 0 0 1 1.782-.328 2.151 2.151 0 0 1 1.564.532c.63.63.704 1.849.204 3.346z" fill="#5E2AD7"/><path d="M22.5 16.875a1.125 1.125 0 1 0 0 2.25 1.125 1.125 0 0 0 0-2.25zm0 1.5a.375.375 0 1 1 0-.75.375.375 0 0 1 0 .75zM3 1.5V0H1.5v1.5H0V3h1.5v1.5H3V3h1.5V1.5H3zm40.5 0V0H42v1.5h-1.5V3H42v1.5h1.5V3H45V1.5h-1.5zM5.25 42v-1.5h-1.5V42h-1.5v1.5h1.5V45h1.5v-1.5h1.5V42h-1.5zm38.25-1.5V39H42v1.5h-1.5V42H42v1.5h1.5V42H45v-1.5h-1.5z" fill="#5E2AD7"/></svg>