<svg width="45" height="45" fill="none" xmlns="http://www.w3.org/2000/svg"><g clip-path="url(#clip0)" fill="#5E2AD7"><path d="M33 12c0 .458-.03.916-.088 1.37l1.486.194c.068-.519.102-1.04.101-1.564v-.046L33 12zM12.963 4.716c-.318.416-.61.852-.87 1.306l1.3.749c.228-.397.482-.78.76-1.143l-1.19-.912zm19.683 10.001c-.119.442-.266.876-.442 1.3l1.386.575c.2-.484.37-.982.504-1.488l-1.448-.387zm-20.555-1.325l-1.486.198c.068.519.171 1.033.307 1.538l1.449-.39c-.12-.443-.21-.892-.27-1.346zM22.5 22.5c-.455 0-.91-.03-1.36-.087l-.192 1.488c.514.066 1.033.099 1.552.099h.012l-.012-1.5zM25.568.396l-.383 1.45c.443.117.878.263 1.301.437l.572-1.387a11.77 11.77 0 0 0-1.49-.5zm8.513 8.452l-1.447.394c.12.441.211.89.272 1.344l1.486-.2a12.175 12.175 0 0 0-.31-1.538zM22.5 0h-.034l.034 1.5c.448 0 .895.028 1.338.084l.19-1.488A12.21 12.21 0 0 0 22.5 0zm5.967 1.587l-.747 1.3c.398.229.78.483 1.144.76l.91-1.192a12.204 12.204 0 0 0-1.307-.868zM16.118 20.34l-.91 1.19c.415.318.85.609 1.304.871l.75-1.3c-.397-.229-.78-.484-1.144-.762zm13.809-.917c-.324.324-.668.627-1.031.906l.914 1.19c.415-.32.81-.665 1.179-1.037l-1.062-1.059zm-19.33-8.962A12.36 12.36 0 0 0 10.5 12v.023L12 12c0-.451.029-.902.086-1.35l-1.489-.189zm.804-3.029c-.2.484-.367.982-.502 1.489l1.45.383c.118-.443.264-.878.44-1.301L11.4 7.432zm1.402 8.605l-1.385.577c.202.483.435.952.698 1.404l1.296-.754a10.41 10.41 0 0 1-.61-1.227zm18.792 1.211c-.228.397-.483.778-.762 1.14l1.188.916c.32-.415.612-.852.874-1.306l-1.3-.75zm-3.84 3.844c-.396.23-.807.433-1.23.61l.579 1.384c.482-.202.95-.434 1.403-.696l-.752-1.298zm3.201-17.606l-1.058 1.063c.325.324.63.669.91 1.031l1.186-.92c-.32-.413-.668-.805-1.038-1.174zm-5.728 18.656c-.443.118-.893.208-1.347.268l.196 1.487c.52-.069 1.033-.17 1.54-.306l-.389-1.449zM17.874.924c-.482.202-.95.435-1.403.698l.755 1.296c.395-.23.806-.434 1.228-.611l-.58-1.383zm.619 20.785l-.574 1.385c.484.2.982.369 1.488.503l.387-1.448a10.331 10.331 0 0 1-1.3-.44zM15.17 2.498c-.415.32-.808.667-1.177 1.038l1.064 1.058a10.45 10.45 0 0 1 1.03-.908l-.918-1.188zM20.898.105c-.518.07-1.032.174-1.538.31l.392 1.448c.442-.12.892-.21 1.346-.27l-.2-1.488zm-6.721 18.298l-1.186.918c.32.414.665.806 1.035 1.176l1.06-1.062a10.749 10.749 0 0 1-.909-1.032zM32.872 5.96l-1.296.756c.23.396.435.806.613 1.228l1.383-.582c-.203-.482-.437-.95-.7-1.402zm-2.348 2.983a.75.75 0 0 0-.41-.204l-4.787-.732-2.147-4.575a.75.75 0 0 0-1.358 0l-2.148 4.575-4.787.732a.75.75 0 0 0-.423 1.265l3.486 3.572-.825 5.053a.75.75 0 0 0 1.103.777l4.273-2.36 4.273 2.36a.75.75 0 0 0 1.103-.777l-.825-5.053 3.486-3.572a.75.75 0 0 0-.014-1.06zm-4.81 3.856a.75.75 0 0 0-.204.645l.637 3.903-3.284-1.815a.748.748 0 0 0-.725 0l-3.284 1.815.637-3.903a.75.75 0 0 0-.203-.645l-2.73-2.798 3.739-.572a.75.75 0 0 0 .565-.422l1.639-3.492 1.638 3.492a.75.75 0 0 0 .566.422l3.74.572-2.731 2.798z"/><path d="M21.491 29.433l-8.997-7.799a2.927 2.927 0 0 0-3.004-.398 52.708 52.708 0 0 0-.407-1.398A36.708 36.708 0 0 1 7.5 9.218V8.25a3.75 3.75 0 0 0-7.5 0v21.386a6.375 6.375 0 0 0 3.356 5.62l6.394 3.442v5.552c0 .414.335.75.75.75H21a.75.75 0 0 0 .75-.75V30a.751.751 0 0 0-.259-.567zM20.25 43.5h-9v-5.25a.751.751 0 0 0-.394-.66l-6.789-3.656A4.874 4.874 0 0 1 1.5 29.636V8.25a2.25 2.25 0 1 1 4.5 0v.967c.005 3.746.56 7.47 1.648 11.055.364 1.204.508 1.773.565 2.036a2.938 2.938 0 0 0 .476 3.787l6.556 5.96 1.01-1.11-6.556-5.96a1.433 1.433 0 0 1 1.835-2.198l8.716 7.556V43.5zm21-39a3.754 3.754 0 0 0-3.75 3.75v.967a36.691 36.691 0 0 1-1.583 10.62 50.45 50.45 0 0 0-.406 1.399 2.95 2.95 0 0 0-3.027.417l-8.975 7.78a.751.751 0 0 0-.258.567v14.25c0 .414.335.75.749.75h10.5a.75.75 0 0 0 .75-.75v-5.552l6.394-3.443a6.374 6.374 0 0 0 3.357-5.62V8.25a3.754 3.754 0 0 0-3.75-3.75zm2.25 25.136a4.874 4.874 0 0 1-2.567 4.298l-6.788 3.655a.751.751 0 0 0-.394.661v5.25h-9V30.342l8.692-7.536a1.433 1.433 0 0 1 1.86 2.178l-6.557 5.96 1.01 1.111 6.555-5.96a2.938 2.938 0 0 0 .477-3.787c.057-.263.2-.833.565-2.037A38.204 38.204 0 0 0 39 9.217V8.25a2.25 2.25 0 0 1 4.5 0v21.386z"/></g><defs><clipPath id="clip0"><path fill="#fff" d="M0 0h45v45H0z"/></clipPath></defs></svg>