<svg width="512" height="325" fill="none" xmlns="http://www.w3.org/2000/svg"><g clip-path="url(#clip0)"><path d="M488.876 166.466c-29.764 54.884-61.441 112.639-137.233 112.639-75.791 0-198.828-98.621-137.232-112.639C276.49 152.339 324.03 92.102 351.643 53.827c84.021-116.463 213.415-27.84 137.233 112.639z" fill="#774CDA"/><path d="M130.968 89.376c12.803 0 23.181-10.212 23.181-22.81 0-12.598-10.378-22.81-23.181-22.81-12.802 0-23.181 10.212-23.181 22.81 0 12.598 10.379 22.81 23.181 22.81zm80.526 12.006c19.541 0 35.382-15.587 35.382-34.815 0-19.228-15.841-34.815-35.382-34.815-19.541 0-35.382 15.587-35.382 34.815 0 19.228 15.841 34.815 35.382 34.815z" fill="#F2F2F2"/><path d="M308.325 295.377v-.8c1.617 0 3.259-.033 4.88-.097l.032.8c-1.632.064-3.284.097-4.912.097zm-4.911-.092a127.968 127.968 0 0 1-4.903-.285l.064-.798c1.617.126 3.256.221 4.871.283l-.032.8zm14.726-.295l-.064-.798a123.2 123.2 0 0 0 4.854-.48l.098.795c-1.618.192-3.262.354-4.888.483zm-24.518-.467a126.95 126.95 0 0 1-4.865-.67l.129-.79c1.596.252 3.222.476 4.833.665l-.097.795zm34.27-.692l-.13-.79c1.595-.253 3.21-.544 4.8-.862l.162.784c-1.6.321-3.226.613-4.832.868zm-43.968-.841a123.456 123.456 0 0 1-4.794-1.055l.193-.777c1.57.378 3.172.731 4.762 1.047l-.161.785zm53.594-1.087l-.195-.777a122.65 122.65 0 0 0 4.714-1.242l.226.769c-1.564.446-3.16.866-4.745 1.25zm-63.135-1.213a124.602 124.602 0 0 1-4.692-1.433l.257-.76c1.535.503 3.102.982 4.66 1.424l-.225.769zm72.57-1.476l-.258-.759a123.248 123.248 0 0 0 4.596-1.614l.289.748c-1.525.57-3.082 1.117-4.627 1.625zm-81.903-1.582a123.813 123.813 0 0 1-4.569-1.808l.319-.736c1.496.626 3.022 1.231 4.538 1.795l-.288.749zm91.073-1.846l-.319-.736c1.487-.625 2.98-1.287 4.437-1.969l.35.723a124.713 124.713 0 0 1-4.468 1.982zm-100.131-1.95a122.956 122.956 0 0 1-4.402-2.166l.378-.708c1.434.741 2.905 1.465 4.373 2.151l-.349.723zm108.983-2.191l-.379-.708a125.054 125.054 0 0 0 4.265-2.317l.407.692a124.042 124.042 0 0 1-4.293 2.333zm-117.694-2.313a121.468 121.468 0 0 1-4.207-2.507l.435-.676c1.365.852 2.772 1.689 4.18 2.491l-.408.692zm126.183-2.521l-.435-.676c1.363-.85 2.73-1.74 4.064-2.647l.462.658c-1.342.913-2.718 1.81-4.091 2.665zm-134.491-2.656a120.348 120.348 0 0 1-3.988-2.83l.489-.639c1.293.957 2.625 1.902 3.961 2.811l-.462.658zm142.563-2.835l-.49-.639c1.29-.954 2.581-1.951 3.838-2.961l.515.62a121.54 121.54 0 0 1-3.863 2.98zm-150.419-2.98a121.668 121.668 0 0 1-3.743-3.134l.54-.598a121.707 121.707 0 0 0 3.718 3.113l-.515.619zm158.021-3.132l-.539-.598a122.907 122.907 0 0 0 3.586-3.256l.563.578a121.923 121.923 0 0 1-3.61 3.276zm-165.375-3.28a124.33 124.33 0 0 1-3.475-3.417l.587-.555a122.678 122.678 0 0 0 3.451 3.395l-.563.577zm172.46-3.414l-.586-.555a120.105 120.105 0 0 0 3.311-3.528l.609.532a123.018 123.018 0 0 1-3.334 3.551zm-179.267-3.553a120.914 120.914 0 0 1-3.184-3.678l.63-.507a119.334 119.334 0 0 0 3.163 3.654l-.609.531zm185.788-3.679l-.63-.507a120.194 120.194 0 0 0 3.015-3.779l.65.481c-.98 1.28-2.001 2.56-3.035 3.805zm-192.004-3.799c-.98-1.28-1.947-2.597-2.873-3.915l.668-.455a121.186 121.186 0 0 0 2.855 3.889l-.65.481zm197.917-3.928l-.669-.455a120.968 120.968 0 0 0 2.698-4.007l.687.428a121.543 121.543 0 0 1-2.716 4.034zm-203.502-4.011a122.795 122.795 0 0 1-2.544-4.127l.704-.401a119.547 119.547 0 0 0 2.527 4.099l-.687.429zm208.768-4.162l-.703-.401a120.33 120.33 0 0 0 2.362-4.21l.72.373a121.253 121.253 0 0 1-2.379 4.238zm-213.684-4.19a117.133 117.133 0 0 1-2.196-4.312l.734-.344a118.83 118.83 0 0 0 2.182 4.284l-.72.372zm218.266-4.378l-.735-.344a118.856 118.856 0 0 0 2.009-4.387l.749.315a120.447 120.447 0 0 1-2.023 4.416zm-222.48-4.328a118.519 118.519 0 0 1-1.834-4.47l.76-.285a117.92 117.92 0 0 0 1.822 4.44l-.748.315zm226.343-4.583l-.761-.284c.577-1.497 1.13-3.023 1.643-4.535l.771.253a118.704 118.704 0 0 1-1.653 4.566zm-229.831-4.439a117.09 117.09 0 0 1-1.465-4.615l.781-.222c.451 1.529.941 3.071 1.455 4.583l-.771.254zm232.944-4.743l-.782-.222c.449-1.528.873-3.088 1.26-4.639l.79.19c-.39 1.562-.816 3.134-1.268 4.671zm-235.682-4.54a119.943 119.943 0 0 1-1.081-4.716l.798-.16c.323 1.56.684 3.136 1.072 4.684l-.789.192zm238.024-4.847l-.797-.159c.322-1.559.616-3.148.874-4.724l.803.128a118.07 118.07 0 0 1-.88 4.755zm-239.99-4.624c-.26-1.58-.492-3.19-.689-4.785l.808-.096c.195 1.585.425 3.184.685 4.753l-.804.128zm241.554-4.919l-.808-.095c.193-1.585.356-3.192.484-4.778l.811.064a120.251 120.251 0 0 1-.487 4.809zm-242.736-4.675a119.626 119.626 0 0 1-.297-4.825l.812-.033c.066 1.593.165 3.206.296 4.794l-.811.064zm243.516-4.959l-.813-.031c.064-1.595.096-3.21.096-4.801v-.265h.813l.001.263c0 1.603-.033 3.229-.097 4.834zm-243.103-4.699h-.813v-.135c0-1.561.031-3.142.092-4.697l.812.031c-.06 1.545-.09 3.115-.09 4.668l-.001.133zm242.279-5.198a118.585 118.585 0 0 0-.301-4.792l.811-.066c.133 1.602.235 3.225.302 4.825l-.812.033zm-241.903-4.397l-.811-.062c.128-1.603.291-3.221.483-4.811l.808.095a120.145 120.145 0 0 0-.48 4.778zm241.107-5.172a116.707 116.707 0 0 0-.69-4.753l.803-.129c.263 1.586.497 3.196.694 4.785l-.807.097zm-239.954-4.361l-.803-.127c.258-1.585.552-3.185.875-4.756l.797.158c-.32 1.561-.612 3.15-.869 4.725zm238.379-5.114a118.606 118.606 0 0 0-1.078-4.683l.79-.192c.391 1.553.756 3.14 1.085 4.714l-.797.161zm-236.448-4.297l-.79-.19c.386-1.558.811-3.13 1.263-4.672l.781.221c-.448 1.532-.87 3.093-1.254 4.641zm234.1-5.022c-.452-1.528-.943-3.07-1.46-4.581l.772-.255a117.547 117.547 0 0 1 1.469 4.612l-.781.224zm-231.401-4.205l-.772-.253c.514-1.524 1.069-3.06 1.648-4.567l.761.283a117.56 117.56 0 0 0-1.637 4.537zm228.293-4.896a117.644 117.644 0 0 0-1.827-4.438l.747-.315a118.218 118.218 0 0 1 1.84 4.467l-.76.286zm-224.834-4.108l-.748-.313a117.902 117.902 0 0 1 2.018-4.418l.735.342c-.695 1.444-1.37 2.92-2.005 4.389zm220.998-4.693a118.788 118.788 0 0 0-2.186-4.281l.719-.374c.76 1.416 1.5 2.866 2.201 4.31l-.734.345zm-216.809-4l-.721-.371a119.07 119.07 0 0 1 2.374-4.241l.704.4c-.811 1.383-1.604 2.8-2.357 4.212zm212.261-4.474a119.798 119.798 0 0 0-2.531-4.097l.686-.429c.873 1.35 1.73 2.737 2.549 4.124l-.704.402zm-207.376-3.852l-.687-.428a121.494 121.494 0 0 1 2.712-4.037l.669.455a118.857 118.857 0 0 0-2.694 4.01zm202.147-4.24a122 122 0 0 0-2.859-3.886l.649-.482a122.087 122.087 0 0 1 2.878 3.912l-.668.456zm-196.598-3.669l-.65-.481c.98-1.284 1.999-2.565 3.03-3.808l.631.506a120.537 120.537 0 0 0-3.011 3.783zm190.724-3.988a120.236 120.236 0 0 0-3.168-3.65l.608-.532a121.36 121.36 0 0 1 3.189 3.675l-.629.507zm-184.551-3.455l-.609-.53c1.08-1.201 2.2-2.397 3.329-3.556l.587.554a120.436 120.436 0 0 0-3.307 3.532zm178.069-3.719a122.412 122.412 0 0 0-3.455-3.39l.563-.578a123.496 123.496 0 0 1 3.478 3.413l-.586.555zm-171.314-3.211l-.564-.577a123.907 123.907 0 0 1 3.606-3.28l.54.598a122.7 122.7 0 0 0-3.582 3.259zm164.268-3.432a121.332 121.332 0 0 0-3.721-3.11l.514-.62a123.46 123.46 0 0 1 3.746 3.13l-.539.6zm-156.974-2.942l-.516-.619a122.342 122.342 0 0 1 3.86-2.985l.49.64a120.598 120.598 0 0 0-3.834 2.964zm149.406-3.128a121.384 121.384 0 0 0-3.964-2.807l.462-.659c1.341.91 2.684 1.861 3.991 2.826l-.489.64zm-141.621-2.648l-.463-.658c1.34-.914 2.716-1.813 4.088-2.67l.436.676a121.89 121.89 0 0 0-4.061 2.652zm133.58-2.807a121.693 121.693 0 0 0-4.182-2.485l.406-.694c1.413.802 2.83 1.644 4.211 2.502l-.435.677zm-125.354-2.334l-.408-.692c1.406-.803 2.85-1.589 4.291-2.337l.379.708a122.447 122.447 0 0 0-4.262 2.321zm116.89-2.47a123.271 123.271 0 0 0-4.375-2.145l.348-.724a123.73 123.73 0 0 1 4.404 2.16l-.377.71zm-108.276-2l-.35-.723a124.321 124.321 0 0 1 4.465-1.987l.321.736c-1.487.626-2.979 1.29-4.436 1.974zm99.44-2.115a122.212 122.212 0 0 0-4.541-1.791l.288-.75c1.528.569 3.066 1.175 4.57 1.804l-.317.737zm-90.493-1.655l-.29-.748c1.522-.571 3.078-1.12 4.625-1.63l.259.759a121.873 121.873 0 0 0-4.594 1.619zm81.34-1.745a121.895 121.895 0 0 0-4.662-1.419l.225-.769c1.567.443 3.146.923 4.693 1.428l-.256.76zm-72.089-1.309l-.227-.768c1.564-.448 3.16-.87 4.744-1.256l.195.777c-1.573.383-3.159.803-4.712 1.247zm62.711-1.341a122.44 122.44 0 0 0-4.763-1.042l.16-.785c1.601.317 3.214.67 4.795 1.05l-.192.777zm-53.24-.963l-.163-.784c1.595-.322 3.22-.616 4.832-.874l.131.79c-1.601.257-3.216.549-4.8.867zm43.675-.931c-1.6-.251-3.226-.474-4.834-.66l.096-.796c1.618.189 3.255.413 4.865.665l-.127.79zm-34.045-.614l-.098-.794c1.618-.194 3.262-.358 4.887-.488l.066.797c-1.614.13-3.248.293-4.855.485zm24.355-.516a124.666 124.666 0 0 0-4.871-.277l.031-.8c1.63.06 3.28.155 4.903.28l-.063.797zm-14.629-.262l-.034-.8c1.627-.066 3.279-.1 4.912-.103l.001.8c-1.622.003-3.263.038-4.879.103zM188.718 220.234H72.812v.801h115.906v-.801zm310.303 0h-68.73v.801h68.73v-.801zm-300.135 15.608h-95.165v.8h95.165v-.8zm272.479 0h-49.209v.8h49.209v-.8zM440.05 278.66h-66.29v.8h66.29v-.8zm-180.162 10.005H72.812v.801h187.076v-.801zm-159.829-222.5H45.157v.8h54.902v-.8z" fill="#3F3D56"/><path d="M99.746 66.59a31.561 31.561 0 0 1-.093-2.425c0-8.385 3.385-16.426 9.41-22.354 6.025-5.93 14.197-9.26 22.718-9.26s16.693 3.33 22.718 9.26c6.025 5.928 9.41 13.97 9.41 22.354h-.813c0-8.172-3.299-16.01-9.172-21.788-5.873-5.78-13.838-9.026-22.143-9.026-8.305 0-16.27 3.247-22.143 9.026-5.873 5.778-9.172 13.616-9.172 21.788 0 .788.031 1.583.091 2.364l-.811.06z" fill="#3F3D56"/><path d="M257.449 66.567h-.814c0-12.1-4.884-23.703-13.579-32.259-8.694-8.555-20.487-13.361-32.783-13.361-12.296 0-24.088 4.806-32.783 13.361-8.695 8.556-13.579 20.16-13.579 32.259h-.814c0-12.312 4.971-24.12 13.818-32.825 8.847-8.705 20.846-13.596 33.358-13.596 12.512 0 24.511 4.89 33.358 13.596 8.848 8.706 13.818 20.513 13.818 32.825zM131.782 231.839c6.289 0 11.387-5.016 11.387-11.205 0-6.188-5.098-11.205-11.387-11.205-6.289 0-11.387 5.017-11.387 11.205 0 6.189 5.098 11.205 11.387 11.205z" fill="#3F3D56"/><path d="M163.097 77.772c6.289 0 11.388-5.017 11.388-11.205s-5.099-11.205-11.388-11.205-11.387 5.017-11.387 11.205 5.098 11.205 11.387 11.205z" fill="#3F3D56"/><path d="M198.071 297.068c4.268 0 7.727-3.404 7.727-7.603 0-4.2-3.459-7.604-7.727-7.604-4.267 0-7.727 3.404-7.727 7.604 0 4.199 3.46 7.603 7.727 7.603z" fill="#774CDA"/><path d="M447.778 243.444c4.268 0 7.727-3.404 7.727-7.603s-3.459-7.604-7.727-7.604c-4.267 0-7.727 3.405-7.727 7.604s3.46 7.603 7.727 7.603z" fill="#723FE9"/><path d="M265.175 250.247c43.349 0 78.49-34.578 78.49-77.234 0-42.655-35.141-77.234-78.49-77.234s-78.491 34.579-78.491 77.234c0 42.656 35.142 77.234 78.491 77.234z" fill="#3F3D56"/><path d="M237.317 229.439c23.022 0 41.685-25.262 41.685-56.425 0-31.162-18.663-56.425-41.685-56.425-23.022 0-41.686 25.263-41.686 56.425 0 31.163 18.664 56.425 41.686 56.425z" fill="#fff"/><path d="M235.648 191.022c6.425 0 11.634-8.063 11.634-18.008 0-9.946-5.209-18.008-11.634-18.008-6.425 0-11.634 8.062-11.634 18.008 0 9.945 5.209 18.008 11.634 18.008zm246.1-114.411h-.813v143.123h.813V76.611z" fill="#3F3D56"/><path d="M481.499 207.47c8.76 0 15.861-15.946 15.861-35.616s-7.101-35.616-15.861-35.616c-8.76 0-15.861 15.946-15.861 35.616s7.101 35.616 15.861 35.616zm0-81.236c8.76 0 15.861-15.946 15.861-35.616s-7.101-35.615-15.861-35.615c-8.76 0-15.861 15.945-15.861 35.615s7.101 35.616 15.861 35.616z" fill="#3F3D56"/><path d="M481.888 61.52l-.779-.23c.049-.162 4.831-16.286-3.021-26.666-4.434-5.863-12.044-8.835-22.617-8.835v-.8c10.846 0 18.676 3.081 23.272 9.16 8.095 10.705 3.196 27.205 3.145 27.37z" fill="#3F3D56"/><path d="M455.471 35.393c5.615 0 10.167-4.48 10.167-10.005s-4.552-10.004-10.167-10.004-10.167 4.48-10.167 10.004c0 5.526 4.552 10.005 10.167 10.005z" fill="#F2F2F2"/><path d="M141.655 170.959a4.933 4.933 0 0 1-2.711-.81 4.815 4.815 0 0 1-1.798-2.155 4.726 4.726 0 0 1-.277-2.774 4.776 4.776 0 0 1 1.335-2.459 4.944 4.944 0 0 1 5.319-1.041 4.862 4.862 0 0 1 2.19 1.769c.536.789.822 1.718.822 2.667a4.765 4.765 0 0 1-1.431 3.394 4.926 4.926 0 0 1-3.449 1.409zm0-8.804c-.804 0-1.591.234-2.259.674a4.02 4.02 0 0 0-1.498 1.796 3.94 3.94 0 0 0-.232 2.312 3.99 3.99 0 0 0 1.113 2.049c.569.56 1.294.941 2.083 1.095a4.128 4.128 0 0 0 2.349-.227 4.053 4.053 0 0 0 1.826-1.474 3.964 3.964 0 0 0 .685-2.224 3.97 3.97 0 0 0-1.193-2.828 4.104 4.104 0 0 0-2.874-1.173zm342.318 104.499h-10.574V256.25h10.574v10.404zm-9.76-.8h8.947v-8.804h-8.947v8.804zm-333.077-137.26h-10.574V118.19h10.574v10.404zm-9.761-.8h8.947v-8.804h-8.947v8.804z" fill="#3F3D56"/><path d="M139.294 252.2c.013 26.909-16.24 36.311-36.293 36.321-.465 0-.929-.005-1.39-.015-.93-.019-1.85-.06-2.76-.123-18.099-1.253-32.166-11.123-32.178-36.148-.013-25.899 33.609-58.598 36.131-61.016l.004-.002.145-.138s36.328 34.214 36.341 61.121z" fill="#774CDA"/><path d="M101.676 284.406l13.271-18.265-13.303 20.269-.035 2.096c-.929-.019-1.85-.06-2.76-.123l1.418-26.921-.011-.208.025-.04.134-2.544-13.357-20.306 13.396 18.401.034.539 1.071-20.34-11.436-20.985 11.575 17.411 1.104-42.171.005-.14v.138l-.171 33.256 11.366-13.189-11.414 16.053-.292 18.212 10.616-17.483-10.657 20.161-.162 10.127 15.406-24.336-15.464 27.868-.359 22.52z" fill="#3F3D56"/><path d="M25.85 275.971l-.434 14.088h6.942l6.074-5.55-3.47-11.1-9.112 2.562zm25.165 11.952v24.762L64.9 310.55l-.868-22.627H51.015z" fill="#A0616A"/><path d="M17.174 180.34l3.47 50.377s-1.735 5.977-.433 7.684c1.301 1.708 1.301 1.708.433 3.416-.867 1.707-2.603 2.134-1.301 3.415a9.486 9.486 0 0 1 1.735 2.135l4.339 32.873s-2.603 6.83 12.148-3.416l.868-27.75s-1.736-5.55 0-6.403c1.736-.854 2.603-.854 2.17-2.562-.434-1.708 0-1.708 0-2.988 0-1.281.867-1.708.867-2.989s-.868-4.269-.868-4.269l6.075-27.75 4.772 31.165s-2.17 6.831 0 9.393l-1.735 48.669s12.148 5.976 17.354 0l3.471-38.85s1.302-7.258.868-9.819c-.434-2.562-1.736-2.135-.868-3.843.868-1.707.868-6.831.868-6.831l3.47-29.884-.433-43.546H19.343l-2.17 21.773z" fill="#2F2E41"/><path d="M32.359 285.79l-7.81-2.562s-8.243 15.37-9.11 15.797c-.869.427-7.377 12.38 1.735 11.953 9.11-.426 16.487-11.953 16.487-11.953s9.545-10.673 8.243-14.089c-1.302-3.415-5.133-5.742-5.133-5.742s-1.375 9.158-4.412 6.596zm20.391 22.626s-1.734-5.123-2.602-4.269c-.868.853-6.074 14.942-2.17 15.369 3.905.427 17.355 2.988 19.09 4.696 1.736 1.708 19.09.854 17.79-4.696-1.302-5.55-11.715-8.539-11.715-8.539l-8.58-9.195s-9.643 1.084-8.775 3.645c0 0 0 3.416-3.037 2.989z" fill="#2F2E41"/><path d="M56.004 79.799c7.667 0 13.883-6.117 13.883-13.662 0-7.545-6.216-13.661-13.883-13.661-7.668 0-13.884 6.116-13.884 13.661S48.336 79.8 56.004 79.8z" fill="#A0616A"/><path d="M46.241 72.755s-.434 13.662-4.339 17.077c-3.904 3.416 10.413 14.516 22.561 7.685 0 0-5.64-11.954 0-21.773l-18.222-2.989z" fill="#A0616A"/><path d="M65.332 93.248h-2.346s-14.38 4.766-19.684-5.302l-7.907.179-13.45 76.419s18.657-2.135 23.863 0c5.206 2.134 29.937-3.843 29.937-3.843L65.332 93.248z" fill="#D0CDE1"/><path d="M39.516 145.546a1.29 1.29 0 0 0 1.302-1.281 1.29 1.29 0 0 0-1.302-1.28 1.29 1.29 0 0 0-1.301 1.28c0 .708.583 1.281 1.301 1.281zm-3.903 16.222c.718 0 1.301-.573 1.301-1.281a1.29 1.29 0 0 0-1.301-1.28 1.29 1.29 0 0 0-1.302 1.28c0 .708.583 1.281 1.302 1.281z" stroke="#3F3D56" stroke-miterlimit="10"/><path d="M46.305 53.177l-2.301-.906s4.81-5.212 11.504-4.759l-1.882-2.04s4.602-1.812 8.785 2.946c2.2 2.502 4.744 5.442 6.33 8.755h2.464L70.177 59.4l3.6 2.228-3.695-.4a12.14 12.14 0 0 1-.35 5.77l.1 1.762s-4.283-6.52-4.283-7.426V63.6s-2.301-2.04-2.301-3.4l-1.255 1.587-.628-2.493-7.74 2.493 1.256-2.04-4.811.68 1.882-2.492s-5.438 2.946-5.647 5.438c-.21 2.493-2.929 5.665-2.929 5.665l-1.255-2.266s-1.882-10.197 4.184-13.596z" fill="#2F2E41"/><path d="M45.145 82.212l-8.014 4.204-16.053 1.708s4.339 52.511-3.037 59.342c0 0-25.164 28.604-16.053 33.3 9.111 4.696 25.598 14.088 30.804 6.831C38 180.339 49.688 93.377 45.145 82.212zm16.924 5.912s19.75 9.82 20.183 10.673c.434.854-6.508 37.996-6.508 37.996s2.603 55.073-.868 55.927c-3.47.854-7.81-43.119-7.81-43.119S61.41 91.113 62.07 88.124z" fill="#3F3D56"/><path d="M3.724 177.778s-3.905 23.908 6.942 22.627c10.847-1.281 1.736-23.481 1.736-23.481l-8.678.854zm77.662-18.358s-9.054-4.828-12.337 1.215c-3.282 6.043 13.639 15.862 17.11 5.189 0 0-1.302-7.258-4.773-6.404z" fill="#A0616A"/><path d="M78.782 98.37h3.47s1.302.427 2.17 5.551c.868 5.123 4.773 35.007 4.773 35.007s3.47 3.416 2.603 5.123c-.868 1.708-1.736.854-1.302 2.562.257.977.402 1.979.434 2.988l-6.942 23.054s3.905-11.527-5.206-13.662c0 0-1.736-2.134-.868-2.988.868-.854.434-1.281.434-1.708 0-.427-.434-.427 0-2.134.27-1.12.415-2.265.434-3.416 0 0-1.736-.853-1.302-1.707.434-.854 0-8.112 0-8.112l-6.074-10.673 7.376-29.884zm-55.536-8.965l-2.169-1.28s-7.81 4.269-9.979 20.919c-2.17 16.649-7.376 33.299-7.376 33.299L1.24 180.265l12.027-1.206 6.508-41.412 7.376-20.919-3.905-27.323z" fill="#3F3D56"/></g><defs><clipPath id="clip0"><path fill="#fff" d="M0 0h512v325H0z"/></clipPath></defs></svg>