<svg width="568" height="399" fill="none" xmlns="http://www.w3.org/2000/svg"><g clip-path="url(#clip0)"><path d="M479.076 399c-49.111 0-88.923-3.083-88.923-6.886s39.812-6.885 88.923-6.885c49.111 0 88.924 3.082 88.924 6.885S528.187 399 479.076 399z" fill="#774CDA"/><path opacity=".1" d="M496.713 16.257l.076-.422 7.213-3.821h1.132l.433-.83h14.865l3.447.83h12.695l3.44 4.014.035.246c.223 1.436 5.197 35.198-7.928 45.94l-5.472 2.543h-3.539l.691-1.381-3.076 1.381h-9.961l-.177-.265-5.911-2.214-.152-.176c-.533-.633-13.096-15.899-7.811-45.845z" fill="#FF5029"/><path d="M514.572 49.813h5.859V65.05h-5.859V49.813z" fill="#E6E6E6"/><path d="M512.522 84.682h10.546V377.7h-10.546V84.682z" fill="#3F3D56"/><path d="M509.885 79.7h15.82v9.963h-15.82v-9.962z" fill="#3F3D56"/><path d="M531.564 61.534l-9.96 10.549 4.101 7.618-8.203 1.758-7.617-1.758 4.687-8.204-9.375-9.963h26.367zm7.618-45.125l4.687-4.688-3.515-3.517h-44.531l-3.516 4.103 5.274 4.102s28.124-1.172 41.601 0z" fill="#3F3D56"/><path d="M496.713 16.257l.076-.422 7.213-3.821 3.293-1.747 18.486-1.19 10.366 2.438.427.499 3.44 4.014.035.246c.223 1.436 5.197 35.197-7.928 45.94l-5.472 2.543-4.606 2.139 1.067-2.14 1.752-3.498c1.833-10.677 5.865-38.73 3.292-44.591l-10.628-3.429-9.434 3.505c-.65 4.214-4.857 33.756 2.514 44.287l.158.228v3.3l-6.088-2.28-.152-.176c-.533-.633-13.096-15.899-7.811-45.845zm9.024 44.538l3.269 1.23v-.222c-8.086-12.066-2.801-44.468-2.572-45.851l.082-.504 9.246-3.434 1.717-.64 1.98.64 9.914 3.2.17.298c3.768 6.757-2.695 44.562-2.971 46.168l-.023.13-.697 1.394 5.244-2.42c11.689-9.734 7.682-40.906 7.254-43.994l-3.164-3.692-4.606-1.084-4.951-1.166-8.15.527-9.692.627-.023.012-9.393 4.97c-4.652 27.162 6.024 42.077 7.366 43.811z" fill="#3F3D56"/><path d="M517.502 16.409c-8.737 0-15.82-3.673-15.82-8.205 0-4.53 7.083-8.204 15.82-8.204s15.82 3.673 15.82 8.204c0 4.532-7.083 8.205-15.82 8.205zm8.203 346.347l9.375 29.888s-14.649 8.204-34.57 0l9.375-29.888h15.82z" fill="#3F3D56"/><path d="M517.502 51.571a4.688 4.688 0 1 1 .002-9.376 4.688 4.688 0 0 1-.002 9.376z" fill="#42C07C"/><path d="M344.579 219.896c-2.476 9.154-10.957 14.823-10.957 14.823s-4.466-9.172-1.99-18.327c2.476-9.154 10.956-14.823 10.956-14.823s4.467 9.172 1.991 18.327z" fill="#FF5029"/><path d="M340.941 217.929c-6.795 6.615-7.624 16.783-7.624 16.783s10.185-.556 16.979-7.171c6.794-6.615 7.624-16.783 7.624-16.783s-10.185.556-16.979 7.171z" fill="#E6E6E6"/><path d="M5.533 218.082L242.5 285.287 26.298 163.445a217.103 217.103 0 0 1 36.75-49.206l209.764 115.465L97.202 86.285a215.04 215.04 0 0 1 83.392-32.788l97.27 162.427-64.423-165.343c.959-.012 1.918-.027 2.88-.027 119.471 0 216.321 96.867 216.321 216.358a215.374 215.374 0 0 1-31.254 112.084H31.254a217.074 217.074 0 0 1-25.72-160.914z" fill="#F2F2F2"/><path d="M24.13 358.793c0-18.457 9.365-33.42 20.916-33.42 7.26 0 13.654 5.913 17.404 14.888a10.485 10.485 0 0 1 3.997-.802c3.497 0 6.73 1.792 9.366 4.824 3.38-11.19 10.549-18.91 18.846-18.91 7.757 0 14.523 6.754 18.134 16.778a11.423 11.423 0 0 1 7.158-2.692c8.865 0 16.052 11.483 16.052 25.647a37.417 37.417 0 0 1-2.529 13.811H28.349c-2.647-5.598-4.218-12.567-4.218-20.124z" fill="#774CDA"/><path d="M235.611 134.158v0a80.855 80.855 0 0 0-23.676-57.167 80.825 80.825 0 0 0-57.157-23.68" stroke="#3F3D56" stroke-width="2" stroke-miterlimit="10"/><path d="M206.2 144.74c6.474 23.938 28.652 38.764 28.652 38.764s11.68-23.986 5.205-47.925c-6.475-23.939-28.652-38.764-28.652-38.764s-11.68 23.986-5.205 47.925z" fill="#774CDA"/><path d="M265.102 144.74c-6.475 23.938-28.652 38.764-28.652 38.764s-11.68-23.986-5.205-47.925c6.475-23.939 28.652-38.764 28.652-38.764s11.68 23.986 5.205 47.925z" fill="#774CDA"/><path d="M255.588 139.595c-17.767 17.298-19.937 43.889-19.937 43.889s26.635-1.454 44.402-18.752c17.767-17.299 19.937-43.89 19.937-43.89s-26.636 1.455-44.402 18.753zm-39.874 0c17.766 17.298 19.936 43.889 19.936 43.889s-26.635-1.454-44.402-18.752c-17.767-17.299-19.937-43.89-19.937-43.89s26.636 1.455 44.403 18.753z" fill="#3F3D56"/><path d="M167.87 70.604c-2.869-10.61-12.698-17.18-12.698-17.18s-5.177 10.63-2.307 21.24c2.869 10.61 12.699 17.18 12.699 17.18s5.176-10.63 2.306-21.24z" fill="#774CDA"/><path d="M141.765 70.604c2.869-10.61 12.699-17.18 12.699-17.18s5.176 10.63 2.306 21.24c-2.869 10.61-12.698 17.18-12.698 17.18s-5.177-10.63-2.307-21.24z" fill="#774CDA"/><path d="M145.981 72.883c7.875-7.666 8.836-19.452 8.836-19.452s-11.805.645-19.679 8.312c-7.874 7.666-8.836 19.452-8.836 19.452s11.805-.645 19.679-8.312z" fill="#3F3D56"/><path d="M163.653 72.883c-7.874-7.666-8.836-19.452-8.836-19.452s11.805.645 19.679 8.312c7.874 7.666 8.836 19.452 8.836 19.452s-11.805-.645-19.679-8.312zm-95.22 216.079h9.645v-53.437a5.529 5.529 0 0 1 5.511-5.512h16.534V182.98a5.533 5.533 0 0 1 5.512-5.513h257.197a5.53 5.53 0 0 1 5.511 5.513v47.033h16.534a5.524 5.524 0 0 1 5.511 5.512v53.437h9.645a5.53 5.53 0 0 1 5.512 5.512v79.01a5.526 5.526 0 0 1-5.512 5.512h-331.6a5.525 5.525 0 0 1-5.511-5.512v-79.01a5.53 5.53 0 0 1 5.511-5.512z" fill="#3F3D56"/><path d="M116.626 272.257c5.064 8.017 3.501 18.099 3.501 18.099s-9.775-2.916-14.84-10.933c-5.064-8.017-3.501-18.099-3.501-18.099s9.775 2.916 14.84 10.933z" fill="#774CDA"/><path d="M112.715 273.606c.274 9.48 7.199 16.971 7.199 16.971s6.482-7.878 6.208-17.358c-.273-9.479-7.198-16.97-7.198-16.97s-6.482 7.878-6.209 17.357z" fill="#E6E6E6"/><path d="M78.078 288.962h312.31v5.512H78.078v-5.512zm22.045-58.798h268.22v5.512h-268.22v-5.512z" fill="#E6E6E6"/><path d="M154.777 101.543a5.512 5.512 0 1 1 .001-11.023 5.512 5.512 0 0 1-.001 11.023zm176.622 122.634l-145.143-41.23-21.631 76.171 10.486 2.979-7.994 28.15 36.14-20.155 106.511 30.257 21.631-76.172z" fill="#774CDA"/><path d="M243.382 257.951l3.217-1.583c11.467-5.768 19.01-9.483 20.927-16.235a9.977 9.977 0 0 0-.82-7.733 9.973 9.973 0 0 0-6.117-4.8 10.847 10.847 0 0 0-4.666-.255 10.88 10.88 0 0 0-4.341 1.729 10.869 10.869 0 0 0-6.887-5.989 9.976 9.976 0 0 0-7.727.867 9.99 9.99 0 0 0-4.762 6.148c-1.917 6.752 2.548 13.878 9.271 24.813l1.905 3.038z" fill="#fff"/><path d="M500.977 182.552s3.724 11.173 1.655 13.656c-2.069 2.483 12.413-7.449 12.413-7.449l-7.862-9.104-6.206 2.897z" fill="#A0616A"/><path d="M509.469 182.534c-10.26 0-18.577-8.319-18.577-18.581 0-10.261 8.317-18.58 18.577-18.58 10.26 0 18.577 8.319 18.577 18.58 0 10.262-8.317 18.581-18.577 18.581z" fill="#2F2E41"/><path d="M437.257 308.357l9.516 7.449 5.379-8.69-9.516-6.621-5.379 7.862z" fill="#A0616A"/><path d="M450.704 364.431l-2.483 12.002-7.034 9.518s-19.033 5.793-6.206 8.69c12.827 2.897 15.723-2.069 15.723-2.069l9.103-7.863v10.76h5.793l1.241-15.312s.827-4.552-2.897-9.518l-.827-7.449-12.413 1.241z" fill="#2F2E41"/><path d="M498.701 215.865l-3.31 19.037s-35.17-3.725-37.652 3.31c-2.483 7.036-3.311 9.105-3.311 9.105l7.034 2.483 3.31-6.208a7.864 7.864 0 0 1 6.207.414c3.31 1.655 32.274 5.794 34.342.414 2.069-5.38 7.862-25.244 7.862-25.244l-8.689-7.035-5.793 3.724z" fill="#A0616A"/><path opacity=".1" d="M498.701 215.865l-3.31 19.037s-35.17-3.725-37.652 3.31c-2.483 7.036-3.311 9.105-3.311 9.105l7.034 2.483 3.31-6.208a7.864 7.864 0 0 1 6.207.414c3.31 1.655 32.274 5.794 34.342.414 2.069-5.38 7.862-25.244 7.862-25.244l-8.689-7.035-5.793 3.724z" fill="#000"/><path d="M479.254 270.905l-2.896 9.932-7.448 38.073s-.828 28.141-2.069 31.451c-1.241 3.311-1.241 3.725 0 4.966 1.241 1.242 3.724 5.38 0 7.863-3.724 2.483-16.964 5.38-17.378 2.483-.414-2.897-.414-7.449 0-9.518.414-2.069-1.241-34.348-1.241-34.348l4.965-49.247 16.964-7.862 9.103 6.207z" fill="#2F2E41"/><path opacity=".1" d="M479.254 270.905l-2.896 9.932-7.448 38.073s-.828 28.141-2.069 31.451c-1.241 3.311-1.241 3.725 0 4.966 1.241 1.242 3.724 5.38 0 7.863-3.724 2.483-16.964 5.38-17.378 2.483-.414-2.897-.414-7.449 0-9.518.414-2.069-1.241-34.348-1.241-34.348l4.965-49.247 16.964-7.862 9.103 6.207z" fill="#000"/><path d="M461.462 232.005l-9.102 17.381s-52.135 23.174-47.583 32.693c4.551 9.518 29.791 27.313 29.791 27.313s1.241 7.035 4.965 4.966c3.724-2.069 12.827-12.829 11.999-14.071-.827-1.241-3.724-4.138-4.965-3.724-1.241.414-15.723-10.76-15.723-10.76l24.826-6.207s29.791-.828 31.446-14.898c1.655-14.071 0-16.554 0-16.554l2.069-4.552-16.965-10.346-10.758-1.241z" fill="#2F2E41"/><path d="M448.636 300.701l8.689 7.863s7.448-3.311 11.999-2.069c4.551 1.241 12.413 2.069 12.413 2.069l-1.241 7.035-10.557-1.948 8.488 11.88s0 18.623-5.379 18.623-3.724-11.174-3.724-11.174l-16.551-12.829s-8.275-3.311-9.102-3.311c-.828 0 4.965-16.139 4.965-16.139z" fill="#2F2E41"/><path d="M502.632 185.862c-7.77 0-14.068-6.299-14.068-14.07s6.298-14.07 14.068-14.07c7.769 0 14.068 6.299 14.068 14.07s-6.299 14.07-14.068 14.07z" fill="#A0616A"/><path d="M516.493 182.759s-6.62-1.656-8.689 0c-2.069 1.655-2.483 5.379-5.379 5.793-2.896.414-5.379.414-5.793.828-.414.414-9.93 12.001-9.93 12.001s-5.793 3.311-7.034 7.863c-1.241 4.552-13.654 19.864-15.309 21.519-1.655 1.656 10.758 9.932 14.895 12.829 4.138 2.897 16.137 4.139 19.861-2.483 3.724-6.621 23.998-49.66 17.378-58.35z" fill="#575A89"/><path d="M500.769 209.657l-3.31 19.037s-35.17-3.725-37.652 3.31c-2.483 7.035-3.31 9.105-3.31 9.105l7.034 2.483 3.31-6.208a7.85 7.85 0 0 1 6.206.414c3.31 1.655 32.274 5.794 34.343.414 2.069-5.38 7.861-25.244 7.861-25.244l-8.689-7.035-5.793 3.724z" fill="#A0616A"/><path d="M508.677 184.499s-9.976 21.02-9.149 26.814c.828 5.793 3.724 1.655 3.724 1.655s3.724-5.794 5.379-2.483c1.655 3.311 3.724 7.863 5.379 7.449 1.655-.414 10.758-31.037 5.793-33.934-4.965-2.897-11.126.499-11.126.499z" fill="#575A89"/><path d="M529.594 158.069c-10.26 0-18.577-8.318-18.577-18.58 0-10.262 8.317-18.581 18.577-18.581 10.26 0 18.577 8.319 18.577 18.581 0 10.262-8.317 18.58-18.577 18.58z" fill="#2F2E41"/><path d="M545.618 154.874a18.58 18.58 0 0 1-16.863 2.533 18.584 18.584 0 0 1-11.825-12.289 18.587 18.587 0 0 0 7.65 12.813 18.57 18.57 0 0 0 21.584-.013 18.581 18.581 0 0 0 7.005-20.42 18.573 18.573 0 0 1-7.551 17.376z" fill="#2F2E41"/><path d="M514.423 180.675c-7.524 0-13.623-6.1-13.623-13.626 0-7.525 6.099-13.625 13.623-13.625 7.524 0 13.623 6.1 13.623 13.625 0 7.526-6.099 13.626-13.623 13.626z" fill="#2F2E41"/><path d="M502.967 171.385c-6.669 0-12.076-4.229-12.076-9.445s5.407-9.445 12.076-9.445c6.669 0 12.075 4.229 12.075 9.445s-5.406 9.445-12.075 9.445z" fill="#2F2E41"/><path d="M502.425 177.999c-1.486 0-2.69-2.13-2.69-4.759 0-2.628 1.204-4.759 2.69-4.759 1.485 0 2.689 2.131 2.689 4.759 0 2.629-1.204 4.759-2.689 4.759z" fill="#A0616A"/><path d="M465.507 243.411s-7.325-4.203-8.685-3.149c-1.36 1.054-1.964 4.352-1.964 4.352l8.466 3.323 2.482-4.552-.299.026z" fill="#2F2E41"/></g><defs><clipPath id="clip0"><path transform="matrix(-1 0 0 1 568 0)" fill="#fff" d="M0 0h568v399H0z"/></clipPath></defs></svg>