<svg width="134" height="364" fill="none" xmlns="http://www.w3.org/2000/svg"><path d="M62 37.44s-4.32 14.031-1.851 18.301c2.468 4.27-4.32 13.421-15.426 9.15C33.617 60.622 33 55.742 33 55.742s4.32-6.71 5.553-20.741L62 37.44zm57.04 139.183s22.348 11.2 12.415 26.133c-5.773 8.68-16.789 25.559-25.003 38.173a127.437 127.437 0 0 0-15.644 34.186l-1.564 5.418L83.036 288 70 273.067s19.244-35.467 19.244-42.311c0-6.844 15.519-28.622 15.519-28.622l-15.52-9.956s17.382-19.911 29.797-15.555zm-72.335 38.975s-.614 17.343-1.228 24.157c-.506 5.621 4.417 21.36 2.71 38.869a166.118 166.118 0 0 0 .372 34.036L51 335.142 32.59 337l-6.135-50.791s-3.682-35.924-1.841-47.693L24 213.74s13.5-4.955 22.705 1.858z" fill="#FFB8B8"/><path d="M79.972 142.58S123.38 170.479 124 179.159c0 0-24.805-2.48-25.425 19.22 0 0-14.882-5.58-18.603-6.82-3.72-1.24-23.564-14.26-23.564-14.26s-8.062 6.2-8.062 16.12c0 9.92.62 27.279 0 28.519-.62 1.24-14.882-16.74-26.664-1.24l-8.062-42.779s-2.48-26.039 2.48-27.899L50.828 137l29.145 5.58z" fill="#2F2E41"/><path d="M53.5 45C63.717 45 72 36.717 72 26.5S63.717 8 53.5 8 35 16.283 35 26.5 43.283 45 53.5 45z" fill="#FFB8B8"/><path d="M57.857 58.968S36.83 64.497 33.983 54c0 0-25.838 4.968-30.188 21.67-4.35 16.702 10.564 56.91 10.564 58.147 0 1.238-12.428 8.661-6.835 12.372 5.592 3.712 10.563-.618 8.078 4.33-2.486 4.949-6.836 6.186-3.107 7.423 3.728 1.238 26.098-17.939 43.498-12.99 17.399 4.949 26.098 1.237 26.098 1.237l7.802-67.124a15.441 15.441 0 0 0-1.01-7.582 15.51 15.51 0 0 0-4.528-6.179c-3.894-3.19-9.061-6.638-14.07-7.573-9.943-1.856-10.356-2.872-10.356-2.872l-2.072 4.11z" fill="#D0CDE1"/><path d="M78 167s-5.613 31.975-13.098 27.586C57.418 190.198 66.773 167 66.773 167H78zm-25.782 4s9.984 30.402 1.1 29.996C44.434 200.59 42 176.122 42 176.122L52.218 171z" fill="#FFB8B8"/><path d="M86.054 279.381s4.288-4.943 6.739 1.854c2.45 6.796 9.189 15.447 9.189 15.447s14.703 16.682 4.289 17.3c-10.415.618-25.118-14.829-25.118-14.829L64 283.088s5.685-13.964 8.356-14.087c2.671-.124 2.058 16.559 13.698 10.38zm-40.157 50.701s4.328 1.298 4.007-4.082c0 0 15.648 8.498 11.348 14.806l-.129.189c-6.055 8.853-14.344 15.845-23.977 20.225-4.724 2.148-8.926 3.577-9.676 2.295-1.842-3.154-1.842-9.462-.614-11.986 1.229-2.523 7.37-6.938 5.528-10.723-1.843-3.785.614-13.878 3.685-13.878 3.072 0 9.828 3.154 9.828 3.154zM69.513 10.465S63.457-2.555 51.848.45C40.24 3.454 33.678 7.961 33.173 12.468c-.504 4.506.253 11.266.253 11.266s1.262-9.264 9.337-7.26c8.076 2.002 20.694.5 20.694.5L65.476 35s2.271-3.255 4.795-1.252c2.523 2.003 7.318-19.278-.758-23.283z" fill="#2F2E41"/><path d="M14.148 74.54s14.961 40.217 13.715 45.167c-1.247 4.95 0 5.569 1.87 6.806 1.87 1.238 6.857 14.231 6.857 14.231s3.117 7.424 5.61 9.28c2.494 1.857 2.494 6.806 2.494 6.806s6.234 6.187 4.987 7.425c-1.247 1.237-1.247 3.093 1.247 4.95 2.494 1.856 4.987 4.331 3.74 4.949-1.246.619-9.974 7.425-12.468 6.806-2.493-.618 1.247-3.093-1.87-4.331-3.117-1.237-4.987-3.093-3.74-3.712 1.247-.619 4.987-.619 1.247-1.856-3.74-1.238-16.832-9.281-21.196-19.18-4.363-9.9-25.271-69.794-12.636-78.207 0 0 5.156-6.558 10.143.867zM83.46 68l.252.104a15.606 15.606 0 0 1 6.027 4.443 15.497 15.497 0 0 1 3.249 6.725c1.353 6.446 2.686 15.77 1.632 24.5-1.86 15.42-3.1 22.204-5.58 27.138-2.48 4.934-3.1 3.084-2.48 6.785.62 3.7 3.72.616.62 5.551-3.1 4.934-4.96 3.7-3.72 6.167 1.24 2.467 3.1 2.467.62 5.551s-2.48 4.317-3.1 5.551C80.36 161.748 78.5 171 78.5 171s-9.92-3.084-15.5-1.85c0 0 4.96-8.635 3.72-10.485-1.24-1.851-3.1-2.467-1.24-4.318 1.86-1.85 4.96-1.233 1.86-3.084-3.1-1.85 2.48-20.97 2.48-20.97L83.46 68z" fill="#D0CDE1"/></svg>