<svg width="492" height="322" fill="none" xmlns="http://www.w3.org/2000/svg"><g clip-path="url(#clip0)"><path d="M146.373 318.898c39.882 0 72.213-32.336 72.213-72.225 0-39.888-32.331-72.224-72.213-72.224-39.882 0-72.213 32.336-72.213 72.224 0 39.889 32.331 72.225 72.213 72.225z" fill="#F2F2F2"/><path d="M492 318.962H12.152v1.116H492v-1.116z" fill="#2F2E41"/><path d="M143.316 247.131c0 53.974-32.083 72.822-71.656 72.822-.921 0-1.837-.01-2.749-.035-1.832-.04-3.65-.12-5.443-.249C27.75 317.143 0 297.324 0 247.131c0-51.942 66.356-117.487 71.362-122.353a.013.013 0 0 1 .01-.005c.189-.189.288-.284.288-.284s71.656 68.663 71.656 122.642z" fill="#3F3D56"/><path d="M69.045 311.694l26.211-36.625-26.275 40.645-.07 4.204c-1.833-.04-3.65-.12-5.443-.249l2.823-53.999-.02-.418.05-.08.264-5.101-26.34-40.749 26.42 36.924.065 1.081 2.136-40.799-22.55-42.105L69.14 209.36l2.221-84.582.01-.289v.284l-.368 66.7 22.445-26.444-22.54 32.187-.593 36.531 20.962-35.056-21.051 40.435-.329 20.308 30.429-48.799-30.543 55.887-.738 45.172z" fill="#F2F2F2"/><path d="M400.115 100.482l-9.961-10.46s-10.956-16.437-18.924-11.954c-7.969 4.483 11.454 14.943 11.454 14.943l9.96 16.437 7.471-8.966z" fill="#FFB8B8"/><path d="M431.49 303.206s7.47 14.445 1.992 15.441c-5.478.996-32.371 2.491-32.869.996-.498-1.494-4.482-6.475-1.494-8.467 2.988-1.993 14.94-3.487 14.94-3.487l3.985-3.985 13.446-.498z" fill="#2F2E41"/><path d="M435.474 162.243s15.937 19.924 2.988 40.346l-2.988 34.369s5.479 47.319-1.494 63.258l-.996 5.479h-17.431l4.483-41.84s-.498-4.981-1.992-5.977c-1.494-.996-25.898-54.791-25.898-54.791s3.985-7.472 2.491-8.966c-1.494-1.494 1.494-31.38 2.988-32.376 1.494-.996 37.849.498 37.849.498z" fill="#2F2E41"/><path d="M407.087 298.723l-1.992 11.457 19.423-.997-2.49-12.452-14.941 1.992zM410.573 95.5c8.252 0 14.941-6.691 14.941-14.944s-6.689-14.943-14.941-14.943c-8.251 0-14.94 6.69-14.94 14.943s6.689 14.943 14.94 14.943z" fill="#FFB8B8"/><path d="M424.02 83.047l1.494 17.931-15.937 7.472s2.74-16.687.747-21.17l13.696-4.233z" fill="#FFB8B8"/><path d="M407.586 107.453l1.494-5.977 20.418-7.471s1.993 0 1.495 3.487c-.498 3.486-.498 2.988-.498 2.988s6.972 2.989 7.47 7.97c.498 4.981 8.466 6.475 7.968 13.946-.498 7.472-2.988 11.457-2.988 11.457s2.49 5.977-1.494 9.464c0 0-3.984 6.973-1.992 11.954 1.992 4.981 4.482 13.449-.996 11.954-5.478-1.494-43.328-3.985-43.328-3.985s-5.478-20.422.498-27.893c0 0 0-4.483 4.482-13.449 4.482-8.965 7.471-14.445 7.471-14.445z" fill="#575A89"/><path d="M433.98 163.739s-6.474 27.395-14.443 30.384c0 0-1.494 19.924-9.96 18.927-8.466-.996 0-18.927 0-18.927l9.462-34.369 14.941 3.985z" fill="#FFB8B8"/><path d="M408.582 108.949s-7.47-11.955-9.463-9.962c-1.992 1.992-11.952 7.969-11.454 11.954.498 3.985 4.98 3.985 4.98 3.985l10.459 7.969 5.478-13.946z" fill="#575A89"/><path d="M398.123 198.105l-5.977 4.297-3.984 42.525s14.443 57.779 18.427 58.277c3.984.498 20.419.498 19.921-.996-.498-1.494-2.988-7.471-2.988-8.966 0-1.494-5.195-13.444-5.195-13.444l-6.758-27.898 1.494-21.916-14.94-31.879z" fill="#2F2E41"/><path d="M405.593 306.193s20.917-6.475 21.913-4.981c.996 1.494 7.639 16.555-1.659 18.24-9.298 1.684-42.665 4.673-42.665.19s.996-7.472 3.984-7.472 16.435-6.475 17.431-7.969c.996-1.495.996 1.992.996 1.992zM424.74 81.539a1.477 1.477 0 0 0-.281-1.711 1.471 1.471 0 0 0-1.714-.261l-.026.015a2.584 2.584 0 0 0-1.215 2.584c-1.796-1.792-.473-5.386-2.413-7.021-.898-.757-2.356-.923-2.818-2.003-.268-.629-.086-1.374-.322-2.016-.352-.952-1.475-1.35-2.479-1.5-3.158-.47-6.351.331-9.443 1.126-1.136.293-2.332.617-3.16 1.45-.872.876-1.176 2.15-1.71 3.264-.535 1.115-4.043 1.014-5.269.857-.426-1.211 2.722-1.303 2.979-2.56.703-3.44-1.744-7.096-.544-10.393.724-1.987 2.613-3.303 4.514-4.227a23.958 23.958 0 0 1 16.953-1.447c.573.127 1.11.386 1.565.758.724.675.858 1.76 1.34 2.626 1.099 1.97 3.703 2.439 5.46 3.855 2.66 2.145 2.96 6.018 3.046 9.434.043 1.72.074 3.508-.631 5.078-.704 1.57-2.374 2.85-4.063 2.52.08-.13.157-.274.231-.428z" fill="#2F2E41"/><path d="M422.142 113.8a10.612 10.612 0 0 1 12.953.659c3.432 2.917 7.124 7.096 6.854 11.423-.498 7.969-3.486 40.844-7.47 41.342-3.984.498-18.427-3.487-18.427-5.977 0-2.491 3.486-5.479 3.486-5.479l-4.233-25.401a16.798 16.798 0 0 1 6.614-16.408l.223-.159z" fill="#575A89"/><path d="M366.617 0H246.785a25.472 25.472 0 0 0-24.85 19.875l-60.549 268.608a20.585 20.585 0 0 0 10.485 22.745 20.582 20.582 0 0 0 8.587 2.351l123.187 6.07a27.194 27.194 0 0 0 18.257-5.87 27.21 27.21 0 0 0 9.847-16.459l34.347-189.909 2.555.731 6.572-35.995-2.63-.658 9.587-53.01A15.688 15.688 0 0 0 366.617 0z" fill="#3F3D56"/><path d="M262.563 5.79h-13.988a17.602 17.602 0 0 0-17.2 13.853L173.257 286.06a10.912 10.912 0 0 0 5.471 11.923 10.901 10.901 0 0 0 4.473 1.289l122.789 8.049a14.128 14.128 0 0 0 14.827-11.595L370.41 20.358A12.375 12.375 0 0 0 358.232 5.79h-13.269a5.841 5.841 0 0 0-5.639 4.322 5.159 5.159 0 0 1-4.979 3.816h-62.996a8.813 8.813 0 0 1-8.786-8.138z" fill="#774CDA"/><path d="M350.501 74.652H223.443v.626h127.058v-.626zm-3.756 20.344H218.436v.626h128.309v-.626zm-4.268-21.336l-2.888-3.85.501-.376 2.495 3.327 9.615-7.867.396.484-10.119 8.281zm-16.586 90.77l-2.887-3.85.5-.375 2.496 3.327 9.614-7.868.397.485-10.12 8.281zm-121.532.053l-.013.626 133.004 2.817.013-.626-133.004-2.817zm-4.067 18.465l-.015.626 135.508 3.13.014-.626-135.507-3.13z" fill="#2F2E41"/><path opacity=".1" d="M283.373 236.313a29.731 29.731 0 0 1-50.753 21.026 29.737 29.737 0 0 1 21.579-50.756 29.729 29.729 0 0 1 20.662 8.902 29.738 29.738 0 0 1 8.512 20.828z" fill="#000"/><path opacity=".1" d="M280.556 247.896c0 .372-.007.742-.022 1.111a29.734 29.734 0 0 1-56.6-13.803 29.731 29.731 0 0 1 50.097-5.893 29.742 29.742 0 0 1 6.525 18.585z" fill="#000"/><path d="M247.625 244.495l-10.569-14.094 2.503-1.878 8.611 11.482 33.899-27.739 1.982 2.422-36.426 29.807z" fill="#F2F2F2"/></g><defs><clipPath id="clip0"><path fill="#fff" d="M0 0h492v322H0z"/></clipPath></defs></svg>