<svg width="573" height="354" fill="none" xmlns="http://www.w3.org/2000/svg"><path opacity=".16" d="M469 187.161c0 56.063-32.917 105.66-83.379 135.851-32.354 19.361-71.924 30.746-114.649 30.746-56.919 0-151.837 7.01-132.997-54.383 18.84-61.394-51.065-70.35-65.032-112.214C10.593.246 156.322 96.105 270.972 20.565 385.621-54.976 469 95.155 469 187.16z" fill="#774CDA"/><path d="M447.594 80.91H307.088v-2.898h-63.711v2.899H102.291a9.495 9.495 0 0 0-6.72 2.786 9.514 9.514 0 0 0-2.784 6.727v192.59a9.518 9.518 0 0 0 2.784 6.727 9.5 9.5 0 0 0 6.72 2.787h345.303a9.502 9.502 0 0 0 6.721-2.787 9.519 9.519 0 0 0 2.783-6.727V90.424a9.533 9.533 0 0 0-2.783-6.727 9.512 9.512 0 0 0-6.721-2.786z" fill="#3F3D56"/><path opacity=".1" d="M444.357 97.726H105.53V289.05h338.827V97.726z" fill="#000"/><path d="M274.654 92.508a3.477 3.477 0 0 0 3.475-3.479 3.477 3.477 0 0 0-3.475-3.478 3.477 3.477 0 0 0-3.475 3.478 3.477 3.477 0 0 0 3.475 3.479z" fill="#42C07C"/><path d="M466.613 285.573h-33.068v-2.385a.468.468 0 0 0-.138-.335.477.477 0 0 0-.334-.138h-11.337a.468.468 0 0 0-.437.292.468.468 0 0 0-.036.181v2.385h-7.086v-2.385a.468.468 0 0 0-.138-.335.477.477 0 0 0-.334-.138h-11.337a.468.468 0 0 0-.437.292.468.468 0 0 0-.036.181v2.385h-7.086v-2.385a.468.468 0 0 0-.138-.335.477.477 0 0 0-.334-.138H383a.468.468 0 0 0-.437.292.468.468 0 0 0-.036.181v2.385h-7.086v-2.385a.468.468 0 0 0-.138-.335.477.477 0 0 0-.334-.138h-11.337a.468.468 0 0 0-.437.292.468.468 0 0 0-.036.181v2.385h-7.086v-2.385a.468.468 0 0 0-.138-.335.477.477 0 0 0-.334-.138h-11.337a.468.468 0 0 0-.437.292.468.468 0 0 0-.036.181v2.385h-7.086v-2.385a.468.468 0 0 0-.138-.335.477.477 0 0 0-.334-.138h-11.337a.468.468 0 0 0-.437.292.468.468 0 0 0-.036.181v2.385h-7.086v-2.385a.468.468 0 0 0-.138-.335.477.477 0 0 0-.334-.138h-88.809a.468.468 0 0 0-.437.292.487.487 0 0 0-.036.181v2.385h-7.086v-2.385a.473.473 0 0 0-.472-.473h-11.337a.468.468 0 0 0-.437.292.487.487 0 0 0-.036.181v2.385h-7.086v-2.385a.473.473 0 0 0-.472-.473H189.32a.468.468 0 0 0-.437.292.487.487 0 0 0-.036.181v2.385h-7.086v-2.385a.473.473 0 0 0-.472-.473h-11.337a.468.468 0 0 0-.437.292.487.487 0 0 0-.036.181v2.385h-7.085v-2.385a.487.487 0 0 0-.139-.335.477.477 0 0 0-.334-.138h-11.337a.468.468 0 0 0-.437.292.487.487 0 0 0-.036.181v2.385h-7.085v-2.385a.487.487 0 0 0-.139-.335.477.477 0 0 0-.334-.138h-11.337a.468.468 0 0 0-.437.292.487.487 0 0 0-.036.181v2.385h-7.085v-2.385a.487.487 0 0 0-.139-.335.477.477 0 0 0-.334-.138h-11.337a.468.468 0 0 0-.437.292.487.487 0 0 0-.036.181v2.385h-21.73c-3.006 0-5.89 1.195-8.016 3.324a11.352 11.352 0 0 0-3.32 8.024v5.132c0 3.01 1.194 5.896 3.32 8.025a11.333 11.333 0 0 0 8.016 3.324h376.968c3.006 0 5.89-1.196 8.016-3.324a11.353 11.353 0 0 0 3.321-8.025v-5.132c0-3.01-1.194-5.896-3.321-8.024a11.328 11.328 0 0 0-8.016-3.324z" fill="#3F3D56"/><path d="M343.588 119.441H206.414v144.34h137.174v-144.34z" fill="#774CDA"/><path d="M278.966 113.45s-11.696-4.181-19.216 12.545c-7.519 16.726-19.216 35.125-19.216 35.125l6.684 1.673s1.671-11.709 5.849-13.381l-1.671 15.054s50.128 17.562 72.686-1.673l-.835-5.854s3.342.836 3.342 5.854l2.506-2.509s-2.506-5.018-10.025-11.708c-4.936-4.392-6.632-12.746-7.215-17.97a21.758 21.758 0 0 0-5.001-11.842c-4.997-5.797-14.102-11.958-27.888-5.314z" fill="#2F2E41"/><path d="M214.333 129.231l-4.861-50.816s-9.721-27.57 4.861-25.408c14.581 2.162 5.94 23.246 5.94 23.246l8.101 52.978h-14.041zm70.748 37.841c10.737 0 19.442-8.714 19.442-19.462s-8.705-19.462-19.442-19.462c-10.738 0-19.442 8.714-19.442 19.462s8.704 19.462 19.442 19.462z" fill="#FFB9B9"/><path d="M271.04 156.262s-1.08 22.164-6.481 23.786c-5.401 1.622-20.522 19.462-13.501 24.868 7.02 5.406 47.525 1.621 47.525 1.621l-3.781-28.111s-8.641-5.946-1.62-16.218l-22.142-5.946z" fill="#FFB9B9"/><path d="M311.579 264.866h-76.364c.275-4.893.967-11.802 1.852-19.397.27-2.303.556-4.676.854-7.071 2.619-21.11 6.113-44.291 6.113-44.291l.918-2.125 9.343-21.662.097.038 12.324 4.828.438 2.076 3.343 15.763 21.629-17.477 19.955-3.125 1.35-.211 2.43 22.976s-.108 5.136-.221 12.45c-.13 8.406-.27 19.694-.259 29.365.005 4.622.043 8.877.135 12.272.075 2.86.189 5.114.345 6.46.362 3.065-1.56 6.249-4.282 9.131z" fill="#3F3D56"/><path d="M254.837 173.019l-.54-3.243-15.122-18.381-8.641-30.814-21.062 8.109 15.122 37.302 21.602 27.57 8.641-20.543z" fill="#3F3D56"/><path d="M259.539 149.939s6.684-9.2 12.532-10.873c5.848-1.672 6.684-10.035 6.684-10.035s15.038 16.726 24.229 17.562c9.19.837.835-20.071.835-20.071l-16.709-4.182-15.874 1.673-12.533 8.363.836 17.563z" fill="#2F2E41"/><path d="M313.346 246.481l-51.668 2.052s-28.472 6.524-24.663-7.731c3.808-14.254 23.748-3.257 23.748-3.257l53.504-2.016-.921 10.952z" fill="#FFB9B9"/><path d="M307.493 175.993l4.86-3.784s8.101-4.325 9.721 10.812c1.62 15.136 13.502 65.412 1.62 65.953-11.881.54-42.124 1.081-42.124 1.081l3.24-16.759 24.843-1.621-2.16-55.682z" fill="#3F3D56"/><path opacity=".15" d="M309.113 199.239l-1.621 30.814-23.762 4.865 21.602-8.65 3.781-27.029z" fill="#000"/><path d="M286.716 27H154.942v34.598h131.774V27z" fill="#774CDA"/><path d="M573 312.919H0V314h573v-1.081z" fill="#3F3D56"/><path d="M517.351 275.151c7.764 8.339 8.165 20.597 8.165 20.597s-12.186-1.264-19.95-9.604c-7.764-8.339-8.165-20.596-8.165-20.596s12.186 1.263 19.95 9.603z" fill="#774CDA"/><path d="M541.793 288.169c-8.331 7.772-20.576 8.174-20.576 8.174s1.262-12.199 9.593-19.97c8.331-7.772 20.577-8.174 20.577-8.174s-1.263 12.199-9.594 19.97z" fill="#774CDA"/><path d="M539.722 312.92h-30.643a3.13 3.13 0 0 1-2.818-1.765l-6.672-13.727a3.149 3.149 0 0 1 .162-3.037 3.127 3.127 0 0 1 2.657-1.473h43.985a3.131 3.131 0 0 1 2.657 1.473 3.139 3.139 0 0 1 .161 3.037l-6.671 13.727a3.135 3.135 0 0 1-2.818 1.765z" fill="#3F3D56"/><path d="M32.92 275.151c7.764 8.339 8.166 20.597 8.166 20.597s-12.187-1.264-19.95-9.604c-7.764-8.339-8.166-20.596-8.166-20.596s12.187 1.263 19.95 9.603z" fill="#774CDA"/><path d="M50.43 312.92H19.789a3.132 3.132 0 0 1-2.818-1.765l-6.672-13.727a3.142 3.142 0 0 1 1.3-4.117 3.129 3.129 0 0 1 1.519-.393h43.985a3.129 3.129 0 0 1 2.657 1.473 3.143 3.143 0 0 1 .161 3.037l-6.671 13.727a3.138 3.138 0 0 1-2.819 1.765z" fill="#3F3D56"/><path d="M269.974 40.906h-98.29v6.787h98.29v-6.787z" fill="#fff"/></svg>