<svg width="54" height="54" viewBox="0 0 54 54" fill="none" xmlns="http://www.w3.org/2000/svg">
<g clip-path="url(#clip0)">
<path d="M50.5695 40.337C52.4778 38.7623 52.7483 35.9388 51.1736 34.0305C50.3181 32.9938 49.0425 32.396 47.6984 32.402C47.5732 32.402 47.4555 32.4289 47.3328 32.439C46.6211 30.7863 44.9982 29.7119 43.1988 29.7022C41.3393 29.7004 39.6732 30.8508 39.0163 32.5904C38.2243 32.3391 37.3741 32.3391 36.5822 32.5904C35.7073 30.2805 33.1257 29.1172 30.8158 29.9921C29.6229 30.4438 28.6797 31.3836 28.2234 32.5748C27.4262 32.339 26.5771 32.3445 25.783 32.5904C24.9081 30.2804 22.3261 29.1171 20.0162 29.9922C18.8179 30.4461 17.8719 31.3921 17.418 32.5904C16.626 32.3391 15.7758 32.3391 14.9839 32.5904C14.3268 30.8508 12.6608 29.7004 10.8014 29.7022C9.00195 29.7119 7.37893 30.7861 6.66731 32.439C6.54481 32.429 6.42692 32.402 6.30172 32.402C3.8277 32.3909 1.8131 34.3877 1.80207 36.8617C1.79611 38.2057 2.39389 39.4815 3.43061 40.3369C1.29575 41.525 -0.0193832 43.7847 0.00221513 46.2278V53.1003C0.00187766 53.5971 0.404371 53.9999 0.901132 54.0003C0.901469 54.0003 0.901806 54.0003 0.902144 54.0003H53.098C53.5948 54.0006 53.9976 53.5981 53.9979 53.1014C53.9979 53.101 53.9979 53.1007 53.9979 53.1003V46.2278C54.0195 43.7848 52.7045 41.5251 50.5695 40.337ZM47.6984 34.2019C49.1888 34.2035 50.3967 35.4113 50.3982 36.9017C50.3982 38.3928 49.1895 39.6015 47.6984 39.6015C46.2074 39.6015 44.9987 38.3928 44.9987 36.9017C44.9987 35.4107 46.2074 34.2019 47.6984 34.2019ZM43.1988 31.5022C44.2009 31.5087 45.1176 32.0675 45.5825 32.9553C44.1253 33.7287 43.2103 35.2397 43.2 36.8894C42.8876 36.8909 42.5772 36.8393 42.2821 36.7365C42.2332 35.4428 41.6257 34.2339 40.6169 33.4225C40.9554 32.2798 42.0072 31.4975 43.1988 31.5022ZM37.7992 34.2019C39.2896 34.2035 40.4974 35.4113 40.499 36.9017C40.499 38.3928 39.2903 39.6015 37.7992 39.6015C36.3082 39.6015 35.0994 38.3928 35.0994 36.9017C35.0994 35.4107 36.3082 34.2019 37.7992 34.2019ZM32.3997 31.5022C33.5913 31.4975 34.6431 32.2798 34.9814 33.4224C33.9784 34.2296 33.3722 35.4301 33.3183 36.7166C32.7263 36.9269 32.0801 36.9279 31.4876 36.7193C31.4346 35.4262 30.8276 34.2184 29.8215 33.4043C30.1666 32.2706 31.2146 31.4973 32.3997 31.5022ZM24.6808 35.5145C25.168 34.6983 26.0495 34.1995 27.0001 34.2019C27.4839 34.2001 27.959 34.3319 28.3728 34.5825C29.6497 35.3446 30.0669 36.9976 29.3048 38.2745C28.5427 39.5513 26.8897 39.9686 25.6128 39.2065C24.3359 38.4443 23.9187 36.7914 24.6808 35.5145ZM21.6005 31.5022C22.7921 31.4975 23.8439 32.2798 24.1823 33.4224C23.1792 34.2296 22.5731 35.4301 22.5191 36.7166C21.9248 36.9277 21.2761 36.9277 20.6818 36.7166C20.6278 35.4302 20.0217 34.2296 19.0186 33.4224C19.3571 32.2798 20.4089 31.4975 21.6005 31.5022ZM16.2009 34.2019C17.6913 34.2035 18.8991 35.4113 18.9007 36.9017C18.9007 38.3928 17.692 39.6015 16.2009 39.6015C14.7099 39.6015 13.5011 38.3928 13.5011 36.9017C13.5011 35.4107 14.7099 34.2019 16.2009 34.2019ZM10.8014 31.5022C11.993 31.4975 13.0448 32.2798 13.3831 33.4224C12.3743 34.2338 11.7669 35.4427 11.7179 36.7364C11.4229 36.8392 11.1125 36.8909 10.8 36.8892C10.7898 35.2396 9.87477 33.7287 8.41756 32.9552C8.8826 32.0676 9.79929 31.5088 10.8014 31.5022ZM6.30172 34.2019C7.79279 34.2019 9.0015 35.4107 9.0015 36.9017C9.0015 38.3928 7.79279 39.6015 6.30172 39.6015C4.81132 39.5999 3.60351 38.3921 3.60193 36.9017C3.60193 35.4107 4.81065 34.2019 6.30172 34.2019ZM9.90143 46.2279V52.2005H1.80207V46.2279C1.71815 43.6549 3.72916 41.4978 6.30172 41.4014C8.01484 41.4328 9.55912 42.4412 10.2766 43.9972C10.0294 44.715 9.90267 45.4688 9.90143 46.2279ZM9.16776 40.3413C9.7138 39.8939 10.1471 39.3242 10.4325 38.6785C10.5553 38.6885 10.6778 38.7016 10.8014 38.7016C11.2129 38.7007 11.6222 38.6434 12.0181 38.5315C12.2965 39.2341 12.7476 39.8551 13.3297 40.337C12.5127 40.7822 11.8024 41.3999 11.2479 42.1472C10.6947 41.4006 9.98468 40.7841 9.16776 40.3413ZM20.7006 46.2279V52.2005H11.7013V46.2279C11.6174 43.6549 13.6284 41.4978 16.2009 41.4014C18.7735 41.4978 20.7846 43.6549 20.7006 46.2279ZM19.072 40.337C19.6542 39.8551 20.1053 39.2341 20.3838 38.5315C21.1791 38.7583 22.022 38.7583 22.8173 38.5315C23.0957 39.2341 23.5468 39.8551 24.129 40.337C23.0701 40.917 22.1943 41.7813 21.6005 42.8324C21.0067 41.7813 20.1309 40.917 19.072 40.337ZM31.4997 46.2279V52.2005H22.5004V46.2279C22.4165 43.6549 24.4275 41.4978 27.0001 41.4014C29.5726 41.4978 31.5838 43.6549 31.4997 46.2279ZM29.8712 40.337C30.4533 39.8551 30.9044 39.2341 31.1829 38.5315C31.9783 38.7583 32.8212 38.7583 33.6165 38.5315C33.8949 39.2341 34.346 39.8551 34.9281 40.337C33.8692 40.917 32.9935 41.7813 32.3997 42.8324C31.8058 41.7813 30.9301 40.917 29.8712 40.337ZM42.2989 46.2279V52.2005H33.2996V46.2279C33.1252 43.7429 34.9983 41.5869 37.4835 41.4125C39.9685 41.238 42.1245 43.1112 42.2989 45.5964C42.3136 45.8066 42.3136 46.0177 42.2989 46.2279ZM42.7522 42.1472C42.1977 41.4 41.4874 40.7823 40.6703 40.337C41.2525 39.8551 41.7036 39.234 41.9821 38.5315C42.3779 38.6434 42.7874 38.7007 43.1988 38.7016C43.3223 38.7016 43.4449 38.6885 43.5677 38.6785C43.853 39.3242 44.2862 39.8938 44.8324 40.3413C44.0155 40.7841 43.3054 41.4006 42.7522 42.1472ZM52.1981 46.2279V52.2005H44.0987V46.2279C44.0975 45.4687 43.9707 44.715 43.7236 43.9971C44.441 42.4411 45.9853 41.4326 47.6984 41.4013C50.271 41.4978 52.2821 43.6549 52.1981 46.2279Z" fill="#774CDA"/>
<path d="M37.69 2.11696C37.6585 2.08479 37.6267 2.05295 37.5945 2.02146C34.8528 -0.673493 30.4571 -0.673493 27.7155 2.02146L27.0002 2.72891L26.2849 2.02146C23.5432 -0.673493 19.1475 -0.673493 16.4059 2.02146C13.7708 4.6038 13.728 8.83335 16.3104 11.4683C16.3428 11.5014 16.3755 11.534 16.4086 11.5664L26.3702 21.3453C26.7202 21.6886 27.2805 21.6886 27.6305 21.3453L37.5947 11.5639C40.2295 8.9815 40.2723 4.75206 37.69 2.11696ZM36.4097 10.2033C36.384 10.2297 36.3579 10.2558 36.3314 10.2816L27.0001 19.4417L17.6712 10.2843C15.7429 8.4006 15.7066 5.31025 17.5903 3.38192C17.617 3.3547 17.6438 3.3277 17.6712 3.30104C19.7106 1.29735 22.9796 1.29735 25.0191 3.30104L26.3672 4.63507C26.7179 4.98132 27.282 4.98132 27.6327 4.63507L28.9808 3.30104C31.0203 1.29735 34.2893 1.29735 36.3287 3.30104C38.2572 5.18471 38.2934 8.27495 36.4097 10.2033Z" fill="#774CDA"/>
<path d="M13.2956 15.0207C13.2125 14.9302 13.1257 14.8432 13.035 14.7602C11.426 13.2927 9.02989 13.0942 7.20135 14.2768C5.37247 13.0951 2.97709 13.2935 1.36768 14.7602C-0.346127 16.3301 -0.46278 18.9922 1.10715 20.706C1.19016 20.7966 1.27701 20.8835 1.36768 20.9665L6.58625 25.859C6.75274 26.0157 6.97277 26.1029 7.20146 26.1024C7.43004 26.1029 7.65019 26.0157 7.81668 25.859L13.0353 20.9665C14.7489 19.3966 14.8656 16.7345 13.2956 15.0207ZM11.9805 19.4777C11.925 19.5394 11.8662 19.598 11.8047 19.6535L7.20135 23.9686L2.59799 19.6535C2.09437 19.1938 1.80572 18.5444 1.80178 17.8625C1.80594 17.1811 2.09459 16.5324 2.59799 16.0732C3.72785 15.0432 5.45628 15.0432 6.58614 16.0732C6.93182 16.3984 7.47088 16.3984 7.81645 16.0732C8.94631 15.0432 10.6747 15.0432 11.8046 16.0732C12.7934 16.9648 12.8721 18.489 11.9805 19.4777Z" fill="#774CDA"/>
<path d="M52.8925 15.0209C52.8095 14.9304 52.7226 14.8434 52.6319 14.7604C51.0229 13.2928 48.6268 13.0943 46.7983 14.277C44.9694 13.0953 42.574 13.2937 40.9646 14.7604C39.2508 16.3303 39.1341 18.9924 40.7041 20.7062C40.7871 20.7968 40.8739 20.8837 40.9646 20.9667L46.1832 25.8592C46.5291 26.1837 47.0677 26.1837 47.4135 25.8592L52.6321 20.9667C54.3459 19.3968 54.4625 16.7347 52.8925 15.0209ZM51.5775 19.4779C51.5219 19.5396 51.4632 19.5982 51.4016 19.6537L46.7983 23.9688L42.1949 19.6537C41.2062 18.7621 41.1275 17.2379 42.0191 16.2492C42.0747 16.1876 42.1333 16.129 42.1949 16.0734C43.3248 15.0434 45.0532 15.0434 46.1831 16.0734C46.5287 16.3986 47.0678 16.3986 47.4134 16.0734C48.5432 15.0434 50.2717 15.0434 51.4015 16.0734C52.3903 16.965 52.4691 18.4892 51.5775 19.4779Z" fill="#774CDA"/>
</g>
<defs>
<clipPath id="clip0">
<rect width="54" height="54" fill="white"/>
</clipPath>
</defs>
</svg>
