<svg width="478" height="300" viewBox="0 0 478 300" fill="none" xmlns="http://www.w3.org/2000/svg">
<g clip-path="url(#clip0)">
<path d="M388.084 11.2084C381.768 0.537553 369.274 0.0402511 369.274 0.0402511C369.274 0.0402511 357.099 -1.51664 349.289 14.7351C342.009 29.8832 331.962 44.5089 347.671 48.0549L350.509 39.2233L352.266 48.7124C354.503 48.8733 356.746 48.9116 358.987 48.8273C375.811 48.2841 391.832 48.9862 391.316 42.9494C390.631 34.9242 394.16 21.4759 388.084 11.2084Z" fill="#2F2E41"/>
<path d="M355.848 285.776C409.173 285.776 452.401 283.267 452.401 280.172C452.401 277.078 409.173 274.569 355.848 274.569C302.524 274.569 259.295 277.078 259.295 280.172C259.295 283.267 302.524 285.776 355.848 285.776Z" fill="#3F3D56"/>
<path d="M125.242 287.069C192.85 287.069 247.657 284.56 247.657 281.465C247.657 278.371 192.85 275.862 125.242 275.862C57.6336 275.862 2.82642 278.371 2.82642 281.465C2.82642 284.56 57.6336 287.069 125.242 287.069Z" fill="#3F3D56"/>
<path d="M273.088 300C333.317 300 382.142 297.491 382.142 294.396C382.142 291.302 333.317 288.793 273.088 288.793C212.86 288.793 164.035 291.302 164.035 294.396C164.035 297.491 212.86 300 273.088 300Z" fill="#3F3D56"/>
<path d="M318.46 257.383C318.858 270.986 310.91 275.971 300.935 276.262C300.703 276.269 300.473 276.273 300.243 276.275C299.781 276.278 299.322 276.27 298.869 276.252C289.848 275.877 282.707 271.089 282.338 258.438C281.955 245.346 298.205 228.336 299.424 227.078L299.426 227.077C299.473 227.029 299.496 227.005 299.496 227.005C299.496 227.005 318.063 243.782 318.46 257.383Z" fill="#774CDA"/>
<path d="M300.217 274.201L306.553 264.778L300.23 275.214L300.243 276.275C299.781 276.278 299.322 276.27 298.869 276.252L299.183 262.623L299.175 262.517L299.186 262.497L299.216 261.209L292.277 251.135L299.208 260.245L299.233 260.518L299.47 250.22L293.477 239.775L299.487 248.411L299.424 227.078L299.424 227.007L299.427 227.077L299.824 243.89L305.287 237.061L299.842 245.339L299.961 254.549L304.988 245.56L299.98 255.904L300.046 261.025L307.356 248.503L300.069 262.812L300.217 274.201Z" fill="#3F3D56"/>
<path d="M36.1294 262.125C36.5267 275.727 28.5786 280.713 18.604 281.004C18.3723 281.011 18.1416 281.015 17.912 281.016C17.4495 281.02 16.9914 281.012 16.5378 280.993C7.51677 280.619 0.376093 275.83 0.00664056 263.18C-0.375692 250.088 15.8741 233.078 17.0932 231.82L17.0954 231.819C17.1417 231.771 17.1654 231.747 17.1654 231.747C17.1654 231.747 35.7322 248.523 36.1294 262.125Z" fill="#774CDA"/>
<path d="M17.8857 278.942L24.2219 269.52L17.8986 279.956L17.9119 281.016C17.4493 281.02 16.9912 281.012 16.5376 280.993L16.8519 267.364L16.8433 267.259L16.8549 267.239L16.8849 265.951L9.94604 255.876L16.8768 264.987L16.9014 265.259L17.1387 254.962L11.1454 244.517L17.1558 253.153L17.0931 231.82L17.0932 231.749L17.0952 231.818L17.4931 248.632L22.9553 241.802L17.511 250.08L17.6302 259.291L22.6565 250.302L17.6487 260.645L17.715 265.767L25.0247 253.245L17.7373 267.553L17.8857 278.942Z" fill="#3F3D56"/>
<path d="M442.028 270.216L473.955 222.739L442.094 275.324L442.16 280.666C439.83 280.684 437.522 280.645 435.236 280.55L436.82 211.877L436.776 211.348L436.835 211.245L436.986 204.756L402.023 153.995L436.945 199.899L437.069 201.271L438.265 149.386L408.066 96.7583L438.351 140.272L438.035 32.7802L438.035 32.4225L438.046 32.7743L440.05 117.492L467.573 83.0797L440.14 124.79L440.741 171.2L466.068 125.906L440.834 178.023L441.169 203.829L478 140.735L441.281 212.832L442.028 270.216Z" fill="#3F3D56"/>
<path d="M350.662 112.271C350.662 112.271 343.265 132.097 347.999 149.851C352.734 167.605 365.162 209.92 365.162 209.92L381.733 242.765C381.733 242.765 391.202 249.275 396.824 235.959L381.733 207.552L396.505 156.226C399.312 146.629 399.909 136.52 398.251 126.659C397.409 121.785 395.973 116.909 393.569 113.159C393.569 113.159 355.101 107.241 350.662 112.271Z" fill="#2F2E41"/>
<path d="M366.049 206.369L357.172 252.53C357.172 252.53 366.345 259.04 371.672 256.969L380.549 222.94L366.049 206.369Z" fill="#2F2E41"/>
<path d="M358.356 251.643L348.887 270.876L345.04 278.57C345.04 278.57 324.03 298.691 340.601 296.62C357.172 294.549 358.356 291.59 358.356 291.59L361.611 286.855L362.498 288.631C362.498 288.631 367.233 284.784 367.233 283.6C367.233 282.417 365.458 270.285 365.458 270.285L367.825 256.081L358.356 251.643Z" fill="#2F2E41"/>
<path d="M385.283 242.47L390.314 256.081L387.355 267.917C387.355 267.917 375.814 283.6 387.651 282.713C399.487 281.825 401.558 273.244 401.558 273.244L403.334 267.621L404.813 268.213L409.252 260.224L400.967 246.908L395.344 237.143L385.283 242.47Z" fill="#2F2E41"/>
<path d="M416.65 128.842L418.425 138.015C418.425 138.015 425.823 154.586 418.425 155.178C411.027 155.769 411.027 138.903 411.027 138.903L411.619 132.097L416.65 128.842Z" fill="#FFB8B8"/>
<path d="M289.113 81.2013L278.756 79.4259C278.756 79.4259 258.338 68.7733 258.634 76.4669C258.93 84.1604 277.868 87.7112 277.868 87.7112L283.491 89.7826L289.113 81.2013Z" fill="#FFB8B8"/>
<path d="M368.417 37.999C375.934 37.999 382.029 31.9049 382.029 24.3874C382.029 16.8699 375.934 10.7758 368.417 10.7758C360.899 10.7758 354.805 16.8699 354.805 24.3874C354.805 31.9049 360.899 37.999 368.417 37.999Z" fill="#FFB8B8"/>
<path d="M362.498 33.5606C362.498 33.5606 365.457 44.805 360.131 47.1723C354.805 49.5395 354.213 51.3149 354.213 51.3149C354.213 51.3149 389.722 62.5593 392.385 49.2436L380.253 42.4378C380.253 42.4378 379.069 32.9688 377.886 32.377C376.702 31.7852 362.498 33.5606 362.498 33.5606Z" fill="#FFB8B8"/>
<path d="M404.846 57.1383C404.635 56.2444 404.085 55.4671 403.313 54.9698C400.223 52.9795 392.181 47.9254 391.084 48.5133C389.722 49.2433 379.277 54.2435 358.607 47.8966C358.607 47.8966 342.969 52.2023 338.53 55.1614C334.091 58.1204 324.813 67.6722 324.813 67.6722C324.813 67.6722 282.707 74.4661 283.003 78.017C283.299 81.5679 279.985 90.086 279.985 90.086C279.985 90.086 307.572 95.6894 335.589 84.0515C335.589 84.0515 344.448 104.577 343.56 108.424C342.673 112.271 342.673 114.934 349.775 114.342C356.876 113.751 367.825 111.975 373.447 112.863C379.07 113.751 400.079 115.23 400.079 113.751V104.577C400.079 104.577 406.589 136.535 410.732 136.535C414.874 136.535 421.289 134.038 423.953 124.569L411.021 83.1894L404.846 57.1383Z" fill="#D0CDE1"/>
<path opacity="0.2" d="M372.222 144.537L364.914 207.901L366.198 208.049L373.506 144.685L372.222 144.537Z" fill="black"/>
<path d="M385.292 10.6664L372.948 4.20044L355.902 6.8457L352.375 22.4224L361.154 22.0845L363.607 16.3621V21.9901L367.658 21.8345L370.009 12.7237L371.479 22.4224L385.88 22.1285L385.292 10.6664Z" fill="#2F2E41"/>
<path d="M253.875 53.6661C253.392 53.1806 252.818 52.7951 252.186 52.5318C251.554 52.2684 250.876 52.1324 250.191 52.1315C249.506 52.1306 248.828 52.2647 248.195 52.5264C247.562 52.788 246.987 53.1719 246.503 53.6562C246.019 54.1404 245.635 54.7154 245.373 55.3482C245.112 55.9811 244.977 56.6593 244.978 57.3441C244.979 58.0289 245.115 58.7068 245.379 59.3389C245.642 59.971 246.027 60.545 246.513 61.0279L253.875 68.3897L261.237 61.0279C262.209 60.0508 262.754 58.7281 262.752 57.3498C262.75 55.9715 262.202 54.6502 261.227 53.6756C260.253 52.701 258.931 52.1527 257.553 52.1509C256.175 52.1492 254.852 52.694 253.875 53.6661Z" fill="#FF6584"/>
<path d="M273.272 27.8042C272.789 27.3186 272.215 26.9332 271.583 26.6698C270.951 26.4065 270.273 26.2705 269.588 26.2695C268.903 26.2686 268.225 26.4028 267.592 26.6644C266.959 26.9261 266.384 27.31 265.9 27.7942C265.416 28.2784 265.032 28.8534 264.77 29.4863C264.509 30.1191 264.375 30.7974 264.375 31.4822C264.376 32.167 264.512 32.8448 264.776 33.477C265.039 34.1091 265.425 34.6831 265.91 35.166L273.272 42.5278L280.634 35.166C281.606 34.1889 282.151 32.8661 282.149 31.4879C282.147 30.1096 281.599 28.7883 280.624 27.8137C279.65 26.8391 278.329 26.2908 276.95 26.289C275.572 26.2872 274.249 26.8321 273.272 27.8042Z" fill="#FF6584"/>
<path d="M244.824 3.66595C244.114 2.95544 243.271 2.39173 242.344 2.00702C241.416 1.6223 240.422 1.42413 239.418 1.42383C238.413 1.42352 237.419 1.62109 236.491 2.00524C235.563 2.38939 234.72 2.95259 234.01 3.66267C233.3 4.37275 232.737 5.21578 232.353 6.1436C231.969 7.07141 231.771 8.06583 231.771 9.07003C231.772 10.0742 231.97 11.0685 232.354 11.9961C232.739 12.9237 233.303 13.7664 234.013 14.476L244.824 25.2861L255.634 14.476C256.344 13.7664 256.908 12.9237 257.293 11.9961C257.677 11.0685 257.876 10.0742 257.876 9.07003C257.876 8.06583 257.679 7.07141 257.295 6.1436C256.91 5.21578 256.347 4.37275 255.637 3.66267C254.927 2.95259 254.084 2.38939 253.156 2.00524C252.228 1.62109 251.234 1.42352 250.23 1.42383C249.225 1.42413 248.231 1.6223 247.304 2.00702C246.376 2.39173 245.533 2.95544 244.824 3.66595Z" fill="#FF6584"/>
<path d="M224.381 108.19H29.551V280.603H224.381V108.19Z" fill="#3F3D56"/>
<path d="M208.864 125.431H45.4995V228.017H208.864V125.431Z" fill="white"/>
<path d="M140.94 228.63C141.134 228.569 141.323 228.509 141.517 228.448C149.255 225.959 155.966 221.006 160.627 214.347C165.287 207.688 167.642 199.687 167.332 191.565C167.187 187.665 166.422 183.814 165.065 180.155C162.064 172.042 156.33 165.228 148.848 160.885C141.367 156.542 132.606 154.942 124.073 156.359C115.539 157.775 107.766 162.121 102.089 168.649C96.4127 175.176 93.1879 183.478 92.9695 192.125C92.7748 200.055 95.1216 207.839 99.667 214.339C104.212 220.84 110.718 225.716 118.233 228.255C118.427 228.323 118.625 228.388 118.819 228.448H129.487L140.94 228.63Z" fill="#2F2E41"/>
<path d="M119.401 220.737L118.233 228.254L118.203 228.448H106.767L107.668 222.655L108.28 218.724L119.401 220.737Z" fill="#2F2E41"/>
<path d="M140.94 228.629L140.971 228.448L141.639 224.763L130.518 222.75L129.488 228.448L140.94 228.629Z" fill="#2F2E41"/>
<path d="M132.763 196.635C139.784 196.635 145.475 190.943 145.475 183.923C145.475 176.902 139.784 171.21 132.763 171.21C125.742 171.21 120.051 176.902 120.051 183.923C120.051 190.943 125.742 196.635 132.763 196.635Z" fill="white"/>
<path d="M137.988 183.603C140.328 183.603 142.225 181.706 142.225 179.366C142.225 177.026 140.328 175.129 137.988 175.129C135.648 175.129 133.75 177.026 133.75 179.366C133.75 181.706 135.648 183.603 137.988 183.603Z" fill="#3F3D56"/>
<path d="M100.817 152.557C100.258 138.786 112.126 127.123 127.325 126.506C142.524 125.888 155.299 136.551 155.859 150.321C156.418 164.091 145.852 167.22 130.653 167.837C115.454 168.454 101.376 166.327 100.817 152.557Z" fill="#774CDA"/>
<path d="M165.809 191.935C175.82 189.64 183.352 185.232 182.632 182.089C181.911 178.946 173.211 178.259 163.2 180.554C153.188 182.848 145.656 187.256 146.377 190.399C147.097 193.542 155.797 194.23 165.809 191.935Z" fill="#2F2E41"/>
<path d="M92.7953 204.077C102.807 201.782 110.339 197.374 109.618 194.231C108.898 191.088 100.198 190.401 90.1864 192.695C80.1748 194.99 72.6429 199.398 73.3633 202.541C74.0837 205.684 82.7837 206.372 92.7953 204.077Z" fill="#2F2E41"/>
<path d="M119.943 207.679C119.744 208.774 119.763 209.898 119.999 210.986C120.234 212.074 120.682 213.106 121.316 214.021C121.95 214.936 122.758 215.717 123.695 216.32C124.631 216.922 125.677 217.335 126.772 217.533C127.868 217.731 128.992 217.712 130.08 217.476C131.168 217.24 132.199 216.791 133.113 216.156C134.028 215.522 134.809 214.713 135.411 213.776C136.013 212.84 136.425 211.794 136.622 210.698C137.456 206.092 133.895 204.463 129.289 203.629C124.684 202.795 120.777 203.073 119.943 207.679Z" fill="white"/>
<path d="M145.501 243.534H45.4995V249.569H145.501V243.534Z" fill="#774CDA"/>
<path d="M208.864 256.466H45.4995V262.5H208.864V256.466Z" fill="#774CDA"/>
</g>
<defs>
<clipPath id="clip0">
<rect width="478" height="300" fill="white"/>
</clipPath>
</defs>
</svg>
