<svg width="45" height="45" viewBox="0 0 45 45" fill="none" xmlns="http://www.w3.org/2000/svg">
<g clip-path="url(#clip0)">
<path d="M13.4989 5.25024C11.8428 5.25212 10.5008 6.59415 10.4989 8.25024C10.4989 9.90708 11.8421 11.2502 13.4989 11.2502C15.1557 11.2502 16.4989 9.90708 16.4989 8.25024C16.4989 6.5934 15.1557 5.25024 13.4989 5.25024ZM13.4989 9.75023C12.6704 9.75023 11.9989 9.0787 11.9989 8.25024C11.9989 7.42177 12.6704 6.75024 13.4989 6.75024C14.327 6.75108 14.998 7.42214 14.9989 8.25024C14.9989 9.0787 14.3274 9.75023 13.4989 9.75023Z" fill="#5E2AD7"/>
<path d="M31.499 5.25024C29.8429 5.25212 28.5009 6.59415 28.499 8.25024C28.499 9.90708 29.8422 11.2502 31.499 11.2502C33.1559 11.2502 34.499 9.90708 34.499 8.25024C34.499 6.5934 33.1559 5.25024 31.499 5.25024ZM31.499 9.75023C30.6705 9.75023 29.999 9.0787 29.999 8.25024C29.999 7.42177 30.6705 6.75024 31.499 6.75024C32.3271 6.75108 32.9982 7.42214 32.999 8.25024C32.999 9.0787 32.3275 9.75023 31.499 9.75023Z" fill="#5E2AD7"/>
<path d="M44.7054 9.90405L31.9555 0.154091C31.6866 -0.0516892 31.3132 -0.0516892 31.0443 0.154091L22.4999 6.68797L13.9556 0.154091C13.6867 -0.0516892 13.3133 -0.0516892 13.0444 0.154091L0.294468 9.90405C0.108843 10.046 0 10.2662 0 10.4998V44.2497C0 44.6639 0.335811 44.9997 0.749997 44.9997H44.2498C44.664 44.9997 44.9998 44.6639 44.9998 44.2497V10.4998C44.9999 10.2663 44.8911 10.046 44.7054 9.90405ZM25.5 43.4998H1.50009V10.8705L13.5 1.69402L25.5 10.8705V43.4998ZM43.4999 43.4998H27V33.7498H41.2499C41.6641 33.7498 41.9999 33.414 41.9999 32.9998V16.4999C41.9999 16.0857 41.6641 15.7499 41.2499 15.7499H27V10.4999C27 10.2663 26.8911 10.046 26.7055 9.90414L23.7346 7.63231L31.4999 1.69412L43.4998 10.8706V43.4998H43.4999ZM35.2499 30.7498C35.6641 30.7498 35.9999 30.414 35.9999 29.9998C36.0013 28.7578 37.0078 27.7512 38.2499 27.7499C38.6641 27.7499 38.9999 27.414 38.9999 26.9999V22.4999C38.9999 22.0857 38.6641 21.7499 38.2499 21.7499C37.0078 21.7486 36.0013 20.742 35.9999 19.4999C35.9999 19.0857 35.6641 18.7499 35.2499 18.7499H27V17.2499H40.4999V32.2498H27V30.7498H35.2499ZM27 29.2498V20.2499H34.5754C34.8787 21.7214 36.0285 22.8712 37.4999 23.1744V26.3252C36.0284 26.6285 34.8786 27.7784 34.5754 29.2498H27V29.2498Z" fill="#5E2AD7"/>
<path d="M13.499 15.0002C8.53082 15.006 4.50474 19.032 4.49902 24.0002C4.49902 28.9707 8.52848 33.0002 13.499 33.0002C18.4695 33.0002 22.4989 28.9707 22.4989 24.0002C22.4989 19.0297 18.4695 15.0002 13.499 15.0002ZM13.499 31.5002C9.35685 31.5002 5.99902 28.1423 5.99902 24.0002C5.99902 19.8581 9.35685 16.5002 13.499 16.5002C17.6392 16.5048 20.9944 19.86 20.999 24.0002C20.999 28.1423 17.6411 31.5002 13.499 31.5002Z" fill="#5E2AD7"/>
<path d="M15.2091 23.9015C14.6858 23.558 14.1109 23.3003 13.5062 23.1383C12.3673 22.7729 11.9989 22.5846 11.9989 21.75C12.0195 20.9302 12.6791 20.2706 13.4989 20.25C14.327 20.2508 14.998 20.9219 14.9989 21.75H16.4989C16.4948 20.3858 15.57 19.1965 14.2489 18.8565V18H12.7489V18.8613C11.4382 19.2141 10.5201 20.3929 10.4989 21.75C10.4989 23.7484 11.9722 24.2215 13.0478 24.5665C13.5 24.6837 13.9318 24.8688 14.3284 25.1158C14.98 25.5883 15.1253 26.4995 14.6528 27.1511C14.404 27.494 14.0185 27.7118 13.5964 27.7477C13.192 27.7809 12.7929 27.6391 12.5 27.3585C12.1855 27.0751 12.0038 26.6732 11.999 26.2499H10.499C10.5036 27.614 11.4281 28.8032 12.749 29.1443V29.9999H14.249V29.1413C15.8223 28.7172 16.7538 27.0979 16.3297 25.5246C16.1533 24.8712 15.7577 24.2981 15.2091 23.9015Z" fill="#5E2AD7"/>
</g>
<defs>
<clipPath id="clip0">
<rect width="45" height="45" fill="white"/>
</clipPath>
</defs>
</svg>
