<svg width="45" height="45" viewBox="0 0 45 45" fill="none" xmlns="http://www.w3.org/2000/svg">
<g clip-path="url(#clip0)">
<path d="M31.7444 21.5451L30.4355 20.9676C30.3762 20.7486 30.3118 20.5402 30.2407 20.34L30.9673 19.0871C31.0998 18.858 31.1021 18.576 30.9732 18.3448C30.6148 17.7053 30.1869 17.1073 29.6973 16.5617C29.5153 16.3581 29.2369 16.2697 28.9708 16.3309L27.5945 16.6462C27.4334 16.5177 27.2649 16.3936 27.0913 16.2753L26.958 14.8181C26.9334 14.5519 26.769 14.3189 26.5266 14.2062C25.8699 13.899 25.1804 13.6674 24.4714 13.5159C24.1932 13.4585 23.9062 13.5626 23.7295 13.7851L22.7685 15.0002H22.231L21.27 13.7851C21.0934 13.5624 20.8063 13.4582 20.5281 13.5159C19.8191 13.6674 19.1296 13.899 18.4729 14.2062C18.2302 14.3187 18.0658 14.552 18.0415 14.8185L17.9082 16.2749C17.7345 16.3936 17.5671 16.5172 17.4058 16.6458L16.0288 16.3306C15.7626 16.2694 15.4842 16.3579 15.3022 16.5617C14.8125 17.1071 14.3847 17.7049 14.0264 18.3444C13.8974 18.5756 13.8997 18.8576 14.0323 19.0867L14.7596 20.3395C14.6885 20.5383 14.6241 20.7449 14.5655 20.9617L13.2054 21.5415C12.9291 21.6595 12.7498 21.9309 12.7498 22.2314V24.2689C12.7498 24.5694 12.929 24.8409 13.2053 24.9588L14.5654 25.5386C14.624 25.7554 14.6885 25.9616 14.7595 26.1604L14.0322 27.4132C13.8996 27.6423 13.8973 27.9243 14.0263 28.1555C14.3847 28.795 14.8125 29.393 15.3021 29.9387C15.4843 30.1421 15.7625 30.2304 16.0287 30.1694L17.4049 29.8541C17.5661 29.9826 17.7345 30.1068 17.9081 30.2251L18.0414 31.6818C18.066 31.9481 18.2304 32.1811 18.4728 32.2938C19.1294 32.6013 19.8189 32.833 20.528 32.9844C20.8063 33.0416 21.0931 32.9376 21.2699 32.7153L22.231 31.5002H22.7685L23.7295 32.7153C23.9059 32.9382 24.1931 33.0423 24.4714 32.9844C25.1804 32.8329 25.8699 32.6013 26.5266 32.2941C26.7691 32.1813 26.9334 31.9482 26.958 31.6818L27.0913 30.2254C27.265 30.1068 27.4324 29.9831 27.5938 29.8545L28.9708 30.1698C29.237 30.2311 29.5154 30.1425 29.6973 29.9387C30.187 29.3932 30.6149 28.7954 30.9732 28.1559C31.1021 27.9247 31.0999 27.6427 30.9674 27.4136L30.24 26.1608C30.3118 25.9601 30.3763 25.7518 30.4356 25.5328L31.7444 24.9553C32.0161 24.8352 32.1913 24.566 32.1913 24.269V22.2314C32.1913 21.9343 32.016 21.6652 31.7444 21.5451ZM30.6913 23.7801L29.4938 24.3086C29.2774 24.4043 29.1189 24.5965 29.066 24.8271C28.9817 25.2071 28.8656 25.5793 28.7189 25.9397C28.6294 26.1557 28.6457 26.4009 28.7628 26.6032L29.4491 27.7861C29.27 28.0708 29.0741 28.3446 28.8624 28.606L27.566 28.309C27.3303 28.2543 27.0827 28.317 26.9017 28.4775C26.6151 28.7296 26.3076 28.9568 25.9825 29.1568C25.7824 29.2812 25.652 29.492 25.6302 29.7266L25.5042 31.1032C25.2119 31.2225 24.9127 31.3245 24.6084 31.4087L23.7199 30.2852C23.5778 30.1053 23.361 30.0003 23.1318 30.0002H21.8677C21.6384 30.0003 21.4217 30.1052 21.2796 30.2851L20.3911 31.4086C20.0866 31.3242 19.7873 31.2221 19.4946 31.1028L19.3686 29.7261C19.3469 29.4918 19.2168 29.2813 19.017 29.1571C18.6921 28.9567 18.3846 28.7294 18.0978 28.4774C17.9167 28.317 17.6692 28.2543 17.4335 28.3089L16.1371 28.6055C15.9254 28.3442 15.7295 28.0704 15.5504 27.7856L16.2367 26.6028C16.3538 26.4004 16.37 26.1552 16.2807 25.9392C16.1339 25.5789 16.0178 25.2068 15.9335 24.827C15.88 24.5931 15.7177 24.399 15.497 24.3048L14.2498 23.7735V22.7268L15.4971 22.1955C15.7178 22.1013 15.8801 21.9072 15.9336 21.6733C16.0179 21.2933 16.134 20.9212 16.2808 20.5608C16.3702 20.3448 16.3539 20.0995 16.2368 19.8972L15.5505 18.7143C15.7296 18.4296 15.9255 18.1558 16.1372 17.8944L17.4336 18.1914C17.6693 18.2459 17.9167 18.1832 18.0979 18.0229C18.3845 17.7708 18.692 17.5436 19.0171 17.3436C19.2172 17.2192 19.3476 17.0084 19.3694 16.7738L19.4954 15.3972C19.7878 15.2779 20.0869 15.1759 20.3912 15.0918L21.2797 16.2153C21.4218 16.3952 21.6385 16.5002 21.8678 16.5002H23.1319C23.3612 16.5001 23.5779 16.3952 23.72 16.2153L24.6085 15.0918C24.913 15.176 25.2123 15.278 25.505 15.3972L25.631 16.7741C25.6527 17.0084 25.7828 17.2189 25.9826 17.3432C26.3075 17.5435 26.615 17.7708 26.9018 18.0228C27.0829 18.1832 27.3304 18.2459 27.5661 18.1913L28.8625 17.8947C29.0744 18.156 29.2702 18.4298 29.4492 18.7146L28.7629 19.8975C28.6458 20.0999 28.6295 20.3453 28.7189 20.5614C28.8659 20.9215 28.9821 21.2935 29.0661 21.6732C29.119 21.9038 29.2775 22.096 29.4939 22.1917L30.6914 22.7202V23.7801H30.6913Z" fill="#5E2AD7"/>
<path d="M22.5 17.9998C19.6005 17.9998 17.25 20.3503 17.25 23.2498C17.2534 26.1479 19.6019 28.4964 22.5 28.4998C25.3995 28.4998 27.75 26.1493 27.75 23.2498C27.75 20.3503 25.3995 17.9998 22.5 17.9998ZM22.5 26.9998C20.429 26.9998 18.75 25.3208 18.75 23.2498C18.7524 21.1797 20.4299 19.5022 22.5 19.4998C24.571 19.4998 26.25 21.1787 26.25 23.2498C26.25 25.3208 24.571 26.9998 22.5 26.9998Z" fill="#5E2AD7"/>
<path d="M6.02625 20.6815C6.49031 20.1447 6.747 19.4596 6.75 18.75C6.75 17.0932 5.40684 15.75 3.75 15.75C2.09316 15.75 0.75 17.0933 0.75 18.7501C0.753 19.4597 1.00969 20.1448 1.47375 20.6816C0.563344 21.2174 0.00309377 22.1937 1.96356e-08 23.2501V28.5001C-9.37304e-05 28.9142 0.335531 29.25 0.749625 29.2501C0.749719 29.2501 0.749906 29.2501 0.75 29.2501H6.75C7.16409 29.2502 7.49991 28.9146 7.5 28.5005C7.5 28.5004 7.5 28.5002 7.5 28.5001V23.2501C7.49691 22.1937 6.93666 21.2174 6.02625 20.6815ZM3.75 17.2501C4.57847 17.2501 5.25 17.9216 5.25 18.7501C5.25 19.5786 4.57847 20.2501 3.75 20.2501C2.92153 20.2501 2.25 19.5786 2.25 18.7501C2.25094 17.922 2.922 17.251 3.75 17.2501ZM6 27.7501H1.5V23.2501C1.50094 22.4221 2.172 21.751 3 21.7501H4.5C5.328 21.751 5.99906 22.4221 6 23.2501V27.7501Z" fill="#5E2AD7"/>
<path d="M26.9322 39C26.6107 37.1155 25.1345 35.6393 23.25 35.3178V34.5H21.75V35.3178C19.8655 35.6393 18.3893 37.1155 18.0678 39H17.25V40.5H18.0678C18.3893 42.3845 19.8655 43.8607 21.75 44.1822V45H23.25V44.1822C25.1345 43.8607 26.6107 42.3845 26.9322 40.5H27.75V39H26.9322ZM25.3935 40.5C25.1199 41.55 24.3 42.3699 23.25 42.6435V42H21.75V42.6435C20.7 42.3699 19.8801 41.55 19.6065 40.5H20.25V39H19.6065C19.8801 37.95 20.7 37.1301 21.75 36.8565V37.5H23.25V36.8565C24.3 37.1301 25.1199 37.95 25.3935 39H24.75V40.5H25.3935Z" fill="#5E2AD7"/>
<path d="M22.3484 0.00307874C19.9805 0.0826725 18.0793 1.98383 17.9998 4.35177C18.0106 5.92217 18.8719 7.3633 20.2498 8.11677V11.2505C20.2497 11.6645 20.5853 12.0004 20.9994 12.0005C20.9995 12.0005 20.9997 12.0005 20.9998 12.0005H23.9998C24.4138 12.0005 24.7497 11.6649 24.7498 11.2508C24.7498 11.2507 24.7498 11.2505 24.7498 11.2505V8.11677C26.1276 7.3633 26.9889 5.92217 26.9998 4.35177C26.9162 1.86645 24.8338 -0.0804525 22.3484 0.00307874ZM23.2498 10.5005H21.7498V9.00045H23.2498V10.5005ZM23.7089 6.95774C23.4823 7.05495 23.3186 7.2583 23.2719 7.50045H21.7275C21.6808 7.2583 21.5172 7.05495 21.2905 6.95774C20.2227 6.52977 19.5164 5.50208 19.4998 4.35177C19.584 2.69492 20.9954 1.42011 22.6524 1.50439C24.1914 1.58267 25.4216 2.81277 25.4998 4.35177C25.4831 5.50208 24.7768 6.52977 23.7089 6.95774Z" fill="#5E2AD7"/>
<path d="M16.5002 3.74976H15.0002V5.24976H16.5002V3.74976Z" fill="#5E2AD7"/>
<path d="M30 3.74976H28.5V5.24976H30V3.74976Z" fill="#5E2AD7"/>
<path d="M28.4967 0.219623L27.436 1.28027L28.4967 2.34092L29.5573 1.28027L28.4967 0.219623Z" fill="#5E2AD7"/>
<path d="M16.4991 0.222309L15.4385 1.28296L16.4991 2.34361L17.5598 1.28296L16.4991 0.222309Z" fill="#5E2AD7"/>
<path d="M16.5003 6.43886L15.4397 7.49951L16.5003 8.56016L17.561 7.49951L16.5003 6.43886Z" fill="#5E2AD7"/>
<path d="M28.4996 6.43935L27.439 7.5L28.4996 8.56065L29.5603 7.5L28.4996 6.43935Z" fill="#5E2AD7"/>
<path d="M42.0005 21.7502H39.7505C38.922 21.7502 38.2505 21.0787 38.2505 20.2502C38.2505 19.4218 38.922 18.7502 39.7505 18.7502H44.2505V17.2502H42.0005V15.7502H40.5005V17.2502H39.7505C38.0936 17.2502 36.7505 18.5934 36.7505 20.2502C36.7505 21.9071 38.0936 23.2502 39.7505 23.2502H42.0005C42.829 23.2502 43.5005 23.9218 43.5005 24.7502C43.5005 25.5787 42.829 26.2502 42.0005 26.2502H37.5005V27.7502H40.5005V29.2502H42.0005V27.7502C43.6573 27.7502 45.0005 26.4071 45.0005 24.7502C45.0005 23.0934 43.6573 21.7502 42.0005 21.7502Z" fill="#5E2AD7"/>
<path d="M5.99729 30.4497L4.62329 31.0503C6.60873 35.613 10.2669 39.2415 14.8457 41.1896L15.4345 39.8105C11.2077 38.0116 7.83048 34.6618 5.99729 30.4497Z" fill="#5E2AD7"/>
<path d="M39.003 30.4495C37.1887 34.6145 33.8648 37.9382 29.6997 39.7523L30.3003 41.127C34.8118 39.162 38.4121 35.5617 40.3769 31.05L39.003 30.4495Z" fill="#5E2AD7"/>
<path d="M31.77 6.09058L31.0566 7.40964C34.142 9.07689 36.6735 11.6085 38.3405 14.6939L39.6604 13.9797C37.8545 10.6379 35.1122 7.89592 31.77 6.09058Z" fill="#5E2AD7"/>
<path d="M13.23 6.09058C9.88824 7.8963 7.14624 10.6382 5.34033 13.9798L6.66014 14.6939C8.32674 11.6084 10.8581 9.0767 13.9434 7.40964L13.23 6.09058Z" fill="#5E2AD7"/>
</g>
<defs>
<clipPath id="clip0">
<rect width="45" height="45" fill="white"/>
</clipPath>
</defs>
</svg>
