<svg width="45" height="45" viewBox="0 0 45 45" fill="none" xmlns="http://www.w3.org/2000/svg">
<path d="M22.5 0C10.4553 0 3 8.95388 3 17.25C3 22.76 5.51878 28.7365 9.75 33.2966V41.25C9.74972 41.664 10.0852 41.9997 10.4992 42C10.4994 42 10.4997 42 10.5 42H13.5V44.25C13.4997 44.664 13.8352 44.9997 14.2492 45C14.2494 45 14.2497 45 14.25 45H30.75C31.164 45.0003 31.4997 44.6648 31.5 44.2508C31.5 44.2506 31.5 44.2503 31.5 44.25V42H34.5C34.914 42.0003 35.2497 41.6648 35.25 41.2508C35.25 41.2506 35.25 41.2503 35.25 41.25V33.2966C39.4812 28.7365 42 22.76 42 17.25C42 8.95388 34.5447 0 22.5 0ZM30 43.5H15V42H30V43.5ZM33.75 40.5H11.25V39H33.75V40.5ZM33.75 37.5H11.25V36H33.75V37.5ZM33.9558 32.4836C33.8238 32.6231 33.7501 32.8079 33.75 33V34.5H11.25V33C11.2499 32.8079 11.1762 32.6231 11.0442 32.4836C6.94631 28.169 4.5 22.4744 4.5 17.25C4.5 9.67528 11.3818 1.5 22.5 1.5C33.6182 1.5 40.5 9.67528 40.5 17.25C40.5 22.4744 38.0537 28.169 33.9558 32.4836Z" fill="#5E2AD7"/>
<path d="M36.903 15.5815L35.2434 15.2344C35.1621 14.8726 35.0639 14.51 34.9496 14.1511L36.2212 13.0165C36.4613 12.8018 36.5379 12.4581 36.4116 12.1618C35.9246 11.0377 35.3024 9.97706 34.5585 9.00356C34.3664 8.74725 34.0319 8.64253 33.728 8.74359L32.124 9.26803C31.8691 8.99119 31.6018 8.72456 31.3242 8.47116L31.8487 6.87891C31.9496 6.57328 31.8444 6.23738 31.5872 6.04397C30.609 5.30269 29.5443 4.68309 28.4166 4.19897C28.1218 4.07438 27.7805 4.15031 27.5663 4.38797L26.4244 5.6565C26.0633 5.54297 25.7007 5.44556 25.3367 5.36428L24.9844 3.60281C24.9144 3.25228 24.6065 3 24.249 3H20.7495C20.392 2.99991 20.0843 3.25228 20.0141 3.60281L19.6618 5.36428C19.2985 5.44481 18.936 5.54222 18.5741 5.6565L17.4323 4.38797C17.2175 4.15125 16.8768 4.0755 16.582 4.19897C15.4543 4.68338 14.3896 5.30288 13.4113 6.04397C13.1542 6.23738 13.0489 6.57337 13.1499 6.87891L13.675 8.47116C13.3967 8.72531 13.1294 8.99194 12.8753 9.26803L11.272 8.74284C10.9679 8.64366 10.6345 8.74772 10.4407 9.00216C9.6963 9.97613 9.0737 11.0375 8.58695 12.1626C8.46077 12.4586 8.53736 12.8021 8.77736 13.0165L10.0488 14.1511C9.93452 14.51 9.83636 14.8718 9.75508 15.2336L8.09542 15.5815C7.74799 15.6542 7.49917 15.9605 7.49927 16.3154V19.801C7.49917 20.156 7.74808 20.4622 8.09542 20.5349L9.75508 20.8821C9.83636 21.2438 9.93452 21.6065 10.0488 21.9653L8.77736 23.0999C8.53727 23.3146 8.46067 23.6584 8.58695 23.9546C9.07389 25.0788 9.69611 26.1394 10.44 27.1129C10.6325 27.3686 10.9666 27.4732 11.2705 27.3728L12.8745 26.8484C13.1294 27.1252 13.3967 27.3919 13.6743 27.6453L13.1499 29.2375C13.0488 29.5429 13.1541 29.8787 13.4113 30.0717C14.3893 30.8135 15.454 31.4333 16.582 31.9175C16.8767 32.0421 17.218 31.9661 17.4323 31.7285L18.5741 30.4599C18.9367 30.5742 19.3022 30.6724 19.6669 30.7537L20.0155 32.4053C20.089 32.7519 20.395 33 20.7494 33H24.2489C24.6033 33 24.9094 32.7519 24.9828 32.4053L25.3315 30.7537C25.6962 30.6724 26.0617 30.5742 26.4242 30.4599L27.5661 31.7285C27.7802 31.9664 28.1216 32.0423 28.4164 31.9175C29.5443 31.4333 30.609 30.8135 31.587 30.0717C31.8443 29.8787 31.9495 29.5429 31.8485 29.2375L31.324 27.6459C31.6001 27.3933 31.8675 27.1267 32.1231 26.8491L33.727 27.3735C34.0309 27.4739 34.3649 27.3697 34.5576 27.1142C35.302 26.1402 35.9245 25.0789 36.4113 23.9538C36.5375 23.6577 36.4609 23.3142 36.2209 23.0998L34.9494 21.9653C35.0636 21.6064 35.1618 21.2445 35.2431 20.8827L36.9027 20.5348C37.2502 20.4622 37.4991 20.1559 37.499 19.8009V16.3153C37.4993 15.9605 37.2504 15.6542 36.903 15.5815ZM35.9992 19.1917L34.453 19.5161C34.1544 19.5786 33.9232 19.8158 33.8686 20.1159C33.7553 20.7366 33.5902 21.3466 33.3749 21.9397C33.2707 22.2277 33.3522 22.5502 33.5807 22.7542L34.8112 23.8521C34.486 24.5243 34.1063 25.1688 33.676 25.7791L32.1218 25.2708C31.833 25.1762 31.5157 25.2652 31.3183 25.4963C30.907 25.9789 30.457 26.4272 29.9728 26.8367C29.7387 27.0343 29.6483 27.3544 29.7444 27.6453L30.2527 29.187C29.639 29.6166 28.9911 29.995 28.3154 30.3186L27.2102 29.0902C27.007 28.864 26.6871 28.7833 26.4009 28.8859C25.8037 29.0994 25.1901 29.2641 24.5662 29.3781C24.2661 29.4322 24.0286 29.6627 23.9656 29.9611L23.641 31.5H21.3573L21.0328 29.9612C20.9697 29.6629 20.7324 29.4323 20.4323 29.3782C19.8084 29.2642 19.1947 29.0996 18.5976 28.886C18.3114 28.7823 17.9909 28.8632 17.7882 29.0903L16.683 30.3187C16.0075 29.9949 15.3595 29.6165 14.7458 29.1871L15.2541 27.6446C15.3502 27.3537 15.2597 27.0337 15.0256 26.836C14.5411 26.4271 14.0911 25.9791 13.6801 25.4964C13.4827 25.2651 13.165 25.1756 12.8759 25.2701L11.3225 25.7784C10.892 25.1686 10.5126 24.5243 10.188 23.8522L11.4177 22.7542C11.6463 22.5503 11.7278 22.2278 11.6235 21.9398C11.4085 21.3464 11.2434 20.7361 11.1298 20.1153C11.0752 19.815 10.8441 19.5778 10.5454 19.5155L8.99917 19.1917V16.9248L10.5453 16.6003C10.844 16.5379 11.0752 16.3007 11.1297 16.0005C11.2431 15.3799 11.4083 14.7698 11.6234 14.1768C11.7277 13.8888 11.6461 13.5663 11.4176 13.3624L10.1872 12.2645C10.5122 11.5924 10.8919 10.9481 11.3224 10.3382L12.8758 10.8465C13.1652 10.941 13.483 10.8517 13.6808 10.6202C14.0924 10.1374 14.5426 9.68887 15.0269 9.27909C15.2601 9.08119 15.3499 8.76159 15.254 8.47125L14.7457 6.92953C15.3595 6.49988 16.0077 6.12141 16.6837 5.79797L17.7881 7.02628C17.9905 7.25391 18.3113 7.33491 18.5975 7.23066C19.1943 7.01672 19.8077 6.85228 20.4315 6.73922C20.7347 6.68456 20.9737 6.45019 21.0343 6.14813L21.364 4.5H23.6345L23.9641 6.14794C24.0245 6.45009 24.2635 6.68456 24.5669 6.73903C25.1907 6.85228 25.8041 7.01662 26.401 7.23047C26.6872 7.3335 27.0073 7.25269 27.2103 7.02609L28.3155 5.79778C28.9911 6.1215 29.639 6.49997 30.2528 6.92934L29.7445 8.47181C29.6484 8.76272 29.7388 9.08278 29.9729 9.28041C30.4573 9.68934 30.9074 10.1374 31.3184 10.62C31.5162 10.8508 31.8335 10.9401 32.1226 10.8463L33.676 10.338C34.1065 10.9478 34.486 11.5921 34.8106 12.2643L33.5809 13.3622C33.3523 13.5661 33.2709 13.8886 33.3751 14.1766C33.5902 14.7699 33.7553 15.3802 33.8688 16.0011C33.9235 16.3013 34.1545 16.5385 34.4532 16.6009L35.9992 16.9248V19.1917Z" fill="#5E2AD7"/>
<path d="M29.0544 17.9998C29.4181 17.3585 29.7215 16.6847 29.9604 15.9871C30.6562 13.9004 30.4547 12.1668 29.3935 11.1055C28.3336 10.0443 26.6008 9.84355 24.5119 10.5386C23.8143 10.7775 23.1406 11.0809 22.4992 11.4446C21.8579 11.0809 21.1841 10.7775 20.4865 10.5386C18.3991 9.84355 16.6654 10.0435 15.6049 11.1055C14.5437 12.1668 14.3422 13.9005 15.038 15.9871C15.2769 16.6847 15.5803 17.3585 15.944 17.9998C15.5802 18.6411 15.2769 19.3149 15.038 20.0125C14.3422 22.0992 14.5436 23.8328 15.6049 24.8941C16.3086 25.5601 17.2526 25.9116 18.2204 25.8682C18.9926 25.8543 19.7577 25.7167 20.4865 25.461C21.1841 25.2221 21.8579 24.9188 22.4992 24.555C23.1406 24.9188 23.8143 25.2221 24.5119 25.461C25.2407 25.7167 26.0057 25.8543 26.778 25.8682C27.7459 25.9116 28.6898 25.56 29.3935 24.8941C30.4547 23.8328 30.6562 22.0991 29.9604 20.0125C29.7215 19.3149 29.4181 18.6411 29.0544 17.9998ZM16.6654 12.166C17.0953 11.7876 17.6584 11.5961 18.2299 11.6343C18.8375 11.6481 19.439 11.7587 20.0119 11.9616C20.3603 12.0809 20.7015 12.2199 21.034 12.378C19.433 13.5298 18.0293 14.9335 16.8775 16.5345C16.7193 16.2021 16.5803 15.8608 16.4611 15.5124C15.9617 14.0147 16.0364 12.7953 16.6654 12.166ZM20.0119 24.0379C18.5141 24.5381 17.2947 24.4634 16.6655 23.8335C16.0364 23.2043 15.9617 21.9848 16.4612 20.4871C16.5804 20.1387 16.7194 19.7976 16.8775 19.465C17.4521 20.2644 18.0908 21.0158 18.7873 21.7116C19.4832 22.4081 20.2345 23.0468 21.0339 23.6214C20.7015 23.7797 20.3602 23.9187 20.0119 24.0379ZM17.6905 17.9998C18.9472 16.0845 20.5839 14.4477 22.4992 13.1911C24.4145 14.4478 26.0513 16.0845 27.3079 17.9998C26.0512 19.9151 24.4145 21.5519 22.4992 22.8085C20.5839 21.5519 18.9471 19.9151 17.6905 17.9998ZM28.333 23.8335C27.7031 24.4634 26.4843 24.5381 24.9866 24.0379C24.6382 23.9186 24.2971 23.7796 23.9645 23.6215C25.5655 22.4697 26.9692 21.066 28.121 19.465C28.2792 19.7976 28.4182 20.1387 28.5374 20.4871C29.0368 21.9849 28.9621 23.2043 28.333 23.8335ZM28.5373 15.5125C28.418 15.8609 28.279 16.2021 28.1209 16.5346C26.9691 14.9336 25.5654 13.5299 23.9644 12.3781C24.2969 12.2199 24.6381 12.0809 24.9865 11.9616C25.5594 11.7587 26.1609 11.6481 26.7685 11.6343C27.34 11.5961 27.903 11.7876 28.333 12.166C28.9621 12.7953 29.0369 14.0147 28.5373 15.5125Z" fill="#5E2AD7"/>
<path d="M22.5 16.875C21.8787 16.875 21.375 17.3787 21.375 18C21.375 18.6213 21.8787 19.125 22.5 19.125C23.1213 19.125 23.625 18.6213 23.625 18C23.6244 17.379 23.121 16.8757 22.5 16.875ZM22.5 18.375C22.2929 18.375 22.125 18.2071 22.125 18C22.125 17.7929 22.2929 17.625 22.5 17.625C22.7071 17.625 22.875 17.7929 22.875 18C22.8746 18.2069 22.7069 18.3746 22.5 18.375Z" fill="#5E2AD7"/>
<path d="M3 1.5V0.9645V0H1.5V0.9645V1.5H0V3H1.5V4.5H3V3H4.5V1.5H3Z" fill="#5E2AD7"/>
<path d="M43.5 1.5V0.9645V0H42V0.9645V1.5H40.5V3H42V4.5H43.5V3H45V1.5H43.5Z" fill="#5E2AD7"/>
<path d="M5.25 42V40.5H3.75V42H2.25V43.5H3.75V43.875V45H5.25V43.875V43.5H6.75V42H5.25Z" fill="#5E2AD7"/>
<path d="M43.5 40.5V39.9645V39H42V39.9645V40.5H40.5V42H42V43.5H43.5V42H45V40.5H43.5Z" fill="#5E2AD7"/>
</svg>
