<svg width="45" height="45" viewBox="0 0 45 45" fill="none" xmlns="http://www.w3.org/2000/svg">
<g clip-path="url(#clip0)">
<path d="M32.9996 12.0002C32.9994 12.4584 32.97 12.9162 32.9116 13.3706L34.3984 13.564C34.4658 13.0454 34.4997 12.5232 34.4995 12.0002V11.9541L32.9996 12.0002Z" fill="#5E2AD7"/>
<path d="M12.9629 4.71643C12.6445 5.13221 12.3538 5.56843 12.0928 6.02237L13.3921 6.77087C13.621 6.37374 13.8754 5.99181 14.1538 5.62759L12.9629 4.71643Z" fill="#5E2AD7"/>
<path d="M32.6458 14.7169C32.5274 15.1593 32.3799 15.5934 32.2041 16.0162L33.5898 16.5919C33.7906 16.1075 33.9592 15.6103 34.0945 15.1036L32.6458 14.7169Z" fill="#5E2AD7"/>
<path d="M12.0914 13.3918L10.6046 13.5896C10.6734 14.1087 10.7762 14.6227 10.9122 15.1284L12.3609 14.7373C12.2415 14.2952 12.1515 13.8458 12.0914 13.3918Z" fill="#5E2AD7"/>
<path d="M22.4998 22.4998C22.045 22.4999 21.5907 22.4708 21.1397 22.4126L20.9478 23.9009C21.4624 23.9666 21.9809 23.9997 22.4998 23.9998H22.5115L22.4998 22.4998Z" fill="#5E2AD7"/>
<path d="M25.5677 0.395752L25.1854 1.84597C25.6283 1.9626 26.0628 2.10866 26.4862 2.28322L27.0575 0.896002C26.5726 0.696221 26.0749 0.529158 25.5677 0.395752Z" fill="#5E2AD7"/>
<path d="M34.0813 8.84766L32.634 9.24169C32.7543 9.68316 32.8452 10.1321 32.9057 10.5857L34.3925 10.3865C34.3225 9.86728 34.2185 9.35325 34.0813 8.84766Z" fill="#5E2AD7"/>
<path d="M22.5002 0H22.4658L22.5002 1.5C22.9476 1.50019 23.3945 1.52831 23.8383 1.58419L24.0273 0.0959063C23.5208 0.0320625 23.0108 0 22.5002 0Z" fill="#5E2AD7"/>
<path d="M28.4672 1.58655L27.7202 2.88733C28.1176 3.1158 28.4997 3.36977 28.8642 3.64755L29.7739 2.45514C29.3575 2.13789 28.921 1.84783 28.4672 1.58655Z" fill="#5E2AD7"/>
<path d="M16.1184 20.3392L15.2073 21.5301C15.623 21.848 16.0587 22.139 16.5117 22.401L17.2617 21.1017C16.8649 20.872 16.4829 20.6174 16.1184 20.3392Z" fill="#5E2AD7"/>
<path d="M29.927 19.4233C29.6033 19.7474 29.2588 20.0501 28.8958 20.3293L29.8098 21.5188C30.2252 21.1997 30.6192 20.8535 30.989 20.4824L29.927 19.4233Z" fill="#5E2AD7"/>
<path d="M10.5974 10.4612C10.5328 10.9716 10.5003 11.4855 10.5 12V12.0234L12 12C12.0001 11.5487 12.0287 11.0978 12.0857 10.6502L10.5974 10.4612Z" fill="#5E2AD7"/>
<path d="M11.4012 7.43152C11.2014 7.9163 11.0338 8.41374 10.8994 8.92055L12.3496 9.30436C12.467 8.8613 12.6135 8.42649 12.7884 8.00283L11.4012 7.43152Z" fill="#5E2AD7"/>
<path d="M12.8028 16.0366L11.4185 16.6137C11.6199 17.0967 11.8529 17.566 12.1157 18.0185L13.4121 17.2641C13.1823 16.8688 12.9787 16.4587 12.8028 16.0366Z" fill="#5E2AD7"/>
<path d="M31.5954 17.2482C31.3666 17.6446 31.1119 18.0256 30.8329 18.3885L32.0209 19.3041C32.3407 18.8886 32.6326 18.4523 32.8946 17.9982L31.5954 17.2482Z" fill="#5E2AD7"/>
<path d="M27.7554 21.0919C27.3586 21.3211 26.9477 21.5247 26.5249 21.7013L27.1035 23.0856C27.5858 22.8839 28.0544 22.6515 28.5069 22.3898L27.7554 21.0919Z" fill="#5E2AD7"/>
<path d="M30.9557 3.48596L29.8981 4.54946C30.2231 4.87327 30.5271 5.21752 30.8085 5.57996L31.9936 4.66009C31.6731 4.24684 31.3264 3.85468 30.9557 3.48596Z" fill="#5E2AD7"/>
<path d="M25.228 22.1422C24.7852 22.2603 24.3353 22.3499 23.8811 22.4102L24.0774 23.897C24.5964 23.8285 25.1105 23.7262 25.6163 23.5908L25.228 22.1422Z" fill="#5E2AD7"/>
<path d="M17.8738 0.92395C17.3917 1.12617 16.9232 1.35932 16.4712 1.62192L17.2256 2.91829C17.6214 2.68814 18.0317 2.48386 18.4539 2.30676L17.8738 0.92395Z" fill="#5E2AD7"/>
<path d="M18.4932 21.7085L17.9189 23.0942C18.4034 23.2947 18.9006 23.4627 19.4072 23.5974L19.7939 22.1487C19.3511 22.031 18.9165 21.8839 18.4932 21.7085Z" fill="#5E2AD7"/>
<path d="M15.1693 2.49792C14.7551 2.81827 14.3622 3.16524 13.993 3.53649L15.0566 4.59408C15.3798 4.26924 15.7238 3.96586 16.0864 3.68583L15.1693 2.49792Z" fill="#5E2AD7"/>
<path d="M20.8984 0.105469C20.3796 0.175406 19.8659 0.278625 19.3604 0.414563L19.7515 1.86328C20.1938 1.74375 20.6435 1.65319 21.0976 1.59225L20.8984 0.105469Z" fill="#5E2AD7"/>
<path d="M14.1772 18.403L12.9907 19.3214C13.3106 19.7349 13.6565 20.1275 14.0264 20.497L15.0855 19.435C14.761 19.1107 14.4576 18.766 14.1772 18.403Z" fill="#5E2AD7"/>
<path d="M32.8721 5.96033L31.5757 6.71614C31.8065 7.11158 32.0112 7.52164 32.1887 7.9437L33.5715 7.36217C33.3688 6.88029 33.1351 6.41211 32.8721 5.96033Z" fill="#5E2AD7"/>
<path d="M30.5244 8.94325C30.4124 8.83394 30.269 8.7624 30.1143 8.73878L25.3271 8.00706L23.1797 3.43159C23.0037 3.05659 22.5571 2.89525 22.1821 3.07122C22.0237 3.14556 21.8962 3.27306 21.8218 3.43159L19.6744 8.00706L14.8872 8.73878C14.6094 8.78134 14.3788 8.9755 14.2896 9.24194C14.2003 9.50847 14.2675 9.80247 14.4639 10.0037L17.9495 13.5757L17.1248 18.6294C17.0581 19.0382 17.3355 19.4237 17.7443 19.4903C17.9103 19.5174 18.0805 19.4879 18.2277 19.4065L22.5007 17.0452L26.7736 19.4065C27.0249 19.5456 27.3336 19.5288 27.5683 19.3633C27.8029 19.1977 27.9226 18.9128 27.8767 18.6294L27.0519 13.5757L30.5376 10.0037C30.8267 9.70722 30.8209 9.23247 30.5244 8.94325ZM25.7138 12.7993C25.5474 12.9696 25.4719 13.2089 25.5101 13.4438L26.1474 17.3469L22.8632 15.532C22.6376 15.407 22.3636 15.407 22.1381 15.532L18.854 17.3469L19.4912 13.4438C19.5294 13.2089 19.4539 12.9696 19.2876 12.7993L16.5571 10.0007L20.2969 9.42934C20.5441 9.39166 20.7562 9.23312 20.8623 9.00672L22.5007 5.51537L24.1391 9.00681C24.2453 9.23322 24.4574 9.39175 24.7045 9.42944L28.4443 10.0007L25.7138 12.7993Z" fill="#5E2AD7"/>
<path d="M21.4914 29.4331L12.4936 21.6342C11.6443 20.9533 10.4873 20.7998 9.48994 21.2358C9.39403 20.8842 9.26288 20.4293 9.08344 19.8376C8.03794 16.3943 7.50441 12.816 7.5 9.2175V8.25C7.5 6.17897 5.82103 4.5 3.75 4.5C1.67897 4.5 1.65431e-06 6.17897 1.65431e-06 8.25V29.636C-0.00168585 31.9841 1.28775 34.1431 3.35597 35.2552L9.75 38.6982V44.25C9.74972 44.664 10.0852 44.9997 10.4992 45C10.4994 45 10.4997 45 10.5 45H21C21.414 45.0003 21.7497 44.6648 21.75 44.2508C21.75 44.2506 21.75 44.2503 21.75 44.25V30C21.7499 29.7825 21.6556 29.5758 21.4914 29.4331ZM20.25 43.5H11.25V38.25C11.2499 37.9741 11.0987 37.7205 10.856 37.5893L4.06716 33.9338C2.48494 33.0836 1.4985 31.4321 1.5 29.636V8.25C1.5 7.00734 2.50735 6 3.75 6C4.99266 6 6 7.00734 6 8.25V9.2175C6.0045 12.9632 6.55978 16.6879 7.64794 20.2719C8.01197 21.4761 8.15625 22.0451 8.21335 22.3081C7.41891 23.5156 7.62084 25.1215 8.68941 26.0947L15.2453 32.0552L16.2547 30.9448L9.69872 24.9844C9.11325 24.4521 9.07013 23.5459 9.60244 22.9604C10.1034 22.4093 10.9431 22.3341 11.5342 22.7871L20.25 30.3428V43.5Z" fill="#5E2AD7"/>
<path d="M41.2508 4.5C39.1807 4.50244 37.5033 6.17991 37.5008 8.25V9.2175C37.4965 12.8158 36.963 16.3939 35.9173 19.8368C35.7379 20.4293 35.6068 20.8842 35.5108 21.2358C34.5027 20.8007 33.3364 20.9616 32.4837 21.6532L23.5093 29.4331C23.3451 29.5758 23.2508 29.7825 23.2507 30V44.25C23.2505 44.664 23.5859 44.9997 23.9999 45C24.0002 45 24.0005 45 24.0007 45H34.5007C34.9147 45.0003 35.2505 44.6648 35.2507 44.2508C35.2507 44.2506 35.2507 44.2503 35.2507 44.25V38.6982L41.644 35.2551C43.7126 34.1434 45.0024 31.9843 45.0007 29.6359V8.25C44.9984 6.17991 43.3209 4.50244 41.2508 4.5ZM43.5008 29.636C43.5023 31.4323 42.5156 33.0839 40.9329 33.9338L34.1449 37.5893C33.9021 37.7205 33.7509 37.9741 33.7508 38.25V43.5H24.7508V30.342L33.4432 22.8062C34.0609 22.3117 34.9624 22.4114 35.4569 23.0289C35.6678 23.2923 35.779 23.6217 35.7709 23.959C35.7631 24.3509 35.5934 24.7222 35.3021 24.9845L28.7462 30.9449L29.7555 32.0553L36.3114 26.0948C37.38 25.1216 37.5819 23.5157 36.7875 22.3082C36.8446 22.0452 36.9889 21.4754 37.3529 20.2713C38.4411 16.6874 38.9963 12.9629 39.0008 9.2175V8.25C39.0008 7.00734 40.0082 6 41.2508 6C42.4935 6 43.5008 7.00734 43.5008 8.25V29.636Z" fill="#5E2AD7"/>
</g>
<defs>
<clipPath id="clip0">
<rect width="45" height="45" fill="white"/>
</clipPath>
</defs>
</svg>
