<svg width="512" height="325" viewBox="0 0 512 325" fill="none" xmlns="http://www.w3.org/2000/svg">
<g clip-path="url(#clip0)">
<path d="M488.876 166.466C459.112 221.35 427.435 279.105 351.643 279.105C275.852 279.105 152.815 180.484 214.411 166.466C276.49 152.339 324.03 92.1025 351.643 53.8271C435.664 -62.636 565.058 25.9868 488.876 166.466Z" fill="#774CDA"/>
<path d="M130.968 89.3761C143.771 89.3761 154.149 79.1637 154.149 66.566C154.149 53.9684 143.771 43.756 130.968 43.756C118.166 43.756 107.787 53.9684 107.787 66.566C107.787 79.1637 118.166 89.3761 130.968 89.3761Z" fill="#F2F2F2"/>
<path d="M211.494 101.382C231.035 101.382 246.876 85.7949 246.876 66.567C246.876 47.339 231.035 31.7516 211.494 31.7516C191.953 31.7516 176.112 47.339 176.112 66.567C176.112 85.7949 191.953 101.382 211.494 101.382Z" fill="#F2F2F2"/>
<path d="M308.325 295.377L308.325 294.577C309.942 294.577 311.584 294.544 313.205 294.48L313.237 295.28C311.605 295.344 309.953 295.377 308.325 295.377ZM303.414 295.285C301.788 295.222 300.138 295.126 298.511 295L298.575 294.202C300.192 294.328 301.831 294.423 303.446 294.485L303.414 295.285ZM318.14 294.99L318.076 294.192C319.69 294.065 321.323 293.903 322.93 293.712L323.028 294.507C321.41 294.699 319.766 294.861 318.14 294.99ZM293.622 294.523C292.001 294.332 290.364 294.106 288.757 293.853L288.886 293.063C290.482 293.315 292.108 293.539 293.719 293.728L293.622 294.523ZM327.892 293.831L327.762 293.041C329.357 292.788 330.972 292.497 332.562 292.179L332.724 292.963C331.124 293.284 329.498 293.576 327.892 293.831V293.831ZM283.924 292.99C282.323 292.671 280.71 292.316 279.13 291.935L279.323 291.158C280.893 291.536 282.495 291.889 284.085 292.205L283.924 292.99ZM337.518 291.903L337.323 291.126C338.898 290.744 340.484 290.327 342.037 289.884L342.263 290.653C340.699 291.099 339.103 291.519 337.518 291.903V291.903ZM274.383 290.69C272.814 290.245 271.236 289.762 269.691 289.257L269.948 288.497C271.483 289 273.05 289.479 274.608 289.921L274.383 290.69ZM346.953 289.214L346.695 288.455C348.23 287.95 349.776 287.407 351.291 286.841L351.58 287.589C350.055 288.159 348.498 288.706 346.953 289.214ZM265.05 287.632C263.524 287.063 261.987 286.455 260.481 285.824L260.8 285.088C262.296 285.714 263.822 286.319 265.338 286.883L265.05 287.632ZM356.123 285.786L355.804 285.05C357.291 284.425 358.784 283.763 360.241 283.081L360.591 283.804C359.123 284.49 357.62 285.157 356.123 285.786ZM255.992 283.836C254.515 283.145 253.033 282.417 251.59 281.67L251.968 280.962C253.402 281.703 254.873 282.427 256.341 283.113L255.992 283.836ZM364.975 281.645L364.596 280.937C366.028 280.195 367.463 279.415 368.861 278.62L369.268 279.312C367.861 280.113 366.417 280.898 364.975 281.645ZM247.281 279.332C245.864 278.526 244.448 277.682 243.074 276.825L243.509 276.149C244.874 277.001 246.281 277.838 247.689 278.64L247.281 279.332ZM373.464 276.811L373.029 276.135C374.392 275.285 375.759 274.395 377.093 273.488L377.555 274.146C376.213 275.059 374.837 275.956 373.464 276.811ZM238.973 274.155C237.628 273.241 236.286 272.289 234.985 271.325L235.474 270.686C236.767 271.643 238.099 272.588 239.435 273.497L238.973 274.155ZM381.536 271.32L381.046 270.681C382.336 269.727 383.627 268.73 384.884 267.72L385.399 268.34C384.134 269.357 382.834 270.36 381.536 271.32ZM231.117 268.34C229.854 267.325 228.595 266.271 227.374 265.206L227.914 264.608C229.126 265.665 230.377 266.712 231.632 267.721L231.117 268.34ZM389.138 265.208L388.599 264.61C389.811 263.553 391.017 262.457 392.185 261.354L392.748 261.932C391.573 263.042 390.359 264.144 389.138 265.208ZM223.763 261.928C222.59 260.819 221.42 259.669 220.288 258.511L220.875 257.956C221.999 259.107 223.161 260.249 224.326 261.351L223.763 261.928ZM396.223 258.514L395.637 257.959C396.758 256.812 397.872 255.625 398.948 254.431L399.557 254.963C398.473 256.164 397.352 257.359 396.223 258.514ZM216.956 254.961C215.872 253.758 214.8 252.521 213.772 251.283L214.402 250.776C215.423 252.006 216.488 253.235 217.565 254.43L216.956 254.961ZM402.744 251.282L402.114 250.775C403.142 249.539 404.156 248.267 405.129 246.996L405.779 247.477C404.799 248.757 403.778 250.037 402.744 251.282H402.744ZM210.74 247.483C209.76 246.203 208.793 244.886 207.867 243.568L208.535 243.113C209.456 244.421 210.416 245.73 211.39 247.002L210.74 247.483ZM408.657 243.555L407.988 243.1C408.912 241.785 409.82 240.437 410.686 239.093L411.373 239.521C410.501 240.874 409.587 242.232 408.657 243.555ZM205.155 239.544C204.284 238.192 203.428 236.803 202.611 235.417L203.315 235.016C204.126 236.393 204.976 237.772 205.842 239.115L205.155 239.544ZM413.923 235.382L413.22 234.981C414.034 233.597 414.828 232.18 415.582 230.771L416.302 231.144C415.543 232.562 414.743 233.988 413.923 235.382ZM200.239 231.192C199.481 229.777 198.742 228.326 198.043 226.88L198.777 226.536C199.472 227.972 200.206 229.413 200.959 230.82L200.239 231.192ZM418.505 226.814L417.77 226.47C418.466 225.028 419.142 223.553 419.779 222.083L420.528 222.398C419.886 223.877 419.206 225.363 418.505 226.814ZM196.025 222.486C195.385 221.011 194.767 219.508 194.191 218.016L194.951 217.731C195.524 219.213 196.137 220.707 196.773 222.171L196.025 222.486ZM422.368 217.903L421.607 217.619C422.184 216.122 422.737 214.596 423.25 213.084L424.021 213.337C423.505 214.86 422.949 216.395 422.368 217.903ZM192.537 213.464C192.019 211.942 191.526 210.39 191.072 208.849L191.853 208.627C192.304 210.156 192.794 211.698 193.308 213.21L192.537 213.464ZM425.481 208.721L424.699 208.499C425.148 206.971 425.572 205.411 425.959 203.86L426.749 204.05C426.359 205.612 425.933 207.184 425.481 208.721H425.481ZM189.799 204.181C189.408 202.622 189.045 201.036 188.718 199.465L189.516 199.305C189.839 200.865 190.2 202.441 190.588 203.989L189.799 204.181ZM427.823 199.334L427.026 199.175C427.348 197.616 427.642 196.027 427.9 194.451L428.703 194.579C428.443 196.165 428.147 197.765 427.823 199.334ZM187.833 194.71C187.573 193.13 187.341 191.52 187.144 189.925L187.952 189.829C188.147 191.414 188.377 193.013 188.637 194.582L187.833 194.71ZM429.387 189.791L428.579 189.696C428.772 188.111 428.935 186.504 429.063 184.918L429.874 184.982C429.745 186.578 429.581 188.196 429.387 189.791ZM186.651 185.116C186.52 183.517 186.42 181.894 186.354 180.291L187.166 180.258C187.232 181.851 187.331 183.464 187.462 185.052L186.651 185.116ZM430.167 180.157L429.354 180.126C429.418 178.531 429.45 176.916 429.45 175.325L429.45 175.06H430.263L430.264 175.323C430.264 176.926 430.231 178.552 430.167 180.157ZM187.064 175.458H186.251L186.251 175.323C186.251 173.762 186.282 172.181 186.343 170.626L187.155 170.657C187.095 172.202 187.065 173.772 187.065 175.325L187.064 175.458ZM429.343 170.26C429.275 168.671 429.175 167.058 429.042 165.468L429.853 165.402C429.986 167.004 430.088 168.627 430.155 170.227L429.343 170.26ZM187.44 165.863L186.629 165.801C186.757 164.198 186.92 162.58 187.112 160.99L187.92 161.085C187.729 162.664 187.568 164.271 187.44 165.863ZM428.547 160.691C428.351 159.112 428.119 157.513 427.857 155.938L428.66 155.809C428.923 157.395 429.157 159.005 429.354 160.594L428.547 160.691ZM188.593 156.33L187.79 156.203C188.048 154.618 188.342 153.018 188.665 151.447L189.462 151.605C189.142 153.166 188.85 154.755 188.593 156.33ZM426.972 151.216C426.645 149.652 426.283 148.077 425.894 146.533L426.684 146.341C427.075 147.894 427.44 149.481 427.769 151.055L426.972 151.216ZM190.524 146.919L189.734 146.729C190.12 145.171 190.545 143.599 190.997 142.057L191.778 142.278C191.33 143.81 190.908 145.371 190.524 146.919ZM424.624 141.897C424.172 140.369 423.681 138.827 423.164 137.316L423.936 137.061C424.455 138.582 424.95 140.134 425.405 141.673L424.624 141.897ZM193.223 137.692L192.451 137.439C192.965 135.915 193.52 134.379 194.099 132.872L194.86 133.155C194.285 134.652 193.734 136.178 193.223 137.692ZM421.516 132.796C420.938 131.307 420.324 129.814 419.689 128.358L420.436 128.043C421.075 129.509 421.695 131.012 422.276 132.51L421.516 132.796ZM196.682 128.688L195.934 128.375C196.573 126.896 197.252 125.409 197.952 123.957L198.687 124.299C197.992 125.743 197.317 127.219 196.682 128.688ZM417.68 123.995C416.984 122.56 416.248 121.12 415.494 119.714L416.213 119.34C416.973 120.756 417.713 122.206 418.414 123.65L417.68 123.995ZM200.871 119.995L200.15 119.624C200.908 118.202 201.707 116.775 202.524 115.383L203.228 115.783C202.417 117.166 201.624 118.583 200.871 119.995ZM413.132 115.521C412.319 114.143 411.467 112.765 410.601 111.424L411.287 110.995C412.16 112.345 413.017 113.732 413.836 115.119L413.132 115.521ZM205.756 111.669L205.069 111.241C205.942 109.884 206.854 108.525 207.781 107.204L208.45 107.659C207.529 108.971 206.623 110.32 205.756 111.669ZM407.903 107.429C406.98 106.121 406.018 104.813 405.044 103.543L405.693 103.061C406.674 104.34 407.642 105.656 408.571 106.973L407.903 107.429ZM211.305 103.76L210.655 103.279C211.635 101.995 212.654 100.714 213.685 99.4709L214.316 99.977C213.292 101.212 212.279 102.484 211.305 103.76ZM402.029 99.7721C401.003 98.5405 399.937 97.3124 398.861 96.122L399.469 95.5901C400.552 96.7885 401.625 98.0248 402.658 99.2648L402.029 99.7721ZM217.478 96.3168L216.869 95.7865C217.949 94.586 219.069 93.3898 220.198 92.231L220.785 92.7852C219.663 93.9361 218.55 95.1245 217.478 96.3168ZM395.547 92.5984C394.422 91.4493 393.259 90.3085 392.092 89.2076L392.655 88.6297C393.83 89.7379 395 90.8863 396.133 92.0431L395.547 92.5984ZM224.233 89.387L223.669 88.8102C224.843 87.699 226.056 86.5954 227.275 85.5297L227.815 86.128C226.604 87.1866 225.399 88.2832 224.233 89.387ZM388.501 85.9549C387.286 84.8976 386.034 83.8514 384.78 82.8457L385.294 82.2253C386.556 83.2378 387.816 84.2908 389.04 85.3554L388.501 85.9549ZM231.527 83.0133L231.011 82.3943C232.273 81.3772 233.572 80.3731 234.871 79.4094L235.361 80.0483C234.07 81.0056 232.78 82.0033 231.527 83.0133ZM380.933 79.8852C379.636 78.927 378.302 77.9826 376.969 77.0783L377.431 76.4194C378.772 77.3298 380.115 78.2804 381.422 79.2451L380.933 79.8852ZM239.312 77.2368L238.849 76.579C240.189 75.6648 241.565 74.7665 242.937 73.9091L243.373 74.5848C242.01 75.4364 240.644 76.3286 239.312 77.2368V77.2368ZM372.892 74.4297C371.521 73.5773 370.114 72.7412 368.71 71.9446L369.116 71.2513C370.529 72.0532 371.946 72.895 373.327 73.753L372.892 74.4297ZM247.538 72.0964L247.13 71.4039C248.536 70.6014 249.98 69.8151 251.421 69.0673L251.8 69.7751C250.369 70.518 248.935 71.299 247.538 72.0964ZM364.428 69.6268C362.991 68.8862 361.519 68.1642 360.053 67.4809L360.401 66.7575C361.877 67.4453 363.36 68.1722 364.805 68.9179L364.428 69.6268ZM256.152 67.6259L255.802 66.9033C257.269 66.2153 258.771 65.5467 260.267 64.9159L260.588 65.6516C259.101 66.278 257.609 66.9422 256.152 67.6259V67.6259ZM355.592 65.5107C354.097 64.886 352.569 64.2836 351.051 63.7197L351.339 62.9709C352.867 63.5386 354.405 64.1453 355.909 64.7741L355.592 65.5107ZM265.099 63.8559L264.809 63.1079C266.331 62.537 267.887 61.9887 269.434 61.4781L269.693 62.237C268.156 62.7441 266.611 63.2888 265.099 63.8559V63.8559ZM346.439 62.1112C344.902 61.6096 343.334 61.1322 341.777 60.6924L342.002 59.9233C343.569 60.3661 345.148 60.8465 346.695 61.3515L346.439 62.1112ZM274.35 60.8024L274.123 60.0341C275.687 59.5862 277.283 59.1638 278.867 58.7783L279.062 59.5552C277.489 59.9381 275.903 60.3579 274.35 60.8024ZM337.061 59.461C335.49 59.0841 333.888 58.7333 332.298 58.4185L332.458 57.6338C334.059 57.9507 335.672 58.304 337.253 58.6833L337.061 59.461ZM283.821 58.4975L283.658 57.7135C285.253 57.3923 286.878 57.0984 288.49 56.8399L288.621 57.6297C287.02 57.8867 285.405 58.1786 283.821 58.4975ZM327.496 57.5666C325.896 57.3157 324.27 57.0933 322.662 56.9061L322.758 56.1113C324.376 56.2998 326.013 56.5236 327.623 56.7764L327.496 57.5666ZM293.451 56.9532L293.353 56.1587C294.971 55.9649 296.615 55.8006 298.24 55.6708L298.306 56.4684C296.692 56.5976 295.058 56.7606 293.451 56.9532H293.451ZM317.806 56.4372C316.194 56.3135 314.555 56.2201 312.935 56.1597L312.966 55.3598C314.596 55.4207 316.246 55.5147 317.869 55.6392L317.806 56.4372ZM303.177 56.1752L303.143 55.3756C304.77 55.3095 306.422 55.2748 308.055 55.272L308.056 56.0724C306.434 56.0751 304.793 56.1097 303.177 56.1752H303.177Z" fill="#3F3D56"/>
<path d="M188.718 220.234H72.8116V221.035H188.718V220.234Z" fill="#3F3D56"/>
<path d="M499.021 220.234H430.291V221.035H499.021V220.234Z" fill="#3F3D56"/>
<path d="M198.886 235.842H103.721V236.642H198.886V235.842Z" fill="#3F3D56"/>
<path d="M471.365 235.842H422.156V236.642H471.365V235.842Z" fill="#3F3D56"/>
<path d="M440.05 278.66H373.76V279.46H440.05V278.66Z" fill="#3F3D56"/>
<path d="M259.888 288.665H72.8116V289.466H259.888V288.665Z" fill="#3F3D56"/>
<path d="M100.059 66.1655H45.1566V66.9659H100.059V66.1655Z" fill="#3F3D56"/>
<path d="M99.7458 66.5895C99.6841 65.7888 99.6527 64.973 99.6527 64.165C99.6527 55.7805 103.038 47.7394 109.063 41.8106C115.088 35.8819 123.26 32.5511 131.781 32.5511C140.302 32.5511 148.474 35.8819 154.499 41.8106C160.524 47.7394 163.909 55.7805 163.909 64.165H163.096C163.096 55.9928 159.797 48.1552 153.924 42.3766C148.051 36.5979 140.086 33.3515 131.781 33.3515C123.476 33.3515 115.511 36.5979 109.638 42.3766C103.765 48.1552 100.466 55.9928 100.466 64.165C100.466 64.9529 100.497 65.7482 100.557 66.529L99.7458 66.5895Z" fill="#3F3D56"/>
<path d="M257.449 66.5665H256.635C256.635 54.4673 251.751 42.8637 243.056 34.3083C234.362 25.7529 222.569 20.9465 210.273 20.9465C197.977 20.9465 186.185 25.7529 177.49 34.3083C168.795 42.8637 163.911 54.4673 163.911 66.5665H163.097C163.097 54.2551 168.068 42.4479 176.915 33.7423C185.762 25.0368 197.761 20.1461 210.273 20.1461C222.785 20.1461 234.784 25.0368 243.631 33.7423C252.479 42.4479 257.449 54.2551 257.449 66.5665H257.449Z" fill="#3F3D56"/>
<path d="M131.782 231.839C138.071 231.839 143.169 226.823 143.169 220.634C143.169 214.446 138.071 209.429 131.782 209.429C125.493 209.429 120.395 214.446 120.395 220.634C120.395 226.823 125.493 231.839 131.782 231.839Z" fill="#3F3D56"/>
<path d="M163.097 77.7719C169.386 77.7719 174.485 72.7553 174.485 66.567C174.485 60.3787 169.386 55.362 163.097 55.362C156.808 55.362 151.71 60.3787 151.71 66.567C151.71 72.7553 156.808 77.7719 163.097 77.7719Z" fill="#3F3D56"/>
<path d="M198.071 297.068C202.339 297.068 205.798 293.664 205.798 289.465C205.798 285.265 202.339 281.861 198.071 281.861C193.804 281.861 190.344 285.265 190.344 289.465C190.344 293.664 193.804 297.068 198.071 297.068Z" fill="#774CDA"/>
<path d="M447.778 243.444C452.046 243.444 455.505 240.04 455.505 235.841C455.505 231.642 452.046 228.237 447.778 228.237C443.511 228.237 440.051 231.642 440.051 235.841C440.051 240.04 443.511 243.444 447.778 243.444Z" fill="#723FE9"/>
<path d="M265.175 250.247C308.524 250.247 343.665 215.669 343.665 173.013C343.665 130.358 308.524 95.7795 265.175 95.7795C221.826 95.7795 186.684 130.358 186.684 173.013C186.684 215.669 221.826 250.247 265.175 250.247Z" fill="#3F3D56"/>
<path d="M237.317 229.439C260.339 229.439 279.002 204.177 279.002 173.014C279.002 141.852 260.339 116.589 237.317 116.589C214.295 116.589 195.631 141.852 195.631 173.014C195.631 204.177 214.295 229.439 237.317 229.439Z" fill="white"/>
<path d="M235.648 191.022C242.073 191.022 247.282 182.959 247.282 173.014C247.282 163.068 242.073 155.006 235.648 155.006C229.223 155.006 224.014 163.068 224.014 173.014C224.014 182.959 229.223 191.022 235.648 191.022Z" fill="#3F3D56"/>
<path d="M481.748 76.6113H480.935V219.734H481.748V76.6113Z" fill="#3F3D56"/>
<path d="M481.499 207.47C490.259 207.47 497.36 191.524 497.36 171.854C497.36 152.184 490.259 136.238 481.499 136.238C472.739 136.238 465.638 152.184 465.638 171.854C465.638 191.524 472.739 207.47 481.499 207.47Z" fill="#3F3D56"/>
<path d="M481.499 126.234C490.259 126.234 497.36 110.288 497.36 90.6184C497.36 70.9484 490.259 55.0027 481.499 55.0027C472.739 55.0027 465.638 70.9484 465.638 90.6184C465.638 110.288 472.739 126.234 481.499 126.234Z" fill="#3F3D56"/>
<path d="M481.888 61.5193L481.109 61.2895C481.158 61.1277 485.94 45.0037 478.088 34.6237C473.654 28.7614 466.044 25.7888 455.471 25.7888V24.9884C466.317 24.9884 474.147 28.0705 478.743 34.1489C486.838 44.8542 481.939 61.354 481.888 61.5193Z" fill="#3F3D56"/>
<path d="M455.471 35.3928C461.086 35.3928 465.638 30.9137 465.638 25.3884C465.638 19.8632 461.086 15.384 455.471 15.384C449.856 15.384 445.304 19.8632 445.304 25.3884C445.304 30.9137 449.856 35.3928 455.471 35.3928Z" fill="#F2F2F2"/>
<path d="M141.655 170.959C140.69 170.959 139.746 170.677 138.944 170.149C138.141 169.622 137.516 168.872 137.146 167.994C136.777 167.117 136.68 166.151 136.869 165.22C137.057 164.288 137.522 163.432 138.204 162.761C138.887 162.089 139.756 161.632 140.703 161.447C141.65 161.261 142.631 161.356 143.523 161.72C144.414 162.083 145.177 162.699 145.713 163.489C146.249 164.278 146.535 165.207 146.535 166.156C146.534 167.43 146.019 168.65 145.104 169.55C144.189 170.451 142.949 170.957 141.655 170.959ZM141.655 162.155C140.851 162.155 140.064 162.389 139.396 162.829C138.727 163.269 138.206 163.894 137.898 164.625C137.59 165.356 137.509 166.161 137.666 166.937C137.823 167.713 138.211 168.426 138.779 168.986C139.348 169.546 140.073 169.927 140.862 170.081C141.651 170.236 142.468 170.156 143.211 169.854C143.955 169.551 144.59 169.038 145.037 168.38C145.483 167.722 145.722 166.948 145.722 166.156C145.721 165.095 145.292 164.078 144.529 163.328C143.767 162.578 142.733 162.156 141.655 162.155Z" fill="#3F3D56"/>
<path d="M483.973 266.654H473.399V256.25H483.973V266.654ZM474.213 265.854H483.16V257.05H474.213V265.854Z" fill="#3F3D56"/>
<path d="M141.136 128.594H130.562V118.19H141.136V128.594ZM131.375 127.794H140.322V118.99H131.375L131.375 127.794Z" fill="#3F3D56"/>
<path d="M139.294 252.2C139.307 279.109 123.054 288.511 103.001 288.521C102.536 288.521 102.072 288.516 101.611 288.506C100.681 288.487 99.7616 288.446 98.8516 288.383C80.7525 287.13 66.6852 277.26 66.6729 252.235C66.6601 226.336 100.282 193.637 102.804 191.219C102.806 191.219 102.806 191.219 102.808 191.217C102.904 191.125 102.953 191.079 102.953 191.079C102.953 191.079 139.281 225.293 139.294 252.2Z" fill="#774CDA"/>
<path d="M101.676 284.406L114.947 266.141L101.644 286.41L101.609 288.506C100.68 288.487 99.7599 288.446 98.8499 288.383L100.267 261.462L100.256 261.254L100.281 261.214L100.415 258.67L87.0582 238.364L100.454 256.765L100.488 257.304L101.559 236.964L90.1226 215.979L101.698 233.39L102.802 191.219L102.807 191.079L102.807 191.217L102.636 224.473L114.002 211.284L102.588 227.337L102.296 245.549L112.912 228.066L102.255 248.227L102.093 258.354L117.499 234.018L102.035 261.886L101.676 284.406Z" fill="#3F3D56"/>
<path d="M25.8501 275.971L25.4163 290.059H32.3582L38.4323 284.509L34.9614 273.409L25.8501 275.971Z" fill="#A0616A"/>
<path d="M51.0151 287.923V312.685L64.8989 310.55L64.0312 287.923H51.0151Z" fill="#A0616A"/>
<path d="M17.1735 180.34L20.6444 230.717C20.6444 230.717 18.9089 236.694 20.2105 238.401C21.5121 240.109 21.5121 240.109 20.6444 241.817C19.7767 243.524 18.0412 243.951 19.3428 245.232C20.0231 245.857 20.6077 246.576 21.0783 247.367L25.417 280.24C25.417 280.24 22.8137 287.07 37.5653 276.824L38.433 249.074C38.433 249.074 36.6975 243.524 38.433 242.671C40.1685 241.817 41.0362 241.817 40.6023 240.109C40.1685 238.401 40.6023 238.401 40.6023 237.121C40.6023 235.84 41.4701 235.413 41.4701 234.132C41.4701 232.851 40.6023 229.863 40.6023 229.863L46.6765 202.113L51.4491 233.278C51.4491 233.278 49.2797 240.109 51.4491 242.671L49.7136 291.34C49.7136 291.34 61.8619 297.316 67.0683 291.34L70.5393 252.49C70.5393 252.49 71.8409 245.232 71.407 242.671C70.9731 240.109 69.6715 240.536 70.5393 238.828C71.407 237.121 71.407 231.997 71.407 231.997L74.8779 202.113L74.4441 158.567H19.3428L17.1735 180.34Z" fill="#2F2E41"/>
<path d="M32.359 285.79L24.5493 283.228C24.5493 283.228 16.3059 298.598 15.4381 299.025C14.5704 299.452 8.06236 311.405 17.1736 310.978C26.2848 310.552 33.6606 299.025 33.6606 299.025C33.6606 299.025 43.2057 288.352 41.9041 284.936C40.6025 281.521 36.7711 279.194 36.7711 279.194C36.7711 279.194 35.3961 288.352 32.359 285.79Z" fill="#2F2E41"/>
<path d="M52.7509 308.416C52.7509 308.416 51.0155 303.293 50.1477 304.147C49.28 305 44.0736 319.089 47.9784 319.516C51.8832 319.943 65.3331 322.504 67.0686 324.212C68.8041 325.92 86.1588 325.066 84.8572 319.516C83.5556 313.966 73.1428 310.977 73.1428 310.977L64.563 301.782C64.563 301.782 54.9203 302.866 55.788 305.427C55.788 305.427 55.788 308.843 52.7509 308.416Z" fill="#2F2E41"/>
<path d="M56.0035 79.7988C63.6713 79.7988 69.8873 73.6823 69.8873 66.1373C69.8873 58.5923 63.6713 52.4758 56.0035 52.4758C48.3357 52.4758 42.1198 58.5923 42.1198 66.1373C42.1198 73.6823 48.3357 79.7988 56.0035 79.7988Z" fill="#A0616A"/>
<path d="M46.241 72.7554C46.241 72.7554 45.8071 86.4169 41.9023 89.8323C37.9975 93.2476 52.3151 104.348 64.4634 97.5169C64.4634 97.5169 58.8231 85.563 64.4634 75.7439L46.241 72.7554Z" fill="#A0616A"/>
<path d="M65.3321 93.2477H62.9857C62.9857 93.2477 48.6057 98.0139 43.302 87.9462L35.3952 88.1247L21.9453 164.544C21.9453 164.544 40.6016 162.409 45.8081 164.544C51.0145 166.678 75.745 160.701 75.745 160.701L65.3321 93.2477Z" fill="#D0CDE1"/>
<path d="M39.5164 145.546C40.2353 145.546 40.818 144.973 40.818 144.265C40.818 143.558 40.2353 142.985 39.5164 142.985C38.7976 142.985 38.2148 143.558 38.2148 144.265C38.2148 144.973 38.7976 145.546 39.5164 145.546Z" stroke="#3F3D56" stroke-miterlimit="10"/>
<path d="M35.6126 161.768C36.3315 161.768 36.9142 161.195 36.9142 160.487C36.9142 159.78 36.3315 159.207 35.6126 159.207C34.8938 159.207 34.311 159.78 34.311 160.487C34.311 161.195 34.8938 161.768 35.6126 161.768Z" stroke="#3F3D56" stroke-miterlimit="10"/>
<path d="M46.3047 53.177L44.0037 52.2706C44.0037 52.2706 48.8147 47.0588 55.5084 47.512L53.6257 45.4726C53.6257 45.4726 58.2276 43.6598 62.4111 48.4184C64.6102 50.9199 67.1547 53.8603 68.7409 57.1726H71.2051L70.1766 59.4008L73.7761 61.6291L70.0816 61.2288C70.4315 63.1525 70.3118 65.1305 69.7321 66.9997L69.8312 68.7609C69.8312 68.7609 65.5487 62.2411 65.5487 61.3347V63.6007C65.5487 63.6007 63.2477 61.5613 63.2477 60.2017L61.9927 61.7879L61.3652 59.2953L53.6257 61.7879L54.8808 59.7485L50.0698 60.4283L51.9524 57.9357C51.9524 57.9357 46.5139 60.8815 46.3047 63.3741C46.0955 65.8667 43.3763 69.0391 43.3763 69.0391L42.1212 66.7731C42.1212 66.7731 40.2386 56.576 46.3047 53.177Z" fill="#2F2E41"/>
<path d="M45.1451 82.212L37.1312 86.4161L21.0781 88.1238C21.0781 88.1238 25.4168 140.635 18.041 147.466C18.041 147.466 -7.12335 176.07 1.98788 180.766C11.0991 185.462 27.5861 194.854 32.7925 187.597C37.9989 180.339 49.688 93.3772 45.1451 82.212Z" fill="#3F3D56"/>
<path d="M62.0688 88.1244C62.0688 88.1244 81.8184 97.9436 82.2523 98.7974C82.6861 99.6513 75.7442 136.793 75.7442 136.793C75.7442 136.793 78.3475 191.866 74.8765 192.72C71.4056 193.574 67.0669 149.601 67.0669 149.601C67.0669 149.601 61.4095 91.1128 62.0688 88.1244Z" fill="#3F3D56"/>
<path d="M3.72416 177.778C3.72416 177.778 -0.180657 201.686 10.666 200.405C21.5128 199.124 12.4015 176.924 12.4015 176.924L3.72416 177.778Z" fill="#A0616A"/>
<path d="M81.3864 159.42C81.3864 159.42 72.332 154.592 69.0495 160.635C65.7671 166.678 82.688 176.497 86.1589 165.824C86.1589 165.824 84.8573 158.566 81.3864 159.42Z" fill="#A0616A"/>
<path d="M78.7819 98.3706H82.2528C82.2528 98.3706 83.5544 98.7975 84.4222 103.921C85.2899 109.044 89.1947 138.928 89.1947 138.928C89.1947 138.928 92.6657 142.344 91.7979 144.051C90.9302 145.759 90.0625 144.905 90.4963 146.613C90.7528 147.59 90.8983 148.592 90.9302 149.601L83.9883 172.655C83.9883 172.655 87.8931 161.128 78.7819 158.993C78.7819 158.993 77.0464 156.859 77.9142 156.005C78.7819 155.151 78.348 154.724 78.348 154.297C78.348 153.87 77.9142 153.87 78.348 152.163C78.6171 151.043 78.7625 149.898 78.7819 148.747C78.7819 148.747 77.0464 147.894 77.4803 147.04C77.9142 146.186 77.4803 138.928 77.4803 138.928L71.4061 128.255L78.7819 98.3706Z" fill="#3F3D56"/>
<path d="M23.2463 89.4052L21.077 88.1244C21.077 88.1244 13.2674 92.3936 11.098 109.044C8.92867 125.693 3.72225 142.343 3.72225 142.343L1.23999 180.265L13.2674 179.059L19.7754 137.647L27.1511 116.728L23.2463 89.4052Z" fill="#3F3D56"/>
</g>
<defs>
<clipPath id="clip0">
<rect width="512" height="325" fill="white"/>
</clipPath>
</defs>
</svg>
