<svg width="568" height="399" viewBox="0 0 568 399" fill="none" xmlns="http://www.w3.org/2000/svg">
<g clip-path="url(#clip0)">
<path d="M479.076 399C429.965 399 390.153 395.917 390.153 392.114C390.153 388.311 429.965 385.229 479.076 385.229C528.187 385.229 568 388.311 568 392.114C568 395.917 528.187 399 479.076 399Z" fill="#774CDA"/>
<path opacity="0.1" d="M496.713 16.2569L496.789 15.8349L504.002 12.014H505.134L505.567 11.1841H520.432L523.879 12.014H536.574L540.014 16.0283L540.049 16.2744C540.272 17.7102 545.246 51.4717 532.121 62.2138L526.649 64.7572H523.11L523.801 63.3756L520.725 64.7572H510.764L510.587 64.4916L504.676 62.2782L504.524 62.1024C503.991 61.4695 491.428 46.2033 496.713 16.2569Z" fill="#FF5029"/>
<path d="M514.572 49.813H520.431V65.0499H514.572V49.813Z" fill="#E6E6E6"/>
<path d="M512.522 84.6819H523.068V377.7H512.522V84.6819Z" fill="#3F3D56"/>
<path d="M509.885 79.7007H525.705V89.6633H509.885V79.7007Z" fill="#3F3D56"/>
<path d="M531.564 61.5339L521.604 72.0827L525.705 79.701L517.502 81.4591L509.885 79.701L514.572 71.4968L505.197 61.5339H531.564Z" fill="#3F3D56"/>
<path d="M539.182 16.4088L543.869 11.7206L540.354 8.20435H495.823L492.307 12.3066L497.581 16.4088C497.581 16.4088 525.705 15.2368 539.182 16.4088Z" fill="#3F3D56"/>
<path d="M496.713 16.2566L496.789 15.8346L504.002 12.0137L507.295 10.2673L525.781 9.07764L536.147 11.5155L536.574 12.0137L540.014 16.028L540.049 16.2741C540.272 17.7099 545.246 51.4714 532.121 62.2134L526.649 64.7569L522.043 66.8959L523.11 64.7569L524.862 61.2582C526.695 50.5807 530.727 22.5272 528.154 16.6668L517.526 13.2385L508.092 16.743C507.442 20.9566 503.235 50.4986 510.606 61.0297L510.764 61.2582V64.5576L504.676 62.2779L504.524 62.1021C503.991 61.4692 491.428 46.203 496.713 16.2566ZM505.737 60.7953L509.006 62.0259V61.8032C500.92 49.7368 506.205 17.3349 506.434 15.9518L506.516 15.4479L515.762 12.0137L517.479 11.3749L519.459 12.0137L529.373 15.2134L529.543 15.5123C533.311 22.2693 526.848 60.0744 526.572 61.6802L526.549 61.8091L525.852 63.2038L531.096 60.7835C542.785 51.0495 538.778 19.8782 538.35 16.7898L535.186 13.0978L530.58 12.0137L525.629 10.8475L517.479 11.3749L507.787 12.0019L507.764 12.0137L498.371 16.9832C493.719 44.146 504.395 59.0606 505.737 60.7953H505.737Z" fill="#3F3D56"/>
<path d="M517.502 16.409C508.765 16.409 501.682 12.7357 501.682 8.20449C501.682 3.67328 508.765 0 517.502 0C526.239 0 533.322 3.67328 533.322 8.20449C533.322 12.7357 526.239 16.409 517.502 16.409Z" fill="#3F3D56"/>
<path d="M525.705 362.756L535.08 392.644C535.08 392.644 520.431 400.848 500.51 392.644L509.885 362.756H525.705Z" fill="#3F3D56"/>
<path d="M517.502 51.5711C514.914 51.5711 512.815 49.4721 512.815 46.8829C512.815 44.2936 514.914 42.1946 517.502 42.1946C520.091 42.1946 522.19 44.2936 522.19 46.8829C522.19 49.4721 520.091 51.5711 517.502 51.5711Z" fill="#42C07C"/>
<path d="M344.579 219.896C342.103 229.05 333.622 234.719 333.622 234.719C333.622 234.719 329.156 225.547 331.632 216.392C334.108 207.238 342.588 201.569 342.588 201.569C342.588 201.569 347.055 210.741 344.579 219.896Z" fill="#FF5029"/>
<path d="M340.941 217.929C334.146 224.544 333.317 234.712 333.317 234.712C333.317 234.712 343.502 234.156 350.296 227.541C357.09 220.926 357.92 210.758 357.92 210.758C357.92 210.758 347.735 211.314 340.941 217.929Z" fill="#E6E6E6"/>
<path d="M5.53311 218.082L242.5 285.287L26.2982 163.445C36.1551 145.384 48.5288 128.816 63.0481 114.239L272.812 229.704L97.2029 86.285C122.39 69.6207 150.804 58.4487 180.594 53.4965L277.864 215.924L213.441 50.5813C214.4 50.5688 215.359 50.5544 216.321 50.5544C335.792 50.5544 432.642 147.421 432.642 266.912C432.705 306.434 421.892 345.211 401.388 378.996H31.254C2.1091 330.735 -7.11542 273.025 5.53311 218.082Z" fill="#F2F2F2"/>
<path d="M24.1308 358.793C24.1308 340.336 33.4948 325.373 45.0459 325.373C52.3061 325.373 58.7003 331.286 62.4505 340.261C63.7176 339.735 65.0755 339.462 66.4474 339.459C69.9438 339.459 73.1765 341.251 75.8127 344.283C79.1932 333.093 86.3616 325.373 94.6586 325.373C102.416 325.373 109.182 332.127 112.793 342.151C114.799 340.458 117.327 339.507 119.951 339.459C128.816 339.459 136.003 350.942 136.003 365.106C136.039 369.828 135.181 374.514 133.474 378.917H28.3488C25.7021 373.319 24.1308 366.35 24.1308 358.793Z" fill="#774CDA"/>
<path d="M235.611 134.158V134.158C235.611 112.716 227.094 92.1523 211.935 76.9906C196.776 61.8288 176.216 53.311 154.778 53.311" stroke="#3F3D56" stroke-width="2" stroke-miterlimit="10"/>
<path d="M206.2 144.74C212.674 168.678 234.852 183.504 234.852 183.504C234.852 183.504 246.532 159.518 240.057 135.579C233.582 111.64 211.405 96.8147 211.405 96.8147C211.405 96.8147 199.725 120.801 206.2 144.74Z" fill="#774CDA"/>
<path d="M265.102 144.74C258.627 168.678 236.45 183.504 236.45 183.504C236.45 183.504 224.77 159.518 231.245 135.579C237.72 111.64 259.897 96.8147 259.897 96.8147C259.897 96.8147 271.577 120.801 265.102 144.74Z" fill="#774CDA"/>
<path d="M255.588 139.595C237.821 156.893 235.651 183.484 235.651 183.484C235.651 183.484 262.286 182.03 280.053 164.732C297.82 147.433 299.99 120.842 299.99 120.842C299.99 120.842 273.354 122.297 255.588 139.595Z" fill="#3F3D56"/>
<path d="M215.714 139.595C233.48 156.893 235.65 183.484 235.65 183.484C235.65 183.484 209.015 182.03 191.248 164.732C173.481 147.433 171.311 120.842 171.311 120.842C171.311 120.842 197.947 122.297 215.714 139.595Z" fill="#3F3D56"/>
<path d="M167.87 70.6036C165.001 59.9939 155.172 53.4231 155.172 53.4231C155.172 53.4231 149.995 64.0539 152.865 74.6636C155.734 85.2733 165.564 91.8441 165.564 91.8441C165.564 91.8441 170.74 81.2133 167.87 70.6036Z" fill="#774CDA"/>
<path d="M141.765 70.6036C144.634 59.9939 154.464 53.4231 154.464 53.4231C154.464 53.4231 159.64 64.0539 156.77 74.6636C153.901 85.2733 144.072 91.8441 144.072 91.8441C144.072 91.8441 138.895 81.2133 141.765 70.6036Z" fill="#774CDA"/>
<path d="M145.981 72.8834C153.856 65.2168 154.817 53.4314 154.817 53.4314C154.817 53.4314 143.012 54.0761 135.138 61.7427C127.264 69.4093 126.302 81.1947 126.302 81.1947C126.302 81.1947 138.107 80.55 145.981 72.8834Z" fill="#3F3D56"/>
<path d="M163.653 72.8834C155.779 65.2168 154.817 53.4314 154.817 53.4314C154.817 53.4314 166.622 54.0761 174.496 61.7427C182.37 69.4093 183.332 81.1947 183.332 81.1947C183.332 81.1947 171.527 80.55 163.653 72.8834Z" fill="#3F3D56"/>
<path d="M68.4331 288.962H78.0779V235.525C78.0822 234.064 78.6643 232.665 79.6969 231.632C80.7296 230.599 82.1289 230.017 83.5893 230.013H100.123V182.98C100.128 181.519 100.71 180.119 101.742 179.087C102.775 178.054 104.174 177.472 105.635 177.467H362.832C364.292 177.472 365.691 178.054 366.724 179.087C367.757 180.119 368.339 181.519 368.343 182.98V230.013H384.877C386.337 230.017 387.737 230.599 388.769 231.632C389.802 232.665 390.384 234.064 390.388 235.525V288.962H400.033C401.494 288.966 402.893 289.549 403.926 290.581C404.958 291.614 405.54 293.014 405.545 294.474V373.484C405.54 374.945 404.958 376.344 403.926 377.377C402.893 378.41 401.494 378.992 400.033 378.996H68.4331C66.9727 378.992 65.5733 378.41 64.5407 377.377C63.508 376.344 62.926 374.945 62.9217 373.484V294.474C62.926 293.014 63.508 291.614 64.5407 290.581C65.5734 289.549 66.9727 288.966 68.4331 288.962Z" fill="#3F3D56"/>
<path d="M116.626 272.257C121.69 280.274 120.127 290.356 120.127 290.356C120.127 290.356 110.352 287.44 105.287 279.423C100.223 271.406 101.786 261.324 101.786 261.324C101.786 261.324 111.561 264.24 116.626 272.257Z" fill="#774CDA"/>
<path d="M112.715 273.606C112.989 283.086 119.914 290.577 119.914 290.577C119.914 290.577 126.396 282.699 126.122 273.219C125.849 263.74 118.924 256.249 118.924 256.249C118.924 256.249 112.442 264.127 112.715 273.606Z" fill="#E6E6E6"/>
<path d="M78.0777 288.962H390.388V294.474H78.0777V288.962Z" fill="#E6E6E6"/>
<path d="M100.123 230.164H368.343V235.676H100.123V230.164Z" fill="#E6E6E6"/>
<path d="M154.777 101.543C151.734 101.543 149.266 99.0755 149.266 96.0311C149.266 92.9867 151.734 90.5188 154.777 90.5188C157.821 90.5188 160.289 92.9867 160.289 96.0311C160.289 99.0755 157.821 101.543 154.777 101.543Z" fill="#774CDA"/>
<path d="M331.399 224.177L186.256 182.947L164.625 259.118L175.111 262.097L167.117 290.247L203.257 270.092L309.768 300.349L331.399 224.177Z" fill="#774CDA"/>
<path d="M243.382 257.951L246.599 256.368C258.066 250.6 265.609 246.885 267.526 240.133C267.914 238.854 268.041 237.511 267.9 236.183C267.759 234.855 267.353 233.568 266.706 232.4C266.059 231.231 265.185 230.204 264.134 229.38C263.083 228.555 261.878 227.95 260.589 227.6C259.071 227.177 257.478 227.09 255.923 227.345C254.368 227.6 252.887 228.19 251.582 229.074C250.937 227.636 249.987 226.355 248.798 225.321C247.609 224.287 246.209 223.524 244.695 223.085C243.414 222.705 242.071 222.586 240.744 222.735C239.417 222.884 238.133 223.298 236.968 223.952C235.804 224.606 234.782 225.487 233.964 226.543C233.147 227.599 232.549 228.808 232.206 230.1C230.289 236.852 234.754 243.978 241.477 254.913L243.382 257.951Z" fill="white"/>
<path d="M500.977 182.552C500.977 182.552 504.701 193.725 502.632 196.208C500.563 198.691 515.045 188.759 515.045 188.759L507.183 179.655L500.977 182.552Z" fill="#A0616A"/>
<path d="M509.469 182.534C499.209 182.534 490.892 174.215 490.892 163.953C490.892 153.692 499.209 145.373 509.469 145.373C519.729 145.373 528.046 153.692 528.046 163.953C528.046 174.215 519.729 182.534 509.469 182.534Z" fill="#2F2E41"/>
<path d="M437.257 308.357L446.773 315.806L452.152 307.116L442.636 300.495L437.257 308.357Z" fill="#A0616A"/>
<path d="M450.704 364.431L448.221 376.433L441.187 385.951C441.187 385.951 422.154 391.744 434.981 394.641C447.808 397.538 450.704 392.572 450.704 392.572L459.807 384.709V395.469H465.6L466.841 380.157C466.841 380.157 467.668 375.605 463.944 370.639L463.117 363.19L450.704 364.431Z" fill="#2F2E41"/>
<path d="M498.701 215.865L495.391 234.902C495.391 234.902 460.221 231.177 457.739 238.212C455.256 245.248 454.428 247.317 454.428 247.317L461.462 249.8L464.772 243.592C465.781 243.235 466.851 243.088 467.918 243.159C468.986 243.23 470.027 243.518 470.979 244.006C474.289 245.661 503.253 249.8 505.321 244.42C507.39 239.04 513.183 219.176 513.183 219.176L504.494 212.141L498.701 215.865Z" fill="#A0616A"/>
<path opacity="0.1" d="M498.701 215.865L495.391 234.902C495.391 234.902 460.221 231.177 457.739 238.212C455.256 245.248 454.428 247.317 454.428 247.317L461.462 249.8L464.772 243.592C465.781 243.235 466.851 243.088 467.918 243.159C468.986 243.23 470.027 243.518 470.979 244.006C474.289 245.661 503.253 249.8 505.321 244.42C507.39 239.04 513.183 219.176 513.183 219.176L504.494 212.141L498.701 215.865Z" fill="black"/>
<path d="M479.254 270.905L476.358 280.837L468.91 318.91C468.91 318.91 468.082 347.051 466.841 350.361C465.6 353.672 465.6 354.086 466.841 355.327C468.082 356.569 470.565 360.707 466.841 363.19C463.117 365.673 449.877 368.57 449.463 365.673C449.049 362.776 449.049 358.224 449.463 356.155C449.877 354.086 448.222 321.807 448.222 321.807L453.187 272.56L470.151 264.698L479.254 270.905Z" fill="#2F2E41"/>
<path opacity="0.1" d="M479.254 270.905L476.358 280.837L468.91 318.91C468.91 318.91 468.082 347.051 466.841 350.361C465.6 353.672 465.6 354.086 466.841 355.327C468.082 356.569 470.565 360.707 466.841 363.19C463.117 365.673 449.877 368.57 449.463 365.673C449.049 362.776 449.049 358.224 449.463 356.155C449.877 354.086 448.222 321.807 448.222 321.807L453.187 272.56L470.151 264.698L479.254 270.905Z" fill="black"/>
<path d="M461.462 232.005L452.36 249.386C452.36 249.386 400.225 272.56 404.777 282.079C409.328 291.597 434.568 309.392 434.568 309.392C434.568 309.392 435.809 316.427 439.533 314.358C443.257 312.289 452.36 301.529 451.532 300.287C450.705 299.046 447.808 296.149 446.567 296.563C445.326 296.977 430.844 285.803 430.844 285.803L455.67 279.596C455.67 279.596 485.461 278.768 487.116 264.698C488.771 250.627 487.116 248.144 487.116 248.144L489.185 243.592L472.22 233.246L461.462 232.005Z" fill="#2F2E41"/>
<path d="M448.636 300.701L457.325 308.564C457.325 308.564 464.773 305.253 469.324 306.495C473.875 307.736 481.737 308.564 481.737 308.564L480.496 315.599L469.939 313.651L478.427 325.531C478.427 325.531 478.427 344.154 473.048 344.154C467.669 344.154 469.324 332.98 469.324 332.98L452.773 320.151C452.773 320.151 444.498 316.84 443.671 316.84C442.843 316.84 448.636 300.701 448.636 300.701Z" fill="#2F2E41"/>
<path d="M502.632 185.862C494.862 185.862 488.564 179.563 488.564 171.792C488.564 164.021 494.862 157.722 502.632 157.722C510.401 157.722 516.7 164.021 516.7 171.792C516.7 179.563 510.401 185.862 502.632 185.862Z" fill="#A0616A"/>
<path d="M516.493 182.759C516.493 182.759 509.873 181.103 507.804 182.759C505.735 184.414 505.321 188.138 502.425 188.552C499.529 188.966 497.046 188.966 496.632 189.38C496.218 189.794 486.702 201.381 486.702 201.381C486.702 201.381 480.909 204.692 479.668 209.244C478.427 213.796 466.014 229.108 464.359 230.763C462.704 232.419 475.117 240.695 479.254 243.592C483.392 246.489 495.391 247.731 499.115 241.109C502.839 234.488 523.113 191.449 516.493 182.759Z" fill="#575A89"/>
<path d="M500.769 209.657L497.459 228.694C497.459 228.694 462.289 224.969 459.807 232.004C457.324 239.039 456.497 241.109 456.497 241.109L463.531 243.592L466.841 237.384C467.849 237.027 468.92 236.879 469.987 236.951C471.054 237.022 472.095 237.31 473.047 237.798C476.357 239.453 505.321 243.592 507.39 238.212C509.459 232.832 515.251 212.968 515.251 212.968L506.562 205.933L500.769 209.657Z" fill="#A0616A"/>
<path d="M508.677 184.499C508.677 184.499 498.701 205.519 499.528 211.313C500.356 217.106 503.252 212.968 503.252 212.968C503.252 212.968 506.976 207.174 508.631 210.485C510.286 213.796 512.355 218.348 514.01 217.934C515.665 217.52 524.768 186.897 519.803 184C514.838 181.103 508.677 184.499 508.677 184.499Z" fill="#575A89"/>
<path d="M529.594 158.069C519.334 158.069 511.017 149.751 511.017 139.489C511.017 129.227 519.334 120.908 529.594 120.908C539.854 120.908 548.171 129.227 548.171 139.489C548.171 149.751 539.854 158.069 529.594 158.069Z" fill="#2F2E41"/>
<path d="M545.618 154.874C543.214 156.612 540.428 157.749 537.494 158.19C534.56 158.63 531.564 158.362 528.755 157.407C525.946 156.451 523.407 154.837 521.349 152.699C519.292 150.561 517.777 147.962 516.93 145.118C517.25 147.666 518.096 150.121 519.412 152.326C520.729 154.531 522.489 156.44 524.58 157.931C526.671 159.421 529.049 160.462 531.563 160.988C534.077 161.513 536.672 161.512 539.185 160.983C541.698 160.455 544.075 159.411 546.164 157.918C548.254 156.424 550.011 154.514 551.325 152.307C552.639 150.1 553.482 147.645 553.799 145.096C554.116 142.547 553.902 139.96 553.169 137.498C553.585 140.806 553.104 144.164 551.775 147.221C550.447 150.279 548.32 152.922 545.618 154.874Z" fill="#2F2E41"/>
<path d="M514.423 180.675C506.899 180.675 500.8 174.575 500.8 167.049C500.8 159.524 506.899 153.424 514.423 153.424C521.947 153.424 528.046 159.524 528.046 167.049C528.046 174.575 521.947 180.675 514.423 180.675Z" fill="#2F2E41"/>
<path d="M502.967 171.385C496.298 171.385 490.891 167.156 490.891 161.94C490.891 156.724 496.298 152.495 502.967 152.495C509.636 152.495 515.042 156.724 515.042 161.94C515.042 167.156 509.636 171.385 502.967 171.385Z" fill="#2F2E41"/>
<path d="M502.425 177.999C500.939 177.999 499.735 175.869 499.735 173.24C499.735 170.612 500.939 168.481 502.425 168.481C503.91 168.481 505.114 170.612 505.114 173.24C505.114 175.869 503.91 177.999 502.425 177.999Z" fill="#A0616A"/>
<path d="M465.507 243.411C465.507 243.411 458.182 239.208 456.822 240.262C455.462 241.316 454.858 244.614 454.858 244.614L463.324 247.937L465.806 243.385L465.507 243.411Z" fill="#2F2E41"/>
</g>
<defs>
<clipPath id="clip0">
<rect width="568" height="399" transform="matrix(-1 0 0 1 568 0)" fill="white"/>
</clipPath>
</defs>
</svg>
