<svg width="134" height="364" viewBox="0 0 134 364" fill="none" xmlns="http://www.w3.org/2000/svg">
<path d="M62 37.4401C62 37.4401 57.6809 51.471 60.149 55.7412C62.6171 60.0115 55.8298 69.162 44.7234 64.8918C33.617 60.6215 33 55.7412 33 55.7412C33 55.7412 37.3192 49.0308 38.5532 35L62 37.4401Z" fill="#FFB8B8"/>
<path d="M119.04 176.623C119.04 176.623 141.388 187.823 131.455 202.756C125.682 211.436 114.666 228.315 106.452 240.929C99.5775 251.485 94.3054 263.006 90.8083 275.115L89.2436 280.533L83.036 288L70 273.067C70 273.067 89.2436 237.6 89.2436 230.756C89.2436 223.912 104.763 202.134 104.763 202.134L89.2436 192.178C89.2436 192.178 106.625 172.267 119.04 176.623Z" fill="#FFB8B8"/>
<path d="M46.7045 215.598C46.7045 215.598 46.0909 232.941 45.4773 239.755C44.971 245.376 49.8943 261.115 48.1873 278.624C47.1455 289.952 47.2702 301.359 48.5592 312.66L51 335.142L32.5909 337L26.4546 286.209C26.4546 286.209 22.7727 250.285 24.6136 238.516L24 213.74C24 213.74 37.5 208.785 46.7045 215.598Z" fill="#FFB8B8"/>
<path d="M79.9721 142.58C79.9721 142.58 123.38 170.479 124 179.159C124 179.159 99.1955 176.679 98.5754 198.379C98.5754 198.379 83.6928 192.799 79.9721 191.559C76.2514 190.319 56.4078 177.299 56.4078 177.299C56.4078 177.299 48.3464 183.499 48.3464 193.419C48.3464 203.339 48.9665 220.698 48.3464 221.938C47.7263 223.178 33.4637 205.198 21.6816 220.698L13.6201 177.919C13.6201 177.919 11.1397 151.88 16.1006 150.02L50.8268 137L79.9721 142.58Z" fill="#2F2E41"/>
<path d="M53.5 45C63.7173 45 72 36.7173 72 26.5C72 16.2827 63.7173 8 53.5 8C43.2827 8 35 16.2827 35 26.5C35 36.7173 43.2827 45 53.5 45Z" fill="#FFB8B8"/>
<path d="M57.8567 58.9682C57.8567 58.9682 36.8296 64.4966 33.9831 54C33.9831 54 8.14496 58.9682 3.79518 75.6701C-0.554595 92.372 14.3589 132.58 14.3589 133.817C14.3589 135.055 1.93101 142.478 7.52358 146.189C13.1161 149.901 18.0873 145.571 15.6017 150.519C13.1161 155.468 8.76635 156.705 12.4947 157.942C16.2231 159.18 38.5934 140.003 55.9925 144.952C73.3916 149.901 82.0912 146.189 82.0912 146.189L89.8928 79.065C90.1974 76.4934 89.8502 73.8868 88.8829 71.4831C87.9156 69.0794 86.3589 66.9552 84.355 65.3042C80.4608 62.1134 75.2939 58.666 70.2847 57.731C60.3423 55.8752 59.9292 54.8593 59.9292 54.8593L57.8567 58.9682Z" fill="#D0CDE1"/>
<path d="M78 167C78 167 72.3866 198.975 64.9021 194.586C57.4177 190.198 66.7733 167 66.7733 167L78 167Z" fill="#FFB8B8"/>
<path d="M52.2184 171C52.2184 171 62.2016 201.402 53.3178 200.996C44.4341 200.59 42 176.122 42 176.122L52.2184 171Z" fill="#FFB8B8"/>
<path d="M86.0542 279.381C86.0542 279.381 90.3425 274.438 92.793 281.235C95.2434 288.031 101.982 296.682 101.982 296.682C101.982 296.682 116.685 313.364 106.271 313.982C95.856 314.6 81.1532 299.153 81.1532 299.153L64 283.088C64 283.088 69.6852 269.124 72.3562 269.001C75.0271 268.877 74.4144 285.56 86.0542 279.381Z" fill="#2F2E41"/>
<path d="M45.8969 330.082C45.8969 330.082 50.2255 331.38 49.9039 326C49.9039 326 65.5519 334.498 61.2524 340.806C61.2094 340.869 61.1663 340.932 61.1232 340.995C55.0679 349.848 46.7785 356.84 37.1455 361.22C32.4221 363.368 28.2196 364.797 27.4703 363.515C25.6277 360.361 25.6277 354.053 26.8562 351.529C28.0846 349.006 34.2268 344.591 32.3841 340.806C30.5415 337.021 32.9983 326.928 36.0694 326.928C39.1405 326.928 45.8969 330.082 45.8969 330.082Z" fill="#2F2E41"/>
<path d="M69.5135 10.4646C69.5135 10.4646 63.4569 -2.55423 51.8483 0.450116C40.2396 3.45446 33.6782 7.96096 33.1735 12.4675C32.6688 16.974 33.4259 23.7337 33.4259 23.7337C33.4259 23.7337 34.6877 14.4704 42.7632 16.4733C50.8388 18.4761 63.4569 16.974 63.4569 16.974L65.4758 35C65.4758 35 67.747 31.7453 70.2706 33.7482C72.7942 35.7511 77.5891 14.4703 69.5135 10.4646Z" fill="#2F2E41"/>
<path d="M14.1478 74.5407C14.1478 74.5407 29.1092 114.757 27.8625 119.707C26.6157 124.657 27.8625 125.276 29.7326 126.513C31.6028 127.751 36.59 140.744 36.59 140.744C36.59 140.744 39.7069 148.168 42.2005 150.024C44.694 151.881 44.6941 156.83 44.6941 156.83C44.6941 156.83 50.928 163.017 49.6812 164.255C48.4344 165.492 48.4344 167.348 50.928 169.205C53.4215 171.061 55.9151 173.536 54.6684 174.154C53.4216 174.773 44.6941 181.579 42.2005 180.96C39.7069 180.342 43.4473 177.867 40.3303 176.629C37.2134 175.392 35.3432 173.536 36.59 172.917C37.8367 172.298 41.5771 172.298 37.8367 171.061C34.0964 169.823 21.0051 161.78 16.6414 151.881C12.2776 141.981 -8.63042 82.0869 4.00548 73.6735C4.00548 73.6734 9.16063 67.1161 14.1478 74.5407Z" fill="#D0CDE1"/>
<path d="M83.4602 68L83.7121 68.1044C86.054 69.0759 88.1227 70.6006 89.7389 72.5466C91.3551 74.4925 92.4702 76.801 92.9876 79.2721C94.3415 85.7183 95.6736 95.042 94.6204 103.772C92.7604 119.192 91.5203 125.976 89.0403 130.91C86.5603 135.844 85.9403 133.994 86.5603 137.695C87.1803 141.395 90.2803 138.311 87.1803 143.246C84.0802 148.18 82.2202 146.946 83.4602 149.413C84.7002 151.88 86.5603 151.88 84.0802 154.964C81.6002 158.048 81.6002 159.281 80.9802 160.515C80.3602 161.748 78.5002 171 78.5002 171C78.5002 171 68.5801 167.916 63 169.15C63 169.15 67.9601 160.515 66.7201 158.665C65.4801 156.814 63.62 156.198 65.48 154.347C67.3401 152.497 70.4401 153.114 67.3401 151.263C64.24 149.413 69.8201 130.293 69.8201 130.293L83.4602 68Z" fill="#D0CDE1"/>
</svg>
