<svg width="492" height="322" viewBox="0 0 492 322" fill="none" xmlns="http://www.w3.org/2000/svg">
<g clip-path="url(#clip0)">
<path d="M146.373 318.898C186.255 318.898 218.586 286.562 218.586 246.673C218.586 206.785 186.255 174.449 146.373 174.449C106.491 174.449 74.1602 206.785 74.1602 246.673C74.1602 286.562 106.491 318.898 146.373 318.898Z" fill="#F2F2F2"/>
<path d="M492 318.962H12.1519V320.078H492V318.962Z" fill="#2F2E41"/>
<path d="M143.316 247.131C143.316 301.105 111.233 319.953 71.6603 319.953C70.7389 319.953 69.8226 319.943 68.9112 319.918C67.0785 319.878 65.2607 319.798 63.4678 319.669C27.7497 317.143 0 297.324 0 247.131C0 195.189 66.3563 129.644 71.3615 124.778C71.364 124.775 71.3676 124.773 71.3714 124.773C71.5607 124.584 71.6603 124.489 71.6603 124.489C71.6603 124.489 143.316 193.152 143.316 247.131Z" fill="#3F3D56"/>
<path d="M69.0454 311.694L95.2562 275.069L68.9806 315.714L68.9109 319.918C67.0782 319.878 65.2604 319.798 63.4676 319.669L66.2913 265.67L66.2714 265.252L66.3212 265.172L66.5852 260.071L40.2449 219.322L66.6649 256.246L66.7296 257.327L68.8661 216.528L46.3158 174.423L69.1401 209.36L71.3612 124.778L71.3712 124.489V124.773L71.0027 191.473L93.4485 165.029L70.908 197.216L70.3154 233.747L91.2771 198.691L70.2258 239.126L69.8971 259.434L100.326 210.635L69.7826 266.522L69.0454 311.694Z" fill="#F2F2F2"/>
<path d="M400.115 100.482L390.154 90.022C390.154 90.022 379.198 73.5847 371.23 78.0676C363.261 82.5505 382.684 93.0106 382.684 93.0106L392.644 109.448L400.115 100.482Z" fill="#FFB8B8"/>
<path d="M431.49 303.206C431.49 303.206 438.96 317.651 433.482 318.647C428.004 319.643 401.111 321.138 400.613 319.643C400.115 318.149 396.131 313.168 399.119 311.176C402.107 309.183 414.059 307.689 414.059 307.689L418.044 303.704L431.49 303.206Z" fill="#2F2E41"/>
<path d="M435.474 162.243C435.474 162.243 451.411 182.167 438.462 202.589L435.474 236.958C435.474 236.958 440.953 284.277 433.98 300.216L432.984 305.695H415.553L420.036 263.855C420.036 263.855 419.538 258.874 418.044 257.878C416.55 256.882 392.146 203.087 392.146 203.087C392.146 203.087 396.131 195.615 394.637 194.121C393.143 192.627 396.131 162.741 397.625 161.745C399.119 160.749 435.474 162.243 435.474 162.243Z" fill="#2F2E41"/>
<path d="M407.087 298.723L405.095 310.18L424.518 309.183L422.028 296.731L407.087 298.723Z" fill="#FFB8B8"/>
<path d="M410.573 95.4991C418.825 95.4991 425.514 88.8089 425.514 80.5562C425.514 72.3034 418.825 65.6132 410.573 65.6132C402.322 65.6132 395.633 72.3034 395.633 80.5562C395.633 88.8089 402.322 95.4991 410.573 95.4991Z" fill="#FFB8B8"/>
<path d="M424.02 83.0467L425.514 100.978L409.577 108.45C409.577 108.45 412.317 91.7634 410.324 87.2805L424.02 83.0467Z" fill="#FFB8B8"/>
<path d="M407.586 107.453L409.08 101.476L429.498 94.0048C429.498 94.0048 431.491 94.0048 430.993 97.4915C430.495 100.978 430.495 100.48 430.495 100.48C430.495 100.48 437.467 103.469 437.965 108.45C438.463 113.431 446.431 114.925 445.933 122.396C445.435 129.868 442.945 133.853 442.945 133.853C442.945 133.853 445.435 139.83 441.451 143.317C441.451 143.317 437.467 150.29 439.459 155.271C441.451 160.252 443.941 168.72 438.463 167.225C432.985 165.731 395.135 163.24 395.135 163.24C395.135 163.24 389.657 142.818 395.633 135.347C395.633 135.347 395.633 130.864 400.115 121.898C404.597 112.933 407.586 107.453 407.586 107.453Z" fill="#575A89"/>
<path d="M433.98 163.739C433.98 163.739 427.506 191.134 419.537 194.123C419.537 194.123 418.043 214.047 409.577 213.05C401.111 212.054 409.577 194.123 409.577 194.123L419.039 159.754L433.98 163.739Z" fill="#FFB8B8"/>
<path d="M408.582 108.949C408.582 108.949 401.112 96.9942 399.119 98.9866C397.127 100.979 387.167 106.956 387.665 110.941C388.163 114.926 392.645 114.926 392.645 114.926L403.104 122.895L408.582 108.949Z" fill="#575A89"/>
<path d="M398.123 198.105L392.146 202.402L388.162 244.927C388.162 244.927 402.605 302.706 406.589 303.204C410.573 303.702 427.008 303.702 426.51 302.208C426.012 300.714 423.522 294.737 423.522 293.242C423.522 291.748 418.327 279.798 418.327 279.798L411.569 251.9L413.063 229.984L398.123 198.105Z" fill="#2F2E41"/>
<path d="M405.593 306.193C405.593 306.193 426.51 299.718 427.506 301.212C428.502 302.706 435.145 317.767 425.847 319.452C416.549 321.136 383.182 324.125 383.182 319.642C383.182 315.159 384.178 312.17 387.166 312.17C390.154 312.17 403.601 305.695 404.597 304.201C405.593 302.706 405.593 306.193 405.593 306.193Z" fill="#2F2E41"/>
<path d="M424.74 81.5386C424.88 81.2603 424.928 80.9448 424.878 80.6374C424.827 80.33 424.681 80.0466 424.459 79.8276C424.238 79.6087 423.953 79.4655 423.645 79.4186C423.337 79.3717 423.022 79.4235 422.745 79.5665L422.719 79.5817C422.285 79.8454 421.938 80.2312 421.722 80.6908C421.506 81.1504 421.43 81.6635 421.504 82.1661C419.708 80.3738 421.031 76.7796 419.091 75.145C418.193 74.3884 416.735 74.2219 416.273 73.1419C416.005 72.5132 416.187 71.7679 415.951 71.1265C415.599 70.174 414.476 69.7763 413.472 69.6265C410.314 69.1556 407.121 69.957 404.029 70.7521C402.893 71.0445 401.697 71.3693 400.869 72.2014C399.997 73.0779 399.693 74.3513 399.159 75.4662C398.624 76.5811 395.116 76.4804 393.89 76.3226C393.464 75.1115 396.612 75.0202 396.869 73.7622C397.572 70.3238 395.125 66.6675 396.325 63.3697C397.049 61.3825 398.938 60.0671 400.839 59.1432C406.123 56.603 412.154 56.0882 417.792 57.6964C418.365 57.8231 418.902 58.0824 419.357 58.4536C420.081 59.1294 420.215 60.2144 420.697 61.0795C421.796 63.0505 424.4 63.5189 426.157 64.9351C428.817 67.0799 429.117 70.9527 429.203 74.369C429.246 76.0894 429.277 77.8771 428.572 79.4472C427.868 81.0173 426.198 82.2967 424.509 81.9678C424.589 81.8379 424.666 81.6927 424.74 81.5386Z" fill="#2F2E41"/>
<path d="M422.142 113.8C424.07 112.462 426.387 111.801 428.731 111.92C431.074 112.039 433.312 112.932 435.095 114.459C438.527 117.376 442.219 121.555 441.949 125.882C441.451 133.851 438.463 166.726 434.479 167.224C430.495 167.722 416.052 163.737 416.052 161.247C416.052 158.756 419.538 155.768 419.538 155.768L415.305 130.367C414.772 127.287 415.108 124.12 416.276 121.221C417.445 118.323 419.399 115.807 421.919 113.959C421.993 113.906 422.067 113.853 422.142 113.8Z" fill="#575A89"/>
<path d="M366.617 0.000597206H246.785C241.003 0.000594992 235.392 1.96826 230.876 5.58015C226.36 9.19205 223.207 14.2332 221.935 19.875L161.386 288.483C160.726 291.413 160.714 294.452 161.352 297.387C161.99 300.321 163.262 303.081 165.08 305.472C166.897 307.863 169.215 309.828 171.871 311.228C174.528 312.629 177.458 313.431 180.458 313.579L303.645 319.649C310.242 319.974 316.731 317.888 321.902 313.779C327.073 309.67 330.573 303.82 331.749 297.32L366.096 107.411L368.651 108.142L375.223 72.1468L372.593 71.4892L382.18 18.4787C382.591 16.2082 382.495 13.875 381.901 11.6455C381.307 9.416 380.228 7.34508 378.742 5.58037C377.255 3.81567 375.398 2.40064 373.302 1.43617C371.206 0.471694 368.924 -0.018479 366.617 0.000597206Z" fill="#3F3D56"/>
<path d="M262.563 5.78907H248.575C244.558 5.78907 240.661 7.16313 237.533 9.68315C234.404 12.2032 232.231 15.7176 231.375 19.6429L173.257 286.06C172.922 287.593 172.922 289.181 173.258 290.715C173.593 292.249 174.255 293.692 175.199 294.947C176.143 296.201 177.347 297.237 178.728 297.983C180.109 298.73 181.634 299.169 183.201 299.272L305.99 307.321C309.454 307.548 312.88 306.491 315.615 304.353C318.35 302.214 320.202 299.143 320.817 295.726L370.41 20.3585C370.731 18.5762 370.657 16.7452 370.193 14.9946C369.729 13.2441 368.887 11.6167 367.726 10.2272C366.564 8.83781 365.112 7.72024 363.472 6.95338C361.832 6.18652 360.043 5.78907 358.232 5.78907H344.963C343.678 5.78907 342.43 6.21253 341.41 6.99389C340.391 7.77525 339.658 8.87092 339.324 10.1113C339.029 11.2063 338.381 12.1736 337.481 12.8634C336.581 13.5532 335.479 13.927 334.345 13.927H271.349C269.129 13.927 266.99 13.0888 265.361 11.5801C263.732 10.0713 262.733 8.00311 262.563 5.78906L262.563 5.78907Z" fill="#774CDA"/>
<path d="M350.501 74.6523H223.443V75.2783H350.501V74.6523Z" fill="#2F2E41"/>
<path d="M346.745 94.9956H218.436V95.6216H346.745V94.9956Z" fill="#2F2E41"/>
<path d="M342.477 73.6592L339.589 69.8094L340.09 69.4343L342.585 72.7611L352.2 64.8937L352.596 65.3783L342.477 73.6592Z" fill="#2F2E41"/>
<path d="M325.891 164.43L323.004 160.58L323.504 160.205L326 163.532L335.614 155.664L336.011 156.149L325.891 164.43Z" fill="#2F2E41"/>
<path d="M204.359 164.483L204.346 165.109L337.35 167.926L337.363 167.3L204.359 164.483Z" fill="#2F2E41"/>
<path d="M200.292 182.948L200.277 183.574L335.785 186.704L335.799 186.078L200.292 182.948Z" fill="#2F2E41"/>
<path opacity="0.1" d="M283.373 236.313C283.373 244.199 280.24 251.762 274.665 257.339C269.089 262.915 261.527 266.048 253.642 266.048C245.757 266.048 238.195 262.915 232.62 257.339C227.044 251.762 223.912 244.199 223.912 236.313C223.912 235.941 223.918 235.571 223.934 235.202C224.225 227.417 227.559 220.058 233.218 214.706C238.878 209.354 246.411 206.438 254.199 206.583C261.986 206.729 269.405 209.925 274.861 215.485C280.316 221.044 283.373 228.523 283.373 236.313Z" fill="black"/>
<path opacity="0.1" d="M280.556 247.896C280.556 248.268 280.549 248.638 280.534 249.007C277.65 255.117 272.772 260.062 266.702 263.029C260.633 265.996 253.735 266.808 247.143 265.33C240.551 263.852 234.659 260.174 230.436 254.9C226.214 249.626 223.912 243.071 223.912 236.315C223.912 235.943 223.918 235.573 223.934 235.204C226.817 229.094 231.696 224.149 237.765 221.182C243.834 218.215 250.733 217.403 257.324 218.881C263.916 220.359 269.808 224.037 274.031 229.311C278.254 234.585 280.555 241.14 280.556 247.896H280.556Z" fill="black"/>
<path d="M247.625 244.495L237.056 230.401L239.559 228.523L248.17 240.005L282.069 212.266L284.051 214.688L247.625 244.495Z" fill="#F2F2F2"/>
</g>
<defs>
<clipPath id="clip0">
<rect width="492" height="322" fill="white"/>
</clipPath>
</defs>
</svg>
