<svg width="573" height="354" viewBox="0 0 573 354" fill="none" xmlns="http://www.w3.org/2000/svg">
<path opacity="0.16" d="M469 187.161C469 243.224 436.083 292.821 385.621 323.012C353.267 342.373 313.697 353.758 270.972 353.758C214.053 353.758 119.135 360.768 137.975 299.375C156.815 237.981 86.91 229.025 72.9432 187.161C10.5923 0.246294 156.322 96.1054 270.972 20.5646C385.621 -54.9763 469 95.155 469 187.161Z" fill="#774CDA"/>
<path d="M447.594 80.9106H307.088V78.0117H243.377V80.9106H102.291C101.043 80.9106 99.8073 81.1567 98.6542 81.6348C97.5011 82.1129 96.4534 82.8137 95.5708 83.6971C94.6883 84.5805 93.9882 85.6293 93.5106 86.7836C93.0329 87.9378 92.7871 89.175 92.7871 90.4243V283.014C92.7871 285.537 93.7884 287.957 95.5708 289.741C97.3532 291.525 99.7706 292.528 102.291 292.528H447.594C450.115 292.528 452.532 291.525 454.315 289.741C456.097 287.957 457.098 285.537 457.098 283.014V90.4243C457.098 89.175 456.852 87.9378 456.375 86.7836C455.897 85.6293 455.197 84.5805 454.315 83.6971C453.432 82.8137 452.384 82.1129 451.231 81.6348C450.078 81.1567 448.842 80.9106 447.594 80.9106Z" fill="#3F3D56"/>
<path opacity="0.1" d="M444.357 97.7258H105.53V289.051H444.357V97.7258Z" fill="black"/>
<path d="M274.654 92.5078C276.573 92.5078 278.129 90.9504 278.129 89.0292C278.129 87.108 276.573 85.5505 274.654 85.5505C272.735 85.5505 271.179 87.108 271.179 89.0292C271.179 90.9504 272.735 92.5078 274.654 92.5078Z" fill="#42C07C"/>
<path d="M466.613 285.573H433.545V283.188C433.545 283.126 433.533 283.064 433.509 283.007C433.486 282.949 433.451 282.897 433.407 282.853C433.363 282.809 433.311 282.775 433.254 282.751C433.196 282.727 433.135 282.715 433.073 282.715H421.736C421.674 282.715 421.612 282.727 421.555 282.751C421.497 282.775 421.445 282.809 421.402 282.853C421.358 282.897 421.323 282.949 421.299 283.007C421.275 283.064 421.263 283.126 421.263 283.188V285.573H414.177V283.188C414.177 283.126 414.165 283.064 414.141 283.007C414.118 282.949 414.083 282.897 414.039 282.853C413.995 282.809 413.943 282.775 413.886 282.751C413.828 282.727 413.767 282.715 413.705 282.715H402.368C402.306 282.715 402.244 282.727 402.187 282.751C402.129 282.775 402.077 282.809 402.034 282.853C401.99 282.897 401.955 282.949 401.931 283.007C401.907 283.064 401.895 283.126 401.895 283.188V285.573H394.809V283.188C394.809 283.126 394.797 283.064 394.773 283.007C394.75 282.949 394.715 282.897 394.671 282.853C394.627 282.809 394.575 282.775 394.518 282.751C394.46 282.727 394.399 282.715 394.337 282.715H383C382.938 282.715 382.876 282.727 382.819 282.751C382.762 282.775 382.709 282.809 382.666 282.853C382.622 282.897 382.587 282.949 382.563 283.007C382.539 283.064 382.527 283.126 382.527 283.188V285.573H375.441V283.188C375.441 283.126 375.429 283.064 375.405 283.007C375.382 282.949 375.347 282.897 375.303 282.853C375.259 282.809 375.207 282.775 375.15 282.751C375.092 282.727 375.031 282.715 374.969 282.715H363.632C363.57 282.715 363.508 282.727 363.451 282.751C363.394 282.775 363.341 282.809 363.298 282.853C363.254 282.897 363.219 282.949 363.195 283.007C363.171 283.064 363.159 283.126 363.159 283.188V285.573H356.073V283.188C356.073 283.126 356.061 283.064 356.037 283.007C356.014 282.949 355.979 282.897 355.935 282.853C355.891 282.809 355.839 282.775 355.782 282.751C355.724 282.727 355.663 282.715 355.601 282.715H344.264C344.202 282.715 344.14 282.727 344.083 282.751C344.026 282.775 343.973 282.809 343.93 282.853C343.886 282.897 343.851 282.949 343.827 283.007C343.803 283.064 343.791 283.126 343.791 283.188V285.573H336.705V283.188C336.705 283.126 336.693 283.064 336.669 283.007C336.646 282.949 336.611 282.897 336.567 282.853C336.523 282.809 336.471 282.775 336.414 282.751C336.356 282.727 336.295 282.715 336.233 282.715H324.896C324.834 282.715 324.772 282.727 324.715 282.751C324.658 282.775 324.605 282.809 324.562 282.853C324.518 282.897 324.483 282.949 324.459 283.007C324.435 283.064 324.423 283.126 324.423 283.188V285.573H317.337V283.188C317.337 283.126 317.325 283.064 317.301 283.007C317.278 282.949 317.243 282.897 317.199 282.853C317.155 282.809 317.103 282.775 317.046 282.751C316.988 282.727 316.927 282.715 316.865 282.715H228.056C227.994 282.715 227.932 282.727 227.875 282.751C227.818 282.775 227.766 282.809 227.722 282.853C227.678 282.897 227.643 282.949 227.619 283.007C227.596 283.064 227.583 283.126 227.583 283.188V285.573H220.497V283.188C220.497 283.126 220.485 283.064 220.462 283.007C220.438 282.949 220.403 282.897 220.359 282.853C220.315 282.809 220.263 282.775 220.206 282.751C220.149 282.727 220.087 282.715 220.025 282.715H208.688C208.626 282.715 208.564 282.727 208.507 282.751C208.45 282.775 208.398 282.809 208.354 282.853C208.31 282.897 208.275 282.949 208.251 283.007C208.228 283.064 208.215 283.126 208.215 283.188V285.573H201.129V283.188C201.129 283.126 201.117 283.064 201.094 283.007C201.07 282.949 201.035 282.897 200.991 282.853C200.947 282.809 200.895 282.775 200.838 282.751C200.781 282.727 200.719 282.715 200.657 282.715H189.32C189.258 282.715 189.196 282.727 189.139 282.751C189.082 282.775 189.03 282.809 188.986 282.853C188.942 282.897 188.907 282.949 188.883 283.007C188.86 283.064 188.847 283.126 188.847 283.188V285.573H181.761V283.188C181.761 283.126 181.749 283.064 181.726 283.007C181.702 282.949 181.667 282.897 181.623 282.853C181.579 282.809 181.527 282.775 181.47 282.751C181.413 282.727 181.351 282.715 181.289 282.715H169.952C169.89 282.715 169.828 282.727 169.771 282.751C169.714 282.775 169.662 282.809 169.618 282.853C169.574 282.897 169.539 282.949 169.515 283.007C169.492 283.064 169.479 283.126 169.479 283.188V285.573H162.394V283.188C162.394 283.126 162.381 283.064 162.358 283.007C162.334 282.949 162.299 282.897 162.255 282.853C162.211 282.809 162.159 282.775 162.102 282.751C162.045 282.727 161.983 282.715 161.921 282.715H150.584C150.522 282.715 150.46 282.727 150.403 282.751C150.346 282.775 150.294 282.809 150.25 282.853C150.206 282.897 150.171 282.949 150.147 283.007C150.124 283.064 150.111 283.126 150.111 283.188V285.573H143.026V283.188C143.026 283.126 143.013 283.064 142.99 283.007C142.966 282.949 142.931 282.897 142.887 282.853C142.843 282.809 142.791 282.775 142.734 282.751C142.677 282.727 142.615 282.715 142.553 282.715H131.216C131.154 282.715 131.092 282.727 131.035 282.751C130.978 282.775 130.926 282.809 130.882 282.853C130.838 282.897 130.803 282.949 130.779 283.007C130.756 283.064 130.743 283.126 130.743 283.188V285.573H123.658V283.188C123.658 283.126 123.645 283.064 123.622 283.007C123.598 282.949 123.563 282.897 123.519 282.853C123.475 282.809 123.423 282.775 123.366 282.751C123.309 282.727 123.247 282.715 123.185 282.715H111.848C111.786 282.715 111.724 282.727 111.667 282.751C111.61 282.775 111.558 282.809 111.514 282.853C111.47 282.897 111.435 282.949 111.411 283.007C111.388 283.064 111.375 283.126 111.375 283.188V285.573H89.6455C86.6386 285.573 83.7549 286.768 81.6287 288.897C79.5026 291.025 78.3081 293.911 78.3081 296.921V302.053C78.3081 305.063 79.5026 307.949 81.6287 310.078C83.7549 312.206 86.6386 313.402 89.6455 313.402H466.613C469.619 313.402 472.503 312.206 474.629 310.078C476.756 307.949 477.95 305.063 477.95 302.053V296.921C477.95 293.911 476.756 291.025 474.629 288.897C472.503 286.768 469.619 285.573 466.613 285.573Z" fill="#3F3D56"/>
<path d="M343.588 119.441H206.414V263.781H343.588V119.441Z" fill="#774CDA"/>
<path d="M278.966 113.45C278.966 113.45 267.27 109.269 259.75 125.995C252.231 142.721 240.534 161.12 240.534 161.12L247.218 162.793C247.218 162.793 248.889 151.084 253.067 149.412L251.396 164.466C251.396 164.466 301.524 182.028 324.082 162.793L323.247 156.939C323.247 156.939 326.589 157.775 326.589 162.793L329.095 160.284C329.095 160.284 326.589 155.266 319.07 148.576C314.134 144.184 312.438 135.83 311.855 130.606C311.419 126.245 309.675 122.117 306.854 118.764C301.857 112.967 292.752 106.806 278.966 113.45Z" fill="#2F2E41"/>
<path d="M214.333 129.231L209.472 78.415C209.472 78.415 199.751 50.8444 214.333 53.0068C228.914 55.1692 220.273 76.2526 220.273 76.2526L228.374 129.231H214.333Z" fill="#FFB9B9"/>
<path d="M285.081 167.072C295.818 167.072 304.523 158.358 304.523 147.61C304.523 136.862 295.818 128.148 285.081 128.148C274.343 128.148 265.639 136.862 265.639 147.61C265.639 158.358 274.343 167.072 285.081 167.072Z" fill="#FFB9B9"/>
<path d="M271.04 156.262C271.04 156.262 269.96 178.426 264.559 180.048C259.158 181.67 244.037 199.51 251.058 204.916C258.078 210.322 298.583 206.537 298.583 206.537L294.802 178.426C294.802 178.426 286.161 172.48 293.182 162.208L271.04 156.262Z" fill="#FFB9B9"/>
<path d="M311.579 264.866H235.215C235.49 259.973 236.182 253.064 237.067 245.469C237.337 243.166 237.623 240.793 237.921 238.398C240.54 217.288 244.034 194.107 244.034 194.107L244.952 191.982L254.295 170.32L254.392 170.358L266.716 175.186L267.154 177.262L270.497 193.025L292.126 175.548L312.081 172.423L313.431 172.212L315.861 195.188C315.861 195.188 315.753 200.324 315.64 207.638C315.51 216.044 315.37 227.332 315.381 237.003C315.386 241.625 315.424 245.88 315.516 249.275C315.591 252.135 315.705 254.389 315.861 255.735C316.223 258.8 314.301 261.984 311.579 264.866Z" fill="#3F3D56"/>
<path d="M254.837 173.019L254.297 169.776L239.175 151.395L230.534 120.581L209.472 128.69L224.594 165.992L246.196 193.562L254.837 173.019Z" fill="#3F3D56"/>
<path d="M259.539 149.939C259.539 149.939 266.223 140.739 272.071 139.066C277.919 137.394 278.755 129.031 278.755 129.031C278.755 129.031 293.793 145.757 302.984 146.593C312.174 147.43 303.819 126.522 303.819 126.522L287.11 122.34L271.236 124.013L258.703 132.376L259.539 149.939Z" fill="#2F2E41"/>
<path d="M313.346 246.481L261.678 248.533C261.678 248.533 233.206 255.057 237.015 240.802C240.823 226.548 260.763 237.545 260.763 237.545L314.267 235.529L313.346 246.481Z" fill="#FFB9B9"/>
<path d="M307.493 175.993L312.353 172.209C312.353 172.209 320.454 167.884 322.074 183.021C323.694 198.157 335.576 248.433 323.694 248.974C311.813 249.514 281.57 250.055 281.57 250.055L284.81 233.296L309.653 231.675L307.493 175.993Z" fill="#3F3D56"/>
<path opacity="0.15" d="M309.113 199.239L307.492 230.053L283.73 234.918L305.332 226.268L309.113 199.239Z" fill="black"/>
<path d="M286.716 27H154.942V61.5983H286.716V27Z" fill="#774CDA"/>
<path d="M573 312.919H0V314H573V312.919Z" fill="#3F3D56"/>
<path d="M517.351 275.151C525.115 283.49 525.516 295.748 525.516 295.748C525.516 295.748 513.33 294.484 505.566 286.144C497.802 277.805 497.401 265.548 497.401 265.548C497.401 265.548 509.587 266.811 517.351 275.151Z" fill="#774CDA"/>
<path d="M541.793 288.169C533.462 295.941 521.217 296.343 521.217 296.343C521.217 296.343 522.479 284.144 530.81 276.373C539.141 268.601 551.387 268.199 551.387 268.199C551.387 268.199 550.124 280.398 541.793 288.169Z" fill="#774CDA"/>
<path d="M539.722 312.92H509.079C508.491 312.92 507.915 312.755 507.417 312.443C506.919 312.131 506.518 311.684 506.261 311.155L499.589 297.428C499.357 296.949 499.25 296.42 499.278 295.889C499.306 295.358 499.469 294.842 499.751 294.391C500.032 293.94 500.424 293.569 500.889 293.311C501.354 293.053 501.876 292.918 502.408 292.918H546.393C546.924 292.918 547.447 293.053 547.912 293.311C548.377 293.569 548.768 293.94 549.05 294.391C549.332 294.842 549.495 295.358 549.523 295.889C549.551 296.42 549.444 296.949 549.211 297.428L542.54 311.155C542.283 311.684 541.882 312.131 541.384 312.443C540.885 312.755 540.309 312.92 539.722 312.92Z" fill="#3F3D56"/>
<path d="M32.9204 275.151C40.6842 283.49 41.0855 295.748 41.0855 295.748C41.0855 295.748 28.8992 294.484 21.1353 286.144C13.3715 277.805 12.9702 265.548 12.9702 265.548C12.9702 265.548 25.1566 266.811 32.9204 275.151Z" fill="#774CDA"/>
<path d="M50.4305 312.92H19.7881C19.2003 312.92 18.6243 312.755 18.126 312.443C17.6276 312.131 17.227 311.684 16.9698 311.155L10.2982 297.428C10.0658 296.949 9.95863 296.42 9.98684 295.889C10.0151 295.358 10.1777 294.842 10.4595 294.391C10.7413 293.94 11.133 293.569 11.5978 293.311C12.0626 293.053 12.5852 292.918 13.1166 292.918H57.102C57.6334 292.918 58.156 293.053 58.6208 293.311C59.0856 293.569 59.4773 293.94 59.7591 294.391C60.0409 294.842 60.2036 295.358 60.2318 295.889C60.26 296.42 60.1528 296.949 59.9204 297.428L53.2488 311.155C52.9917 311.684 52.591 312.131 52.0927 312.443C51.5943 312.755 51.0183 312.92 50.4305 312.92Z" fill="#3F3D56"/>
<path d="M269.974 40.906H171.684V47.6926H269.974V40.906Z" fill="white"/>
</svg>
