<svg xmlns="http://www.w3.org/2000/svg" width="35" height="20"><g fill="none" fill-rule="evenodd"><path fill="#191D27" d="M-207-2947h1440V167H-207z"/><path fill="#818297" fill-rule="nonzero" d="M34.232 1.857c.274.762-.619 2.512-2.678 5.25-.286.381-.673.887-1.161 1.518a42.232 42.232 0 0 0-.982 1.286c-.179.25-.36.544-.545.884-.184.339-.256.589-.214.75.041.16.119.366.232.616.113.25.306.506.58.768.274.261.613.577 1.018.946.048.024.078.048.09.071 1.678 1.56 2.815 2.875 3.41 3.947.036.06.075.134.116.223.042.09.084.247.125.473.042.226.039.429-.009.607-.047.179-.196.343-.446.491-.25.15-.601.224-1.054.224l-4.571.071c-.286.06-.62.03-1-.09a4.346 4.346 0 0 1-.929-.392l-.357-.214c-.357-.25-.774-.631-1.25-1.143a31.84 31.84 0 0 1-1.223-1.384 5.916 5.916 0 0 0-1.09-1.036c-.386-.28-.723-.372-1.008-.277a1.167 1.167 0 0 0-.143.063c-.06.03-.16.116-.304.259a2.27 2.27 0 0 0-.384.527c-.113.208-.214.517-.303.928-.09.41-.128.872-.116 1.384 0 .179-.021.342-.063.491a1.205 1.205 0 0 1-.134.33l-.071.09c-.214.226-.53.357-.947.393h-2.053a8.115 8.115 0 0 1-2.607-.295c-.893-.244-1.676-.56-2.348-.946a21.413 21.413 0 0 1-1.84-1.179c-.553-.399-.973-.741-1.259-1.027l-.446-.428a11.751 11.751 0 0 1-.491-.536c-.209-.238-.634-.78-1.277-1.625a44.64 44.64 0 0 1-1.893-2.696C3.988 10.226 3.26 8.97 2.42 7.41A58.945 58.945 0 0 1 .09 2.554a1.424 1.424 0 0 1-.108-.483c0-.13.018-.226.054-.285l.071-.107c.179-.227.518-.34 1.018-.34l4.893-.035c.143.023.28.062.41.116.132.053.227.104.286.151l.09.054c.19.131.333.321.428.571.238.596.512 1.212.822 1.849.31.637.553 1.122.732 1.455l.285.518c.346.714.679 1.333 1 1.857.322.524.61.932.867 1.223.255.292.502.521.74.688.239.166.441.25.608.25.166 0 .327-.03.482-.09a.307.307 0 0 0 .09-.089 3.55 3.55 0 0 0 .213-.393 2.89 2.89 0 0 0 .242-.839c.053-.345.11-.827.17-1.446.059-.62.059-1.364 0-2.233a8.299 8.299 0 0 0-.162-1.303c-.083-.393-.166-.667-.25-.822l-.107-.214c-.297-.405-.803-.66-1.518-.768-.154-.024-.125-.166.09-.428.19-.226.416-.405.678-.536.631-.31 2.054-.452 4.268-.429.976.012 1.78.09 2.41.233.239.06.438.14.6.24.16.102.282.245.365.43.083.184.146.374.188.57.041.197.062.468.062.813 0 .345-.006.673-.018.982-.012.31-.026.73-.044 1.26a43.5 43.5 0 0 0-.027 1.472c0 .131-.006.381-.018.75-.012.37-.015.655-.009.858.006.202.027.443.063.723.035.28.104.512.205.696.101.185.235.33.402.438.095.024.196.047.303.071.107.024.262-.042.465-.196.202-.155.428-.36.678-.616.25-.256.56-.655.929-1.197.369-.541.774-1.181 1.214-1.92a29.138 29.138 0 0 0 1.91-4.017c.048-.12.108-.224.18-.313a.798.798 0 0 1 .196-.187l.071-.054.09-.044a.948.948 0 0 1 .232-.054c.119-.018.238-.02.357-.009l5.143-.036c.464-.06.845-.044 1.142.045.298.09.483.187.554.295l.107.178z"/></g></svg>