<svg width="130" height="37" viewBox="0 0 130 37" fill="none" xmlns="http://www.w3.org/2000/svg">
<path fill-rule="evenodd" clip-rule="evenodd" d="M40.6371 24.0469C40.1152 23.1866 40.3918 22.0656 41.253 21.5442C42.1142 21.0228 43.2363 21.2991 43.7582 22.1594C44.4367 23.2804 45.4023 24.2137 46.5558 24.8602C47.6622 25.4807 48.941 25.8405 50.3084 25.8405C52.417 25.8405 54.3325 24.9854 55.7156 23.6037C57.0987 22.222 57.9546 20.3137 57.9546 18.202C57.9546 16.0956 57.0987 14.182 55.7156 12.8003C54.3325 11.4186 52.4222 10.5635 50.3084 10.5635C44.8334 10.5635 40.3292 15.6836 35.4231 21.2678C29.1756 28.3745 22.3332 36.1589 11.3936 36.6856C10.3863 36.7325 9.53031 35.9556 9.48334 34.9493C9.43636 33.943 10.214 33.0879 11.2214 33.041C20.6108 32.5874 26.9157 25.4181 32.6725 18.8642C38.1527 12.6283 43.1841 6.90331 50.3032 6.90331C53.4243 6.90331 56.2531 8.1703 58.2991 10.2142C60.345 12.2581 61.6133 15.084 61.6133 18.202C61.6133 21.32 60.345 24.1459 58.2991 26.1898C56.2531 28.2337 53.4243 29.5007 50.3032 29.5007C48.2938 29.5007 46.4044 28.9741 44.7603 28.0512C43.0693 27.0918 41.6444 25.7101 40.6371 24.0469ZM25.7935 7.42471C24.1338 5.27655 21.8478 3.35259 19.2329 2.00738C16.8112 0.761241 14.0919 0 11.3049 0C10.2923 0 9.4729 0.818595 9.4729 1.83011C9.4729 2.84162 10.2923 3.66021 11.3049 3.66021C13.4917 3.66021 15.6368 4.26503 17.5575 5.25569C19.6974 6.35584 21.5555 7.92003 22.8968 9.65629C23.5127 10.454 24.661 10.6 25.4595 9.98477C26.2633 9.36952 26.4094 8.22244 25.7935 7.42471Z" fill="white"/>
<path fill-rule="evenodd" clip-rule="evenodd" d="M20.9762 12.6505C21.4981 13.5108 21.2215 14.6318 20.3603 15.1532C19.4992 15.6746 18.377 15.3982 17.8551 14.5379C17.1766 13.4169 16.211 12.4888 15.0576 11.8371C13.9511 11.2166 12.6724 10.8569 11.3049 10.8569C9.19634 10.8569 7.28087 11.712 5.89777 13.0937C4.51466 14.4754 3.6587 16.3837 3.6587 18.4953C3.6587 20.6018 4.51466 22.5153 5.89777 23.897C7.28087 25.2787 9.19112 26.1338 11.3049 26.1338C16.7799 26.1338 21.2842 21.0137 26.1903 15.4295C32.4377 8.32287 39.2802 0.538396 50.2198 0.0117843C51.2271 -0.0351415 52.083 0.741741 52.13 1.74804C52.177 2.75434 51.3993 3.60943 50.392 3.65636C41.0025 4.10997 34.6977 11.2792 28.9408 17.8332C23.4606 24.0691 18.4292 29.794 11.3101 29.794C8.18902 29.794 5.36018 28.527 3.31423 26.4832C1.26828 24.4393 0 21.6133 0 18.4953C0 15.3774 1.26828 12.5514 3.31423 10.5075C5.36018 8.46364 8.18902 7.19665 11.3101 7.19665C13.3196 7.19665 15.2089 7.72326 16.853 8.64613C18.5388 9.60029 19.9637 10.982 20.9762 12.6505ZM35.8146 29.2674C37.4743 31.4156 39.7603 33.3395 42.3752 34.6847C44.8022 35.9309 47.5162 36.6921 50.3033 36.6921C51.3158 36.6921 52.1352 35.8735 52.1352 34.862C52.1352 33.8505 51.3158 33.0319 50.3033 33.0319C48.1164 33.0319 45.9713 32.4271 44.0506 31.4364C41.9107 30.3363 40.0526 28.7721 38.7113 27.0358C38.0954 26.2381 36.9472 26.0921 36.1486 26.7074C35.3501 27.3226 35.1987 28.4697 35.8146 29.2674Z" fill="white"/>
<path fill-rule="evenodd" clip-rule="evenodd" d="M77.8352 5.8303C77.7978 5.67351 77.7512 5.52134 77.6952 5.37378C77.5366 4.96798 77.2987 4.61752 76.9769 4.30856C76.6597 4.00421 76.2585 3.76904 75.7734 3.59842C75.2883 3.4278 74.7192 3.34479 74.0661 3.34018C73.4877 3.34018 72.9513 3.40474 72.4615 3.54308C71.9717 3.67681 71.5472 3.88432 71.188 4.16561C70.8289 4.4469 70.549 4.79736 70.3437 5.23083C70.1432 5.65968 70.0405 6.17615 70.0405 6.7664C70.0452 7.28287 70.1292 7.71633 70.2971 8.06679C70.465 8.42187 70.6936 8.70777 70.9828 8.92911C71.2673 9.15046 71.5939 9.32108 71.9577 9.44097C72.3169 9.56087 72.6994 9.64387 73.0866 9.68998C73.4084 9.72688 73.7163 9.76377 74.0102 9.80066C74.304 9.83755 74.5652 9.88827 74.7938 9.95283C75.0224 10.0174 75.2043 10.1142 75.3396 10.2433C75.4702 10.3678 75.5402 10.5431 75.5402 10.7644C75.5402 10.9397 75.4842 11.1103 75.3722 11.2717C75.2603 11.4331 75.097 11.5668 74.8731 11.6682C74.6492 11.7743 74.374 11.8296 74.0428 11.8296C73.6463 11.8296 73.3338 11.7835 73.1005 11.6913C72.8673 11.5991 72.6994 11.4653 72.5874 11.2947C72.5501 11.2394 72.5221 11.1794 72.4941 11.1149C72.3822 10.8382 72.1303 10.6676 71.8271 10.6676H70.6983C70.4697 10.6676 70.2738 10.7598 70.1338 10.9397C69.9939 11.1149 69.9472 11.327 70.0032 11.5484C70.0825 11.8711 70.2131 12.1617 70.3857 12.4291C70.7076 12.9179 71.1694 13.3007 71.7711 13.5635C72.3729 13.831 73.0959 13.9647 73.9448 13.9693C74.5233 13.9693 75.0597 13.9047 75.5542 13.7756C76.0486 13.6465 76.4871 13.4482 76.8603 13.1808C77.2334 12.9133 77.5273 12.5721 77.7372 12.157C77.9471 11.742 78.0544 11.244 78.0591 10.6722C78.0544 10.2065 77.9751 9.79604 77.8165 9.45481C77.6532 9.10896 77.4387 8.82306 77.1681 8.59249C76.8976 8.36192 76.5897 8.18208 76.2538 8.05296C75.918 7.92384 75.5681 7.84084 75.209 7.79934C74.8498 7.76245 74.5093 7.73478 74.1921 7.71172C73.8749 7.68867 73.595 7.64716 73.3478 7.59183C73.1052 7.53188 72.9093 7.43043 72.7694 7.28748C72.6294 7.13992 72.5594 6.92318 72.5548 6.63728C72.5594 6.27299 72.6947 5.99631 72.9653 5.81185C73.2312 5.62279 73.609 5.53056 74.0895 5.53056C74.3553 5.53056 74.5979 5.56745 74.8125 5.65046C75.027 5.73346 75.1996 5.85797 75.3256 6.0332C75.3722 6.09315 75.4095 6.16231 75.4375 6.24071C75.5448 6.51739 75.8014 6.69262 76.1046 6.69262H77.1448C77.3687 6.69262 77.5646 6.60039 77.7046 6.42516C77.8352 6.25454 77.8865 6.04703 77.8352 5.8303ZM120.106 3.35863C121.002 3.35401 121.762 3.49697 122.373 3.78287C122.597 3.88893 122.802 4.01344 122.989 4.161C123.171 4.01344 123.376 3.88432 123.6 3.78287C124.206 3.49697 124.962 3.35863 125.867 3.35863C126.763 3.35401 127.523 3.49697 128.134 3.78287C128.75 4.06877 129.212 4.51607 129.524 5.12938C129.841 5.73807 130 6.53122 130 7.50421C130 9.41331 130 11.327 130 13.2361C130 13.6281 129.678 13.9416 129.286 13.9416H128.246C127.849 13.9416 127.532 13.6235 127.532 13.2361C127.532 11.3408 127.532 9.4502 127.532 7.55494C127.528 7.0523 127.458 6.65573 127.318 6.3606C127.178 6.06548 126.982 5.85336 126.735 5.72424C126.487 5.59973 126.198 5.53518 125.872 5.53979C125.452 5.53979 125.125 5.61818 124.887 5.77957C124.65 5.93636 124.486 6.16232 124.388 6.45744C124.295 6.73412 124.248 7.07075 124.248 7.45349V7.50421C124.248 9.41331 124.248 11.327 124.248 13.2361C124.248 13.6281 123.927 13.9416 123.535 13.9416H122.494C122.098 13.9416 121.781 13.6235 121.781 13.2361C121.781 11.3408 121.781 9.4502 121.781 7.55494C121.776 7.0523 121.711 6.65573 121.566 6.3606C121.426 6.06548 121.23 5.85336 120.983 5.72424C120.736 5.59973 120.447 5.53518 120.12 5.53979C119.7 5.53979 119.374 5.61818 119.136 5.77957C118.898 5.93636 118.735 6.16232 118.637 6.45744C118.539 6.75718 118.492 7.11686 118.497 7.5411C118.497 9.44097 118.497 11.3408 118.497 13.2407C118.497 13.6327 118.175 13.9462 117.783 13.9462H116.743C116.346 13.9462 116.029 13.6281 116.029 13.2407V7.48116C116.029 6.51278 116.183 5.72885 116.491 5.12015C116.799 4.51146 117.256 4.06877 117.862 3.78287C118.45 3.49236 119.206 3.35401 120.106 3.35863ZM111.98 11.1379C111.915 11.2947 111.812 11.4285 111.663 11.5391C111.397 11.7374 110.977 11.8343 110.394 11.8343C109.018 11.8527 108.715 11.0595 108.715 9.8191V9.52398H113.776C114.173 9.52398 114.49 9.2058 114.49 8.81844C114.49 8.36653 114.49 7.91462 114.49 7.46732C114.49 4.67747 113.189 3.35401 110.357 3.36324C107.526 3.35401 106.224 4.67747 106.224 7.46732V9.86061C106.224 12.6505 107.526 13.9739 110.357 13.9647C111.752 13.9693 112.792 13.7018 113.473 13.1623C113.968 12.7704 114.28 12.2308 114.415 11.5391C114.499 11.1011 114.163 10.6999 113.711 10.6999H112.643C112.344 10.6906 112.088 10.8613 111.98 11.1379ZM108.72 7.26442C108.757 6.16693 109.102 5.47984 110.357 5.48445C111.612 5.48445 111.957 6.17154 111.994 7.26442H108.72ZM97.1841 5.8303C97.1468 5.67351 97.1002 5.52134 97.0442 5.37378C96.8856 4.96798 96.6477 4.61752 96.3305 4.30856C96.0133 4.00421 95.6121 3.76904 95.127 3.59842C94.6419 3.4278 94.0728 3.34479 93.4197 3.34018C92.8413 3.34018 92.3049 3.40474 91.8151 3.54308C91.33 3.67681 90.9008 3.88432 90.5417 4.16561C90.1825 4.4469 89.9026 4.79736 89.6974 5.23083C89.4968 5.65968 89.3988 6.17615 89.3942 6.7664C89.3988 7.28287 89.4828 7.71633 89.6554 8.06679C89.8233 8.42187 90.0519 8.70777 90.3411 8.92911C90.6256 9.15046 90.9521 9.32108 91.316 9.44097C91.6752 9.56087 92.0577 9.64387 92.4448 9.68998C92.7667 9.72688 93.0746 9.76377 93.3684 9.80066C93.6623 9.83755 93.9235 9.88827 94.1521 9.95283C94.3807 10.0174 94.5626 10.1142 94.6979 10.2433C94.8285 10.3678 94.8984 10.5431 94.8984 10.7644C94.8984 10.9397 94.8425 11.1103 94.7305 11.2717C94.6186 11.4331 94.4553 11.5668 94.2314 11.6682C94.0075 11.7743 93.7323 11.8296 93.4011 11.8296C93.0046 11.8296 92.6921 11.7835 92.4588 11.6913C92.2256 11.5991 92.0577 11.4653 91.9457 11.2947C91.9131 11.2394 91.8804 11.1794 91.8571 11.1149C91.7451 10.8382 91.4932 10.6676 91.19 10.6676H90.0519C89.8233 10.6676 89.6274 10.7598 89.4874 10.9397C89.3475 11.1149 89.3009 11.327 89.3568 11.5484C89.4361 11.8711 89.5667 12.1617 89.7393 12.4291C90.0612 12.9179 90.523 13.3007 91.1247 13.5635C91.7265 13.831 92.4495 13.9647 93.2985 13.9693C93.8769 13.9693 94.4133 13.9047 94.9078 13.7756C95.4022 13.6465 95.8407 13.4482 96.2185 13.1808C96.5917 12.9133 96.8856 12.5721 97.0955 12.157C97.3054 11.742 97.4127 11.244 97.4173 10.6722C97.4127 10.2065 97.3334 9.79604 97.1748 9.45481C97.0115 9.10896 96.7969 8.82306 96.5264 8.59249C96.2559 8.36192 95.948 8.18208 95.6121 8.05296C95.2763 7.92384 94.9264 7.84084 94.5672 7.79934C94.2081 7.76245 93.8676 7.73478 93.5504 7.71172C93.2332 7.68867 92.9533 7.64716 92.7061 7.59183C92.4635 7.53188 92.2676 7.43043 92.1276 7.28748C91.9877 7.13992 91.9177 6.92318 91.9131 6.63728C91.9177 6.27299 92.053 5.99631 92.3236 5.81185C92.5894 5.62279 92.9673 5.53056 93.4477 5.53056C93.7136 5.53056 93.9562 5.56745 94.1708 5.65046C94.3853 5.73346 94.5579 5.85797 94.6839 6.0332C94.7305 6.09315 94.7678 6.16231 94.7958 6.24071C94.9031 6.51739 95.1597 6.69262 95.4629 6.69262H96.5031C96.727 6.69262 96.9229 6.60039 97.0628 6.42516C97.1841 6.25454 97.2308 6.04703 97.1841 5.8303ZM79.5751 10.2987C79.5751 11.0549 79.6964 11.7144 79.9529 12.2677C80.2048 12.8211 80.5826 13.2499 81.0911 13.5543C81.5995 13.854 82.2386 14.0108 83.0083 14.0108C83.2928 14.0108 83.5773 13.9831 83.8666 13.914C84.1558 13.8494 84.4263 13.7526 84.6782 13.6142C84.9301 13.4759 85.1493 13.3007 85.3359 13.0793V13.3283V13.854C85.3359 15.0991 85.0327 15.8876 83.6566 15.8692C83.0736 15.8646 82.6537 15.7677 82.3879 15.5694C82.2433 15.4634 82.136 15.3296 82.0707 15.1682C81.9587 14.8962 81.7068 14.7256 81.4083 14.7256H80.3354C79.8829 14.7256 79.5471 15.1267 79.6311 15.5648C79.7663 16.2565 80.0789 16.796 80.5733 17.188C81.2543 17.7275 82.2946 17.995 83.6893 17.9904C86.5207 17.9996 87.8035 16.6762 87.8035 13.8863C87.8035 10.6999 87.8035 7.51344 87.8035 4.32701C87.8035 3.93504 87.4817 3.62147 87.0898 3.62147H86.0496C85.6531 3.62147 85.3359 3.93966 85.3359 4.32701C85.3359 6.22688 85.3359 8.12674 85.3359 10.0266C85.3312 10.6169 85.1866 11.0503 84.8974 11.3455C84.6036 11.636 84.1931 11.7789 83.6566 11.7789C83.3161 11.7743 83.0222 11.7144 82.7797 11.5991C82.5418 11.4838 82.3599 11.2947 82.2339 11.0411C82.1126 10.7829 82.0473 10.4416 82.0473 10.0174C82.0473 8.12213 82.0473 6.23149 82.0473 4.33623C82.0473 3.94427 81.7255 3.6307 81.3336 3.6307H80.2934C79.8969 3.6307 79.5797 3.94888 79.5797 4.33623C79.5751 6.32371 79.5751 8.3112 79.5751 10.2987ZM102.6 1.96139C102.6 1.56943 102.278 1.25586 101.886 1.25586H100.846C100.454 1.25586 100.132 1.57404 100.132 1.96139V3.38168H98.8027C98.4109 3.38168 98.0891 3.69986 98.0891 4.08722V4.93109C98.0891 5.32305 98.4109 5.63662 98.8027 5.63662H100.132V10.6676V10.7921C100.132 10.8244 100.137 10.8567 100.137 10.8889C100.165 11.3685 100.267 11.7928 100.454 12.157C100.659 12.5721 100.958 12.9133 101.331 13.1808C101.709 13.4482 102.143 13.6465 102.642 13.7756C103.164 13.914 103.71 13.9693 104.251 13.9693C104.503 13.9693 104.713 13.7664 104.713 13.5174V12.2862C104.713 12.0372 104.503 11.8296 104.251 11.8296H104.144C103.523 11.825 102.609 11.4884 102.609 10.7552V10.6676V5.63662H103.999C104.396 5.63662 104.713 5.31844 104.713 4.93109V4.08722C104.713 3.69525 104.391 3.38168 103.999 3.38168H102.609V1.96139H102.6ZM73.8102 22.8907C74.7058 22.8861 75.4661 23.0291 76.0772 23.315C76.6929 23.6009 77.1547 24.0482 77.4673 24.6615C77.7845 25.2702 77.9431 26.0633 77.9431 27.0363V29.8538C77.9431 30.6101 77.8218 31.2695 77.5652 31.8229C77.3133 32.3762 76.9355 32.8051 76.4271 33.1094C75.9186 33.4092 75.2796 33.566 74.5099 33.566C74.2253 33.566 73.9361 33.5383 73.6516 33.4691C73.3624 33.4046 73.0918 33.3077 72.8399 33.174C72.5881 33.0403 72.3688 32.8604 72.1822 32.6391V35.7195C72.1822 36.1068 71.8604 36.425 71.4685 36.425H70.4283C70.0365 36.425 69.71 36.1068 69.71 35.7195V27.0133C69.71 26.0449 69.8639 25.2563 70.1718 24.6523C70.4796 24.0482 70.9368 23.5963 71.5432 23.315C72.1542 23.0291 72.9099 22.8861 73.8102 22.8907ZM108.828 22.8907C109.723 22.8861 110.484 23.0291 111.095 23.315C111.319 23.421 111.524 23.5455 111.71 23.6931C111.892 23.5455 112.098 23.4164 112.322 23.315C112.928 23.0291 113.684 22.8907 114.589 22.8907C115.484 22.8861 116.244 23.0291 116.856 23.315C117.471 23.6009 117.933 24.0482 118.246 24.6615C118.563 25.2702 118.721 26.0633 118.721 27.0363C118.721 28.9454 118.721 30.8591 118.721 32.7682C118.721 33.1602 118.4 33.4737 118.008 33.4737H116.967C116.576 33.4737 116.254 33.1556 116.254 32.7682C116.254 30.8729 116.254 28.9823 116.254 27.087C116.249 26.5844 116.184 26.1878 116.039 25.8927C115.899 25.5976 115.703 25.3855 115.456 25.2563C115.209 25.1318 114.92 25.0673 114.593 25.0719C114.173 25.0719 113.847 25.1503 113.609 25.3117C113.371 25.4685 113.208 25.6944 113.11 25.9895C113.017 26.2662 112.97 26.6029 112.97 26.9856V27.0363C112.97 28.9454 112.97 30.8591 112.97 32.7682C112.97 33.1602 112.648 33.4737 112.256 33.4737H111.216C110.824 33.4737 110.502 33.1556 110.502 32.7682C110.502 30.8729 110.502 28.9823 110.502 27.087C110.498 26.5844 110.432 26.1878 110.288 25.8927C110.148 25.5976 109.952 25.3855 109.705 25.2563C109.457 25.1318 109.168 25.0673 108.842 25.0719C108.422 25.0719 108.095 25.1503 107.857 25.3117C107.62 25.4685 107.456 25.6944 107.358 25.9895C107.26 26.2893 107.214 26.649 107.218 27.0732C107.218 28.9731 107.218 30.8729 107.218 32.7728C107.218 33.1648 106.897 33.4783 106.505 33.4783H105.464C105.073 33.4783 104.751 33.1602 104.751 32.7728V27.0133C104.751 26.0449 104.905 25.261 105.213 24.6523C105.52 24.0436 105.978 23.6009 106.584 23.315C107.172 23.0245 107.923 22.8861 108.828 22.8907ZM87.6968 26.7781C87.6968 26.0218 87.5756 25.3624 87.319 24.809C87.0718 24.2557 86.6893 23.8268 86.1808 23.5225C85.6724 23.2227 85.0333 23.066 84.2637 23.066C83.9791 23.066 83.6899 23.0936 83.4054 23.1628C83.1162 23.2274 82.8456 23.3242 82.5937 23.4579C82.3418 23.5917 82.1226 23.7715 81.936 23.9928V20.9125C81.936 20.5205 81.6095 20.2069 81.2223 20.2069H80.1821C79.7903 20.2069 79.4684 20.5251 79.4684 20.9125C79.4684 25.0304 79.4684 28.6226 79.4684 32.7405C79.4684 33.1325 79.7903 33.4461 80.1821 33.4461H81.2223C81.6188 33.4461 81.936 33.1279 81.936 32.7405C81.936 30.8407 81.936 28.9408 81.936 27.0409C81.9407 26.4507 82.0853 26.0172 82.3745 25.7221C82.6684 25.4316 83.0788 25.2886 83.6153 25.2886C83.9605 25.2932 84.2497 25.3532 84.4922 25.4685C84.7301 25.5837 84.912 25.7728 85.038 26.0264C85.1593 26.2847 85.2246 26.6259 85.2246 27.0502C85.2246 28.9454 85.2246 30.8361 85.2246 32.7313C85.2246 33.1233 85.5464 33.4368 85.9429 33.4368H86.9832C87.3797 33.4368 87.6968 33.1187 87.6968 32.7313C87.6968 30.7577 87.6968 28.7702 87.6968 26.7781ZM99.573 33.4507H100.613C101.01 33.4507 101.327 33.1325 101.327 32.7451V26.8888C101.332 26.4415 101.406 26.0818 101.56 25.8143C101.709 25.5469 101.915 25.3532 102.176 25.2379C102.432 25.1226 102.722 25.0673 103.044 25.0673C103.183 25.0673 103.319 25.0765 103.445 25.0996C103.547 25.118 103.65 25.0949 103.734 25.0304C103.818 24.9658 103.869 24.8782 103.883 24.7768L104.051 23.2642C104.065 23.1536 104.032 23.0567 103.958 22.9737C103.883 22.8907 103.785 22.8538 103.678 22.8538C103.669 22.8538 103.655 22.8538 103.645 22.8538C103.342 22.8538 103.039 22.8907 102.745 22.9737C102.446 23.0521 102.157 23.1812 101.887 23.3473C101.611 23.5179 101.364 23.73 101.14 23.9928L101.089 23.5455C101.047 23.1859 100.739 22.9184 100.38 22.9184H99.587C99.1952 22.9184 98.8733 23.2366 98.8733 23.6239V32.7359C98.8593 33.1371 99.1812 33.4507 99.573 33.4507ZM94.9737 29.259C94.9504 29.5218 94.8991 29.7847 94.8244 30.0291C94.7545 30.2781 94.6425 30.4994 94.4979 30.6977C94.3533 30.896 94.162 31.0528 93.9195 31.1681C93.6769 31.2834 93.3784 31.3433 93.0192 31.3479C92.7347 31.3525 92.4828 31.3202 92.2635 31.2603C92.0443 31.2003 91.8717 31.1035 91.7458 30.9698C91.6245 30.8314 91.5592 30.6516 91.5545 30.421C91.5498 30.1397 91.6571 29.8953 91.8764 29.6924C92.0956 29.4895 92.4548 29.3466 92.9586 29.2636C93.467 29.1806 94.1387 29.1806 94.9737 29.259ZM91.9463 25.9665C91.9697 25.8512 91.9976 25.7451 92.035 25.6575C92.1283 25.4362 92.2869 25.2794 92.5061 25.1872C92.7207 25.0903 93.0099 25.0442 93.369 25.0488C93.7982 25.0488 94.1294 25.1364 94.3673 25.3117C94.6005 25.4869 94.7638 25.7498 94.8524 26.0956C94.941 26.4415 94.983 26.8795 94.9784 27.4052C93.7562 27.3176 92.7113 27.3776 91.8577 27.5758C91.0041 27.7741 90.351 28.1246 89.9032 28.6272C89.4508 29.1252 89.2268 29.7939 89.2222 30.6147C89.2268 31.1127 89.3015 31.5416 89.4554 31.9151C89.6093 32.2886 89.8239 32.5976 90.0991 32.8466C90.3743 33.091 90.6962 33.2801 91.0694 33.4046C91.4426 33.5291 91.8484 33.5936 92.2869 33.5936C92.688 33.589 93.0612 33.5337 93.411 33.423C93.7609 33.3123 94.0781 33.1556 94.3626 32.9527C94.6472 32.7498 94.8897 32.5146 95.0856 32.2379L95.2069 32.8743C95.2722 33.2109 95.5614 33.4507 95.9113 33.4507H96.625C97.0215 33.4507 97.3387 33.1325 97.3387 32.7451V26.9764C97.3433 26.0679 97.2034 25.3071 96.9235 24.6984C96.6436 24.0897 96.2098 23.6332 95.6221 23.3288C95.0343 23.0245 94.274 22.8723 93.3504 22.8723C92.4968 22.8677 91.7784 22.9922 91.1953 23.2412C90.6076 23.4902 90.1738 23.8868 89.8892 24.4263C89.6933 24.7998 89.5767 25.2563 89.5394 25.7913C89.5254 25.9942 89.5907 26.174 89.7306 26.3216C89.8706 26.4691 90.0478 26.5475 90.2531 26.5475H91.2373C91.5872 26.5475 91.881 26.3077 91.9463 25.9665ZM73.8662 31.3295C74.2113 31.3249 74.5006 31.2649 74.7431 31.1496C74.981 31.0343 75.1629 30.8453 75.2889 30.5917C75.4102 30.3334 75.4755 29.9922 75.4755 29.5679V27.087C75.4708 26.5844 75.4008 26.1878 75.2609 25.8927C75.121 25.5976 74.925 25.3855 74.6778 25.2563C74.4306 25.1318 74.1414 25.0673 73.8149 25.0719C73.395 25.0719 73.0685 25.1503 72.8306 25.3117C72.5927 25.4685 72.4295 25.6944 72.3315 25.9895C72.2335 26.2893 72.1869 26.649 72.1916 27.0732V29.591C72.1962 30.1812 72.3408 30.6147 72.63 30.9098C72.9192 31.1865 73.3297 31.3295 73.8662 31.3295Z" fill="white"/>
</svg>
