<svg xmlns="http://www.w3.org/2000/svg" width="61" height="78" fill="none"><path fill-rule="evenodd" clip-rule="evenodd" d="M33.524.293a1 1 0 0 0-1.414 0L5.13 27.272a.999.999 0 0 0-.21.31C2.027 30.842 0 35.003 0 38.831c0 4.232 1.525 7.88 4.318 10.715.05.111.12.215.21.304l28.006 27.733a.007.007 0 0 0 .01 0c.001-.002.004-.002.006-.002l.003.002.024.024a.04.04 0 0 0 .057 0L60.292 49.95a1 1 0 0 0 0-1.414l-4.852-4.852a1 1 0 0 0-1.414 0L33.303 64.409a1 1 0 0 1-1.414 0l-20.49-20.49v-.065c-1.418-1.631-2.417-3.488-2.417-5.02 0-2.073.345-3.628 2.245-3.628.317.106.61.268.885.462L32.11 55.665a1 1 0 0 0 1.414 0l26.98-26.979a1 1 0 0 0 0-1.414L33.523.292zm4.627 27.686l-5.334-5.333-5.333 5.333 5.333 5.334 5.334-5.334z" fill="#fff"/></svg>