<svg width="40" height="40" fill="none" xmlns="http://www.w3.org/2000/svg"><g clip-path="url(#clip0)" fill="#8E1537"><path d="M34.48.236a1.24 1.24 0 0 0-1.126-.17L26.29 2.421 20.465.09a1.24 1.24 0 0 0-.928 0l-5.825 2.33L6.645.066c-.383-.13-.8-.065-1.125.17C5.195.471 5 .848 5 1.251V38.75a1.248 1.248 0 0 0 1.645 1.185l7.065-2.355 5.827 2.33c.298.12.63.12.928 0l5.827-2.33 7.065 2.355a1.245 1.245 0 0 0 1.123-.17c.327-.235.52-.612.52-1.015V1.25c0-.402-.193-.78-.52-1.014zm-1.98 36.78l-5.853-1.95a1.242 1.242 0 0 0-.86.024L20 37.403l-5.788-2.315A1.287 1.287 0 0 0 13.75 35c-.133 0-.268.02-.395.065L7.5 37.015V2.985l5.855 1.95c.28.098.582.088.86-.024L20 2.598l5.785 2.315c.272.11.58.123.86.025l5.854-1.952v34.03z"/><path d="M21.25 7.5h-10a1.25 1.25 0 0 0 0 2.5h10a1.25 1.25 0 0 0 0-2.5zm-2.5 10h-7.5a1.25 1.25 0 0 0 0 2.5h7.5a1.25 1.25 0 0 0 0-2.5zm0 7.5h-7.5a1.25 1.25 0 0 0 0 2.5h7.5a1.25 1.25 0 0 0 0-2.5zm10-12.5h-17.5a1.25 1.25 0 0 0 0 2.5h17.5a1.25 1.25 0 0 0 0-2.5zm-2.5 11.25c-.763 0-1.25-.41-1.25-.625 0-.215.487-.625 1.25-.625.382 0 .722.093.98.263.575.385 1.352.23 1.732-.345.385-.573.23-1.35-.345-1.733a3.988 3.988 0 0 0-1.117-.512V18.75a1.25 1.25 0 0 0-2.5 0v1.442c-1.453.43-2.5 1.575-2.5 2.932 0 1.723 1.683 3.125 3.75 3.125.762 0 1.25.41 1.25.625 0 .215-.488.625-1.25.625-.383 0-.723-.092-.98-.262a1.248 1.248 0 0 0-1.732.345c-.386.572-.23 1.35.345 1.732.34.228.717.398 1.12.513v1.422a1.25 1.25 0 0 0 2.5 0v-1.442c1.452-.43 2.5-1.578 2.5-2.933-.003-1.722-1.686-3.125-3.753-3.125z"/></g><defs><clipPath id="clip0"><path fill="#fff" d="M0 0h40v40H0z"/></clipPath></defs></svg>