<svg width="70" height="70" fill="none" xmlns="http://www.w3.org/2000/svg"><path d="M34.362 26.893a2.194 2.194 0 0 0-3.098-.004l-7.2 7.205-2.827-2.83a2.19 2.19 0 0 0-3.093 0 2.19 2.19 0 0 0 0 3.093l4.375 4.375c.424.428.984.643 1.544.643s1.12-.215 1.549-.639l8.75-8.75a2.189 2.189 0 0 0 0-3.093zm0 17.5a2.194 2.194 0 0 0-3.098-.004l-7.2 7.205-2.827-2.826a2.19 2.19 0 0 0-3.093 0 2.189 2.189 0 0 0 0 3.093l4.375 4.375a2.18 2.18 0 0 0 1.544.639 2.2 2.2 0 0 0 1.549-.639l8.75-8.75a2.189 2.189 0 0 0 0-3.093zm15.951-13.768h-8.75a2.188 2.188 0 0 0 0 4.375h8.75a2.188 2.188 0 0 0 0-4.375zm0 17.5h-8.75a2.188 2.188 0 0 0 0 4.375h8.75a2.188 2.188 0 0 0 0-4.375z" fill="#8E1537"/><path d="M56.875 8.75h-8.75V6.562c0-1.207-.98-2.187-2.188-2.187h-4.746C40.285 1.829 37.852 0 35 0s-5.285 1.829-6.19 4.375h-4.747c-1.208 0-2.188.98-2.188 2.188V8.75h-8.75a4.382 4.382 0 0 0-4.375 4.375v52.5A4.382 4.382 0 0 0 13.125 70h43.75a4.382 4.382 0 0 0 4.375-4.375v-52.5a4.382 4.382 0 0 0-4.375-4.375zm-30.625 0h4.375a2.19 2.19 0 0 0 2.188-2.188 2.188 2.188 0 0 1 4.374 0c0 1.208.98 2.188 2.188 2.188h4.375v4.375h-17.5V8.75zm30.625 56.875h-43.75v-52.5h8.75v2.188c0 1.207.98 2.187 2.188 2.187h21.875c1.207 0 2.187-.98 2.187-2.188v-2.187h8.75v52.5z" fill="#8E1537"/></svg>