<svg width="70" height="70" fill="none" xmlns="http://www.w3.org/2000/svg"><g clip-path="url(#clip0)" fill="#8E1537"><path d="M69.851 43.005L66.776 35l3.071-8.01c.341-.883.07-1.89-.665-2.484l-6.662-5.399-1.348-8.473a2.192 2.192 0 0 0-1.815-1.815L50.884 7.47 45.486.81A2.193 2.193 0 0 0 43 .144l-8.005 3.075-8.01-3.07a2.175 2.175 0 0 0-2.48.664l-5.399 6.663-8.473 1.347a2.192 2.192 0 0 0-1.815 1.815L7.47 19.112.81 24.51a2.188 2.188 0 0 0-.665 2.48L3.214 35l-3.07 8.01a2.188 2.188 0 0 0 .665 2.48l6.662 5.398 1.348 8.473a2.192 2.192 0 0 0 1.815 1.816l8.473 1.347 5.399 6.662c.599.74 1.6 1.011 2.484.665l8.006-3.07 8.01 3.07a2.19 2.19 0 0 0 2.485-.665l5.397-6.662 8.473-1.347a2.192 2.192 0 0 0 1.816-1.816l1.347-8.473 6.662-5.398a2.195 2.195 0 0 0 .665-2.485zm-7.467-7.222l2.804 7.305-6.085 4.926c-.42.341-.7.822-.783 1.356l-1.229 7.73-7.73 1.229a2.18 2.18 0 0 0-1.356.783l-4.917 6.085-7.305-2.804a2.32 2.32 0 0 0-.788-.145c-.266 0-.533.049-.782.145l-7.306 2.804-4.926-6.085a2.18 2.18 0 0 0-1.356-.783l-7.73-1.23-1.229-7.729a2.18 2.18 0 0 0-.783-1.356L4.8 43.093l2.804-7.306a2.184 2.184 0 0 0-.005-1.57l-2.8-7.31 6.085-4.926c.42-.34.7-.822.783-1.356l1.23-7.73 7.73-1.229a2.18 2.18 0 0 0 1.355-.783l4.922-6.08 7.305 2.804a2.196 2.196 0 0 0 1.566 0l7.306-2.804 4.925 6.085c.341.42.823.7 1.356.783l7.73 1.229 1.23 7.73a2.18 2.18 0 0 0 .782 1.356l6.085 4.925-2.804 7.306a2.197 2.197 0 0 0 0 1.566z"/><path d="M28.433 17.502a6.57 6.57 0 0 0-6.561 6.562 6.57 6.57 0 0 0 6.561 6.562 6.57 6.57 0 0 0 6.562-6.562 6.57 6.57 0 0 0-6.562-6.562zm0 8.75a2.188 2.188 0 1 1 .002-4.377 2.188 2.188 0 0 1-.002 4.376zm13.124 13.123a6.57 6.57 0 0 0-6.562 6.562 6.57 6.57 0 0 0 6.562 6.561 6.57 6.57 0 0 0 6.561-6.561 6.57 6.57 0 0 0-6.561-6.562zm0 8.749a2.188 2.188 0 1 1 .001-4.376 2.188 2.188 0 0 1-.001 4.376zm5.647-30.211a2.19 2.19 0 0 0-3.049.507L22.283 49.042a2.185 2.185 0 1 0 3.556 2.541l21.873-30.621a2.185 2.185 0 0 0-.508-3.049z"/></g><defs><clipPath id="clip0"><path fill="#fff" d="M0 0h70v70H0z"/></clipPath></defs></svg>