<svg width="40" height="40" fill="none" xmlns="http://www.w3.org/2000/svg"><path d="M32.248 0H7.25A6.258 6.258 0 0 0 1 6.25v7.5c0 .69.56 1.25 1.25 1.25H11v23.747c0 .08.03.15.044.225.015.08.013.16.045.24 0 .002.005.005.005.007.085.21.235.375.413.508a.98.98 0 0 0 .125.082c.185.107.387.188.617.188.155 0 .313-.028.465-.09l.023-.01h.002l5.76-2.303 5.785 2.315c.297.12.63.12.927 0l5.787-2.315 5.785 2.315c.385.155.822.105 1.165-.125a1.26 1.26 0 0 0 .55-1.037V6.25A6.258 6.258 0 0 0 32.248 0zM10.999 12.5H3.5V6.25A3.754 3.754 0 0 1 7.25 2.5 3.754 3.754 0 0 1 11 6.25v6.25zm24.999 24.403l-4.535-1.815a1.24 1.24 0 0 0-.927 0L24.748 37.4l-5.784-2.315a1.24 1.24 0 0 0-.928 0L13.5 36.9V6.25a6.177 6.177 0 0 0-1.282-3.75h20.031a3.754 3.754 0 0 1 3.75 3.75v30.653z" fill="#8E1537"/><path d="M32.247 7.5H17.248a1.25 1.25 0 0 0 0 2.5h14.999a1.25 1.25 0 0 0 0-2.5zm0 9.999H17.248a1.25 1.25 0 0 0 0 2.5h14.999a1.25 1.25 0 0 0 0-2.5zm0 4.999h-9.999a1.25 1.25 0 0 0 0 2.5h10a1.25 1.25 0 0 0 0-2.5zm0 5h-9.999a1.25 1.25 0 0 0 0 2.5h10a1.25 1.25 0 0 0 0-2.5z" fill="#8E1537"/></svg>