<svg width="70" height="70" fill="none" xmlns="http://www.w3.org/2000/svg"><path d="M45.937 32.81a6.57 6.57 0 0 0-6.562 6.562 2.188 2.188 0 0 0 4.375 0c0-1.203.984-2.187 2.187-2.187 1.203 0 2.187.984 2.187 2.187a2.188 2.188 0 0 0 4.375 0 6.57 6.57 0 0 0-6.562-6.562zm-21.873 0a6.57 6.57 0 0 0-6.562 6.562 2.188 2.188 0 0 0 4.375 0c0-1.203.984-2.187 2.187-2.187 1.203 0 2.187.984 2.187 2.187a2.188 2.188 0 0 0 4.375 0 6.57 6.57 0 0 0-6.562-6.562z" fill="#8E1537"/><path d="M69.22 61.758c-3.417-2.861-5.477-10.723-6.654-18.147 4.195-.638 7.433-4.239 7.433-8.613 0-4.826-3.924-8.75-8.75-8.75C61.25 11.772 49.477 0 35.001 0S8.753 11.772 8.753 26.248c-4.826 0-8.75 3.924-8.75 8.75 0 4.374 3.238 7.975 7.433 8.618-1.177 7.42-3.237 15.28-6.654 18.146a2.177 2.177 0 0 0-.647 2.424A2.195 2.195 0 0 0 2.19 65.62h18.33A26.08 26.08 0 0 0 35 69.995a26.08 26.08 0 0 0 14.48-4.374h18.33c.919 0 1.741-.578 2.056-1.44a2.186 2.186 0 0 0-.647-2.423zm-3.596-26.76c0 2.165-1.676 3.933-3.657 4.296-.412-3.47-.635-6.571-.713-8.64 2.279.013 4.37 1.924 4.37 4.344zM35 4.375c11.799 0 21.38 9.405 21.795 21.103-7.49-1.124-12.17-3.311-15.014-5.363 1.658-2.415 1.933-4.362 1.955-4.58a2.167 2.167 0 0 0-1.912-2.376c-1.163-.157-2.266.7-2.432 1.886-.017.109-1.868 10.534-26.261 11.146C13.167 14.157 22.962 4.375 35 4.375zM4.378 34.998c0-2.42 2.087-4.336 4.37-4.344-.078 2.073-.297 5.17-.713 8.64-1.986-.36-3.657-2.13-3.657-4.296zm2.31 26.248c1.47-2.546 2.598-5.73 3.478-9.069a26.328 26.328 0 0 0 5.324 9.069H6.688zM35 65.62c-12.061 0-21.874-9.813-21.874-21.874v-13.19c13.995-.336 21.664-3.744 25.776-7.257 4.362 3.307 10.377 5.512 17.971 6.562v13.885c0 3.115-.673 6.063-1.854 8.75H41.16c-.905-2.542-3.311-4.375-6.16-4.375a6.57 6.57 0 0 0-6.561 6.562A6.57 6.57 0 0 0 35 61.246c2.848 0 5.254-1.833 6.16-4.375h11.23c-4 5.28-10.272 8.75-17.39 8.75zm2.187-10.937A2.194 2.194 0 0 1 35 56.87a2.194 2.194 0 0 1-2.187-2.187c0-1.203.984-2.188 2.187-2.188 1.203 0 2.187.985 2.187 2.188zm17.328 6.558a26.143 26.143 0 0 0 3.842-5.574c.039-.074.078-.144.109-.223.53-1.054.989-2.144 1.373-3.272.88 3.342 2.008 6.523 3.478 9.069h-8.802z" fill="#8E1537"/></svg>