<?xml version="1.0" encoding="utf-8"?>
<!-- Generator: Adobe Illustrator 19.0.0, SVG Export Plug-In . SVG Version: 6.00 Build 0)  -->
<svg version="1.1" id="Слой_1" xmlns="http://www.w3.org/2000/svg" xmlns:xlink="http://www.w3.org/1999/xlink" x="0px" y="0px"
	 viewBox="263 -266.2 1486.7 1093.2" style="enable-background:new 263 -266.2 1486.7 1093.2;" xml:space="preserve">
<style type="text/css">
	.st0{fill:#B9D15C;}
	.st1{fill:#96CC00;}
	.st2{fill:#FFFFFF;}
</style>
<g id="Layer_2">
	<g>
		<path class="st0" d="M1081.2-158.8c7.3,1.6,15.2,2.7,22.1,4.9c7.4-5.7,12.8-9.6,20.6-12.3c-8.3-3.1-16.9-5.9-25.8-8.3
			C1092-170.2,1086.3-164.9,1081.2-158.8z"/>
	</g>
	<g>
		<path class="st1" d="M543.8,760.3c0,2.4-0.9,4.5-2.7,6.2c-1.8,1.7-4,2.6-6.5,2.6c-4.1,0-7.1-1.8-8.8-5.4l-15.9-36.4h-92L402,763.7
			c-1.3,3.6-4.1,5.4-8.6,5.4c-2.7,0-4.9-0.9-6.5-2.6c-1.7-1.7-2.5-3.8-2.5-6.2c0-1.5,0.2-2.8,0.7-3.8L455,599.4c1.7-4,4.8-6.1,9-6.1
			c4.3,0,7.2,2,8.8,6.1l70.1,157.3C543.5,757.8,543.8,759,543.8,760.3z M503.4,712.2L463.9,622l-39.5,90.2H503.4z"/>
		<path class="st1" d="M635.9,647.2c3.9,1.7,5.8,4,5.8,7c0,0.9-0.1,1.6-0.2,2c-0.6,2.1-1.6,3.5-3,4.3c-1.3,0.8-3.2,1.1-5.6,1.1
			c-1.4,0-3.9-0.1-7.4-0.5c-1.3-0.1-3.2-0.2-5.7-0.2c-11.9,0-21.6,3-29.1,9s-11.3,13.8-11.3,23.4v67.3c0,2.7-0.8,4.8-2.4,6.3
			c-1.6,1.5-3.8,2.3-6.7,2.3s-5.1-0.7-6.7-2.3c-1.6-1.5-2.4-3.6-2.4-6.3v-106c0-2.7,0.8-4.8,2.4-6.3c1.6-1.5,3.8-2.3,6.7-2.3
			s5.1,0.8,6.7,2.3c1.6,1.5,2.4,3.6,2.4,6.3v9.9c4.6-6.3,10.5-11.2,17.6-14.6c7.1-3.4,14.8-5.2,23.1-5.2
			C626.7,644.7,632,645.5,635.9,647.2z"/>
		<path class="st1" d="M757.7,666.5c1.3,1.3,1.9,2.9,1.9,4.7c0,2.4-1.3,4.5-4,6.3c-1.4,0.9-2.9,1.4-4.5,1.4c-2.4,0-4.7-1.1-6.9-3.4
			c-4.8-5-10-8.7-15.7-11.1c-5.7-2.5-12-3.7-19-3.7c-8.7,0-16.5,2-23.3,6s-12.1,9.6-15.8,16.8c-3.7,7.2-5.6,15.3-5.6,24.3
			c0,8.9,2,16.8,5.9,24c4,7.1,9.5,12.7,16.6,16.8c7.1,4,15.3,6.1,24.5,6.1c12.7,0,22.9-3.2,30.7-9.7c2.1-1.6,4.2-2.5,6.4-2.5
			c1.9,0,3.6,0.6,5.2,1.8c2.2,1.8,3.3,3.8,3.3,6.1c0,2-0.8,3.6-2.4,5c-11.4,10.1-25.8,15.1-43.3,15.1c-12.4,0-23.4-2.7-33.3-8.2
			c-9.8-5.5-17.5-13-23.2-22.5c-5.6-9.5-8.4-20.1-8.4-31.8c0-12,2.7-22.8,8.1-32.3c5.4-9.5,12.8-17,22.3-22.4s20.2-8.1,32.1-8.1
			C729.2,644.9,745.3,652.1,757.7,666.5z"/>
		<path class="st1" d="M880.4,651.4c8.9,4.5,16,11.1,21,19.7c5.1,8.6,7.6,18.9,7.6,30.9v58.5c0,2.4-0.9,4.4-2.6,6.1
			c-1.7,1.7-3.9,2.5-6.4,2.5c-2.7,0-4.9-0.8-6.7-2.5c-1.7-1.6-2.6-3.7-2.6-6.1V702c0-13.3-3.9-23.5-11.8-30.5
			c-7.8-7-18.1-10.5-30.8-10.5c-7.8,0-14.8,1.4-21,4.3c-6.3,2.9-11.2,6.8-14.9,11.8c-3.6,5-5.5,10.6-5.5,16.8v66.6
			c0,2.6-0.8,4.6-2.5,6.2s-3.8,2.4-6.5,2.4s-4.9-0.8-6.7-2.4c-1.7-1.6-2.6-3.6-2.6-6.2V602.2c0-2.5,0.9-4.6,2.6-6.3
			c1.7-1.6,4-2.5,6.7-2.5s4.9,0.8,6.5,2.5c1.7,1.7,2.5,3.8,2.5,6.3v60.3c5.2-5.5,11.6-9.9,19-13s15.5-4.7,24.2-4.7
			C861.3,644.7,871.4,646.9,880.4,651.4z"/>
		<path class="st1" d="M964.6,601.5c2.5,2.3,3.8,5.2,3.8,8.8c0,3.5-1.3,6.4-3.8,8.8c-2.5,2.4-5.6,3.6-9.3,3.6
			c-3.6,0-6.7-1.2-9.1-3.6c-2.5-2.4-3.7-5.3-3.7-8.8c0-3.6,1.3-6.5,3.8-8.8s5.6-3.4,9.3-3.4C959.1,598.1,962.1,599.2,964.6,601.5z
			 M949,648.5c1.7-1.6,4-2.5,6.7-2.5s4.9,0.8,6.5,2.5c1.7,1.7,2.5,3.8,2.5,6.3v105.5c0,2.6-0.8,4.7-2.5,6.3
			c-1.7,1.7-3.8,2.5-6.5,2.5s-4.9-0.8-6.7-2.5c-1.7-1.6-2.6-3.7-2.6-6.3V654.8C946.3,652.3,947.2,650.2,949,648.5z"/>
		<path class="st1" d="M1154.3,674.7c1.7,1.6,2.6,3.6,2.6,6.2c0,2.4-0.9,4.4-2.6,6.1c-1.7,1.7-4,2.5-6.7,2.5h-74.4v70.9
			c0,2.4-0.9,4.5-2.6,6.2c-1.7,1.7-4,2.6-6.7,2.6c-2.5,0-4.7-0.9-6.5-2.6c-1.8-1.7-2.7-3.8-2.7-6.2V602.2c0-2.5,0.9-4.6,2.7-6.3
			c1.8-1.6,4-2.5,6.5-2.5h111.5c2.7,0,4.9,0.8,6.7,2.5c1.7,1.7,2.6,3.7,2.6,6.1c0,2.4-0.9,4.4-2.6,6c-1.7,1.6-4,2.4-6.7,2.4h-102.2
			v62.1h74.4C1150.3,672.4,1152.5,673.2,1154.3,674.7z"/>
		<path class="st1" d="M1206.6,595.8c1.7-1.6,3.9-2.4,6.4-2.4c2.7,0,4.9,0.8,6.5,2.4c1.7,1.6,2.5,3.6,2.5,6.2v128.3
			c0,6.5,1.4,11.7,4.2,15.8c2.8,4,6.3,6.1,10.6,6.1h5.9c2.4,0,4.3,0.8,5.7,2.4s2.1,3.6,2.1,6.2s-1,4.6-3,6.2s-4.6,2.4-7.7,2.4h-3.1
			c-9.7,0-17.5-3.6-23.6-10.9c-6.1-7.3-9.1-16.6-9.1-28V601.9C1204,599.4,1204.8,597.3,1206.6,595.8z"/>
		<path class="st1" d="M1354.6,653c10,5.4,17.9,12.9,23.6,22.5c5.8,9.6,8.7,20.3,8.7,32.2s-2.9,22.5-8.6,32.1
			c-5.7,9.5-13.6,17-23.6,22.4c-10.1,5.4-21.4,8.1-33.9,8.1s-23.8-2.7-33.9-8.1s-17.9-12.9-23.6-22.4c-5.7-9.5-8.6-20.2-8.6-32.1
			c0-11.8,2.9-22.6,8.6-32.2c5.7-9.6,13.6-17.1,23.6-22.5c10.1-5.4,21.3-8.1,33.9-8.1C1333.4,644.9,1344.6,647.6,1354.6,653z
			 M1296.3,666.7c-7.4,4-13.2,9.6-17.3,16.8c-4.2,7.1-6.3,15.2-6.3,24.2c0,8.9,2.1,16.8,6.3,24c4.2,7.1,10,12.7,17.3,16.8
			s15.6,6.1,24.6,6.1c9.2,0,17.4-2,24.7-6.1c7.3-4,13-9.6,17.1-16.8c4.1-7.1,6.2-15.1,6.2-24c0-9-2.1-17.1-6.2-24.2
			c-4.1-7.1-9.8-12.7-17.1-16.8c-7.3-4-15.5-6.1-24.7-6.1C1311.9,660.7,1303.7,662.7,1296.3,666.7z"/>
		<path class="st1" d="M1490.2,647.2c3.9,1.7,5.8,4,5.8,7c0,0.9-0.1,1.6-0.2,2c-0.6,2.1-1.6,3.5-3,4.3c-1.3,0.8-3.2,1.1-5.6,1.1
			c-1.4,0-3.9-0.1-7.4-0.5c-1.3-0.1-3.2-0.2-5.7-0.2c-11.9,0-21.6,3-29.1,9s-11.3,13.8-11.3,23.4v67.3c0,2.7-0.8,4.8-2.4,6.3
			s-3.8,2.3-6.7,2.3c-2.9,0-5.1-0.7-6.7-2.3c-1.6-1.5-2.4-3.6-2.4-6.3v-106c0-2.7,0.8-4.8,2.4-6.3s3.8-2.3,6.7-2.3
			c2.9,0,5.1,0.8,6.7,2.3s2.4,3.6,2.4,6.3v9.9c4.6-6.3,10.5-11.2,17.6-14.6c7.1-3.4,14.8-5.2,23.1-5.2
			C1481.1,644.7,1486.3,645.5,1490.2,647.2z"/>
		<path class="st1" d="M1600.9,653.1c10.1,5.5,18,13,23.8,22.6s8.7,20.3,8.7,32v52.9c0,2.4-0.9,4.4-2.6,6.1s-4,2.5-6.7,2.5
			s-4.9-0.8-6.7-2.4c-1.7-1.6-2.6-3.6-2.6-6.2v-13.5c-5.5,7.2-12.6,12.9-21.2,17s-18,6.2-28.3,6.2c-12,0-22.9-2.7-32.7-8.2
			c-9.7-5.5-17.4-13-23.1-22.5c-5.6-9.5-8.4-20.1-8.4-31.8s2.9-22.3,8.7-32c5.8-9.6,13.7-17.1,23.8-22.6c10.1-5.5,21.3-8.2,33.6-8.2
			C1579.7,644.9,1590.9,647.7,1600.9,653.1z M1591.8,748.4c7.3-4,13-9.6,17.2-16.8c4.2-7.1,6.3-15.1,6.3-24c0-8.8-2.1-16.8-6.3-24
			c-4.2-7.1-9.9-12.7-17.2-16.9c-7.3-4.1-15.4-6.2-24.5-6.2c-9,0-17.2,2.1-24.6,6.2c-7.4,4.1-13.2,9.8-17.3,16.9
			c-4.2,7.1-6.3,15.1-6.3,24s2.1,16.8,6.3,24c4.2,7.1,10,12.7,17.3,16.8s15.6,6.1,24.6,6.1C1576.4,754.5,1584.5,752.5,1591.8,748.4z
			"/>
	</g>
</g>
<g id="Слой_3">
	<g>
		<g>
			<path class="st1" d="M1213.1-30.2c-4.4,5.4-9.4,10.6-14.8,15.5c23.7,55.2,32,121.1,26.6,200.7c-11.5,167.2-175.9,261-216.4,281.6
				c-28.4-13.8-204.7-107-216.7-281.6c-5.5-80.7,2.3-146.6,25.7-201.5c-5.1-4.8-9.8-9.7-14-14.8c-27.2,59.4-36.9,130.8-30.9,217.7
				c5.6,81.5,46.7,158.8,118.9,223.5c57.2,51.3,112.9,76.3,113.5,76.5c1.2,0.5,2.4,0.7,3.7,0.7c1.6,0,3.1-0.4,4.5-1.1
				c0.2-0.1,0.5-0.2,0.9-0.4c36.2-18,217.6-116.9,230.1-299.1C1250.1,100.5,1240.4,29.1,1213.1-30.2z"/>
			<path class="st1" d="M1008.6,491c-1.6,0-3.3-0.3-4.8-0.9c-0.5-0.2-56.6-25.3-114.3-77c-72.8-65.3-114.3-143.3-119.9-225.6
				c-6.1-88.4,4.1-160.1,31.2-219.1l2-4.4l3,3.7c4.1,5,8.7,9.9,13.8,14.5l1.5,1.4l-0.8,1.9c-22.7,53.4-31.1,118.8-25.5,200.1
				c11.8,171.9,187.4,265.4,213.6,278.5c36.7-18.9,202.1-113.1,213.5-278.5c5.5-80.1-3.1-145.3-26.3-199.3l-0.8-2l1.6-1.4
				c5.3-4.9,10.2-10,14.5-15.2l3-3.7l2,4.3c27.1,59,37.4,130.6,31.3,219c-12.6,183.8-195.3,283.5-231.8,301.6
				c-0.4,0.2-0.7,0.3-0.9,0.4C1012.7,490.5,1010.7,491,1008.6,491z M804.3-24.8c-25.2,57.3-34.6,126.6-28.7,211.9
				c5.5,80.7,46.3,157.3,117.9,221.5c57.1,51.2,112.1,75.7,112.6,75.9c1.8,0.7,3.9,0.6,5.6-0.3c0.2-0.1,0.5-0.3,1-0.5
				c36-17.9,216-116.1,228.5-296.6c5.9-85.2-3.6-154.6-28.8-211.8c-3.2,3.7-6.7,7.3-10.4,10.7c23,54.5,31.5,120,26,200.2
				c-4.9,71.8-38,138.3-98.2,197.7c-48,47.3-99.8,76.2-119.9,86.4l-1.3,0.7l-1.3-0.7c-14.5-7.1-65.7-33.9-115.2-81.1
				c-28.1-26.8-50.9-55.8-67.8-86.1c-20.6-37.1-32.5-76.4-35.3-116.9c-5.6-81.3,2.6-147,25.1-200.9C810.5-18,807.3-21.3,804.3-24.8z
				"/>
		</g>
		<g>
			<path class="st1" d="M944-105.4c20.2-5.4,41.7-7.6,64.2-7.7c18.8-0.1,20.8-1.4,62,5.2c4.4-6.1,0.5-9.5,5.8-13.8
				c-23.9-7.5-39-9.4-66.2-9.4c-27.7,0-49.7,2.1-74.1,9.9C941-116.9,939.6-111.5,944-105.4z"/>
			<path class="st1" d="M942.9-102.6l-1-1.4c-2.1-3-3-5.8-3.8-8.3c-0.9-2.8-1.6-5.1-4-7l-3.5-2.9l4.3-1.4c22.3-7.1,44-10,74.8-10
				c28.4,0,43.4,2.1,66.9,9.5l4.4,1.4l-3.6,2.9c-2,1.7-2.1,2.8-2.4,5c-0.2,2.2-0.5,5-3,8.4l-0.9,1.3l-1.5-0.2
				c-34.7-5.6-41.1-5.4-54-5.2c-2.3,0-4.8,0.1-7.6,0.1c-24,0.1-44.8,2.6-63.6,7.7L942.9-102.6z M940.2-120c1.3,2,2,4.1,2.7,6.2
				c0.6,1.8,1.2,3.6,2.2,5.5c18.7-4.8,39.4-7.3,63.1-7.4c2.8,0,5.3-0.1,7.6-0.1c12.5-0.2,19.5-0.3,53.2,5c0.9-1.7,1.1-3.2,1.3-4.7
				c0.2-1.6,0.4-3.3,1.4-5.1c-20.9-6.3-35.5-8.1-61.8-8.1C985.5-128.7,964.1-127.2,940.2-120z"/>
		</g>
		<g>
			<g>
				<path class="st1" d="M1008.3,48.4c-52.9,0-102.6-11.6-139.8-32.8c-0.1-0.1-0.3-0.2-0.5-0.2c-25.9-14.8-51-48.3-51.7-50.7
					c-2.5-2.3-16.9-29.5-19.7-45.5c-0.8-4.4-1.2-8.9-1.2-13.5c0-22.4,7.5-41.4,21.6-55c13.4-13,32.4-20,53.7-20c1.2,0,2.3,0,3.5,0.1
					c6,0.2,11.9,1.4,17.4,3.5c7.6,2.9,14.4,6.9,20.6,12.8c6.8-2.2,14.1-3.6,21.4-5.3c-5-6.1-10.6-11.3-16.6-15.7
					c-12.5-9-26.8-14-42-14.6c-28-1-53.3,8-71.3,25.3c-17.7,17.1-27.5,41.6-27.5,68.9c0,23,21.5,65.1,24.2,67.5
					c0.7,1.9,29.5,42.7,58.2,59c40.2,22.9,93.4,35.6,149.9,35.6C1065,67.8,1061.5,48.4,1008.3,48.4z"/>
				<path class="st1" d="M1008.3,70.7c-57,0-110.7-12.8-151.3-36c-27.3-15.6-55.6-53.8-59.1-59.9c-4.6-5.8-24.8-46-24.8-69.2
					c0-28.1,10.1-53.4,28.4-71c18.6-17.9,44.6-27.2,73.5-26.2c15.5,0.6,30.6,5.8,43.6,15.1c6.3,4.5,12.1,10,17.2,16.2l3.1,3.7
					l-4.7,1.1c-1.5,0.3-2.9,0.7-4.4,1c-5.9,1.3-11.4,2.6-16.8,4.3l-1.7,0.5l-1.3-1.2c-5.6-5.3-12-9.3-19.5-12.1
					c-5.3-2-10.9-3.1-16.4-3.3c-21.8-0.8-41.5,6.1-55,19.1s-20.7,31.3-20.7,52.8c0,4.2,0.4,8.6,1.2,13c2.7,15.3,16.4,41.3,18.8,43.9
					L819-37l0.2,0.6c1.9,3.6,26,35.2,50.4,49.1l0.4,0.2c36.8,20.9,86,32.4,138.3,32.4c21.3,0,44.1,3.4,44.1,12.9
					c0,4.1-4.2,7.3-12.4,9.4C1032.4,69.7,1021.5,70.7,1008.3,70.7z M803.1-28.1c1.7,3,29.6,42,56.9,57.6
					c39.7,22.7,92.4,35.2,148.4,35.2c28.6,0,37.2-5,38.1-6.4c-1-1.9-11.3-6.9-38.1-6.9c-53.4,0-103.6-11.8-141.3-33.2l-0.2-0.1
					c-0.1-0.1-0.2-0.1-0.3-0.2c-25-14.3-49.1-45.2-52.7-51.6c-4.2-4.8-17.5-31.4-20.2-46.8c-0.8-4.7-1.2-9.4-1.2-14
					c0-23.2,7.8-42.9,22.5-57.1c14.7-14.2,35.9-21.6,59.4-20.8c6.2,0.2,12.4,1.5,18.3,3.7c7.7,2.9,14.4,6.9,20.3,12.2
					c4.9-1.5,10-2.6,15-3.8c-4-4.3-8.3-8.1-12.8-11.4c-12.1-8.7-26-13.5-40.3-14c-27.2-1-51.7,7.7-69.1,24.5
					c-17.1,16.5-26.6,40.2-26.6,66.7c0,21.8,20.5,62.1,23.3,65.3l0.5,0.4L803.1-28.1z"/>
			</g>
			<g>
				<path class="st1" d="M1210.7-163.3c-18-17.3-43.3-26.3-71.3-25.3c-14.9,0.5-29,5.4-41.3,14.1c8.9,2.4,16.9,4.5,25.2,7.6
					c5.2-1.8,11.2-2.2,16.8-2.4c1.2,0,2.3-0.1,3.5-0.1c21.3,0,40.2,7,53.7,20c14.1,13.6,21.6,32.6,21.6,55c0,2.8-0.2,5.6-0.5,8.3
					c3.1,8.7,19.8,12,19.8-8.3C1238.2-121.7,1228.4-146.2,1210.7-163.3z"/>
				<path class="st1" d="M1228.3-76.2c-5.4,0-10.8-3.6-12.7-8.8l-0.2-0.6l0.1-0.7c0.3-2.7,0.5-5.4,0.5-8c0-21.5-7.1-39.8-20.7-52.8
					c-13.5-13-33.2-19.9-55-19.1c-5.2,0.2-11.1,0.5-15.9,2.2l-1,0.4l-1-0.4c-7.5-2.8-15-4.8-22.9-6.9l-8.2-2.2l5.2-3.7
					c12.8-9,27.7-14.1,42.9-14.7c28.8-1,54.9,8.3,73.5,26.2l0,0c18.3,17.7,28.4,42.9,28.4,71c0,14.9-8.4,17.5-10.9,18
					C1229.6-76.3,1228.9-76.2,1228.3-76.2z M1221.5-86.5c1.3,2.8,4.8,4.7,7.8,4.2c3.8-0.7,6-5.1,6-12.1c0-26.5-9.4-50.2-26.6-66.7
					l0,0c-17.4-16.8-41.9-25.5-69.1-24.5c-11.9,0.4-23.6,3.9-34.1,10c6.1,1.7,12,3.3,17.9,5.5c5.4-1.7,11.4-2,16.6-2.2
					c23.5-0.8,44.7,6.6,59.4,20.8c14.7,14.2,22.5,34,22.5,57.1C1221.9-91.8,1221.7-89.2,1221.5-86.5z"/>
			</g>
		</g>
		<g>
			<g>
				<path class="st1" d="M1005.9,48.4c52.9,0,102.6-11.6,139.8-32.8c0.1-0.1,0.3-0.2,0.5-0.2c25.9-14.8,51-48.3,51.7-50.7
					c2.5-2.3,16.9-29.5,19.7-45.5c0.8-4.4,1.2-8.9,1.2-13.5c0-22.4-7.5-41.4-21.6-55c-13.4-13-32.4-20-53.7-20c-1.2,0-2.3,0-3.5,0.1
					c-6,0.2-11.9,1.4-17.4,3.5c-7.6,2.9-15.5,7-21.7,12.9c-6.8-2.2-13-3.7-20.2-5.4c5-6.1,10.6-11.3,16.6-15.7
					c12.5-9,26.8-14,42-14.6c28-1,53.3,8,71.3,25.3c17.7,17.1,27.5,41.6,27.5,68.9c0,23-21.5,65.1-24.2,67.5
					c-0.7,1.9-29.5,42.7-58.2,59c-40.2,22.9-93.4,35.6-149.9,35.6S952.8,48.4,1005.9,48.4z"/>
				<path class="st1" d="M1005.9,70.2c-13.1,0-24-1-31.6-3c-8-2.1-12-5.1-12-8.9c0-9.1,22.5-12.4,43.6-12.4
					c52.5,0,101.7-11.5,138.6-32.5l0.5-0.2c25-14.3,49-46,50.6-49.4l0.2-0.6l0.5-0.5c2.3-2.3,16.2-28.8,18.9-44.1
					c0.8-4.4,1.2-8.8,1.2-13c0-21.7-7.2-40.1-20.8-53.2c-13.6-13.1-33.4-20-55.3-19.2c-5.6,0.2-11.2,1.3-16.6,3.4
					c-8.6,3.2-15.6,7.4-20.9,12.4l-1.1,1l-1.4-0.4c-6.2-1.9-12-3.5-20-5.4l-3.9-0.9l2.6-3.1c5.1-6.2,10.9-11.6,17.1-16.1
					c12.9-9.3,27.9-14.5,43.3-15.1c28.7-1,54.6,8.2,73.1,26c18.2,17.6,28.2,42.7,28.2,70.7c0,22.5-20.2,63.5-24.7,68.9
					c-3.2,5.7-31.6,44.1-59,59.8C1116.5,57.5,1062.8,70.2,1005.9,70.2z M1200-33.9c-3.2,5.9-27.4,37.1-52.6,51.5l-0.4,0.2
					c-37.6,21.4-87.7,33.1-141.1,33.1c-29.4,0-38.6,5.7-38.6,7.4c0,0.4,1.5,2.3,8.3,4.1c5,1.3,14.4,2.9,30.4,2.9
					c56,0,108.8-12.5,148.6-35.3c27.9-15.9,55.6-55,57.1-57.8l0.2-0.5l0.5-0.4c2.5-2.7,23.4-43.6,23.4-65.6
					c0-26.6-9.5-50.5-26.7-67.1c-17.5-16.9-42.1-25.6-69.4-24.6c-14.4,0.5-28.5,5.4-40.6,14.1c-4.9,3.5-9.4,7.6-13.5,12.2
					c5.7,1.4,10.3,2.6,15,4.1c5.6-5,12.8-9.1,21.4-12.4c5.9-2.2,12-3.5,18.2-3.7c23.4-0.8,44.4,6.6,59,20.6
					c14.6,14.1,22.3,33.7,22.3,56.8c0,4.5-0.4,9.2-1.2,13.9C1217.3-64.4,1203.8-38.3,1200-33.9z"/>
			</g>
			<g>
				<path class="st1" d="M803.6-163.1c18-17.3,43.3-26.4,71.3-25.4c14.9,0.5,29,5.4,41.3,14.1c-8.9,2.4-17.5,5.1-25.8,8.2
					c-5.2-1.8-10.6-2.9-16.2-3.1c-1.2,0-2.3-0.1-3.5-0.1c-21.3,0-40.2,7.2-53.7,20.2C802.9-135.6,785.9-146,803.6-163.1z"/>
				<path class="st1" d="M803.8-140.4c-1.2,0-2.4-0.2-3.5-0.5c-3.3-1-5.7-3.3-6.5-6.5c-0.7-2.9-0.7-9.1,8.1-17.5
					c18.5-17.9,44.5-27.1,73.1-26.1c15.2,0.5,29.9,5.6,42.6,14.5l4.4,3.1l-5.2,1.4c-8.8,2.4-17.4,5.1-25.5,8.2l-0.8,0.3l-0.9-0.3
					c-5-1.8-10.2-2.8-15.5-2.9c-21.8-0.8-41.6,6.2-55.3,19.4C814.1-142.9,808.6-140.4,803.8-140.4z M870.7-186.1
					c-25.6,0-48.7,8.7-65.4,24.8l0,0c-5,4.8-7.5,9.5-6.7,12.7c0.4,1.8,1.9,2.5,3,2.9c2.9,0.8,8.2-0.1,13.6-5.3
					c14.7-14.2,35.8-21.6,59-20.8c5.4,0.2,10.9,1.2,16.1,2.9c6.4-2.4,13-4.5,19.8-6.5c-10.8-6.5-23-10.2-35.4-10.6
					C873.4-186.1,872-186.1,870.7-186.1z"/>
			</g>
		</g>
		<g>
			<path class="st1" d="M1078.3-102.3l-24.1-6.5c1.4-5.1,14.2-50.7,37.4-65l13.2,21.3C1094.1-146,1082.9-119.2,1078.3-102.3z"/>
		</g>
		<g>
			<path class="st2" d="M948.7-103.9c0,0-12.1-44.9-31.7-57"/>
			<path class="st1" d="M936.6-100.7c-4.5-16.7-15.6-43.1-26.2-49.6l13.2-21.3c23.2,14.3,35.8,59.3,37.2,64.4L936.6-100.7z"/>
		</g>
		<g>
			<g>
				<path class="st1" d="M1145.2-47c-28.7,0-52-23.3-52-52s23.3-52,52-52c28.7,0,52,23.3,52,52C1197.1-70.4,1173.8-47,1145.2-47z
					 M1145.2-126c-14.9,0-27,12.1-27,27s12.1,27,27,27c14.9,0,27-12.1,27-27C1172.1-113.9,1160-126,1145.2-126z"/>
			</g>
			<g>
				<path class="st1" d="M865.5-47c-28.7,0-52-23.3-52-52s23.3-52,52-52s52,23.3,52,52C917.5-70.4,894.1-47,865.5-47z M865.5-126
					c-14.9,0-27,12.1-27,27s12.1,27,27,27s27-12.1,27-27S880.4-126,865.5-126z"/>
			</g>
		</g>
		<g>
			<g>
				<path class="st1" d="M1156.5,506c-4,0-8-1.9-10.4-5.5c-3.8-5.7-2.3-13.5,3.4-17.3c118.9-79.7,188.9-177.5,202.6-282.7
					c8-61.1-5.1-108.2-11.4-126.5c-120.6,14.6-210.8,81.4-268,198.7c-44.4,91-51.3,179.7-51.4,180.6c-0.5,6.9-6.5,12.1-13.4,11.6
					s-12.1-6.5-11.6-13.4c0.3-3.8,7.2-93.8,53.5-189.1c27.4-56.3,62.9-102.6,105.5-137.5c53.5-43.8,118.2-69.7,192.3-76.9
					c5.3-0.5,10.4,2.4,12.6,7.3c1.1,2.5,27.8,62.5,16.6,148.3c-6.5,50.2-24.7,98.8-54.1,144.6c-36.3,56.7-90,109.1-159.5,155.7
					C1161.4,505.3,1158.9,506,1156.5,506z"/>
			</g>
			<g>
				<path class="st1" d="M1154.3,506.5c-2.8,0-5.5-0.9-7.9-2.8c-5-4.1-6.1-11.2-2.6-16.5c0.3-0.6,1-2.1,1.6-3.3
					c6.4-13.6,26-55.2,63.9-92.9c48.4-48.1,107.8-72.5,176.5-72.5c40.7,0,79.2,8.9,114.2,26.5c28,14,53.8,33.5,76.8,58
					c39,41.5,56.3,82.6,57,84.3c2.6,6.4-0.4,13.7-6.8,16.3s-13.7-0.4-16.3-6.8c-0.2-0.4-16.6-39.2-52.7-77.4
					c-47.7-50.4-105.7-76-172.3-76c-94.6,0-171.9,53.6-217.8,151c-2,4.2-2.7,5.7-4,7.4C1161.6,504.9,1158,506.5,1154.3,506.5z"/>
			</g>
		</g>
		<g>
			<g>
				<path class="st1" d="M862.1,506c-2.4,0-4.8-0.7-6.9-2.1c-69.5-46.6-123.1-98.9-159.5-155.7c-29.3-45.8-47.5-94.4-54.1-144.6
					c-11.1-85.8,15.6-145.8,16.7-148.3c2.2-4.9,7.3-7.8,12.6-7.3C745,55.2,809.7,80.8,863,124.1c42.6,34.5,78,80.2,105.3,135.8
					c46.1,94,52.9,183,53.1,186.7c0.5,6.9-4.7,12.9-11.6,13.4c-6.9,0.5-12.9-4.7-13.4-11.6c-0.1-1.3-6.9-88.6-51-178.1
					c-57-115.7-147-181.7-267.6-196.3c-6.4,18.5-19.5,66.3-11.3,127.8c14.1,104.7,84.1,202,202.5,281.4c5.7,3.8,7.3,11.6,3.4,17.3
					C870.1,504.1,866.2,506,862.1,506z"/>
			</g>
			<g>
				<path class="st1" d="M864.3,506.5c-3.6,0-7.3-1.6-9.7-4.6c-1.3-1.6-2-3.2-4-7.4c-45.9-97.4-123.2-151-217.8-151
					c-66.6,0-124.5,25.6-172.3,76c-36.1,38.1-52.5,77-52.7,77.4c-2.7,6.4-10,9.4-16.3,6.7c-6.4-2.6-9.4-9.9-6.8-16.3
					c0.7-1.7,18-42.9,57-84.3c23-24.4,48.9-43.9,76.8-58c35.1-17.6,73.5-26.5,114.2-26.5c68.8,0,128.1,24.4,176.5,72.5
					c37.9,37.7,57.5,79.2,63.9,92.9c0.6,1.3,1.3,2.7,1.6,3.3c3.4,5.3,2.4,12.5-2.6,16.5C869.9,505.6,867.1,506.5,864.3,506.5z"/>
			</g>
		</g>
	</g>
</g>
</svg>
