<svg xmlns="http://www.w3.org/2000/svg" width="113" height="99" viewBox="0 0 18057 15891" shape-rendering="geometricPrecision" text-rendering="geometricPrecision" image-rendering="optimizeQuality" fill-rule="evenodd" clip-rule="evenodd"><path d="M3477 2132c-97-334-556-656-1124-918C1558 849 583 628 10 638L0 0c652-11 1742 232 2618 634 520 239 974 541 1246 892 270 348 456 1175 578 1570l13615-28-1914 7660H6207l-406 944c799 237 1394 919 1517 1745h4229c157-1052 1064-1834 2131-1834 1189 0 2154 965 2154 2154 0 1190-965 2154-2154 2154-1067 0-1974-781-2131-1834H7318c-157 1053-1064 1834-2131 1834-1189 0-2154-964-2154-2154 0-1172 938-2130 2110-2153l566-1318-2232-8134zm3612 3291h7641v641H7089v-641zm0 2310h7641v640H7089v-640zM4587 3734l1735 6356h9322l1595-6383-12652 27zm9091 8489c-837 0-1514 678-1514 1514 0 1994 3028 1994 3028 0 0-836-678-1514-1514-1514zm-8491 0c-836 0-1514 678-1514 1514 0 1994 3028 1994 3028 0 0-836-677-1514-1514-1514z" fill="#479c2e" fill-rule="nonzero"/></svg>