<svg xmlns="http://www.w3.org/2000/svg" width="49" height="49" viewBox="0 0 11019 11019" shape-rendering="geometricPrecision" text-rendering="geometricPrecision" image-rendering="optimizeQuality" fill-rule="evenodd" clip-rule="evenodd"><path d="M5509 11019C2467 11019 0 8552 0 5509 0 2467 2467 0 5509 0c3043 0 5510 2467 5510 5509 0 3043-2467 5510-5510 5510zm0-675c2671 0 4835-2164 4835-4835 0-2670-2164-4834-4835-4834-2670 0-4834 2164-4834 4834 0 2671 2164 4835 4834 4835zm2924-4497H5172V1940h675v3232h2586v675z" fill="#56b33c" fill-rule="nonzero"/></svg>