<svg xmlns="http://www.w3.org/2000/svg" width="53" height="43" viewBox="0 0 34988 28086" shape-rendering="geometricPrecision" text-rendering="geometricPrecision" image-rendering="optimizeQuality" fill-rule="evenodd" clip-rule="evenodd"><path d="M4651 0h25686c2708 0 4651 2100 4651 4650v18786c0 2557-2093 4650-4651 4650H4651C2093 28086 0 25993 0 23436V4650C0 2014 2060 0 4651 0zm25686 1981H4651c-774 0-1498 333-2007 911l12044 11356c769 725 1787 1087 2808 1086 1020-1 2039-365 2810-1092L32344 2892c-509-578-1233-911-2007-911zm2671 3001L21660 15681c-1148 1082-2658 1625-4164 1625-1506 2-3015-538-4161-1619L1981 4982v18454c0 1469 1200 2670 2670 2670h25686c1470 0 2671-1201 2671-2670V4982z" fill="#56b33c" fill-rule="nonzero"/></svg>