<svg xmlns="http://www.w3.org/2000/svg" width="32" height="46" viewBox="0 0 3267 4678" shape-rendering="geometricPrecision" text-rendering="geometricPrecision" image-rendering="optimizeQuality" fill-rule="evenodd" clip-rule="evenodd"><path d="M1787 3635v737h733v306H746v-306h734v-737H952C391 3635 0 3121 0 2587v-618h307v618c0 364 255 741 645 741h1363c390 0 645-377 645-741v-618h307v618c0 534-391 1048-952 1048h-528zM1272 0h723c338 0 613 276 613 614v1969c0 185-151 336-335 336H994c-184 0-336-151-336-336V614C658 277 935 0 1272 0zm723 307h-723c-169 0-307 137-307 307v1969c0 17 13 29 29 29h1279c14 0 29-13 29-29V614c0-169-139-307-307-307z" fill="#56b33c" fill-rule="nonzero"/></svg>