<svg xmlns="http://www.w3.org/2000/svg" width="20" height="20" viewBox="0 0 636 636" shape-rendering="geometricPrecision" text-rendering="geometricPrecision" image-rendering="optimizeQuality" fill-rule="evenodd" clip-rule="evenodd"><path d="M74 74C123 25 188 0 252 0c65 0 130 25 179 74s74 114 74 178c0 47-13 95-39 136l154 154c21 21 21 56 0 78-22 21-57 21-78 0L388 466c-41 26-89 39-136 39-64 0-129-25-178-74S0 317 0 252c0-64 25-129 74-178zm178 21c-40 0-80 15-111 46s-46 71-46 111c0 41 15 81 46 112s71 46 111 46c41 0 81-15 112-46s46-71 46-112c0-40-15-80-46-111s-71-46-112-46z" fill="#44972c" fill-rule="nonzero"/></svg>