<svg xmlns="http://www.w3.org/2000/svg" width="92" height="92" viewBox="0 0 36230 36253" shape-rendering="geometricPrecision" text-rendering="geometricPrecision" image-rendering="optimizeQuality" fill-rule="evenodd" clip-rule="evenodd"><path d="M20503 1622l3851 9195 9532 989c2254 234 3151 3110 1483 4664l-7181 6685 2056 9834c464 2223-1861 4103-3868 2874l-8261-5057-8261 5057c-2008 1229-4331-652-3868-2874l2056-9834-7181-6685c-1669-1555-771-4429 1483-4663l9531-990 3852-9195c921-2197 3884-2128 4776 0zm-1460 606c-354-846-1487-880-1856 0l-4216 10063-10466 1086c-925 96-1233 1316-567 1936l7832 7293-2238 10705c-186 894 686 1702 1499 1204l9084-5561 9084 5561c813 498 1686-310 1499-1204l-2238-10706 7832-7292c666-620 363-1840-567-1936l-10467-1086-4215-10063z" fill="#479c2e" fill-rule="nonzero"/></svg>