<svg xmlns="http://www.w3.org/2000/svg" width="100" height="101" viewBox="0 0 447102 452507" shape-rendering="geometricPrecision" text-rendering="geometricPrecision" image-rendering="optimizeQuality" fill-rule="evenodd" clip-rule="evenodd"><path d="M300741 308758h-589c-15526 13476-35442 21605-57093 21605h-39016c-21649 0-41566-8129-57092-21605h-589c-35251 0-67309 15098-90558 39423-21475 22466-35463 52794-37589 86395h410672c-2127-33604-16114-63929-37588-86395-23250-24325-55307-39423-90558-39423zm-23304-85570l37126-10674v-67147c0-20776-8100-39640-21150-53293-12932-13528-30758-21928-50354-21928h-39016c-19595 0-37421 8400-50353 21928-13049 13653-21150 32517-21150 53293v91843c0 20777 8101 39643 21150 53295 12932 13528 30758 21928 50353 21928h39016c19596 0 37422-8400 50354-21928 13050-13652 21150-32518 21150-53295v-6057l-32177 9252c-1605 4698-5410 8559-10547 10021l-39439 11342c-8325 2369-16997-2461-19365-10786s2461-16996 10786-19365l39439-11342c5108-1454 10345-197 14177 2913zm55057-15829l41530-11939v-70457c0-8664 7024-15688 15688-15688s15688 7024 15688 15688v112247c0 8664-7024 15688-15688 15688s-15688-7024-15688-15688v-23152l-41530 11941v11211c0 20256-6301 39068-16957 54399 34441 3652 65454 19904 88719 44244 26436 27657 42846 65778 42846 107685v8969H0v-8965c0-41908 16410-80031 42847-107689 23265-24342 54276-40592 88719-44244-10656-15331-16957-34143-16957-54399v-91843c0-25526 10006-48758 26123-65620 16236-16985 38649-27531 63311-27531h39016c24663 0 47076 10546 63312 27531 16118 16863 26123 40094 26123 65620v61992zM80237 172951v-50853c0-33485 13118-63955 34250-86063C135739 13801 165065 0 197336 0h52431c32269 0 61595 13802 82845 36036 21135 22111 34254 52581 34254 86062v50853h-17931v-50853c0-28732-11214-54833-29280-73735-17946-18776-42687-30433-69888-30433h-52431c-27202 0-51944 11656-69891 30432-18064 18899-29277 45000-29277 73736v50853H80237zm-38531-47988c0-8664 7023-15688 15688-15688 8664 0 15687 7024 15687 15688v112247c0 8664-7023 15688-15687 15688-8665 0-15688-7024-15688-15688V124963z" fill="#479c2e" fill-rule="nonzero"/></svg>