<svg xmlns="http://www.w3.org/2000/svg" width="60" height="60" viewBox="0 0 24726 24726" shape-rendering="geometricPrecision" text-rendering="geometricPrecision" image-rendering="optimizeQuality" fill-rule="evenodd" clip-rule="evenodd"><path d="M12363 0c6828 0 12363 5535 12363 12363s-5535 12363-12363 12363S0 19191 0 12363 5535 0 12363 0zM7553 16187c-643 643-1687 643-2331 0-643-644-643-1688 0-2331l5975-5975c644-644 1688-644 2331 0l5976 5975c643 643 643 1687 0 2331-644 643-1688 643-2331 0l-4810-4810-4810 4810z" fill="#56b33c"/></svg>