<svg xmlns="http://www.w3.org/2000/svg" width="100" height="99" viewBox="0 0 21598 21533" shape-rendering="geometricPrecision" text-rendering="geometricPrecision" image-rendering="optimizeQuality" fill-rule="evenodd" clip-rule="evenodd"><path d="M7099 14589c-1688 0-3240 687-4403 1905-1038 1085-1713 2550-1816 4173h19838c-103-1623-778-3088-1816-4173-1123-1175-2671-1905-4374-1905l-46 16c-1728 1464-5682 1451-7383-16zm8097-3456V6696c0-1923-1482-3633-3455-3633H9857c-1972 0-3454 1711-3454 3633v4437c0 4930 8793 4971 8793 0zm-1529-8461l3180-2117 477 721-2880 1917c1033 867 1618 2155 1618 3503v4437c0 939-284 1857-820 2628 1664 176 3162 961 4286 2137 1277 1336 2070 3178 2070 5202v433H0v-433c0-2024 793-3866 2070-5202 1124-1176 2622-1961 4286-2137-535-771-820-1689-820-2628V6696c0-2398 1873-4499 4321-4499h1955L13145 0l737 447-1136 1873c322 81 631 200 921 352z" fill="#479c2e" fill-rule="nonzero"/></svg>