<svg xmlns="http://www.w3.org/2000/svg" width="23" height="23" viewBox="0 0 918 917" shape-rendering="geometricPrecision" text-rendering="geometricPrecision" image-rendering="optimizeQuality" fill-rule="evenodd" clip-rule="evenodd"><path d="M904 763c-51 50-124 154-198 154-104 0-213-56-297-111-95-62-206-172-274-265C77 461-6 317 0 213 5 132 102 68 156 14c24-24 53-15 70 12l104 197c12 21 5 48-12 65-47 47-68 45-35 108 41 81 159 198 240 240 64 33 64 7 115-45 17-15 47-22 67-10l188 111c27 17 34 47 11 71z" fill="#ccc" fill-rule="nonzero"/></svg>