<svg width="37" height="51" viewBox="0 0 37 51" fill="none" xmlns="http://www.w3.org/2000/svg">
<path d="M32.4736 40.3144C32.4736 38.45 30.9573 36.9331 29.0936 36.9331C27.23 36.9331 25.7138 38.4499 25.7138 40.3144C25.7138 42.1789 27.23 43.6957 29.0936 43.6957C30.9574 43.6957 32.4736 42.1788 32.4736 40.3144ZM27.6669 40.3144C27.6669 39.5269 28.3069 38.8862 29.0936 38.8862C29.8805 38.8862 30.5205 39.5269 30.5205 40.3144C30.5205 41.102 29.8805 41.7426 29.0936 41.7426C28.3069 41.7426 27.6669 41.102 27.6669 40.3144Z" fill="#BFBD9C"/>
<path d="M11.6367 40.3143C11.6367 38.45 10.1205 36.9331 8.25684 36.9331C6.39307 36.9331 4.87685 38.4499 4.87685 40.3143C4.87685 42.1789 6.39307 43.6957 8.25684 43.6957C10.1205 43.6957 11.6367 42.1788 11.6367 40.3143ZM6.82998 40.3143C6.82998 39.5268 7.47002 38.8862 8.25684 38.8862C9.04356 38.8862 9.68359 39.5268 9.68359 40.3143C9.68359 41.1019 9.04356 41.7426 8.25684 41.7426C7.47002 41.7426 6.82998 41.1019 6.82998 40.3143Z" fill="#BFBD9C"/>
<path d="M32.4736 9.95899C32.4736 8.09453 30.9573 6.57764 29.0937 6.57764C27.23 6.57764 25.7138 8.09453 25.7138 9.95899C25.7138 11.8233 27.23 13.3402 29.0937 13.3402C30.9574 13.3402 32.4736 11.8234 32.4736 9.95899ZM27.6669 9.95899C27.6669 9.17149 28.3069 8.53076 29.0937 8.53076C29.8805 8.53076 30.5205 9.17149 30.5205 9.95899C30.5205 10.7465 29.8805 11.3871 29.0937 11.3872C28.3069 11.3872 27.6669 10.7465 27.6669 9.95899Z" fill="#BFBD9C"/>
<path d="M11.6367 9.95898C11.6367 8.09453 10.1205 6.57764 8.25683 6.57764C6.39306 6.57764 4.87684 8.09453 4.87684 9.95898C4.87684 11.8233 6.39306 13.3402 8.25683 13.3402C10.1205 13.3402 11.6367 11.8234 11.6367 9.95898ZM6.82997 9.95898C6.82997 9.17148 7.47001 8.53076 8.25683 8.53076C9.04355 8.53076 9.68359 9.17148 9.68359 9.95898C9.68359 10.7465 9.04355 11.3871 8.25683 11.3872C7.47001 11.3872 6.82997 10.7465 6.82997 9.95898Z" fill="#BFBD9C"/>
<path d="M32.8904 26.0937C32.9529 26.082 33.0144 26.0625 33.073 26.0381C33.1326 26.0137 33.1892 25.9834 33.242 25.9482C33.2957 25.9131 33.3455 25.8721 33.3904 25.8271C33.4353 25.7822 33.4763 25.7324 33.5115 25.6787C33.5466 25.626 33.5769 25.5693 33.6013 25.5098C33.6258 25.4512 33.6453 25.3896 33.657 25.3271C33.7215 25.0098 33.617 24.6729 33.3904 24.4463C33.3455 24.4014 33.2957 24.3604 33.242 24.3252C33.1892 24.29 33.1326 24.2598 33.073 24.2354C33.0144 24.2109 32.9529 24.1914 32.8904 24.1797C32.8279 24.167 32.7634 24.1602 32.7 24.1602C32.6365 24.1602 32.572 24.167 32.5095 24.1797C32.447 24.1914 32.3855 24.2109 32.3269 24.2354C32.2674 24.2598 32.2107 24.29 32.158 24.3252C32.1043 24.3604 32.0545 24.4014 32.0095 24.4463C31.8279 24.6279 31.7234 24.8799 31.7234 25.1367C31.7234 25.2002 31.7302 25.2646 31.7429 25.3271C31.7556 25.3896 31.7742 25.4512 31.7986 25.5098C31.823 25.5693 31.8533 25.626 31.8884 25.6787C31.9236 25.7324 31.9646 25.7822 32.0095 25.8271C32.0545 25.8721 32.1043 25.9131 32.158 25.9482C32.2107 25.9834 32.2674 26.0137 32.3269 26.0381C32.3855 26.0625 32.447 26.082 32.5095 26.0937C32.572 26.1064 32.6365 26.1133 32.7 26.1133C32.7634 26.1133 32.8279 26.1064 32.8904 26.0937Z" fill="white"/>
<path d="M4.84049 26.0937C4.90299 26.082 4.96452 26.0625 5.02311 26.0381C5.08268 26.0137 5.13932 25.9834 5.19206 25.9482C5.24577 25.9131 5.29558 25.8721 5.3405 25.8271C5.38542 25.7822 5.42643 25.7324 5.46159 25.6787C5.49684 25.626 5.52712 25.5693 5.55153 25.5098C5.57595 25.4512 5.5945 25.3896 5.6072 25.3271C5.67165 25.0098 5.56716 24.6729 5.34059 24.4463C5.29567 24.4014 5.24587 24.3604 5.19216 24.3252C5.13942 24.29 5.08278 24.2598 5.02321 24.2354C4.96462 24.2109 4.90309 24.1914 4.84059 24.1797C4.77809 24.167 4.71364 24.1602 4.65016 24.1602C4.58669 24.1602 4.52223 24.167 4.45973 24.1797C4.39723 24.1914 4.33571 24.2109 4.27712 24.2354C4.21755 24.2598 4.1609 24.29 4.10817 24.3252C4.05446 24.3604 4.00465 24.4014 3.95973 24.4463C3.77809 24.6279 3.6736 24.8799 3.6736 25.1367C3.6736 25.2002 3.67946 25.2646 3.69206 25.3271C3.70475 25.3896 3.72428 25.4512 3.7487 25.5098C3.77311 25.5693 3.80241 25.626 3.83756 25.6787C3.8737 25.7324 3.91471 25.7822 3.95963 25.8271C4.00456 25.8721 4.05436 25.9131 4.10807 25.9482C4.1608 25.9834 4.21745 26.0137 4.27702 26.0381C4.33561 26.0625 4.39713 26.082 4.45963 26.0937C4.52213 26.1064 4.58659 26.1133 4.65007 26.1133C4.71354 26.1133 4.77799 26.1064 4.84049 26.0937Z" fill="white"/>
<path d="M36.791 49.1602L36.791 1.11328C36.791 0.573926 36.3538 0.136719 35.8145 0.136719L1.53621 0.136717C0.996857 0.136717 0.55965 0.573924 0.55965 1.11328L0.559648 49.1602C0.559648 49.6995 0.996855 50.1367 1.53621 50.1367L35.8145 50.1367C36.3537 50.1367 36.791 49.6995 36.791 49.1602ZM22.9645 2.08984L22.9645 5.40869C22.9645 5.89326 22.5702 6.2876 22.0856 6.2876L15.2651 6.2876C14.7806 6.2876 14.3862 5.89326 14.3862 5.40869L14.3862 2.08984L22.9645 2.08984ZM2.51277 14.6861L2.51278 2.08984L12.4331 2.08984L12.4331 5.40869C12.4331 6.97031 13.7035 8.24072 15.2651 8.24072L22.0856 8.24072C23.6473 8.24072 24.9177 6.97031 24.9177 5.40869L24.9177 2.08984L34.8379 2.08984L34.8379 14.6861L2.51277 14.6861ZM2.51277 33.6342L2.51277 16.6393L34.8379 16.6393L34.8379 33.6342L2.51277 33.6342ZM14.3862 48.1836L14.3862 44.8647C14.3862 44.3802 14.7806 43.9858 15.2651 43.9858L22.0856 43.9858C22.5702 43.9858 22.9645 44.3802 22.9645 44.8647L22.9645 48.1836L14.3862 48.1836ZM24.9177 48.1836L24.9177 44.8647C24.9177 43.3031 23.6473 42.0327 22.0856 42.0327L15.2651 42.0327C13.7035 42.0327 12.4331 43.3031 12.4331 44.8647L12.4331 48.1836L2.51287 48.1836L2.51287 35.5873L34.8379 35.5873L34.8379 48.1836L24.9177 48.1836Z" fill="white"/>
<path d="M23.6317 26.1133L28.9082 26.1133C29.4476 26.1133 29.8848 25.6761 29.8848 25.1367C29.8848 24.5974 29.4476 24.1602 28.9082 24.1602L23.6317 24.1602C23.1758 21.8397 21.127 20.084 18.6761 20.084C16.2252 20.084 14.1764 21.8397 13.7204 24.1602L8.44395 24.1602C7.90459 24.1602 7.46739 24.5974 7.46739 25.1367C7.46739 25.6761 7.90459 26.1133 8.44395 26.1133L13.7204 26.1133C14.1764 28.4337 16.2252 30.1895 18.6761 30.1895C21.127 30.1895 23.1758 28.4337 23.6317 26.1133ZM15.5788 25.1367C15.5788 23.4275 16.9682 22.0371 18.6761 22.0371C20.384 22.0371 21.7733 23.4275 21.7733 25.1367C21.7733 26.8459 20.3839 28.2363 18.6761 28.2363C16.9683 28.2363 15.5788 26.8458 15.5788 25.1367Z" fill="white"/>
</svg>
