<svg width="40" height="51" viewBox="0 0 40 51" fill="none" xmlns="http://www.w3.org/2000/svg">
<path d="M33.371 37.8857C33.3583 37.8232 33.3397 37.7617 33.3153 37.7031C33.2909 37.6436 33.2606 37.5869 33.2255 37.5342C33.1894 37.4805 33.1493 37.4307 33.1034 37.3857C33.0586 37.3408 33.0088 37.2998 32.955 37.2646C32.9022 37.2295 32.8457 37.1992 32.787 37.1748C32.7274 37.1504 32.667 37.1318 32.6044 37.1191C32.4784 37.0938 32.3485 37.0938 32.2226 37.1191C32.1601 37.1318 32.0986 37.1504 32.04 37.1748C31.9814 37.1992 31.9248 37.2295 31.8711 37.2646C31.8183 37.2998 31.7676 37.3408 31.7227 37.3857C31.6776 37.4307 31.6366 37.4805 31.6016 37.5342C31.5664 37.5869 31.5361 37.6436 31.5117 37.7031C31.4873 37.7617 31.4687 37.8232 31.4561 37.8857C31.4434 37.9482 31.4365 38.0127 31.4365 38.0762C31.4365 38.1396 31.4434 38.2041 31.4561 38.2676C31.4687 38.3291 31.4873 38.3906 31.5117 38.4502C31.5361 38.5088 31.5664 38.5654 31.6016 38.6182C31.6366 38.6719 31.6776 38.7217 31.7227 38.7666C31.7676 38.8115 31.8184 38.8525 31.8711 38.8887C31.9247 38.9238 31.9813 38.9541 32.04 38.9785C32.0985 39.0029 32.1601 39.0215 32.2226 39.0342C32.286 39.0469 32.3496 39.0527 32.413 39.0527C32.4774 39.0527 32.5409 39.0469 32.6044 39.0342C32.667 39.0215 32.7274 39.0029 32.787 38.9785C32.8457 38.9541 32.9022 38.9238 32.955 38.8887C33.0087 38.8525 33.0585 38.8115 33.1034 38.7666C33.1493 38.7217 33.1894 38.6719 33.2255 38.6182C33.2606 38.5654 33.2909 38.5088 33.3153 38.4502C33.3397 38.3906 33.3583 38.3291 33.371 38.2676C33.3836 38.2041 33.3895 38.1396 33.3895 38.0762C33.3895 38.0127 33.3837 37.9482 33.371 37.8857Z" fill="#BFBD9C"/>
<path d="M8.3505 37.8857C8.3377 37.8232 8.31924 37.7617 8.29483 37.7031C8.27042 37.6436 8.24005 37.5869 8.20499 37.5342C8.16983 37.4805 8.12881 37.4307 8.08389 37.3857C8.03897 37.3408 7.98819 37.2998 7.93546 37.2646C7.88174 37.2295 7.8251 37.1992 7.76651 37.1748C7.70801 37.1504 7.64649 37.1318 7.58389 37.1191C7.45791 37.0938 7.32803 37.0938 7.20205 37.1191C7.13955 37.1318 7.07813 37.1504 7.01944 37.1748C6.96094 37.1992 6.9043 37.2295 6.85059 37.2646C6.79775 37.2998 6.74707 37.3408 6.70205 37.3857C6.65713 37.4307 6.61611 37.4805 6.58106 37.5342C6.5459 37.5869 6.51563 37.6436 6.49121 37.7031C6.4668 37.7617 6.44824 37.8232 6.43555 37.8857C6.42295 37.9482 6.41699 38.0127 6.41699 38.0762C6.41699 38.1396 6.42285 38.2041 6.43555 38.2676C6.44824 38.3291 6.4668 38.3906 6.49121 38.4502C6.51563 38.5088 6.5459 38.5654 6.58106 38.6182C6.61611 38.6719 6.65713 38.7217 6.70205 38.7666C6.74707 38.8115 6.79785 38.8525 6.85059 38.8887C6.9042 38.9238 6.96084 38.9541 7.01944 38.9785C7.07803 39.0029 7.13955 39.0215 7.20205 39.0342C7.26553 39.0469 7.3291 39.0527 7.39346 39.0527C7.45704 39.0527 7.52149 39.0469 7.58389 39.0342C7.64649 39.0215 7.70791 39.0029 7.76651 38.9785C7.825 38.9541 7.88165 38.9238 7.93546 38.8887C7.98829 38.8525 8.03897 38.8115 8.08389 38.7666C8.12881 38.7217 8.16983 38.6719 8.20499 38.6182C8.24005 38.5654 8.27042 38.5088 8.29483 38.4502C8.31924 38.3906 8.3377 38.3291 8.3505 38.2676C8.36319 38.2041 8.36993 38.1396 8.36993 38.0762C8.36993 38.0127 8.36319 37.9482 8.3505 37.8857Z" fill="#BFBD9C"/>
<path d="M33.9687 27.2409H25.0368C24.8401 26.534 24.6922 25.7532 24.594 24.9021C26.5691 23.6438 28.1116 21.7586 29.0412 20.0431C29.2688 19.623 29.4778 19.1039 29.6646 18.4962C30.2554 18.055 30.7555 17.3605 31.0701 16.5302C31.3636 15.7557 31.4603 14.9439 31.3425 14.2445C31.262 13.7668 31.0826 13.3558 30.8243 13.0387V4.92705C30.8243 2.28564 28.6753 0.136719 26.0337 0.136719H24.0956C21.7535 0.136719 19.4637 0.508496 17.2645 1.24385C17.2988 0.989746 17.2318 0.730176 17.0747 0.523047C16.8899 0.279687 16.6021 0.136719 16.2966 0.136719H13.7725C11.1309 0.136719 8.98184 2.28564 8.98184 4.92705V13.0388C8.72363 13.3559 8.54414 13.7669 8.46367 14.2446C8.3459 14.944 8.44258 15.7558 8.73604 16.5302C9.05059 17.3604 9.55059 18.0549 10.1413 18.4961C10.3279 19.1037 10.5371 19.6229 10.7647 20.0432C11.6941 21.7587 13.2365 23.644 15.212 24.9022C15.1139 25.7533 14.9659 26.5341 14.7693 27.2409H5.8376C2.63135 27.2409 0.55957 29.6965 0.55957 33.4966V49.1602C0.55957 49.6995 0.996777 50.1367 1.53613 50.1367H38.2701C38.8094 50.1367 39.2467 49.6995 39.2467 49.1602V33.4966C39.2467 29.6965 37.1749 27.2409 33.9687 27.2409ZM25.986 30.0844C26.0515 29.8366 26.0168 29.5731 25.8897 29.3506C25.8604 29.2991 25.8314 29.2469 25.8029 29.194H33.9687C36.3885 29.194 37.0578 31.2201 37.2339 32.581H24.8428C25.3436 31.928 25.7175 31.1011 25.986 30.0844ZM10.9352 4.92705C10.9351 3.3626 12.2079 2.08984 13.7726 2.08984H15.0095L14.8703 2.5873C14.7687 2.95078 14.8855 3.34023 15.1704 3.5877C15.4553 3.83516 15.8574 3.89629 16.2029 3.74463C18.7064 2.64668 21.362 2.08984 24.0957 2.08984H26.0338C27.5983 2.08984 28.8713 3.3626 28.8713 4.92705V10.518L28.8102 10.4973L26.1791 7.50693C25.8261 7.10576 25.2164 7.06279 24.8106 7.41035C23.4108 8.60938 21.6248 9.26973 19.7816 9.26973H10.9352V4.92705ZM12.4822 19.1129C12.2836 18.7462 12.0886 18.2275 11.9182 17.613C11.8465 17.3546 11.6719 17.1371 11.4351 17.0114C11.188 16.8803 10.8112 16.4943 10.5627 15.8381C10.2512 15.0158 10.3812 14.4035 10.4909 14.2766C11.088 14.0365 11.1012 13.4466 11.1056 13.2513C11.1076 13.1592 11.1097 13.0278 11.1117 12.8703C11.1158 12.5619 11.1198 12.151 11.1238 11.7393C11.1256 11.5659 11.1272 11.3908 11.1291 11.2228H19.7817C21.7673 11.2228 23.7 10.6109 25.3176 9.48438L27.5164 11.9834C27.6294 12.1117 27.7741 12.2083 27.9361 12.2632L28.6715 12.5125C28.6752 12.6776 28.6789 12.8254 28.6826 12.9509C28.6992 13.5091 28.7148 14.0366 29.3157 14.2768C29.4254 14.4037 29.5554 15.016 29.2438 15.8383C28.9952 16.4944 28.6186 16.8805 28.3714 17.0116C28.1345 17.1373 27.9598 17.3549 27.8881 17.6133C27.7177 18.2279 27.5227 18.7466 27.3242 19.1129C26.4619 20.7042 24.9965 22.4697 23.147 23.5037C23.1097 23.5212 23.0737 23.541 23.0393 23.5629C22.084 24.078 21.029 24.3966 19.9037 24.3966C18.7781 24.3966 17.7229 24.0781 16.7677 23.5631C16.733 23.5411 16.6969 23.5212 16.6594 23.5036C14.8094 22.4694 13.3441 20.7041 12.4822 19.1129ZM23.9933 29.9497C23.4133 31.8102 22.415 32.5133 20.2683 32.5811H19.5412C17.3927 32.5133 16.3936 31.8104 15.8132 29.9496C16.4079 28.7944 16.8198 27.4345 17.0603 25.8285C17.9504 26.1586 18.9021 26.3496 19.9034 26.3496C20.9045 26.3496 21.856 26.1586 22.746 25.8285C22.9864 27.4345 23.3983 28.7944 23.9933 29.9497ZM5.8376 29.194H14.0033C13.9748 29.2469 13.9459 29.2991 13.9165 29.3506C13.7893 29.5731 13.7548 29.8368 13.8203 30.0846C14.089 31.1013 14.4631 31.9281 14.9641 32.5811H2.57227C2.74844 31.2201 3.41768 29.194 5.8376 29.194ZM23.0316 47.5393L23.3254 48.1269H16.4808L16.7746 47.5395C16.8905 47.3077 16.9096 47.0396 16.8277 46.7938C16.7458 46.548 16.5696 46.3449 16.3379 46.2291L14.0832 45.1019L14.3368 44.9751C14.6678 44.8098 14.8768 44.4715 14.8768 44.1016V43.6808L17.4654 44.975C17.8414 45.163 18.2955 45.0894 18.5927 44.792C18.8898 44.4949 18.9636 44.0408 18.7756 43.6648L17.4813 41.0765H17.9021C18.2287 41.0765 18.5336 40.9133 18.7146 40.6416L19.9032 38.8589L21.0916 40.6416C21.2728 40.9133 21.5776 41.0765 21.9041 41.0765H22.325L21.0307 43.6647C20.8427 44.0407 20.9163 44.4948 21.2136 44.792C21.5107 45.0893 21.9647 45.163 22.3408 44.975L24.9297 43.6807V44.1016C24.9297 44.4715 25.1388 44.8097 25.4696 44.9751L25.7231 45.1019L23.4685 46.2291C22.9861 46.4703 22.7905 47.0568 23.0316 47.5393ZM37.2936 48.1836H33.3898V41.8575C33.3898 41.3182 32.9526 40.881 32.4133 40.881C31.874 40.881 31.4367 41.3182 31.4367 41.8575V48.1836H25.5373L25.2153 47.5394L28.3438 45.9752C28.6748 45.8098 28.8837 45.4716 28.8837 45.1017C28.8837 44.7317 28.6746 44.3936 28.3438 44.2282L26.8828 43.498V42.1007C26.8828 41.7622 26.7075 41.4479 26.4197 41.27C26.1317 41.0921 25.7722 41.076 25.4696 41.2272L24.088 41.918L24.7787 40.5367C24.9301 40.234 24.914 39.8744 24.7359 39.5865C24.558 39.2986 24.2437 39.1233 23.9052 39.1233H22.4268L20.7157 36.5566C20.5347 36.285 20.2297 36.1218 19.9032 36.1218C19.5767 36.1218 19.2718 36.285 19.0907 36.5566L17.3796 39.1233H15.9012C15.5627 39.1233 15.2483 39.2985 15.0704 39.5865C14.8926 39.8744 14.8764 40.234 15.0276 40.5367L15.7183 41.9181L14.3368 41.2273C14.0343 41.0761 13.6749 41.0921 13.3867 41.2701C13.0989 41.448 12.9236 41.7623 12.9236 42.1008V43.498L11.4625 44.2283C11.1315 44.3937 10.9226 44.7318 10.9226 45.1018C10.9226 45.4717 11.1315 45.8099 11.4624 45.9753L14.5908 47.5394L14.2686 48.1837H8.36943V41.8576C8.36943 41.3183 7.93223 40.8811 7.39287 40.8811C6.85352 40.8811 6.41631 41.3183 6.41631 41.8576V48.1836H2.51269V34.5341H37.2936V48.1836Z" fill="white"/>
<path fill-rule="evenodd" clip-rule="evenodd" d="M14.2688 48.1835L16.4811 48.1267L16.7749 47.5393C16.8908 47.3075 16.9099 47.0394 16.828 46.7937C16.7461 46.5479 16.5699 46.3447 16.3382 46.2289L14.0835 45.1017L14.3371 44.9749C14.6681 44.8096 14.8771 44.4713 14.8771 44.1014V43.6806L17.4657 44.9748C17.8417 45.1628 18.2958 45.0892 18.593 44.7918C18.8901 44.4947 18.9639 44.0406 18.7759 43.6646L17.4816 41.0763H17.9024C18.229 41.0763 18.5339 40.9131 18.7149 40.6414L19.9035 38.8587L21.0919 40.6414C21.273 40.9131 21.5779 41.0763 21.9044 41.0763H22.3253L21.031 43.6646C20.843 44.0405 20.9166 44.4946 21.2139 44.7918C21.511 45.0891 21.965 45.1628 22.3411 44.9748L24.93 43.6805V44.1014C24.93 44.4713 25.1391 44.8095 25.4699 44.9749L25.7234 45.1017L23.4688 46.2289C22.9864 46.4701 22.7908 47.0566 23.0319 47.5391L23.3257 48.1267L25.5376 48.1834L25.2156 47.5392L28.3441 45.975C28.6751 45.8096 28.884 45.4714 28.884 45.1015C28.884 44.7315 28.6749 44.3934 28.344 44.228L26.8831 43.4978V42.1005C26.8831 41.762 26.7078 41.4477 26.42 41.2698C26.132 41.0919 25.7725 41.0758 25.4699 41.2271L24.0883 41.9178L24.779 40.5365C24.9304 40.2338 24.9143 39.8742 24.7362 39.5863C24.5583 39.2984 24.2439 39.1231 23.9055 39.1231H22.4271L20.716 36.5564C20.535 36.2848 20.23 36.1216 19.9035 36.1216C19.577 36.1216 19.2721 36.2848 19.091 36.5564L17.3799 39.1231H15.9015C15.563 39.1231 15.2486 39.2983 15.0707 39.5863C14.8929 39.8742 14.8767 40.2338 15.0279 40.5365L15.7186 41.9179L14.3371 41.2271C14.0346 41.0759 13.6752 41.0919 13.387 41.2699C13.0992 41.4479 12.9239 41.7621 12.9239 42.1006V43.4979L11.4628 44.2281C11.1318 44.3935 10.9229 44.7316 10.9229 45.1016C10.9229 45.4715 11.1318 45.8097 11.4627 45.9751L14.5911 47.5392L14.2688 48.1835Z" fill="#BFBD9C"/>
</svg>
