<svg width="51" height="51" viewBox="0 0 51 51" fill="none" xmlns="http://www.w3.org/2000/svg">
<path d="M25.7415 25.5956C25.56 25.414 25.3081 25.3096 25.0514 25.3096C24.7946 25.3096 24.5428 25.4139 24.3612 25.5956C24.1797 25.7771 24.0752 26.0289 24.0752 26.2857C24.0752 26.5425 24.1797 26.7943 24.3612 26.9758C24.5428 27.1573 24.7946 27.2619 25.0514 27.2619C25.3081 27.2619 25.56 27.1574 25.7415 26.9758C25.9231 26.7943 26.0275 26.5425 26.0275 26.2857C26.0275 26.0289 25.9231 25.7771 25.7415 25.5956Z" fill="#BFBD9C"/>
<path d="M33.7827 14.1439L42.98 23.3412C43.163 23.5242 43.4113 23.6271 43.6702 23.6271H49.0642C49.6032 23.6271 50.0402 23.1901 50.0402 22.6511C50.0402 22.112 49.6032 21.675 49.0642 21.675H48.6353C49.5045 20.769 50.0402 19.5411 50.0402 18.1896C50.0402 15.4109 47.7796 13.1503 45.001 13.1503C42.4224 13.1503 40.2915 15.0973 39.9975 17.5981L35.1631 12.7636C34.3299 11.9304 33.1157 11.706 32.0764 12.0888L39.0306 5.13449C40.1723 3.99269 40.1723 2.13497 39.0306 0.993168C37.8888 -0.148634 36.031 -0.148634 34.8892 0.993168L30.0548 5.82766C29.7609 3.32687 27.6299 1.37989 25.0514 1.37989C22.4728 1.37989 20.3418 3.32687 20.0479 5.82766L15.2134 0.99307C14.0716 -0.148732 12.2138 -0.148732 11.072 0.99307C9.93031 2.13487 9.93031 3.99259 11.072 5.13439L18.0263 12.0886C16.9871 11.7058 15.7728 11.9303 14.9396 12.7634L10.1052 17.598C9.81127 15.0972 7.6803 13.1502 5.10178 13.1502C2.32306 13.1502 0.0625 15.4108 0.0625 18.1895C0.0625 19.5411 0.598244 20.769 1.46739 21.6749H1.03858C0.499513 21.6749 0.0625 22.1119 0.0625 22.651C0.0625 23.19 0.499513 23.627 1.03858 23.627H6.43255C6.69143 23.627 6.93977 23.5242 7.12278 23.3411L16.3201 14.1438C16.7007 13.7632 17.32 13.7632 17.7006 14.1438C18.0811 14.5244 18.0811 15.1437 17.7006 15.5243L9.63373 23.5911C9.45072 23.7741 9.34779 24.0225 9.34779 24.2813V32.6072H5.10168C4.56262 32.6072 4.1256 33.0443 4.1256 33.5832C4.1256 34.1222 4.56262 34.5593 5.10168 34.5593H9.34779V40.3834H6.07786V38.1183C6.07786 37.5793 5.64084 37.1422 5.10178 37.1422C4.56271 37.1422 4.1257 37.5793 4.1257 38.1183V40.3836H1.03858C0.499513 40.3836 0.0625 40.8207 0.0625 41.3596C0.0625 41.8986 0.499513 42.3357 1.03858 42.3357H4.1256V49.1605C4.1256 49.6995 4.56262 50.1366 5.10168 50.1366C5.64074 50.1366 6.07776 49.6995 6.07776 49.1605V42.3358H9.34769V49.1361C9.34769 49.6751 9.78471 50.1122 10.3238 50.1122C10.8628 50.1122 11.2998 49.6751 11.2998 49.1361V41.3597V41.3474V33.5834V32.4904L18.8528 40.0433V48.9408C18.8528 49.4798 19.2898 49.9169 19.8289 49.9169H30.2733C30.8123 49.9169 31.2493 49.4798 31.2493 48.9408V40.0433L38.8023 32.4903V33.5834V41.3474V41.3597V49.1361C38.8023 49.6751 39.2393 50.1122 39.7784 50.1122C40.3174 50.1122 40.7545 49.6751 40.7545 49.1361V42.3358H44.0244V49.1606C44.0244 49.6996 44.4614 50.1367 45.0005 50.1367C45.5395 50.1367 45.9766 49.6996 45.9766 49.1606V42.3358H49.0636C49.6026 42.3358 50.0397 41.8987 50.0397 41.3597C50.0397 40.8208 49.6026 40.3837 49.0636 40.3837H45.9766V38.1184C45.9766 37.5794 45.5395 37.1423 45.0005 37.1423C44.4614 37.1423 44.0244 37.5794 44.0244 38.1184V40.3837H40.7545V34.5596H49.0637C49.6027 34.5596 50.0397 34.1225 50.0397 33.5835C50.0397 33.0446 49.6027 32.6075 49.0637 32.6075H40.7545V24.2816C40.7545 24.0228 40.6515 23.7744 40.4685 23.5914L32.4017 15.5247C32.0211 15.1441 32.0211 14.5248 32.4017 14.1441C32.7826 13.7634 33.402 13.7634 33.7827 14.1439ZM45.0009 15.1024C46.7031 15.1024 48.0879 16.4873 48.0879 18.1894C48.0879 19.8917 46.703 21.2765 45.0009 21.2765C43.2987 21.2765 41.9138 19.8916 41.9138 18.1894C41.9138 16.4874 43.2986 15.1024 45.0009 15.1024ZM5.10178 21.2765C3.39962 21.2765 2.01475 19.8917 2.01475 18.1895C2.01475 16.4874 3.39952 15.1025 5.10178 15.1025C6.80403 15.1025 8.1888 16.4874 8.1888 18.1895C8.1888 19.8917 6.80393 21.2765 5.10178 21.2765ZM25.0513 3.33195C26.7535 3.33195 28.1383 4.71681 28.1383 6.41897C28.1383 8.12122 26.7534 9.50599 25.0513 9.50599C23.3491 9.50599 21.9642 8.12122 21.9642 6.41897C21.9642 4.71681 23.349 3.33195 25.0513 3.33195ZM12.4526 3.75412C12.072 3.37335 12.072 2.75401 12.4526 2.37354C12.8331 1.99298 13.4525 1.99298 13.8331 2.37354L23.0304 11.5708C23.2134 11.7539 23.4617 11.8568 23.7206 11.8568H26.3822C26.6411 11.8568 26.8895 11.7539 27.0725 11.5708L36.2698 2.37354C36.6502 1.99298 37.2697 1.99298 37.6502 2.37354C38.0308 2.75411 38.0308 3.37345 37.6502 3.75402L29.5834 11.8208C29.4004 12.0039 29.2975 12.2522 29.2975 12.5111V20.8369H20.8054V12.5111C20.8054 12.2522 20.7024 12.0039 20.5194 11.8208L12.4526 3.75412ZM37.6502 30.882L29.5833 38.9488C29.4003 39.1319 29.2974 39.3801 29.2974 39.639V47.9648H20.8053V39.639C20.8053 39.3801 20.7023 39.1319 20.5193 38.9488L12.4525 30.8821C12.0719 30.5015 12.0719 29.8821 12.4525 29.5015C12.833 29.1208 13.4524 29.1208 13.833 29.5015L23.0303 38.6988C23.2133 38.8818 23.4616 38.9847 23.7205 38.9847H26.3821C26.641 38.9847 26.8894 38.8819 27.0724 38.6988L36.2697 29.5015C36.6501 29.1208 37.2696 29.1209 37.6502 29.5014C38.0307 29.8821 38.0307 30.5015 37.6502 30.882ZM21.9642 33.547C21.9642 31.8448 23.3491 30.4599 25.0513 30.4599C26.7534 30.4599 28.1383 31.8448 28.1383 33.547C28.1384 35.2492 26.7535 36.634 25.0513 36.634C23.349 36.634 21.9642 35.2492 21.9642 33.547ZM38.8026 24.6858V27.9158C37.6536 26.9841 35.9579 27.0525 34.8892 28.1211L30.0548 32.9556C29.7609 30.4548 27.6299 28.5077 25.0514 28.5077C22.4728 28.5077 20.3418 30.4548 20.0479 32.9556L15.2135 28.1211C14.1449 27.0525 12.4491 26.9841 11.3001 27.9159V24.6858L18.8531 17.1329V21.813V27.8849C18.8531 28.4238 19.2901 28.861 19.8292 28.861C20.3682 28.861 20.8053 28.4238 20.8053 27.8849V22.7891H29.2974V27.8849C29.2974 28.4238 29.7344 28.861 30.2735 28.861C30.8125 28.861 31.2495 28.4238 31.2495 27.8849V21.813V17.1329L38.8026 24.6858Z" fill="white"/>
<path d="M2.80303 32.8935C2.62149 32.7119 2.36963 32.6074 2.11289 32.6074C1.85518 32.6074 1.6043 32.7117 1.42276 32.8935C1.24023 33.075 1.13672 33.3269 1.13672 33.5836C1.13672 33.8403 1.24023 34.0922 1.42276 34.2736C1.6043 34.4552 1.85616 34.5598 2.11289 34.5598C2.36963 34.5598 2.62149 34.4553 2.80303 34.2736C2.98458 34.0922 3.08907 33.8403 3.08907 33.5836C3.08907 33.3269 2.98458 33.075 2.80303 32.8935Z" fill="#BFBD9C"/>
</svg>
