<svg width="43" height="43" viewBox="0 0 43 43" fill="none" xmlns="http://www.w3.org/2000/svg">
<path d="M20.5874 3.42736C19.0413 3.42736 17.7874 4.68091 17.7874 6.22733V22.3273C17.8076 23.1537 17.6951 23.9779 17.4541 24.7684C17.3792 25.002 17.1882 25.1801 16.9494 25.2388C16.7251 25.2958 16.4874 25.2333 16.3195 25.0734C15.7728 24.5521 15.287 23.9702 14.8721 23.3389C13.6252 21.4685 10.4529 18.1274 8.57198 18.1274C7.49723 18.1049 6.50837 18.7125 6.04278 19.6815C5.71818 20.5473 5.97196 21.524 6.67692 22.1222C7.9545 23.3998 10.8307 28.1599 12.2413 31.6879C13.1702 34.0085 15.2079 36.2855 16.7543 37.787C17.4179 38.443 17.7903 39.3383 17.7874 40.2714V40.5274C17.7874 41.6874 18.7275 42.6275 19.8875 42.6275H31.0874C32.2474 42.6275 33.1875 41.6874 33.1875 40.5274V38.377C33.1808 38.1991 33.2484 38.0264 33.3743 37.9005C35.958 35.5379 35.9875 31.594 35.9875 31.4274V20.3457C36.0135 18.847 34.8839 17.5797 33.392 17.4346C32.8309 17.3984 32.272 17.531 31.7875 17.8159V16.7274C31.7875 15.1809 30.534 13.9274 28.9876 13.9274C28.4829 13.93 27.9881 14.0703 27.5575 14.3334C27.4681 13.3891 26.9009 12.5566 26.0553 12.1272C25.2093 11.6978 24.2025 11.7315 23.3876 12.2166V6.22733C23.3876 4.68091 22.1338 3.42736 20.5874 3.42736ZM24.7876 13.2276C25.5608 13.2276 26.1876 13.8543 26.1876 14.6276V20.9273C26.1876 21.3141 26.501 21.6275 26.8874 21.6275C27.2742 21.6275 27.5876 21.3141 27.5876 20.9273V16.7274C27.5876 15.9542 28.2144 15.3274 28.9876 15.3274C29.7608 15.3274 30.3876 15.9542 30.3876 16.7274V21.6275C30.3876 22.0139 30.7009 22.3273 31.0874 22.3273C31.4742 22.3273 31.7875 22.0139 31.7875 21.6275V20.2275C31.7866 19.8375 31.9481 19.4649 32.2336 19.1989C32.5188 18.9332 32.9023 18.7987 33.291 18.8275C34.0482 18.9268 34.608 19.5825 34.5875 20.3457V31.4274C34.5875 31.4616 34.5519 34.9275 32.4294 36.868C32.0138 37.259 31.7808 37.8063 31.7875 38.377V40.5274C31.7875 40.9142 31.4742 41.2276 31.0874 41.2276H19.8875C19.5008 41.2276 19.1874 40.9142 19.1874 40.5274V40.2714C19.1883 38.9592 18.6615 37.7018 17.7252 36.7825C16.5393 35.6312 14.4183 33.3698 13.5378 31.1672C12.1637 27.7337 9.19779 22.6692 7.66258 21.1324C7.32933 20.7995 7.21813 20.4912 7.33157 20.2169C7.58503 19.7766 8.06024 19.512 8.56781 19.5273C9.53873 19.5273 12.2778 21.9719 13.705 24.116C14.1796 24.8357 14.7346 25.4993 15.3591 26.0934C15.8744 26.5804 16.6024 26.7701 17.2897 26.5968C17.9902 26.4218 18.5526 25.9011 18.7807 25.2164C19.0707 24.2816 19.2082 23.3059 19.1874 22.3273V6.22733C19.1874 5.45412 19.8141 4.82735 20.5874 4.82735C21.3606 4.82735 21.9877 5.45412 21.9877 6.22733V20.9273C21.9877 21.3141 22.301 21.6275 22.6875 21.6275C23.0743 21.6275 23.3876 21.3141 23.3876 20.9273V14.6276C23.3876 13.8543 24.0144 13.2276 24.7876 13.2276Z" fill="#252525"/>
<path d="M32.4863 30.7275C32.8727 30.7275 33.1861 30.4141 33.1861 30.0274V25.8274C33.1861 25.441 32.8727 25.1276 32.4863 25.1276C32.0995 25.1276 31.7861 25.441 31.7861 25.8274V30.0274C31.7861 30.4141 32.0995 30.7275 32.4863 30.7275Z" fill="#252525"/>
<path d="M31.7862 34.9275C31.9717 34.9275 32.1499 34.8538 32.281 34.7224C32.8138 34.2296 33.1375 33.5515 33.1862 32.8273C33.1856 32.4496 32.8815 32.1423 32.5037 32.1374C32.1259 32.1416 31.8141 32.4345 31.7862 32.8113C31.7337 33.1667 31.5587 33.4926 31.2915 33.7326C31.0912 33.9328 31.0313 34.2337 31.1396 34.4952C31.2479 34.757 31.5033 34.9275 31.7862 34.9275Z" fill="#252525"/>
<path d="M21.9867 38.4276H21.2866C20.9002 38.4276 20.5864 38.741 20.5864 39.1274C20.5864 39.5142 20.9002 39.8276 21.2866 39.8276H21.9867C22.3732 39.8276 22.6866 39.5142 22.6866 39.1274C22.6866 38.741 22.3732 38.4276 21.9867 38.4276Z" fill="#252525"/>
<path d="M24.7875 39.8276H29.6873C30.074 39.8276 30.3874 39.5142 30.3874 39.1274C30.3874 38.741 30.074 38.4276 29.6873 38.4276H24.7875C24.4007 38.4276 24.0873 38.741 24.0873 39.1274C24.0873 39.5142 24.4007 39.8276 24.7875 39.8276Z" fill="#252525"/>
<path d="M13.5855 2.74454H12.1855C11.7991 2.74454 11.4857 3.05793 11.4857 3.44469C11.4857 3.83114 11.7991 4.14453 12.1855 4.14453H13.5855C13.9723 4.14453 14.2857 3.83114 14.2857 3.44469C14.2857 3.05793 13.9723 2.74454 13.5855 2.74454Z" fill="#252525"/>
<path d="M10.087 3.44469C10.087 3.05792 9.77361 2.74454 9.38684 2.74454H2.6766L3.58183 1.83963C3.76384 1.66371 3.8369 1.40351 3.77281 1.1587C3.70872 0.914208 3.51742 0.722907 3.27261 0.65882C3.02812 0.594733 2.7676 0.667792 2.592 0.8498L0.491868 2.94962C0.218857 3.22327 0.218857 3.66611 0.491868 3.93944L2.592 6.03958C2.86662 6.3049 3.30337 6.30105 3.57318 6.03092C3.8433 5.76112 3.84715 5.32436 3.58183 5.04975L2.6766 4.14452H9.38684C9.77361 4.14452 10.087 3.83113 10.087 3.44469Z" fill="#252525"/>
<path d="M39.8972 2.72754H33.187C32.8005 2.72754 32.4871 3.04092 32.4871 3.42737C32.4871 3.81413 32.8005 4.12752 33.187 4.12752H39.8972L38.992 5.03243C38.8103 5.20835 38.7372 5.46854 38.8013 5.71336C38.8654 5.95785 39.0564 6.14915 39.3012 6.21324C39.546 6.27732 39.8062 6.20426 39.9818 6.02226L42.0819 3.92244C42.3553 3.64879 42.3553 3.20595 42.0819 2.93262L39.9818 0.832481C39.7072 0.56716 39.2708 0.571005 39.0006 0.841133C38.7305 1.11094 38.727 1.54769 38.992 1.82231L39.8972 2.72754Z" fill="#252525"/>
<path d="M30.3872 4.12752C30.7737 4.12752 31.087 3.81413 31.087 3.42737C31.087 3.04092 30.7737 2.72753 30.3872 2.72753H28.9872C28.6005 2.72753 28.2871 3.04092 28.2871 3.42737C28.2871 3.81413 28.6005 4.12752 28.9872 4.12752H30.3872Z" fill="#252525"/>
</svg>
