<svg width="43" height="43" viewBox="0 0 43 43" fill="none" xmlns="http://www.w3.org/2000/svg">
<path d="M20.7788 3.60974C19.2327 3.60974 17.9788 4.86328 17.9788 6.4097V22.5097C17.999 23.3361 17.8865 24.1602 17.6455 24.9508C17.5706 25.1844 17.3796 25.3625 17.1409 25.4212C16.9165 25.4782 16.6788 25.4157 16.5109 25.2558C15.9642 24.7345 15.4784 24.1525 15.0635 23.5213C13.8167 21.6509 10.6443 18.3097 8.76338 18.3097C7.68864 18.2873 6.69978 18.8948 6.23418 19.8638C5.90958 20.7297 6.16337 21.7063 6.86833 22.3046C8.1459 23.5822 11.0221 28.3422 12.4327 31.8702C13.3616 34.1908 15.3993 36.4679 16.9457 37.9694C17.6093 38.6254 17.9817 39.5206 17.9788 40.4538V40.7098C17.9788 41.8698 18.919 42.8099 20.0789 42.8099H31.2788C32.4388 42.8099 33.3789 41.8698 33.3789 40.7098V38.5593C33.3722 38.3815 33.4398 38.2088 33.5657 38.0829C36.1494 35.7203 36.1789 31.7764 36.1789 31.6097V20.5281C36.2049 19.0294 35.0753 17.7621 33.5834 17.6169C33.0223 17.5807 32.4634 17.7134 31.979 17.9983V16.9097C31.979 15.3633 30.7254 14.1098 29.179 14.1098C28.6743 14.1123 28.1795 14.2527 27.7489 14.5158C27.6595 13.5714 27.0923 12.7389 26.2467 12.3096C25.4007 11.8802 24.3939 11.9138 23.579 12.399V6.4097C23.579 4.86328 22.3252 3.60974 20.7788 3.60974ZM24.979 13.4099C25.7522 13.4099 26.379 14.0367 26.379 14.8099V21.1097C26.379 21.4965 26.6924 21.8098 27.0788 21.8098C27.4656 21.8098 27.779 21.4965 27.779 21.1097V16.9097C27.779 16.1365 28.4058 15.5098 29.179 15.5098C29.9522 15.5098 30.579 16.1365 30.579 16.9097V21.8098C30.579 22.1963 30.8924 22.5097 31.2788 22.5097C31.6656 22.5097 31.979 22.1963 31.979 21.8098V20.4099C31.978 20.0199 32.1395 19.6472 32.425 19.3813C32.7102 19.1156 33.0937 18.981 33.4824 19.0099C34.2396 19.1092 34.7994 19.7648 34.7789 20.5281V31.6097C34.7789 31.644 34.7433 35.1098 32.6208 37.0504C32.2052 37.4413 31.9722 37.9886 31.979 38.5593V40.7098C31.979 41.0965 31.6656 41.4099 31.2788 41.4099H20.0789C19.6922 41.4099 19.3788 41.0965 19.3788 40.7098V40.4538C19.3797 39.1416 18.8529 37.8842 17.9166 36.9649C16.7307 35.8135 14.6097 33.5522 13.7292 31.3495C12.3551 27.9161 9.38919 22.8516 7.85399 21.3148C7.52073 20.9818 7.40954 20.6736 7.52297 20.3993C7.77644 19.959 8.25165 19.6943 8.75922 19.7097C9.73014 19.7097 12.4692 22.1543 13.8964 24.2983C14.371 25.018 14.926 25.6817 15.5505 26.2758C16.0658 26.7628 16.7938 26.9525 17.4812 26.7792C18.1816 26.6042 18.744 26.0835 18.9721 25.3987C19.2621 24.464 19.3996 23.4883 19.3788 22.5097V6.4097C19.3788 5.63649 20.0055 5.00972 20.7788 5.00972C21.552 5.00972 22.1791 5.63649 22.1791 6.4097V21.1097C22.1791 21.4965 22.4924 21.8098 22.8789 21.8098C23.2657 21.8098 23.579 21.4965 23.579 21.1097V14.8099C23.579 14.0367 24.2058 13.4099 24.979 13.4099Z" fill="white"/>
<path d="M32.6777 30.9099C33.0641 30.9099 33.3775 30.5965 33.3775 30.2097V26.0098C33.3775 25.6234 33.0641 25.31 32.6777 25.31C32.2909 25.31 31.9775 25.6234 31.9775 26.0098V30.2097C31.9775 30.5965 32.2909 30.9099 32.6777 30.9099Z" fill="white"/>
<path d="M31.9776 35.1099C32.1631 35.1099 32.3413 35.0362 32.4724 34.9048C33.0052 34.4119 33.3289 33.7339 33.3776 33.0097C33.377 32.6319 33.0729 32.3246 32.6951 32.3198C32.3173 32.324 32.0055 32.6169 31.9776 32.9937C31.9251 33.3491 31.7501 33.6749 31.4829 33.915C31.2826 34.1152 31.2227 34.4161 31.331 34.6776C31.4393 34.9394 31.6947 35.1099 31.9776 35.1099Z" fill="white"/>
<path d="M22.1781 38.6099H21.478C21.0916 38.6099 20.7779 38.9233 20.7779 39.3098C20.7779 39.6966 21.0916 40.0099 21.478 40.0099H22.1781C22.5646 40.0099 22.878 39.6966 22.878 39.3098C22.878 38.9233 22.5646 38.6099 22.1781 38.6099Z" fill="white"/>
<path d="M24.9789 40.0099H29.8787C30.2654 40.0099 30.5788 39.6966 30.5788 39.3098C30.5788 38.9233 30.2654 38.6099 29.8787 38.6099H24.9789C24.5921 38.6099 24.2787 38.9233 24.2787 39.3098C24.2787 39.6966 24.5921 40.0099 24.9789 40.0099Z" fill="white"/>
<path d="M13.7769 2.92691H12.3769C11.9905 2.92691 11.6771 3.2403 11.6771 3.62707C11.6771 4.01351 11.9905 4.3269 12.3769 4.3269H13.7769C14.1637 4.3269 14.4771 4.01351 14.4771 3.62707C14.4771 3.2403 14.1637 2.92691 13.7769 2.92691Z" fill="white"/>
<path d="M10.2784 3.62706C10.2784 3.2403 9.96501 2.92691 9.57825 2.92691H2.868L3.77324 2.022C3.95524 1.84608 4.0283 1.58589 3.96422 1.34107C3.90013 1.09658 3.70883 0.90528 3.46402 0.841193C3.21952 0.777106 2.95901 0.850165 2.78341 1.03217L0.683274 3.13199C0.410263 3.40564 0.410263 3.84848 0.683274 4.12181L2.78341 6.22195C3.05802 6.48727 3.49478 6.48342 3.76458 6.2133C4.03471 5.94349 4.03856 5.50674 3.77324 5.23212L2.868 4.32689H9.57825C9.96501 4.32689 10.2784 4.01351 10.2784 3.62706Z" fill="white"/>
<path d="M40.0886 2.90991H33.3784C32.9919 2.90991 32.6785 3.2233 32.6785 3.60974C32.6785 3.99651 32.9919 4.30989 33.3784 4.30989H40.0886L39.1834 5.2148C39.0017 5.39072 38.9286 5.65092 38.9927 5.89573C39.0568 6.14022 39.2478 6.33152 39.4926 6.39561C39.7374 6.4597 39.9976 6.38664 40.1732 6.20463L42.2734 4.10482C42.5467 3.83116 42.5467 3.38832 42.2734 3.11499L40.1732 1.01485C39.8986 0.749533 39.4622 0.753378 39.192 1.02351C38.9219 1.29331 38.9184 1.73007 39.1834 2.00468L40.0886 2.90991Z" fill="white"/>
<path d="M30.5786 4.30989C30.9651 4.30989 31.2785 3.9965 31.2785 3.60974C31.2785 3.22329 30.9651 2.90991 30.5786 2.90991H29.1786C28.7919 2.90991 28.4785 3.22329 28.4785 3.60974C28.4785 3.9965 28.7919 4.30989 29.1786 4.30989H30.5786Z" fill="white"/>
</svg>
