<svg width="21" height="13" viewBox="0 0 21 13" fill="none" xmlns="http://www.w3.org/2000/svg">
<path d="M10.1882 0.756348C6.43538 0.756348 3.03213 2.80955 0.520876 6.14449C0.315958 6.41771 0.315958 6.79942 0.520876 7.07265C3.03213 10.4116 6.43538 12.4648 10.1882 12.4648C13.941 12.4648 17.3443 10.4116 19.8555 7.07667C20.0604 6.80344 20.0604 6.42173 19.8555 6.14851C17.3443 2.80955 13.941 0.756348 10.1882 0.756348ZM10.4574 10.733C7.96624 10.8898 5.90902 8.83655 6.06572 6.34137C6.1943 4.28415 7.86177 2.61668 9.91899 2.48811C12.4101 2.3314 14.4674 4.3846 14.3107 6.87978C14.1781 8.93298 12.5106 10.6005 10.4574 10.733ZM10.3328 8.82852C8.99083 8.91289 7.88186 7.80794 7.97025 6.46593C8.03856 5.35696 8.93859 4.46095 10.0476 4.38862C11.3896 4.30424 12.4985 5.4092 12.4101 6.75121C12.3378 7.8642 11.4378 8.76021 10.3328 8.82852Z" fill="#BDBDBD"/>
</svg>
