<svg width="101" height="52" viewBox="0 0 101 52" fill="none" xmlns="http://www.w3.org/2000/svg">
<path fill-rule="evenodd" clip-rule="evenodd" d="M62.374 10.0194C60.3634 10.3371 59.3941 8.93263 59.2162 7.45227C58.5224 7.3438 57.8247 7.26183 57.1246 7.20654C57.0917 9.06449 58.3608 11.0892 61.4157 10.6328C62.5489 10.4629 63.0935 10.0814 63.3413 9.6878C63.1105 9.83264 62.8017 9.95351 62.375 10.0194" fill="#FEFEFE"/>
<path fill-rule="evenodd" clip-rule="evenodd" d="M52.7824 43.2856L54.6321 33.7192H63.6098L62.2078 35.8688H57.0514L55.9162 41.7303C55.8317 42.168 55.5973 42.5627 55.2534 42.8465C54.9095 43.1303 54.4775 43.2855 54.0315 43.2856H52.7824ZM5.41836 39.7815L7.75074 36.0286H8.07151L9.01585 39.7815H5.41836ZM10.274 33.7192H4.25417C4.23419 33.7721 4.2142 33.8271 4.19721 33.879C4.80379 34.1087 5.68118 34.5852 5.2245 35.3384L0.0371094 43.2856H2.17262C2.83616 43.2856 3.45173 42.943 3.80349 42.3786L4.2062 41.7313H9.50651L9.89824 43.2856H12.8872L10.274 33.7192ZM31.0875 39.7815L33.4209 36.0286H33.7416L34.686 39.7815H31.0885H31.0875ZM35.9441 33.7192H29.9513C29.9313 33.7721 29.9123 33.8271 29.8943 33.879C30.4569 34.0918 31.2484 34.5173 31.0005 35.1766L25.7072 43.2856H27.8417C28.1682 43.2858 28.4894 43.2026 28.7748 43.0441C29.0602 42.8856 29.3003 42.6568 29.4726 42.3796L29.8763 41.7303H35.1766L35.5684 43.2856H38.5563L35.9441 33.7192ZM66.0111 39.7815L68.3445 36.0286H68.6643L69.6096 39.7815H66.0122H66.0111ZM70.8668 33.7192H64.853C64.833 33.7721 64.813 33.8271 64.796 33.879C65.3916 34.1038 66.244 34.5682 65.8453 35.2964L60.6299 43.2856H62.7654C63.429 43.2856 64.0455 42.943 64.3963 42.3786L64.799 41.7313H70.1003L70.491 43.2856H73.4809L70.8668 33.7192Z" fill="white"/>
<path fill-rule="evenodd" clip-rule="evenodd" d="M95.2705 41.3358H90.248L92.5394 35.669H96.3657L95.2705 41.3358ZM98.1035 41.3358L99.5775 33.7192H88.6281C88.6081 33.7711 88.5881 33.8271 88.5712 33.879C89.1627 34.1018 89.8693 34.5083 89.6164 35.2805L87.1681 41.3358H85.3934L84.7148 44.8409H85.964C86.4099 44.8411 86.8419 44.686 87.1858 44.4024C87.5298 44.1187 87.7641 43.7242 87.8487 43.2866H96.8274L96.5276 44.8409H99.3606L100.038 41.3368H98.1035V41.3358Z" fill="white"/>
<path fill-rule="evenodd" clip-rule="evenodd" d="M22.6884 37.1774C22.4485 37.454 22.1108 37.5949 21.6831 37.5949H17.8727L18.2565 35.6311H21.9979C22.6554 35.6311 22.9892 35.8908 22.9892 36.4032C22.9892 36.6819 22.8822 36.9566 22.6894 37.1774H22.6884ZM22.3046 40.9182C22.0288 41.2399 21.6491 41.3957 21.1455 41.3957H17.1382L17.565 39.2091H21.5012C21.771 39.2091 22.5904 39.2091 22.5904 40.0402C22.5904 40.4078 22.4975 40.6955 22.3046 40.9192V40.9182ZM24.5041 38.2172L24.3222 38.1653L24.3562 38.0314L24.5321 37.9885C24.9758 37.8786 25.3535 37.5929 25.5474 37.3771C25.9531 36.9286 26.1899 36.4262 26.1899 35.684C26.1899 34.0598 24.648 33.7202 23.3539 33.7202H14.5051L14.4481 33.88C15.0537 34.1067 15.6373 34.4773 15.4774 35.3304L13.9385 43.2856H21.8869C23.298 43.2856 24.3053 42.93 24.9668 42.1968C25.4585 41.6574 25.7073 40.9282 25.7073 40.0292C25.7073 39.1322 25.3026 38.4589 24.5041 38.2172ZM49.7535 33.7192L49.05 37.3252H43.6008L44.3053 33.7192H40.1832L40.1262 33.879C40.7338 34.1087 41.3194 34.4793 41.1545 35.3384L39.6096 43.2856H40.8637C41.7831 43.2856 42.5725 42.6363 42.7484 41.7353L43.1881 39.4838L48.6373 39.4698L47.8938 43.2856H50.7288L52.5896 33.7192H49.7545H49.7535ZM83.2332 37.6109C83.0383 37.8746 82.6566 38.1892 81.9411 38.1892H78.3526L78.8203 35.8049H82.3398C83.1283 35.8049 83.529 36.1045 83.529 36.6979C83.529 36.8927 83.489 37.2692 83.2332 37.6109ZM83.486 33.7202H75.0979C75.0779 33.7721 75.0579 33.8281 75.0409 33.88C75.6475 34.1077 76.2341 34.4793 76.0682 35.3384L74.5323 43.2856H75.7814C76.7017 43.2856 77.4922 42.6323 77.6671 41.7293L77.9818 40.0891H82.3808C83.9957 40.0891 85.1369 39.6696 85.8724 38.8105C86.44 38.1413 86.7278 37.2373 86.7278 36.1235C86.7278 34.4833 85.6985 33.7202 83.486 33.7202ZM28.1326 49.4258L28.936 48.4669H29.8324L28.5133 49.9852L29.3857 51.6603L28.5103 51.6583L27.9447 50.5246L26.9954 51.6583H26.111L27.576 49.9782L26.7985 48.4639L27.6719 48.4659L28.1326 49.4258ZM30.7118 50.2219C30.7118 50.3468 30.7318 50.4617 30.7727 50.5685C30.8115 50.6705 30.8703 50.7637 30.9456 50.8426C31.0209 50.9216 31.1113 50.9846 31.2114 51.028C31.3182 51.0721 31.4327 51.0942 31.5482 51.093C31.862 51.0884 32.1621 50.9636 32.3866 50.7443C32.5378 50.5992 32.649 50.4175 32.7094 50.2169C32.74 50.1132 32.7552 50.0055 32.7544 49.8973C32.7544 49.7724 32.7344 49.6575 32.6924 49.5497C32.6552 49.4472 32.5971 49.3536 32.5217 49.2749C32.4464 49.1961 32.3554 49.1339 32.2547 49.0922C32.147 49.0478 32.0314 49.0257 31.9149 49.0272C31.7591 49.0272 31.6092 49.0572 31.4653 49.1191C31.3231 49.1798 31.1931 49.2658 31.0815 49.3729C30.9687 49.4813 30.8775 49.6101 30.8127 49.7524C30.7452 49.8997 30.7111 50.06 30.7128 50.2219H30.7118ZM29.9633 50.2878C29.9633 50.115 29.9893 49.9482 30.0413 49.7884C30.0935 49.6279 30.1674 49.4753 30.2611 49.3349C30.557 48.9032 30.9976 48.5914 31.5032 48.4559C31.6731 48.4089 31.848 48.386 32.0269 48.386C32.2427 48.386 32.4416 48.4239 32.6225 48.4978C32.8023 48.5727 32.9582 48.6736 33.0891 48.8035C33.219 48.9314 33.322 49.0832 33.3949 49.26C33.4669 49.4348 33.5048 49.6236 33.5048 49.8254C33.5048 49.9972 33.4769 50.164 33.4239 50.3248C33.3713 50.4855 33.2973 50.6383 33.2041 50.7793C33.109 50.9222 32.9961 51.0524 32.8683 51.1669C32.6085 51.4011 32.2968 51.5706 31.9589 51.6613C31.789 51.7083 31.6142 51.7313 31.4373 51.7313C31.2214 51.7313 31.0226 51.6943 30.8427 51.6194C30.6682 51.5493 30.5096 51.445 30.376 51.3127C30.2455 51.1814 30.1422 51.0256 30.0722 50.8542C29.9985 50.6745 29.9612 50.482 29.9623 50.2878H29.9633ZM34.9798 50.0641L36.4968 48.4659H37.3602L35.9891 49.8883L36.8465 51.6583H35.9681L35.4095 50.4357L34.8039 51.062L34.698 51.6583H33.9535L34.5171 48.4659H35.2616L34.9798 50.0641ZM38.4844 50.0641L40.0013 48.4659H40.8657L39.4937 49.8883L40.3511 51.6583H39.4727L38.9141 50.4357L38.3085 51.062L38.2026 51.6583H37.4581L38.0217 48.4659H38.7662L38.4844 50.0641ZM41.5263 48.4659H43.7747L43.6628 49.1072H42.1578L42.0409 49.7594H43.331L43.2211 50.3987H41.928L41.8181 51.02H43.347L43.2341 51.6583H40.9636L41.5263 48.4659ZM47.0314 47.3911C47.0075 47.4889 46.9687 47.5826 46.9165 47.6687C46.8122 47.8435 46.6471 47.9736 46.4528 48.0343C46.3425 48.0699 46.227 48.0871 46.1111 48.0853C46.0013 48.0881 45.8919 48.0709 45.7883 48.0343C45.7062 48.0068 45.6324 47.9588 45.574 47.8948C45.5156 47.8308 45.4745 47.753 45.4545 47.6687C45.4313 47.5781 45.4246 47.4841 45.4345 47.3911L45.9332 47.3581C45.9401 47.391 45.9494 47.4234 45.9612 47.455C45.9709 47.4819 45.9866 47.5062 46.007 47.5263C46.0274 47.5463 46.052 47.5616 46.0791 47.5709C46.1101 47.5808 46.149 47.5858 46.199 47.5858C46.2405 47.5867 46.2819 47.5816 46.3219 47.5709C46.3866 47.5521 46.4425 47.5111 46.4798 47.455C46.4998 47.426 46.5218 47.394 46.5428 47.3581L47.0324 47.3911H47.0314ZM44.5901 48.4659H45.3296L44.9918 50.3738L46.8525 48.4659H47.5021L46.9375 51.6583H46.194L46.5318 49.7455L44.6691 51.6583H44.0265L44.5901 48.4659ZM48.4454 48.4659H49.1889L48.9591 49.7594H50.3511L50.5809 48.4659H51.3284L50.7648 51.6583H50.0173L50.2392 50.3977H48.8462L48.6253 51.6583H47.8818L48.4454 48.4659ZM54.5232 51.6583H55.2677L55.8313 48.4659H55.0868L54.5232 51.6583ZM53.328 50.0831H52.7255L52.5576 51.02H53.1631C53.2316 51.0198 53.2992 51.0045 53.361 50.9751C53.4896 50.915 53.5925 50.8108 53.6508 50.6814C53.7015 50.5669 53.7075 50.4376 53.6678 50.3188C53.6508 50.273 53.625 50.2309 53.5919 50.195C53.5601 50.159 53.5204 50.131 53.4759 50.113C53.4292 50.0929 53.3789 50.0827 53.328 50.0831ZM53.4829 49.4448C53.6298 49.4448 53.7627 49.4678 53.8826 49.5137C53.9955 49.5537 54.0984 49.6175 54.1845 49.7007C54.2705 49.784 54.3376 49.8847 54.3813 49.9962C54.4263 50.109 54.4483 50.2349 54.4483 50.3718C54.4483 50.5536 54.4113 50.7234 54.3403 50.8802C54.2704 51.0345 54.1706 51.1734 54.0465 51.2887C53.7822 51.528 53.4378 51.6599 53.0812 51.6583H51.7022L52.2668 48.4659H53.0113L52.8374 49.4448H53.4829ZM59.2589 47.3911C59.235 47.4889 59.1962 47.5826 59.144 47.6687C59.0404 47.8441 58.875 47.9745 58.6803 48.0343C58.5703 48.0698 58.4551 48.087 58.3395 48.0853C58.2294 48.0882 58.1197 48.071 58.0158 48.0343C57.9338 48.0064 57.8601 47.9582 57.8016 47.8943C57.7431 47.8304 57.7017 47.7529 57.681 47.6687C57.659 47.5779 57.6529 47.484 57.663 47.3911L58.1607 47.3581C58.1673 47.3911 58.1767 47.4235 58.1886 47.455C58.1984 47.4819 58.2141 47.5062 58.2345 47.5263C58.2549 47.5463 58.2795 47.5616 58.3066 47.5709C58.3385 47.5808 58.3775 47.5858 58.4265 47.5858C58.468 47.5867 58.5093 47.5816 58.5494 47.5709C58.5815 47.5614 58.6117 47.5461 58.6383 47.5259C58.6651 47.5059 58.6887 47.482 58.7083 47.455C58.7283 47.426 58.7493 47.394 58.7712 47.3581L59.2589 47.3911ZM56.8176 48.4659H57.5571L57.2193 50.3738L59.081 48.4659H59.7286L59.165 51.6583H58.4215L58.7593 49.7455L56.8965 51.6583H56.254L56.8176 48.4659ZM62.4617 50.0641L63.9786 48.4659H64.842L63.471 49.8883L64.3284 51.6583H63.45L62.8914 50.4357L62.2848 51.062L62.1799 51.6583H61.4354L61.999 48.4659H62.7435L62.4617 50.0641ZM67.766 49.1072H66.4709L66.264 50.2878L66.253 50.3558L66.1631 50.8502C66.1406 50.9954 66.0878 51.1343 66.0082 51.2578C65.8674 51.4688 65.6541 51.6209 65.4086 51.6853C65.2411 51.7308 65.0664 51.744 64.894 51.7243C64.8512 51.7189 64.8088 51.7109 64.7671 51.7003L65.0009 51.083L65.0289 51.085L65.0719 51.09C65.0968 51.0922 65.1218 51.0938 65.1468 51.095C65.1803 51.0961 65.2136 51.0905 65.2448 51.0784C65.2761 51.0664 65.3046 51.0483 65.3287 51.025C65.3823 50.9663 65.4162 50.8922 65.4256 50.8133L65.5205 50.2849L65.8423 48.4659H68.6204L68.0558 51.6583H67.3163L67.767 49.1072H67.766Z" fill="white"/>
<path fill-rule="evenodd" clip-rule="evenodd" d="M69.312 51.0902L69.337 51.0922C69.3513 51.0939 69.3656 51.0952 69.38 51.0962L69.4259 51.0992H69.4559C69.5002 51.0996 69.5441 51.0921 69.5858 51.0772C69.6285 51.0613 69.6644 51.0314 69.6877 50.9923L69.9226 50.6447L69.2391 48.4681H70.0565L70.4622 49.8596L71.3646 48.4671H72.181L70.3283 51.255C70.2181 51.4141 70.0678 51.5413 69.8926 51.6236C69.7283 51.701 69.5486 51.7402 69.367 51.7385C69.2691 51.7382 69.1716 51.7271 69.0762 51.7055L69.313 51.0902H69.312Z" fill="white"/>
<path fill-rule="evenodd" clip-rule="evenodd" d="M75.6085 14.9589C75.4646 12.8842 73.9586 10.7865 70.7498 8.2034V8.2024C70.9007 7.85678 70.9777 6.43835 69.3788 5.58729C65.3516 3.45165 56.7076 1.20214 50.2122 0.858521C50.2761 1.03333 50.428 1.52079 50.5359 1.88439C42.7963 1.52478 34.9038 1.91235 29.0599 2.48572C27.1032 2.67851 21.0215 3.51958 21.0215 3.51958L34.7629 9.41006C33.2969 9.7417 31.808 10.0993 30.31 10.4889C28.7811 10.8884 24.2522 12.4337 24.2522 12.4337L29.7454 13.6344C32.4805 14.2297 40.1931 15.8819 43.4858 16.6431C43.0501 17.9916 40.2151 27.3342 40.2151 27.3342C40.2151 27.3342 43.8866 23.4425 45.0268 22.3557C46.4758 20.9723 46.9554 20.5038 47.3901 20.1452C47.2232 22.135 46.8535 26.4053 46.7586 27.4571C46.6826 28.2982 46.8465 29.1702 47.3322 29.6796C47.7958 30.1651 48.6043 30.3968 49.3168 30.3189C49.8984 30.254 50.6179 29.8495 51.1455 29.4139C53.358 27.582 58.9001 22.6284 63.5868 18.0715C63.8507 18.0315 64.1135 17.9946 64.3783 17.9666C67.596 17.61 70.7109 18.1234 71.2435 19.7356C71.5913 20.7945 71.2335 21.4467 70.9087 22.4606C71.4604 21.9332 72.8854 20.6187 73.442 19.9194C74.3483 18.7827 75.7514 17.0176 75.6085 14.9589Z" fill="black"/>
<path fill-rule="evenodd" clip-rule="evenodd" d="M50.4792 6.73604L50.5422 6.72905C50.3523 6.35945 50.1924 5.97788 50.0485 5.70018C52.6847 5.38253 58.7884 5.70018 61.2247 7.26345C63.661 8.82672 65.8745 9.36313 67.5403 8.98954C67.3924 9.41907 66.7949 9.9295 66.7949 9.9295C66.1736 10.0652 65.5326 10.0849 64.9042 9.98744C64.2147 11.1292 62.5208 10.9883 59.8477 12.3408C56.9917 13.7842 52.7366 16.1746 49.0632 18.8257C48.9553 20.1542 48.7244 22.7333 48.6935 23.1359L53.9918 21.203L52.9225 20.291L57.4454 19.2492C58.1779 18.0605 63.783 12.6135 64.6703 11.9523C65.0321 11.8793 65.3329 11.8184 65.5717 11.7994C66.7369 10.7606 68.041 9.78467 69.439 9.05647C69.463 8.97656 69.485 8.89864 69.497 8.82573C69.5769 8.33826 69.5419 7.63105 68.9054 7.29542C58.1249 1.63768 38.1858 3.46466 27.4473 4.33869L37.5742 8.80375C42.4208 7.80685 46.9017 7.1316 50.4792 6.73604Z" fill="#BFBD9C"/>
<path fill-rule="evenodd" clip-rule="evenodd" d="M52.9224 20.2911L53.9926 21.2031L48.6923 23.1359C48.6923 23.1359 48.4085 26.5821 48.3336 27.3932C48.2336 28.495 49.165 28.8347 50.0484 28.1045C52.017 26.4733 56.5988 22.4747 60.8708 18.4611L52.9224 20.2911Z" fill="#6F7757"/>
<path fill-rule="evenodd" clip-rule="evenodd" d="M62.3759 10.6357C60.3653 10.9573 59.396 9.53587 59.2181 8.03553C58.4956 7.91566 57.7761 7.84574 57.1276 7.7868C57.0946 9.66872 58.3627 11.7185 61.4166 11.256C62.5498 11.0862 63.0934 10.6986 63.3422 10.3C63.1114 10.4469 62.8026 10.5687 62.3759 10.6357Z" fill="#FEFEFE"/>
<path fill-rule="evenodd" clip-rule="evenodd" d="M67.3939 11.9592C67.3939 11.9592 67.5968 11.4018 68.4182 11.0222C69.6493 11.5676 70.207 12.3168 70.207 12.3168L67.3939 11.9592ZM69.4385 9.0564C65.2354 11.244 61.8538 15.6771 60.6836 17.2903C64.1522 16.1605 71.3172 15.5452 72.4754 19.0703C74.376 16.5811 76.2927 14.4175 69.4375 9.0564H69.4385Z" fill="#F2F2D9"/>
<path fill-rule="evenodd" clip-rule="evenodd" d="M44.4523 11.8324L53.2312 10.8515L48.4885 14.3596L48.5905 12.9282L44.4523 11.8324ZM57.7631 11.7425C56.3231 10.9304 55.8624 9.34315 56.0193 7.85779H56.0163C53.7159 8.03459 41.3415 9.01651 30.1543 12.0032C33.7668 12.6355 45.4986 15.3835 45.4986 15.3835C45.4986 15.3835 44.2145 19.2132 43.553 21.6505C47.834 17.8687 50.664 15.6422 57.7631 11.7425Z" fill="#FF0000"/>
</svg>
