<svg width="15" height="41" viewBox="0 0 15 41" fill="none" xmlns="http://www.w3.org/2000/svg">
<path d="M13.4521 20.2629L14.7128 21.0757C15.0319 20.5808 15.0319 19.9449 14.7128 19.45L13.4521 20.2629ZM0.398087 37.7411C-0.0508305 38.4373 0.149674 39.3657 0.845925 39.8146C1.54218 40.2635 2.47052 40.063 2.91943 39.3667L0.398087 37.7411ZM2.91944 1.15897C2.47052 0.462715 1.54218 0.262211 0.845926 0.711127C0.149675 1.16004 -0.0508289 2.08839 0.398088 2.78464L2.91944 1.15897ZM12.1915 19.45L0.398087 37.7411L2.91943 39.3667L14.7128 21.0757L12.1915 19.45ZM0.398088 2.78464L12.1915 21.0757L14.7128 19.45L2.91944 1.15897L0.398088 2.78464Z" fill="#BFBD9C"/>
</svg>
