<svg width="13" height="16" viewBox="0 0 13 16" fill="none" xmlns="http://www.w3.org/2000/svg">
<path d="M6.2666 14.0949V15.6141L5.89925 15.3173C5.84248 15.2715 4.49197 14.175 3.12245 12.6027C1.23326 10.4337 0.275391 8.48671 0.275391 6.81599V6.65039C0.275391 3.34682 2.96304 0.65918 6.2666 0.65918V1.82819C3.60768 1.82819 1.4444 3.99147 1.4444 6.65039V6.81599C1.4444 9.63924 5.08202 13.057 6.2666 14.0949Z" fill="white"/>
<path d="M6.2666 14.0949V15.6141L6.63371 15.3173C6.69048 15.2715 8.04099 14.175 9.41051 12.6027C11.2997 10.4337 12.2576 8.48671 12.2576 6.81599V6.65039C12.2576 3.34682 9.57017 0.65918 6.2666 0.65918V1.82819C8.92552 1.82819 11.0886 3.99147 11.0886 6.65039V6.81599C11.0886 9.63924 7.45118 13.057 6.2666 14.0949Z" fill="white"/>
<path d="M6.26778 4.16602C4.89804 4.16602 3.78362 5.28044 3.78362 6.65018C3.78362 8.01993 4.89804 9.13435 6.26778 9.13435C7.63753 9.13435 8.75195 8.01993 8.75195 6.65018C8.75195 5.28044 7.63753 4.16602 6.26778 4.16602ZM6.26778 5.33503C6.993 5.33503 7.58294 5.92497 7.58294 6.65018C7.58294 7.37528 6.993 7.96534 6.26778 7.96534C5.54269 7.96534 4.95263 7.37528 4.95263 6.65018C4.95263 5.92497 5.54269 5.33503 6.26778 5.33503Z" fill="#BFBD9C"/>
</svg>
