<svg width="16" height="41" viewBox="0 0 16 41" fill="none" xmlns="http://www.w3.org/2000/svg">
<path d="M2.02637 20.4645L0.765694 21.2774C0.446593 20.7824 0.446593 20.1466 0.765694 19.6517L2.02637 20.4645ZM15.0804 37.9427C15.5293 38.639 15.3288 39.5673 14.6326 40.0162C13.9363 40.4652 13.008 40.2647 12.5591 39.5684L15.0804 37.9427ZM12.5591 1.36063C13.008 0.664375 13.9363 0.463871 14.6326 0.912787C15.3288 1.3617 15.5293 2.29005 15.0804 2.9863L12.5591 1.36063ZM3.28704 19.6517L15.0804 37.9427L12.5591 39.5684L0.765694 21.2774L3.28704 19.6517ZM15.0804 2.9863L3.28704 21.2774L0.765694 19.6517L12.5591 1.36063L15.0804 2.9863Z" fill="#BFBD9C"/>
</svg>
