<svg width="51" height="51" viewBox="0 0 51 51" fill="none" xmlns="http://www.w3.org/2000/svg">
<circle cx="25.3379" cy="25.3923" r="24.5" fill="white" stroke="#BFBD9C"/>
<mask id="path-2-inside-1" fill="white">
<path d="M21.7064 34.0283C20.494 34.0283 19.5077 35.0146 19.5077 36.227C19.5077 37.4393 20.494 38.4257 21.7064 38.4257C22.9187 38.4257 23.9051 37.4393 23.9051 36.227C23.905 35.0146 22.9187 34.0283 21.7064 34.0283ZM21.7064 37.1979C21.1709 37.1979 20.7353 36.7623 20.7353 36.2269C20.7353 35.6914 21.171 35.2558 21.7064 35.2558C22.2418 35.2558 22.6774 35.6915 22.6774 36.2269C22.6774 36.7624 22.2418 37.1979 21.7064 37.1979Z"/>
<path d="M29.4185 34.0283C28.2061 34.0283 27.2198 35.0146 27.2198 36.227C27.2198 37.4393 28.2061 38.4257 29.4185 38.4257C30.6308 38.4257 31.6172 37.4393 31.6172 36.227C31.6171 35.0146 30.6308 34.0283 29.4185 34.0283ZM29.4185 37.1979C28.883 37.1979 28.4474 36.7623 28.4474 36.2269C28.4474 35.6914 28.8831 35.2558 29.4185 35.2558C29.9539 35.2558 30.3895 35.6915 30.3895 36.2269C30.3895 36.7624 29.9539 37.1979 29.4185 37.1979Z"/>
<path d="M29.9598 22.4525H21.1635C20.8245 22.4525 20.5497 22.7273 20.5497 23.0663C20.5497 23.4053 20.8245 23.6801 21.1635 23.6801H29.9598C30.2989 23.6801 30.5737 23.4053 30.5737 23.0663C30.5737 22.7272 30.2989 22.4525 29.9598 22.4525Z"/>
<path d="M29.481 25.64H21.6423C21.3032 25.64 21.0284 25.9148 21.0284 26.2538C21.0284 26.5928 21.3032 26.8676 21.6423 26.8676H29.481C29.82 26.8676 30.0948 26.5928 30.0948 26.2538C30.0948 25.9148 29.82 25.64 29.481 25.64Z"/>
<path d="M35.9474 19.7175C35.7133 19.4302 35.3664 19.2655 34.9957 19.2655H15.8759L15.4898 17.391C15.4092 17 15.1425 16.6717 14.7762 16.5126L12.082 15.3432C11.771 15.2081 11.4095 15.3508 11.2746 15.6618C11.1395 15.9728 11.2822 16.3343 11.5931 16.4692L14.2874 17.6387L17.2574 32.0558C17.3744 32.6235 17.8801 33.0357 18.4598 33.0357H33.1652C33.5042 33.0357 33.779 32.7609 33.779 32.4218C33.779 32.0828 33.5042 31.808 33.1652 31.808H18.4598L18.0986 30.0543H33.2788C33.8585 30.0543 34.3642 29.6422 34.4812 29.0744L36.1981 20.7407C36.2729 20.3778 36.1815 20.0048 35.9474 19.7175ZM33.2788 28.8268H17.8457L16.1288 20.4931L34.9957 20.4931L33.2788 28.8268Z"/>
</mask>
<path d="M23.9051 36.227H24.9051V36.2269L23.9051 36.227ZM31.6172 36.227H32.6172V36.2269L31.6172 36.227ZM35.9474 19.7175L35.1721 20.3492L35.1722 20.3493L35.9474 19.7175ZM15.8759 19.2655L14.8965 19.4672L15.0609 20.2655H15.8759V19.2655ZM15.4898 17.391L16.4692 17.1893L16.4692 17.1891L15.4898 17.391ZM14.7762 16.5126L15.1745 15.5954L15.1744 15.5953L14.7762 16.5126ZM12.082 15.3432L11.6836 16.2604L11.6838 16.2605L12.082 15.3432ZM11.2746 15.6618L12.1918 16.0601L12.192 16.0598L11.2746 15.6618ZM11.5931 16.4692L11.9913 15.5519L11.9912 15.5519L11.5931 16.4692ZM14.2874 17.6387L15.2668 17.437L15.162 16.9282L14.6856 16.7214L14.2874 17.6387ZM17.2574 32.0558L16.278 32.2575L16.278 32.2576L17.2574 32.0558ZM18.4598 31.808L17.4804 32.0098L17.6449 32.808H18.4598V31.808ZM18.0986 30.0543V29.0543H16.8716L17.1191 30.2561L18.0986 30.0543ZM34.4812 29.0744L33.5018 28.8726L33.5017 28.8727L34.4812 29.0744ZM36.1981 20.7407L37.1776 20.9425L37.1776 20.9424L36.1981 20.7407ZM33.2788 28.8268V29.8268H34.0938L34.2583 29.0285L33.2788 28.8268ZM17.8457 28.8268L16.8662 29.0285L17.0307 29.8268H17.8457V28.8268ZM16.1288 20.4931L16.1288 19.4931L14.9018 19.4931L15.1494 20.6948L16.1288 20.4931ZM34.9957 20.4931L35.9751 20.6949L36.2227 19.4931L34.9957 19.4931L34.9957 20.4931ZM21.7064 33.0283C19.9417 33.0283 18.5077 34.4623 18.5077 36.227H20.5077C20.5077 35.5669 21.0463 35.0283 21.7064 35.0283V33.0283ZM18.5077 36.227C18.5077 37.9916 19.9417 39.4257 21.7064 39.4257V37.4257C21.0463 37.4257 20.5077 36.887 20.5077 36.227H18.5077ZM21.7064 39.4257C23.471 39.4257 24.9051 37.9916 24.9051 36.227H22.9051C22.9051 36.887 22.3664 37.4257 21.7064 37.4257V39.4257ZM24.9051 36.2269C24.905 34.4623 23.471 33.0283 21.7064 33.0283V35.0283C22.3664 35.0283 22.905 35.5669 22.9051 36.227L24.9051 36.2269ZM21.7064 36.1979C21.7092 36.1979 21.7141 36.1987 21.7189 36.2007C21.723 36.2025 21.7256 36.2045 21.7272 36.2061C21.7288 36.2077 21.7308 36.2103 21.7325 36.2144C21.7346 36.2191 21.7353 36.224 21.7353 36.2269H19.7353C19.7353 37.3145 20.6186 38.1979 21.7064 38.1979V36.1979ZM21.7353 36.2269C21.7353 36.2297 21.7346 36.2346 21.7325 36.2394C21.7308 36.2435 21.7288 36.2461 21.7272 36.2477C21.7256 36.2493 21.723 36.2513 21.7189 36.253C21.7141 36.2551 21.7092 36.2558 21.7064 36.2558V34.2558C20.6187 34.2558 19.7353 35.1391 19.7353 36.2269H21.7353ZM21.7064 36.2558C21.7035 36.2558 21.6986 36.255 21.6938 36.253C21.6897 36.2513 21.6872 36.2493 21.6856 36.2477C21.684 36.2461 21.682 36.2435 21.6802 36.2394C21.6782 36.2346 21.6774 36.2298 21.6774 36.2269H23.6774C23.6774 35.1392 22.7941 34.2558 21.7064 34.2558V36.2558ZM21.6774 36.2269C21.6774 36.224 21.6782 36.2192 21.6802 36.2144C21.682 36.2103 21.684 36.2077 21.6856 36.2061C21.6872 36.2045 21.6898 36.2025 21.6939 36.2007C21.6987 36.1987 21.7035 36.1979 21.7064 36.1979V38.1979C22.794 38.1979 23.6774 37.3147 23.6774 36.2269H21.6774ZM29.4185 33.0283C27.6538 33.0283 26.2198 34.4623 26.2198 36.227H28.2198C28.2198 35.5669 28.7584 35.0283 29.4185 35.0283V33.0283ZM26.2198 36.227C26.2198 37.9916 27.6538 39.4257 29.4185 39.4257V37.4257C28.7584 37.4257 28.2198 36.887 28.2198 36.227H26.2198ZM29.4185 39.4257C31.1831 39.4257 32.6172 37.9916 32.6172 36.227H30.6172C30.6172 36.887 30.0785 37.4257 29.4185 37.4257V39.4257ZM32.6172 36.2269C32.6171 34.4623 31.1831 33.0283 29.4185 33.0283V35.0283C30.0785 35.0283 30.6171 35.5669 30.6172 36.227L32.6172 36.2269ZM29.4185 36.1979C29.4213 36.1979 29.4262 36.1987 29.431 36.2007C29.4351 36.2025 29.4377 36.2045 29.4393 36.2061C29.4409 36.2077 29.4429 36.2103 29.4446 36.2144C29.4466 36.2191 29.4474 36.224 29.4474 36.2269H27.4474C27.4474 37.3145 28.3307 38.1979 29.4185 38.1979V36.1979ZM29.4474 36.2269C29.4474 36.2297 29.4466 36.2346 29.4446 36.2394C29.4429 36.2435 29.4409 36.2461 29.4393 36.2477C29.4377 36.2493 29.4351 36.2513 29.431 36.253C29.4262 36.2551 29.4213 36.2558 29.4185 36.2558V34.2558C28.3308 34.2558 27.4474 35.1391 27.4474 36.2269H29.4474ZM29.4185 36.2558C29.4156 36.2558 29.4107 36.2551 29.406 36.253C29.4018 36.2513 29.3993 36.2493 29.3977 36.2477C29.3961 36.2461 29.3941 36.2435 29.3923 36.2394C29.3903 36.2346 29.3895 36.2297 29.3895 36.2269H31.3895C31.3895 35.1392 30.5062 34.2558 29.4185 34.2558V36.2558ZM29.3895 36.2269C29.3895 36.224 29.3903 36.2192 29.3923 36.2144C29.3941 36.2103 29.3961 36.2077 29.3977 36.2061C29.3993 36.2045 29.4019 36.2025 29.406 36.2007C29.4108 36.1987 29.4156 36.1979 29.4185 36.1979V38.1979C30.5061 38.1979 31.3895 37.3147 31.3895 36.2269H29.3895ZM29.9598 21.4525H21.1635V23.4525H29.9598V21.4525ZM21.1635 21.4525C20.2722 21.4525 19.5497 22.175 19.5497 23.0663H21.5497C21.5497 23.2795 21.3768 23.4525 21.1635 23.4525V21.4525ZM19.5497 23.0663C19.5497 23.9576 20.2723 24.6801 21.1635 24.6801V22.6801C21.3768 22.6801 21.5497 22.8529 21.5497 23.0663H19.5497ZM21.1635 24.6801H29.9598V22.6801H21.1635V24.6801ZM29.9598 24.6801C30.8511 24.6801 31.5737 23.9576 31.5737 23.0663H29.5737C29.5737 22.853 29.7466 22.6801 29.9598 22.6801V24.6801ZM31.5737 23.0663C31.5737 22.1749 30.8511 21.4525 29.9598 21.4525V23.4525C29.7466 23.4525 29.5737 23.2795 29.5737 23.0663H31.5737ZM29.481 24.64H21.6423V26.64H29.481V24.64ZM21.6423 24.64C20.751 24.64 20.0284 25.3625 20.0284 26.2538H22.0284C22.0284 26.467 21.8555 26.64 21.6423 26.64V24.64ZM20.0284 26.2538C20.0284 27.1451 20.751 27.8676 21.6423 27.8676V25.8676C21.8555 25.8676 22.0284 26.0405 22.0284 26.2538H20.0284ZM21.6423 27.8676H29.481V25.8676H21.6423V27.8676ZM29.481 27.8676C30.3723 27.8676 31.0948 27.1451 31.0948 26.2538H29.0948C29.0948 26.0405 29.2677 25.8676 29.481 25.8676V27.8676ZM31.0948 26.2538C31.0948 25.3626 30.3724 24.64 29.481 24.64V26.64C29.2676 26.64 29.0948 26.467 29.0948 26.2538H31.0948ZM36.7226 19.0859C36.2985 18.5654 35.6669 18.2655 34.9957 18.2655V20.2655C35.0659 20.2655 35.128 20.2951 35.1721 20.3492L36.7226 19.0859ZM34.9957 18.2655H15.8759V20.2655H34.9957V18.2655ZM16.8553 19.0637L16.4692 17.1893L14.5103 17.5928L14.8965 19.4672L16.8553 19.0637ZM16.4692 17.1891C16.3228 16.4793 15.8393 15.8841 15.1745 15.5954L14.3779 17.4299C14.4456 17.4593 14.4955 17.5207 14.5104 17.5929L16.4692 17.1891ZM15.1744 15.5953L12.4802 14.4259L11.6838 16.2605L14.378 17.43L15.1744 15.5953ZM12.4804 14.426C11.6626 14.0708 10.712 14.4461 10.3572 15.2637L12.192 16.0598C12.107 16.2556 11.8793 16.3455 11.6836 16.2604L12.4804 14.426ZM10.3573 15.2635C10.0023 16.0812 10.3774 17.0318 11.195 17.3866L11.9912 15.5519C12.1871 15.6369 12.2768 15.8645 12.1918 16.0601L10.3573 15.2635ZM11.195 17.3865L13.8892 18.556L14.6856 16.7214L11.9913 15.5519L11.195 17.3865ZM13.3079 17.8405L16.278 32.2575L18.2368 31.854L15.2668 17.437L13.3079 17.8405ZM16.278 32.2576C16.4907 33.2901 17.4056 34.0357 18.4598 34.0357V32.0357C18.3546 32.0357 18.2581 31.957 18.2368 31.854L16.278 32.2576ZM18.4598 34.0357H33.1652V32.0357H18.4598V34.0357ZM33.1652 34.0357C34.0565 34.0357 34.779 33.3131 34.779 32.4218H32.779C32.779 32.2086 32.9519 32.0357 33.1652 32.0357V34.0357ZM34.779 32.4218C34.779 31.5305 34.0565 30.808 33.1652 30.808V32.808C32.9519 32.808 32.779 32.6351 32.779 32.4218H34.779ZM33.1652 30.808H18.4598V32.808H33.1652V30.808ZM19.4393 31.6063L19.078 29.8525L17.1191 30.2561L17.4804 32.0098L19.4393 31.6063ZM18.0986 31.0543H33.2788V29.0543H18.0986V31.0543ZM33.2788 31.0543C34.333 31.0543 35.2479 30.3088 35.4606 29.2762L33.5017 28.8727C33.4805 28.9756 33.3841 29.0543 33.2788 29.0543V31.0543ZM35.4606 29.2762L37.1776 20.9425L35.2187 20.5389L33.5018 28.8726L35.4606 29.2762ZM37.1776 20.9424C37.313 20.2851 37.1465 19.606 36.7225 19.0857L35.1722 20.3493C35.2164 20.4036 35.2328 20.4705 35.2187 20.5389L37.1776 20.9424ZM33.2788 27.8268H17.8457V29.8268H33.2788V27.8268ZM18.8251 28.625L17.1083 20.2913L15.1494 20.6948L16.8662 29.0285L18.8251 28.625ZM16.1288 21.4931L34.9957 21.4931L34.9957 19.4931L16.1288 19.4931L16.1288 21.4931ZM34.0163 20.2913L32.2994 28.625L34.2583 29.0285L35.9751 20.6949L34.0163 20.2913Z" fill="#252525" mask="url(#path-2-inside-1)"/>
<circle cx="39.2235" cy="39.2781" r="10.6142" fill="white" stroke="#BFBD9C"/>
<path d="M39.0636 42.8581C38.5103 42.8581 38.017 42.7181 37.5836 42.4381C37.157 42.1514 36.8203 41.7381 36.5736 41.1981C36.327 40.6581 36.2036 40.0181 36.2036 39.2781C36.2036 38.5381 36.327 37.8981 36.5736 37.3581C36.8203 36.8181 37.157 36.4081 37.5836 36.1281C38.017 35.8414 38.5103 35.6981 39.0636 35.6981C39.6103 35.6981 40.097 35.8414 40.5236 36.1281C40.957 36.4081 41.297 36.8181 41.5436 37.3581C41.7903 37.8981 41.9136 38.5381 41.9136 39.2781C41.9136 40.0181 41.7903 40.6581 41.5436 41.1981C41.297 41.7381 40.957 42.1514 40.5236 42.4381C40.097 42.7181 39.6103 42.8581 39.0636 42.8581ZM39.0636 41.9681C39.6236 41.9681 40.0703 41.7381 40.4036 41.2781C40.7436 40.8181 40.9136 40.1514 40.9136 39.2781C40.9136 38.4047 40.7436 37.7381 40.4036 37.2781C40.0703 36.8181 39.6236 36.5881 39.0636 36.5881C38.497 36.5881 38.0436 36.8181 37.7036 37.2781C37.3703 37.7381 37.2036 38.4047 37.2036 39.2781C37.2036 40.1514 37.3703 40.8181 37.7036 41.2781C38.0436 41.7381 38.497 41.9681 39.0636 41.9681Z" fill="#333333"/>
</svg>
