<svg width="45" height="45" viewBox="0 0 45 45" fill="none" xmlns="http://www.w3.org/2000/svg">
<rect opacity="0.6" x="0.5" y="0.5" width="44" height="44" rx="22" stroke="white"/>
<g clip-path="url(#clip0)">
<path d="M24.1993 32.3393C17.2691 30.4823 13.1667 23.3617 15.0209 16.4418C15.1023 16.1378 15.3828 15.9338 15.6929 15.9446L18.6769 16.0492C18.8342 16.0547 18.9846 16.1153 19.1018 16.2204C19.2189 16.3256 19.2954 16.4686 19.3179 16.6244L19.804 19.9982C19.8248 20.1424 19.7981 20.2893 19.728 20.417C19.658 20.5446 19.5483 20.6461 19.4156 20.7059L17.4186 21.6072C17.8444 23.9893 19.1134 26.1529 20.9248 27.6801L22.7038 26.4012C22.822 26.3162 22.9647 26.2719 23.1103 26.2751C23.2559 26.2783 23.3965 26.3287 23.5109 26.4187L26.1897 28.5266C26.3134 28.624 26.399 28.7617 26.4315 28.9158C26.4639 29.0698 26.4412 29.2304 26.3673 29.3694L24.9659 32.0059C24.8946 32.1399 24.78 32.2459 24.6408 32.3064C24.5016 32.367 24.3459 32.3785 24.1993 32.3393ZM21.2296 15.4932C22.0215 15.9402 22.509 16.7847 22.5003 17.6939C22.4974 17.9975 22.2123 18.2192 21.9174 18.1468L21.6035 18.0698C21.398 18.0194 21.2534 17.8379 21.2456 17.6265C21.2379 17.4228 21.1806 17.2241 21.0786 17.0475C20.9767 16.871 20.8333 16.722 20.6607 16.6135C20.4815 16.501 20.3966 16.285 20.4557 16.0818L20.546 15.7714C20.6308 15.4799 20.9653 15.3439 21.2296 15.4932ZM22.5537 10.6157C25.9867 11.8634 28.0218 15.3919 27.3863 18.9859C27.339 19.2535 27.0747 19.4251 26.8108 19.3603L26.5061 19.2856C26.2664 19.2268 26.1125 18.9928 26.1547 18.7497C26.6727 15.7651 24.9839 12.8432 22.1426 11.8004C21.9109 11.7154 21.7852 11.4651 21.8541 11.2282L21.9417 10.9269C22.0176 10.666 22.2983 10.5229 22.5537 10.6157ZM21.8763 13.0339C24.0006 13.8968 25.2687 16.0887 24.9534 18.3635C24.915 18.6401 24.6459 18.823 24.3748 18.7564L24.069 18.6813C23.8377 18.6245 23.6832 18.4036 23.7144 18.1675C23.937 16.4799 22.9993 14.8559 21.4266 14.2049C21.2065 14.1138 21.0925 13.8696 21.1589 13.6409L21.2468 13.3385C21.3247 13.0704 21.6176 12.9288 21.8763 13.0339Z" fill="white"/>
</g>
<defs>
<clipPath id="clip0">
<rect width="15" height="20" fill="white" transform="translate(11.0049 17.0898) rotate(-30)"/>
</clipPath>
</defs>
</svg>
