<svg width="80" height="80" viewBox="0 0 80 80" fill="none" xmlns="http://www.w3.org/2000/svg">
<path fill-rule="evenodd" clip-rule="evenodd" d="M40.0002 76.6666C19.7497 76.6666 3.3335 60.2503 3.3335 39.9999C3.3335 19.7495 19.7497 3.33325 40.0002 3.33325C60.2505 3.33325 76.6668 19.7495 76.6668 39.9999C76.6668 60.2503 60.2505 76.6666 40.0002 76.6666ZM40.0002 69.9999C56.5688 69.9999 70.0002 56.5686 70.0002 39.9999C70.0002 23.4314 56.5688 9.99992 40.0002 9.99992C23.4316 9.99992 10.0002 23.4314 10.0002 39.9999C10.0002 56.5686 23.4316 69.9999 40.0002 69.9999ZM50.9765 27.6429L33.3335 45.2859L25.6905 37.6429L20.9765 42.3569L33.3335 54.7139L55.6905 32.357L50.9765 27.6429Z" fill="#26CB5E"/>
</svg>
