<svg width="40" height="40" viewBox="0 0 40 40" fill="none" xmlns="http://www.w3.org/2000/svg">
<path d="M20.0625 25.0785C22.8212 25.0785 25.0782 22.8214 25.0782 20.0628C25.0782 17.3042 22.8212 15.0471 20.0625 15.0471C17.3039 15.0471 15.0469 17.3042 15.0469 20.0628C15.0469 22.8214 17.3039 25.0785 20.0625 25.0785ZM20.0625 17.555C21.4419 17.555 22.5704 18.6835 22.5704 20.0628C22.5704 21.4421 21.4419 22.5706 20.0625 22.5706C18.6832 22.5706 17.5547 21.4421 17.5547 20.0628C17.5547 18.6835 18.6832 17.555 20.0625 17.555Z" fill="white"/>
<path d="M5.64263 27.4608L3.51097 31.8495L8.15047 36.489L12.5392 34.3574L15.047 35.3605L16.6771 40H23.3229L24.953 35.3605L27.4608 34.3574L31.8495 36.489L36.489 31.8495L34.3574 27.4608L35.3605 24.953L40 23.3229V16.6771L35.3605 15.047L34.3574 12.5392L36.489 8.15047L31.8495 3.51097L27.4608 5.64263L24.953 4.6395L23.3229 0H16.6771L15.047 4.6395L12.5392 5.64263L8.15047 3.51097L3.51097 8.15047L5.64263 12.5392L4.6395 15.047L0 16.8025V23.4483L4.6395 25.0784L5.64263 27.4608ZM2.50784 18.558L6.52038 17.1787L8.40125 12.5392L6.52038 8.77743L8.77743 6.52038L12.5392 8.40125L17.0533 6.52038L18.558 2.50784H21.5674L22.9467 6.52038L27.5862 8.40125L31.348 6.52038L33.605 8.77743L31.7241 12.5392L33.605 17.0533L37.6176 18.4326V21.442L33.605 22.8213L31.7241 27.5862L33.605 31.4734L31.348 33.605L27.5862 31.7241L23.0721 33.605L21.5674 37.6176H18.558L17.1787 33.605L12.5392 31.7241L8.77743 33.605L6.52038 31.348L8.40125 27.5862L6.52038 23.0721L2.50784 21.5674V18.558Z" fill="white"/>
</svg>
