<svg width="40" height="40" viewBox="0 0 40 40" fill="none" xmlns="http://www.w3.org/2000/svg">
<path d="M25 10.7144V9.46436C25 8.08936 23.875 6.96436 22.5 6.96436H21.25V5.71436H18.75V6.96436H17.5C16.125 6.96436 15 8.08936 15 9.46436V11.9644C15 13.3394 16.125 14.4644 17.5 14.4644H22.5V16.9644H17.5V15.7144H15V16.9644C15 18.3394 16.125 19.4644 17.5 19.4644H18.75V20.7144H21.25V19.4644H22.5C23.875 19.4644 25 18.3394 25 16.9644V14.4644C25 13.0894 23.875 11.9644 22.5 11.9644H17.5V9.46436H22.5V10.7144H25Z" fill="white"/>
<path d="M0 39.4644H6.875L27.625 35.4644L39.25 28.3394C39.75 28.0894 40 27.5894 40 27.0894C40 26.5894 39.875 26.0894 39.375 25.7144C37.625 24.0894 35 23.8394 32.875 24.9644L26 28.0894H23.5C24 27.3394 24.125 26.4644 24.125 25.5894V23.0894H9.875C8.375 23.0894 6.875 23.7144 5.75 24.8394L0 31.8394V39.4644ZM2.5 32.8394L7.625 26.5894C8.25 25.9644 9 25.7144 9.875 25.7144H21.75C21.75 27.0894 20.5 28.2144 19.125 28.2144H19H13.75V30.7144H26.75L34.25 27.3394C35 26.8394 36 26.7144 36.875 27.0894L26.875 33.2144L6.625 36.9644H2.5V32.8394Z" fill="white"/>
<path d="M2.5 21.9644H5V16.9644H7L8.75 18.7144V21.9644H11.25V17.7144L8 14.4644H5V9.46436H8L11.25 6.21436V3.21436H28.75V6.21436L32 9.46436H35V14.4644H32L28.75 17.7144V21.9644H31.25V18.7144L33 16.9644H35V21.9644H37.5V0.714355H2.5V21.9644ZM35 6.96436H33L31.25 5.21436V3.21436H35V6.96436ZM8.75 3.21436V5.21436L7 6.96436H5V3.21436H8.75Z" fill="white"/>
</svg>
