<svg width="40" height="40" viewBox="0 0 40 40" fill="none" xmlns="http://www.w3.org/2000/svg">
<path d="M27.75 39.375L39.25 27L37.5 25.25L27.625 35.875L22.25 30.75L20.5 32.625L27.75 39.375Z" fill="white"/>
<path d="M17.5 32.5H2.5V12.5H37.5V22.5H40V2.5H33.75V0H31.25V2.5H25.375V0H22.875V2.5H17V0H14.5V2.5H8.75V0H6.25V2.5H0V35H17.5V32.5ZM2.5 5H6.25V7.5H8.75V5H14.625V7.5H17.125V5H23V7.5H25.5V5H31.25V7.5H33.75V5H37.5V10H2.5V5Z" fill="white"/>
<path d="M17.5 37.5H0V40H17.5V37.5Z" fill="white"/>
<path d="M23.75 16.25H21.25V18.75H23.75V16.25Z" fill="white"/>
<path d="M28.75 16.25H26.25V18.75H28.75V16.25Z" fill="white"/>
<path d="M33.75 16.25H31.25V18.75H33.75V16.25Z" fill="white"/>
<path d="M8.75 21.25H6.25V23.75H8.75V21.25Z" fill="white"/>
<path d="M13.75 21.25H11.25V23.75H13.75V21.25Z" fill="white"/>
<path d="M18.75 21.25H16.25V23.75H18.75V21.25Z" fill="white"/>
<path d="M8.75 26.25H6.25V28.75H8.75V26.25Z" fill="white"/>
<path d="M13.75 26.25H11.25V28.75H13.75V26.25Z" fill="white"/>
<path d="M18.75 26.25H16.25V28.75H18.75V26.25Z" fill="white"/>
<path d="M23.75 21.25H21.25V23.75H23.75V21.25Z" fill="white"/>
<path d="M28.75 21.25H26.25V23.75H28.75V21.25Z" fill="white"/>
<path d="M33.75 21.25H31.25V23.75H33.75V21.25Z" fill="white"/>
</svg>
