<svg width="40" height="40" viewBox="0 0 40 40" fill="none" xmlns="http://www.w3.org/2000/svg">
<path d="M19.7236 39.4278L19.7146 39.4233L19.7054 39.4192C11.0108 35.5005 5.5 26.9296 5.5 17.375V8.28355L18.5131 0.5H21.4869L34.5 8.28355V17.375C34.5 26.9262 28.867 35.5003 20.2921 39.4203L20.2842 39.4239L20.2764 39.4278L20.132 39.5H19.868L19.7236 39.4278ZM7.5 17H7V17.5C7 25.6863 11.4769 33.0969 18.4986 37.1822L19.25 37.6194V36.75V17.5V17H18.75H7.5ZM20.75 36.75V37.6194L21.5014 37.1822C28.5231 33.0969 33 25.6863 33 17.5V17H32.5H21.25H20.75V17.5V36.75ZM33 9.5V9.2169L32.7572 9.07125L21.5072 2.32125L20.75 1.8669V2.75V15V15.5H21.25H32.5H33V15V9.5ZM19.25 2.75V1.8669L18.4928 2.32125L7.24275 9.07125L7 9.2169V9.5V15V15.5H7.5H18.75H19.25V15V2.75Z" stroke="#FFA944"/>
</svg>
