<svg width="40" height="40" viewBox="0 0 40 40" fill="none" xmlns="http://www.w3.org/2000/svg">
<path d="M25.3536 3.89645L24.5 3.04289V4.25V10V10.5H25H30.75H31.9571L31.1036 9.64645L25.3536 3.89645ZM7.5 2H7V2.5V37.5V38H7.5H32.5H33V37.5V12.5V12H32.5H23V2.5V2H22.5H7.5ZM34.5 10.9571V39.5H5.5V0.5H24.0429L34.5 10.9571Z" stroke="#FFA944"/>
<path d="M11.75 10.75V9.25H18.25V10.75H11.75Z" stroke="#FFA944"/>
<path d="M14.25 18.25V16.75H28.25V18.25H14.25Z" stroke="#FFA944"/>
<path d="M11.75 23.25V21.75H28.25V23.25H11.75Z" stroke="#FFA944"/>
<path d="M11.75 28.25V26.75H28.25V28.25H11.75Z" stroke="#FFA944"/>
<path d="M11.75 33.25V31.75H28.25V33.25H11.75Z" stroke="#FFA944"/>
</svg>
