<svg width="40" height="40" viewBox="0 0 40 40" fill="none" xmlns="http://www.w3.org/2000/svg">
<path d="M20.7941 31.9934L22.03 32.7767C22.4909 33.0688 22.8169 33.532 22.9362 34.0645C23.0556 34.5969 22.9586 35.155 22.6665 35.6159V35.6159C22.3744 36.0768 21.9111 36.4027 21.3787 36.5221C20.8462 36.6414 20.2882 36.5444 19.8273 36.2523L18.8496 35.6763" stroke="#FFA944" stroke-width="2" stroke-miterlimit="10" stroke-linecap="round"/>
<path d="M22.9967 28.5178L26.2598 30.5859C26.7207 30.878 27.0466 31.3412 27.166 31.8736C27.2854 32.4061 27.1883 32.9641 26.8962 33.425V33.425C26.6041 33.8859 26.1409 34.2119 25.6084 34.3313C25.076 34.4506 24.5179 34.3536 24.057 34.0615L20.7939 31.9935" stroke="#FFA944" stroke-width="2" stroke-miterlimit="10" stroke-linecap="round"/>
<path d="M25.1998 25.0422L30.4901 28.395C30.951 28.6871 31.277 29.1504 31.3963 29.6828C31.5157 30.2153 31.4187 30.7733 31.1266 31.2342V31.2342C30.8345 31.6951 30.3712 32.0211 29.8388 32.1405C29.3063 32.2598 28.7483 32.1628 28.2874 31.8707L22.9971 28.5179" stroke="#FFA944" stroke-width="2" stroke-miterlimit="10" stroke-linecap="round"/>
<path d="M8.75793 29.3669C9.31508 28.4374 9.01317 27.2321 8.08359 26.675C7.15401 26.1178 5.94878 26.4197 5.39163 27.3493C4.83447 28.2789 5.13638 29.4841 6.06596 30.0413C6.99554 30.5984 8.20078 30.2965 8.75793 29.3669Z" stroke="#FFA944" stroke-width="2" stroke-miterlimit="10" stroke-linecap="round"/>
<path d="M12.2569 27.3462C12.7033 27.6138 13.0251 28.0477 13.1516 28.5525C13.278 29.0574 13.1988 29.5918 12.9312 30.0382L12.1242 31.3847C11.8566 31.8311 11.4227 32.1529 10.9178 32.2794C10.413 32.4059 9.8786 32.3266 9.4322 32.059C8.9858 31.7915 8.66397 31.3576 8.53751 30.8527C8.41105 30.3479 8.49031 29.8135 8.75786 29.3671L9.56492 28.0206C9.83247 27.5742 10.2664 27.2523 10.7712 27.1259C11.2761 26.9994 11.8105 27.0787 12.2569 27.3462V27.3462Z" stroke="#FFA944" stroke-width="2" stroke-miterlimit="10" stroke-linecap="round"/>
<path d="M16.0264 28.6905C16.4728 28.958 16.7946 29.3919 16.9211 29.8968C17.0476 30.4016 16.9683 30.936 16.7007 31.3824L15.4902 33.4022C15.2226 33.8486 14.7887 34.1704 14.2838 34.2969C13.779 34.4234 13.2446 34.3441 12.7982 34.0765C12.3518 33.809 12.03 33.3751 11.9035 32.8702C11.7771 32.3654 11.8563 31.831 12.1239 31.3846L13.3344 29.3648C13.602 28.9184 14.0359 28.5966 14.5408 28.4701C15.0456 28.3436 15.58 28.4229 16.0264 28.6905Z" stroke="#FFA944" stroke-width="2" stroke-miterlimit="10" stroke-linecap="round"/>
<path d="M18.8571 35.4197C19.4142 34.4901 19.1123 33.2849 18.1827 32.7277C17.2531 32.1706 16.0479 32.4725 15.4907 33.4021C14.9336 34.3316 15.2355 35.5369 16.1651 36.094C17.0947 36.6512 18.2999 36.3493 18.8571 35.4197Z" stroke="#FFA944" stroke-width="2" stroke-miterlimit="10" stroke-linecap="round"/>
<path d="M25.1996 25.0421L32.5003 29.682C32.9598 29.974 33.5159 30.073 34.0479 29.9575C34.5799 29.842 35.0449 29.5213 35.3419 29.0651L35.3422 29.0645C35.4924 28.8339 35.595 28.5756 35.644 28.3048C35.693 28.0341 35.6875 27.7562 35.6277 27.4876C35.5679 27.219 35.4552 26.965 35.2959 26.7405C35.1367 26.516 34.9343 26.3256 34.7006 26.1804L28.6605 22.0031C27.5673 21.2471 26.267 20.8476 24.9378 20.8594L20.2966 20.9007L17.6472 23.1147C17.2517 23.511 16.7167 23.7365 16.1568 23.7428C15.597 23.7492 15.057 23.536 14.6525 23.1489V23.1489C14.4458 22.951 14.2809 22.7137 14.1674 22.451C14.054 22.1882 13.9945 21.9054 13.9923 21.6193C13.99 21.3331 14.0452 21.0494 14.1546 20.785C14.2639 20.5205 14.4252 20.2807 14.6289 20.0797L19.9465 15.4062" stroke="#FFA944" stroke-width="2" stroke-miterlimit="10" stroke-linecap="round"/>
<path d="M6.60263 26.3953L4.24785 24.8254H1.89307" stroke="#FFA944" stroke-width="2" stroke-miterlimit="10" stroke-linecap="round"/>
<path d="M34.2446 25.789L35.6292 24.8251L37.984 24.7788" stroke="#FFA944" stroke-width="2" stroke-miterlimit="10" stroke-linecap="round"/>
<path d="M17.5916 2.84741H1.89307V15.4063H6.60264V18.546L10.5273 15.4063H19.9464V2.84741H37.9998V15.4063H33.2902V18.546L30.1505 15.4063H22.3012" stroke="#FFA944" stroke-width="2" stroke-linecap="round" stroke-linejoin="round"/>
<path d="M7.3877 9.12671H8.95755" stroke="#FFA944" stroke-width="2" stroke-linejoin="round"/>
<path d="M10.5273 9.12671H12.0972" stroke="#FFA944" stroke-width="2" stroke-linejoin="round"/>
<path d="M13.667 9.12671H15.2368" stroke="#FFA944" stroke-width="2" stroke-linejoin="round"/>
<path d="M24.6558 9.12671H26.2256" stroke="#FFA944" stroke-width="2" stroke-linejoin="round"/>
<path d="M27.7954 9.12671H29.3653" stroke="#FFA944" stroke-width="2" stroke-linejoin="round"/>
<path d="M30.9355 9.12671H32.5054" stroke="#FFA944" stroke-width="2" stroke-linejoin="round"/>
</svg>
