<svg width="40" height="40" viewBox="0 0 40 40" fill="none" xmlns="http://www.w3.org/2000/svg">
<g clip-path="url(#clip0)">
<path d="M20 4.16659C23.126 4.16598 26.1822 5.09089 28.7833 6.82471C31.3844 8.55852 33.4139 11.0236 34.616 13.9092C35.8181 16.7948 36.139 19.9717 35.5382 23.0394C34.9374 26.1071 33.4418 28.9283 31.2399 31.1472L29.8148 29.7221L29.1667 30.3703V35.5554H34.3519L35 34.9073L33.5981 33.5054C36.2658 30.82 38.0785 27.4047 38.8077 23.6904C39.5369 19.976 39.1498 16.1289 37.6954 12.6343C36.2409 9.13963 33.7842 6.15394 30.635 4.05375C27.4858 1.95357 23.7852 0.832961 20 0.833252" stroke="#FFA944" stroke-width="2" stroke-miterlimit="10" stroke-linecap="round"/>
<path d="M20.0002 35.8334C16.8742 35.834 13.818 34.9091 11.2169 33.1753C8.61582 31.4415 6.58628 28.9764 5.38416 26.0908C4.18204 23.2052 3.86116 20.0283 4.46197 16.9606C5.06278 13.8929 6.55839 11.0717 8.76024 8.8528L10.1854 10.2779L10.8335 9.62972V4.44458H5.64831L5.00017 5.09273L6.4021 6.49466C3.7344 9.18007 1.92165 12.5953 1.19247 16.3097C0.46329 20.024 0.850342 23.8711 2.30481 27.3657C3.75928 30.8604 6.21602 33.8461 9.36519 35.9463C12.5144 38.0465 16.2149 39.1671 20.0002 39.1668" stroke="#FFA944" stroke-width="2" stroke-miterlimit="10" stroke-linecap="round"/>
<path d="M22.7778 17.9166V15.8333H18.6112C18.0586 15.8333 17.5287 16.0527 17.138 16.4434C16.7473 16.8341 16.5278 17.3641 16.5278 17.9166C16.5278 18.1902 16.5817 18.4611 16.6864 18.7138C16.7911 18.9666 16.9446 19.1963 17.138 19.3897C17.3315 19.5832 17.5611 19.7366 17.8139 19.8413C18.0667 19.946 18.3376 19.9999 18.6112 19.9999H21.3889C21.9415 19.9999 22.4714 20.2194 22.8621 20.6101C23.2528 21.0008 23.4723 21.5307 23.4723 22.0833V22.0833C23.4723 22.6358 23.2528 23.1657 22.8621 23.5564C22.4714 23.9471 21.9415 24.1666 21.3889 24.1666H17.2223V22.0833" stroke="#FFA944" stroke-width="2" stroke-miterlimit="10"/>
<path d="M20 13.3333V26.6666" stroke="#FFA944" stroke-width="2" stroke-miterlimit="10"/>
<path d="M20.0003 30.8334C25.9834 30.8334 30.8337 25.9832 30.8337 20.0001C30.8337 14.017 25.9834 9.16675 20.0003 9.16675C14.0172 9.16675 9.16699 14.017 9.16699 20.0001C9.16699 25.9832 14.0172 30.8334 20.0003 30.8334Z" stroke="#FFA944" stroke-width="2" stroke-miterlimit="10"/>
<path d="M22.8337 35.8333C22.8337 36.0174 22.6844 36.1667 22.5003 36.1667C22.3162 36.1667 22.167 36.0174 22.167 35.8333C22.167 35.6492 22.3162 35.5 22.5003 35.5C22.6844 35.5 22.8337 35.6492 22.8337 35.8333Z" fill="#353535" stroke="#FFA944"/>
<path d="M22.8337 39.1666C22.8337 39.3507 22.6844 39.4999 22.5003 39.4999C22.3162 39.4999 22.167 39.3507 22.167 39.1666C22.167 38.9825 22.3162 38.8333 22.5003 38.8333C22.6844 38.8333 22.8337 38.9825 22.8337 39.1666Z" fill="#353535" stroke="#FFA944"/>
<path d="M17.8337 0.833333C17.8337 1.01743 17.6844 1.16667 17.5003 1.16667C17.3162 1.16667 17.167 1.01743 17.167 0.833333C17.167 0.649239 17.3162 0.5 17.5003 0.5C17.6844 0.5 17.8337 0.649239 17.8337 0.833333Z" fill="#353535" stroke="#FFA944"/>
<path d="M17.8337 4.16659C17.8337 4.35068 17.6844 4.49992 17.5003 4.49992C17.3162 4.49992 17.167 4.35068 17.167 4.16659C17.167 3.98249 17.3162 3.83325 17.5003 3.83325C17.6844 3.83325 17.8337 3.98249 17.8337 4.16659Z" fill="#353535" stroke="#FFA944"/>
</g>
<defs>
<clipPath id="clip0">
<rect width="40" height="40" fill="white"/>
</clipPath>
</defs>
</svg>
