<svg width="69" height="69" viewBox="0 0 69 69" fill="none" xmlns="http://www.w3.org/2000/svg">
<g filter="url(#filter0_d)">
<circle cx="34.5" cy="33.5" r="26.6872" stroke="white" stroke-width="1.62562"/>
</g>
<g clip-path="url(#clip0)">
<path d="M26.5688 42.7707C28.3309 42.3899 29.3653 40.3335 28.8672 38.2772C28.6374 37.2871 28.1011 36.4112 27.3349 35.8019C26.5688 35.2307 25.6877 35.0022 24.8066 35.1926C23.9638 35.383 23.236 35.9542 22.8146 36.8301C22.3932 37.6679 22.2783 38.6961 22.5081 39.7243C22.738 40.7144 23.2743 41.5902 24.0404 42.1995C24.6151 42.6565 25.2663 42.885 25.9558 42.885C26.1474 42.8469 26.3389 42.8088 26.5688 42.7707ZM27.1051 36.1066C27.7946 36.6397 28.2926 37.4394 28.4842 38.3533C28.9056 40.2574 28.0245 42.0472 26.4538 42.3899C25.726 42.5422 24.9215 42.3518 24.2703 41.8568C23.5808 41.3236 23.0827 40.5239 22.8912 39.61C22.6997 38.6961 22.7763 37.744 23.1594 36.9824C23.5424 36.2208 24.1554 35.7258 24.9215 35.5354C25.1131 35.4973 25.2663 35.4592 25.4578 35.4592C25.9942 35.4973 26.6071 35.6877 27.1051 36.1066ZM51.0859 32.0319C51.1242 31.9938 51.1242 31.9558 51.1242 31.9177C51.1242 31.8796 51.1242 31.8415 51.1242 31.7654V31.7273C51.1242 31.6892 51.1242 31.6892 51.1242 31.6511C51.1242 31.6511 51.1242 31.6511 51.1242 31.613C51.1242 31.613 51.1242 31.613 51.1242 31.5749C51.1242 31.5749 51.1242 31.5749 51.0859 31.5369C51.0859 31.4988 51.0475 31.4988 51.0092 31.4607L50.9709 31.4226C50.9326 31.4226 50.9326 31.3845 50.8943 31.3845H50.856C50.8177 31.3845 50.7794 31.3845 50.7028 31.3845C50.7028 31.3845 49.2471 31.4988 45.9143 29.4424C45.6078 29.252 45.263 29.0235 44.9183 28.8331C41.777 26.7768 38.2144 24.4538 34.3453 28.6808C30.5145 24.4538 26.9135 26.7768 23.734 28.8331C23.3892 29.0616 23.0827 29.252 22.738 29.4424C19.4818 31.5369 18.0261 31.4226 17.9878 31.4226C17.9495 31.4226 17.9112 31.4226 17.8346 31.4226C17.8346 31.4226 17.8346 31.4226 17.7963 31.4226C17.7579 31.4226 17.7196 31.4607 17.6813 31.4607C17.6813 31.4607 17.643 31.4607 17.643 31.4988C17.6047 31.5369 17.6047 31.5369 17.5664 31.5749C17.5664 31.5749 17.5664 31.5749 17.5664 31.613C17.5664 31.613 17.5664 31.613 17.5664 31.6511C17.5664 31.6892 17.5664 31.6892 17.5664 31.7273V31.7654C17.5664 31.8034 17.5664 31.8415 17.5664 31.9177C17.5664 31.9558 17.6047 31.9938 17.6047 32.0319L17.643 32.07L17.6813 32.1081C17.7196 32.1081 20.0564 34.0121 22.1251 35.8019C22.2783 35.9542 22.5081 35.9162 22.6614 35.7638C22.8146 35.6115 22.7763 35.383 22.6231 35.2307C21.8186 34.5453 21.0141 33.8217 20.2863 33.2505C21.4355 33.6313 22.9295 33.974 24.5385 34.0121C25.2663 34.0121 26.0325 33.8979 26.7603 33.7836C27.6414 33.6313 28.4842 33.5171 29.3653 33.5932C30.208 33.6694 31.319 34.2406 32.2767 34.6976C33.196 35.1165 33.8856 35.4592 34.3836 35.4592C34.8816 35.4592 35.5711 35.1165 36.4905 34.6976C37.4865 34.2406 38.5975 33.7075 39.4019 33.5932C40.2447 33.479 41.0875 33.6313 42.0069 33.7836C42.7347 33.8979 43.4626 34.0121 44.2287 34.0121C45.8377 33.974 47.2934 33.6313 48.4809 33.2505C46.7571 34.6976 44.4586 36.6778 43.4243 37.8202C41.6621 39.7623 38.1378 41.019 34.4219 41.019C32.7747 41.019 31.204 40.7905 29.71 40.3335C29.5185 40.2574 29.2886 40.3716 29.212 40.6001C29.1354 40.7905 29.2503 41.019 29.4802 41.0952C31.0125 41.5521 32.6597 41.8187 34.3836 41.8187C38.3676 41.8187 42.0452 40.4859 43.9606 38.3914C45.6078 36.5635 50.9709 32.2223 51.0475 32.1842C51.0092 32.07 51.0475 32.07 51.0859 32.0319C51.0475 32.0319 51.0859 32.0319 51.0859 32.0319ZM44.1521 33.2505C43.4626 33.2505 42.8113 33.1743 42.0835 33.0601C41.1641 32.9078 40.2447 32.7555 39.287 32.8697C38.3293 32.9839 37.1418 33.5552 36.1075 34.0502C35.4179 34.3929 34.6517 34.7357 34.3453 34.7357C34.0388 34.7357 33.2727 34.3548 32.5831 34.0502C31.5488 33.5552 30.3613 32.9839 29.4036 32.8697C28.4459 32.7555 27.4882 32.9078 26.6071 33.0601C25.8792 33.1743 25.228 33.2886 24.5385 33.2505C22.3549 33.2124 20.3629 32.527 19.2136 31.9938C20.0564 31.7654 21.3589 31.2322 23.1594 30.0898C23.5041 29.8994 23.8106 29.6709 24.1554 29.4424C27.4499 27.3099 30.5145 25.3297 34.0388 29.4805C34.1921 29.6709 34.4985 29.6709 34.6134 29.4805C38.1378 25.3297 41.2407 27.3099 44.4969 29.4424C44.8417 29.6709 45.1481 29.8613 45.4929 30.0898C47.2934 31.2322 48.5958 31.7273 49.4386 31.9938C48.3277 32.4889 46.3357 33.2124 44.1521 33.2505Z" fill="white"/>
</g>
<defs>
<filter id="filter0_d" x="0.497537" y="0.58128" width="68.0049" height="68.0049" filterUnits="userSpaceOnUse" color-interpolation-filters="sRGB">
<feFlood flood-opacity="0" result="BackgroundImageFix"/>
<feColorMatrix in="SourceAlpha" type="matrix" values="0 0 0 0 0 0 0 0 0 0 0 0 0 0 0 0 0 0 127 0"/>
<feOffset dy="1.08374"/>
<feGaussianBlur stdDeviation="3.25123"/>
<feColorMatrix type="matrix" values="0 0 0 0 0.3 0 0 0 0 0.3 0 0 0 0 0.3 0 0 0 0.4 0"/>
<feBlend mode="multiply" in2="BackgroundImageFix" result="effect1_dropShadow"/>
<feBlend mode="normal" in="SourceGraphic" in2="effect1_dropShadow" result="shape"/>
</filter>
<clipPath id="clip0">
<rect width="33.5961" height="16.5271" fill="white" transform="translate(17.5664 26.3203)"/>
</clipPath>
</defs>
</svg>
