<svg width="135" height="69" viewBox="0 0 135 69" fill="none" xmlns="http://www.w3.org/2000/svg">
<path d="M2.86383 1.39503V14.103H17.9889V1.39503C17.9889 0.464736 18.4726 0 19.4409 0C20.4083 0 20.8929 0.464736 20.8929 1.39503V32.355C20.8929 33.2853 20.4083 33.75 19.4409 33.75C18.4726 33.75 17.9889 33.2853 17.9889 32.355V16.8545H2.86383V32.355C2.86383 33.2853 2.38011 33.75 1.41183 33.75C0.470041 33.75 0 33.2853 0 32.355V1.39503C0 0.464736 0.470041 0 1.41183 0C2.38011 0 2.86383 0.464736 2.86383 1.39503Z" fill="white"/>
<path d="M27.5416 10.6534C26.116 12.0659 25.3904 13.7548 25.3639 15.7192V20.3547H34.3182H34.3583C36.0522 20.3547 37.4906 19.7786 38.6743 18.6266C39.8845 17.5004 40.4888 16.0996 40.4888 14.4232C40.4888 12.7734 39.8845 11.3725 38.6743 10.2214C37.4906 9.04272 36.0522 8.4534 34.3583 8.4534H34.3182H32.7046C30.6876 8.50501 28.9655 9.23916 27.5416 10.6534ZM31.4944 33.75C31.467 33.75 31.414 33.7442 31.3337 33.7309C31.2525 33.7167 31.144 33.6976 31.0106 33.6718C28.6715 33.5403 26.6664 32.6504 25.0007 31.0007C23.3871 29.4292 22.553 27.4648 22.5 25.1075V24.9901V15.7982V15.4445V15.2089C22.6615 12.5903 23.7222 10.3645 25.6861 8.53164C27.6749 6.67212 30.015 5.70408 32.7046 5.625H32.7849H32.8259H34.3182L34.3583 5.66412V5.625C36.8308 5.625 38.9564 6.48983 40.7306 8.21784C42.5057 9.91921 43.3929 11.9876 43.3929 14.4232C43.3929 16.8329 42.5057 18.9013 40.7306 20.6293C38.9829 22.3324 36.8855 23.1831 34.4387 23.1831H34.3583H34.3182H25.3639V24.9901C25.4169 26.6399 26.0212 28.0283 27.1784 29.1545C28.3612 30.3065 29.8005 30.8825 31.4944 30.8825C31.6286 30.91 31.7627 30.9349 31.8978 30.9616H39.0376C40.005 30.9616 40.4888 31.4202 40.4888 32.3358C40.4888 33.2789 40.005 33.75 39.0376 33.75H31.4944Z" fill="white"/>
<path d="M64.0964 7.98151C64.2223 8.19045 64.2857 8.41353 64.2857 8.6491C64.2857 9.56473 63.8319 10.0242 62.9235 10.0242C62.5699 10.0242 62.2677 9.90685 62.0159 9.67045C61.0057 8.85803 59.8456 8.45265 58.5348 8.45265H58.4971H56.9072C55.0159 8.55753 53.4133 9.31751 52.1024 10.7301C50.8156 12.0653 50.147 13.7292 50.0973 15.7186V32.3358C50.0973 33.2789 49.6427 33.75 48.7351 33.75C47.8516 33.75 47.4106 33.2789 47.4106 32.3358V15.9933V7.51038C47.4106 6.56727 47.8516 6.09614 48.7351 6.09614C49.6427 6.09614 50.0973 6.56727 50.0973 7.51038V8.80642C51.9629 6.78952 54.2214 5.72905 56.8696 5.625H57.2103H58.4971H58.5348H58.6101C60.5776 5.67744 62.2805 6.29258 63.7188 7.47042L63.8319 7.58862C63.8816 7.6419 63.9377 7.69267 64.0018 7.74595C64.0644 7.79755 64.1213 7.85 64.1726 7.90327L64.0964 7.98151Z" fill="white"/>
<path d="M69.5594 25.7933H69.5995V25.8333C69.5995 27.4655 70.191 28.9091 71.3747 30.1641C72.6378 31.341 74.089 31.9289 75.7308 31.9289V31.889H77.5461C79.5084 31.7828 81.1758 31.0206 82.5476 29.6033C83.9184 28.2396 84.6303 26.5156 84.685 24.4304V24.3097V18.9363V16.8511V14.6054C84.685 12.9213 84.0799 11.4913 82.8698 10.3162C81.6861 9.11384 80.2485 8.51226 78.5538 8.51226H78.5136H76.8197C74.8027 8.61847 73.0951 9.39424 71.6977 10.8362C70.326 12.1999 69.6124 13.8976 69.5594 15.9284V25.7933ZM87.5892 14.0038V14.6054V16.8511V18.9363V24.3097C87.5892 24.3633 87.5746 24.4041 87.549 24.4304H87.5892C87.5345 27.2905 86.5405 29.6832 84.6047 31.6078C82.6681 33.613 80.3152 34.6692 77.5461 34.7754H77.1025H76.941H76.9H75.7308H75.6907H75.6505C73.3105 34.7754 71.2798 33.9606 69.5594 32.33V44.3999C69.5594 45.3346 69.0756 45.8036 68.1073 45.8036C67.1663 45.8036 66.6963 45.3346 66.6963 44.3999V16.2096V7.54955C66.6963 6.58685 67.1663 6.10593 68.1073 6.10593C69.0756 6.10593 69.5594 6.58685 69.5594 7.54955V8.87253C71.5482 6.81372 73.9557 5.73121 76.7795 5.625H77.1427H78.5136H78.5538H78.6349H78.8366H78.917C78.9435 5.625 78.97 5.63095 78.9982 5.64454C79.0238 5.65899 79.0503 5.66494 79.0785 5.66494H79.1589H79.3204H79.4016C79.4537 5.66494 79.4939 5.67853 79.5221 5.70487H79.6024H79.7238C79.7768 5.70487 79.8169 5.71847 79.8451 5.74481H79.9656H80.087C80.1135 5.77115 80.14 5.78474 80.1673 5.78474H80.2887C80.3152 5.81108 80.3408 5.82468 80.369 5.82468C80.3955 5.82468 80.416 5.83148 80.4297 5.84507C80.4417 5.85867 80.4622 5.86546 80.4904 5.86546H80.6109C80.6639 5.89095 80.7041 5.9054 80.7323 5.9054C80.7588 5.9054 80.7853 5.91899 80.8126 5.94533H80.934C80.934 5.97167 80.9468 5.98527 80.9741 5.98527H81.0143C81.0673 5.98527 81.1075 5.99971 81.1357 6.02606C81.1622 6.02606 81.1878 6.03965 81.216 6.06599H81.3374L81.3775 6.10593H81.4177C81.4442 6.13227 81.4844 6.14586 81.5391 6.14586C81.592 6.14586 81.6322 6.15946 81.6596 6.1858C81.6861 6.1858 81.7126 6.19939 81.7408 6.22658C81.7673 6.22658 81.7869 6.23253 81.8006 6.24613C81.8134 6.25972 81.8339 6.26567 81.8621 6.26567C81.8878 6.29201 81.9143 6.30645 81.9416 6.30645L81.9826 6.34639H82.0228C82.0493 6.34639 82.0698 6.35234 82.0835 6.36678C82.0954 6.38038 82.1159 6.38633 82.1442 6.38633C82.1698 6.38633 82.1963 6.40077 82.2245 6.42626C82.251 6.42626 82.2706 6.43306 82.2852 6.44665C82.298 6.46025 82.3176 6.4662 82.3459 6.4662C82.3723 6.49254 82.398 6.50698 82.4262 6.50698C82.4792 6.53332 82.5193 6.54692 82.5476 6.54692C82.5476 6.57326 82.574 6.58685 82.6279 6.58685C82.6279 6.61319 82.6544 6.64123 82.7082 6.66757C82.7347 6.69306 82.7612 6.70751 82.7894 6.70751C82.8424 6.73385 82.8826 6.74744 82.9099 6.74744L82.9509 6.78738C83.0031 6.84176 83.0432 6.86725 83.0715 6.86725C83.0979 6.89359 83.1244 6.90804 83.1518 6.90804L83.1928 6.94797C83.2185 6.94797 83.2458 6.96157 83.2731 6.98791C83.3261 7.04229 83.4142 7.10177 83.5355 7.16804C83.656 7.23517 83.7979 7.32269 83.9586 7.4289C83.9586 7.48328 84.0116 7.52321 84.1201 7.54955C84.1466 7.5759 84.1731 7.59544 84.2013 7.60988C84.2269 7.62348 84.2534 7.64387 84.2816 7.66936V7.71015C84.3346 7.76198 84.3748 7.79002 84.4021 7.79002L84.4432 7.82995L84.5637 7.95061L84.6047 7.99055C84.6047 8.04323 84.6449 8.07042 84.7252 8.07042V8.1112H84.7654L84.8867 8.23101H84.9269C84.9269 8.31088 84.9534 8.35167 85.0081 8.35167L85.0474 8.3916L85.1688 8.51226L85.2089 8.55219C85.2089 8.63206 85.2354 8.672 85.2901 8.672L85.3303 8.71193C85.3303 8.79266 85.3705 8.83259 85.4508 8.83259V8.87253C85.532 9.00508 85.5722 9.04501 85.5722 8.99318H85.6123C85.6123 9.04501 85.6388 9.09939 85.6935 9.15293L85.7337 9.19371C85.7867 9.24554 85.814 9.28633 85.814 9.31352L85.8542 9.35345C85.8542 9.38064 85.8952 9.43417 85.9756 9.51405C85.9756 9.54039 85.9884 9.56673 86.0157 9.59477C86.0422 9.62111 86.0568 9.6466 86.0568 9.67464C86.0824 9.72732 86.1029 9.76131 86.1166 9.7749C86.1294 9.7868 86.1491 9.80719 86.1773 9.83523C86.4721 10.3425 86.7277 10.8498 86.9439 11.357C87.1576 11.866 87.3191 12.3877 87.4276 12.9213V12.9613C87.4276 13.042 87.4404 13.0955 87.4678 13.1218V13.3623C87.4678 13.3903 87.4746 13.4226 87.4883 13.4626C87.5003 13.5025 87.508 13.5365 87.508 13.5628C87.508 13.6971 87.5208 13.777 87.549 13.8033V14.0038H87.5892Z" fill="white"/>
<path d="M95.8453 10.6534C94.4197 12.0659 93.6933 13.7548 93.6668 15.7192V20.3547H102.621H102.662C104.356 20.3547 105.793 19.7786 106.977 18.6266C108.187 17.5004 108.792 16.0996 108.792 14.4232C108.792 12.7734 108.187 11.3725 106.977 10.2214C105.793 9.04272 104.356 8.4534 102.662 8.4534H102.621H101.007C98.9913 8.50501 97.2692 9.23916 95.8453 10.6534ZM99.7981 33.75C99.7699 33.75 99.7178 33.7442 99.6366 33.7309C99.5562 33.7167 99.4477 33.6976 99.3144 33.6718C96.9743 33.5403 94.9701 32.6504 93.3036 31.0007C91.6908 29.4292 90.8558 27.4648 90.8037 25.1075V24.9901V15.7982V15.4445V15.2089C90.9644 12.5903 92.0259 10.3645 93.9899 8.53164C95.9786 6.67212 98.3178 5.70408 101.007 5.625H101.089H101.129H102.621L102.662 5.66412V5.625C105.135 5.625 107.26 6.48983 109.035 8.21784C110.809 9.91921 111.697 11.9876 111.697 14.4232C111.697 16.8329 110.809 18.9013 109.035 20.6293C107.287 22.3324 105.189 23.1831 102.742 23.1831H102.662H102.621H93.6668V24.9901C93.7198 26.6399 94.3249 28.0283 95.4821 29.1545C96.6641 30.3065 98.1042 30.8825 99.7981 30.8825C99.9314 30.91 100.066 30.9349 100.201 30.9616H107.34C108.309 30.9616 108.792 31.4202 108.792 32.3358C108.792 33.2789 108.309 33.75 107.34 33.75H99.7981Z" fill="white"/>
<path d="M126.852 18.6821C129.002 18.8833 130.846 19.7126 132.378 21.1685C133.91 22.5997 134.784 24.3214 135 26.3289H134.878H135C134.784 28.4897 133.83 30.2601 132.136 31.641C130.494 33.0218 128.465 33.7123 126.045 33.7123H126.005H125.965H125.884C125.83 33.737 125.79 33.7498 125.763 33.7498H115.559C114.591 33.7498 114.107 33.298 114.107 32.3937C114.107 31.4901 114.591 31.0383 115.559 31.0383H125.763H125.925H125.965C126.771 31.0383 127.524 30.9321 128.223 30.7174C128.922 30.5043 129.546 30.1906 130.099 29.7764C130.649 29.3613 131.099 28.872 131.45 28.3069C131.798 27.7417 132.014 27.0952 132.095 26.3672C131.88 25.0103 131.269 23.8744 130.26 22.9581C129.252 22.0418 128.022 21.5205 126.57 21.3944L119.875 20.716V20.6792C118.261 20.6298 116.902 20.0758 115.801 19.0214C114.724 17.9662 114.16 16.6986 114.107 15.2163V15.103V15.028C114.16 12.7938 115.034 10.9484 116.729 9.49244C118.448 8.03572 120.505 7.28222 122.899 7.23193H123.021H123.102H130.684C131.624 7.23193 132.095 7.68372 132.095 8.58808C132.095 9.4661 131.624 9.90591 130.684 9.90591H123.021H122.899C122.092 9.93065 121.333 10.0687 120.62 10.321C119.906 10.5716 119.29 10.9236 118.765 11.3754C118.241 11.8264 117.818 12.3604 117.495 12.975C117.172 13.5904 116.996 14.2745 116.97 15.028C116.97 15.807 117.245 16.4727 117.797 17.0251C118.348 17.5782 119.04 17.8911 119.875 17.9662L120.076 18.0037H120.117L126.852 18.6821Z" fill="white"/>
<path d="M25.807 49.3001C27.1718 47.8458 27.855 46.0872 27.855 44.0251C27.855 41.9883 27.1718 40.2431 25.807 38.7888C24.4414 37.3336 22.7918 36.6065 20.855 36.6065V36.567H13.8929V51.4824H20.8179H20.855C22.7918 51.4824 24.4414 50.7561 25.807 49.3001ZM20.9299 33.75H21.0041H21.079C23.7093 33.829 25.9308 34.8748 27.743 36.8839C29.6048 38.8678 30.5357 41.2485 30.5357 44.0251C30.5357 46.7748 29.6158 49.169 27.7808 51.2042C25.9435 53.1881 23.7464 54.2204 21.1903 54.2986L20.8179 54.3784H13.8929V66.8753C13.8929 67.8278 13.4463 68.3036 12.5525 68.3036C11.6831 68.3036 11.25 67.8278 11.25 66.8753V52.9107V35.1782C11.25 34.2266 11.6831 33.75 12.5525 33.75H20.855H20.9299Z" fill="white"/>
<path d="M41.7488 65.5106C43.6588 65.5106 45.2974 64.7904 46.663 63.3475C48.0041 61.9314 48.6984 60.2001 48.7481 58.1546V53.5919H40.4834V53.5519H40.4456C38.8819 53.5519 37.5416 54.142 36.4245 55.3223C35.3318 56.4767 34.7867 57.8796 34.7867 59.5316C34.7867 61.132 35.3318 62.549 36.4245 63.7802C37.5905 64.9346 38.9309 65.5106 40.4456 65.5106H40.4834V65.4714H41.7118V65.5106H41.7488ZM41.5997 68.3037H40.4834H40.4456C38.2122 68.3037 36.2501 67.4519 34.5634 65.7465C32.9493 63.9644 32.1431 61.8914 32.1431 59.5316C32.1431 57.0927 32.9359 55.0347 34.5256 53.3552C36.1381 51.6523 38.0875 50.7729 40.3714 50.7204H40.4456H40.4834H41.7118H48.7481V48.5174C48.6984 46.8645 48.1272 45.555 47.0353 44.5848C45.9435 43.562 44.6276 43.0502 43.0892 43.0502C43.0395 43.0502 42.989 43.0427 42.9401 43.0311C42.8904 43.0177 42.8155 42.9977 42.7168 42.9719H36.1271C35.2332 42.9719 34.7867 42.5001 34.7867 41.5557C34.7867 40.6372 35.2332 40.1787 36.1271 40.1787H43.0892C43.1137 40.1787 43.1634 40.1854 43.2383 40.1987C43.3125 40.2121 43.4119 40.2321 43.5357 40.2579C45.5459 40.3896 47.2594 41.0839 48.6739 42.3426C50.1373 43.6012 51.0193 45.2399 51.3176 47.2579C51.3917 47.4688 51.4288 47.6396 51.4288 47.7697V50.7204V53.5519V66.455C51.4288 67.3993 50.9823 67.8711 50.0892 67.8711C49.1954 67.8711 48.7481 67.3993 48.7481 66.455V65.118C46.8365 67.2418 44.5037 68.3037 41.7488 68.3037H41.7118H41.5997Z" fill="white"/>
<path d="M60.7789 59.9325V50.2122V50.1727V43.192H56.0867C55.1249 43.192 54.6431 42.728 54.6431 41.8033C54.6431 40.8517 55.1249 40.3751 56.0867 40.3751H60.7789V35.1774C60.7789 34.2258 61.2598 33.75 62.2226 33.75C63.1853 33.75 63.6662 34.2258 63.6662 35.1774V40.3751H71.125C72.0597 40.3751 72.5279 40.8517 72.5279 41.8033C72.5279 42.728 72.0597 43.192 71.125 43.192H63.6662V50.1727V50.2122V59.8527H63.7062V59.893C63.7062 61.507 64.2678 62.8285 65.3903 63.86C66.5935 64.8914 67.9692 65.421 69.5208 65.4471H69.6814H74.0523C75.0406 65.4471 75.5359 65.9229 75.5359 66.8753C75.5359 67.8269 75.0406 68.3036 74.0523 68.3036H69.7613H69.6814C69.6533 68.3036 69.6134 68.2901 69.5607 68.2641C67.2877 68.2372 65.2696 67.4705 63.5056 65.9624C61.8478 64.5081 60.9514 62.6041 60.8188 60.2503C60.7908 60.1982 60.7789 60.0914 60.7789 59.9325Z" fill="white"/>
<path d="M98.8195 48.5921C98.8058 48.5528 98.799 48.5216 98.799 48.4954C98.799 48.5216 98.8058 48.5528 98.8195 48.5921C98.8315 48.6306 98.8392 48.6765 98.8392 48.7274C98.8392 48.6765 98.8315 48.6306 98.8195 48.5921ZM80.8102 59.7149C80.8632 61.3397 81.4683 62.7071 82.6255 63.8154C83.8878 64.9508 85.3279 65.5181 86.9415 65.5181H86.9817H89.7644H89.8046C91.4985 65.5181 92.9369 64.9508 94.1206 63.8154C95.3308 62.6554 95.9359 61.2626 95.9359 59.637C95.9624 58.7607 96.4461 58.3221 97.388 58.3221C98.3281 58.3221 98.8118 58.7607 98.8392 59.637V59.6764V59.7534C98.8118 62.075 97.9119 64.0868 96.1376 65.7886C94.4155 67.4389 92.3318 68.2783 89.8849 68.3037H89.8046H89.7644H86.9817H86.9415H86.8603C84.4399 68.2513 82.3691 67.4389 80.6487 65.8665C78.9266 64.2934 78.0275 62.3456 77.9463 60.0248V59.637V58.6697V58.3221V50.3907V50.0423V49.9267C77.9728 47.296 78.9667 45.04 80.9307 43.1578C82.8674 41.3002 85.2331 40.3082 88.0295 40.1787H88.3927H89.7644H89.8046H89.8849H90.1277H90.208C90.2345 40.2033 90.2747 40.2172 90.3294 40.2172H90.4499H90.5712H90.6917C90.7182 40.2172 90.7447 40.2304 90.7729 40.2558H90.8943H91.0148C91.0678 40.2812 91.108 40.2943 91.1353 40.2943H91.2567C91.2832 40.2943 91.3097 40.3082 91.337 40.3336H91.4584C91.5114 40.3336 91.5396 40.3468 91.5396 40.3722H91.6601C91.6866 40.3722 91.7062 40.3779 91.7207 40.391C91.7336 40.405 91.7532 40.4107 91.7806 40.4107H91.9019C91.9019 40.4361 91.9421 40.4492 92.0233 40.4492C92.0498 40.4746 92.0754 40.4878 92.1036 40.4878C92.1301 40.4878 92.1498 40.4943 92.1643 40.5074C92.1763 40.5206 92.1968 40.5263 92.225 40.5263H92.3053C92.3583 40.5263 92.3985 40.5402 92.4267 40.5656C92.4532 40.5902 92.4788 40.6042 92.507 40.6042C92.5335 40.6296 92.5737 40.6427 92.6284 40.6427L92.6686 40.6812H92.7087C92.7899 40.6812 92.842 40.6944 92.8703 40.7206H92.9506C92.9506 40.7722 92.9908 40.7976 93.0719 40.7976H93.1121C93.1643 40.8493 93.2053 40.8747 93.2335 40.8747C93.2856 40.8747 93.3258 40.8886 93.354 40.9132C93.407 40.9386 93.4471 40.9526 93.4753 40.9526H93.5557C93.5557 41.0042 93.5959 41.0296 93.677 41.0296C93.7035 41.0296 93.73 41.0428 93.7574 41.0682C93.8104 41.0936 93.8505 41.1075 93.8787 41.1075L93.9189 41.1452C93.9711 41.1977 94.0121 41.2231 94.0403 41.2231C94.0659 41.2231 94.0924 41.2362 94.1206 41.2616C94.1736 41.2871 94.2138 41.3002 94.2411 41.3002L94.2821 41.3387C94.3343 41.3912 94.389 41.4166 94.4428 41.4166L94.4838 41.4551L94.524 41.4936C94.5505 41.4936 94.577 41.5076 94.6043 41.5322C94.6308 41.5322 94.6573 41.5461 94.6855 41.5715C94.6855 41.5969 94.7112 41.6232 94.7659 41.6486C94.7924 41.674 94.8189 41.6871 94.8462 41.6871C94.8462 41.6625 94.8864 41.6871 94.9676 41.765L95.0077 41.8035C95.0342 41.8035 95.0547 41.8166 95.0684 41.842C95.0804 41.8675 95.1009 41.8806 95.1291 41.8806C95.1556 41.906 95.1812 41.9191 95.2094 41.9191C95.2094 41.9716 95.2496 41.997 95.3308 41.997L95.371 42.0355L95.4923 42.1519H95.5325L95.653 42.2675V42.306H95.6932L95.8145 42.4224L95.8547 42.461C95.9077 42.5118 95.9479 42.5389 95.9761 42.5389L96.0162 42.5774L96.1376 42.693V42.7315H96.1778L96.2983 42.8479H96.3393C96.3393 42.8733 96.3786 42.9258 96.4598 43.0029C96.4598 43.0283 96.5 43.0799 96.5812 43.1578C96.6068 43.1824 96.6273 43.2086 96.641 43.2348C96.6538 43.2603 96.6743 43.2849 96.7017 43.3127L96.7427 43.3513L96.8632 43.4668C96.9162 43.5177 96.9564 43.5693 96.9846 43.6218C97.0102 43.6726 97.0512 43.7243 97.1051 43.7767V43.8153H97.1452C97.1717 43.8661 97.1982 43.9177 97.2264 43.9702H97.2666C97.2931 44.0727 97.3196 44.1243 97.3469 44.1243V44.1628L97.4683 44.2793V44.3178C97.4948 44.3432 97.5144 44.3686 97.529 44.3957C97.5409 44.4211 97.5614 44.4457 97.5888 44.4727C97.5888 44.5235 97.6298 44.5891 97.7102 44.6662C97.7102 44.5891 97.7367 44.6531 97.7914 44.8597C97.817 44.9105 97.8512 44.949 97.8922 44.9761C97.9324 45.0007 97.952 45.04 97.952 45.0917C97.952 45.1425 97.9648 45.181 97.9922 45.2064C97.9922 45.2589 98.005 45.2974 98.0332 45.3228C98.0589 45.3499 98.0734 45.3745 98.0734 45.3999C98.0734 45.3228 98.0999 45.3876 98.1537 45.5934C98.1802 45.6204 98.1947 45.6458 98.1947 45.6704C98.1947 45.7229 98.2067 45.7614 98.2349 45.7868C98.2614 45.8139 98.2751 45.8393 98.2751 45.8639C98.2751 45.9163 98.287 45.9549 98.3153 45.9803C98.3417 46.1877 98.4229 46.4582 98.5571 46.7927C98.6101 46.9993 98.6443 47.1682 98.658 47.296C98.6708 47.4247 98.6904 47.5412 98.7186 47.6436C98.7451 47.8256 98.7648 47.9863 98.7793 48.1273C98.7913 48.2699 98.799 48.3929 98.799 48.4954C98.799 48.5216 98.8058 48.5528 98.8195 48.5921C98.8315 48.6306 98.8392 48.6765 98.8392 48.7274V48.7659V48.8044V48.843V48.8823C98.7588 49.7332 98.2751 50.1587 97.388 50.1587C96.4461 50.1587 95.9624 49.7332 95.9359 48.8823V48.843C95.9359 47.2182 95.3308 45.8393 94.1206 44.7055C92.9369 43.5447 91.4985 42.9643 89.8046 42.9643H89.7644H88.0705C86.0535 43.0668 84.3459 43.8153 82.9477 45.2064C81.5769 46.5222 80.8632 48.1601 80.8102 50.1202V58.3221V58.6697V59.7149Z" fill="white"/>
<path d="M121.339 47.9967V48.5976V50.8407V52.9234V55.3668V58.2906V66.8616C121.339 67.8232 120.855 68.3035 119.887 68.3035C118.919 68.3035 118.436 67.8232 118.436 66.8616V58.2906V55.3668V52.9234V50.8407V48.5976C118.436 46.9427 117.856 45.5415 116.7 44.394C115.516 43.2186 114.131 42.5914 112.546 42.5116V42.5507H110.933V42.5116H110.893C108.821 42.5116 107.047 43.244 105.568 44.714C104.116 46.1288 103.362 47.8643 103.309 49.919V66.8616C103.309 67.8232 102.826 68.3035 101.857 68.3035C100.915 68.3035 100.446 67.8232 100.446 66.8616V50.2V34.4201V34.3802V31.9776C100.446 31.016 100.915 30.5356 101.857 30.5356C102.826 30.5356 103.309 31.016 103.309 31.9776V34.3802V34.4201V42.8715C105.353 40.709 107.88 39.6269 110.893 39.6269H110.933H112.304H112.546C114.886 39.7075 116.874 40.5622 118.515 42.1908C120.209 43.7931 121.137 45.7273 121.298 47.9967H121.339Z" fill="white"/>
</svg>
