<svg width="245" height="101" viewBox="0 0 245 101" fill="none" xmlns="http://www.w3.org/2000/svg">
<g clip-path="url(#clip0)">
<path fill-rule="evenodd" clip-rule="evenodd" d="M9.75203 16.5381C11.8394 19.2262 14.1608 22.1458 17.8947 22.9113C20.0721 25.5905 22.0695 28.6702 26.0914 29.5692C28.2957 32.284 30.3561 35.5329 34.378 36.512C37.2032 39.9923 39.1286 43.3658 44.68 43.98C61.0824 45.7958 76.8458 47.4514 92.9512 49.0892C94.7237 51.5014 97.351 53.4329 100.203 55.2042L120.357 67.6834C121.635 68.4756 123.363 68.4756 124.649 67.6834L144.803 55.2042C147.647 53.4418 150.283 51.5014 152.046 49.0892C168.161 47.4603 183.924 45.8047 200.327 43.98C205.887 43.3658 207.803 39.9923 210.629 36.512C214.65 35.5329 216.711 32.284 218.915 29.5692C222.928 28.6702 224.926 25.5994 227.112 22.9113C230.846 22.1369 233.167 19.2262 235.255 16.5381C238.647 15.9239 240.374 14.0369 242.471 11.4912L244.639 8.85653C245.08 8.33136 245.125 7.69049 244.765 7.12082C244.405 6.55116 243.748 6.22182 242.983 6.22182H154.404C143.859 2.15405 134.312 0 122.499 0C110.685 0 101.139 2.15405 90.5939 6.22182H2.01424C1.24946 6.22182 0.592643 6.55116 0.232746 7.12082C-0.127151 7.69049 -0.082164 8.32246 0.349713 8.85653L2.51809 11.4912C4.63249 14.0369 6.35999 15.9239 9.75203 16.5381ZM76.477 31.9636L76.5489 32.1149L77.8446 36.6188C78.8433 40.0635 80.8497 42.7784 83.5759 44.8434L80.1479 44.4874C74.8214 43.9266 70.4037 41.2296 68.4692 37.0283L65.86 31.3494L76.477 31.9636ZM144.381 24.2909L133.008 32.4354L128.284 26.3025C130.066 31.7411 130.848 34.0731 136.022 49.739L122.499 39.9745L108.976 49.739C114.149 34.0731 114.932 31.7411 116.713 26.3025L111.99 32.4354L100.617 24.2909L117.361 24.3176C118.423 21.0776 119.89 16.5559 122.499 8.56279C125.108 16.5559 126.584 21.0776 127.636 24.3176L144.381 24.2909ZM150.904 9.58641V40.6688C150.904 45.2617 150.139 48.3148 142.653 52.9522L123.821 64.6126V61.0344L140.503 50.7003C143.202 49.0358 146.198 46.944 147.017 44.158C147.35 43.0365 147.386 41.817 147.386 40.6688V11.2242L150.904 9.58641ZM121.176 64.6126L102.354 52.9522C94.8677 48.3148 94.1029 45.2617 94.1029 40.6688V9.58641L97.6209 11.2242V40.6688C97.6209 41.817 97.6569 43.0365 97.9898 44.158C98.7996 46.944 101.805 49.0358 104.504 50.7003L121.185 61.0344V64.6126H121.176ZM95.1646 7.61928C103.496 4.54843 112.746 2.83943 122.499 2.83943C132.252 2.83943 141.51 4.54843 149.833 7.61928L146.036 9.39059C138.568 6.9339 130.596 5.67886 122.499 5.67886C114.401 5.67886 106.429 6.925 98.9615 9.39059L95.1646 7.61928ZM168.521 31.9636L179.138 31.3316L176.528 37.0105C174.594 41.2118 170.176 43.9088 164.85 44.4696L161.413 44.8256C164.139 42.7695 166.145 40.0457 167.144 36.601L168.44 32.0971L168.521 31.9636ZM239.159 9.58641C237.495 11.598 236.37 13.307 232.996 13.3872L169.555 14.9893L163.536 35.889C162.231 40.4285 158.767 43.437 153.981 45.1015C154.35 43.6418 154.431 42.1642 154.431 40.6777V9.58641H239.159ZM172.893 17.0366L190.339 16.6894L187.964 21.5405C185.832 25.902 181.198 28.7236 175.62 29.053L169.258 29.4268L172.893 17.0366ZM224.764 19.8226L192.499 21.0954L194.685 16.6004L230.927 15.8883C229.271 17.9445 228.147 19.6891 224.764 19.8226ZM216.531 26.5162L187.127 28.3231C188.783 27.0235 190.168 25.4569 191.203 23.6678L222.703 22.4217C221.021 24.4867 219.932 26.3114 216.531 26.5162ZM208.208 33.5035L181.387 35.7465L183.537 31.0646L214.39 29.2221C212.689 31.3138 211.609 33.2186 208.208 33.5035ZM199.886 40.651L176.402 43.2501C177.995 41.8794 179.282 40.2327 180.181 38.3545L206.076 36.1916C204.357 38.31 203.278 40.2772 199.886 40.651ZM5.84714 9.58641H90.5759V40.6688C90.5759 42.1553 90.6569 43.6418 91.0348 45.0926C86.2392 43.437 82.7752 40.4196 81.4705 35.8801L75.4423 14.9804L12.0104 13.3782C8.63634 13.307 7.51167 11.598 5.84714 9.58641ZM72.1132 17.0366L75.7392 29.4357L69.378 29.0619C63.7906 28.7325 59.1569 25.9109 57.0335 21.5494L54.6672 16.6983L72.1132 17.0366ZM20.234 19.8226C16.851 19.6891 15.7263 17.9445 14.0708 15.8972L50.3124 16.6093L52.4988 21.1043L20.234 19.8226ZM28.4667 26.5162C25.0746 26.3114 23.977 24.4867 22.2944 22.4128L53.7944 23.6589C54.8291 25.448 56.2057 27.0146 57.8613 28.3142L28.4667 26.5162ZM36.7893 33.5035C33.3883 33.2186 32.3176 31.3227 30.6081 29.2221L61.4602 31.0646L63.6106 35.7465L36.7893 33.5035ZM45.1119 40.651C41.7199 40.2772 40.6402 38.31 38.9217 36.1916L64.8163 38.3545C65.716 40.2327 67.0027 41.8794 68.5952 43.2501L45.1119 40.651ZM78.1415 97.4752C75.2263 97.4752 74.6685 96.2646 74.6685 94.1551V85.1384C74.6685 83.1178 75.2263 81.8183 78.1415 81.8183C81.2636 81.8183 81.7944 83.1178 81.7944 85.1384V94.1462C81.7944 96.2646 81.0656 97.4752 78.1415 97.4752ZM78.1415 101C83.486 101 85.8253 98.9439 85.8253 94.3598V84.9336C85.8253 80.225 83.5759 78.2935 78.1415 78.2935C72.716 78.2935 70.6376 80.225 70.6376 84.9336V94.3509C70.6376 98.9439 72.797 101 78.1415 101ZM121.401 78.5516V100.822H134.744V97.1815H125.423V91.3157H133.017V87.7375H125.423V82.0141H134.321V78.5516H121.401ZM47.8381 100.795H60.8754V97.0301H53.0836V96.9322L60.9024 81.6937V78.516H48.504V82.2811H55.9538V82.379L47.8291 98.2763V100.795H47.8381ZM197.168 78.6406H183.951V82.1654H188.585V100.626H192.553V82.1654H197.159V78.6406H197.168ZM173.433 85.8772H169.411V100.653H173.433V85.8772ZM158.336 97.0123H149.734V78.5516H145.712V100.626H158.345V97.0123H158.336ZM111.576 100.626L106.681 92.2236C109.372 91.3602 110.532 89.5889 110.532 86.3222V85.174C110.532 80.5009 108.013 78.5516 102.623 78.5516H97.0001V100.626H100.995V92.8556H102.471L106.906 100.626H111.576ZM100.968 89.215V82.1921H102.677C105.782 82.1921 106.33 83.2781 106.33 85.3698V86.1175C106.33 88.2092 105.521 89.215 102.623 89.215H100.968ZM175.377 78.6406L172.965 80.3852L173.892 83.1801L171.481 81.4355L169.07 83.1801L169.996 80.3852L167.576 78.6406H170.563C170.752 78.062 171.013 77.2521 171.481 75.8279L172.399 78.6406H175.377Z" fill="white"/>
</g>
<defs>
<clipPath id="clip0">
<rect width="245" height="101" fill="white"/>
</clipPath>
</defs>
</svg>
