<svg width="111" height="15" viewBox="0 0 111 15" fill="none" xmlns="http://www.w3.org/2000/svg">
<path d="M13.296 14.064L8.56 0.655999H4.72L8.496 10.8H4.96L6.4 5.872H2.928L0.4 14.064H13.296ZM24.3081 8.384C24.3081 7.584 24.1481 6.832 23.8281 6.128C23.5295 5.456 23.0761 4.848 22.4681 4.304C21.8495 3.78133 21.1081 3.37067 20.2441 3.072C19.3588 2.79467 18.3828 2.656 17.3161 2.656H14.1641V5.184H17.3161C17.4975 5.184 17.6895 5.2 17.8921 5.232C18.1055 5.264 18.3668 5.30667 18.6761 5.36C19.2415 5.47733 19.7748 5.77067 20.2761 6.24C20.7881 6.688 21.0441 7.38133 21.0441 8.32C21.0441 8.8 20.9748 9.22133 20.8361 9.584C20.7081 9.936 20.5161 10.24 20.2601 10.496C19.7801 10.9547 19.2788 11.2427 18.7561 11.36C18.4895 11.424 18.2388 11.472 18.0041 11.504C17.7695 11.5253 17.5401 11.536 17.3161 11.536V7.088H14.1641V14H17.3161C18.3615 14 19.3321 13.856 20.2281 13.568C20.6655 13.4187 21.0601 13.2427 21.4121 13.04C21.7748 12.8373 22.1108 12.6133 22.4201 12.368C22.7295 12.1227 22.9961 11.8453 23.2201 11.536C23.4548 11.2267 23.6521 10.9013 23.8121 10.56C23.9721 10.2187 24.0948 9.86667 24.1801 9.504C24.2655 9.14133 24.3081 8.768 24.3081 8.384ZM35.1363 8.384C35.1363 7.584 34.9763 6.832 34.6562 6.128C34.3576 5.456 33.9043 4.848 33.2963 4.304C32.6776 3.78133 31.9363 3.37067 31.0723 3.072C30.1869 2.79467 29.2109 2.656 28.1443 2.656H24.9923V5.184H28.1443C28.3256 5.184 28.5176 5.2 28.7203 5.232C28.9336 5.264 29.1949 5.30667 29.5043 5.36C30.0696 5.47733 30.6029 5.77067 31.1043 6.24C31.6163 6.688 31.8723 7.38133 31.8723 8.32C31.8723 8.8 31.8029 9.22133 31.6643 9.584C31.5363 9.936 31.3443 10.24 31.0883 10.496C30.6083 10.9547 30.1069 11.2427 29.5843 11.36C29.3176 11.424 29.0669 11.472 28.8323 11.504C28.5976 11.5253 28.3683 11.536 28.1443 11.536V7.088H24.9923V14H28.1443C29.1896 14 30.1603 13.856 31.0563 13.568C31.4936 13.4187 31.8883 13.2427 32.2403 13.04C32.6029 12.8373 32.9389 12.6133 33.2483 12.368C33.5576 12.1227 33.8243 11.8453 34.0483 11.536C34.2829 11.2267 34.4803 10.9013 34.6403 10.56C34.8003 10.2187 34.9229 9.86667 35.0083 9.504C35.0936 9.14133 35.1363 8.768 35.1363 8.384ZM110.309 14.048V11.072H106.613V14.048H110.309Z" fill="#42DFBF"/>
<path d="M44.1564 6.176C44.1564 5.83467 44.1244 5.52 44.0604 5.232C44.007 4.93333 43.911 4.656 43.7724 4.4C43.495 3.87733 42.9777 3.46667 42.2204 3.168C41.8364 2.98667 41.3724 2.85867 40.8284 2.784C40.295 2.70933 39.6764 2.672 38.9724 2.672L35.8044 2.656V5.184H38.9724C39.4417 5.184 39.8684 5.24267 40.2524 5.36C40.6044 5.49867 40.7804 5.78133 40.7804 6.208C40.7804 6.44267 40.6577 6.63467 40.4124 6.784C40.135 6.90133 39.8737 6.976 39.6284 7.008C39.383 7.01867 39.1377 7.03467 38.8924 7.056H35.8044V14.048H38.9724V9.616C40.967 9.616 42.327 9.30667 43.0524 8.688C43.7884 8.048 44.1564 7.21067 44.1564 6.176ZM57.0101 8.32C57.0101 7.91467 56.9728 7.52533 56.8981 7.152C56.8235 6.768 56.7061 6.4 56.5461 6.048C56.2368 5.344 55.7995 4.71467 55.2341 4.16C54.6901 3.62667 54.0448 3.216 53.2981 2.928C52.9248 2.77867 52.5408 2.66133 52.1461 2.576C51.7515 2.49067 51.3515 2.448 50.9461 2.448C49.8475 2.448 48.8448 2.71467 47.9381 3.248C47.4581 3.52533 47.0368 3.84 46.6741 4.192C46.3115 4.53333 45.9915 4.928 45.7141 5.376C45.1701 6.272 44.8981 7.25333 44.8981 8.32C44.8981 9.36533 45.1701 10.3413 45.7141 11.248C45.9915 11.696 46.3115 12.096 46.6741 12.448C47.0368 12.8 47.4581 13.104 47.9381 13.36C48.8661 13.8933 49.8688 14.16 50.9461 14.16C52.0661 14.16 53.0741 13.8933 53.9701 13.36C54.4501 13.104 54.8715 12.8 55.2341 12.448C55.6075 12.096 55.9328 11.696 56.2101 11.248C56.7435 10.3733 57.0101 9.39733 57.0101 8.32ZM53.6661 8.416C53.6661 9.00267 53.5435 9.52533 53.2981 9.984C53.0528 10.4853 52.7008 10.88 52.2421 11.168C52.0288 11.3173 51.8048 11.4293 51.5701 11.504C51.3355 11.568 51.0955 11.6 50.8501 11.6C50.4021 11.6 50.0128 11.5093 49.6821 11.328C49.5008 11.2427 49.3355 11.1413 49.1861 11.024C49.0475 10.896 48.9195 10.7573 48.8021 10.608C48.5675 10.3093 48.3861 9.96267 48.2581 9.568C48.2048 9.376 48.1621 9.184 48.1301 8.992C48.0981 8.8 48.0821 8.60267 48.0821 8.4C48.0821 7.83467 48.1888 7.30667 48.4021 6.816C48.6155 6.32533 48.9301 5.92533 49.3461 5.616C49.5595 5.47733 49.7888 5.37067 50.0341 5.296C50.2795 5.22133 50.5515 5.184 50.8501 5.184C51.3408 5.184 51.8048 5.328 52.2421 5.616C52.6795 5.89333 53.0315 6.28267 53.2981 6.784C53.5435 7.27467 53.6661 7.81867 53.6661 8.416ZM66.0626 6.176C66.0626 5.83467 66.0306 5.52 65.9666 5.232C65.9133 4.93333 65.8173 4.656 65.6786 4.4C65.4013 3.87733 64.884 3.46667 64.1266 3.168C63.7426 2.98667 63.2786 2.85867 62.7346 2.784C62.2013 2.70933 61.5826 2.672 60.8786 2.672L57.7106 2.656V5.184H60.8786C61.348 5.184 61.7746 5.24267 62.1586 5.36C62.5106 5.49867 62.6866 5.78133 62.6866 6.208C62.6866 6.44267 62.564 6.63467 62.3186 6.784C62.0413 6.90133 61.78 6.976 61.5346 7.008C61.2893 7.01867 61.044 7.03467 60.7986 7.056H57.7106V14.048H60.8786V9.616C62.8733 9.616 64.2333 9.30667 64.9586 8.688C65.6946 8.048 66.0626 7.21067 66.0626 6.176ZM76.1484 14.048V2.672H73.0124V11.472H71.9404C71.407 11.472 70.975 11.4027 70.6444 11.264C70.3457 11.136 70.159 10.944 70.0844 10.688C70.031 10.5493 69.9937 10.3893 69.9724 10.208C69.9617 10.0267 69.951 9.824 69.9404 9.6V2.672H66.8044V11.536C66.8044 12.0053 66.927 12.4427 67.1724 12.848C67.4284 13.2 67.807 13.4827 68.3084 13.696C68.7884 13.9307 69.407 14.048 70.1644 14.048H76.1484ZM84.3891 14.048V11.488H79.9411V2.624H76.7731V14.048H84.3891ZM96.1126 14.048L92.0806 2.656H88.8166L92.0326 11.28H89.0246L90.2566 7.088H87.3126L85.1686 14.048H96.1126ZM105.594 5.472C105.573 5.12 105.503 4.80533 105.386 4.528C105.311 4.368 105.21 4.21333 105.082 4.064C104.965 3.91467 104.805 3.76533 104.602 3.616C104.421 3.47733 104.197 3.35467 103.93 3.248C103.674 3.14133 103.375 3.04 103.034 2.944C102.682 2.848 102.293 2.77867 101.866 2.736C101.439 2.69333 100.954 2.672 100.41 2.672H97.2419V5.184H100.41C100.709 5.184 101.077 5.248 101.514 5.376C101.983 5.504 102.218 5.78133 102.218 6.208C102.218 6.53867 101.983 6.75733 101.514 6.864C101.301 6.91733 101.098 6.95467 100.906 6.976C100.725 6.99733 100.559 7.01333 100.41 7.024L97.2579 7.056V9.6H100.474C100.997 9.6 101.413 9.776 101.722 10.128C102.042 10.512 102.207 10.9813 102.218 11.536V14.048H105.226V11.28C105.226 11.0027 105.21 10.752 105.178 10.528C105.157 10.304 105.114 10.1067 105.05 9.936C104.954 9.60533 104.794 9.328 104.57 9.104C104.314 8.88 103.989 8.64 103.594 8.384C103.775 8.29867 103.951 8.208 104.122 8.112C104.293 8.00533 104.447 7.89867 104.586 7.792C104.735 7.67467 104.869 7.54133 104.986 7.392C105.114 7.232 105.221 7.06133 105.306 6.88C105.413 6.688 105.487 6.47467 105.53 6.24C105.573 6.00533 105.594 5.74933 105.594 5.472Z" fill="white"/>
</svg>
