<svg width="331" height="91" viewBox="0 0 331 91" fill="none" xmlns="http://www.w3.org/2000/svg">
<rect width="331" height="91" rx="15" fill="#4E37B2"/>
<mask id="mask0" mask-type="alpha" maskUnits="userSpaceOnUse" x="0" y="0" width="331" height="91">
<path d="M0 15C0 6.71573 6.71573 0 15 0H316C324.284 0 331 6.71573 331 15V33.4356V76C331 84.2843 324.284 91 316 91H15C6.71573 91 0 84.2843 0 76V15Z" fill="#2463F6"/>
</mask>
<g mask="url(#mask0)">
<path opacity="0.5" d="M38.7292 130.682L179.686 -1.72318C182.075 -3.96652 183.429 -7.09738 183.429 -10.374C183.429 -16.8597 178.223 -22.1444 171.738 -22.2414L9.86573 -24.6636C2.42561 -24.7749 -3.9715 -19.4151 -5.16461 -12.0704L-22.1577 92.538C-23.0851 98.247 -20.6476 103.981 -15.893 107.274L19.9183 132.079C25.7337 136.108 33.573 135.525 38.7292 130.682Z" fill="#432BAA"/>
<path opacity="0.5" d="M-15.4127 83.2981L74.4233 -1.03594C75.9964 -2.51265 76.8886 -4.57416 76.8886 -6.73174C76.8886 -11.0008 73.4617 -14.4793 69.1932 -14.5432L-33.0203 -16.0717C-40.4599 -16.1829 -46.8566 -10.8239 -48.0503 -3.47996L-58.0143 57.8205C-58.9426 63.5314 -56.5036 69.2671 -51.7463 72.5603L-34.2168 84.6951C-28.4029 88.7198 -20.5679 88.1377 -15.4127 83.2981Z" fill="#432BAA"/>
</g>
</svg>
