<svg width="33" height="33" viewBox="0 0 33 33" fill="none" xmlns="http://www.w3.org/2000/svg">
<g clip-path="url(#clip0)">
<path d="M25.0744 5.98253C24.3479 5.29089 23.2945 5.06597 22.3489 5.40058C22.0815 5.48994 21.8868 5.72175 21.845 6.00053L21.6349 7.4435C21.3165 9.62297 19.4517 11.2416 17.2491 11.2504H14.2492C13.9049 11.2504 13.605 11.4848 13.5217 11.8188L11.2717 20.8185C11.1715 21.2204 11.416 21.6274 11.8179 21.7277C11.8772 21.7424 11.9381 21.75 11.9992 21.75H15.749C16.0932 21.7499 16.3932 21.5155 16.4765 21.1815L17.834 15.7502H20.7589C23.0042 15.7576 24.9628 14.2273 25.4987 12.0468L26.0522 9.82841C26.4418 8.46384 26.0683 6.99528 25.0744 5.98253Z" fill="#03A9F4"/>
<path d="M0.749784 30.7497C0.335589 30.7496 -0.000140576 30.4138 4.41576e-08 29.9996C4.41576e-08 29.9385 0.0075232 29.8776 0.0222883 29.8183L0.772283 26.8334V26.8019L1.52228 23.8185C1.6056 23.4846 1.90554 23.2502 2.24977 23.2501H4.1577C5.19323 23.2499 6.0328 24.0891 6.03308 25.1246C6.03308 25.278 6.0143 25.4308 5.97718 25.5795L5.78966 26.3295C5.58106 27.1645 4.83085 27.7501 3.97026 27.75H2.08623L1.47876 30.1814C1.3953 30.5158 1.09451 30.7503 0.749784 30.7497ZM2.4612 26.2499H3.97012C4.14216 26.2494 4.29178 26.1319 4.33313 25.9649L4.52064 25.2149C4.57204 25.0152 4.45167 24.8115 4.25192 24.7602C4.22112 24.7523 4.18948 24.7483 4.15763 24.7485H2.83616L2.4612 26.2499Z" fill="#283593"/>
<path d="M8.7699 30.7499H7.70197C6.55381 30.7502 5.62284 29.8196 5.62256 28.6715C5.62249 28.5014 5.64337 28.3319 5.68457 28.167L5.78357 27.768C6.00554 26.8725 6.81093 26.2449 7.73347 26.2485H8.8014C9.94956 26.2505 10.8787 27.1829 10.8767 28.331C10.8765 28.5003 10.8555 28.6688 10.8144 28.8329L10.7154 29.2319C10.4932 30.1252 9.69033 30.7516 8.7699 30.7499ZM7.14097 28.5315C7.06391 28.8418 7.25304 29.1558 7.56339 29.2329C7.60874 29.2441 7.65521 29.2498 7.70197 29.25H8.7699C9.00115 29.2506 9.20294 29.0934 9.25891 28.869L9.3579 28.47C9.43496 28.1596 9.24583 27.8456 8.93548 27.7685C8.89013 27.7573 8.84366 27.7516 8.7969 27.7515H7.72897C7.49772 27.7508 7.29593 27.908 7.23996 28.1325L7.14097 28.5315Z" fill="#283593"/>
<path d="M9.74942 30.7499C9.33522 30.7498 8.99956 30.4139 8.99963 29.9997C8.99963 29.9386 9.00716 29.8777 9.02192 29.8185L9.77192 26.8186C9.87218 26.4164 10.2794 26.1716 10.6817 26.2718C11.0838 26.3721 11.3286 26.7793 11.2284 27.1816L10.4784 30.1815C10.3949 30.516 10.0941 30.7506 9.74942 30.7499Z" fill="#283593"/>
<path d="M18.7491 30.7497C18.3349 30.7495 17.9992 30.4136 17.9993 29.9994C17.9993 29.9383 18.0068 29.8775 18.0216 29.8182L18.7716 26.8333V26.8018L19.5215 23.8184C19.6049 23.4845 19.9048 23.25 20.249 23.25H22.157C23.1925 23.2498 24.0321 24.089 24.0323 25.1245C24.0323 25.2779 24.0136 25.4306 23.9764 25.5794L23.7889 26.3294C23.5803 27.1643 22.8301 27.75 21.9695 27.7499H20.0856L19.4781 30.1813C19.3946 30.5157 19.0938 30.7503 18.7491 30.7497ZM20.4605 26.2498H21.9709C22.143 26.2493 22.2926 26.1318 22.3339 25.9648L22.5215 25.2149C22.5728 25.0151 22.4525 24.8115 22.2527 24.7602C22.2219 24.7522 22.1902 24.7483 22.1584 24.7484H20.8355L20.4605 26.2498Z" fill="#03A9F4"/>
<path d="M26.7692 30.7499H25.7012C24.5531 30.7502 23.6221 29.8196 23.6218 28.6714C23.6218 28.5014 23.6426 28.3319 23.6838 28.167L23.7828 27.768C24.0048 26.8725 24.8102 26.2449 25.7327 26.2485H26.8007C27.9488 26.2482 28.8798 27.1788 28.8801 28.3269C28.8802 28.497 28.8593 28.6664 28.8181 28.8314L28.7191 29.2304C28.4971 30.1259 27.6917 30.7535 26.7692 30.7499ZM25.1402 28.5315C25.0632 28.8418 25.2523 29.1558 25.5627 29.2329C25.608 29.2441 25.6545 29.2498 25.7012 29.25H26.7692C27.0004 29.2506 27.2022 29.0934 27.2582 28.8689L27.3572 28.4699C27.4342 28.1596 27.2451 27.8456 26.9348 27.7685C26.8894 27.7573 26.8429 27.7516 26.7962 27.7514H25.7282C25.497 27.7508 25.2952 27.908 25.2392 28.1324L25.1402 28.5315Z" fill="#03A9F4"/>
<path d="M27.7487 30.7499C27.3345 30.7498 26.9988 30.4139 26.9989 29.9997C26.9989 29.9386 27.0064 29.8777 27.0212 29.8184L27.7712 26.8185C27.8714 26.4163 28.2787 26.1715 28.6809 26.2718C29.0831 26.3721 29.3279 26.7793 29.2276 27.1815L28.4777 30.1815C28.3942 30.516 28.0934 30.7505 27.7487 30.7499Z" fill="#03A9F4"/>
<path d="M14.2493 29.9997C13.9984 29.9995 13.7643 29.874 13.6253 29.6652L12.1253 27.4153C11.8954 27.0707 11.9884 26.605 12.3331 26.3751C12.6778 26.1451 13.1434 26.2382 13.3733 26.5828L14.8733 28.8327C15.1035 29.177 15.0111 29.6428 14.6669 29.8731C14.5433 29.9557 14.3979 29.9997 14.2493 29.9997Z" fill="#283593"/>
<path d="M12.7493 32.2496C12.3352 32.2495 11.9995 31.9135 11.9996 31.4993C11.9997 31.324 12.0612 31.1543 12.1734 31.0196L15.9232 26.5197C16.1887 26.2017 16.6618 26.159 16.9799 26.4245C17.298 26.69 17.3407 27.1631 17.0752 27.4812L13.3253 31.981C13.1827 32.1515 12.9717 32.2499 12.7493 32.2496Z" fill="#283593"/>
<path d="M30.7486 30.749C30.3344 30.7489 29.9987 30.413 29.9988 29.9988C29.9988 29.9377 30.0063 29.8768 30.0211 29.8176L31.521 23.8178C31.6212 23.4156 32.0285 23.1708 32.4307 23.2711C32.8329 23.3713 33.0777 23.7786 32.9775 24.1808L31.4775 30.1806C31.3941 30.5151 31.0934 30.7497 30.7486 30.749Z" fill="#03A9F4"/>
<path d="M22.598 2.04822C21.8774 1.22286 20.8348 0.749741 19.7391 0.750795H11.2494C10.8867 0.750795 10.576 1.01038 10.5114 1.36727L7.5115 17.8666C7.43775 18.2742 7.70844 18.6644 8.11603 18.7381C8.16004 18.7461 8.20476 18.7501 8.24947 18.7501H12.7493C13.0935 18.75 13.3935 18.5156 13.4768 18.1816L14.8358 12.7503H17.2491C20.1992 12.7387 22.6966 10.5699 23.1214 7.65052L23.4964 5.08709C23.651 3.99187 23.3233 2.88337 22.598 2.04822Z" fill="#283593"/>
</g>
<defs>
<clipPath id="clip0">
<rect width="33" height="33" fill="white"/>
</clipPath>
</defs>
</svg>
