<svg width="60" height="60" viewBox="0 0 60 60" fill="none" xmlns="http://www.w3.org/2000/svg">
<g clip-path="url(#clip0)">
<path d="M58.9707 10.7362C58.4199 5.61511 54.3887 1.57214 49.2676 1.03308C36.4355 -0.338013 23.5684 -0.338013 10.7363 1.03308C5.61523 1.57214 1.57227 5.61511 1.0332 10.7362C-0.337891 23.5682 -0.337891 36.4354 1.0332 49.2675C1.58398 54.3885 5.61523 58.4315 10.7363 58.9706C23.5684 60.3417 36.4355 60.3417 49.2676 58.9706C54.3887 58.4198 58.4316 54.3885 58.9707 49.2675C60.3418 36.4354 60.3418 23.5682 58.9707 10.7362Z" fill="url(#paint0_radial)"/>
<path d="M55.7109 12.9023C55.2305 8.36719 51.6445 4.76953 47.0977 4.28906C35.707 3.07031 24.293 3.07031 12.9023 4.28906C8.36719 4.76953 4.76953 8.35547 4.28906 12.9023C3.07031 24.293 3.07031 35.707 4.28906 47.0977C4.76953 51.6445 8.35547 55.2305 12.9023 55.7109C24.293 56.9297 35.707 56.9297 47.0977 55.7109C51.6445 55.2305 55.2305 51.6445 55.7109 47.0977C56.9297 35.707 56.9297 24.293 55.7109 12.9023Z" fill="url(#paint1_linear)"/>
<path d="M0.902344 48.0234C0.949219 48.4336 0.984375 48.8555 1.03125 49.2656C1.58203 54.3867 5.61328 58.4297 10.7344 58.9688C23.5664 60.3399 36.4336 60.3399 49.2656 58.9688C54.3867 58.418 58.4297 54.3867 58.9688 49.2656C59.0156 48.8555 59.0508 48.4336 59.0977 48.0234H0.902344Z" fill="url(#paint2_linear)"/>
<path d="M58.9678 49.2655C59.7061 42.3749 60.0459 35.4608 59.9873 28.5585L46.2764 14.8476C44.5654 12.8905 42.0576 11.6718 39.1162 11.5663C33.0693 11.3437 26.999 11.3554 20.9521 11.5663C15.9365 11.7421 12.4209 15.1171 11.5186 20.0741C11.3545 20.953 11.2607 21.8437 11.1436 22.7226V37.2655C11.2139 37.7343 11.3193 38.203 11.3428 38.6835C11.542 41.7069 12.7842 44.2851 14.7764 46.0312L28.7334 59.9999C35.5771 60.0468 42.4326 59.7069 49.2764 58.9804C54.3857 58.4296 58.4287 54.3866 58.9678 49.2655Z" fill="url(#paint3_linear)"/>
<path d="M58.9688 49.2656C58.418 54.3867 54.375 58.4297 49.2656 58.9688C42.4219 59.6953 35.5781 60.0352 28.7227 59.9883L14.8008 46.0547C16.418 47.4727 18.5273 48.3281 20.9648 48.4219C27.0117 48.6445 33.082 48.6445 39.1289 48.4219C44.6016 48.2227 48.5508 44.1797 48.7266 38.707C48.9141 32.8945 48.9141 27.082 48.7266 21.2695C48.6445 18.75 47.7656 16.5234 46.2891 14.8477L60 28.5586C60.0469 35.4609 59.707 42.375 58.9688 49.2656Z" fill="url(#paint4_linear)"/>
<path d="M37.0781 23.5078C35.3203 21.5977 32.8008 20.3906 30 20.3906C24.6914 20.3906 20.3906 24.6914 20.3906 30C20.3906 32.8008 21.5859 35.3203 23.5078 37.0781L45.7383 59.3086C46.9102 59.2031 48.0938 59.0977 49.2656 58.9688C54.3867 58.418 58.4297 54.3867 58.9688 49.2656C59.0977 48.0938 59.2031 46.9102 59.3086 45.7383L37.0781 23.5078Z" fill="url(#paint5_linear)"/>
<path d="M59.8828 36.4687L41.9883 18.5742C41.5664 18.0234 40.9102 17.6719 40.1719 17.6719C38.9062 17.6719 37.8867 18.6914 37.8867 19.957C37.8867 20.6953 38.2383 21.3516 38.7891 21.7734L59.5664 42.5391C59.707 40.5234 59.8125 38.4961 59.8828 36.4687Z" fill="url(#paint6_linear)"/>
<path d="M11.1436 22.7226C11.2725 21.8437 11.3662 20.953 11.5186 20.0741C12.4209 15.1171 15.9365 11.7304 20.9521 11.5663C26.999 11.3554 33.0693 11.3437 39.1162 11.5663C44.5889 11.7655 48.5381 15.8085 48.7139 21.2812C48.9014 27.0937 48.9014 32.9062 48.7139 38.7187C48.5381 44.1913 44.5889 48.2343 39.1162 48.4335C33.0693 48.6562 26.999 48.6562 20.9521 48.4335C15.4795 48.2226 11.7061 44.1679 11.3428 38.6952C11.3076 38.2265 11.2139 37.746 11.1436 37.2773C11.1436 32.4257 11.1436 27.5741 11.1436 22.7226ZM29.999 45.1874C32.7646 45.1874 35.542 45.2694 38.2959 45.164C42.6318 44.9999 45.292 42.4218 45.3975 38.0858C45.5264 32.6952 45.5264 27.2929 45.3975 21.8905C45.292 17.5663 42.6318 14.9179 38.2959 14.8241C32.7998 14.7069 27.292 14.7069 21.7959 14.8241C17.4951 14.9179 14.8232 17.5077 14.7061 21.7851C14.5537 27.246 14.5537 32.7187 14.7061 38.1796C14.8232 42.4569 17.4951 44.9882 21.7959 45.1523C24.5381 45.2694 27.2686 45.1874 29.999 45.1874Z" fill="url(#paint7_linear)"/>
<path d="M11.1436 22.7226C11.2725 21.8437 11.3662 20.953 11.5186 20.0741C12.4209 15.1171 15.9365 11.7304 20.9521 11.5663C26.999 11.3554 33.0693 11.3437 39.1162 11.5663C44.5889 11.7655 48.5381 15.8085 48.7139 21.2812C48.9014 27.0937 48.9014 32.9062 48.7139 38.7187C48.5381 44.1913 44.5889 48.2343 39.1162 48.4335C33.0693 48.6562 26.999 48.6562 20.9521 48.4335C15.4795 48.2226 11.7061 44.1679 11.3428 38.6952C11.3076 38.2265 11.2139 37.746 11.1436 37.2773C11.1436 32.4257 11.1436 27.5741 11.1436 22.7226ZM29.999 45.1874C32.7646 45.1874 35.542 45.2694 38.2959 45.164C42.6318 44.9999 45.292 42.4218 45.3975 38.0858C45.5264 32.6952 45.5264 27.2929 45.3975 21.8905C45.292 17.5663 42.6318 14.9179 38.2959 14.8241C32.7998 14.7069 27.292 14.7069 21.7959 14.8241C17.4951 14.9179 14.8232 17.5077 14.7061 21.7851C14.5537 27.246 14.5537 32.7187 14.7061 38.1796C14.8232 42.4569 17.4951 44.9882 21.7959 45.1523C24.5381 45.2694 27.2686 45.1874 29.999 45.1874Z" fill="white"/>
<path d="M30 20.3906C24.6914 20.3906 20.3906 24.6914 20.3906 30C20.3906 35.3086 24.6914 39.6094 30 39.6094C35.3086 39.6094 39.6094 35.3086 39.6094 30C39.6094 24.6914 35.3086 20.3906 30 20.3906ZM30 36.3047C26.5195 36.3047 23.6953 33.4805 23.6953 30C23.6953 26.5195 26.5195 23.6953 30 23.6953C33.4805 23.6953 36.3047 26.5195 36.3047 30C36.3047 33.4805 33.4805 36.3047 30 36.3047Z" fill="white"/>
<path d="M42.4561 19.957C42.4561 21.2227 41.4365 22.2422 40.1709 22.2422C38.9053 22.2422 37.8857 21.2227 37.8857 19.957C37.8857 18.6914 38.9053 17.6719 40.1709 17.6719C41.4365 17.6719 42.4561 18.6914 42.4561 19.957Z" fill="white"/>
</g>
<defs>
<radialGradient id="paint0_radial" cx="0" cy="0" r="1" gradientUnits="userSpaceOnUse" gradientTransform="translate(12.3016 52.4371) scale(66.1694)">
<stop stop-color="#FAE100"/>
<stop offset="0.0544" stop-color="#FADC04"/>
<stop offset="0.1167" stop-color="#FBCE0E"/>
<stop offset="0.1829" stop-color="#FCB720"/>
<stop offset="0.2514" stop-color="#FE9838"/>
<stop offset="0.3054" stop-color="#FF7950"/>
<stop offset="0.4922" stop-color="#FF1C74"/>
<stop offset="1" stop-color="#6C1CD1"/>
</radialGradient>
<linearGradient id="paint1_linear" x1="23.0125" y1="26.0694" x2="-78.6346" y2="-31.1071" gradientUnits="userSpaceOnUse">
<stop stop-color="#A1B5D8" stop-opacity="0"/>
<stop offset="0.3094" stop-color="#90A2BD" stop-opacity="0.3098"/>
<stop offset="0.7554" stop-color="#7C8B9C" stop-opacity="0.7569"/>
<stop offset="1" stop-color="#748290"/>
</linearGradient>
<linearGradient id="paint2_linear" x1="30.0003" y1="52.9648" x2="30.0003" y2="62.3173" gradientUnits="userSpaceOnUse">
<stop stop-color="#FAE100" stop-opacity="0"/>
<stop offset="0.3068" stop-color="#FCA800" stop-opacity="0.3059"/>
<stop offset="0.6275" stop-color="#FE7300" stop-opacity="0.6275"/>
<stop offset="0.8685" stop-color="#FF5200" stop-opacity="0.8667"/>
<stop offset="1" stop-color="#FF4500"/>
</linearGradient>
<linearGradient id="paint3_linear" x1="26.5855" y1="26.5017" x2="11.7365" y2="11.6527" gradientUnits="userSpaceOnUse">
<stop stop-color="#833AB4" stop-opacity="0"/>
<stop offset="1" stop-color="#833AB4"/>
</linearGradient>
<linearGradient id="paint4_linear" x1="41.121" y1="54.8774" x2="33.7096" y2="19.938" gradientUnits="userSpaceOnUse">
<stop stop-color="#833AB4" stop-opacity="0"/>
<stop offset="1" stop-color="#833AB4"/>
</linearGradient>
<linearGradient id="paint5_linear" x1="43.9412" y1="43.9412" x2="14.1728" y2="14.1728" gradientUnits="userSpaceOnUse">
<stop stop-color="#833AB4" stop-opacity="0"/>
<stop offset="1" stop-color="#833AB4"/>
</linearGradient>
<linearGradient id="paint6_linear" x1="46.1492" y1="25.9293" x2="36.3054" y2="16.0855" gradientUnits="userSpaceOnUse">
<stop stop-color="#833AB4" stop-opacity="0"/>
<stop offset="1" stop-color="#833AB4"/>
</linearGradient>
<linearGradient id="paint7_linear" x1="41.9121" y1="18.1697" x2="17.6407" y2="42.4411" gradientUnits="userSpaceOnUse">
<stop stop-color="#833AB4"/>
<stop offset="0.0922" stop-color="#9C3495"/>
<stop offset="0.2927" stop-color="#DC2546"/>
<stop offset="0.392" stop-color="#FD1D1D"/>
<stop offset="0.5589" stop-color="#FC6831"/>
<stop offset="0.6887" stop-color="#FC9B40"/>
<stop offset="0.7521" stop-color="#FCAF45"/>
<stop offset="0.7806" stop-color="#FDB750"/>
<stop offset="0.8656" stop-color="#FECB6A"/>
<stop offset="0.9415" stop-color="#FFD87A"/>
<stop offset="1" stop-color="#FFDC80"/>
</linearGradient>
<clipPath id="clip0">
<rect width="60" height="60" fill="white"/>
</clipPath>
</defs>
</svg>
