<svg width="60" height="60" viewBox="0 0 60 60" fill="none" xmlns="http://www.w3.org/2000/svg">
<g clip-path="url(#clip0)">
<path d="M30.0586 60.0609C46.6271 60.0609 60.0586 46.6295 60.0586 30.0609C60.0586 13.4924 46.6271 0.0609131 30.0586 0.0609131C13.4901 0.0609131 0.0585938 13.4924 0.0585938 30.0609C0.0585938 46.6295 13.4901 60.0609 30.0586 60.0609Z" fill="#495F7A"/>
<path d="M60.0117 30.0725L45.7266 18.6116L30.1523 34.1155L13.3125 46.1623L30.0117 60.0725C46.582 60.0725 60.0117 46.6428 60.0117 30.0725Z" fill="#31465B"/>
<path d="M18.3516 39.6002L13.3008 46.0924L19.125 45.3659L20.5781 50.4635L25.6758 43.901L25.6992 43.8658C24.6914 42.8463 23.5781 41.9323 22.3945 41.1237C21.1055 40.4908 19.7461 39.9752 18.3516 39.6002Z" fill="#EF2648"/>
<path d="M41.7656 39.6002C40.3711 39.9752 39.0117 40.4908 37.7109 41.1354C36.5273 41.944 35.4141 42.858 34.4062 43.8776L39.5273 50.4635L40.9805 45.3659L46.8047 46.0924L41.7656 39.6002Z" fill="#EF2648"/>
<path d="M45.363 27.8792C45.363 24.8206 47.2615 21.2346 45.8435 18.7737C44.3669 16.2307 40.2654 16.1018 37.7224 14.6252C35.2615 13.1956 33.1286 9.65649 30.0701 9.65649C27.0115 9.65649 24.8904 13.1956 22.4177 14.6135C19.8747 16.0901 15.7615 16.219 14.2966 18.762C12.8669 21.2229 14.7771 24.8206 14.7771 27.8674C14.7771 30.9143 12.8786 34.512 14.2966 36.9729C15.7732 39.5159 19.8747 39.6448 22.4177 41.1213C24.8786 42.551 27.0115 46.0901 30.0701 46.0901C33.1286 46.0901 35.2497 42.551 37.7224 41.1331C40.2654 39.6565 44.3786 39.5276 45.8435 36.9846C47.2615 34.5237 45.363 30.926 45.363 27.8792Z" fill="#FFA511"/>
<path d="M30.0586 40.2634C36.8996 40.2634 42.4453 34.7177 42.4453 27.8767C42.4453 21.0357 36.8996 15.49 30.0586 15.49C23.2176 15.49 17.6719 21.0357 17.6719 27.8767C17.6719 34.7177 23.2176 40.2634 30.0586 40.2634Z" fill="#FFDC13"/>
<path d="M37.2891 24.9608H32.2969L30.75 20.2147C30.6211 19.828 30.2109 19.6288 29.8359 19.7459C29.6133 19.8163 29.4375 19.992 29.3672 20.2147L27.8203 24.9608H22.8281C22.4297 24.9608 22.1016 25.2889 22.1016 25.6874C22.1016 25.9217 22.2187 26.1444 22.4062 26.2733L26.4492 29.2147L24.9023 33.9608C24.7734 34.3475 24.9844 34.7577 25.3711 34.8749C25.5937 34.9452 25.8398 34.91 26.0273 34.7694L30.0703 31.828L34.1133 34.7577C34.4414 34.992 34.8984 34.9217 35.1328 34.5936C35.2734 34.4061 35.3086 34.16 35.2383 33.9374L33.6914 29.1913L37.7344 26.2499C38.0625 26.0155 38.1328 25.5584 37.8984 25.2303C37.7344 25.078 37.5234 24.9608 37.2891 24.9608Z" fill="white"/>
<path d="M45.832 18.776C45.7969 18.7174 45.7617 18.6705 45.7266 18.6237C44.6484 20.6627 43.3828 22.5963 41.9297 24.3893C43.8633 30.9518 40.1133 37.8307 33.5625 39.7643C29.25 41.0299 24.5977 39.8697 21.3867 36.7174C19.207 37.1393 16.9805 37.3502 14.7539 37.3502C14.6719 37.3502 14.6016 37.3502 14.5195 37.3502C16.1602 39.5533 19.9805 39.7408 22.4062 41.1354C24.8672 42.5651 27 46.0924 30.0586 46.0924C33.1172 46.0924 35.2383 42.5533 37.7109 41.1354C40.2539 39.6588 44.3672 39.5299 45.832 36.9869C47.2617 34.526 45.3516 30.9283 45.3516 27.8815C45.3516 24.8346 47.2617 21.2369 45.832 18.776Z" fill="#F08015"/>
<path d="M34.3711 31.3385L35.2266 33.9635C35.3555 34.3502 35.1445 34.7604 34.7578 34.8776C34.5352 34.9479 34.2891 34.9127 34.1016 34.7721L31.6523 32.9908C28.4531 34.7604 24.9844 36.0143 21.3867 36.7057C26.2617 41.4987 34.0898 41.4401 38.8945 36.5651C42.0469 33.3541 43.2187 28.6901 41.9414 24.3658C39.7617 27.0612 37.2187 29.4049 34.3711 31.3385Z" fill="#E5AF17"/>
<path d="M35.2148 33.9612L34.3594 31.3362C33.4805 31.9338 32.5781 32.4846 31.6406 33.0003L34.0898 34.7815C34.418 35.0159 34.875 34.9456 35.1094 34.6174C35.25 34.4299 35.2969 34.1838 35.2148 33.9612Z" fill="#E5E3E3"/>
<path d="M40.6289 43.9103C42.5156 43.9103 44.3789 44.3322 46.0898 45.1525L41.7773 39.6095C40.3828 39.9845 39.0234 40.5001 37.7227 41.1447C36.5391 41.9532 35.4258 42.8673 34.418 43.8868L35.3437 45.0822C36.9961 44.297 38.8008 43.8986 40.6289 43.9103Z" fill="#B20D24"/>
<path d="M22.4063 41.1354C21.1055 40.4908 19.7461 39.9869 18.3516 39.6002L18.1289 39.8932C20.5898 41.6744 22.043 44.5221 22.043 47.5455C22.043 47.9205 22.0195 48.3073 21.9727 48.6823L25.6875 43.901L25.7109 43.8658C24.7031 42.858 23.5898 41.944 22.4063 41.1354Z" fill="#B20D24"/>
</g>
<defs>
<clipPath id="clip0">
<rect width="60" height="60" fill="white"/>
</clipPath>
</defs>
</svg>
