<svg width="60" height="60" viewBox="0 0 60 60" fill="none" xmlns="http://www.w3.org/2000/svg">
<g clip-path="url(#clip0)">
<path d="M29.8926 59.99C46.4611 59.99 59.8926 46.5585 59.8926 29.99C59.8926 13.4214 46.4611 -0.0100098 29.8926 -0.0100098C13.324 -0.0100098 -0.107422 13.4214 -0.107422 29.99C-0.107422 46.5585 13.324 59.99 29.8926 59.99Z" fill="#FF3501"/>
<path d="M41.3672 17.5779C38.6484 14.8474 35.4492 30.5857 31.2891 30.5857C23.0039 30.5857 23.5547 21.363 23.5547 29.6482C23.5547 33.8083 20.9414 37.5935 23.6719 40.3122L26.0156 33.9841L17.5781 41.4841L38.0859 58.8865V58.8982C48.9492 55.863 57.3281 46.863 59.4727 35.6482L41.3672 17.5779Z" fill="#C70024"/>
<path d="M29.8955 46.8516C39.2088 46.8516 46.7588 39.3016 46.7588 29.9883C46.7588 20.6749 39.2088 13.125 29.8955 13.125C20.5822 13.125 13.0322 20.6749 13.0322 29.9883C13.0322 39.3016 20.5822 46.8516 29.8955 46.8516Z" fill="#ACABB1"/>
<path d="M29.8975 13.135V46.8498C39.2139 46.8498 46.7607 39.303 46.7607 29.9866C46.7607 20.6702 39.2021 13.135 29.8975 13.135Z" fill="#898890"/>
<path d="M29.8975 44.5212C37.9228 44.5212 44.4287 38.0154 44.4287 29.99C44.4287 21.9646 37.9228 15.4587 29.8975 15.4587C21.8721 15.4587 15.3662 21.9646 15.3662 29.99C15.3662 38.0154 21.8721 44.5212 29.8975 44.5212Z" fill="white"/>
<path d="M29.8975 15.4587V44.533C37.9248 44.533 44.4287 38.0291 44.4287 30.0017C44.4287 21.9744 37.9248 15.4587 29.8975 15.4587Z" fill="#D8D7DA"/>
<path d="M38.9443 23.3783L36.4834 20.9174L29.1475 28.2533H22.3389V31.7338H30.5537L38.9443 23.3783Z" fill="black"/>
</g>
<defs>
<clipPath id="clip0">
<rect width="60" height="60" fill="white"/>
</clipPath>
</defs>
</svg>
