<svg width="60" height="60" viewBox="0 0 60 60" fill="none" xmlns="http://www.w3.org/2000/svg">
<path d="M30 60C46.5685 60 60 46.5685 60 30C60 13.4315 46.5685 0 30 0C13.4315 0 0 13.4315 0 30C0 46.5685 13.4315 60 30 60Z" fill="#09CE67"/>
<path d="M60 30C60 29.0508 59.9531 28.1133 59.8711 27.1992L48.668 15.9961L11.3086 43.9922L27.1875 59.8711C28.1133 59.9531 29.0508 60 29.9883 60C46.5703 60 60 46.5703 60 30Z" fill="#1AAD5C"/>
<path d="M45.5625 45.3646H14.4375C12.0937 45.3646 10.1953 43.4662 10.1953 41.1224V18.8802C10.1953 16.5365 12.0937 14.6381 14.4375 14.6381H45.5742C47.918 14.6381 49.8164 16.5365 49.8164 18.8802V41.1224C49.8047 43.4662 47.9062 45.3646 45.5625 45.3646Z" fill="#495F7A"/>
<path d="M10.1953 29.9896V41.1224C10.1953 43.4662 12.0937 45.3646 14.4375 45.3646H45.5742C47.918 45.3646 49.8164 43.4662 49.8164 41.1224V29.9896H10.1953Z" fill="#31465B"/>
<path d="M46.1943 17.7883H15.0107V42.2219H46.1943V17.7883Z" fill="white"/>
<path d="M46.1943 29.9896H15.0107V42.2123H46.1943V29.9896Z" fill="#E9EDF5"/>
<path d="M12.6904 31.7219C13.6418 31.7219 14.4131 30.9507 14.4131 29.9993C14.4131 29.0479 13.6418 28.2766 12.6904 28.2766C11.739 28.2766 10.9678 29.0479 10.9678 29.9993C10.9678 30.9507 11.739 31.7219 12.6904 31.7219Z" fill="#31465B"/>
<path d="M10.9814 29.9896C10.9814 29.9896 10.9814 30.0013 10.9814 29.9896C10.9814 30.9506 11.7549 31.724 12.7041 31.724C13.6533 31.724 14.4268 30.9506 14.4268 30.0013V29.9896H10.9814Z" fill="#1B2C3A"/>
<path d="M27.1182 19.5703H17.8604V28.8281H27.1182V19.5703Z" fill="#DCE1EB"/>
<path d="M27.1182 31.0789H17.8604V40.3367H27.1182V31.0789Z" fill="#CDD2E1"/>
<path d="M21.083 28.8992L16.958 24.7625L19.4424 22.2781L21.083 23.9304L25.5361 19.4773L28.0205 21.9617L21.083 28.8992Z" fill="#FF583E"/>
<path d="M41.9775 24.1992H31.2549V28.0078H41.9775V24.1992Z" fill="#DCE1EB"/>
<path d="M41.9775 35.7078H31.2549V39.5164H41.9775V35.7078Z" fill="#CDD2E1"/>
</svg>
