<svg xmlns="http://www.w3.org/2000/svg" width="98" height="108"><path fill="#fff" d="M89.55 65.598c.923 5.452.05 14.837-8.646 19.451.36 1.983.6 5.423-1.168 8.364-1.39 2.313-3.687 3.834-6.834 4.529-1.6 2.47-7.148 10.16-14.033 10.06-3.663-.053-6.975-2.223-9.87-6.457-2.894 4.235-6.205 6.404-9.87 6.456a4.922 4.922 0 0 1-.13.001c-6.836 0-12.313-7.604-13.902-10.06-3.147-.695-5.444-2.217-6.834-4.53-1.768-2.94-1.529-6.38-1.168-8.363-8.695-4.614-9.568-14-8.646-19.45C.491 59.766-.479 52.578.156 47.481c.562-4.497 2.438-8.08 3.226-9.422-.57-9.359 1.282-16.405 5.51-20.951a15.548 15.548 0 0 1 9.1-4.83c2.98-6.31 8.046-7.532 11.13-7.234C34.888-.335 40.223-.463 43.74.417c2.318.58 4.134 1.666 5.26 2.487 1.126-.82 2.941-1.907 5.26-2.487 3.515-.878 8.85-.75 14.618 4.628 3.08-.297 8.149.925 11.13 7.235a15.552 15.552 0 0 1 9.1 4.829c4.226 4.546 6.08 11.592 5.51 20.95.787 1.344 2.664 4.926 3.225 9.423.637 5.098-.333 12.285-8.292 18.116zm4.581-17.65c-.593-4.754-2.952-8.342-2.976-8.378a1.877 1.877 0 0 1-.31-1.171c.609-8.535-.878-14.82-4.42-18.679-3-3.269-6.557-3.731-7.48-3.797-8.692 3.062-8.889 10.075-8.894 10.376a1.877 1.877 0 0 1-1.87 1.852h-.012a1.865 1.865 0 0 1-1.856-1.865c0-.388.119-9.047 9.857-13.293-2.831-5.015-6.976-4.245-7.482-4.129a1.932 1.932 0 0 1-.868-.004l-3.38 4.547a1.862 1.862 0 0 1-2.616.385c-.828-.618-1-1.79-.384-2.62l3.438-4.625c-3.198-2.473-6.457-3.312-9.712-2.498-2.055.515-3.597 1.575-4.332 2.16v91.193c2.514 4.506 5.232 6.812 8.081 6.857H59c4.837 0 9.67-6.445 11.132-8.943.28-.479.76-.81 1.307-.902 2.457-.41 4.172-1.396 5.094-2.93 1.702-2.83.442-6.837.428-6.877a1.873 1.873 0 0 1 1.038-2.313c7.682-3.296 8.33-10.46 8.049-14.383-2.151 1.213-4.244 1.822-6.262 1.822a9.82 9.82 0 0 1-2.76-.395c-6.057-1.763-8.74-8.866-8.85-9.167a1.872 1.872 0 0 1 1.106-2.404c.964-.36 2.04.135 2.4 1.103.02.057 2.157 5.654 6.4 6.877 2.382.687 5.137-.14 8.184-2.465.137-.105.283-.187.435-.248 5.693-3.904 8.194-8.978 7.431-15.086zM42.691 4.016c-3.908-.92-7.818.543-11.623 4.351a1.867 1.867 0 0 1-1.775.493 4.99 4.99 0 0 0-1.09-.109c-1.749 0-5.11.748-7.203 5.984a1.87 1.87 0 0 1-1.736 1.176c-.161.003-4.284.098-7.69 3.808-3.543 3.86-5.03 10.144-4.421 18.679a1.88 1.88 0 0 1-.31 1.172c-.38.577-9.225 14.333 4.723 23.644.657.439.968 1.244.777 2.011-.124.506-2.931 12.525 7.656 17.069a1.873 1.873 0 0 1 1.038 2.312c-.012.036-1.286 4.048.436 6.892.925 1.526 2.636 2.507 5.085 2.916a1.877 1.877 0 0 1 1.307.902c1.47 2.513 6.373 9.02 11.216 8.943 2.824-.044 5.52-2.31 8.014-6.738V6.155c-.778-.608-2.343-1.654-4.404-2.14zm16.687 76.057c.065-.278 1.324-6.15-4.746-12.23a1.873 1.873 0 0 1 0-2.646 1.867 1.867 0 0 1 2.643 0c4.597 4.603 5.769 9.252 5.954 12.3a8.786 8.786 0 0 1 3.206-.604 1.872 1.872 0 0 1 0 3.744c-4.604 0-7.848 6.654-8.709 9.218a1.872 1.872 0 0 1-2.366 1.18 1.871 1.871 0 0 1-1.181-2.365c.104-.314 1.773-5.206 5.196-8.585l.003-.012zm25.79-30.024c-.237.085-3.117 1.108-6.746 1.108-3.747 0-8.292-1.09-11.55-5.432-2.78-3.704-3.99-6.918-4.875-9.265-.837-2.223-1.187-2.933-1.714-3.153-.954 2.69-2.295 5.416-4.178 7.808a1.862 1.862 0 0 1-2.625.31 1.873 1.873 0 0 1-.31-2.63c5.829-7.402 5.727-19.074 5.725-19.19a1.871 1.871 0 0 1 1.843-1.9c1.063-.027 1.882.812 1.896 1.845.005.313.043 4.8-1.277 10.157 2.368.73 3.23 3.023 4.139 5.433.85 2.255 1.906 5.06 4.365 8.337 4.735 6.31 13.65 3.19 14.028 3.054a1.872 1.872 0 0 1 1.279 3.518zM37.744 24.341a7.5 7.5 0 0 1-5.608 7.251v15.214h3.739c1.032 0 1.87.838 1.87 1.872v9.597a7.5 7.5 0 0 1 5.608 7.25 7.5 7.5 0 0 1-5.609 7.252v6.09a7.5 7.5 0 0 1 5.61 7.252c0 4.129-3.356 7.488-7.48 7.488-4.123 0-7.477-3.36-7.477-7.488a7.5 7.5 0 0 1 5.608-7.251v-6.091a7.5 7.5 0 0 1-5.608-7.251 7.5 7.5 0 0 1 5.608-7.251V50.55H24.42c-.832 3.226-3.763 5.616-7.242 5.616-4.123 0-7.478-3.36-7.478-7.488 0-4.13 3.355-7.488 7.478-7.488 3.479 0 6.41 2.39 7.242 5.616h3.977V31.592a7.5 7.5 0 0 1-5.61-7.25c0-4.13 3.356-7.489 7.479-7.489s7.478 3.36 7.478 7.488zm-3.739 0a3.746 3.746 0 0 0-3.739-3.744 3.746 3.746 0 0 0-3.74 3.744 3.746 3.746 0 0 0 3.74 3.745 3.747 3.747 0 0 0 3.74-3.745zM20.918 48.678a3.746 3.746 0 0 0-3.74-3.745 3.746 3.746 0 0 0-3.739 3.745 3.746 3.746 0 0 0 3.74 3.744 3.746 3.746 0 0 0 3.739-3.744zm18.696 16.848a3.745 3.745 0 0 0-3.74-3.744 3.745 3.745 0 0 0 0 7.488c2.063 0 3.74-1.68 3.74-3.744zm0 20.593a3.746 3.746 0 0 0-3.74-3.745 3.746 3.746 0 0 0-3.738 3.745 3.746 3.746 0 0 0 3.739 3.744 3.746 3.746 0 0 0 3.74-3.744z"/></svg>