<svg xmlns="http://www.w3.org/2000/svg" width="82" height="98"><path fill="#fff" d="M39.53 1.49c3.084 1.429 5.179 3.124 6.79 5.05l.104.05-.017.035.07.033-.017.034.121.102a.28.28 0 0 1-.017.035l.104.05-.016.035.069.033a2.779 2.779 0 0 0-.017.035l.122.102-.017.034.07.034-.018.034.07.034a2.779 2.779 0 0 0-.017.034l.07.034-.018.034.07.034-.017.034.07.034-.018.035.07.034-.017.034.069.034-.017.034.07.034-.017.034.069.034-.017.034.07.034-.017.034.069.034.001.085.07.034-.018.035.07.034a1.752 1.752 0 0 1-.017.034l.07.034a1.78 1.78 0 0 0-.017.034l.069.034v.085l.175.17.001.086.122.102v.085l.123.102v.086l.07.033.001.086.07.034v.086l.122.101.001.086.07.034v.085l.07.034.019.137.069.034-.017.035c.03.027.058.056.087.084l.001.086.07.034.019.137.069.033v.086l.07.034.019.137.07.033.036.189.07.033v.086l.087.085.037.188.07.034.054.24.07.033.054.24.07.033.09.342.069.034.233.752.339.889-.034.068.142.324a7.444 7.444 0 0 1-.034.07c.042.09.083.182.124.273l-.033.069.088.17-.034.07.089.17-.034.069.088.17-.033.07.07.119-.033.068.07.12-.034.068.053.069-.034.069.07.119c-.01.023-.022.046-.033.068l.053.069-.034.069.07.119-.033.069.052.068-.015.12.034.017-.033.069.052.068-.032.154.052.069a7.117 7.117 0 0 0-.033.068l.052.068-.033.07.052.067-.033.07.035.016-.034.069.052.068a41.7 41.7 0 0 1-.032.155l.053.068-.032.24.053.068-.032.24.053.068-.034.07.035.016-.034.069.035.017-.033.069c.011.005.023.01.034.017l-.033.068.034.017-.033.07.034.016-.033.069c.011.005.023.01.035.017l-.033.154.035.017-.034.069.035.016-.034.07.035.016-.034.07.035.016-.034.069c.012.005.024.01.035.017l-.033.068.034.017-.032.155.034.017-.033.069c.011.005.023.01.034.017l-.05.103c.012.006.023.01.035.017l-.033.154.035.017-.05.103.034.017-.032.154.035.017-.05.104.034.016-.033.07.034.016-.05.103.035.017-.034.07.035.016-.05.103.034.017-.034.069c.012.006.023.01.035.017l-.066.223.035.017-.034.069a.28.28 0 0 1 .035.017l-.066.223.035.017-.05.103.034.017-.05.103.034.017-.05.103.035.017-.05.103.034.017-.05.104.034.016-.05.104.035.017-.067.137.034.017-.05.103.035.017-.05.104.034.016-.1.292.035.017-.05.104c.011.005.023.01.035.017l-.068.137.035.017-.067.138.035.016-.084.173.035.016-.068.138.035.017-.116.327c.011.006.023.01.035.017l-.645 2.028-.218.447c.012.006.023.01.035.017l-.268.55c-.342.703-.652 1.002-1.172 1.176l-.12.07-.068-.034-.069.052-.155-.033a8.067 8.067 0 0 1-.068.052l-.637-.098c-.157-.028-.317-.203-.382-.27a72.22 72.22 0 0 1-.191-.136l.016-.034-.069-.034.017-.035-.104-.05-.001-.086-.122-.102v-.085a4.923 4.923 0 0 0-.07-.034l-.055-.24-.052-.068.033-.068a10.331 10.331 0 0 0-.052-.068l.016-.12-.035-.017.033-.07-.034-.016.033-.069-.034-.017.05-.103-.035-.017.05-.103-.034-.017.05-.103-.034-.017.067-.138-.035-.017.134-.275-.035-.017.503-1.032-.035-.017.202-.413-.035-.017.15-.31a1.42 1.42 0 0 1-.034-.017l.2-.499c.042-.252.142-.56.179-.807l.084-.172.302-1.854c-.011-.005-.023-.01-.034-.017l.033-.068-.034-.017.05-.103-.035-.017.05-.19-.035-.016.033-.069c-.011-.005-.023-.01-.034-.017l.05-.103-.035-.017.033-.154-.035-.017.05-.104-.034-.016.033-.07-.034-.016.031-.24-.035-.017.05-.103-.034-.017.031-.24-.034-.017.033-.07-.034-.016.032-.154a7.38 7.38 0 0 1-.052-.068c.01-.024.022-.046.033-.07l-.034-.016.033-.07-.035-.016.034-.069-.035-.017.034-.069-.035-.016.034-.07-.053-.068.032-.24a10.331 10.331 0 0 1-.053-.068l.032-.154-.034-.017.016-.12a10.331 10.331 0 0 0-.053-.068l.032-.155c-.011-.005-.023-.01-.034-.017l.016-.12-.053-.068.034-.069-.035-.016.016-.12-.053-.069.034-.068-.07-.12.033-.069-.053-.068.034-.068-.07-.12.033-.07-.07-.119.033-.068-.088-.17.034-.07-.089-.17.034-.07-.106-.221.033-.069-.142-.325.034-.068-.231-.581c-.136-.39-.228-.774-.428-1.145l-.108-.393a3.042 3.042 0 0 1-.07-.034c-.017-.08-.036-.16-.054-.239l-.069-.034-.037-.188-.069-.033-.019-.138-.07-.033a67.062 67.062 0 0 0-.036-.189l-.07-.033v-.086l-.07-.034-.019-.136-.069-.034v-.086a41.097 41.097 0 0 1-.07-.033l-.02-.138-.068-.033-.001-.086a41.097 41.097 0 0 1-.07-.034v-.085l-.122-.102.016-.035-.087-.085v-.085l-.123-.102v-.086l-.122-.102-.002-.085-.121-.102-.001-.086-.07-.034.017-.034a41.097 41.097 0 0 1-.069-.034l.017-.034-.07-.034.017-.034a41.097 41.097 0 0 1-.069-.034l.017-.034-.07-.034.017-.034-.121-.102-.002-.086-.069-.034.017-.034-.07-.034a1.78 1.78 0 0 0 .018-.034l-.104-.05.016-.035-.174-.17.017-.034-.07-.034.018-.035-.07-.033.017-.035-.156-.118a1.78 1.78 0 0 0 .017-.035l-.122-.101.017-.035-.104-.05.016-.035-.069-.033.017-.035-.104-.05.017-.035-.07-.033.017-.035-.19-.135a1.78 1.78 0 0 0 .016-.035l-.069-.034.017-.034-1.462-1.308-.52-.338.017-.034-.433-.254c-.466-.416-1.258-.782-1.94-1.114-.35-.17-.797-.445-1.125-.505l-.813-.353-.017.035-.242-.118-.017.034-.242-.118-.017.035-.208-.102-.016.035-.208-.101-.017.034-.173-.084-.017.035-.173-.085-.017.035c-.109-.04-.218-.078-.328-.117l-.017.034-.138-.068a2.779 2.779 0 0 0-.017.035l-.414-.116-.017.034-.104-.05a3.01 3.01 0 0 1-.016.034l-.139-.068a2.779 2.779 0 0 0-.017.035l-.103-.05-.017.034-.104-.051-.017.035-.104-.05-.016.034-.104-.051a1.752 1.752 0 0 1-.017.034l-.224-.067-.017.035a4.978 4.978 0 0 1-.07-.034l-.016.035-.225-.067-.016.034a41.097 41.097 0 0 1-.07-.033 2.779 2.779 0 0 0-.016.034l-.104-.05-.017.034-.07-.034-.016.035-.104-.05-.016.034-.156-.033-.016.034-.104-.05a2.779 2.779 0 0 0-.017.034l-.07-.033a2.785 2.785 0 0 1-.016.034l-.241-.032-.017.034-.104-.05a1.712 1.712 0 0 1-.017.034l-.24-.032-.018.034c-.023-.01-.046-.022-.069-.034a.28.28 0 0 1-.017.035l-.24-.032-.069.052-.07-.034-.016.034a41.097 41.097 0 0 1-.069-.033 3.01 3.01 0 0 1-.017.034l-.07-.034a1.752 1.752 0 0 1-.016.035l-.069-.034-.017.035a4.978 4.978 0 0 1-.069-.034l-.068.052a22.046 22.046 0 0 0-.155-.033l-.068.052-.156-.033a6.472 6.472 0 0 0-.068.052l-.155-.033-.068.052-.07-.034a8.067 8.067 0 0 1-.067.052l-.07-.033a7.86 7.86 0 0 0-.068.052l-.069-.034a2.779 2.779 0 0 0-.017.034l-.12-.016a8.05 8.05 0 0 1-.069.052c-.023-.01-.046-.022-.069-.034l-.068.053-.07-.034-.067.052-.12-.016-.12.07-.07-.035-.068.053-.12-.016-.12.07a4.923 4.923 0 0 0-.069-.035l-.17.087c-.024-.01-.047-.022-.07-.033l-.222.104a41.097 41.097 0 0 1-.07-.033l-.324.14-.07-.034-.787.298-1.113.352-.034.07-.291.07-.034.069h-.086a3.01 3.01 0 0 1-.017.035l-.137.019-.033.068c-.063.013-.126.024-.19.036l-.033.069h-.086l-.016.035-.086.001a4.386 4.386 0 0 0-.034.069l-.137.018-.034.069h-.086c-.01.024-.022.047-.033.07-.046.005-.092.012-.137.018l-.034.069h-.086l-.085.087-.035-.017-.033.069h-.086l-.034.07h-.085l-.034.069h-.086l-.034.07h-.085l-.034.069h-.086l-.102.122h-.086l-.033.07-.035-.018-.033.07h-.086l-.034.069-.034-.017-.034.069-.034-.017-.034.069-.035-.017a7.444 7.444 0 0 1-.033.069h-.086l-.034.07-.034-.017-.034.068-.034-.016-.034.068c-.011-.005-.023-.01-.034-.017l-.034.07-.035-.017-.033.068a.28.28 0 0 1-.035-.017c-.01.024-.022.046-.033.07l-.035-.017-.033.068-.035-.016a8.188 8.188 0 0 0-.033.068.28.28 0 0 1-.035-.017l-.034.07c-.011-.007-.023-.012-.034-.018l-.17.173a1.228 1.228 0 0 0-.035-.017l-.118.155-.035-.016-.101.12-.035-.016-.05.103-.035-.017-.033.07-.035-.018-.05.103-.035-.016-.033.069-.035-.017-.05.103-.035-.017-.033.069-.035-.017-.135.19-.035-.017-.033.069-.035-.017-.135.19-.034-.017-.05.103c-.012-.006-.024-.01-.035-.017l-.05.103-.035-.016-.237.31-.035-.017-.253.345-.035-.017-.185.293a.28.28 0 0 1-.035-.017l-.067.138c-.011-.005-.023-.01-.034-.017l-.084.172-.035-.016-.083.172-.035-.017-.084.172-.035-.017-.235.396-.035-.016-.134.275-.034-.017-.134.276-.035-.017-.554 1.05c-.089.099-.436.695-.47.878l.034.017-.15.31c.011.005.023.01.034.017l-.134.275.035.017-.151.31.035.016-.203.328-.034-.017-.05.103-.035-.017-.05.103-.035-.016-.05.103-.035-.017-.033.069-.035-.017-.033.069h-.086l-.102.121-.137.019-.034.068-.137.019-.171.087-.035-.017a4.476 4.476 0 0 1-.033.069l-.292.07c-.01.024-.022.047-.033.07a16.76 16.76 0 0 1-.189.036l-.033.068a32.99 32.99 0 0 0-.19.037l-.033.068c-.045.006-.091.013-.137.018l-.034.07-.137.018-.033.069-.138.018-.033.069-.035-.017-.085.086-.086.001-.033.069-.138.018-.033.07h-.086l-.102.12-.086.002-.033.068-.086.001-.034.069h-.086l-.033.07-.035-.018-.033.07h-.086l-.17.173h-.086l-.17.173-.086.001-.033.069-.035-.017-.033.07-.035-.018-.034.069-.034-.017-.034.069-.034-.017-.034.07c-.011-.007-.023-.012-.034-.018l-.034.07c-.011-.007-.023-.012-.034-.018l-.034.069a1.228 1.228 0 0 1-.035-.017l-.033.069-.035-.017-.17.173-.034-.017-.05.103-.035-.016-.033.069-.035-.017-.102.12-.034-.016-.05.103-.035-.017-.102.12-.034-.016-.05.103a.226.226 0 0 1-.035-.017l-.034.07a1.42 1.42 0 0 1-.034-.018l-.05.104-.035-.017-.034.068-.034-.016-.22.276-.035-.017-.034.069-.034-.017-.05.104-.035-.017-.05.103-.035-.017-.05.103-.035-.017-.067.138-.034-.017-.05.104-.035-.017-.05.103-.035-.017-.169.258-.034-.016-.067.137-.035-.016-.067.137-.035-.017-.067.138-.034-.017-.067.138-.035-.017-.996 1.43-.201.414c-.283.32-.586 1.116-.806 1.567-.204.42-.45.941-.516 1.324l-.134.275.035.017c-.04.08-.078.16-.117.241l.034.017-.1.206.034.017-.083.172.034.017-.133.361.035.017-.084.172.035.017-.067.138.034.017-.067.137.035.017-.067.138.034.017-.066.137.034.017-.05.103.034.017-.067.138.035.017-.05.103.034.017-.05.103.035.017-.05.103.034.017-.05.104c.011.005.023.01.034.017l-.05.103.035.016-.05.104.034.016-.066.224.035.017-.034.068.035.017-.066.224.035.017-.05.189c.012.005.024.01.035.017l-.032.154.034.017-.05.103.035.017-.033.155a.28.28 0 0 1 .035.017l-.05.188.035.017-.03.24.034.017-.034.069c.012.006.023.01.035.017l-.034.069.035.017-.034.068.035.017-.034.07.035.016-.033.069c.011.005.023.01.034.017l-.033.068.034.017-.033.07.034.016a7.117 7.117 0 0 0-.033.069l.052.068-.033.069.034.017-.033.069.035.016-.034.07.035.016-.034.069.053.068-.034.069a.28.28 0 0 1 .035.017l-.034.069.053.068-.033.154.035.017-.016.12.053.068-.033.155.053.068-.034.069.035.016-.016.12.053.069-.034.069.07.119-.033.069.053.068-.034.069.07.12a5.796 5.796 0 0 0-.033.068l.07.12-.033.068.07.12-.034.069.089.17-.034.069.088.17c-.01.024-.022.046-.033.07l.124.272c.079.445.231.83.377 1.249l.144.496.07.033.125.445.07.033.072.291.07.034.054.24.07.033.036.188.07.034.018.137.07.034.019.136.069.034.019.137.069.034.001.085.07.034v.086l.07.033v.086l.07.034v.086c.024.01.047.022.07.033l.001.086.07.034v.086c.024.01.047.022.07.033l.001.086.122.102v.085l.123.102v.086l.122.101.001.086.07.034-.017.034.07.034-.018.034.07.034-.017.035.07.033-.018.035.07.034v.085l.175.17-.017.034.07.034-.017.034.174.17-.017.035.104.05-.017.035.07.034-.017.034.174.17a7.804 7.804 0 0 1-.017.034l.104.05a7.804 7.804 0 0 1-.017.035l.122.102a1.78 1.78 0 0 0-.017.035l.104.05a7.804 7.804 0 0 1-.017.034l.07.034a2.779 2.779 0 0 0-.017.035l.103.05a3.01 3.01 0 0 1-.016.034l.069.034a1.78 1.78 0 0 0-.017.035l.278.22a1.78 1.78 0 0 0-.017.035l.07.033a1.752 1.752 0 0 1-.017.035l.104.05-.017.035.104.05a1.712 1.712 0 0 1-.017.034l.104.05-.017.036.139.067a2.779 2.779 0 0 0-.017.034l.104.051a2.779 2.779 0 0 0-.017.034l.104.051-.017.034.138.068-.016.034.103.05-.016.035.138.067a3.01 3.01 0 0 1-.017.035l.139.067-.017.035.139.067a1.712 1.712 0 0 1-.017.034c.098.062.196.125.295.186a2.779 2.779 0 0 0-.017.035l.173.084c.14.132.375.292.521.424l.243.118-.017.035.277.134-.017.035.38.185a3.01 3.01 0 0 1-.016.034l1.402.725c.246.224.528.456.68.715l.02.136c.022.012.045.023.069.034v.086l.035.017-.033.069.07.119-.033.069.052.068-.047.36.035.017-.05.104.034.016-.05.103.034.017-.083.172.034.017c-.038.211-.325.43-.423.518l-.05.104-.035-.017-.102.12a1.228 1.228 0 0 1-.034-.017l-.034.07h-.086l-.033.069-.137.018-.034.069h-.086l-.017.035a5.668 5.668 0 0 1-.069-.034l-.12.07-.155-.033a3.618 3.618 0 0 0-.068.052l-.069-.034-.017.035-.104-.05-.016.033-.07-.033a3.01 3.01 0 0 1-.016.034l-.104-.05-.017.034c-.154-.017-.867-.266-1.037-.42l.017-.034-.347-.168-.571-.321.016-.035-.311-.151c-.289-.262-.731-.486-1.007-.746l-.173-.084-1.286-1.052-1.412-1.41.017-.035c-.023-.01-.046-.022-.07-.034l.018-.034-.104-.05a3.01 3.01 0 0 1 .017-.035l-.122-.101.017-.035-.104-.05a.28.28 0 0 1 .017-.035l-.122-.102.017-.034-.104-.05.016-.035-.174-.17.017-.034-.07-.034.018-.035a41.097 41.097 0 0 1-.07-.033l.017-.034-.07-.034.018-.035a41.097 41.097 0 0 1-.07-.033l.017-.035-.122-.102.017-.034-.121-.102.016-.034-.069-.034.017-.034a41.097 41.097 0 0 1-.07-.034l.017-.034-.069-.034a3.01 3.01 0 0 1 .017-.035c-.023-.01-.046-.022-.07-.034l.017-.034-.121-.102-.001-.085-.175-.17v-.086a70.535 70.535 0 0 0-.175-.17l-.001-.085-.122-.102v-.086a41.097 41.097 0 0 1-.07-.034l-.001-.085-.122-.102-.001-.086a4.923 4.923 0 0 0-.07-.034v-.085a41.097 41.097 0 0 1-.07-.034v-.086c-.024-.01-.047-.022-.07-.033l-.001-.086-.07-.034.018-.034a17.7 17.7 0 0 1-.087-.085l-.002-.086-.069-.033v-.086a41.097 41.097 0 0 1-.07-.034l-.02-.137-.068-.034-.001-.085-.07-.034-.019-.137a5.668 5.668 0 0 1-.069-.034L5.9 36.81l-.07-.034-.036-.189-.087-.084-.001-.086-.07-.034-.036-.188-.07-.033-.054-.24-.07-.034-.072-.29-.07-.034-.09-.342-.07-.12a3.01 3.01 0 0 1 .017-.034 41.097 41.097 0 0 1-.07-.034l-.161-.547-.213-.53.033-.068-.177-.427.033-.07-.124-.272.034-.07-.106-.22c.01-.024.022-.047.033-.07l-.088-.17.034-.07-.089-.17.034-.069-.07-.119.033-.069-.07-.12.033-.068-.07-.12.033-.068-.07-.12.034-.069a.28.28 0 0 1-.035-.017l.016-.12a7.38 7.38 0 0 1-.053-.068l.034-.069-.07-.119.033-.069-.053-.068.016-.12L4 30.861l.033-.154-.053-.069.034-.069-.053-.067.034-.07a7.38 7.38 0 0 1-.053-.067 41.7 41.7 0 0 1 .033-.155 10.331 10.331 0 0 1-.053-.068l.033-.155-.053-.068.033-.154a7.38 7.38 0 0 1-.053-.068l.032-.24-.053-.068.034-.07a1.215 1.215 0 0 0-.035-.016l.033-.07-.034-.016.033-.069-.034-.017.033-.069-.034-.016.032-.155c-.086-.774.004-1.638.037-2.451l.144-.824-.034-.017.05-.103-.035-.017.05-.103-.034-.017.05-.104-.034-.016.082-.258a1.42 1.42 0 0 1-.034-.017l.082-.258-.034-.017.132-.446-.035-.017.247-.86-.035-.016.1-.207c.05-.302.21-.671.263-.979l.484-1.17c.064-.349.356-.818.535-1.186l.218-.448.034.017.235-.482.035.017.167-.344 1.216-1.708.035.017.27-.38.035.018.27-.38.035.017.152-.224.034.017.05-.104.035.017.05-.103.035.017.067-.137.035.016.05-.103.035.017.05-.103.034.016.05-.103.035.017.136-.19.034.017.034-.069.034.017.22-.276.035.017.033-.069.035.017.05-.103.035.016a7.2 7.2 0 0 0 .033-.069l.035.017.05-.103.035.017.033-.069.035.017.05-.103a.28.28 0 0 1 .035.017l.033-.07.035.017.05-.103.035.017.102-.12.034.016.05-.103c.012.006.024.01.035.017l.034-.07.034.018.034-.069.034.017.17-.173.035.017.05-.104.035.017.17-.172.034.016.033-.068.035.016a7.2 7.2 0 0 0 .034-.069l.034.017.17-.173h.086l.101-.12.035.016.034-.07c.011.007.023.012.034.018l.034-.07c.011.007.023.012.034.018l.034-.07h.086l.17-.173h.086l.101-.121.086-.001.102-.12.086-.002.101-.12.035.017.085-.087h.086l.102-.121.086-.001.033-.069.035.017.085-.087h.086l.033-.07.137-.017.034-.07.035.017.084-.086h.086l.034-.07c.046-.005.091-.012.137-.018l.034-.069.137-.018.034-.069.137-.018.033-.069h.086l.085-.087.19-.036.033-.069.137-.018.419-.86c-.023-.075.1-.373.183-.465.13-.143.207-.477.353-.637.152-.168.27-.431.404-.655l.76-1.12.034.016.1-.206.035.017.084-.172a.28.28 0 0 1 .035.017l.067-.138.034.017.084-.172.035.016.067-.137.034.017.067-.138a.28.28 0 0 1 .035.017l.084-.172c.011.005.023.01.035.017l.253-.346.035.017.152-.224.034.017.237-.31.035.016.05-.103.034.017.05-.103c.012.005.024.01.035.017l.05-.104.035.017.22-.276c.012.006.023.01.035.017l.033-.07.035.018.135-.19.035.017.033-.069.035.017.05-.103.035.017.033-.069.035.017.05-.104.035.017.033-.069.035.017.05-.103a.28.28 0 0 1 .035.017l.118-.155.035.016.101-.12a.28.28 0 0 1 .035.017l.05-.104.035.017.033-.07.035.018.033-.069.035.017.17-.173.034.017.05-.103.035.016.17-.172a.28.28 0 0 1 .035.017c.01-.024.022-.046.033-.07l.035.018.17-.173.086-.001.17-.173.034.017.033-.069.035.017.033-.069.035.017.034-.07h.086l.17-.172.085-.001.102-.121h.086l.102-.122h.086l.033-.07.035.018.033-.07h.086l.034-.069.034.017.085-.086.086-.001.034-.069h.086c.01-.024.022-.046.033-.07h.086l.034-.069h.086c.01-.024.022-.046.033-.07l.035.017.085-.086h.086c.01-.024.022-.046.033-.07h.086l.085-.087.137-.018.034-.069h.086l.033-.07.189-.036.034-.068.137-.018.033-.07.19-.035.033-.069.188-.036.034-.069.291-.07.034-.07.189-.036.016-.034h.086l.034-.07.6-.176.033-.07c.063-.01.126-.023.189-.035L26.246.9c.023.01.046.022.07.034l.53-.211.069.034.325-.14.07.034.221-.105.07.034.222-.105.069.034.17-.087c.024.01.047.022.07.034l.12-.07.069.034.12-.07.069.034.119-.07.07.033.119-.07.069.035.068-.052.07.034.119-.07.069.034.068-.053.12.017.017-.035.07.034.068-.052.069.034.068-.052.07.033.068-.052.069.034.068-.052.07.033.016-.034.07.034.067-.052c.052.01.104.022.155.033a7.86 7.86 0 0 0 .069-.052l.155.033.068-.052c.052.01.103.022.155.033l.068-.052.07.034.016-.035.07.034.016-.035.07.034.016-.034.07.033.068-.052.069.034.016-.035.07.034c.005-.011.01-.023.017-.034l.069.034.016-.035.07.034.016-.034c.024.01.047.022.07.033a3.01 3.01 0 0 1 .016-.034l.07.033.016-.034.07.034.016-.035.156.033.016-.034c.024.01.047.022.07.033l.016-.034.07.034a3.01 3.01 0 0 1 .016-.034l.07.033.016-.035.07.034.016-.034.155.033.017-.035.07.034.016-.034.104.05.017-.034.07.034.016-.035.155.033.017-.034.104.05a3.01 3.01 0 0 1 .016-.034l.07.033.016-.034.104.05a3.01 3.01 0 0 1 .017-.034l.07.034.016-.034.104.05.017-.035.069.034.017-.034.103.05.017-.034.07.034.016-.035.225.067a3.01 3.01 0 0 1 .016-.034l.07.033.016-.034.225.066c.005-.011.01-.023.017-.034l.103.05.017-.034.104.05.017-.034.104.051.016-.035.104.05.017-.034.104.051.016-.035.104.05.017-.033.139.067.016-.034.104.05.017-.034.104.05.016-.034.139.067.017-.034.293.1a3.01 3.01 0 0 1 .017-.034l.104.05.017-.034.173.084L36.3.47l.139.068.017-.034.138.067.017-.034c.058.027.115.056.173.084l.017-.035.173.085.017-.035.362.134.017-.034.208.1c.338.056.739.256 1.087.317l.347.169.016-.035c.173.03.359.241.502.202zm-4.392 10.166c2.145.988 3.232 2.418 4.023 3.874l.02.137.034.017v.086l.07.033.126.445.07.034.893 2.648 4.464 12.731 1.198 3.521.445 1.196.52 1.572.45.22.273-.123h.086l.05-.104.035.017.05-.103.034.017.05-.104.035.017.05-.103.035.017.05-.104.035.017.119-.155.034.017.102-.12.034.016.05-.103c.012.005.024.01.035.017l.17-.173.035.016.033-.068a.28.28 0 0 1 .035.017l.101-.121h.086l.17-.174h.086l.102-.121.034.016.085-.086h.086l.034-.07h.086l.033-.07.138-.018.033-.068.137-.019.034-.068.137-.019.034-.069.291-.07.034-.07.445-.123.222-.105.07.034.222-.105.07.034c.056-.03.113-.059.17-.087l.12.016.069-.053.069.034.12-.07.069.035.068-.053.12.017.017-.035.07.034a4.06 4.06 0 0 0 .068-.052l.155.033.068-.052.241.032a7.86 7.86 0 0 0 .068-.052c.052.01.104.022.155.033l.017-.034.241.032.017-.035.104.05.017-.033.069.033.017-.034.155.033a.28.28 0 0 1 .017-.035l.19.05.016-.034.104.05.017-.034.104.05a3.01 3.01 0 0 1 .016-.034l.104.05.017-.034.104.05.017-.034.103.05.017-.034.104.05a3.01 3.01 0 0 1 .017-.033l.259.083a.28.28 0 0 1 .017-.035l.138.068.017-.035c.057.029.115.057.173.084l.017-.034c.057.029.115.056.173.084l.016-.034.208.101.017-.034.57.235.017-.035c.193.036.64.313.745.405l.346.169-.017.034.433.253-.016.035.173.085-.017.034.138.067-.016.035.138.067-.017.034.139.068a2.785 2.785 0 0 1-.017.034l.104.05-.017.035.139.068-.017.034.278.22a3.01 3.01 0 0 1-.017.035l.07.034-.017.034.19.135a1.78 1.78 0 0 0-.016.035l.069.033a1.752 1.752 0 0 1-.017.035l.157.119a7.804 7.804 0 0 1-.017.034l.174.17a2.779 2.779 0 0 0-.017.034l.07.034-.017.034.121.102-.016.035.069.034-.017.034c.023.01.046.022.07.034v.085l.175.17v.086l.07.033.001.086.07.034v.086l.07.033v.086l.07.034.001.085.07.034.018.137.485.236.273-.123.035.017.067-.138.035.017.05-.103.035.017.05-.103c.011.005.023.01.034.017l.05-.104.035.017.05-.103.035.017.034-.069.034.017.05-.104.035.017.034-.068.034.016.05-.103.035.017.102-.121.034.017.034-.069.035.017.05-.103c.011.005.023.01.034.017l.034-.07.035.017.033-.068.086-.001.034-.069.034.017.034-.07c.011.007.023.012.034.018l.034-.069.034.017.034-.069h.086l.102-.121.085-.001.102-.12.086-.002.034-.068.137-.019.034-.069h.086l.033-.07.137-.017.034-.07c.046-.005.091-.012.137-.018l.085-.086.343-.089.033-.069.343-.088.12-.07.069.034.274-.123.069.034.17-.087.07.034.12-.07c.022.012.045.023.069.034l.12-.07.068.034.068-.052.121.016.017-.034.069.033a4.06 4.06 0 0 0 .068-.052l.155.033.068-.052.156.033.068-.052.069.034.017-.034.069.033.017-.034.069.033.017-.034.069.034a3.01 3.01 0 0 1 .017-.034l.069.033.017-.035.069.034.017-.034.24.032.018-.034.103.05.017-.034c.023.01.046.022.07.034l.016-.035.104.05.017-.034.069.034a3.01 3.01 0 0 1 .017-.034l.224.066.017-.034.104.05.017-.034.103.05.017-.034.104.05a1.78 1.78 0 0 0 .017-.034l.104.05.016-.034.45.134c.852.114 2.068.673 2.716 1.28l.295.185-.017.034.138.068c-.005.011-.01.023-.017.034l.226.153a1.78 1.78 0 0 0-.017.034l.104.05-.017.035.104.05-.016.035.103.05a1.78 1.78 0 0 0-.016.035l.069.034-.017.034.19.136a1.752 1.752 0 0 1-.016.034l.122.102-.017.034.104.05-.017.035.174.17-.016.035.069.033-.017.035.07.033-.017.035.069.034-.017.034.07.033-.017.035.069.034-.017.034.07.034-.017.034.069.034v.086l.123.101a3.01 3.01 0 0 1-.017.035l.087.085.001.086.07.033a2.779 2.779 0 0 0-.018.035c.03.028.059.056.087.085l.002.085.069.034.019.137.069.034.019.136.07.034c.011.063.024.126.036.188l.07.034.09.342.069.034-.017.034.07.12c-.01.023-.022.045-.033.068l.195.479-.033.069.16.375-.017.035.052.068c-.01.023-.022.046-.033.068l.195.479-.034.068.196.479-.034.069.196.478-.034.069.053.068-.017.035.16.375-.034.069.195.479-.033.068.195.479-.015.12.052.067.037.189.106.222-.034.068.196.479-.034.069.196.478-.034.069.195.478-.033.069.16.375-.017.035.052.068-.033.069.195.478-.033.069.16.376-.018.034.053.068a7.444 7.444 0 0 1-.034.07l.196.477-.034.07.16.375a1.752 1.752 0 0 1-.017.034l.053.068-.034.069.195.478-.033.07.213.529-.033.069.195.478-.034.069.196.478a4.476 4.476 0 0 1-.034.069l.16.375-.017.035.053.068-.034.069.196.478-.034.069.195.478-.033.07.195.477-.033.07.195.477-.034.07c.054.124.107.25.16.375l-.017.035.053.067a7.444 7.444 0 0 1-.034.07l.196.478-.034.068.195.479a5.796 5.796 0 0 1-.033.068l.195.479-.033.069.16.375.018.138.035.016-.033.07.195.477-.034.069c.065.16.13.32.196.478a7.444 7.444 0 0 1-.034.07l.16.375-.017.034.053.068-.034.07.195.477c-.01.024-.022.046-.033.07l.195.477c-.01.024-.022.046-.033.07l.195.478-.016.12.178.427-.034.068.196.479-.016.12.178.427-.034.069.195.478-.015.12.177.427a7.117 7.117 0 0 0-.033.069l.07.12.02.136.034.017a7.117 7.117 0 0 0-.034.07l.124.272-.033.07.088.17-.034.068.088.171-.033.07.088.17-.033.068.07.12-.034.069.089.17a7.117 7.117 0 0 0-.034.07l.053.067-.034.07.053.067-.016.12.07.12-.033.069.052.068-.033.068.07.12a8.188 8.188 0 0 0-.034.069l.053.068-.016.12.035.017-.034.069.053.068-.034.069.053.068-.034.069.053.067-.034.07.053.068-.034.068.053.068-.033.155.035.017-.016.12.053.068-.033.155.053.068-.032.154.052.069-.031.24.052.068-.032.154.034.017-.033.07.052.067-.033.069.034.017-.033.069c.011.006.023.01.034.017l-.033.069.035.016-.034.069.035.017-.034.069.053.068-.034.069a.28.28 0 0 1 .035.017l-.034.068.035.017-.034.069.035.017-.034.069.035.017-.033.068.034.017a7.117 7.117 0 0 0-.033.07l.034.016-.033.069c.011.005.023.01.034.017-.01.023-.022.046-.033.068l.035.017-.034.07.035.016-.032.24.035.017-.05.103.034.017-.033.069.034.017c-.01.023-.022.046-.033.068l.034.017-.032.155.035.017-.05.103.034.017a5.796 5.796 0 0 0-.033.07.26.26 0 0 1 .034.016l-.032.154.034.017-.05.104.035.016-.034.069.035.017-.05.103.034.017-.032.155.034.016-.05.104.035.016-.034.07.035.016-.066.223.034.017-.033.07.035.016-.066.223.034.017c-.01.024-.022.046-.033.07l.034.016-.065.224.034.016-.05.104.035.016-.05.104.034.017-.05.103.034.016-.05.104c.011.005.023.01.035.017l-.05.103.034.017-.05.103.034.017-.098.378c.012.006.023.01.035.017l-.05.103.034.017-.05.103.034.017-.082.258c.011.005.023.01.034.017l-.067.138.035.016-.132.447.035.017-.132.446.034.017-.132.362.034.016-.084.173c-.05.329-.204.727-.261 1.064l-.117.24c.011.007.023.012.034.018l-.134.275.035.017-.134.275.034.017-.15.31.034.017-.2.413.034.017-.252.516c-.066.36-.367.843-.551 1.222-.105.215-.23.499-.353.637l-.252.516a1.228 1.228 0 0 0-.034-.017l-.201.414c-.257.285-.457.74-.71 1.017l-.252.43-.035-.016-.218.361a.226.226 0 0 1-.035-.017l-.084.173-.034-.017-.084.172-.035-.017-.084.172-.034-.017-.067.138-.035-.017-.067.138-.034-.017-.186.293-.034-.017-.17.259-.034-.017-.253.345-.035-.017-.152.224-.034-.017-.05.104-.035-.017-.05.103-.035-.017-.067.137-.035-.016-.22.276-.034-.017-.136.19-.034-.017-.135.19-.035-.017-.033.069-.035-.017-.05.103-.035-.017-.135.19-.035-.017-.033.069-.035-.017-.135.19-.035-.017-.118.155-.035-.017-.033.07-.035-.018-.05.104a1.42 1.42 0 0 1-.035-.017l-.101.12a1.228 1.228 0 0 0-.035-.016l-.05.103-.035-.017-.101.121-.035-.017-.05.103-.035-.016-.033.068-.035-.016-.101.12-.035-.016-.05.103-.035-.017a4.386 4.386 0 0 0-.033.069l-.035-.017-.102.12a.26.26 0 0 1-.034-.016l-.102.12-.035-.016-.033.069-.035-.017-.033.069-.035-.017-.033.069-.035-.017-.033.068-.035-.016a29.53 29.53 0 0 0-.034.07 1.228 1.228 0 0 0-.034-.018l-.034.069-.034-.017-.034.069-.034-.017-.034.069-.035-.017-.033.069-.035-.017-.033.069-.035-.017-.033.069-.035-.017-.033.069h-.086l-.034.07-.035-.018-.17.173-.085.001-.17.173h-.086l-.102.121-.086.001-.101.12-.086.002-.102.12-.086.001-.101.121h-.087c-.01.024-.022.047-.033.07h-.086l-.034.07h-.085l-.034.07h-.086l-.034.069h-.085l-.034.07-.035-.018-.084.087h-.086l-.034.07h-.086l-.033.069-.138.018-.033.069h-.086l-.034.07h-.086c-.028.03-.056.058-.085.086l-.137.019-.033.069-.138.018-.033.069-.138.018c-.01.024-.022.046-.033.07l-.138.017a7.2 7.2 0 0 0-.033.07h-.086l-.017.034-.086.001-.033.069-.189.036-.034.069-.24.053-.033.07-.292.07-.033.069-.343.088a7.444 7.444 0 0 1-.033.07l-.549.158c-.539.287-1.14.42-1.712.615l-.736.28-2.397.792-.582.228-3.527 1.178c-.6.205-1.182.455-1.816.564l-.325.14a4.923 4.923 0 0 0-.07-.034l-.067.052-.138.018-.017.035a41.097 41.097 0 0 1-.069-.034l-.222.105-.07-.034-.221.105-.07-.034a7.86 7.86 0 0 0-.068.052l-.12-.016-.171.087-.07-.034-.119.07-.07-.034-.119.07-.069-.034-.12.07-.069-.034-.068.052-.069-.034-.12.07-.069-.034-.068.053-.07-.034-.119.07a41.097 41.097 0 0 1-.069-.034l-.068.051-.07-.033-.067.052-.07-.034-.068.052-.069-.034a8.067 8.067 0 0 1-.068.052l-.07-.033a7.86 7.86 0 0 0-.067.052l-.07-.034-.068.052-.155-.033-.068.052-.07-.033a7.86 7.86 0 0 0-.067.051l-.156-.032-.068.051-.155-.032-.068.051c-.052-.01-.103-.022-.155-.033l-.068.052a41.097 41.097 0 0 1-.07-.033 3.01 3.01 0 0 1-.016.034l-.07-.034-.016.035a5.668 5.668 0 0 0-.07-.034l-.016.035a4.978 4.978 0 0 1-.07-.034l-.068.052-.069-.034-.017.035-.069-.034-.017.034-.069-.033-.017.034-.069-.034-.068.053-.671-.029-.017.034a41.097 41.097 0 0 1-.069-.033l-.017.034-.069-.034-.017.035a4.923 4.923 0 0 0-.069-.034l-.017.035-.241-.033-.017.035-.103-.051-.017.035-.07-.034-.016.034-.07-.033-.016.034-.156-.033-.016.035-.104-.051a3.01 3.01 0 0 1-.017.034c-.052-.01-.103-.022-.155-.033l-.017.035-.104-.05-.016.034a21.178 21.178 0 0 0-.156-.033l-.016.034-.104-.05a3.01 3.01 0 0 1-.017.034l-.07-.034-.016.035-.19-.05c-.005.011-.01.023-.017.034l-.103-.05-.017.034-.07-.033-.016.034-.104-.05-.017.034-.103-.05-.017.034-.07-.034-.016.034-.104-.05-.017.035-.224-.067a7.804 7.804 0 0 1-.017.034l-.07-.034-.016.035-.104-.05a7.804 7.804 0 0 1-.017.034l-.103-.05-.017.034-.104-.05a1.752 1.752 0 0 1-.017.034l-.104-.05-.016.033-.139-.067-.017.034-.103-.05a3.01 3.01 0 0 1-.017.034l-.104-.05-.017.034-.104-.05-.016.034-.26-.083-.016.034-.26-.083-.016.034-.414-.116-.017.034-.328-.117a1.78 1.78 0 0 0-.017.034l-.138-.067-.017.034-.139-.067a3.01 3.01 0 0 1-.016.034l-.329-.117a.28.28 0 0 1-.017.035l-.173-.085a7.804 7.804 0 0 1-.016.035l-.208-.101c-.44-.072-.945-.302-1.398-.383l-.311-.151-.017.034-.312-.152a1.752 1.752 0 0 1-.017.035l-.415-.202-.017.034-.519-.252c-.339-.062-.8-.347-1.159-.522-1.304-.634-2.607-1.27-3.911-1.903l-16.442-8.002-12.841-6.25-3.427-1.667.017-.035-.277-.135.017-.034-.208-.1a3.01 3.01 0 0 1 .017-.035l-.173-.085.017-.034-.139-.068a1.78 1.78 0 0 0 .017-.034l-.139-.067.017-.035-.104-.05.017-.035-.138-.067.016-.034-.19-.136.016-.034a41.097 41.097 0 0 1-.069-.034l.017-.034-.104-.051.017-.034-.07-.034a3.01 3.01 0 0 1 .017-.034l-.104-.051.017-.034-.174-.17.017-.035-.07-.033.017-.035a41.097 41.097 0 0 1-.069-.034l.017-.034-.07-.034.017-.034a41.097 41.097 0 0 1-.069-.034l.017-.034-.07-.034.017-.034-.069-.034.017-.035a17.7 17.7 0 0 1-.087-.085l-.001-.085-.122-.102-.02-.137-.068-.034-.001-.085a41.097 41.097 0 0 1-.07-.034l-.019-.137-.069-.033-.055-.24-.069-.034-.126-.444-.088-.171.034-.069-.089-.17.034-.07-.07-.119c.01-.023.022-.046.033-.068l-.07-.12.033-.069-.052-.068.015-.12-.034-.017.033-.069-.052-.068.031-.24a10.331 10.331 0 0 1-.052-.068l.053-1.166.277-1.185.185-.378-.035-.017.184-.38.035.018.218-.448.034.017.134-.275.035.017.1-.207.035.017.1-.207.035.017.304-.448 1.019-1.037.034.017.034-.069c.011.005.023.01.034.017l.05-.104.035.018.17-.173.035.016.033-.068.035.016.033-.069.035.017.033-.068c.012.005.024.01.035.017l.033-.07.035.017.034-.068.034.016.034-.068.034.016c.012-.022.023-.046.034-.069h.086l.17-.173.034.017.085-.087h.086l.102-.121.034.016.085-.086h.086l.034-.07.137-.018.034-.068.137-.019.033-.069.138-.018.033-.069h.086l.017-.035h.086l.034-.07.24-.053.033-.069.292-.07.581-.229.07.034.273-.122.07.033c.04-.022.08-.046.119-.07l.07.035.17-.088.07.034a7.86 7.86 0 0 0 .067-.052l.07.034.12-.07.068.034.068-.052.121.016.017-.034.155.032.068-.051.12.016.017-.035.242.033.068-.052.069.033.017-.034.069.034.017-.035.069.034.017-.035.069.034.017-.034.069.033a1.78 1.78 0 0 0 .017-.034l.069.034.017-.035.069.034.017-.035.24.033.018-.035.103.05.017-.034.07.034.016-.034.19.05.017-.035.104.05.016-.034.07.034.016-.035.225.067c.005-.011.01-.023.017-.035.034.018.069.035.103.051l.017-.034.104.05.017-.034.259.083.016-.034.139.067.017-.034.293.1.017-.034.173.084c.19.03.461.115.656.149l.242.118.017-.035.207.101c.294.048.658.2.95.25l.242.117c.005-.011.01-.023.017-.034l.207.1.017-.034.242.118.017-.034c.07.034.139.068.208.1l.016-.033.208.1.017-.034c.08.04.161.08.242.118l.017-.034.208.101c.545.09 1.145.39 1.691.482l.432.168A1.78 1.78 0 0 0 17.02 67l.467.185c.545.089 1.145.39 1.691.482l.433.168.016-.035.726.269c.532.089 1.124.377 1.657.465l.467.185c.533.09 1.125.375 1.657.466l.242.118.017-.035.208.101a1.78 1.78 0 0 0 .016-.034l.243.118.016-.035.692.252c.367.062.805.252 1.173.315l.242.118.017-.035.208.102a3.01 3.01 0 0 1 .017-.035l.242.118.017-.034.207.1c.215.036.467.108.708.218l.325-.14a.28.28 0 0 1 .035.017l.218-.448c-.067-.099-.07-.201-.107-.307l-.233-.667-.124-.273-.59-1.778-.678-1.862-1.626-4.75-7.483-21.482-.32-.837-1.68-4.904-.91-2.53.034-.068-.106-.222.033-.069-.052-.068.016-.034-.052-.069.033-.069-.07-.12.034-.068a7.38 7.38 0 0 1-.053-.068l.034-.069-.07-.12.033-.068-.053-.068.033-.155a10.486 10.486 0 0 1-.053-.068l.033-.155-.053-.067.034-.07-.035-.016.034-.07-.035-.016.034-.069c-.012-.006-.024-.01-.035-.017l.033-.068-.034-.017.033-.069-.034-.017.033-.069-.034-.016c.01-.024.022-.046.033-.07-.011-.005-.023-.01-.034-.017l.033-.068-.035-.017.032-.24-.035-.017.05-.103-.034-.017.033-.07-.034-.016.065-.223-.034-.017.033-.069-.034-.017.05-.103-.035-.017.05-.103-.034-.017.05-.103-.034-.017.082-.258-.034-.017.067-.138-.035-.016.116-.327-.034-.017.1-.206-.034-.017.1-.207c-.011-.006-.023-.01-.034-.017l.3-.705-.035-.016c.029-.155.166-.273.22-.362.267-.447.459-.812.759-1.12l.168-.26.68-.69.034.016.034-.069.034.017.05-.103.035.017.102-.121.034.016.05-.103.035.017.17-.173.035.017.101-.12.086-.001.17-.173h.086l.102-.121.086-.002.033-.068.035.017.085-.087h.086c.01-.024.022-.047.033-.07.046-.005.092-.012.137-.018l.034-.069h.086l.033-.07.19-.035.033-.069.24-.053.033-.069.292-.071.53-.21c.023.01.046.022.07.034.073-.036.148-.07.222-.106l.069.034.12-.07c.022.012.045.023.069.034l.119-.07.07.035.119-.07.069.034.068-.053.12.017.017-.035.156.033.068-.052.155.033.068-.052.07.034a3.01 3.01 0 0 1 .016-.034l.07.033.016-.035.07.034.016-.034c.023.011.046.023.07.033l.016-.034.07.034.016-.034.07.033.016-.034.07.033.016-.034.241.032.017-.034.104.05.016-.034.156.033.016-.035.793.13.171-.086.138-.019.234-.482c-.107-.167-.067-.4-.094-.598l-.052-.069.033-.068a1.42 1.42 0 0 1-.034-.017l.033-.069-.052-.068.031-.24-.052-.069.032-.154-.035-.017.032-.24-.035-.017.05-.103-.034-.017.033-.07-.034-.016.032-.155-.035-.016.05-.104-.034-.016.034-.07a1.215 1.215 0 0 0-.035-.016l.066-.223-.035-.017.05-.104-.034-.016.05-.104-.034-.016.05-.104-.035-.017.05-.103-.034-.017.067-.137-.035-.017.067-.138-.034-.017.067-.137-.035-.017.084-.172-.035-.017.084-.172-.035-.017.2-.499-.034-.017.2-.413-.034-.016c.026-.144.17-.292.22-.362l.2-.413.035.016.117-.24.035.016.1-.206a.28.28 0 0 1 .035.017l.1-.207.035.017.067-.138.034.017.084-.172.934-.95.035.016.17-.173.034.017.033-.069.035.017.034-.069.034.017.034-.069.034.017.034-.069.034.017.034-.069.035.017.033-.069.035.017.033-.069.035.017.033-.069h.086l.102-.122h.086l.033-.07h.086c.012-.022.023-.045.034-.069h.086l.033-.07h.086c.012-.022.023-.046.034-.069h.086l.033-.07.138-.018.033-.068.137-.019.085-.086.292-.07.033-.07.19-.036.375-.157c.024.01.047.022.07.034l.273-.123.12.016.12-.07.07.034.12-.07.068.035.068-.053.12.017.018-.035.069.034.068-.052.07.034.067-.053.121.017.017-.035c.051.012.103.022.155.033l.068-.052.241.032.068-.051.156.032.016-.034.156.033.016-.034.104.05.017-.034.07.033.016-.034c.052.01.103.022.155.033l.017-.035 1.206.162 1.346.4zm-1.716 2.912a3.01 3.01 0 0 1-.017.034l-.242-.118-.017.035-.139-.068-.016.034-.139-.067a.216.216 0 0 1-.017.034l-.259-.083-.016.035-.07-.034-.016.035-.104-.051-.017.034-.241-.032-.017.035-.07-.034-.016.034-.241-.032-.068.052-.07-.034-.067.052c-.024-.01-.047-.022-.07-.033-.04.022-.08.046-.12.07l-.068-.034-.274.122-.07-.034-.376.157-.137.019-.033.068-.292.072a5.796 5.796 0 0 0-.033.069l-.138.018-.033.069h-.086l-.034.07h-.086l-.17.173-.034-.017-.034.069-.034-.017-.034.069-.034-.017-.17.173-.035-.017-.05.103-.035-.016-.05.103L29 15.65l-.05.103-.035-.017-.067.138-.035-.017-.067.138-.035-.017-.1.206-.035-.016-.167.344-.035-.017-.501 1.118.034.017-.1.207.034.017-.1.292.035.017-.065.223.034.017-.033.068.034.017-.05.104.035.016-.032.24.035.018-.034.069.035.016-.032.155.052.068-.033.069c.011.005.023.01.034.017l-.015.12.052.068-.033.069.088.17-.034.07.213.528.109.394.427 1.145.52 1.572 1.177 3.298 6.787 19.567c.59 1.663 1.178 3.327 1.767 4.99l.823 2.444c.148.425.35.84.395 1.3l-.049.188.035.017-.034.069.035.017-.083.257.035.017-.133.361-.035-.017-.067.138-.035-.017-.067.138-.034-.017-.272.294h-.085l-.034.07a1.42 1.42 0 0 1-.035-.018 5.796 5.796 0 0 1-.033.07l-.138.018-.033.068-.086.001-.017.035-.069-.034-.12.07-.155-.034-.068.052-.069-.033-.017.034-.104-.05-.016.034-.07-.034-.016.035c-.15-.045-.3-.09-.45-.133l-.016.034c-.102-.021-.233-.173-.278-.22-.093-.074-.185-.148-.278-.22l.017-.036a35.739 35.739 0 0 1-.174-.17l.016-.034a41.097 41.097 0 0 1-.069-.033l-.001-.086-.07-.034c-.017-.08-.036-.16-.054-.239-.315-.584-.462-1.243-.677-1.863l-1.5-4.22-7.02-20.32-.624-1.708-.216-.701-.069-.034-.073-.29-.069-.034-.019-.137a41.097 41.097 0 0 1-.069-.034l-.001-.086a17.7 17.7 0 0 1-.087-.085l.017-.034-.122-.102-.001-.086-.262-.255.017-.034a41.097 41.097 0 0 1-.069-.033l.017-.035-.104-.05.017-.035-.07-.033.017-.035-.138-.067.017-.035-.104-.05a1.78 1.78 0 0 0 .016-.035l-.138-.067.017-.035-.208-.1.017-.035-1.16-.607-.017.034-.536-.218a3.01 3.01 0 0 1-.017.034l-.138-.067-.017.034-.138-.067a1.752 1.752 0 0 1-.017.034l-.104-.05-.017.034-.104-.05a3.01 3.01 0 0 1-.016.034l-.104-.05a7.804 7.804 0 0 1-.017.034l-.241-.032-.017.034a41.097 41.097 0 0 1-.07-.033 3.01 3.01 0 0 1-.016.034l-.069-.034a2.779 2.779 0 0 0-.017.035l-.155-.033-.068.052a41.097 41.097 0 0 1-.07-.034 2.779 2.779 0 0 0-.016.034l-.12-.016-.069.052c-.023-.01-.046-.022-.07-.034l-.17.088c-.781.133-1.5.5-2.136 1.046l-.05.104-.035-.017-.05.103c-.012-.006-.023-.01-.035-.017l-.067.138-.035-.017-.067.138-.034-.017-.1.207-.035-.017-.151.31-.035-.018c-.12.134-.362.753-.384.878l-.15.31.034.017-.1.206.034.017-.067.138.034.016-.066.138.034.017-.05.103.034.017-.05.103.035.017-.034.069.035.017-.05.103c-.033 1.091.474 2.105.813 3.078l1.752 5.11 9.608 27.582 2.429 6.972.07.12.394 1.213.213.53-.033.068.07.12a41.7 41.7 0 0 1-.032.154l.052.068-.033.069.034.017-.05.103.035.017-.034.069a.28.28 0 0 1 .035.017l-.05.103.034.017-.067.138.035.017-.101.206.035.017-.017.034a.28.28 0 0 1-.035-.017l-.1.207-.035-.017-.067.138-.034-.017-.05.103-.035-.017-.102.121a.28.28 0 0 1-.035-.017l-.17.173-.034-.017-.085.087h-.086l-.033.07-.035-.017-.068.051-.07-.033-.119.07-.069-.035a6.703 6.703 0 0 1-.068.053l-.362-.049-.017.035-.069-.034a3.01 3.01 0 0 1-.017.034l-.138-.067-.017.035-.138-.068a1.78 1.78 0 0 0-.017.035l-.208-.102-.016.035-.243-.118a.216.216 0 0 1-.017.034l-.207-.101-.017.035-.208-.101a7.804 7.804 0 0 1-.016.034l-.243-.118c-.531-.09-1.124-.375-1.657-.466l-.69-.251-.018.035-.242-.118c-.292-.05-.656-.2-.949-.25a836.59 836.59 0 0 1-.95-.334c-.607-.102-1.275-.43-1.882-.533l-.725-.267c-.532-.09-1.124-.378-1.657-.466l-.467-.185c-.458-.077-.975-.323-1.433-.4l-.467-.184c-.291-.049-.655-.199-.949-.249l-.242-.118c-.217-.036-.504-.145-.725-.182l-.207-.101-.017.034-.208-.1a1.752 1.752 0 0 1-.016.034l-.243-.118a3.01 3.01 0 0 1-.017.034l-.207-.1-.017.033-.208-.1-.016.034-.243-.118-.016.034-.208-.1c-.549-.092-1.143-.392-1.692-.483l-.432-.168-.017.034-.725-.268-.017.035-.208-.102-.017.035-.207-.101-.017.034-.242-.118c-.646-.108-1.37-.467-2.002-.548l-.294-.1a2.779 2.779 0 0 0-.017.034l-.224-.067a1.78 1.78 0 0 0-.017.035 41.097 41.097 0 0 1-.07-.034l-.016.035-.104-.051-.017.034-.155-.033a.28.28 0 0 1-.017.035l-.069-.034-.016.035-.104-.051a4.014 4.014 0 0 0-.068.052 5.668 5.668 0 0 0-.07-.034l-.016.035-.242-.033-.068.053-.155-.034-.068.053-.07-.034-.119.07-.069-.034-.12.07a4.923 4.923 0 0 0-.069-.035l-.17.088a41.097 41.097 0 0 1-.07-.034l-.325.14-.65.194-.034.069-.24.053-.085.087h-.086a4.386 4.386 0 0 0-.034.07h-.086l-.085.086-.034-.016a5.796 5.796 0 0 0-.034.069h-.086l-.17.173h-.085l-.102.122-.035-.017-.101.12-.035-.016-.05.103-.035-.017-.101.121-.035-.017-.661.743-.118.24-.034-.016-.168.344-.034-.017c-.136.152-.343.698-.368.843l-.117.241c-.107.686-.003 1.218.298 1.763l.019.137.122.102v.085l.07.034-.017.035.07.033-.018.034.104.051-.016.035.069.033-.017.034.139.068c.24.233.688.42 1.074.608L7.698 76.3l12.426 6.047c5.607 2.73 11.216 5.459 16.823 8.187l4.257 2.072c.38.185.867.49 1.228.556l.52.252.016-.034.381.185.017-.034.311.151.017-.034.242.118.017-.035.501.202c.422.068.902.245 1.311.297l1.035.249a3.01 3.01 0 0 1 .017-.035l.104.05.017-.034.104.05.016-.034.104.05.017-.034.104.05.016-.033.104.05.017-.034.104.05.017-.034.103.05.017-.034.345.083.017-.035.07.034.016-.035.104.05.017-.034.069.034.017-.034.224.066.017-.034.155.033.017-.034.104.05.016-.034.07.033.016-.034.104.05.017-.034c.052.01.103.022.155.033l.017-.034.069.033a3.01 3.01 0 0 1 .017-.034l.104.05.016-.034.07.033.016-.034.156.033a3.01 3.01 0 0 1 .016-.034l.156.033.016-.035.07.034.016-.034.07.033.016-.034.07.033.016-.034.07.034.016-.034.07.033a3.01 3.01 0 0 1 .016-.034l.07.033.016-.034.07.034.016-.035.07.034.016-.034.07.033.016-.034.07.033.016-.034.07.034.068-.052.24.032.069-.052.241.032.068-.052.155.033.069-.052.155.033.068-.052.069.034.068-.052c.023.01.046.022.07.034l.067-.053.156.033.016-.034.121.016.068-.052.07.034.119-.07.07.034.016-.034.12.016.069-.052.069.033.12-.07c.022.012.045.023.069.034l.068-.051.069.033.068-.052.12.017.172-.088.069.034.068-.052.12.016.171-.087.07.034.222-.105c.776-.134 1.476-.42 2.21-.67l1.164-.37 3.1-1.09.445-.123 3.612-1.265c.62-.212 1.244-.371 1.832-.683l.291-.072.034-.068.24-.054.033-.069h.086l.017-.035h.086l.033-.07h.086l.085-.087.189-.036a7.2 7.2 0 0 0 .033-.069h.086l.034-.07c.046-.005.092-.011.137-.018l.034-.068.137-.018.034-.07.034.017.085-.086h.086l.034-.07.137-.018.034-.069h.085l.085-.087.035.017.102-.12.086-.002.033-.068.086-.001.034-.069h.086l.101-.121.086-.001.102-.121h.086c.056-.059.113-.116.17-.174h.086l.17-.173h.085l.51-.434.035.017.034-.069.034.017.034-.069.034.017.034-.069.035.017.033-.069.035.017.033-.069.035.017.101-.12.035.016.034-.069.034.017.05-.103.035.017.034-.07.034.018.102-.121.034.017.05-.104.035.017.034-.069.034.017.05-.103.035.017.102-.121.035.017.135-.19.034.017.034-.069.034.017.05-.103.035.017.034-.07.035.018c.044-.064.09-.127.135-.19l.034.017.05-.103.035.016.05-.103.035.017.05-.103.035.017.05-.104.035.017.05-.103.035.017 1.05-1.192.084-.172.035.017.067-.138.035.017.083-.172.035.017.084-.172c.011.005.023.01.034.017l.1-.207.035.017.101-.207.035.017.1-.207.035.017.286-.5c.011.007.023.012.034.018l.151-.31.035.017.184-.379.035.017.25-.516c.191-.215.355-.64.505-.947.188-.388.502-.886.568-1.257l.251-.516-.034-.016.184-.379-.035-.017.151-.31-.034-.016.134-.276-.035-.016.117-.242c.054-.328.197-.71.245-1.03l.133-.361-.035-.017.132-.447c-.011-.005-.023-.01-.034-.017l.067-.138-.035-.016.115-.412-.035-.017.05-.104-.034-.017.05-.103-.034-.016.067-.138-.035-.017.05-.103-.034-.017.05-.103-.035-.017.05-.104-.034-.017.05-.103-.034-.016.066-.224-.035-.017.034-.069c-.012-.006-.024-.01-.035-.017l.066-.223-.035-.016.034-.07a.28.28 0 0 1-.035-.017l.066-.223a.28.28 0 0 1-.035-.017l.034-.068-.035-.017.05-.104-.034-.016.032-.155-.034-.017.05-.103-.035-.017.034-.069-.035-.017.05-.103c-.011-.006-.023-.01-.034-.017l.031-.24-.034-.017.049-.189-.035-.016.031-.24c-.011-.007-.023-.012-.034-.018l.033-.068-.034-.017.033-.07-.034-.016.033-.069-.034-.017.033-.069c-.011-.005-.023-.01-.035-.017l.034-.068-.035-.017.034-.069a1.228 1.228 0 0 1-.035-.017l.034-.068-.035-.017.034-.07-.035-.016.034-.069-.035-.017.033-.069a7.49 7.49 0 0 0-.052-.067l.034-.07a.226.226 0 0 1-.035-.017l.033-.068-.034-.017.033-.069-.034-.017.033-.069a10.331 10.331 0 0 0-.052-.068l.031-.24-.053-.068.033-.154a28.354 28.354 0 0 0-.053-.069l.033-.154-.053-.068.034-.07-.053-.067.034-.07a10.331 10.331 0 0 0-.053-.067l.033-.155c-.012-.006-.023-.01-.035-.017l.016-.12-.053-.068.034-.069a10.331 10.331 0 0 1-.053-.068l.034-.069-.07-.12a7.2 7.2 0 0 0 .033-.068l-.034-.017.015-.12-.052-.068.033-.069-.07-.119.033-.07-.07-.119.034-.068-.07-.12c.01-.023.022-.045.033-.068l-.088-.171.015-.12-.052-.068.033-.07-.052-.067-.02-.137-.034-.017.034-.069-.106-.222.033-.069-.142-.324.034-.069-.178-.427.034-.069-.178-.427.016-.12-.195-.478.033-.07-.16-.375.017-.034a28.354 28.354 0 0 0-.052-.068l.033-.07-.213-.529.034-.068-.196-.479.034-.068-.16-.376.017-.035-.053-.068.034-.069-.195-.478.033-.069-.195-.478.033-.069-.195-.478.034-.069-.16-.376.017-.034-.053-.068.034-.069-.196-.478.034-.07-.196-.477.034-.07-.195-.477.033-.07-.195-.478.033-.069-.16-.375a1.78 1.78 0 0 0 .017-.035l-.052-.068.034-.068-.196-.479.034-.069-.196-.478.034-.069-.213-.53.033-.068-.195-.478.033-.069-.195-.478.033-.07-.16-.375.018-.034a28.354 28.354 0 0 0-.053-.069l.034-.068c-.065-.16-.13-.32-.196-.478l.034-.07-.196-.478c.012-.022.023-.045.034-.069l-.195-.478.033-.069-.195-.478.033-.069-.195-.478.033-.068-.16-.377a1.78 1.78 0 0 0 .017-.034l-.052-.068.034-.068-.196-.48.034-.068-.16-.375.017-.035-.053-.068.034-.069-.196-.478.034-.069-.16-.376.017-.034-.052-.069.033-.068c-.07-.177-.142-.353-.213-.53l.034-.068-.16-.376.017-.034a28.354 28.354 0 0 0-.053-.069l.034-.068-.196-.479.034-.069-.195-.478.033-.069-.195-.478.033-.069-.16-.375.017-.035a10.331 10.331 0 0 0-.052-.068l.033-.069-.195-.478.033-.069-.195-.478c-.079-.444-.231-.83-.377-1.248l-.144-.496c-.366-.675-.869-1.317-1.829-1.784l-.761-.37-1-.232a2.779 2.779 0 0 0-.018.034l-.069-.033a1.712 1.712 0 0 1-.017.034l-.103-.05a2.779 2.779 0 0 0-.017.034l-.241-.032-.017.034-.155-.033-.068.052-.07-.034a7.86 7.86 0 0 0-.068.052 41.097 41.097 0 0 1-.069-.033 3.01 3.01 0 0 1-.017.034l-.12-.016-.069.052-.069-.034-.273.123a41.097 41.097 0 0 1-.07-.034l-.376.157-.189.036-.033.069-.292.071a9.032 9.032 0 0 1-.084.086l-.086.001-.034.069-.086.001-.102.12-.086.001-.101.121a.28.28 0 0 1-.035-.017l-.033.07a1.228 1.228 0 0 1-.035-.018l-.17.173c-.011-.005-.023-.01-.034-.017l-.05.104-.035-.017-.034.069a1.228 1.228 0 0 0-.034-.017l-.542.673-.385.792c-.537 1.101-.443 1.935-.291 2.796l.267.683-.034.07c.024.038.047.078.07.118-.01.052-.02.103-.032.155l.053.068-.05.103.034.017-.033.069.034.017-.05.103.035.017-.05.103.034.017-.067.138.034.016c-.034.212-.231.4-.32.483l-.135.19-.035-.017-.033.069-.035-.017a43.07 43.07 0 0 0-.17.173h-.086c-.01.024-.022.046-.033.07l-.292.07a8.067 8.067 0 0 1-.068.052l-.069-.034-.068.053-.07-.034-.067.052a41.097 41.097 0 0 1-.07-.034l-.016.035-.104-.05a1.78 1.78 0 0 0-.017.034 41.097 41.097 0 0 1-.07-.034l-.016.034-.104-.05-.017.034-.103-.05-.017.034-.173-.084a1.752 1.752 0 0 1-.017.034c-.117-.02-.516-.34-.573-.406l.017-.035-.122-.102a1.78 1.78 0 0 0 .017-.034l-.122-.102.017-.034-.087-.085-.001-.085a41.097 41.097 0 0 1-.07-.034l-.59-1.778-1.124-3.144c-.176-.505-.295-1.026-.552-1.503l-.055-.24a41.097 41.097 0 0 1-.07-.034 39.377 39.377 0 0 1-.018-.137l-.07-.034v-.085l-.088-.085.017-.034-.174-.17.017-.035-.07-.033.017-.035-.174-.17.017-.034-.104-.05.017-.035-.07-.034.017-.035-.347-.253c-.452-.434-1.706-1.012-2.301-1.078l-.017.035-.104-.051-.017.034-.19-.05-.016.035c-.052-.01-.104-.022-.155-.033a3.01 3.01 0 0 1-.017.034l-.07-.033-.016.034a41.097 41.097 0 0 1-.07-.033 2.779 2.779 0 0 0-.016.034l-.07-.034-.016.035-.07-.034a2.785 2.785 0 0 1-.016.034l-.07-.033a7.86 7.86 0 0 0-.067.052 41.097 41.097 0 0 1-.07-.034 3.01 3.01 0 0 1-.016.035l-.121-.017-.068.052-.07-.033-.17.087-.07-.034-.53.21-.291.071-.034.07-.189.035-.033.069-.137.018-.034.07h-.086l-.102.12-.085.002-.102.12-.035-.017-.033.07-.035-.018-.17.173-.034-.016-.56.621-.42.775c-.39.801-.517 1.326-.49 1.975l-.034.07c.037.874.408 1.666.686 2.461l1.215 3.572.517 1.401-.034.069.053.068-.032.155.052.068-.05.103.034.017-.033.069.034.017-.05.103.035.017-.05.103.034.017-.067.138c-.05.336-.367.59-.575.741l-.102.121-.086.001a4.386 4.386 0 0 0-.033.069l-.138.018-.084.086c-.024-.01-.047-.022-.07-.033l-.12.07-.068-.034-.068.052-.07-.034a2.779 2.779 0 0 0-.017.035l-.24-.033a7.804 7.804 0 0 1-.017.035l-.225-.067-.017.035-.138-.068-.017.034c-.27-.045-.467-.29-.573-.406l-.103-.05.016-.035-.121-.102.016-.034-.121-.102-.001-.086-.07-.034-.019-.136c-.219-.4-.316-.825-.463-1.247l-.838-2.324-1.644-4.803-7.268-20.78-.144-.495-1.249-3.503c-.204-.587-.342-1.208-.642-1.76l-.037-.189-.069-.033v-.086l-.088-.085a3.01 3.01 0 0 1 .017-.034l-.122-.102-.001-.086-.61-.68-.14-.068c-.362-.35-1.036-.63-1.61-.911z"/></svg>