<svg xmlns="http://www.w3.org/2000/svg" width="104" height="114"><path fill="#fff" d="M32.081 41.27H65.84c.78 0 1.75-.094 2.39.09l.585.046 1.578.454v.046l.225.044v.046h.09v.046h.135v.044l.27.092v.045h.091v.045h.09v.046h.09v.045h.09v.045h.09v.046h.09l.046.09.18.046.045.09.18.046v.046c.046.014.09.03.136.045l.045.09h.09l.09.137h.09l.045.09h.09l.045.09h.046l.045.092h.09l.135.181h.09l.496.545.54.499v.09l.226.182v.09l.135.091.045.137.09.045v.09l.09.046.046.136h.045v.09l.09.046v.09l.09.046.045.182.09.045v.091h.045v.09h.046v.091h.045v.091l.09.046v.09h.045v.09h.045v.137h.045v.091h.045l.045.182h.045v.136h.045v.09h.045v.136h.045v.091h.046l.405 1.452v.272c.183.622.135 1.511.135 2.314v19.056h.045l.09-.136h.09l.452-.5h.09l.315-.362h.09v-.046l.136-.09.09-.137h.09l.225-.272h.09l.045-.09h.045l.09-.136h.09l.136-.182h.09l.135-.182h.09l.136-.181h.09l.09-.136h.09l.09-.136h.09l.09-.136h.09l.09-.137h.091l.09-.136h.09l.09-.136h.09l.046-.09h.09l.09-.137h.09l.045-.09.135-.046v-.045h.09l.046-.09h.09l.045-.092h.09l.045-.09h.09l.045-.091h.09l.045-.09h.09l.046-.092h.09l.045-.09.18-.046.045-.09h.09c.016-.03.03-.06.045-.091l.18-.045.046-.091.18-.046.045-.09.18-.046.046-.09h.09v-.046h.09v-.045h.09l.045-.09h.09v-.046h.09v-.046h.09v-.045h.09c1.134-.717 2.453-1.205 3.742-1.77h.135v-.045h.135v-.045h.135v-.045h.136v-.046h.135v-.045h.135v-.046h.135v-.045h.135v-.045h.136v-.046l.45-.09v-.046l.496-.09v-.046h.18v-.045h.18v-.046h.226v-.045h.18v-.045h.18v-.046h.226c.374-.117.876-.159 1.262-.272h.316v-.045h.36v-.046h.45v-.045h.497v-.045h.766c.33-.093 1.564-.093 1.893 0h.766v.045h.496v.045h.406v.046h.36v.045h.27v.045h.181v.046h.18v.045h.18c.71.254 1.333.592 1.894.998l.225.272.315.227v.091l.316.272v.09l.135.092v.09l.09.046.045.136h.045v.09l.09.046.046.182.09.045.045.181h.045l.045.182h.045v.136h.045v.09h.045v.137h.045v.09h.045l.045.318h.046v.136h.045v.182h.045v.227h.045v.272h.045v.453h.045v.908c.065.234-.028.645.045.908.15.532-.014 1.326.135 1.86v.59l.045 1.224h.045v.908c.146.52-.01 1.295.136 1.815l.09 2.767h.045l.045 1.225v.59h.045l.045 1.225v.59c.065.234-.028.645.045.907.07.248-.032.678.045.953.149.533-.013 1.282.135 1.815.074.262-.02.674.045.908l.18 4.582c.129.468.074 1.896-.044 2.314v.363l-.316 1.542-.496 1.452h-.045l-.045.182h-.045v.136h-.045l-.09.272h-.045v.091h-.045v.09h-.045v.091h-.045v.091h-.045v.091h-.046v.09h-.045v.091h-.045v.091l-.09.045-.09.273h-.045l-.045.136-.09.045-.045.182-.09.045v.09h-.046l-.045.137-.09.045v.09l-.09.046-.045.136-.135.091v.09l-.135.092v.09l-.18.137v.09l-.271.227v.09l-.631.59-.45.5h-.091l-.225.272h-.09l-.136.181h-.09l-.045.091h-.045l-.045.09h-.09l-.045.092h-.09l-.09.136h-.09l-.046.09h-.09l-.045.091h-.09l-.045.091h-.09l-.045.09-.18.046-.046.09-.18.046-.045.091h-.09v.045h-.09v.046h-.09v.045h-.09l-.046.091-.405.136v.045h-.09v.046l-.271.09v.046h-.135v.045l-.18.045v.046l-.271.045v.045h-.09v.046l-.27.045v.046h-.136v.045h-.135v.046h-.135v.045l-.316.045v.046l-.54.09v.046h-.226c-.218.068-.536.114-.766.181h-.36v.045h-.361v.046h-.406v.046h-.36v.044c-.526.046-1.052.092-1.578.136-.62.18-1.452.095-2.073.273h-.451v.045l-.857.046v.045h-.45v.045h-.451v.046h-.406v.045h-.496v.045h-.45v.046h-.451v.046h-.496v.044h-.45v.046h-.496v.046h-.496v.045h-.496v.045H81.3v.046h-.496v.045h-.54v.045h-.541v.046h-.541v.045h-.54v.045H78.1v.046h-.586c-.354.101-.889.066-1.262.136a7.242 7.242 0 0 1-.496 1.633v.136h-.045v.091h-.045v.136h-.045l-.045.182h-.045v.09h-.045v.136h-.045v.091h-.045v.091l-.09.045v.091h-.045v.09h-.045v.092h-.046v.09l-.09.046v.09h-.045v.091h-.045l-.045.136-.09.046v.09h-.045l-.045.137-.09.045v.09l-.136.091c-1.146 1.634-2.732 2.718-4.777 3.449l-.36.045c-.914.31-2 .318-3.246.318H8.553v-.046h-.405v-.045h-.316v-.045l-.45-.046v-.045H7.2v-.046h-.18v-.045h-.18v-.045h-.136v-.046h-.18c-2.438-.879-4.042-2.31-5.319-4.355v-.091H1.16v-.09h-.045v-.092H1.07v-.09h-.045v-.09H.981v-.092H.936l-.09-.272H.8v-.136H.756L.71 108.1H.665l-.045-.272H.575v-.09H.53v-.137H.485v-.136H.44l-.045-.317H.35l-.045-.363H.26l-.09-.68c-.16-.547-.136-1.287-.136-1.997V51.024c0-.364-.036-.846.046-1.134l.045-.726H.17l.045-.5H.26l.045-.363H.35v-.18h.045v-.137H.44v-.136h.045v-.182H.53v-.09h.045l.045-.273h.046l.044-.226h.046v-.091H.8v-.136h.045l.09-.273H.98v-.09h.045v-.091h.045v-.09h.045v-.092h.045v-.09h.045v-.09l.09-.046.046-.182.09-.045.045-.182.09-.045v-.09l.135-.092v-.09l.09-.046v-.09l.09-.046.045-.136.136-.09v-.091l.225-.182v-.09l.45-.41.452-.498h.09l.18-.227h.09l.135-.181.136-.046.045-.09h.09l.045-.09.135-.045v-.046h.09l.045-.09h.09l.045-.092h.09l.046-.09.27-.09.045-.092.27-.09v-.046h.09v-.045h.09v-.045l.271-.092v-.044h.136v-.046h.09v-.046h.135v-.044h.09v-.046l.27-.046v-.045h.136v-.045h.135v-.046h.135v-.045h.135v-.045h.18v-.046H7.2v-.045h.225v-.045h.226v-.046h.225v-.045l.766-.045c.473-.135 1.327-.042 1.893-.046.038-.052-.005-.006.045-.045l.136-1.27h.045v-.318c.07-.236.11-.581.18-.817l.09-.816h.045l.045-.5c.195-.635.252-1.42.451-2.042l.045-.453c.155-.48.246-1.07.406-1.543l.045-.408h.045l.045-.363h.045v-.136h.045v-.182h.045v-.181h.045v-.182h.045v-.181h.045l.045-.318h.046l.045-.363h.045l.135-.635h.045v-.136h.045l.09-.454h.045l.09-.454h.045v-.18h.046v-.137h.045v-.136h.045v-.136h.045v-.136h.045v-.137h.045v-.18h.045v-.137h.045v-.136h.045v-.136h.045v-.136h.045v-.137h.045v-.136h.045l.09-.408h.046v-.09h.045v-.137h.045v-.136h.045v-.136h.045l.045-.272h.045v-.09h.045l.09-.41h.045v-.09h.045l.046-.272h.045v-.091h.045v-.136h.045v-.09h.045l.045-.273h.045v-.091h.045v-.136h.045v-.09h.045l.045-.228h.045v-.136h.045v-.09h.045v-.136H15v-.091h.045v-.137h.045v-.09h.045v-.136h.045l.045-.182h.045v-.136h.045l.045-.182h.045v-.136h.045l.045-.18h.045v-.137h.046v-.09h.045l.045-.182h.045v-.137h.045v-.09h.045l.045-.182h.045v-.136h.045v-.09h.045v-.091h.045l.09-.272h.045v-.137h.046l.09-.272h.045v-.09h.045v-.091h.045v-.09h.045v-.092h.045v-.09h.045v-.091h.045v-.09h.045v-.092h.045v-.09h.045v-.137h.046v-.09h.045c.235-.604.013-1.492-.136-1.997v-.272h-.045v-.226h-.045v-.318h-.045v-.273h-.045l-.09-1.36c-.093-.342-.045-.898-.045-1.316 0-1.064.172-2.03.45-2.813v-.182l.587-1.315.09-.046.045-.182h.045l.045-.136.09-.045.045-.181.135-.091v-.09h.045l.045-.137.09-.046v-.09l.136-.09v-.092l.18-.136v-.09l.18-.137v-.09l.226-.182v-.09l.27-.227v-.091l.812-.771.72-.772h.09l.271-.318h.09V5.7l.136-.09.09-.137h.09l.18-.226h.09l.135-.182h.09l.046-.09.135-.046.135-.182h.09l.09-.136h.09l.09-.136h.091l.045-.09h.09l.09-.136h.09l.045-.092h.09v-.045l.136-.045.045-.09h.09l.09-.137.18-.045.046-.091h.09l.045-.09h.09l.045-.092h.09l.045-.09h.09v-.046h.09l.046-.09.18-.046.045-.09.18-.046.045-.09.27-.092.046-.09h.09v-.046h.09V2.75h.09v-.045h.09l.046-.09h.09v-.046h.09v-.046h.09v-.045h.09v-.046h.09v-.045h.09v-.045h.09v-.046h.09v-.045h.09v-.045h.091V2.16h.09v-.045l.18-.045v-.046h.09V1.98h.136v-.046h.09v-.045l.27-.09v-.046h.136v-.045l.18-.046v-.045h.135V1.57h.09v-.046h.135V1.48h.09v-.046h.136V1.39h.09v-.045l.406-.09v-.046h.09v-.046l.27-.045v-.045h.135v-.046h.136V.98h.135V.935h.135V.89h.18V.845h.136V.799h.135V.754l.36-.046V.663h.136V.618h.18V.572h.18V.527h.18V.482l.406-.046V.391h.226V.346h.27V.3h.225V.255h.27V.21h.316V.164l1.352-.09c.35-.098 1.77-.1 2.119 0h.586v.045h.405v.045h.316V.21h.315v.045h.226V.3h.27v.046h.226V.39h.18v.045h.225v.046l.36.045v.045l.316.046v.045l.316.045v.046h.135v.045h.135v.046l.406.09V.98h.09v.045l.27.046v.045l.226.045v.046h.09v.045h.135v.045l.18.046v.045h.136v.045h.09v.046l.27.09v.046h.135v.045l.27.09v.046l.181.046.045.09h.09v.046h.09v.045h.09v.046h.09v.045h.091l.045.09.18.046.045.09.18.046.046.09h.09v.046h.09l.045.091h.09l.045.091h.09l.046.09h.09l.045.091h.09l.045.091h.09l.045.091h.09l.09.136h.09l.046.09h.09l.09.137h.09l.09.136h.09l.136.181h.09l.135.182h.09l.18.226h.09l.271.318h.09l.541.59h.09l.135.182.361.317v.09l.54.5v.09l.181.137v.09l.18.137.046.136.09.045v.091l.09.045v.091l.09.045v.091l.09.046v.09l.09.046v.09l.09.046.046.181.09.046v.09h.045v.091h.045v.09h.045v.092l.09.045.045.181h.045l.09.273h.045v.136h.046v.09h.045l.045.182h.045v.136h.045v.09h.045v.137h.045v.09h.045l.045.273h.045v.09h.045l.135.59h.046v.136h.045v.136h.045l.045.364h.045v.181h.045v.182h.045l.045.408h.045v.227h.045v.272h.045v.272h.045v.273h.045v.363h.046v.408h.045l.045.68v.5c.108.392.045 1.025.045 1.496v.817h-.045v.772h-.045v.59h-.045v.453h-.046v.409c-.112.396-.109.932-.225 1.315v.227h-.045l-.09.544h-.045l-.045.273h-.045v.09h-.045v.137h-.046v.09h-.045v.136H50.2l-.09.273h-.045l-.09.272-.09.045-.045.182-.09.045v.091l-.09.046v.09l-.136.09v.092l-.135.09v.091l-.36.317v.092h-.046l-.09.136h-.09l-.315.362h-.09l-.09.137h-.09l-.091.136h-.09l-.045.09-.135.046v.045l-.18.046-.046.09-.27.091v.046h-.09v.045l-.27.09v.046h-.136v.045h-.09v.046h-.135v.045h-.09v.045h-.136v.046h-.135v.045l-.316.045v.046l-.405.045v.046h-.27c-.419.12-1.16.122-1.578 0h-.27v-.046h-.18v-.045h-.181v-.046h-.18v-.045h-.136v-.045h-.18v-.046h-.09v-.045l-.27-.045v-.046h-.09v-.045h-.136V25.3l-.18-.046v-.045h-.135v-.045l-.27-.091v-.046h-.09v-.045h-.091v-.045h-.09v-.046h-.09v-.045h-.09V24.8h-.09v-.046h-.09v-.045h-.091l-.045-.091-.18-.045v-.046h-.09v-.045h-.09v-.046h-.09v-.045h-.09v-.045h-.091V24.3l-.18-.045v-.045h-.09v-.046h-.09v-.045l-.271-.09v-.046h-.135v-.045h-.09v-.046c-.186-.08-1.042-.276-1.353-.182a3.539 3.539 0 0 0-1.081.545l-.27.318h-.091l-.225.272h-.09l-.18.227h-.09l-.136.181h-.09l-.09.136h-.09l-.09.137h-.09l-.046.09h-.09l-.09.136h-.09l-.045.09h-.09l-.046.092h-.09l-.045.09h-.09l-.045.091-.18.046-.046.09-.18.046-.045.09-.27.091-.045.09h-.09v.046h-.09v.046h-.09v.045h-.091v.045h-.09v.046h-.09v.045l-.27.091v.045l-.226.046v.045h-.09v.045h-.135v.046h-.09v.045l-1.353.408a5.367 5.367 0 0 1-.18.862v.364h-.045l-.045 1.633c0 .364-.036.845.045 1.134v.454l.045.862h.045v.5h.045v.407h.045v.408h.045l.18 1.725c.175.597.186 1.364.361 1.95l.045.545c.11.368.158.858.27 1.225v.227h.046l.225 1.361zm-17.939 0h14.333l-.18-1.044h-.045v-.272c-.111-.367-.16-.857-.27-1.225l-.046-.544c-.151-.51-.166-1.164-.315-1.679v-.318c-.149-.515-.123-1.2-.27-1.724v-.408h-.046v-.454h-.045v-.499h-.045v-.59h-.045v-.771c-.112-.404-.045-1.058-.045-1.542 0-.284-.014-.65.045-.863l.09-1.36h.045v-.273h.045v-.272h.045v-.227h.046v-.181h.045v-.182h.045v-.181h.045v-.136h.045l.045-.318h.045v-.09h.045l.045-.273h.045v-.09h.045v-.137h.045l.09-.272h.046l.09-.272.09-.046v-.09l.135-.091v-.091h.045l.09-.136h.09l.046-.09h.09l.045-.092.901-.272h.226v-.045h.18v-.045h.18v-.046h.18v-.045h.18v-.045h.136v-.046h.135v-.046h.135v-.044l.226-.046v-.046h.09v-.045h.135l1.127-.635.045-.09h.09l.045-.092h.09l.045-.09h.09l.046-.09.135-.046.09-.136h.09l.045-.091h.045l.045-.09h.09l.136-.183h.09l.27-.317h.09l.27-.318h.091l.135-.18h.09l.045-.092h.09l.046-.09h.09l.045-.091h.09l.045-.09.27-.092v-.045h.09v-.046h.09v-.045l.271-.09v-.046l.27-.045v-.046h.136v-.045h.135v-.046h.135v-.045h.18v-.045h.181v-.046h.225v-.045h.27v-.045h.542v-.046c.146-.04.373.024.45.046h.541v.045h.27v.045h.226v.046l.36.045v.045h.136v.046h.135v.045h.135v.046h.136v.045h.09v.045h.135v.046h.09v.045l.18.045v.046l.18.045v.045h.09v.046h.09v.045h.09v.046h.091v.045h.09v.045h.09v.046h.09v.045h.09v.045h.09v.046h.091v.045h.09l.045.091.721.317c.488.262.854.5 1.623.5h.406v-.046h.225v-.045l.316-.046v-.045h.09v-.045h.135v-.046h.09v-.045h.09l.045-.09h.09l.045-.092h.09l.09-.136h.09l.046-.09.27-.227v-.09l.136-.092v-.09l.09-.046.045-.181h.045l.09-.273h.045l.045-.272h.045v-.18h.045v-.273c.127-.44.1-1.048.226-1.497l.045-1.226c.086-.315.045-.833.045-1.225l-.045-1.77h-.045v-.453h-.045v-.317h-.045l-.045-.59h-.046v-.227h-.045v-.227h-.045v-.181h-.045v-.182h-.045v-.181H47v-.182h-.045v-.136h-.045v-.136h-.045v-.136h-.045v-.136h-.045l-.045-.272h-.045v-.092h-.046v-.136h-.045l-.045-.18h-.045v-.092h-.045l-.135-.408-.09-.046-.09-.272-.09-.045-.046-.181h-.045l-.045-.137-.09-.045v-.09l-.09-.046v-.09l-.09-.046v-.046l-.09-.045v-.09l-.226-.182v-.09l-.495-.455-.541-.59h-.09l-.316-.362h-.09l-.045-.09h-.045l-.09-.137h-.09l-.136-.182h-.09l-.045-.09h-.045l-.045-.091h-.09l-.09-.136h-.09l-.046-.09h-.09l-.09-.137h-.09a12.31 12.31 0 0 0-.045-.091l-.135-.045v-.045h-.09l-.046-.092h-.09l-.045-.09h-.09l-.045-.09h-.09v-.046h-.09l-.045-.09-.27-.092-.046-.09h-.09V5.2h-.09v-.045h-.09V5.11h-.09v-.046h-.09v-.046h-.09v-.044h-.09v-.046h-.091v-.046h-.09v-.044h-.09v-.046l-.27-.09v-.046h-.136V4.61l-.18-.045V4.52h-.136v-.046h-.09V4.43l-.27-.045v-.046h-.135v-.045h-.09v-.045h-.136v-.046l-.45-.09v-.046h-.18V4.02h-.18v-.045h-.181V3.93h-.18v-.046h-.226c-.665-.204-1.541-.271-2.389-.272-.348 0-.807-.032-1.082.046h-.54v.045h-.361v.045h-.36v.046h-.271v.045h-.225v.045h-.27v.046l-.406.045v.045h-.18v.046h-.181v.045h-.18v.045h-.18l-2.074.726v.046l-.18.046v.044H28.7v.046h-.09v.046l-.18.045V5.2h-.136v.046l-.27.09v.046h-.09v.045h-.09v.045h-.09v.046h-.091v.045h-.09v.045h-.09v.046h-.09v.045h-.09v.045h-.09l-.046.092h-.09v.045h-.09v.045h-.09v.046h-.09l-.046.09-.27.091-.045.09-.18.046-.045.09-.18.046v.046l-.136.045-.045.09-.18.046v.045l-.135.046-.046.09h-.09v.046l-.135.045-.045.091h-.09l-.09.136h-.09l-.046.09h-.09l-.09.137h-.09l-.045.09h-.09l-.09.137h-.09l-.136.181h-.09l-.09.136h-.09l-.18.227h-.09l-.18.227h-.091l-.27.318h-.09l-.451.499c-.315.316-.636.583-.902.953l-.27.226v.091c-.06.045-.12.09-.18.137v.09l-.136.09v.092l-.135.09v.091l-.09.045v.091l-.09.045v.091l-.09.046-.045.181-.09.046-.046.18h-.045l-.09.273h-.045l-.045.273c-.225.574-.316 1.277-.315 2.086 0 .311-.021.715.045.953v.545h.045v.362h.045v.318h.045v.318h.045v.227h.045v.272h.045v.227h.045v.181h.045v.227h.045v.227h.045v.363h.045v.59c0 .592-.079 1.063-.225 1.497l-.135.59h-.045v.09h-.045v.136h-.045v.091h-.045v.091h-.046v.091h-.045v.09h-.045v.091h-.045v.091h-.045l-.09.272h-.045v.137h-.045l-.045.181h-.045v.09h-.045v.091h-.045l-.09.272h-.046v.136h-.045v.092h-.045l-.09.272h-.045v.136h-.045v.09h-.045l-.045.182h-.045v.136h-.045l-.045.182h-.046v.136h-.045l-.045.181h-.045v.137h-.045l-.045.18h-.045v.137h-.045v.09h-.045v.137h-.045l-.045.181h-.045v.136h-.045v.091h-.045v.136h-.046v.091h-.045l-.045.272c-.466 1.072-.856 2.27-1.262 3.403v.182h-.045v.136h-.045v.136h-.045v.136h-.045v.136h-.045v.182h-.045v.136h-.045v.136h-.045l-.09.454h-.046l-.045.317h-.045l-.135.635h-.045l-.135.68h-.045l-.045.364c-.113.332-.204.756-.316 1.088v.182h-.045v.182h-.045v.226h-.045v.182h-.045l-.045.408h-.045v.227c-.242.754-.309 1.676-.541 2.45l-.045.545h-.045V39h-.045v.273h-.045v.272h-.046v.272h-.045v.318a5.13 5.13 0 0 0-.18 1.134zm-4.011 3.584c-.426-.004-1.005-.054-1.352.046h-.361v.045l-.45.045v.046h-.181v.045h-.135v.046h-.136v.045h-.135v.045l-.225.046v.045l-.18.045v.046H6.84v.045h-.09v.045h-.09l-.045.091-.27.09-.045.092h-.09l-.046.09h-.09l-.045.09h-.09l-.045.092-.135.045-.226.273h-.09l-.27.317-.09.045v.091l-.27.227-.046.136-.09.046v.09l-.09.046-.045.136h-.045v.09l-.09.046-.09.272-.09.046-.136.408h-.045L4 48.529h-.045v.137H3.91v.136h-.045v.136H3.82v.136h-.045l-.045.363h-.045v.272c-.198.685-.09 1.876-.09 2.722v51.814c0 .47-.012.965.09 1.315v.273l.406 1.225h.045l.045.181h.045l.045.182.09.045.045.182.09.045v.09l.09.046v.09l.09.046v.091l.091.045.045.136.225.182v.09l.361.318.09.136h.09l.18.227.136.046.045.09h.09l.045.09.135.046v.046h.09l.046.09.18.046.045.09.18.046v.046l.18.045v.045h.136v.046l.18.045v.045h.135v.046h.135v.045h.136v.045h.135v.046h.18c.757.255 1.921.182 2.93.182H66.38c.415 0 .97.05 1.307-.046h.36l1.128-.318v-.045h.09v-.045h.135v-.046l.27-.09v-.046h.09v-.046l.18-.045.046-.09.18-.046.045-.09h.09l.09-.137h.09l.046-.09h.09l.18-.227h.09l.361-.409.18-.136v-.09l.226-.182v-.09l.135-.091v-.091l.09-.046v-.09l.09-.046.045-.181.09-.045c.016-.06.03-.121.045-.182h.046l.045-.181h.045v-.091h.045l.18-.5h-.045c-.09.078-.334.044-.496.046l-.991.046v.045h-.496l-1.082.045v.046c-.247.07-.637-.017-.856.045-.248.07-.638-.017-.857.045h-.946c-.278.079-.753-.035-1.037.046v.045h-.54l-.857.045h-.992v.046h-1.442c-.45.127-1.137.021-1.668.045-.836.038-1.84.044-2.75.045h-.36v.046h-2.479c-.415 0-.969.05-1.307-.046h-1.758l-1.487-.045c-.375 0-.872.04-1.172-.045h-1.215v-.046c-.285-.08-.76.034-1.038-.045l-1.757-.045v-.046l-.947-.045h-.496v-.045h-.63v-.046h-.587v-.045h-.587v-.045h-.54v-.046H40.6v-.045h-.496v-.046h-.45v-.045l-.902-.045v-.046h-.406v-.045h-.406v-.046h-.405v-.045h-.36v-.045h-.361v-.046h-.36v-.045h-.362c-.475-.14-1.109-.133-1.577-.272l-.902-.091c-.864-.259-1.901-.277-2.749-.544l-.676-.091c-.74-.242-1.619-.341-2.344-.59l-.54-.09v-.046l-.677-.136v-.045l-.315-.046v-.046h-.135v-.045l-.451-.09v-.046l-.45-.09v-.046h-.181c-1.851-.677-3.838-1.26-5.319-2.314l-.135-.181c-1.236-.894-2.106-2.14-2.75-3.63l-.044-.272H16.8v-.137h-.045v-.136h-.045v-.18h-.045l-.09-.59h-.045l-.045-.364h-.045l-.045-.363h-.045v-.136h-.045v-.181h-.045v-.182h-.046v-.181h-.045l-.045-.363h-.045l-.045-.363c-.405-1.132-.589-2.451-.991-3.585l-.045-.363h-.046v-.18h-.045v-.183h-.045v-.18h-.045v-.137h-.045l-.36-1.633h-.046v-.136h-.045v-.182h-.045v-.182h-.045v-.18h-.045v-.182h-.045l-.045-.364h-.045v-.226c-.306-.945-.46-2.041-.766-2.995v-.227h-.045v-.18h-.045v-.183h-.045l-.046-.408h-.045l-.045-.408h-.045v-.227c-.161-.502-.244-1.129-.405-1.633l-.046-.454c-.172-.55-.238-1.215-.405-1.77l-.045-.499c-.209-.666-.248-1.503-.451-2.177l-.09-.772h-.045l-.721-4.718-.09-1.044c-.165-.571-.107-1.328-.27-1.905v-.409h-.046v-.408h-.045v-.454h-.045v-.453h-.045v-.454h-.045v-.5h-.045l-.09-1.678h-.046l-.045-.862v-.454h-.045v-.726H9.86l-.045-1.316v-.59H9.77v-1.315h-.045v-5.898h.045v-1.316h.045v-.998h.045l.045-1.044v-.499h.045v-.635h.045v-.59h.045v-.544c.065-.231.088-.621.09-.908zm62.696 58.12v-6.987H44.34l-.226.68h-.045v.092h-.045v.136h-.045v.09h-.045v.091l-.09.045-.09.273-.09.045-.045.182-.136.09v.091l-.09.045v.091l-.135.091v.09l-.225.182v.091l-.406.363-.135.181h-.09l-.18.227h-.09l-.091.137-.135.045-.045.09h-.09l-.045.091h-.09l-.046.091-.18.045-.045.091-.18.045v.046h-.09v.045l-.27.09v.047h-.136v.045h-.09v.045h-.136v.046h-.09v.045l-.45.09v.046h-.136v.045h-.225c-.56.177-1.613.278-2.254.091h-.27l-1.262-.363v-.045l-.18-.045v-.046h-.136v-.045l-.18-.046v-.045h-.09l-.045-.091-.27-.09-.046-.091h-.09v-.046l-.135-.045-.045-.09h-.09l-.09-.137h-.09l-.136-.181h-.09l-.405-.454-.316-.272v-.091l-.18-.136v-.09l-.135-.092v-.09l-.09-.046-.046-.136h-.045v-.09l-.09-.046-.045-.181-.09-.046v-.09h-.045v-.092h-.045v-.09h-.045v-.09h-.045v-.092h-.045l-.046-.181h-.045v-.136h-.045v-.09h-.045l-.045-.273h-.045v-.136h-.045v-.136h-.045v-.182h-.045v-.181h-.045v-.182H31.9v-.272h-.045v-.318h-.045V93.9c0-.863.19-1.537.45-2.132v-.137h.045l.045-.18h.045v-.137h.046v-.09h.045v-.091l.09-.046.09-.272h.045c.032-.046.107-.148.09-.227h-.045v-.09l-.09-.046-.09-.272-.09-.046v-.09h-.045v-.09h-.046v-.137h-.045l-.045-.182h-.045l-.045-.227h-.045l-.315-1.18v-.317c-.15-.532-.042-1.567.09-1.996v-.227h.045v-.181h.045v-.137h.045v-.136h.045v-.136h.045l.045-.272h.045v-.09h.045v-.137h.045l.046-.181h.045v-.09h.045v-.092h.045v-.09h.045v-.091h.045v-.09h.045v-.092l.09-.045v-.09l.09-.046v-.091h.045l.045-.136.09-.045v-.091l.136-.09v-.092l.18-.136v-.09l.316-.273.405-.453h.09l.136-.182.135-.045.045-.091h.09l.045-.09.135-.046v-.045h.09l.046-.091.27-.091.045-.091.406-.136v-.045l.18-.045v-.046l.27-.045v-.046h.136v-.045h.135v-.045h.135v-.046h.18c.601-.202 1.762-.346 2.48-.136l.675.09v.046l.316.046v.045l.27.045v.046h.09v.045h.136v.046h.09v.045h.135v.045l.27.09v.046l.27.09.046.092.18.045.045.09h.09l.046.092h.09l.09.136h.09l.09.136h.09l.18.227h.09l.361.408.18.136v.091l.226.181.045.136.09.046v.09l.135.091v.09l.09.046.046.182.09.045.09.272.09.046v.09h.045v.091h.045v.136h.045v.091h.045l.226.68h28.486v-6.85h-.045c-.093.088-.216.044-.361.09v.046h-.225v.045h-.226v.046h-.405c-.586.162-1.584-.03-2.029-.182l-.45-.09v-.046h-.09v-.046h-.136v-.045l-.405-.136v-.045h-.09v-.046h-.09v-.045h-.09v-.045h-.091l-.045-.091-.18-.045a12.31 12.31 0 0 0-.046-.091h-.09l-.045-.09-.135-.046-.09-.137h-.09l-.18-.226h-.09l-.316-.363-.135-.09v-.092l-.226-.181v-.091l-.18-.136v-.09l-.18-.137v-.09l-.18-.137v-.09l-.271-.227v-.091l-.45-.408v-.091l-.271-.227-.45-.5h-.091l-.36-.407h-.09l-.226-.272-.135-.046-.09-.136h-.09l-.09-.136h-.09l-.091-.136H63l-.09-.136h-.09l-.09-.136h-.09l-.046-.092h-.09l-.045-.09h-.09l-.045-.09h-.09l-.046-.092-.18-.045-.045-.09-.18-.046-.045-.09-.18-.046-.046-.09h-.09v-.046h-.09v-.046h-.09v-.045h-.09v-.046h-.09v-.045h-.09v-.045h-.09v-.046h-.09v-.045h-.09v-.045l-.271-.09v-.046h-.136v-.046l-.18-.045v-.046h-.135v-.045h-.09v-.045l-.406-.136-.09-.136h-.09l-.045-.091-.18-.136v-.09l-.136-.092-.045-.181c-.19-.361-.309-.796-.135-1.27v-.137h.045v-.136h.045v-.09h.045v-.091l.09-.046v-.09l.136-.091.045-.136.135-.046.135-.181h.09v-.045l.27-.091v-.045l.316-.046v-.045h.721v.045h.135v.046h.136v.045h.135v.045h.09v.046h.135v.045l.18.045v.046h.136v.045h.09v.045l.18.046v.045h.135v.045l.27.091v.045h.091v.046h.09v.045l.27.09.046.092h.09v.045h.09v.046h.09v.045h.09l.045.09.27.091.046.091.18.045.045.091h.09l.045.09h.09l.046.092.18.045.045.091h.09l.09.136h.09v.045l.136.046.045.09h.09l.09.136h.09l.09.137h.09l.09.136h.09l.136.181h.09l.135.182h.09l.18.226h.091l.315.363c.384.28.663.622.992.953l.496.454v.09l.36.318v.091l.27.227v.09l.226.182v.09l.18.137v.09l.136.091v.091l.36.318.09.136h.09l.046.09.135.046v.046h.09v.045h.09v.045h.135v.046h.09v.045h.18v.045h.226v.046c.316.091.905-.065 1.082-.136h.135v-.046h.09v-.045h.136l.045-.09.18-.046.045-.09h.09l.135-.182h.09v-.046l.09-.045V49.935c-.1-.116-.037-.326-.09-.498h-.045v-.227h-.045v-.136H72.6l-.045-.318h-.045v-.09h-.045v-.137h-.045v-.09h-.045v-.137h-.045l-.09-.272h-.045v-.09h-.046c-.014-.061-.03-.122-.045-.182l-.09-.046-.045-.18-.09-.046v-.09l-.09-.046-.045-.136-.135-.091v-.09l-.18-.137v-.09l-.406-.364-.136-.181h-.09l-.135-.182h-.09l-.09-.136h-.09l-.045-.09-.136-.046v-.045h-.09l-.045-.091-.18-.045-.045-.091-.18-.046v-.045l-.18-.045v-.046h-.136v-.045l-.18-.045v-.046l-.27-.045v-.045h-.136v-.046h-.135v-.045h-.18v-.046h-.226v-.045h-.225V44.9h-.36v-.046H32.846c.034.217.12.491.18.68v.228h.046l.045.408h.045v.182h.045v.226h.045v.182h.045v.227h.045l.045.408h.045v.181h.045v.228h.045v.181h.045v.181h.045v.227h.046v.182h.045v.227c.196.605.3 1.345.495 1.95v.227h.045v.182h.046v.227h.045v.181h.045v.182h.045v.227c.347 1.073.466 2.325.811 3.403v.226h.045l.045.408h.045v.182h.045l.045.409h.046l.135.861c.282.876.354 1.925.63 2.814v.226h.046v.227h.045v.227h.045v.227h.045v.227c.084.268.144.638.225.907v.273c.112.366.16.85.27 1.224v.273c.202.662.209 1.503.407 2.177l.045.636c.146.5.124 1.17.27 1.679v.362h.045v.409h.045v.453h.045v.454h.045v.5h.045v.635h.045l.046 1.587h.09l.225-.272h.09l.18-.227h.09l.181-.227h.09l.135-.181h.09l.09-.136h.09l.09-.136h.091l.09-.137h.09l.09-.136h.09l.09-.136.136-.045.045-.09h.09l.045-.092h.09v-.045l.136-.045.045-.09h.09l.09-.137h.09l.045-.09h.09l.045-.092.18-.045.046-.09h.09l.045-.091h.09l.045-.09h.09v-.047h.09l.046-.09.18-.046.045-.09h.09v-.046h.09l.045-.09.27-.091.046-.09h.09v-.046h.09v-.046h.09v-.045h.09c.016-.03.03-.06.045-.091h.09v-.045h.09v-.046h.09V69.4h.091v-.045h.09v-.046h.09v-.045h.09v-.046h.09v-.045h.09v-.045h.091v-.046h.09v-.045h.09v-.045l.18-.046v-.045h.09v-.045h.136v-.046h.09v-.045l.18-.045v-.046h.136v-.045l.18-.045v-.046h.135v-.046l.18-.045v-.045h.136v-.046h.09v-.045l.27-.045v-.046h.09v-.045h.136v-.045h.135v-.046h.135v-.045h.27v-.045c.157-.045.493.056.586.09l.27.046v.045l.271.09.09.137h.09l.136.182.09.045v.09l.135.091.09.272h.045v.136c.062.156.215.539.136.817h-.046v.227h-.045v.136h-.045v.136h-.045v.091h-.045v.09l-.09.046v.09l-.27.228-.136.181h-.09l-.045.091h-.09v.045l-.18.046v.045h-.136v.045h-.135v.046l-.225.045v.045h-.09v.046h-.135v.045l-.18.046v.045h-.136v.045l-.18.046v.045h-.135v.045h-.09v.046h-.09v.045l-.271.091v.045h-.135v.046l-.27.09v.046h-.091v.045l-.18.045-.045.091h-.09v.045h-.09v.046h-.09v.046h-.09v.045l-.181.045-.045.091-.27.09-.046.091-.18.046-.045.09-.18.046v.046l-.136.044-.045.092-.18.044v.046l-.135.046-.045.09h-.09l-.046.091h-.09l-.045.09h-.09v.046l-.135.045-.045.091h-.09l-.09.137h-.09l-.046.09h-.09l-.09.136h-.09l-.045.09-.135.046-.09.136h-.09l-.136.182h-.09l-.135.182h-.09l-.136.18h-.09l-.18.228h-.09l-.27.317h-.09l-.181.227h-.09l-.09.136h-.09l-.046.09-.18.046v.046h-.09v.045l-.27.09v.046l-.406.091v.045l-.496.046v.045h-.676v-.045l-.54-.046v-.045h-.136v-.045h-.135v-.046h-.136v-.045h-.135v-.045l-.18-.046v-.045l-.18-.046-.045-.09h-.09v-.046l-.136-.045-.045-.09h-.09l-.18-.228c-.136-.12-.27-.242-.406-.363v-.09l-.135-.091v-.091l-.09-.045-.045-.182h-.045l-.09-.272h-.046v-.136h-.045v-.091h-.045V74.3c-.132-.349-.18-.784-.18-1.27v-.772h-.045v-.77h-.045v-.591h-.045v-.5c-.172-.604-.1-1.399-.27-1.995l-.046-.68c-.207-.716-.196-1.607-.406-2.315l-.045-.544c-.16-.53-.197-1.198-.36-1.724l-.045-.5c-.105-.342-.164-.79-.27-1.134v-.226c-.085-.27-.142-.639-.226-.908v-.226c-.274-.852-.36-1.874-.631-2.723l-.045-.454H31.9l-.045-.408h-.045v-.181h-.045l-.046-.409h-.045l-.045-.408h-.045v-.227h-.045v-.182h-.045v-.181h-.045l-.045-.409h-.045l-.045-.408h-.045v-.226c-.342-1.06-.473-2.296-.811-3.358v-.227h-.046v-.181h-.045v-.182h-.045l-.045-.408h-.045v-.227c-.198-.617-.289-1.379-.496-1.996l-.045-.408h-.045v-.182h-.045v-.227h-.045v-.227h-.045v-.181h-.045v-.227c-.098-.304-.21-.664-.225-1.044h-2.57l-.045.817h-.045v.635h-.045v.636h-.045v.68h-.045v.5l-.045 1.088h-.045v.59l-.045 1.36h-.045l-.045 3.131c-.077.277-.045.739-.045 1.09v2.087c0 .47-.065 1.105.045 1.497v1.633h.045v1.089c.066.233-.03.647.045.908h.045l.045.907v.454h.045v.544h.045l.09 1.452h.045v.408h.045v.408h.045v.363l.586 3.54h.045l.046.408h.045v.181h.045v.182h.045v.181h.045v.182h.045l.045.363h.045l.045.317h.045l.09.454h.045v.136h.046v.136h.045l.045.273h.045v.09h.045l.09.408h.045v.091h.045v.137h.045l.045.18h.045v.137h.045l.045.181h.046v.137h.045l.09.272h.045v.09h.045l.09.273.09.045.045.182h.045v.09l.09.046.046.181.09.046v.09l.09.046v.09l.135.09v.092l.135.09v.091l.136.091v.09l.09.046.045.136h.045v.09l.09.046v.09l.09.047v.09l.09.046.045.181.09.045v.091h.046v.09h.045v.092h.045v.09h.045v.091h.045v.091h.045l.09.272h.045v.136h.045v.091h.045l.045.272H31v.137h.046v.136h.045v.136h.045v.181h.045v.181h.045v.182h.045v.272h.045v.363h.045c.06.216 0 1.114-.045 1.27l-.045.681h-.045v.227h-.045v.227h-.045v.181h-.045v.182h-.045v.181H31v.136h-.045v.137h-.045l-.135.59h-.045v.09h-.045l-.045.272h-.045v.091h-.045v.136h-.045v.136h-.045v.091h-.046v.136h-.045v.091h-.045v.136h-.045l-.045.181h-.045v.136h-.045v.092h-.045v.136h-.045l-.045.181h-.045v.136h-.045l-.045.181h-.045v.136h-.046l-.045.182h-.045v.136h-.045l-.045.182h-.045l-.045.181-.09.045-.09.273-.09.045v.091l-.09.045v.091h-.046l-.045.136-.09.046v.09c-.06.046-.12.09-.18.137v.09l-.27.227-.451.5h-.09l-.09.135h-.09l-.046.091-.135.045v.046h-.09l-.045.09-.18.046v.045l-.271.091v.045h-.135v.046h-.09v.045l-.947.227c-.223.064-.878.002-1.037-.046l-.676-.09v-.046l-.27-.045v-.045l-.27-.046v-.045l-.226-.045v-.046l-.18-.045v-.046l-.18-.045-.046-.09-.18-.046-.045-.09h-.09l-.045-.091h-.09l-.09-.137h-.09l-.136-.181h-.09l-.315-.363-.226-.181v-.091l-.18-.136v-.091l-.09-.046v-.09l-.09-.046-.045-.136h-.045v-.09h-.046v-.091l-.09-.045v-.092h-.045v-.09h-.045v-.09h-.045v-.092l-.09-.045-.09-.272h-.045v-.091h-.045l-.09-.272h-.046v-.136h-.045v-.091h-.045l-.09-.272h-.045v-.137h-.045l-.045-.18h-.045v-.137h-.045v-.09h-.045l-.045-.228h-.045v-.136h-.046v-.09h-.045l-.045-.273h-.045v-.09h-.045v-.137h-.045v-.136h-.045v-.136h-.045V84.1h-.045v-.136h-.045v-.136h-.045v-.136h-.045v-.136h-.045v-.136h-.045v-.136h-.046l-.045-.273h-.045l-.09-.453h-.045v-.182h-.045v-.136h-.045v-.181c-.327-.913-.463-2-.766-2.95v-.227c-.085-.268-.142-.637-.226-.907v-.227c-.136-.437-.182-1.01-.315-1.452l-.045-.544c-.156-.52-.163-1.2-.316-1.724l-.045-.636c-.147-.503-.126-1.173-.27-1.678v-.408c-.167-.583-.104-1.363-.27-1.951v-.409h-.046v-.454h-.045v-.453h-.045v-.454h-.045v-.499h-.045v-.454h-.045v-.544h-.045v-.545h-.045l-.09-1.724h-.046l-.045-.816v-.454h-.045v-.68h-.045v-.726h-.045v-.772h-.045v-.816H15.9l-.045-1.815c-.078-.28.035-.758-.045-1.044h-.045v-.59l-.045-.861V54.2c-.096-.343-.04-.896-.045-1.316v-.227h-.045v-1.905a63.68 63.68 0 0 1-.046-2.677v-1.18c-.132-.475-.044-1.46-.045-2.042h-1.802c-.048.135-.084.482-.09.636v.408H13.6v.544h-.045v.636h-.045v.635h-.045v.771h-.045c-.073.262.02.674-.045.907v1.18h-.045v1.951c-.132.475-.045 1.337-.045 1.905 0 .325-.025.748.045.998v.454c0 .485-.068 1.139.045 1.543l.09 3.085h.045v.772h.045v.681h.045v.635h.045v.589s.038.003.045.09v.5h.046v.545h.045v.499h.045v.499h.045v.453h.045v.454h.045v.454c.171.6.1 1.4.27 1.996l.09 1.134.722 4.991c.07.236.11.581.18.817v.272c.259.864.275 1.914.54 2.768l.09.726c.254.83.326 1.815.587 2.631l.045.454c.181.562.262 1.256.45 1.815l.046.408c.15.466.25 1.038.405 1.497l.046.408c.466 1.441.716 3.045 1.216 4.447v.181h.046v.136h.045l.045.318h.045l.045.318h.045v.182h.045v.136h.045l.045.317h.045l.09.454h.045l.09.453h.046l.09.454h.045l.135.59h.045v.181h.045v.137h.045v.136h.045v.136h.045v.136h.046v.136h.045v.181h.045v.136h.045v.137h.045v.136h.045l.045.272h.045v.09h.045v.137h.045l.09.272h.045v.091h.045l.09.272.09.045v.091l.09.046v.09l.091.046v.09l.18.136v.091l.135.091.316.363h.09l.135.181h.09l.09.136h.09l.046.091h.09l.045.091.135.045v.046l.27.09.046.091.18.046v.045h.09v.045l.27.091v.046h.136v.045l.18.045v.046h.135v.045l.18.045v.046h.136v.045h.09v.045l.406.091c.772.339 1.71.567 2.524.862h.18v.045h.135v.046l.316.045v.046h.18v.045l.496.091v.045l.36.046c.398.136.905.232 1.308.362h.225c.525.171 1.176.245 1.713.41h.27c.717.219 1.612.233 2.344.452h.27v.046h.316v.045h.315v.046h.316v.045h.315v.045h.361v.046h.315v.045h.361c.454.132 1.073.095 1.533.227l2.253.181v.046h.496v.045h.54v.045h.587v.046h.63v.045h.632v.045h.496l.991.046v.045h.856v.046H47v.045l2.479.045c.364.103.956.046 1.397.046h.451c.427.12 1.114.045 1.623.045h6.13v-.045h.27c.555-.004 1.385.085 1.848-.046h.766l1.082-.045c.336-.002.774.03 1.037-.045l3.2-.09v-.047l1.217-.045h.586v-.045l1.081-.046h.496v-.045h.766v-.045l1.398-.046zM19.1 44.854l.045 3.494c0 .592-.093 1.5.045 1.996v.454c0 .498-.071 1.171.045 1.588v.771l.045 1.044c.002.338-.028.78.045 1.044v1.18c.079.279-.035.757.045 1.043.07.246-.032.678.046.952.142.506-.006 1.222.135 1.725l.045 1.497h.045l.045.907v.454h.045v.635h.045v.59h.045v.59h.045v.59h.045v.498h.046v.545h.045v.499h.045v.454h.045v.499c.146.514.08 1.213.225 1.724v.408h.045v.409c.157.546.113 1.268.27 1.814v.318c.111.378.116.891.226 1.27v.318h.045v.272h.045v.318h.045v.272h.045v.272h.045v.273h.045v.272c.18.595.22 1.324.406 1.905l.135.908h.045v.181h.045v.181h.045v.228h.046v.181h.045v.181h.045v.182h.045v.227c.308.952.521 2.025.901 2.904l.09.408h.045v.09h.045l.046.273h.045v.09h.045v.137h.045v.09h.045v.136h.045l.045.182h.045v.136h.045l.09.272h.045v.091h.045v.091h.046v.09h.045v.091h.045v.091h.045v.09h.045v.091h.045v.091h.045v.091h.045l.045.181.09.046v.09h.045v.092h.045l.045.136c.195.052.156.145.27.226h.091l.045.091c.231.147.478.178.857.181v-.044h.135l.045-.092h.09l.135-.181.09-.045v-.091l.136-.09.045-.183.09-.045.045-.181h.045v-.09h.045l.09-.273h.045v-.136h.045l.045-.182h.045v-.136h.046v-.09h.045v-.137h.045l.045-.181h.045v-.136h.045l.045-.182h.045v-.136h.045v-.09h.045v-.137h.045v-.09h.045l.451-1.362v-.226c.162-.547.114-1.53-.09-1.997h-.045l-.045-.181h-.045v-.137h-.045v-.09h-.045v-.09l-.09-.046-.09-.272-.09-.046v-.09l-.091-.046v-.09l-.135-.092v-.09l-.135-.09v-.092l-.136-.09v-.091l-.09-.045v-.091l-.09-.046v-.09l-.09-.046v-.09l-.09-.046-.045-.181-.09-.046-.046-.181-.09-.046v-.09h-.045v-.09h-.045v-.092h-.045v-.09l-.09-.046-.045-.181h-.045l-.09-.273h-.045v-.136H25.5v-.09h-.045l-.09-.273h-.045l-.045-.227h-.045v-.09h-.045v-.136h-.045v-.091h-.045v-.136h-.045v-.091h-.045l-.045-.272h-.046v-.091h-.045l-.09-.408h-.045v-.136h-.045v-.136h-.045v-.136h-.045v-.137h-.045v-.136h-.045v-.136h-.045v-.181h-.045v-.136h-.045v-.182h-.045v-.136h-.046l-.045-.318h-.045v-.182h-.045l-.045-.362h-.045l-.045-.363h-.045l-.045-.409h-.045v-.227h-.045v-.18h-.045v-.228h-.045v-.227h-.046v-.227h-.045v-.226c-.095-.312-.131-.729-.225-1.044v-.272c-.145-.492-.127-1.135-.27-1.633l-.045-.772h-.046v-.408h-.045v-.409h-.045v-.498h-.045v-.5h-.045v-.544h-.045v-.635h-.045v-.68h-.045v-.817h-.045c-.078-.274.024-.706-.045-.953v-1.316c-.106-.379-.045-.994-.045-1.452v-2.903c0-.591-.094-1.503.045-1.997l.045-2.631h.045V49.8h.045v-.862h.045l.045-.998v-.5h.045v-.68h.045v-.635c.1-.356.067-.895.136-1.27H19.1zm57.287 57.848l.902-.045v-.046h.496c.086-.007.09-.045.09-.045h.54v-.045h.542v-.046h.54v-.045h.541v-.045h.541v-.046h.496v-.045h.54v-.045h.497v-.046h.495v-.045h.451v-.046h.496v-.045h.45v-.045h.496v-.046h.451v-.045h.45v-.045l1.804-.136v-.046h.405v-.045h.451v-.046h.406v-.045h.406v-.045h.405v-.046h.406v-.045h.405c.596-.173 1.39-.101 1.984-.272h.405v-.046h.36v-.045h.316v-.045h.226v-.046h.225v-.045h.18v-.045h.18v-.046h.136v-.045l.45-.091v-.046h.09v-.045l.271-.045v-.046l.18-.045v-.045h.136v-.046l.27-.09v-.046h.09v-.045h.09v-.045l.27-.091.046-.091.18-.045.045-.091.18-.046v-.045l.136-.045.045-.091h.09l.09-.136h.09l.09-.136h.09l.09-.136h.09l.226-.273h.09c.136-.15.27-.302.406-.453l.225-.182v-.09l.27-.227v-.09c.06-.047.121-.092.181-.137l.045-.136.09-.046v-.09l.09-.046v-.09l.136-.091.045-.182.09-.045.045-.136h.045l.09-.272.09-.046.09-.272h.046v-.091h.045l.09-.272h.045l.045-.227h.045v-.09h.045l.045-.273h.045v-.09h.045l.135-.59h.046v-.182h.045v-.181h.045v-.227h.045v-.227h.045v-.318h.045v-.408h.045v-.499c0-.378.039-.878-.045-1.18-.073-.262.02-.673-.045-.907l-.18-4.446v-.136h-.046v-.908h-.045c-.073-.262.02-.673-.045-.907-.073-.262.02-.674-.045-.908v-.59l-.045-1.225h-.045v-.59l-.045-1.27h-.045l-.045-1.815h-.045l-.045-1.225v-.59c-.066-.233.028-.645-.045-.907-.07-.247.032-.678-.045-.952-.066-.234.028-.646-.045-.908-.066-.234.028-.646-.046-.908-.146-.52.01-1.295-.135-1.814v-.908h-.045l-.045-1.225v-.59h-.045v-.272h-.045l-.045-.272h-.045l-.09-.272h-.045v-.091l-.136-.09v-.092l-.135-.09-.18-.227h-.09l-.045-.09h-.09v-.046h-.09v-.046l-.271-.09v-.046h-.18v-.045h-.226v-.046h-.36v-.045h-.496v-.045h-.721c-.35-.096-1.365-.1-1.713 0h-.721v.045h-.496v.045h-.406v.046h-.315v.045h-.316v.046h-.27v.045h-.225v.045h-.226c-.368.117-.823.193-1.172.318l-.36.045-1.893.635v.046h-.09v.045l-.27.046v.045l-.181.045v.046h-.135v.045l-.18.045v.046h-.136v.045l-.27.09v.047l-.226.045v.045l-.27.09v.046h-.09v.046h-.09v.045h-.09v.045h-.09v.046h-.09v.045h-.09v.045h-.091v.046h-.09v.045h-.09l-.045.09h-.09v.046h-.09v.045h-.09v.046h-.091v.045h-.09l-.045.09-.27.092-.046.09-.18.046-.045.09-.18.046v.045l-.136.046-.045.09-.18.046-.045.09h-.09l-.045.091h-.09l-.046.09h-.09v.047l-.135.045-.045.09h-.09l-.045.091h-.09l-.045.091h-.09v.045l-.136.046-.045.09h-.09l-.045.091-.135.046-.09.136h-.09l-.046.09h-.09l-.045.091-.135.046-.135.181h-.09l-.09.136h-.09l-.136.182h-.09l-.135.181h-.09l-.136.182h-.09l-.18.226h-.09l-.226.273c-.674.491-1.222 1.094-1.802 1.679l-1.037.998v.09l-.496.454v.09l-.135.092-.27.317v27.041zM53.085 66.814c.49-.009.964-.004 1.262.181v.046l.135.045.045.09h.09l.136.182.09.046v.09l.135.091v.09h.045l.09.273h.045v.136h.045l.045.772h-.045l-.045.362h-.045l-.09.273h-.045v.09l-.135.091v.091l-.18.136-.046.09h-.09l-.045.092h-.09l-.045.09h-.09v.046h-.09v.045l-.316.045v.046c-.16.048-.802.012-.946-.046v-.045h-.09v-.045l-.226-.046-.045-.09h-.09l-.09-.136h-.09l-.136-.182h-.045v-.091l-.135-.09-.045-.182h-.045l-.045-.182h-.045v-.18h-.045c-.07-.212-.072-.697 0-.908h.045v-.182h.045l.09-.272h.045v-.09l.135-.092v-.09l.18-.136v-.046h.09l.09-.136h.09l.046-.09h.09v-.046h.135v-.045h.09v-.046h.18v-.045zm19.742 25.589v-3.539H43.349l-.946-.045c-.676-.228-1.095-.666-1.308-1.362v-.272h-.045v-.544h-.045v-.182h-.045v-.181h-.045v-.136h-.045l-.09-.273h-.045l-.045-.18-.09-.046v-.091l-.09-.045v-.091l-.18-.136v-.09h-.046l-.09-.137h-.09l-.18-.227h-.09l-.046-.09-.18-.046-.045-.09h-.09v-.046h-.09v-.046h-.136v-.045h-.09v-.045h-.18c-.205-.07-.747-.232-1.082-.136v.045h-.315v.045h-.18v.046h-.136v.045h-.135v.045h-.09v.046h-.09v.045h-.09v.045h-.09v.046h-.09l-.046.09h-.09l-.135.182h-.09l-.18.227-.09.045v.091l-.136.091c-.246.357-.407.802-.54 1.27v.999h.044v.181h.045v.181h.046v.137h.045l.09.272h.045v.09h.045l.045.182.09.045.045.136.226.182.045.136h.09v.045l.225.182v.09l.135.091v.091h.045l.045.182h.046l.045.272h.045v.181h.045c.075.253-.038.584-.09.726l-.045.272h-.046l-.045.182h-.045v.09l-.135.092v.09l-.18.136-.045.091-.135.045v.091l-.226.181v.092l-.135.09-.045.182h-.045v.09h-.045l-.09.273h-.045l-.046.317h-.045c-.077.234-.078 1.171 0 1.407h.045v.136h.046l.045.272h.045l.045.181h.045l.045.182.09.045v.091l.09.045v.091l.135.09v.092l.09.045.18.227h.091l.135.181h.09l.045.091.722.318h.18c.362.116.859.116 1.217 0l.36-.046v-.045h.09v-.045h.136v-.046h.09v-.045h.09l.045-.09.18-.046.045-.09h.09l.181-.228h.09v-.045l.135-.091v-.09l.18-.137v-.09l.09-.046.361-.726v-.181h.045l.045-.726h.045v-.272h.046v-.182h.045v-.136h.045V93.4h.045v-.09l.09-.046v-.09l.135-.091v-.091l.18-.136v-.046h.09l.09-.136h.09v-.045l.181-.045v-.046l.27-.045v-.045h.226v-.046h30.199z"/></svg>