<svg xmlns="http://www.w3.org/2000/svg" width="36" height="34"><path fill="#FFF" d="M33.75 9.034h-7.119c.51-.352.95-.701 1.256-1.015 1.813-1.84 1.813-4.836 0-6.677-1.762-1.788-4.836-1.79-6.6 0-.974.987-3.564 5.007-3.206 7.692h-.162c.355-2.685-2.232-6.705-3.206-7.692-1.764-1.79-4.838-1.788-6.6 0C6.3 3.182 6.3 6.18 8.111 8.02c.308.314.747.663 1.258 1.015H2.25c-1.24 0-2.25 1.02-2.25 2.27v5.674a1.13 1.13 0 0 0 1.125 1.135H2.25V31.73C2.25 32.98 3.26 34 4.5 34h27c1.24 0 2.25-1.02 2.25-2.27V18.113h1.125A1.13 1.13 0 0 0 36 16.978v-5.674c0-1.25-1.01-2.27-2.25-2.27zM9.709 2.942a2.38 2.38 0 0 1 1.705-.717c.642 0 1.247.254 1.704.717 1.516 1.54 3.024 5.47 2.5 6.017 0 0-.095.075-.417.075-1.555 0-4.523-1.63-5.492-2.615a2.49 2.49 0 0 1 0-3.477zm7.166 28.788H4.5V18.113h12.375V31.73zm0-15.887H2.25v-4.54h14.625v4.54zm6.008-12.9c.913-.924 2.497-.922 3.408 0a2.49 2.49 0 0 1 0 3.476c-.97.985-3.937 2.615-5.492 2.615-.322 0-.416-.073-.418-.075-.523-.547.985-4.478 2.502-6.017zM31.5 31.73H19.125V18.113H31.5V31.73zm2.25-15.887H19.125v-4.54H33.75v4.54z"/></svg>