<svg xmlns="http://www.w3.org/2000/svg" width="97" height="90"><defs><linearGradient id="a" x1="50%" x2="50%" y1="0%" y2="98.632%"><stop offset="0%" stop-color="#F99538"/><stop offset="100%" stop-color="#E2402C"/></linearGradient></defs><path fill="url(#a)" d="M96.84 26.837c.11.687.569 4.302-.827 10.196-2.01 8.506-6.656 16.24-13.43 22.366L48.21 90 14.416 59.397C7.643 53.272 2.997 45.537.986 37.033-.409 31.137.05 27.523.162 26.835 1.576 11.283 12.608 0 26.412 0c9.049 0 17.125 4.838 21.82 12.856C52.971 4.941 61.392.002 70.588.002c13.805 0 24.836 11.283 26.252 26.835zm-4.459 9.344c1.32-5.58.778-8.733.774-8.763C91.918 13.616 82.438 3.725 70.59 3.725c-8.95 0-17.054 5.492-20.65 13.988l-1.717 4.064-1.718-4.064c-3.653-8.628-11.35-13.99-20.094-13.99-11.85 0-21.328 9.891-22.54 23.516l-.029.188c-.001.02-.544 3.172.777 8.752 1.837 7.766 6.09 14.84 12.304 20.459l31.31 28.354L80.086 56.63c6.203-5.607 10.458-12.683 12.294-20.45zM30.091 12c1.054 0 1.909.813 1.909 1.818 0 1.006-.853 1.818-1.91 1.818-8.42 0-15.272 6.526-15.272 14.546 0 1.005-.853 1.818-1.909 1.818S11 31.187 11 30.182C11 20.156 19.564 12 30.09 12z"/></svg>