<svg xmlns="http://www.w3.org/2000/svg" width="28" height="29"><g fill="none" fill-rule="evenodd"><path fill="#191D27" d="M-160-2943h1440V171H-160z"/><path fill="#818297" fill-rule="nonzero" d="M16.946 17.804c.893-.893 1.34-1.97 1.34-3.233 0-1.261-.447-2.339-1.34-3.232-.892-.893-1.97-1.339-3.232-1.339-1.262 0-2.339.446-3.232 1.34-.893.892-1.34 1.97-1.34 3.231 0 1.262.447 2.34 1.34 3.233.893.892 1.97 1.339 3.232 1.339 1.262 0 2.34-.447 3.232-1.34zm1.75-8.215c1.37 1.37 2.054 3.03 2.054 4.982 0 1.953-.685 3.614-2.054 4.983-1.369 1.369-3.03 2.053-4.982 2.053-1.952 0-3.613-.684-4.982-2.053-1.369-1.37-2.053-3.03-2.053-4.983 0-1.952.684-3.613 2.053-4.982 1.37-1.369 3.03-2.053 4.982-2.053 1.953 0 3.613.684 4.982 2.053zm3.5-3.5c.322.322.483.709.483 1.161 0 .452-.161.84-.483 1.16a1.582 1.582 0 0 1-1.16.483c-.453 0-.84-.16-1.161-.482a1.582 1.582 0 0 1-.482-1.161c0-.452.16-.84.482-1.16a1.582 1.582 0 0 1 1.16-.483c.453 0 .84.16 1.161.482zm-7.125-2.768h-1.357l-1.366-.009a96.913 96.913 0 0 0-1.884 0c-.428.006-1.003.024-1.723.054-.72.03-1.333.09-1.84.179-.505.089-.93.199-1.276.33a4.633 4.633 0 0 0-1.571 1.036 4.633 4.633 0 0 0-1.036 1.571 7.16 7.16 0 0 0-.33 1.277c-.09.506-.15 1.119-.18 1.84a66.16 66.16 0 0 0-.053 1.722 96.88 96.88 0 0 0 0 1.884l.01 1.366-.01 1.367a96.88 96.88 0 0 0 0 1.883c.006.429.024 1.003.054 1.724.03.72.09 1.333.179 1.839s.199.931.33 1.277a4.633 4.633 0 0 0 1.036 1.571 4.62 4.62 0 0 0 1.571 1.036c.345.13.77.24 1.277.33.506.09 1.119.149 1.84.179.72.03 1.294.047 1.722.053.429.006 1.057.006 1.884 0a472.82 472.82 0 0 1 1.366-.009l1.366.01c.828.005 1.456.005 1.884 0a66.198 66.198 0 0 0 1.724-.054c.72-.03 1.333-.09 1.839-.179.506-.09.931-.2 1.277-.33a4.633 4.633 0 0 0 1.571-1.036 4.633 4.633 0 0 0 1.036-1.571 7.16 7.16 0 0 0 .33-1.277c.09-.506.149-1.12.179-1.84s.047-1.294.053-1.723c.006-.428.006-1.056 0-1.884l-.009-1.366.01-1.366c.005-.827.005-1.455 0-1.884a66.155 66.155 0 0 0-.054-1.723 14.15 14.15 0 0 0-.179-1.84 7.16 7.16 0 0 0-.33-1.276 4.633 4.633 0 0 0-1.036-1.571 4.633 4.633 0 0 0-1.571-1.036 7.16 7.16 0 0 0-1.277-.33 14.152 14.152 0 0 0-1.84-.179c-.72-.03-1.294-.048-1.723-.054a72.955 72.955 0 0 0-1.893.01zm12.268 5.59c.06 1.047.09 2.934.09 5.66 0 2.727-.03 4.614-.09 5.661-.119 2.476-.857 4.393-2.214 5.75-1.357 1.357-3.274 2.095-5.75 2.214-1.048.06-2.935.09-5.66.09-2.727 0-4.614-.03-5.661-.09-2.477-.119-4.393-.857-5.75-2.214C.946 24.625.208 22.708.089 20.232.03 19.185 0 17.298 0 14.572c0-2.727.03-4.614.09-5.661.118-2.476.856-4.393 2.214-5.75C3.66 1.804 5.577 1.065 8.054.946 9.1.886 10.988.857 13.714.857s4.613.03 5.661.09c2.476.118 4.393.857 5.75 2.214 1.357 1.357 2.095 3.274 2.214 5.75z"/></g></svg>