<svg xmlns="http://www.w3.org/2000/svg" width="96" height="93"><defs><linearGradient id="a" x1="50%" x2="50%" y1="0%" y2="98.632%"><stop offset="0%" stop-color="#F99538"/><stop offset="100%" stop-color="#E2402C"/></linearGradient></defs><path fill="url(#a)" d="M80.06 39.605c.77.297 1.142 1.13.83 1.861C79.58 44.524 76.483 46.5 73 46.5c-2.272 0-4.41-.839-6.02-2.362a7.973 7.973 0 0 1-1.87-2.674c-.312-.732.061-1.564.833-1.86.772-.295 1.65.059 1.962.79.274.645.68 1.224 1.205 1.722A5.63 5.63 0 0 0 73 43.643c2.251 0 4.251-1.276 5.096-3.25.313-.732 1.192-1.084 1.963-.788zM64.5 28.5c.829 0 1.5.701 1.5 1.566v.868c0 .865-.671 1.566-1.5 1.566s-1.5-.701-1.5-1.566v-.868c0-.865.671-1.566 1.5-1.566zm17 0c.829 0 1.5.701 1.5 1.566v.868c0 .865-.671 1.566-1.5 1.566s-1.5-.701-1.5-1.566v-.868c0-.865.671-1.566 1.5-1.566zM32.06 39.605c.77.297 1.142 1.13.83 1.861C31.58 44.524 28.483 46.5 25 46.5c-2.272 0-4.41-.839-6.02-2.362a7.974 7.974 0 0 1-1.87-2.674c-.312-.732.062-1.564.834-1.86.772-.295 1.65.059 1.96.79.275.645.68 1.224 1.205 1.722A5.632 5.632 0 0 0 25 43.643c2.251 0 4.251-1.276 5.096-3.25.313-.732 1.191-1.084 1.963-.788zM16.5 28.5c.829 0 1.5.701 1.5 1.566v.868c0 .865-.671 1.566-1.5 1.566s-1.5-.701-1.5-1.566v-.868c0-.865.671-1.566 1.5-1.566zm17 0c.829 0 1.5.701 1.5 1.566v.868c0 .865-.671 1.566-1.5 1.566s-1.5-.701-1.5-1.566v-.868c0-.865.671-1.566 1.5-1.566zm61.094-6.833c-.777 0-1.406-.659-1.406-1.471v-4.082c0-4.176-3.248-7.574-7.24-7.574h-2.814c-.56 0-1.068-.348-1.29-.887l-.597-1.441c-.696-1.683-2.278-2.77-4.03-2.77h-9.329c-8.376 0-15.191 7.13-15.191 15.893V30.47a4.988 4.988 0 0 1 2.694-.892v-7.093c0-.27.005-.517.017-.756.02-.426.217-.82.537-1.083.32-.263.735-.367 1.134-.287 2.142.433 4.352.652 6.57.652 8.001 0 15.809-2.92 21.985-8.22a1.357 1.357 0 0 1 1.085-.32c.389.056.737.28.961.616 1.84 2.767 2.813 6.017 2.813 9.398v7.093c.993.03 1.917.354 2.695.892v-3.33c0-.812.629-1.47 1.406-1.47.777 0 1.406.658 1.406 1.47v22.233c0 4.354-3.385 7.897-7.547 7.897h-8.046v2.077h2.93c6.32 0 11.461 5.38 11.461 11.99v19.69c0 .813-.63 1.472-1.406 1.472H59.248c-.777 0-1.406-.659-1.406-1.471v-16.92h-7.03c-.776 0-1.406-.66-1.406-1.472 0-.812.63-1.47 1.407-1.47h8.435c.777 0 1.406.658 1.406 1.47v16.92h24.577V79.7c0-.812.63-1.471 1.407-1.471.776 0 1.406.659 1.406 1.471v9.857h3.941v-18.22c0-4.988-3.88-9.048-8.649-9.048h-2.929v.734c0 4.243-6.085 7.914-6.78 8.32a1.355 1.355 0 0 1-1.368 0c-.694-.406-6.782-4.077-6.782-8.32v-.734H42.619c2.42 2.2 3.954 5.44 3.954 9.049v19.69c0 .812-.63 1.47-1.406 1.47h-40.9c-.776 0-1.406-.658-1.406-1.47V75.346C1.174 74.532 0 72.746 0 70.679v-8.004c0-2.833 2.203-5.138 4.912-5.138h3.424c1.48 0 2.77.85 3.456 2.105a11 11 0 0 1 2.531-.294h2.929V56.54c-5.3-2.607-9.166-7.905-9.942-14.263-2.851-.004-5.17-2.432-5.17-5.417v-1.866a5.55 5.55 0 0 1 1.105-3.34c-.814-3.136-1.3-5.343-1.444-6.561-.286-2.404-.032-9.173-.01-9.743.016-4.017 3.145-7.28 6.988-7.28h1.55l4.618-4.831C16.65 1.455 19.165.71 21.508 1.295l17.688 4.402c.719.18 1.458.27 2.198.27a9.276 9.276 0 0 0 5.918-2.163c1.007-.84 2.357-.91 3.44-.18 1.082.73 1.578 2.046 1.263 3.352l-1.066 4.41c-.19.788-.955 1.265-1.707 1.066-.754-.199-1.21-.999-1.02-1.787l1.066-4.41c.01-.044.024-.1-.06-.158-.086-.057-.13-.02-.165.009-2.17 1.807-4.894 2.803-7.669 2.803-.959 0-1.917-.118-2.85-.35L20.857 4.158c-1.4-.35-2.902.095-3.92 1.16l-5.03 5.263a1.379 1.379 0 0 1-.995.431H8.779c-2.303 0-4.176 1.96-4.176 4.368l-.001.06c-.077 1.96-.229 7.449-.01 9.29.11.925.495 2.712 1.102 5.12.466-.162.96-.256 1.472-.271v-4.74c0-.775.574-1.416 1.312-1.468 3.677-.26 4.42-1.05 4.42-4.694 0-.669.432-1.254 1.05-1.423.62-.17 1.27.12 1.583.703.012.022 1.588 2.833 5.387 4.871 5.071 2.722 11.825 2.852 19.532.38a1.35 1.35 0 0 1 1.248.223c.359.277.57.716.57 1.183v4.965a4.94 4.94 0 0 1 1.331.225l2.996-12.405c.19-.788.956-1.264 1.708-1.066.753.2 1.21 1 1.02 1.787l-3.237 13.4a5.542 5.542 0 0 1 1.208 3.473v1.866c0 2.985-2.32 5.413-5.172 5.416-.51 4.17-2.364 8.013-5.303 10.942a17.538 17.538 0 0 1-4.638 3.323v2.808h33.296v-2.077h-8.044c-4.162 0-7.549-3.543-7.549-7.897v-30.04C49.884 8.95 57.961.5 67.888.5h9.328c2.875 0 5.47 1.783 6.612 4.543l.23.555h1.89C91.491 5.598 96 10.315 96 16.114v4.082c0 .812-.63 1.47-1.406 1.47zM9.999 40.728c.303 6.137 4.006 11.277 9.144 13.47.027.011.055.022.081.034 1.7.714 3.554 1.107 5.493 1.107a14.154 14.154 0 0 0 5.522-1.12 14.656 14.656 0 0 0 4.64-3.133c2.741-2.731 4.358-6.41 4.555-10.358.038-.782.656-1.395 1.404-1.395h1.279c1.304 0 2.365-1.11 2.365-2.474v-1.866c0-1.364-1.061-2.474-2.365-2.474h-1.255c-.777 0-1.406-.659-1.406-1.471v-4.486c-5.793 1.592-13.438 2.401-20.004-1.215a18.259 18.259 0 0 1-4.176-3.142c-.717 2.328-2.366 3.523-5.297 3.96v4.883c0 .812-.63 1.47-1.406 1.47H7.316c-1.303 0-2.363 1.11-2.363 2.475v1.866c0 1.364 1.06 2.474 2.363 2.474h1.279c.748 0 1.366.614 1.404 1.395zm19.37 16.897a16.86 16.86 0 0 1-9.304.001v5.398c0 2.683 2.086 4.866 4.651 4.866a4.52 4.52 0 0 0 3.29-1.424 4.95 4.95 0 0 0 1.362-3.442v-5.399zM2.812 70.679c0 1.21.941 2.196 2.099 2.196h3.424c.645 0 1.17-.549 1.17-1.223v-9.95c0-.674-.525-1.223-1.17-1.223H4.912c-1.158 0-2.1.985-2.1 2.196v8.004zm40.948.66c0-4.99-3.88-9.049-8.65-9.049h-2.93v.734c0 2.087-.777 4.048-2.186 5.522-1.41 1.475-3.284 2.287-5.279 2.287-4.116 0-7.464-3.503-7.464-7.809v-.734h-2.93a8.3 8.3 0 0 0-2.004.246v9.116c0 2.297-1.786 4.165-3.982 4.165H5.674v13.74h3.941v-9.856c0-.812.63-1.471 1.406-1.471.777 0 1.407.659 1.407 1.471v9.857h24.578V79.7c0-.812.629-1.471 1.406-1.471.777 0 1.406.659 1.406 1.471v9.857h3.943v-18.22zm33.834-8.315v-5.4a16.851 16.851 0 0 1-9.306.002v5.398c0 1.63 2.531 3.934 4.654 5.324 2.121-1.39 4.652-3.693 4.652-5.324zm15.593-21.643a4.984 4.984 0 0 1-2.84.894c-.51 4.168-2.364 8.011-5.302 10.941a17.76 17.76 0 0 1-1.225 1.112h4.632c2.61 0 4.734-2.222 4.734-4.954V41.38zm-37.646-8.862c-1.304 0-2.365 1.11-2.365 2.474v1.866c0 1.364 1.061 2.474 2.365 2.474h1.28c.748 0 1.365.614 1.403 1.396.303 6.135 4.006 11.275 9.142 13.47a14.146 14.146 0 0 0 5.574 1.14 14.16 14.16 0 0 0 5.548-1.13c1.694-.72 3.26-1.77 4.617-3.123 2.74-2.733 4.358-6.412 4.554-10.358.039-.782.656-1.395 1.404-1.395h1.28c1.302 0 2.362-1.11 2.362-2.474v-1.866c0-1.364-1.06-2.474-2.363-2.474h-1.257c-.777 0-1.406-.659-1.406-1.471v-8.562c0-2.25-.524-4.429-1.526-6.382-6.463 5.074-14.392 7.85-22.505 7.85-1.829 0-3.654-.138-5.446-.411v7.505c0 .812-.63 1.47-1.406 1.47h-1.255zm-.006 9.756a4.986 4.986 0 0 1-2.84-.894v7.993c0 2.732 2.125 4.954 4.737 4.954h4.629c-3.501-2.895-5.929-7.16-6.526-12.053z"/></svg>