<svg xmlns="http://www.w3.org/2000/svg" width="28" height="29"><g fill="none" fill-rule="evenodd"><path fill="#191D27" d="M-261-2941h1440V173H-261z"/><path fill="#818297" fill-rule="nonzero" d="M15.714 6.929c.56.547.84 1.214.84 2 0 .785-.277 1.455-.83 2.008a2.737 2.737 0 0 1-2.01.83 2.737 2.737 0 0 1-2.009-.83 2.737 2.737 0 0 1-.83-2.008c0-.786.277-1.456.83-2.01a2.737 2.737 0 0 1 2.01-.83c.785 0 1.452.28 2 .84zm4.661 8.482a1.455 1.455 0 0 0-.5-.572c-.214-.143-.497-.2-.848-.17s-.712.194-1.08.492a5.988 5.988 0 0 1-.518.357c-.227.143-.709.333-1.447.571a7.343 7.343 0 0 1-2.268.357 7.546 7.546 0 0 1-2.214-.321c-.702-.214-1.214-.429-1.536-.643l-.482-.321c-.369-.298-.729-.462-1.08-.491-.351-.03-.634.026-.848.17a1.455 1.455 0 0 0-.5.57c-.262.536-.274.98-.036 1.331.238.351.756.789 1.553 1.313.989.63 2.334 1.03 4.036 1.196l-.91.929a577.517 577.517 0 0 1-3.411 3.392 1.28 1.28 0 0 0-.393.938c0 .363.13.676.393.937l.16.161c.262.262.575.393.938.393s.676-.131.937-.393l3.411-3.41a456.029 456.029 0 0 0 3.41 3.41c.263.262.575.393.938.393s.676-.131.938-.393l.16-.16a1.28 1.28 0 0 0 .393-.938 1.28 1.28 0 0 0-.392-.938l-3.411-3.392-.929-.929c1.679-.167 3.018-.565 4.018-1.196.798-.524 1.316-.962 1.554-1.313s.226-.795-.036-1.33zm-2.571-2.393c1.13-1.131 1.696-2.494 1.696-4.09 0-1.595-.565-2.958-1.696-4.089-1.131-1.13-2.494-1.696-4.09-1.696-1.595 0-2.958.565-4.089 1.696C8.494 5.97 7.929 7.333 7.929 8.93c0 1.595.565 2.958 1.696 4.089 1.131 1.13 2.494 1.696 4.09 1.696 1.595 0 2.958-.565 4.089-1.696zM27.429 6v17.143c0 1.417-.503 2.628-1.51 3.634-1.005 1.006-2.217 1.509-3.633 1.509H5.143c-1.417 0-2.628-.503-3.634-1.51C.503 25.772 0 24.56 0 23.144V6c0-1.417.503-2.628 1.509-3.634C2.515 1.36 3.726.857 5.143.857h17.143c1.416 0 2.628.503 3.634 1.51C26.926 3.371 27.429 4.582 27.429 6z"/></g></svg>