<svg xmlns="http://www.w3.org/2000/svg" width="98" height="80"><path fill="#979797" d="M76.5 23a1.5 1.5 0 1 1-.001 3.001A1.5 1.5 0 0 1 76.5 23zm15.758-7.762c3.166 0 5.742 2.564 5.742 5.714v53.334C98 77.436 95.424 80 92.258 80H5.742C2.576 80 0 77.437 0 74.286V20.952c0-3.15 2.576-5.714 5.742-5.714h1.914v-1.905c0-3.15 2.576-5.714 5.742-5.714h3.829c3.166 0 5.742 2.563 5.742 5.714v1.905h3.793l6.07-12.078A5.714 5.714 0 0 1 37.966 0h22.066a5.715 5.715 0 0 1 5.136 3.16l6.069 12.078h21.02zM36.255 4.863l-5.213 10.375h35.916L61.745 4.863a1.905 1.905 0 0 0-1.712-1.053H37.967c-.73 0-1.385.403-1.712 1.053zm-24.77 8.47v1.905h7.656v-1.905c0-1.05-.859-1.904-1.914-1.904h-3.829a1.912 1.912 0 0 0-1.914 1.904zM3.827 34.267v26.685h24.204a24.619 24.619 0 0 1-3.915-13.333c0-4.763 1.37-9.398 3.915-13.352H3.828zM49 26.667c-11.525 0-21.055 9.294-21.055 20.952 0 11.65 9.521 20.952 21.055 20.952 11.523 0 21.055-9.293 21.055-20.952 0-11.673-9.545-20.952-21.055-20.952zm45.172 47.619v-9.524H66.949A24.957 24.957 0 0 1 49 72.38a24.958 24.958 0 0 1-17.949-7.62H3.828v9.525c0 1.05.859 1.904 1.914 1.904h86.516a1.912 1.912 0 0 0 1.914-1.904zm0-13.334V34.286H69.968a24.62 24.62 0 0 1 3.915 13.333 24.62 24.62 0 0 1-3.915 13.333h24.204zm0-30.476v-9.524c0-1.05-.859-1.904-1.914-1.904H5.742a1.912 1.912 0 0 0-1.914 1.904v9.524h27.223A24.958 24.958 0 0 1 49 22.857c6.78 0 13.272 2.767 17.949 7.62h27.223zM55.125 9C56.16 9 57 9.672 57 10.5s-.84 1.5-1.875 1.5h-11.25C42.839 12 42 11.328 42 10.5S42.84 9 43.875 9h11.25zM49.5 30C59.15 30 67 37.85 67 47.5S59.15 65 49.5 65 32 57.15 32 47.5 39.85 30 49.5 30zm0 31.111c7.505 0 13.611-6.106 13.611-13.611 0-7.505-6.106-13.611-13.611-13.611-7.505 0-13.611 6.106-13.611 13.611 0 7.505 6.106 13.611 13.611 13.611zM49 38a2 2 0 0 1 0 4c-3.308 0-6 2.692-6 6a2 2 0 1 1-4 0c0-5.514 4.486-10 10-10zm40.75-15c1.242 0 2.25.672 2.25 1.5S90.992 26 89.75 26h-4.5c-1.242 0-2.25-.672-2.25-1.5s1.008-1.5 2.25-1.5h4.5z"/></svg>