<svg width="303" height="1160" fill="none" xmlns="http://www.w3.org/2000/svg"><path fill="#ED1C24" d="M58.117 89.383l-6.5-6.5 1.266-1.266 6.5 6.5z"/><path fill="#ED1C24" d="M51.617 88.117l6.5-6.5 1.265 1.266-6.5 6.5z"/><path d="M25.952 12h2.464V3.072h3.408V.8h-9.28v2.272h3.408V12zM44.327.8h-2.288l-4.928 7.344V.8h-2.432V12h2.32l4.896-7.344V12h2.432V.8zM47.983 12h2.464V3.024h4.416V12h2.464V.8h-9.344V12zm23.996.192c2.16 0 3.44-.672 4.592-1.904l-1.568-1.68c-.88.8-1.664 1.312-2.944 1.312-1.92 0-3.248-1.6-3.248-3.52 0-1.952 1.36-3.52 3.248-3.52 1.28 0 2.016.464 2.88 1.248l1.472-1.696C75.37 1.408 74.187.608 72.075.608c-3.44 0-5.84 2.608-5.84 5.792 0 3.248 2.448 5.792 5.744 5.792zM79.503 12h8.528V9.808h-6.08V7.456h5.28V5.264h-5.28V2.992h6V.8h-8.448V12zm14.287 0h2.464V3.072h3.408V.8h-9.28v2.272h3.408V12zm8.727 0h2.464V8.576l1.296-1.344L109.749 12h2.96l-4.768-6.448L112.501.8h-2.976l-4.544 4.896V.8h-2.464V12zM124.813.8h-2.288l-4.928 7.344V.8h-2.432V12h2.32l4.896-7.344V12h2.432V.8zM23.344 220h2.464v-3.36h1.872c2.512 0 4.528-1.344 4.528-3.936 0-2.32-1.616-3.904-4.288-3.904h-4.576V220zm2.464-5.552v-3.424h1.904c1.232 0 2 .592 2 1.696 0 .992-.72 1.728-1.952 1.728h-1.952zM34.032 220h2.512l1.024-2.512h4.736L43.327 220h2.577l-4.8-11.28H38.83L34.03 220zm4.416-4.688l1.487-3.632 1.488 3.632h-2.976zm14.128-6.704c-2.128 0-3.472.752-4.512 1.84l1.296 1.568c.752-.768 1.648-1.232 3.024-1.232 1.072 0 1.808.464 1.808 1.248 0 .848-.704 1.296-2 1.296h-1.264v2.048h1.296c1.28 0 2.224.384 2.224 1.312 0 .864-.848 1.344-1.888 1.344-1.456 0-2.656-.528-3.568-1.424l-1.312 1.712c1.2 1.216 2.624 1.872 4.976 1.872 2.608 0 4.256-1.424 4.256-3.36 0-1.424-.896-2.256-2.096-2.64.992-.432 1.808-1.184 1.808-2.576 0-1.744-1.648-3.008-4.048-3.008zM60.021 220h2.416v-7.264l3.12 4.736h.064l3.152-4.784V220h2.448v-11.2h-2.656l-2.944 4.736-2.944-4.736H60.02V220zm14.85 0H83.4v-2.192h-6.08v-2.352h5.28v-2.192h-5.28v-2.272h6V208.8h-8.448V220zm11.68 0h2.463v-3.36h1.872c2.512 0 4.528-1.344 4.528-3.936 0-2.32-1.616-3.904-4.288-3.904H86.55V220zm2.463-5.552v-3.424h1.904c1.232 0 2 .592 2 1.696 0 .992-.72 1.728-1.952 1.728h-1.952zm23.805-5.648h-5.12c-2.624 0-4.224 1.376-4.224 3.696 0 1.84.976 2.976 2.4 3.504l-2.736 4h2.88l2.4-3.584h1.936V220h2.464v-11.2zm-4.96 5.44c-1.2 0-1.888-.64-1.888-1.584 0-1.088.736-1.632 1.936-1.632h2.448v3.216h-2.496zm15.114 5.76h2.464v-11.2h-2.464v4.832c-.512.4-1.456.72-2.448.72-1.264 0-1.808-.784-1.808-2.176V208.8h-2.464v4.096c0 2.592 1.536 3.76 3.76 3.76 1.136 0 2.208-.464 2.96-.832V220zm6.105 0h8.528v-2.192h-6.08v-2.352h5.28v-2.192h-5.28v-2.272h6V208.8h-8.448V220zm21.326-11.2h-2.288l-4.928 7.344V208.8h-2.432V220h2.32l4.896-7.344V220h2.432v-11.2zm-4.784-.848c1.472 0 2.464-.896 2.688-2.432l-1.424-.256c-.208.656-.592 1.072-1.264 1.072s-1.056-.416-1.264-1.072l-1.424.256c.224 1.536 1.216 2.432 2.688 2.432zM154.06 220h2.464v-3.424l1.296-1.344 3.472 4.768h2.96l-4.768-6.448 4.56-4.752h-2.976l-4.544 4.896V208.8h-2.464V220zm22.296-11.2h-2.288l-4.928 7.344V208.8h-2.432V220h2.32l4.896-7.344V220h2.432v-11.2zM23.344 637h2.464v-8.976h4.416V637h2.464v-11.2h-9.344V637zm14.48-11.2v2.32c0 6.032-.753 6.88-2.08 6.88a2.48 2.48 0 0 1-.385-.032L35.2 637c.304.08.896.144 1.296.144 2.56 0 3.632-1.68 3.632-8.272v-.848h3.232V637h2.464v-11.2h-8zm17.083 11.392c3.456 0 5.968-2.608 5.968-5.792 0-3.216-2.48-5.792-5.936-5.792s-5.968 2.608-5.968 5.792c0 3.216 2.48 5.792 5.936 5.792zm.032-2.272c-1.984 0-3.392-1.6-3.392-3.52 0-1.952 1.376-3.52 3.36-3.52s3.392 1.6 3.392 3.52c0 1.952-1.376 3.52-3.36 3.52zm23.418 4.416h2.048l.32-4.56h-1.328V625.8h-2.464v8.976h-4V625.8h-2.464v8.976h-3.984V625.8H64.02V637h14.336v2.336zM82.458 637h2.512l1.024-2.512h4.736L91.754 637h2.576l-4.8-11.28h-2.272l-4.8 11.28zm4.416-4.688l1.488-3.632 1.488 3.632h-2.976zm8.961 7.024h2.224l.16-2.336h7.008v2.336h2.064l.32-4.56h-1.344V625.8h-8.144v1.312c0 3.824-.4 5.728-1.232 7.664h-1.056v4.56zm7.968-11.312v6.752h-4.32c.64-1.552 1.008-3.248 1.008-5.616v-1.136h3.312zm6.489 8.976h4.688c2.624 0 4.256-1.456 4.256-3.76 0-2.192-1.504-3.632-4.096-3.632h-2.384V625.8h-2.464V637zm4.64-5.28c1.232 0 1.856.544 1.856 1.488 0 1.04-.624 1.568-1.84 1.568h-2.192v-3.056h2.176zm-86.148 27.472c3.456 0 5.968-2.608 5.968-5.792 0-3.216-2.48-5.792-5.936-5.792s-5.968 2.608-5.968 5.792c0 3.216 2.48 5.792 5.936 5.792zm.032-2.272c-1.984 0-3.392-1.6-3.392-3.52 0-1.952 1.376-3.52 3.36-3.52s3.392 1.6 3.392 3.52c0 1.952-1.376 3.52-3.36 3.52zm11.69 2.08h2.464v-8.928h3.408V647.8h-9.28v2.272h3.408V659zm8.727 0h2.464v-3.424l1.296-1.344L56.465 659h2.96l-4.768-6.448 4.56-4.752H56.24l-4.544 4.896V647.8h-2.464V659zm12.647 0h2.464v-3.36h1.872c2.512 0 4.528-1.344 4.528-3.936 0-2.32-1.616-3.904-4.288-3.904H61.88V659zm2.464-5.552v-3.424h1.904c1.232 0 2 .592 2 1.696 0 .992-.72 1.728-1.952 1.728h-1.952zM73.528 659h4.688c2.624 0 4.256-1.456 4.256-3.76 0-2.192-1.504-3.632-4.096-3.632h-2.384V647.8h-2.464V659zm4.64-5.28c1.232 0 1.856.544 1.856 1.488 0 1.04-.624 1.568-1.84 1.568h-2.192v-3.056h2.176zM83.72 659h2.464v-11.2H83.72V659zm8.72 0h2.463v-8.928h3.408V647.8h-9.28v2.272h3.408V659zm14.167.192c3.456 0 5.968-2.608 5.968-5.792 0-3.216-2.48-5.792-5.936-5.792s-5.968 2.608-5.968 5.792c0 3.216 2.48 5.792 5.936 5.792zm.032-2.272c-1.984 0-3.392-1.6-3.392-3.52 0-1.952 1.376-3.52 3.36-3.52s3.392 1.6 3.392 3.52c0 1.952-1.376 3.52-3.36 3.52zm11.545-6.896h5.36V647.8h-7.824V659h2.464v-8.976zm13.499 9.168c3.456 0 5.968-2.608 5.968-5.792 0-3.216-2.48-5.792-5.936-5.792s-5.968 2.608-5.968 5.792c0 3.216 2.48 5.792 5.936 5.792zm.032-2.272c-1.984 0-3.392-1.6-3.392-3.52 0-1.952 1.376-3.52 3.36-3.52s3.392 1.6 3.392 3.52c0 1.952-1.376 3.52-3.36 3.52zm20.086 2.272c2.16 0 3.44-.672 4.592-1.904l-1.568-1.68c-.88.8-1.664 1.312-2.944 1.312-1.92 0-3.248-1.6-3.248-3.52 0-1.952 1.36-3.52 3.248-3.52 1.28 0 2.016.464 2.88 1.248l1.472-1.696c-1.04-1.024-2.224-1.824-4.336-1.824-3.44 0-5.84 2.608-5.84 5.792 0 3.248 2.448 5.792 5.744 5.792zm7.525-.192h8.528v-2.192h-6.08v-2.352h5.28v-2.192h-5.28v-2.272h6V647.8h-8.448V659zm18.175 0h2.464v-11.2h-2.464v4.832c-.512.4-1.456.72-2.448.72-1.264 0-1.808-.784-1.808-2.176V647.8h-2.464v4.096c0 2.592 1.536 3.76 3.76 3.76 1.136 0 2.208-.464 2.96-.832V659zm6.104 0h8.528v-2.192h-6.08v-2.352h5.28v-2.192h-5.28v-2.272h6V647.8h-8.448V659zm11.679 0h2.464v-4.496h4.544V659h2.464v-11.2h-2.464v4.432h-4.544V647.8h-2.464V659zm22.764-11.2h-2.288l-4.928 7.344V647.8H208.4V659h2.32l4.896-7.344V659h2.432v-11.2zm12.52 0h-5.12c-2.624 0-4.224 1.376-4.224 3.696 0 1.84.976 2.976 2.4 3.504l-2.736 4h2.88l2.4-3.584h1.936V659h2.464v-11.2zm-4.96 5.44c-1.2 0-1.888-.64-1.888-1.584 0-1.088.736-1.632 1.936-1.632h2.448v3.216h-2.496zM30.688 420.584c1.808 0 3.008 1.072 3.008 2.72 0 1.68-1.2 2.736-3.008 2.736v-5.456zm0 8.864v-1.216c3.456 0 5.552-2.144 5.552-4.96s-2.128-4.88-5.552-4.88v-1.024h-2.464v1.024c-3.44 0-5.552 2.064-5.552 4.864 0 2.832 2.096 4.976 5.552 4.976v1.216h2.464zm-2.464-3.408c-1.808 0-3.024-1.056-3.024-2.736 0-1.648 1.216-2.72 3.024-2.72v5.456zm16.426 3.152c3.456 0 5.968-2.608 5.968-5.792 0-3.216-2.48-5.792-5.936-5.792s-5.968 2.608-5.968 5.792c0 3.216 2.48 5.792 5.936 5.792zm.032-2.272c-1.984 0-3.392-1.6-3.392-3.52 0-1.952 1.376-3.52 3.36-3.52s3.392 1.6 3.392 3.52c0 1.952-1.376 3.52-3.36 3.52zm9.082 2.08h2.464v-3.36H58.1c2.512 0 4.528-1.344 4.528-3.936 0-2.32-1.616-3.904-4.288-3.904h-4.576V429zm2.464-5.552v-3.424h1.904c1.232 0 2 .592 2 1.696 0 .992-.72 1.728-1.952 1.728h-1.952zM65.412 429h2.415v-7.264l3.12 4.736h.064l3.153-4.784V429h2.448v-11.2h-2.656l-2.945 4.736-2.944-4.736h-2.655V429zm13.89 0h2.512l1.024-2.512h4.736L88.598 429h2.576l-4.8-11.28h-2.272l-4.8 11.28zm4.416-4.688l1.488-3.632 1.488 3.632h-2.976zm24.766-6.512h-5.12c-2.624 0-4.224 1.376-4.224 3.696 0 1.84.976 2.976 2.4 3.504l-2.736 4h2.88l2.4-3.584h1.936V429h2.464v-11.2zm-4.96 5.44c-1.2 0-1.888-.64-1.888-1.584 0-1.088.736-1.632 1.936-1.632h2.448v3.216h-2.496zm15.114 5.76h2.464v-11.2h-2.464v4.832c-.512.4-1.456.72-2.448.72-1.264 0-1.808-.784-1.808-2.176V417.8h-2.464v4.096c0 2.592 1.536 3.76 3.76 3.76 1.136 0 2.208-.464 2.96-.832V429zm6.105 0h8.528v-2.192h-6.08v-2.352h5.28v-2.192h-5.28v-2.272h6V417.8h-8.448V429zm21.326-11.2h-2.288l-4.928 7.344V417.8h-2.432V429h2.32l4.896-7.344V429h2.432v-11.2zm-4.784-.848c1.472 0 2.465-.896 2.689-2.432l-1.425-.256c-.208.656-.592 1.072-1.264 1.072s-1.056-.416-1.264-1.072l-1.424.256c.224 1.536 1.216 2.432 2.688 2.432zm8.44 12.048h2.464v-3.424l1.296-1.344 3.472 4.768h2.96l-4.768-6.448 4.56-4.752h-2.976l-4.544 4.896V417.8h-2.464V429zm22.296-11.2h-2.288l-4.928 7.344V417.8h-2.432V429h2.32l4.896-7.344V429h2.432v-11.2z" fill="#0A0854"/><path d="M52.976 55h1.12v-8.792h3.29V45.2h-7.7v1.008h3.29V55zm6.306 0h1.036l4.312-5.726V55h1.078v-7.238h-1.05l-4.298 5.726v-5.726h-1.078V55zm8.832 0h1.078v-6.286h4.116V55h1.078v-7.238h-6.272V55zm16.141.168c1.358 0 2.226-.588 2.954-1.4l-.714-.658c-.574.616-1.26 1.092-2.184 1.092-1.512 0-2.66-1.246-2.66-2.814 0-1.582 1.12-2.828 2.59-2.828.98 0 1.652.462 2.226 1.064l.686-.728c-.672-.714-1.526-1.288-2.898-1.288-2.114 0-3.71 1.736-3.71 3.78 0 2.058 1.596 3.78 3.71 3.78zm7.9 0c1.372 0 2.254-.546 2.982-1.358l-.672-.602c-.588.616-1.288 1.022-2.282 1.022-1.274 0-2.394-.882-2.548-2.408h5.74c.014-.168.014-.28.014-.378 0-2.128-1.232-3.836-3.374-3.836-2.002 0-3.472 1.68-3.472 3.78 0 2.254 1.624 3.78 3.612 3.78zm-2.52-4.214c.154-1.4 1.106-2.436 2.352-2.436 1.428 0 2.184 1.12 2.31 2.436h-4.662zM99.026 55h1.092v-6.286h2.59v-.952h-6.272v.952h2.59V55zm5.25 0h1.078v-1.75l1.526-1.568L109.456 55h1.274l-3.108-4.102 3.024-3.136h-1.33l-3.962 4.172v-4.172h-1.078V55zm7.944 0h1.036l4.312-5.726V55h1.078v-7.238h-1.05l-4.298 5.726v-5.726h-1.078V55zm13.029 0h1.078v-3.164h4.172V55h1.078v-7.238h-1.078v3.122h-4.172v-3.122h-1.078V55zm12.04.168a3.758 3.758 0 0 0 3.794-3.78c0-2.072-1.596-3.78-3.766-3.78-2.184 0-3.78 1.736-3.78 3.78 0 2.072 1.582 3.78 3.752 3.78zm.028-.966c-1.526 0-2.674-1.26-2.674-2.814s1.078-2.828 2.646-2.828c1.526 0 2.688 1.274 2.688 2.828 0 1.554-1.092 2.814-2.66 2.814zm5.719.798h1.05v-5.516l2.646 3.668 2.674-3.668V55h1.092v-7.238h-1.036l-2.702 3.808-2.702-3.808h-1.022V55zm13.035.168c1.372 0 2.254-.546 2.982-1.358l-.672-.602c-.588.616-1.288 1.022-2.282 1.022-1.274 0-2.394-.882-2.548-2.408h5.74c.014-.168.014-.28.014-.378 0-2.128-1.232-3.836-3.374-3.836-2.002 0-3.472 1.68-3.472 3.78 0 2.254 1.624 3.78 3.612 3.78zm-2.52-4.214c.154-1.4 1.106-2.436 2.352-2.436 1.428 0 2.184 1.12 2.31 2.436h-4.662zm7.641 6.286h1.078v-3.626c.56.812 1.428 1.54 2.772 1.54 1.75 0 3.458-1.4 3.458-3.766 0-2.408-1.722-3.78-3.458-3.78-1.33 0-2.184.742-2.772 1.61v-1.456h-1.078v9.478zm3.654-3.052c-1.344 0-2.618-1.12-2.618-2.8 0-1.68 1.274-2.814 2.618-2.814 1.372 0 2.548 1.092 2.548 2.8 0 1.778-1.148 2.814-2.548 2.814zm11.142.812h1.092v-9.87h-.812l-2.394.826.266.896 1.848-.574V55z" fill="#1B222A"/><path d="M77.976 90h1.12v-8.792h3.29V80.2h-7.7v1.008h3.29V90zm6.306 0h1.036l4.312-5.726V90h1.078v-7.238h-1.05l-4.298 5.726v-5.726h-1.078V90zm8.832 0h1.078v-6.286h4.116V90h1.078v-7.238h-6.272V90zm16.141.168c1.358 0 2.226-.588 2.954-1.4l-.714-.658c-.574.616-1.26 1.092-2.184 1.092-1.512 0-2.66-1.246-2.66-2.814 0-1.582 1.12-2.828 2.59-2.828.98 0 1.652.462 2.226 1.064l.686-.728c-.672-.714-1.526-1.288-2.898-1.288-2.114 0-3.71 1.736-3.71 3.78 0 2.058 1.596 3.78 3.71 3.78zm7.9 0c1.372 0 2.254-.546 2.982-1.358l-.672-.602c-.588.616-1.288 1.022-2.282 1.022-1.274 0-2.394-.882-2.548-2.408h5.74c.014-.168.014-.28.014-.378 0-2.128-1.232-3.836-3.374-3.836-2.002 0-3.472 1.68-3.472 3.78 0 2.254 1.624 3.78 3.612 3.78zm-2.52-4.214c.154-1.4 1.106-2.436 2.352-2.436 1.428 0 2.184 1.12 2.31 2.436h-4.662zM124.026 90h1.092v-6.286h2.59v-.952h-6.272v.952h2.59V90zm5.25 0h1.078v-1.75l1.526-1.568L134.456 90h1.274l-3.108-4.102 3.024-3.136h-1.33l-3.962 4.172v-4.172h-1.078V90zm7.944 0h1.036l4.312-5.726V90h1.078v-7.238h-1.05l-4.298 5.726v-5.726h-1.078V90zm13.029 0h1.078v-3.164h4.172V90h1.078v-7.238h-1.078v3.122h-4.172v-3.122h-1.078V90zm12.04.168a3.758 3.758 0 0 0 3.794-3.78c0-2.072-1.596-3.78-3.766-3.78-2.184 0-3.78 1.736-3.78 3.78 0 2.072 1.582 3.78 3.752 3.78zm.028-.966c-1.526 0-2.674-1.26-2.674-2.814s1.078-2.828 2.646-2.828c1.526 0 2.688 1.274 2.688 2.828 0 1.554-1.092 2.814-2.66 2.814zm5.719.798h1.05v-5.516l2.646 3.668 2.674-3.668V90h1.092v-7.238h-1.036l-2.702 3.808-2.702-3.808h-1.022V90zm13.035.168c1.372 0 2.254-.546 2.982-1.358l-.672-.602c-.588.616-1.288 1.022-2.282 1.022-1.274 0-2.394-.882-2.548-2.408h5.74c.014-.168.014-.28.014-.378 0-2.128-1.232-3.836-3.374-3.836-2.002 0-3.472 1.68-3.472 3.78 0 2.254 1.624 3.78 3.612 3.78zm-2.52-4.214c.154-1.4 1.106-2.436 2.352-2.436 1.428 0 2.184 1.12 2.31 2.436h-4.662zm7.641 6.286h1.078v-3.626c.56.812 1.428 1.54 2.772 1.54 1.75 0 3.458-1.4 3.458-3.766 0-2.408-1.722-3.78-3.458-3.78-1.33 0-2.184.742-2.772 1.61v-1.456h-1.078v9.478zm3.654-3.052c-1.344 0-2.618-1.12-2.618-2.8 0-1.68 1.274-2.814 2.618-2.814 1.372 0 2.548 1.092 2.548 2.8 0 1.778-1.148 2.814-2.548 2.814zm11.142.812h1.092v-9.87h-.812l-2.394.826.266.896 1.848-.574V90z" fill="#ED1C24"/><path d="M52.976 123h1.12v-8.792h3.29V113.2h-7.7v1.008h3.29V123zm6.306 0h1.036l4.312-5.726V123h1.078v-7.238h-1.05l-4.298 5.726v-5.726h-1.078V123zm8.832 0h1.078v-6.286h4.116V123h1.078v-7.238h-6.272V123zm16.141.168c1.358 0 2.226-.588 2.954-1.4l-.714-.658c-.574.616-1.26 1.092-2.184 1.092-1.512 0-2.66-1.246-2.66-2.814 0-1.582 1.12-2.828 2.59-2.828.98 0 1.652.462 2.226 1.064l.686-.728c-.672-.714-1.526-1.288-2.898-1.288-2.114 0-3.71 1.736-3.71 3.78 0 2.058 1.596 3.78 3.71 3.78zm7.9 0c1.372 0 2.254-.546 2.982-1.358l-.672-.602c-.588.616-1.288 1.022-2.282 1.022-1.274 0-2.394-.882-2.548-2.408h5.74c.014-.168.014-.28.014-.378 0-2.128-1.232-3.836-3.374-3.836-2.002 0-3.472 1.68-3.472 3.78 0 2.254 1.624 3.78 3.612 3.78zm-2.52-4.214c.154-1.4 1.106-2.436 2.352-2.436 1.428 0 2.184 1.12 2.31 2.436h-4.662zM99.026 123h1.092v-6.286h2.59v-.952h-6.272v.952h2.59V123zm5.25 0h1.078v-1.75l1.526-1.568 2.576 3.318h1.274l-3.108-4.102 3.024-3.136h-1.33l-3.962 4.172v-4.172h-1.078V123zm7.944 0h1.036l4.312-5.726V123h1.078v-7.238h-1.05l-4.298 5.726v-5.726h-1.078V123zm13.029 0h1.078v-3.164h4.172V123h1.078v-7.238h-1.078v3.122h-4.172v-3.122h-1.078V123zm12.04.168a3.758 3.758 0 0 0 3.794-3.78c0-2.072-1.596-3.78-3.766-3.78-2.184 0-3.78 1.736-3.78 3.78 0 2.072 1.582 3.78 3.752 3.78zm.028-.966c-1.526 0-2.674-1.26-2.674-2.814s1.078-2.828 2.646-2.828c1.526 0 2.688 1.274 2.688 2.828 0 1.554-1.092 2.814-2.66 2.814zm5.719.798h1.05v-5.516l2.646 3.668 2.674-3.668V123h1.092v-7.238h-1.036l-2.702 3.808-2.702-3.808h-1.022V123zm13.035.168c1.372 0 2.254-.546 2.982-1.358l-.672-.602c-.588.616-1.288 1.022-2.282 1.022-1.274 0-2.394-.882-2.548-2.408h5.74c.014-.168.014-.28.014-.378 0-2.128-1.232-3.836-3.374-3.836-2.002 0-3.472 1.68-3.472 3.78 0 2.254 1.624 3.78 3.612 3.78zm-2.52-4.214c.154-1.4 1.106-2.436 2.352-2.436 1.428 0 2.184 1.12 2.31 2.436h-4.662zm7.641 6.286h1.078v-3.626c.56.812 1.428 1.54 2.772 1.54 1.75 0 3.458-1.4 3.458-3.766 0-2.408-1.722-3.78-3.458-3.78-1.33 0-2.184.742-2.772 1.61v-1.456h-1.078v9.478zm3.654-3.052c-1.344 0-2.618-1.12-2.618-2.8 0-1.68 1.274-2.814 2.618-2.814 1.372 0 2.548 1.092 2.548 2.8 0 1.778-1.148 2.814-2.548 2.814zm11.142.812h1.092v-9.87h-.812l-2.394.826.266.896 1.848-.574V123zM52.976 157h1.12v-8.792h3.29V147.2h-7.7v1.008h3.29V157zm6.306 0h1.036l4.312-5.726V157h1.078v-7.238h-1.05l-4.298 5.726v-5.726h-1.078V157zm8.832 0h1.078v-6.286h4.116V157h1.078v-7.238h-6.272V157zm16.141.168c1.358 0 2.226-.588 2.954-1.4l-.714-.658c-.574.616-1.26 1.092-2.184 1.092-1.512 0-2.66-1.246-2.66-2.814 0-1.582 1.12-2.828 2.59-2.828.98 0 1.652.462 2.226 1.064l.686-.728c-.672-.714-1.526-1.288-2.898-1.288-2.114 0-3.71 1.736-3.71 3.78 0 2.058 1.596 3.78 3.71 3.78zm7.9 0c1.372 0 2.254-.546 2.982-1.358l-.672-.602c-.588.616-1.288 1.022-2.282 1.022-1.274 0-2.394-.882-2.548-2.408h5.74c.014-.168.014-.28.014-.378 0-2.128-1.232-3.836-3.374-3.836-2.002 0-3.472 1.68-3.472 3.78 0 2.254 1.624 3.78 3.612 3.78zm-2.52-4.214c.154-1.4 1.106-2.436 2.352-2.436 1.428 0 2.184 1.12 2.31 2.436h-4.662zM99.026 157h1.092v-6.286h2.59v-.952h-6.272v.952h2.59V157zm5.25 0h1.078v-1.75l1.526-1.568 2.576 3.318h1.274l-3.108-4.102 3.024-3.136h-1.33l-3.962 4.172v-4.172h-1.078V157zm7.944 0h1.036l4.312-5.726V157h1.078v-7.238h-1.05l-4.298 5.726v-5.726h-1.078V157zm13.029 0h1.078v-3.164h4.172V157h1.078v-7.238h-1.078v3.122h-4.172v-3.122h-1.078V157zm12.04.168a3.758 3.758 0 0 0 3.794-3.78c0-2.072-1.596-3.78-3.766-3.78-2.184 0-3.78 1.736-3.78 3.78 0 2.072 1.582 3.78 3.752 3.78zm.028-.966c-1.526 0-2.674-1.26-2.674-2.814s1.078-2.828 2.646-2.828c1.526 0 2.688 1.274 2.688 2.828 0 1.554-1.092 2.814-2.66 2.814zm5.719.798h1.05v-5.516l2.646 3.668 2.674-3.668V157h1.092v-7.238h-1.036l-2.702 3.808-2.702-3.808h-1.022V157zm13.035.168c1.372 0 2.254-.546 2.982-1.358l-.672-.602c-.588.616-1.288 1.022-2.282 1.022-1.274 0-2.394-.882-2.548-2.408h5.74c.014-.168.014-.28.014-.378 0-2.128-1.232-3.836-3.374-3.836-2.002 0-3.472 1.68-3.472 3.78 0 2.254 1.624 3.78 3.612 3.78zm-2.52-4.214c.154-1.4 1.106-2.436 2.352-2.436 1.428 0 2.184 1.12 2.31 2.436h-4.662zm7.641 6.286h1.078v-3.626c.56.812 1.428 1.54 2.772 1.54 1.75 0 3.458-1.4 3.458-3.766 0-2.408-1.722-3.78-3.458-3.78-1.33 0-2.184.742-2.772 1.61v-1.456h-1.078v9.478zm3.654-3.052c-1.344 0-2.618-1.12-2.618-2.8 0-1.68 1.274-2.814 2.618-2.814 1.372 0 2.548 1.092 2.548 2.8 0 1.778-1.148 2.814-2.548 2.814zm11.142.812h1.092v-9.87h-.812l-2.394.826.266.896 1.848-.574V157z" fill="#1B222A"/><path fill="#ED1C24" d="M58.117 303.383l-6.5-6.5 1.266-1.265 6.5 6.5z"/><path fill="#ED1C24" d="M51.617 302.117l6.5-6.5 1.266 1.266-6.5 6.5z"/><path d="M49.546 269h1.204l2.254-2.954 2.24 2.954h1.246l-2.856-3.71 2.744-3.528h-1.204l-2.142 2.8-2.142-2.8h-1.232l2.73 3.556L49.546 269zm8.04 0h1.203l2.254-2.954 2.24 2.954h1.246l-2.856-3.71 2.744-3.528h-1.204l-2.142 2.8-2.142-2.8h-1.232l2.73 3.556L57.585 269zm8.038 0h1.204l2.254-2.954 2.24 2.954h1.246l-2.856-3.71 2.744-3.528h-1.204l-2.142 2.8-2.142-2.8h-1.232l2.73 3.556L65.624 269zm12.6-3.64h3.892v-1.134h-3.891v1.134zm9.549 3.64h1.204l2.254-2.954L93.47 269h1.246l-2.856-3.71 2.744-3.528H93.4l-2.142 2.8-2.142-2.8h-1.232l2.73 3.556L87.773 269zm8.039 0h1.204l2.254-2.954 2.24 2.954h1.246l-2.856-3.71 2.744-3.528h-1.204l-2.142 2.8-2.142-2.8h-1.232l2.73 3.556L95.812 269zm8.039 0h1.204l2.254-2.954 2.24 2.954h1.246l-2.856-3.71 2.744-3.528h-1.204l-2.142 2.8-2.142-2.8h-1.232l2.73 3.556-2.842 3.682z" fill="#1B222A"/><path d="M74.546 304h1.204l2.254-2.954 2.24 2.954h1.246l-2.856-3.71 2.744-3.528h-1.204l-2.142 2.8-2.142-2.8h-1.232l2.73 3.556L74.546 304zm8.04 0h1.203l2.254-2.954 2.24 2.954h1.246l-2.856-3.71 2.744-3.528h-1.204l-2.142 2.8-2.142-2.8h-1.232l2.73 3.556L82.585 304zm8.038 0h1.204l2.254-2.954 2.24 2.954h1.246l-2.856-3.71 2.744-3.528h-1.204l-2.142 2.8-2.142-2.8h-1.232l2.73 3.556L90.624 304zm12.6-3.64h3.892v-1.134h-3.892v1.134zm9.549 3.64h1.204l2.254-2.954 2.24 2.954h1.246l-2.856-3.71 2.744-3.528h-1.204l-2.142 2.8-2.142-2.8h-1.232l2.73 3.556-2.842 3.682zm8.039 0h1.204l2.254-2.954 2.24 2.954h1.246l-2.856-3.71 2.744-3.528h-1.204l-2.142 2.8-2.142-2.8h-1.232l2.73 3.556-2.842 3.682zm8.039 0h1.204l2.254-2.954 2.24 2.954h1.246l-2.856-3.71 2.744-3.528h-1.204l-2.142 2.8-2.142-2.8h-1.232l2.73 3.556-2.842 3.682z" fill="#ED1C24"/><path d="M49.546 337h1.204l2.254-2.954 2.24 2.954h1.246l-2.856-3.71 2.744-3.528h-1.204l-2.142 2.8-2.142-2.8h-1.232l2.73 3.556L49.546 337zm8.04 0h1.203l2.254-2.954 2.24 2.954h1.246l-2.856-3.71 2.744-3.528h-1.204l-2.142 2.8-2.142-2.8h-1.232l2.73 3.556L57.585 337zm8.038 0h1.204l2.254-2.954 2.24 2.954h1.246l-2.856-3.71 2.744-3.528h-1.204l-2.142 2.8-2.142-2.8h-1.232l2.73 3.556L65.624 337zm12.6-3.64h3.892v-1.134h-3.891v1.134zm9.549 3.64h1.204l2.254-2.954L93.47 337h1.246l-2.856-3.71 2.744-3.528H93.4l-2.142 2.8-2.142-2.8h-1.232l2.73 3.556L87.773 337zm8.039 0h1.204l2.254-2.954 2.24 2.954h1.246l-2.856-3.71 2.744-3.528h-1.204l-2.142 2.8-2.142-2.8h-1.232l2.73 3.556L95.812 337zm8.039 0h1.204l2.254-2.954 2.24 2.954h1.246l-2.856-3.71 2.744-3.528h-1.204l-2.142 2.8-2.142-2.8h-1.232l2.73 3.556-2.842 3.682zm-54.305 34h1.204l2.254-2.954 2.24 2.954h1.246l-2.856-3.71 2.744-3.528h-1.204l-2.142 2.8-2.142-2.8h-1.232l2.73 3.556L49.546 371zm8.04 0h1.203l2.254-2.954 2.24 2.954h1.246l-2.856-3.71 2.744-3.528h-1.204l-2.142 2.8-2.142-2.8h-1.232l2.73 3.556L57.585 371zm8.038 0h1.204l2.254-2.954 2.24 2.954h1.246l-2.856-3.71 2.744-3.528h-1.204l-2.142 2.8-2.142-2.8h-1.232l2.73 3.556L65.624 371zm12.6-3.64h3.892v-1.134h-3.891v1.134zm9.549 3.64h1.204l2.254-2.954L93.47 371h1.246l-2.856-3.71 2.744-3.528H93.4l-2.142 2.8-2.142-2.8h-1.232l2.73 3.556L87.773 371zm8.039 0h1.204l2.254-2.954 2.24 2.954h1.246l-2.856-3.71 2.744-3.528h-1.204l-2.142 2.8-2.142-2.8h-1.232l2.73 3.556L95.812 371zm8.039 0h1.204l2.254-2.954 2.24 2.954h1.246l-2.856-3.71 2.744-3.528h-1.204l-2.142 2.8-2.142-2.8h-1.232l2.73 3.556-2.842 3.682z" fill="#1B222A"/><path fill="#ED1C24" d="M58.117 509.383l-6.5-6.5 1.266-1.265 6.5 6.5z"/><path fill="#ED1C24" d="M51.617 508.117l6.5-6.5 1.266 1.266-6.5 6.5z"/><path d="M54.726 475.364h1.106v-1.078c3.164 0 4.956-1.68 4.956-4.228s-1.806-4.214-4.956-4.214v-.966h-1.106v.966c-3.15 0-4.956 1.666-4.956 4.214 0 2.548 1.792 4.228 4.956 4.228v1.078zm0-2.086c-2.422 0-3.808-1.12-3.808-3.206 0-2.072 1.386-3.22 3.808-3.22v6.426zm1.106 0v-6.426c2.422 0 3.808 1.148 3.808 3.22 0 2.086-1.386 3.206-3.808 3.206zm10.24 1.89a3.758 3.758 0 0 0 3.794-3.78c0-2.072-1.596-3.78-3.766-3.78-2.183 0-3.78 1.736-3.78 3.78 0 2.072 1.583 3.78 3.753 3.78zm.028-.966c-1.525 0-2.673-1.26-2.673-2.814s1.077-2.828 2.646-2.828c1.526 0 2.688 1.274 2.688 2.828 0 1.554-1.093 2.814-2.66 2.814zm5.72 3.038h1.077v-3.626c.56.812 1.428 1.54 2.772 1.54 1.75 0 3.458-1.4 3.458-3.766 0-2.408-1.722-3.78-3.458-3.78-1.33 0-2.184.742-2.772 1.61v-1.456H71.82v9.478zm3.653-3.052c-1.344 0-2.618-1.12-2.618-2.8 0-1.68 1.274-2.814 2.618-2.814 1.372 0 2.548 1.092 2.548 2.8 0 1.778-1.148 2.814-2.548 2.814zm5.643.812h1.05v-5.516l2.646 3.668 2.674-3.668V475h1.092v-7.238h-1.036l-2.702 3.808-2.702-3.808h-1.022V475zm12.027.154c1.274 0 2.1-.588 2.604-1.232V475h1.064v-4.424c0-.924-.252-1.624-.756-2.128-.518-.518-1.316-.798-2.338-.798-1.064 0-1.834.252-2.632.616l.322.882c.672-.308 1.344-.518 2.198-.518 1.358 0 2.142.672 2.142 1.96v.224a7.583 7.583 0 0 0-2.212-.308c-1.834 0-3.094.812-3.094 2.366 0 1.512 1.344 2.282 2.702 2.282zm.21-.868c-.98 0-1.82-.532-1.82-1.442 0-.896.77-1.484 2.114-1.484.882 0 1.582.154 2.114.308v.672c0 1.148-1.078 1.946-2.408 1.946zm9.939.714h1.078v-3.164h4.172V475h1.078v-7.238h-1.078v3.122h-4.172v-3.122h-1.078V475zm12.04.168a3.758 3.758 0 0 0 3.794-3.78c0-2.072-1.596-3.78-3.766-3.78-2.184 0-3.78 1.736-3.78 3.78 0 2.072 1.582 3.78 3.752 3.78zm.028-.966c-1.526 0-2.674-1.26-2.674-2.814s1.078-2.828 2.646-2.828c1.526 0 2.688 1.274 2.688 2.828 0 1.554-1.092 2.814-2.66 2.814zm5.719.798h1.05v-5.516l2.646 3.668 2.674-3.668V475h1.092v-7.238h-1.036l-2.702 3.808-2.702-3.808h-1.022V475zm13.035.168c1.372 0 2.254-.546 2.982-1.358l-.672-.602c-.588.616-1.288 1.022-2.282 1.022-1.274 0-2.394-.882-2.548-2.408h5.74c.014-.168.014-.28.014-.378 0-2.128-1.232-3.836-3.374-3.836-2.002 0-3.472 1.68-3.472 3.78 0 2.254 1.624 3.78 3.612 3.78zm-2.52-4.214c.154-1.4 1.106-2.436 2.352-2.436 1.428 0 2.184 1.12 2.31 2.436h-4.662zm7.641 6.286h1.078v-3.626c.56.812 1.428 1.54 2.772 1.54 1.75 0 3.458-1.4 3.458-3.766 0-2.408-1.722-3.78-3.458-3.78-1.33 0-2.184.742-2.772 1.61v-1.456h-1.078v9.478zm3.654-3.052c-1.344 0-2.618-1.12-2.618-2.8 0-1.68 1.274-2.814 2.618-2.814 1.372 0 2.548 1.092 2.548 2.8 0 1.778-1.148 2.814-2.548 2.814zm11.142.812h1.092v-9.87h-.812l-2.394.826.266.896 1.848-.574V475z" fill="#1B222A"/><path d="M79.726 510.364h1.106v-1.078c3.164 0 4.956-1.68 4.956-4.228s-1.806-4.214-4.956-4.214v-.966h-1.106v.966c-3.15 0-4.956 1.666-4.956 4.214 0 2.548 1.792 4.228 4.956 4.228v1.078zm0-2.086c-2.422 0-3.808-1.12-3.808-3.206 0-2.072 1.386-3.22 3.808-3.22v6.426zm1.106 0v-6.426c2.422 0 3.808 1.148 3.808 3.22 0 2.086-1.386 3.206-3.808 3.206zm10.24 1.89a3.758 3.758 0 0 0 3.794-3.78c0-2.072-1.596-3.78-3.766-3.78-2.183 0-3.78 1.736-3.78 3.78 0 2.072 1.583 3.78 3.753 3.78zm.028-.966c-1.525 0-2.673-1.26-2.673-2.814s1.077-2.828 2.645-2.828c1.526 0 2.688 1.274 2.688 2.828 0 1.554-1.092 2.814-2.66 2.814zm5.72 3.038h1.077v-3.626c.56.812 1.428 1.54 2.772 1.54 1.75 0 3.458-1.4 3.458-3.766 0-2.408-1.722-3.78-3.458-3.78-1.33 0-2.184.742-2.772 1.61v-1.456H96.82v9.478zm3.653-3.052c-1.344 0-2.618-1.12-2.618-2.8 0-1.68 1.274-2.814 2.618-2.814 1.372 0 2.548 1.092 2.548 2.8 0 1.778-1.148 2.814-2.548 2.814zm5.643.812h1.05v-5.516l2.646 3.668 2.674-3.668V510h1.092v-7.238h-1.036l-2.702 3.808-2.702-3.808h-1.022V510zm12.027.154c1.274 0 2.1-.588 2.604-1.232V510h1.064v-4.424c0-.924-.252-1.624-.756-2.128-.518-.518-1.316-.798-2.338-.798-1.064 0-1.834.252-2.632.616l.322.882c.672-.308 1.344-.518 2.198-.518 1.358 0 2.142.672 2.142 1.96v.224a7.583 7.583 0 0 0-2.212-.308c-1.834 0-3.094.812-3.094 2.366 0 1.512 1.344 2.282 2.702 2.282zm.21-.868c-.98 0-1.82-.532-1.82-1.442 0-.896.77-1.484 2.114-1.484.882 0 1.582.154 2.114.308v.672c0 1.148-1.078 1.946-2.408 1.946zm9.939.714h1.078v-3.164h4.172V510h1.078v-7.238h-1.078v3.122h-4.172v-3.122h-1.078V510zm12.04.168a3.758 3.758 0 0 0 3.794-3.78c0-2.072-1.596-3.78-3.766-3.78-2.184 0-3.78 1.736-3.78 3.78 0 2.072 1.582 3.78 3.752 3.78zm.028-.966c-1.526 0-2.674-1.26-2.674-2.814s1.078-2.828 2.646-2.828c1.526 0 2.688 1.274 2.688 2.828 0 1.554-1.092 2.814-2.66 2.814zm5.719.798h1.05v-5.516l2.646 3.668 2.674-3.668V510h1.092v-7.238h-1.036l-2.702 3.808-2.702-3.808h-1.022V510zm13.035.168c1.372 0 2.254-.546 2.982-1.358l-.672-.602c-.588.616-1.288 1.022-2.282 1.022-1.274 0-2.394-.882-2.548-2.408h5.74c.014-.168.014-.28.014-.378 0-2.128-1.232-3.836-3.374-3.836-2.002 0-3.472 1.68-3.472 3.78 0 2.254 1.624 3.78 3.612 3.78zm-2.52-4.214c.154-1.4 1.106-2.436 2.352-2.436 1.428 0 2.184 1.12 2.31 2.436h-4.662zm7.641 6.286h1.078v-3.626c.56.812 1.428 1.54 2.772 1.54 1.75 0 3.458-1.4 3.458-3.766 0-2.408-1.722-3.78-3.458-3.78-1.33 0-2.184.742-2.772 1.61v-1.456h-1.078v9.478zm3.654-3.052c-1.344 0-2.618-1.12-2.618-2.8 0-1.68 1.274-2.814 2.618-2.814 1.372 0 2.548 1.092 2.548 2.8 0 1.778-1.148 2.814-2.548 2.814zm11.142.812h1.092v-9.87h-.812l-2.394.826.266.896 1.848-.574V510z" fill="#ED1C24"/><path d="M54.726 543.364h1.106v-1.078c3.164 0 4.956-1.68 4.956-4.228s-1.806-4.214-4.956-4.214v-.966h-1.106v.966c-3.15 0-4.956 1.666-4.956 4.214 0 2.548 1.792 4.228 4.956 4.228v1.078zm0-2.086c-2.422 0-3.808-1.12-3.808-3.206 0-2.072 1.386-3.22 3.808-3.22v6.426zm1.106 0v-6.426c2.422 0 3.808 1.148 3.808 3.22 0 2.086-1.386 3.206-3.808 3.206zm10.24 1.89a3.758 3.758 0 0 0 3.794-3.78c0-2.072-1.596-3.78-3.766-3.78-2.183 0-3.78 1.736-3.78 3.78 0 2.072 1.583 3.78 3.753 3.78zm.028-.966c-1.525 0-2.673-1.26-2.673-2.814s1.077-2.828 2.646-2.828c1.526 0 2.688 1.274 2.688 2.828 0 1.554-1.093 2.814-2.66 2.814zm5.72 3.038h1.077v-3.626c.56.812 1.428 1.54 2.772 1.54 1.75 0 3.458-1.4 3.458-3.766 0-2.408-1.722-3.78-3.458-3.78-1.33 0-2.184.742-2.772 1.61v-1.456H71.82v9.478zm3.653-3.052c-1.344 0-2.618-1.12-2.618-2.8 0-1.68 1.274-2.814 2.618-2.814 1.372 0 2.548 1.092 2.548 2.8 0 1.778-1.148 2.814-2.548 2.814zm5.643.812h1.05v-5.516l2.646 3.668 2.674-3.668V543h1.092v-7.238h-1.036l-2.702 3.808-2.702-3.808h-1.022V543zm12.027.154c1.274 0 2.1-.588 2.604-1.232V543h1.064v-4.424c0-.924-.252-1.624-.756-2.128-.518-.518-1.316-.798-2.338-.798-1.064 0-1.834.252-2.632.616l.322.882c.672-.308 1.344-.518 2.198-.518 1.358 0 2.142.672 2.142 1.96v.224a7.583 7.583 0 0 0-2.212-.308c-1.834 0-3.094.812-3.094 2.366 0 1.512 1.344 2.282 2.702 2.282zm.21-.868c-.98 0-1.82-.532-1.82-1.442 0-.896.77-1.484 2.114-1.484.882 0 1.582.154 2.114.308v.672c0 1.148-1.078 1.946-2.408 1.946zm9.939.714h1.078v-3.164h4.172V543h1.078v-7.238h-1.078v3.122h-4.172v-3.122h-1.078V543zm12.04.168a3.758 3.758 0 0 0 3.794-3.78c0-2.072-1.596-3.78-3.766-3.78-2.184 0-3.78 1.736-3.78 3.78 0 2.072 1.582 3.78 3.752 3.78zm.028-.966c-1.526 0-2.674-1.26-2.674-2.814s1.078-2.828 2.646-2.828c1.526 0 2.688 1.274 2.688 2.828 0 1.554-1.092 2.814-2.66 2.814zm5.719.798h1.05v-5.516l2.646 3.668 2.674-3.668V543h1.092v-7.238h-1.036l-2.702 3.808-2.702-3.808h-1.022V543zm13.035.168c1.372 0 2.254-.546 2.982-1.358l-.672-.602c-.588.616-1.288 1.022-2.282 1.022-1.274 0-2.394-.882-2.548-2.408h5.74c.014-.168.014-.28.014-.378 0-2.128-1.232-3.836-3.374-3.836-2.002 0-3.472 1.68-3.472 3.78 0 2.254 1.624 3.78 3.612 3.78zm-2.52-4.214c.154-1.4 1.106-2.436 2.352-2.436 1.428 0 2.184 1.12 2.31 2.436h-4.662zm7.641 6.286h1.078v-3.626c.56.812 1.428 1.54 2.772 1.54 1.75 0 3.458-1.4 3.458-3.766 0-2.408-1.722-3.78-3.458-3.78-1.33 0-2.184.742-2.772 1.61v-1.456h-1.078v9.478zm3.654-3.052c-1.344 0-2.618-1.12-2.618-2.8 0-1.68 1.274-2.814 2.618-2.814 1.372 0 2.548 1.092 2.548 2.8 0 1.778-1.148 2.814-2.548 2.814zm11.142.812h1.092v-9.87h-.812l-2.394.826.266.896 1.848-.574V543zm-99.305 34.364h1.106v-1.078c3.164 0 4.956-1.68 4.956-4.228s-1.806-4.214-4.956-4.214v-.966h-1.106v.966c-3.15 0-4.956 1.666-4.956 4.214 0 2.548 1.792 4.228 4.956 4.228v1.078zm0-2.086c-2.422 0-3.808-1.12-3.808-3.206 0-2.072 1.386-3.22 3.808-3.22v6.426zm1.106 0v-6.426c2.422 0 3.808 1.148 3.808 3.22 0 2.086-1.386 3.206-3.808 3.206zm10.24 1.89a3.758 3.758 0 0 0 3.794-3.78c0-2.072-1.596-3.78-3.766-3.78-2.183 0-3.78 1.736-3.78 3.78 0 2.072 1.583 3.78 3.753 3.78zm.028-.966c-1.525 0-2.673-1.26-2.673-2.814s1.077-2.828 2.646-2.828c1.526 0 2.688 1.274 2.688 2.828 0 1.554-1.093 2.814-2.66 2.814zm5.72 3.038h1.077v-3.626c.56.812 1.428 1.54 2.772 1.54 1.75 0 3.458-1.4 3.458-3.766 0-2.408-1.722-3.78-3.458-3.78-1.33 0-2.184.742-2.772 1.61v-1.456H71.82v9.478zm3.653-3.052c-1.344 0-2.618-1.12-2.618-2.8 0-1.68 1.274-2.814 2.618-2.814 1.372 0 2.548 1.092 2.548 2.8 0 1.778-1.148 2.814-2.548 2.814zm5.643.812h1.05v-5.516l2.646 3.668 2.674-3.668V577h1.092v-7.238h-1.036l-2.702 3.808-2.702-3.808h-1.022V577zm12.027.154c1.274 0 2.1-.588 2.604-1.232V577h1.064v-4.424c0-.924-.252-1.624-.756-2.128-.518-.518-1.316-.798-2.338-.798-1.064 0-1.834.252-2.632.616l.322.882c.672-.308 1.344-.518 2.198-.518 1.358 0 2.142.672 2.142 1.96v.224a7.583 7.583 0 0 0-2.212-.308c-1.834 0-3.094.812-3.094 2.366 0 1.512 1.344 2.282 2.702 2.282zm.21-.868c-.98 0-1.82-.532-1.82-1.442 0-.896.77-1.484 2.114-1.484.882 0 1.582.154 2.114.308v.672c0 1.148-1.078 1.946-2.408 1.946zm9.939.714h1.078v-3.164h4.172V577h1.078v-7.238h-1.078v3.122h-4.172v-3.122h-1.078V577zm12.04.168a3.758 3.758 0 0 0 3.794-3.78c0-2.072-1.596-3.78-3.766-3.78-2.184 0-3.78 1.736-3.78 3.78 0 2.072 1.582 3.78 3.752 3.78zm.028-.966c-1.526 0-2.674-1.26-2.674-2.814s1.078-2.828 2.646-2.828c1.526 0 2.688 1.274 2.688 2.828 0 1.554-1.092 2.814-2.66 2.814zm5.719.798h1.05v-5.516l2.646 3.668 2.674-3.668V577h1.092v-7.238h-1.036l-2.702 3.808-2.702-3.808h-1.022V577zm13.035.168c1.372 0 2.254-.546 2.982-1.358l-.672-.602c-.588.616-1.288 1.022-2.282 1.022-1.274 0-2.394-.882-2.548-2.408h5.74c.014-.168.014-.28.014-.378 0-2.128-1.232-3.836-3.374-3.836-2.002 0-3.472 1.68-3.472 3.78 0 2.254 1.624 3.78 3.612 3.78zm-2.52-4.214c.154-1.4 1.106-2.436 2.352-2.436 1.428 0 2.184 1.12 2.31 2.436h-4.662zm7.641 6.286h1.078v-3.626c.56.812 1.428 1.54 2.772 1.54 1.75 0 3.458-1.4 3.458-3.766 0-2.408-1.722-3.78-3.458-3.78-1.33 0-2.184.742-2.772 1.61v-1.456h-1.078v9.478zm3.654-3.052c-1.344 0-2.618-1.12-2.618-2.8 0-1.68 1.274-2.814 2.618-2.814 1.372 0 2.548 1.092 2.548 2.8 0 1.778-1.148 2.814-2.548 2.814zm11.142.812h1.092v-9.87h-.812l-2.394.826.266.896 1.848-.574V577z" fill="#1B222A"/><rect width="244" height="3" rx="1.5" transform="matrix(1 0 0 -1 23 920)" fill="#61A0FF"/><rect width="153" height="3" rx="1.5" transform="matrix(1 0 0 -1 69 920)" fill="#ED1C24"/><path d="M31.648 889.336h2.048l.32-4.56h-1.328V875.8h-2.464v8.976h-4.416V875.8h-2.464V887h8.304v2.336zM36.71 887h8.528v-2.192h-6.08v-2.352h5.28v-2.192h-5.28v-2.272h6V875.8H36.71V887zm11.679 0h2.464v-4.496h4.544V887h2.464v-11.2h-2.464v4.432h-4.544V875.8h-2.464V887zm12.156 0h2.512l1.024-2.512h4.736L69.841 887h2.576l-4.8-11.28h-2.272l-4.8 11.28zm4.416-4.688l1.488-3.632 1.488 3.632h-2.976z" fill="#0A0854"/><path fill="#ED1C24" d="M58.117 757.383l-6.5-6.5 1.266-1.265 6.5 6.5z"/><path fill="#ED1C24" d="M51.617 756.117l6.5-6.5 1.266 1.266-6.5 6.5z"/><path d="M49.546 723h1.204l2.254-2.954 2.24 2.954h1.246l-2.856-3.71 2.744-3.528h-1.204l-2.142 2.8-2.142-2.8h-1.232l2.73 3.556L49.546 723zm8.04 0h1.203l2.254-2.954 2.24 2.954h1.246l-2.856-3.71 2.744-3.528h-1.204l-2.142 2.8-2.142-2.8h-1.232l2.73 3.556L57.585 723zm8.038 0h1.204l2.254-2.954 2.24 2.954h1.246l-2.856-3.71 2.744-3.528h-1.204l-2.142 2.8-2.142-2.8h-1.232l2.73 3.556L65.624 723zm12.6-3.64h3.892v-1.134h-3.891v1.134zm9.549 3.64h1.204l2.254-2.954L93.47 723h1.246l-2.856-3.71 2.744-3.528H93.4l-2.142 2.8-2.142-2.8h-1.232l2.73 3.556L87.773 723zm8.039 0h1.204l2.254-2.954 2.24 2.954h1.246l-2.856-3.71 2.744-3.528h-1.204l-2.142 2.8-2.142-2.8h-1.232l2.73 3.556L95.812 723zm8.039 0h1.204l2.254-2.954 2.24 2.954h1.246l-2.856-3.71 2.744-3.528h-1.204l-2.142 2.8-2.142-2.8h-1.232l2.73 3.556-2.842 3.682z" fill="#1B222A"/><path d="M74.546 758h1.204l2.254-2.954 2.24 2.954h1.246l-2.856-3.71 2.744-3.528h-1.204l-2.142 2.8-2.142-2.8h-1.232l2.73 3.556L74.546 758zm8.04 0h1.203l2.254-2.954 2.24 2.954h1.246l-2.856-3.71 2.744-3.528h-1.204l-2.142 2.8-2.142-2.8h-1.232l2.73 3.556L82.585 758zm8.038 0h1.204l2.254-2.954 2.24 2.954h1.246l-2.856-3.71 2.744-3.528h-1.204l-2.142 2.8-2.142-2.8h-1.232l2.73 3.556L90.624 758zm12.6-3.64h3.892v-1.134h-3.892v1.134zm9.549 3.64h1.204l2.254-2.954 2.24 2.954h1.246l-2.856-3.71 2.744-3.528h-1.204l-2.142 2.8-2.142-2.8h-1.232l2.73 3.556-2.842 3.682zm8.039 0h1.204l2.254-2.954 2.24 2.954h1.246l-2.856-3.71 2.744-3.528h-1.204l-2.142 2.8-2.142-2.8h-1.232l2.73 3.556-2.842 3.682zm8.039 0h1.204l2.254-2.954 2.24 2.954h1.246l-2.856-3.71 2.744-3.528h-1.204l-2.142 2.8-2.142-2.8h-1.232l2.73 3.556-2.842 3.682z" fill="#ED1C24"/><path d="M49.546 791h1.204l2.254-2.954 2.24 2.954h1.246l-2.856-3.71 2.744-3.528h-1.204l-2.142 2.8-2.142-2.8h-1.232l2.73 3.556L49.546 791zm8.04 0h1.203l2.254-2.954 2.24 2.954h1.246l-2.856-3.71 2.744-3.528h-1.204l-2.142 2.8-2.142-2.8h-1.232l2.73 3.556L57.585 791zm8.038 0h1.204l2.254-2.954 2.24 2.954h1.246l-2.856-3.71 2.744-3.528h-1.204l-2.142 2.8-2.142-2.8h-1.232l2.73 3.556L65.624 791zm12.6-3.64h3.892v-1.134h-3.891v1.134zm9.549 3.64h1.204l2.254-2.954L93.47 791h1.246l-2.856-3.71 2.744-3.528H93.4l-2.142 2.8-2.142-2.8h-1.232l2.73 3.556L87.773 791zm8.039 0h1.204l2.254-2.954 2.24 2.954h1.246l-2.856-3.71 2.744-3.528h-1.204l-2.142 2.8-2.142-2.8h-1.232l2.73 3.556L95.812 791zm8.039 0h1.204l2.254-2.954 2.24 2.954h1.246l-2.856-3.71 2.744-3.528h-1.204l-2.142 2.8-2.142-2.8h-1.232l2.73 3.556-2.842 3.682zm-54.305 34h1.204l2.254-2.954 2.24 2.954h1.246l-2.856-3.71 2.744-3.528h-1.204l-2.142 2.8-2.142-2.8h-1.232l2.73 3.556L49.546 825zm8.04 0h1.203l2.254-2.954 2.24 2.954h1.246l-2.856-3.71 2.744-3.528h-1.204l-2.142 2.8-2.142-2.8h-1.232l2.73 3.556L57.585 825zm8.038 0h1.204l2.254-2.954 2.24 2.954h1.246l-2.856-3.71 2.744-3.528h-1.204l-2.142 2.8-2.142-2.8h-1.232l2.73 3.556L65.624 825zm12.6-3.64h3.892v-1.134h-3.891v1.134zm9.549 3.64h1.204l2.254-2.954L93.47 825h1.246l-2.856-3.71 2.744-3.528H93.4l-2.142 2.8-2.142-2.8h-1.232l2.73 3.556L87.773 825zm8.039 0h1.204l2.254-2.954 2.24 2.954h1.246l-2.856-3.71 2.744-3.528h-1.204l-2.142 2.8-2.142-2.8h-1.232l2.73 3.556L95.812 825zm8.039 0h1.204l2.254-2.954 2.24 2.954h1.246l-2.856-3.71 2.744-3.528h-1.204l-2.142 2.8-2.142-2.8h-1.232l2.73 3.556-2.842 3.682zM58.546 942h1.204l2.254-2.954 2.24 2.954h1.246l-2.856-3.71 2.744-3.528h-1.204l-2.142 2.8-2.142-2.8h-1.232l2.73 3.556L58.546 942zm8.04 0h1.203l2.254-2.954 2.24 2.954h1.246l-2.856-3.71 2.744-3.528h-1.204l-2.142 2.8-2.142-2.8h-1.232l2.73 3.556L66.585 942zm8.038 0h1.204l2.254-2.954 2.24 2.954h1.246l-2.856-3.71 2.744-3.528h-1.204l-2.142 2.8-2.142-2.8h-1.232l2.73 3.556L74.624 942zm131.922 0h1.204l2.254-2.954 2.24 2.954h1.246l-2.856-3.71 2.744-3.528h-1.204l-2.142 2.8-2.142-2.8h-1.232l2.73 3.556-2.842 3.682zm8.039 0h1.204l2.254-2.954 2.24 2.954h1.246l-2.856-3.71 2.744-3.528h-1.204l-2.142 2.8-2.142-2.8h-1.232l2.73 3.556-2.842 3.682zm8.039 0h1.204l2.254-2.954 2.24 2.954h1.246l-2.856-3.71 2.744-3.528h-1.204l-2.142 2.8-2.142-2.8h-1.232l2.73 3.556-2.842 3.682z" fill="#1B222A"/><rect x="62" y="912" width="14" height="14" rx="7" fill="#0A0854"/><rect x="66" y="916" width="6" height="6" rx="3" fill="#fff"/><rect x="212" y="912" width="14" height="14" rx="7" fill="#0A0854"/><rect x="216" y="916" width="6" height="6" rx="3" fill="#fff"/><path d="M97.872 1007.19c2.16 0 3.44-.67 4.592-1.9l-1.568-1.68c-.88.8-1.664 1.31-2.944 1.31-1.92 0-3.248-1.6-3.248-3.52 0-1.952 1.36-3.52 3.248-3.52 1.28 0 2.016.464 2.88 1.248l1.472-1.696c-1.04-1.024-2.224-1.824-4.336-1.824-3.44 0-5.84 2.608-5.84 5.792 0 3.25 2.448 5.79 5.744 5.79zm12.228-9.166h6.128V995.8h-8.592v11.2h5.184c2.592 0 4.176-1.26 4.176-3.55 0-2.1-1.408-3.474-3.936-3.474h-2.96v-1.952zm2.704 3.996c1.168 0 1.728.47 1.728 1.33 0 .98-.56 1.43-1.712 1.43h-2.72v-2.76h2.704zm9.423 4.98h2.464v-3.36h1.872c2.512 0 4.528-1.34 4.528-3.936 0-2.32-1.616-3.904-4.288-3.904h-4.576v11.2zm2.464-5.55v-3.426h1.904c1.232 0 2 .592 2 1.696 0 .99-.72 1.73-1.952 1.73h-1.952zm16.863 5.74c3.456 0 5.968-2.61 5.968-5.79 0-3.216-2.48-5.792-5.936-5.792s-5.968 2.608-5.968 5.792c0 3.22 2.48 5.79 5.936 5.79zm.032-2.27c-1.984 0-3.392-1.6-3.392-3.52 0-1.952 1.376-3.52 3.36-3.52s3.392 1.6 3.392 3.52c0 1.95-1.376 3.52-3.36 3.52zm16.57 2.27c2.16 0 3.44-.67 4.592-1.9l-1.568-1.68c-.88.8-1.664 1.31-2.944 1.31-1.92 0-3.248-1.6-3.248-3.52 0-1.952 1.36-3.52 3.248-3.52 1.28 0 2.016.464 2.88 1.248l1.472-1.696c-1.04-1.024-2.224-1.824-4.336-1.824-3.44 0-5.84 2.608-5.84 5.792 0 3.25 2.448 5.79 5.744 5.79zm19.413-11.39h-2.288l-4.928 7.34v-7.34h-2.432v11.2h2.32l4.896-7.344V1007h2.432v-11.2zm8.503 11.2h2.464v-8.928h3.408V995.8h-9.28v2.272h3.408V1007zm10.967 0h4.688c2.624 0 4.256-1.46 4.256-3.76 0-2.19-1.504-3.632-4.096-3.632h-2.384V995.8h-2.464v11.2zm4.64-5.28c1.232 0 1.856.54 1.856 1.49 0 1.04-.624 1.57-1.84 1.57h-2.192v-3.06h2.176zM75.479 1026h5.327c2.528 0 4.192-1.02 4.192-3.07 0-1.54-.8-2.29-2.096-2.79.8-.44 1.472-1.15 1.472-2.41 0-.8-.256-1.43-.768-1.94-.64-.64-1.648-.99-2.928-.99h-5.2v11.2zm2.4-6.67v-2.37h2.431c1.04 0 1.616.42 1.616 1.15 0 .87-.688 1.22-1.776 1.22h-2.272zm0 4.51v-2.46h2.847c1.264 0 1.824.46 1.824 1.21 0 .87-.656 1.25-1.744 1.25h-2.928zm17.594 2.35c2.16 0 3.44-.67 4.592-1.9l-1.568-1.68c-.88.8-1.664 1.31-2.944 1.31-1.92 0-3.248-1.6-3.248-3.52 0-1.95 1.36-3.52 3.248-3.52 1.28 0 2.016.46 2.88 1.25l1.472-1.7c-1.04-1.02-2.224-1.82-4.336-1.82-3.44 0-5.84 2.61-5.84 5.79 0 3.25 2.448 5.79 5.744 5.79zm9.765-.19h8.528v-2.19h-6.08v-2.35h5.28v-2.2h-5.28v-2.27h6v-2.19h-8.448v11.2zm29.259-8.42c1.808 0 3.008 1.08 3.008 2.72 0 1.68-1.2 2.74-3.008 2.74v-5.46zm0 8.87v-1.22c3.456 0 5.552-2.14 5.552-4.96 0-2.81-2.128-4.88-5.552-4.88v-1.02h-2.464v1.02c-3.44 0-5.552 2.07-5.552 4.87 0 2.83 2.096 4.97 5.552 4.97v1.22h2.464zm-2.464-3.41c-1.808 0-3.024-1.06-3.024-2.74 0-1.64 1.216-2.72 3.024-2.72v5.46zm22.875-8.24h-2.288l-4.928 7.34v-7.34h-2.432v11.2h2.32l4.896-7.34v7.34h2.432v-11.2zm7.383 0v2.32c0 6.03-.752 6.88-2.08 6.88-.16 0-.272-.02-.384-.03l-.16 2.03c.304.08.896.14 1.296.14 2.56 0 3.632-1.68 3.632-8.27v-.85h3.232v8.98h2.464v-11.2h-8zm13.884 11.2h4.688c2.624 0 4.256-1.46 4.256-3.76 0-2.19-1.504-3.63-4.096-3.63h-2.384v-3.81h-2.464v11.2zm4.64-5.28c1.232 0 1.856.54 1.856 1.49 0 1.04-.624 1.57-1.84 1.57h-2.192v-3.06h2.176zm11.996 5.28h2.464v-8.93h3.408v-2.27h-9.28v2.27h3.408v8.93zm10.967 0h2.464v-3.36h1.872c2.512 0 4.528-1.34 4.528-3.94 0-2.32-1.616-3.9-4.288-3.9h-4.576v11.2zm2.464-5.55v-3.43h1.904c1.232 0 2 .6 2 1.7 0 .99-.72 1.73-1.952 1.73h-1.952zm11.424 5.55h4.688c2.624 0 4.256-1.46 4.256-3.76 0-2.19-1.504-3.63-4.096-3.63h-2.384v-3.81h-2.464v11.2zm4.64-5.28c1.232 0 1.856.54 1.856 1.49 0 1.04-.624 1.57-1.84 1.57h-2.192v-3.06h2.176zm5.552 5.28h2.464v-11.2h-2.464v11.2z" fill="#0A0854"/><path d="M99.344 1093h2.464v-8.98h4.416v8.98h2.464v-11.2h-9.344v11.2zm12.031 0h2.464v-3.36h1.872c2.512 0 4.528-1.34 4.528-3.94 0-2.32-1.616-3.9-4.288-3.9h-4.576v11.2zm2.464-5.55v-3.43h1.904c1.232 0 2 .6 2 1.7 0 .99-.72 1.73-1.952 1.73h-1.952zm17.872-5.65h-2.288l-4.928 7.34v-7.34h-2.432v11.2h2.32l4.896-7.34v7.34h2.432v-11.2zm2.696 11.2h2.416v-7.26l3.12 4.73h.064l3.152-4.78v7.31h2.448v-11.2h-2.656l-2.944 4.74-2.945-4.74h-2.655v11.2zm13.89 0h8.528v-2.19h-6.08v-2.35h5.28v-2.2h-5.28v-2.27h6v-2.19h-8.448v11.2zm10.719 0h2.464v-4.5h4.544v4.5h2.464v-11.2h-2.464v4.43h-4.544v-4.43h-2.464v11.2zm21.804-11.2h-2.288l-4.928 7.34v-7.34h-2.432v11.2h2.32l4.896-7.34v7.34h2.432v-11.2zm5.304 11.2h2.464v-8.93h3.408v-2.27h-9.28v2.27h3.408v8.93zm7.767 0h4.688c2.624 0 4.256-1.46 4.256-3.76 0-2.19-1.504-3.63-4.096-3.63h-2.384v-3.81h-2.464v11.2zm4.64-5.28c1.232 0 1.856.54 1.856 1.49 0 1.04-.624 1.57-1.84 1.57h-2.192v-3.06h2.176z" fill="#fff"/><g filter="url(#filter0_d)"><path fill="#fff" d="M34 1048h235v64H34z"/><path stroke="#DEEFFF" stroke-width="5" d="M36.5 1050.5h230v59h-230z"/></g><path d="M59.344 1086h2.464v-8.98h4.416v8.98h2.464v-11.2h-9.344v11.2zm15.231 0h2.464v-3.36h1.872c2.512 0 4.528-1.34 4.528-3.94 0-2.32-1.616-3.9-4.288-3.9h-4.576v11.2zm2.464-5.55v-3.43h1.904c1.232 0 2 .6 2 1.7 0 .99-.72 1.73-1.952 1.73H77.04zm21.072-5.65h-2.288l-4.928 7.34v-7.34h-2.432v11.2h2.32l4.896-7.34v7.34h2.432v-11.2zm5.895 11.2h2.416v-7.26l3.12 4.73h.064l3.152-4.78v7.31h2.448v-11.2h-2.656l-2.944 4.74-2.944-4.74h-2.656v11.2zm17.091 0h8.528v-2.19h-6.08v-2.35h5.28v-2.2h-5.28v-2.27h6v-2.19h-8.448v11.2zm13.919 0h2.464v-4.5h4.544v4.5h2.464v-11.2h-2.464v4.43h-4.544v-4.43h-2.464v11.2zm25.004-11.2h-2.288l-4.928 7.34v-7.34h-2.432v11.2h2.32l4.896-7.34v7.34h2.432v-11.2zm8.504 11.2h2.464v-8.93h3.408v-2.27h-9.28v2.27h3.408v8.93zm10.967 0h4.688c2.624 0 4.256-1.46 4.256-3.76 0-2.19-1.504-3.63-4.096-3.63h-2.384v-3.81h-2.464v11.2zm4.64-5.28c1.232 0 1.856.54 1.856 1.49 0 1.04-.624 1.57-1.84 1.57h-2.192v-3.06h2.176z" fill="#0A0854"/><path d="M236.712 1079.49c.667.39.667 1.35 0 1.74l-10.212 5.89a.996.996 0 0 1-1.5-.86v-11.8c0-.77.833-1.25 1.5-.86l10.212 5.89z" stroke="#ED1C24" stroke-width="2"/><defs><filter id="filter0_d" x="0" y="1028" width="303" height="132" filterUnits="userSpaceOnUse" color-interpolation-filters="sRGB"><feFlood flood-opacity="0" result="BackgroundImageFix"/><feColorMatrix in="SourceAlpha" values="0 0 0 0 0 0 0 0 0 0 0 0 0 0 0 0 0 0 127 0"/><feOffset dy="14"/><feGaussianBlur stdDeviation="17"/><feColorMatrix values="0 0 0 0 0 0 0 0 0 0 0 0 0 0 0 0 0 0 0.1 0"/><feBlend in2="BackgroundImageFix" result="effect1_dropShadow"/><feBlend in="SourceGraphic" in2="effect1_dropShadow" result="shape"/></filter></defs></svg>