<svg width="249" height="46" fill="none" xmlns="http://www.w3.org/2000/svg"><path fill-rule="evenodd" clip-rule="evenodd" d="M62.279 14.493L47 23.014l15.279 8.521c3.963 2.053 7.926 1.928 11.89-.249L89 23.014l-14.831-8.272c-1.982-1.12-3.963-1.68-5.945-1.742-1.918 0-3.9.498-5.946 1.493zM41 22.987L25.14 13.96c-1.819-.748-3.574-1.059-5.33-.934-1.755.124-3.51.684-5.266 1.68L0 22.987l14.544 8.28c3.511 1.991 7.022 2.303 10.595.746L41 22.987z" fill="#fff"/><path fill-rule="evenodd" clip-rule="evenodd" d="M24 9.938l15.923 9.082c3.449 1.493 6.771 1.244 10.094-.498L65 10 50.518 1.726c-4.075-2.301-8.087-2.301-12.099 0L24 9.938z" fill="#ED1C24"/><path fill-rule="evenodd" clip-rule="evenodd" d="M39.923 27L24 36.073l14.419 8.203c4.075 2.299 8.087 2.299 12.1 0L65 36.01l-14.983-8.513c-3.323-1.802-6.708-1.989-10.094-.497zm205.888 9.937l.188-1.757h-5.503l.626-5.9h-2.064l-.813 7.72h7.566v-.063zm-11.067 0l.188-1.757h-5.503l.625-5.9h-2.063l-.813 7.72h7.566v-.063zM220.55 34.05h-3.251l2.001-3.138 1.25 3.138zm3.502 2.887l-3.126-7.72h-2.877l-4.752 7.72h2.251l.813-1.318h4.877l.563 1.318h2.251zm-12.193-5.9l.188-1.757h-8.504l-.187 1.758h3.188l-.625 5.9h2.064l.625-5.9h3.251zm-12.505 5.9l.187-1.694h-6.002l.188-1.507h5.689l.125-1.443h-5.689l.125-1.38h5.94l.187-1.695h-7.941l-.812 7.72h8.003zm-11.818 0l.813-7.72h-2.939l-3.751 5.65-2.439-5.65h-3.063l-.813 7.72h2.063l.563-5.648 2.438 5.648h2.001l3.689-5.648-.562 5.648h2zm-28.574-2.698v-.252h-2.064v.252c-.125.878-.5.94-1.375.94h-2.501c-.938 0-1.063-.438-.938-1.568l.125-1.193c.125-1.066.375-1.443 1.188-1.443h2.563c.688 0 1.188.063 1.188.753l-.062.314h2.126l.062-.314c.25-2.322-.875-2.51-2.626-2.51h-2.751c-1.938 0-3.439.376-3.689 2.887l-.188 2.008c-.312 2.824 1.313 2.887 3.127 2.887h2.501c1 0 1.751 0 2.501-.565.625-.565.75-1.318.813-2.197zm-12.943 2.698l.187-1.694h-6.002l.187-1.507h5.69l.125-1.443h-5.69l.125-1.38h5.94l.188-1.695h-7.941l-.813 7.72h8.004zm-22.885-5.9l.188-1.757h-9.004l-.188 1.758h3.439l-.625 5.9h2.063l.625-5.9h3.502zm9.504.691c-.062.628-.188.816-.75.816h-3.814l.187-1.632h3.814c.563 0 .626.188.563.816zm1.688 5.21l-1.375-2.95c1-.126 1.625-.628 1.75-2.072v-.188c0-.126.063-.251.063-.314.188-1.82-.688-2.134-2.188-2.134h-6.128l-.813 7.72h2.063l.313-2.887h2.626L132.013 37h2.313v-.063zm37.579 0l-1.751-3.83 2.564-3.828h-2.376l-1.939 2.887h-3.376l.312-2.887h-2.063l-.813 7.72h2.064l.312-3.013h3.314L169.591 37h2.314v-.063zm-61.151-2.449c.187-1.757-.313-2.196-2.626-2.196l-3.252-.063c-.563 0-.813-.063-.75-.69.062-.44.187-.69 1.25-.69h5.003l.187-1.695h-5.002c-2.001 0-3.251.125-3.501 2.322-.251 2.197.875 2.26 2.751 2.322l2.876.063c.813 0 1.063.063 1 .69-.062.628-.375.69-1.375.69h-5.127L102 36.938h5.127c3.377.063 3.502-1.192 3.627-2.447zM249 7h-25.198c-.938 0-1.751.753-1.813 1.632l-.188 1.757h9.879l-1.438 13.494h5.377c.938 0 1.751-.753 1.814-1.632.437-3.954.812-7.908 1.25-11.862h8.254c.938 0 1.75-.753 1.813-1.632L249 7zM136.64 23.946c-2.814 0-4.815-2.323-4.565-5.084.25-2.26.501-4.519.688-6.778C133.076 9.259 135.577 7 138.39 7h16.195c2.814 0 4.814 2.322 4.564 5.084-.25 2.26-.5 4.518-.687 6.778-.313 2.824-2.814 5.084-5.628 5.084H136.64zm2.501-5.084c-.125.941.563 1.632 1.5 1.632h9.004c.938 0 1.751-.753 1.814-1.632.25-2.26.5-4.519.687-6.778.125-.942-.562-1.632-1.5-1.632h-9.004c-.938 0-1.751.753-1.813 1.632-.251 2.26-.501 4.518-.688 6.778zm43.018-6.716c-.125.942-.938 1.632-1.813 1.632h-7.441l-.375 3.452 6.753 6.778h8.253l-6.752-6.778h2.813c2.814 0 5.315-2.322 5.628-5.084.312-2.824-1.751-5.083-4.565-5.083h-19.633c-.938 0-1.751.753-1.813 1.632l-1.626 15.313h5.377c.938 0 1.751-.753 1.813-1.631.438-3.954.813-7.908 1.251-11.862h10.629c.876-.063 1.564.69 1.501 1.631zm14.819 5.084c-2.814 0-4.815-2.322-4.565-5.084.313-2.824 2.814-5.083 5.628-5.083h20.509l-.188 1.757c-.125.942-.938 1.632-1.813 1.632h-15.257c-.938 0-1.751.753-1.813 1.632-.125.941.563 1.632 1.501 1.632h13.068c2.813 0 4.814 2.322 4.564 5.083-.313 2.824-2.814 5.084-5.627 5.084h-20.509l.188-1.758c.125-.94.937-1.631 1.813-1.631h15.256c.938 0 1.751-.753 1.814-1.632.125-.941-.563-1.632-1.501-1.632h-13.068zm-89.538 0c-2.814 0-4.815-2.322-4.565-5.084.313-2.824 2.814-5.083 5.628-5.083h20.508l-.187 1.757c-.125.942-.938 1.632-1.813 1.632h-15.257c-.938 0-1.751.753-1.813 1.632-.125.941.563 1.632 1.501 1.632h13.068c2.813 0 4.814 2.322 4.564 5.083-.313 2.824-2.814 5.084-5.627 5.084h-20.509l.187-1.758c.126-.94.938-1.631 1.814-1.631h15.256c.938 0 1.751-.753 1.814-1.632.125-.941-.563-1.632-1.501-1.632H107.44z" fill="#fff"/></svg>