<svg xmlns="http://www.w3.org/2000/svg" viewBox="0 0 94.3 45.25"><defs><style>.cls-1{fill:none;stroke-linecap:round;stroke-linejoin:round;stroke:#7f7f7f;stroke-width:2px}</style></defs><g id="Слой_2" data-name="Слой 2"><g id="Слой_1-2" data-name="Слой 1"><path class="cls-1" d="M25.79 43.75c1.13-11 10-19.5 20.74-19.5s19.62 8.54 20.75 19.5"/><circle class="cls-1" cx="46.97" cy="13.56" r="10.69"/><path d="M35.41 1.5S16.53 6.75 30 23.38c0 0-14.75 4.62-15 20.37M21.88 1.5S3 6.75 16.5 23.38c0 0-14.75 4.62-15 20.37M58.74 1.5s18.88 5.25 5.38 21.88c0 0 14.75 4.62 15 20.37M72.42 1.5S91.3 6.75 77.8 23.38c0 0 14.75 4.62 15 20.37" stroke="#323232" stroke-width="3" fill="none" stroke-linecap="round" stroke-linejoin="round"/></g></g></svg>