<svg xmlns="http://www.w3.org/2000/svg" viewBox="0 0 77.5 85"><defs><clipPath id="a"><path fill="none" d="M49.88 70.52l-.09-31.28 15.17-8.76.09 31.28-15.17 8.76z"/></clipPath></defs><g data-name="Слой 2"><g data-name="Слой 1"><g data-name="Слой 3"><path d="M38.83 37.67V83.5L76 65V19.67l-37.17 18zm0 0l-37.33-18V65l37.33 18.5M76 19.67L38.83 1.5 1.5 19.67" fill="none" stroke="#323232" stroke-linecap="round" stroke-linejoin="round" stroke-width="3"/><g clip-path="url(#a)"><path d="M56.76 62a3.76 3.76 0 0 0-1.4 1.47 3.7 3.7 0 0 0-.57 2 1.2 1.2 0 0 0 2 1.14 4.28 4.28 0 0 0 2-3.43 1.32 1.32 0 0 0-.58-1.28 1.35 1.35 0 0 0-1.41.15m0-26.76a21.62 21.62 0 0 0-7 6.47v3a22.37 22.37 0 0 1 6.55-6.37q2.55-1.47 4.18-.88c1.08.4 1.63 1.43 1.63 3.1a10.14 10.14 0 0 1-2.08 5.59 23 23 0 0 1-4.76 5.21v6.35L58 56.13v-4.69a29.85 29.85 0 0 0 5-6.17 12.57 12.57 0 0 0 2-6.51c0-2.45-.81-4-2.42-4.62s-3.48-.26-5.8 1.08" fill="#7f7f7f"/></g></g></g></g></svg>