<svg xmlns="http://www.w3.org/2000/svg" viewBox="0 0 83.95 112"><defs><style>.cls-1,.cls-2{fill:none;stroke-linecap:round;stroke-linejoin:round}.cls-1{stroke:#7f7f7f;stroke-width:2px}.cls-2{stroke:#323232;stroke-width:3px}</style></defs><g id="Слой_2" data-name="Слой 2"><g id="Слой_1-2" data-name="Слой 1"><path class="cls-1" d="M51.45 64.83h-20m28 37.67l15-15"/><path class="cls-2" d="M21.65 54v-5.14a18.37 18.37 0 0 1 36.73 0v26M32.42 98.84a18.23 18.23 0 0 0 14.31.38"/><circle class="cls-2" cx="66.7" cy="94.75" r="15.75"/><path class="cls-1" d="M17.45 23.5l6 6m1-19l6 14m32-1l-6 6m-1-19l-6 14"/><path class="cls-2" d="M39.45 1.5v21"/><path class="cls-1" d="M5.45 84.2h18"/><path class="cls-2" d="M14.77 109.5A13.31 13.31 0 0 1 1.5 96.23v-24a13.31 13.31 0 0 1 13.27-13.32A13.31 13.31 0 0 1 28 72.18v24a13.31 13.31 0 0 1-13.23 13.32z"/></g></g></svg>