<svg xmlns="http://www.w3.org/2000/svg" viewBox="0 0 319.69 295.95"><g data-name="Слой 2"><g data-name="Слой 1"><path d="M129.39 47.57c0-10.59 1.65-16.3 9.11-23.66a30 30 0 0 1 8.7-5.57c19.39-8.24 40.87 6.72 40.87 27.12a29.56 29.56 0 0 1-16.56 26.26c-4.39 2.19-6 2.3-11.78 3.06-13.39 1.76-30.34-11.37-30.34-27.21zm-10.57-3.7c0 9 1.27 14.68 5.3 21.66a49.26 49.26 0 0 0 4.9 6.73c1.29 1.54 4.95 5 6.72 5.44-.62.85-12.71 6-15 7.23-17 9.41-30.7 27.89-35.36 47.1-1.36 5.6-5 18.09 3.29 18.09 10.08 0-.08-15.91 18.8-39.87a60.09 60.09 0 0 1 3.79-4.67c22.4-23.28 59.74-27.14 84.66-8.24a47.67 47.67 0 0 1 4.7 3.75c3.36 3.21 4.91 4.12 8.38 8.54 19 24.27 9.29 40.49 19.24 40.49 9.42 0 3.23-18.62 1.66-23.33-13.37-39.93-46.63-46.26-48.7-49.09 4.9-1.31 11.92-11.5 14.12-17.06 6.58-16.57 2.16-34.46-11.11-45.69-18.78-15.9-49.35-11.41-61.7 13.58a37.81 37.81 0 0 0-3.69 15.34z" fill-rule="evenodd" fill="#ff5623"/><path d="M238.81 5.81a6.86 6.86 0 0 0 3.19 5.82c2.25 1.17 12 1.74 18.91 8.58 3.67 3.65 5.38 5.09 7.88 10.09 7 14 4.2 27.2-5.77 38.29a31.9 31.9 0 0 0-2.3 3c-2.62 4.15-2.13 11.85 5.77 15.48a43.1 43.1 0 0 1 5.34 2.58c37.45 22.38 33.5 52 36.55 57.54 2.24 4.09 11.33 5 11.33-3.92 0-21.85-15.3-45.78-32.09-58.3-1.48-1.1-2.5-1.76-4.07-2.81-8.18-5.47-9.11-5.46-4.72-13.6 10.32-19.11 7.45-38-6.32-54.64C267.17 7.49 253 0 245.15 0c-3.1 0-6.34 3-6.34 5.81zm-45.99 1.06c0 5.71 7.74 6.07 10.12 6.8a34.73 34.73 0 0 1 11.34 6.1c5.9 4.6 11.85 14.71 11.85 22.52 0 12.86-1.56 18.16-9.93 27.6-6.08 6.85-2.82 13.88 3 16.82 4.32 2.18 5 1.82 10.5 5.36 31.45 20.16 30.83 51.81 32.33 54.89 2.47 5 11.64 4.15 11.64-2.65 0-17.52-9.27-34.28-17.74-45.17-7.86-10.14-13.42-13.26-22.74-19.51-7-4.71.52-11.22 2.79-18 8.76-26.06-4.51-51.51-28-59.34-4.6-1.5-15.16-5.29-15.16 4.58zM80.87 5.81a6.88 6.88 0 0 1-3.16 5.82c-2.26 1.17-12 1.74-18.91 8.58-3.68 3.65-5.39 5.09-7.88 10.09-7 14-4.2 27.2 5.77 38.29a31.9 31.9 0 0 1 2.3 3c2.62 4.15 2.13 11.85-5.77 15.48a43.1 43.1 0 0 0-5.34 2.58c-37.45 22.38-33.51 52-36.55 57.54C9.08 151.26 0 152.2 0 143.25 0 121.4 15.3 97.47 32.09 85c1.47-1.1 2.49-1.76 4.06-2.81 8.19-5.47 9.12-5.46 4.73-13.6-10.32-19.11-7.45-38 6.32-54.64C52.52 7.49 66.69 0 74.53 0c3.11 0 6.34 3 6.34 5.81zm45.99 1.06c0 5.71-7.74 6.07-10.12 6.8a34.68 34.68 0 0 0-11.33 6.1c-5.91 4.6-11.85 14.71-11.85 22.52 0 12.86 1.55 18.16 9.93 27.6 6.08 6.85 2.82 13.88-3 16.82-4.32 2.18-5 1.82-10.5 5.36-31.48 20.16-30.86 51.81-32.37 54.93-2.46 5-11.62 4.11-11.62-2.69 0-17.52 9.27-34.28 17.74-45.17C71.62 89 77.18 85.88 86.5 79.63c7-4.71-.52-11.22-2.79-18-8.77-26.06 4.51-51.51 28-59.34 4.6-1.5 15.15-5.29 15.15 4.58z" fill-rule="evenodd"/><path d="M37.83 232.86h-17a10.13 10.13 0 0 1-10.61-10.61v-33.18a10.12 10.12 0 0 1 10.58-10.61h17a10.12 10.12 0 0 1 10.61 10.61v8.67H37.68v-6.58a2.24 2.24 0 0 0-2.54-2.54H23.49a2.24 2.24 0 0 0-2.49 2.54v29a2.24 2.24 0 0 0 2.54 2.54h11.6a2.24 2.24 0 0 0 2.54-2.54v-6.57h10.76v8.67a10.13 10.13 0 0 1-10.61 10.61zm66.39-.3H92.64L84 212.61h-8.69v19.95H64.55v-53.8H92a10.12 10.12 0 0 1 10.61 10.61V202a10.65 10.65 0 0 1-2 6.5 9.84 9.84 0 0 1-5.34 3.66l9 20.4zm-12.4-32.5v-8.6a2.25 2.25 0 0 0-2.54-2.54h-14v13.68h14a2.25 2.25 0 0 0 2.54-2.54zm49 32.5h-10.77V214l-16.59-35.19h11.8l10.17 23 10.16-23h11.8L140.8 214v18.61zm29.49-53.8h27.49a10.12 10.12 0 0 1 10.61 10.61V203a10.12 10.12 0 0 1-10.61 10.61h-16.75v19h-10.76v-53.8zm10.76 24.66h14a2.24 2.24 0 0 0 2.54-2.54v-9.42a2.24 2.24 0 0 0-2.54-2.54h-14v14.5zm76.77-14.65h-14v43.79H233v-43.79h-14v-10h38.85v10zm40.77 44.09h-18A10.13 10.13 0 0 1 270 222.25v-33.18a10.12 10.12 0 0 1 10.61-10.61h18a10.12 10.12 0 0 1 10.61 10.61v33.18a10.13 10.13 0 0 1-10.61 10.61zm-17.86-41.7v29a2.24 2.24 0 0 0 2.54 2.54h12.61a2.24 2.24 0 0 0 2.54-2.54v-29a2.25 2.25 0 0 0-2.54-2.54h-12.63a2.25 2.25 0 0 0-2.54 2.54z"/><path d="M11.46 295.65v-53.8h35.19V252H22.22v11.5H42v10.16H22.22v22zm83 0H82.89l-8.67-19.95h-8.67v19.95H54.79v-53.8h27.42a10.13 10.13 0 0 1 10.61 10.61v12.63a10.65 10.65 0 0 1-2 6.5 9.84 9.84 0 0 1-5.34 3.66l9 20.4zm-12.41-32.5v-8.59a2.24 2.24 0 0 0-2.53-2.56h-14v13.67h14a2.24 2.24 0 0 0 2.54-2.54zm21.3 32.5v-53.8h10.76v53.8zm22.56-53.8h35.19V252h-24.42v11h19.8v10.16h-19.8v12.26h24.43v10.16h-35.19v-53.8zm76.06 0h10.09v53.8h-11.57L180.69 259v36.69H170.6v-53.8h11.58L202 278.54v-36.69zm21.89 0h28a10.13 10.13 0 0 1 10.61 10.61V285a10.12 10.12 0 0 1-10.61 10.61h-28v-53.8zm10.76 43.64h14.58a2.24 2.24 0 0 0 2.54-2.54v-28.39a2.24 2.24 0 0 0-2.54-2.56h-14.57v33.47zm63.51-27.05v-4.18a2.24 2.24 0 0 0-2.54-2.54h-10.75a2.24 2.24 0 0 0-2.54 2.54v5.08a2.3 2.3 0 0 0 .56 1.68 4 4 0 0 0 2 .86l13.9 3a16.33 16.33 0 0 1 7.84 3.88 9.08 9.08 0 0 1 2.92 6.88v9.71A10.12 10.12 0 0 1 298.89 296h-16.74a10.12 10.12 0 0 1-10.61-10.61v-6.88H282v4.79a2.25 2.25 0 0 0 2.54 2.54h11.66a2.25 2.25 0 0 0 2.54-2.54v-5.68a2.29 2.29 0 0 0-.56-1.68 4 4 0 0 0-2-.86l-13.9-3a16.34 16.34 0 0 1-7.84-3.89 9.05 9.05 0 0 1-2.92-6.87v-9.12a10.11 10.11 0 0 1 10.61-10.6H298a10.11 10.11 0 0 1 10.61 10.6v6.28z" fill="#ff5623"/><path d="M5.74 161.91h308.2v2.12H5.74v-2.12z"/></g></g></svg>