<svg width="30" height="29" fill="none" xmlns="http://www.w3.org/2000/svg"><path fill-rule="evenodd" clip-rule="evenodd" d="M9.19 16.843h17.68L30 5.675H6.129l-.766-3.06C4.978 1.083 3.643 0 2.106 0H0v1.28h2.106c.955 0 1.788.636 2.045 1.598l3.386 13.248a2.774 2.774 0 0 0-1.157 2.26c0 1.53 1.28 2.81 2.81 2.81h17.234v-1.28H9.19a1.55 1.55 0 0 1-1.53-1.53c0-.84.703-1.543 1.53-1.543zm16.726-1.274l2.425-8.681H6.447l2.235 8.681h17.234z" fill="#000"/><path d="M20.81 23.1a2.697 2.697 0 0 0-2.682 2.682 2.697 2.697 0 0 0 2.682 2.681 2.658 2.658 0 0 0 2.682-2.681A2.697 2.697 0 0 0 20.81 23.1zm0 4.151c-.833 0-1.47-.704-1.47-1.47 0-.832.705-1.469 1.47-1.469.833 0 1.47.637 1.47 1.47 0 .832-.705 1.47-1.47 1.47zM10.977 23.1a2.697 2.697 0 0 0-2.681 2.682 2.697 2.697 0 0 0 2.681 2.681 2.697 2.697 0 0 0 2.682-2.681 2.697 2.697 0 0 0-2.682-2.682zm0 4.151c-.832 0-1.469-.704-1.469-1.47 0-.832.704-1.469 1.47-1.469.765 0 1.469.637 1.469 1.47 0 .832-.704 1.47-1.47 1.47z" fill="#000"/></svg>