<svg width="40" height="40" fill="none" xmlns="http://www.w3.org/2000/svg"><path d="M11.25 25h-5a1.25 1.25 0 0 0 0 2.5h5a1.25 1.25 0 0 0 0-2.5z" fill="#8E1537"/><path d="M38.75 25c-.69 0-1.25.56-1.25 1.25V35h-35V20h13.75a1.25 1.25 0 0 0 0-2.5H2.5v-5h13.75a1.25 1.25 0 0 0 0-2.5H2.5A2.5 2.5 0 0 0 0 12.5V35a2.5 2.5 0 0 0 2.5 2.5h35A2.5 2.5 0 0 0 40 35v-8.75c0-.69-.56-1.25-1.25-1.25z" fill="#8E1537"/><path d="M39.242 6.35l-8.75-3.75a1.276 1.276 0 0 0-.987 0l-8.75 3.75C20.298 6.547 20 7 20 7.5v5c0 6.877 2.543 10.897 9.378 14.835a1.254 1.254 0 0 0 1.244 0C37.459 23.407 40 19.387 40 12.5v-5c0-.5-.297-.953-.758-1.15zM37.5 12.5c0 5.772-1.91 8.95-7.5 12.3-5.59-3.358-7.5-6.535-7.5-12.3V8.325L30 5.11l7.5 3.215V12.5z" fill="#8E1537"/><path d="M34.533 10.272a1.258 1.258 0 0 0-1.758.195l-3.93 4.915-1.555-2.325a1.253 1.253 0 0 0-1.732-.347 1.251 1.251 0 0 0-.348 1.732l2.5 3.75c.223.333.588.538.988.558h.052c.378 0 .738-.17.978-.47l5-6.25c.43-.54.345-1.325-.195-1.758z" fill="#8E1537"/></svg>