<svg width="70" height="70" fill="none" xmlns="http://www.w3.org/2000/svg"><path d="M69.69 36.063l-6.563-10.937a2.183 2.183 0 0 0-1.877-1.064H48.125V17.5a2.19 2.19 0 0 0-2.188-2.188H15.314c-1.208 0-2.188.98-2.188 2.188v2.188H2.187a2.188 2.188 0 0 0 0 4.375h10.938v4.375H6.562a2.188 2.188 0 0 0 0 4.375h6.563v4.374h-2.188a2.188 2.188 0 0 0 0 4.376h2.188v6.562c0 1.208.98 2.188 2.188 2.188h2.59c.905 2.541 3.311 4.374 6.16 4.374 2.848 0 5.254-1.833 6.16-4.374h22.68c.905 2.541 3.311 4.374 6.16 4.374 2.848 0 5.254-1.833 6.16-4.374h2.59c1.207 0 2.187-.98 2.187-2.188V37.187a2.16 2.16 0 0 0-.31-1.124zm-45.627 14.25a2.191 2.191 0 0 1-2.188-2.188c0-1.208.984-2.188 2.188-2.188a2.19 2.19 0 0 1 2.187 2.188 2.191 2.191 0 0 1-2.188 2.188zm19.687-4.376H30.223c-.906-2.541-3.312-4.374-6.16-4.374-2.849 0-5.255 1.833-6.16 4.374H17.5v-26.25h26.25v26.25zm15.313 4.376a2.191 2.191 0 0 1-2.188-2.188c0-1.208.984-2.188 2.188-2.188a2.19 2.19 0 0 1 2.187 2.188 2.191 2.191 0 0 1-2.188 2.188zm6.562-4.376h-.403c-.905-2.541-3.311-4.374-6.16-4.374-2.848 0-5.254 1.833-6.16 4.374h-4.777v-17.5h11.887l5.613 9.359v8.142z" fill="#8E1537"/></svg>