<svg width="100" height="100" fill="none" xmlns="http://www.w3.org/2000/svg"><path d="M80.157 14.391c.065-3.065-.052-5.002-.052-5.002l-29.953-.022h-.304l-29.957.022s-.113 1.937-.048 5.002H0v3.272C0 18.41.126 36.03 11 45.68c4.536 4.026 10.194 6.05 16.865 6.053 1.009 0 2.046-.068 3.097-.158 3.79 5.189 8.168 8.823 13.092 10.634V76.58H29.598v9.002h-4.776v5.047h50.356v-5.044h-4.779v-9.002H55.943V62.212c4.92-1.81 9.302-5.445 13.091-10.634a36.85 36.85 0 0 0 3.104.155c6.668-.006 12.326-2.027 16.862-6.056 10.874-9.651 11-27.27 11-28.017v-3.269H80.157zm-64.792 26.41c-6.211-5.497-8.048-14.906-8.591-19.865h13.444c.569 6.178 1.908 13.877 4.995 20.644a67.95 67.95 0 0 0 1.769 3.57c-4.633-.178-8.533-1.623-11.617-4.349zm69.27 0c-3.081 2.729-6.984 4.171-11.614 4.349a66.657 66.657 0 0 0 1.769-3.57c3.088-6.767 4.426-14.465 4.992-20.644h13.444c-.543 4.956-2.376 14.365-8.59 19.865z" fill="#fff"/></svg>