<svg width="60" height="60" fill="none" xmlns="http://www.w3.org/2000/svg"><g clip-path="url(#clip0)"><path d="M58.97 10.736c-.55-5.12-4.581-9.164-9.702-9.703a180.986 180.986 0 0 0-38.532 0 10.901 10.901 0 0 0-9.703 9.703 180.986 180.986 0 0 0 0 38.532c.551 5.12 4.582 9.163 9.703 9.703a180.985 180.985 0 0 0 38.532 0c5.12-.551 9.164-4.582 9.703-9.703a180.985 180.985 0 0 0 0-38.532z" fill="url(#paint0_radial)"/><path d="M55.71 12.902a9.69 9.69 0 0 0-8.612-8.613 160.365 160.365 0 0 0-34.196 0 9.69 9.69 0 0 0-8.613 8.613 160.365 160.365 0 0 0 0 34.196 9.679 9.679 0 0 0 8.613 8.613 160.358 160.358 0 0 0 34.196 0 9.679 9.679 0 0 0 8.613-8.613 160.358 160.358 0 0 0 0-34.196z" fill="url(#paint1_linear)"/><path d="M.902 48.023c.047.41.082.832.13 1.243.55 5.12 4.581 9.164 9.702 9.703a180.984 180.984 0 0 0 38.532 0c5.12-.551 9.164-4.582 9.703-9.703.047-.41.082-.832.129-1.243H.902z" fill="url(#paint2_linear)"/><path d="M58.968 49.266a180.025 180.025 0 0 0 1.02-20.707L46.275 14.847c-1.71-1.958-4.218-3.176-7.16-3.282a253.78 253.78 0 0 0-18.164 0c-5.016.176-8.531 3.551-9.433 8.508-.165.879-.258 1.77-.375 2.649v14.543c.07.468.175.937.199 1.418.199 3.023 1.441 5.601 3.433 7.347L28.733 60c6.844.047 13.7-.293 20.543-1.02a10.923 10.923 0 0 0 9.692-9.714z" fill="url(#paint3_linear)"/><path d="M58.969 49.266c-.551 5.12-4.594 9.164-9.703 9.703a182.566 182.566 0 0 1-20.543 1.02L14.8 46.054c1.617 1.418 3.726 2.273 6.164 2.367 6.047.223 12.117.223 18.164 0 5.473-.2 9.422-4.242 9.598-9.715a271.09 271.09 0 0 0 0-17.438c-.082-2.519-.961-4.746-2.438-6.421L60 28.558a182.738 182.738 0 0 1-1.031 20.708z" fill="url(#paint4_linear)"/><path d="M37.078 23.508A9.599 9.599 0 0 0 30 20.39c-5.309 0-9.61 4.3-9.61 9.609 0 2.8 1.196 5.32 3.118 7.078l22.23 22.23c1.172-.105 2.356-.21 3.528-.34 5.12-.55 9.164-4.581 9.703-9.702.129-1.172.234-2.356.34-3.528l-22.23-22.23z" fill="url(#paint5_linear)"/><path d="M59.883 36.469L41.988 18.574a2.281 2.281 0 0 0-1.816-.902 2.28 2.28 0 0 0-2.285 2.285c0 .738.351 1.395.902 1.816L59.566 42.54c.141-2.016.246-4.043.317-6.07z" fill="url(#paint6_linear)"/><path d="M11.144 22.723c.129-.88.222-1.77.375-2.649.902-4.957 4.418-8.344 9.433-8.508a253.78 253.78 0 0 1 18.164 0c5.473.2 9.422 4.242 9.598 9.715a271.09 271.09 0 0 1 0 17.438c-.176 5.472-4.125 9.515-9.598 9.715a247.78 247.78 0 0 1-18.164 0c-5.473-.211-9.246-4.266-9.61-9.739-.034-.468-.128-.949-.198-1.418V22.723zm18.855 22.464c2.766 0 5.543.082 8.297-.023 4.336-.164 6.996-2.742 7.102-7.078.128-5.39.128-10.793 0-16.195-.106-4.325-2.766-6.973-7.102-7.067a387.203 387.203 0 0 0-16.5 0c-4.3.094-6.973 2.684-7.09 6.961a293.998 293.998 0 0 0 0 16.395c.117 4.277 2.79 6.808 7.09 6.972 2.742.117 5.473.035 8.203.035z" fill="url(#paint7_linear)"/><path d="M11.144 22.723c.129-.88.222-1.77.375-2.649.902-4.957 4.418-8.344 9.433-8.508a253.78 253.78 0 0 1 18.164 0c5.473.2 9.422 4.242 9.598 9.715a271.09 271.09 0 0 1 0 17.438c-.176 5.472-4.125 9.515-9.598 9.715a247.78 247.78 0 0 1-18.164 0c-5.473-.211-9.246-4.266-9.61-9.739-.034-.468-.128-.949-.198-1.418V22.723zm18.855 22.464c2.766 0 5.543.082 8.297-.023 4.336-.164 6.996-2.742 7.102-7.078.128-5.39.128-10.793 0-16.195-.106-4.325-2.766-6.973-7.102-7.067a387.203 387.203 0 0 0-16.5 0c-4.3.094-6.973 2.684-7.09 6.961a293.998 293.998 0 0 0 0 16.395c.117 4.277 2.79 6.808 7.09 6.972 2.742.117 5.473.035 8.203.035z" fill="#fff"/><path d="M30 20.39A9.608 9.608 0 0 0 20.39 30 9.608 9.608 0 0 0 30 39.61 9.608 9.608 0 0 0 39.61 30 9.608 9.608 0 0 0 30 20.39zm0 15.915A6.307 6.307 0 0 1 23.695 30 6.307 6.307 0 0 1 30 23.695 6.307 6.307 0 0 1 36.305 30 6.307 6.307 0 0 1 30 36.305zm12.456-16.348a2.28 2.28 0 0 1-2.285 2.285 2.28 2.28 0 0 1-2.285-2.285 2.28 2.28 0 0 1 2.285-2.285 2.28 2.28 0 0 1 2.285 2.285z" fill="#fff"/></g><defs><radialGradient id="paint0_radial" cx="0" cy="0" r="1" gradientUnits="userSpaceOnUse" gradientTransform="translate(12.302 52.437) scale(66.1694)"><stop stop-color="#FAE100"/><stop offset=".054" stop-color="#FADC04"/><stop offset=".117" stop-color="#FBCE0E"/><stop offset=".183" stop-color="#FCB720"/><stop offset=".251" stop-color="#FE9838"/><stop offset=".305" stop-color="#FF7950"/><stop offset=".492" stop-color="#FF1C74"/><stop offset="1" stop-color="#6C1CD1"/></radialGradient><linearGradient id="paint1_linear" x1="23.012" y1="26.069" x2="-78.635" y2="-31.107" gradientUnits="userSpaceOnUse"><stop stop-color="#A1B5D8" stop-opacity="0"/><stop offset=".309" stop-color="#90A2BD" stop-opacity=".31"/><stop offset=".755" stop-color="#7C8B9C" stop-opacity=".757"/><stop offset="1" stop-color="#748290"/></linearGradient><linearGradient id="paint2_linear" x1="30" y1="52.965" x2="30" y2="62.317" gradientUnits="userSpaceOnUse"><stop stop-color="#FAE100" stop-opacity="0"/><stop offset=".307" stop-color="#FCA800" stop-opacity=".306"/><stop offset=".627" stop-color="#FE7300" stop-opacity=".627"/><stop offset=".869" stop-color="#FF5200" stop-opacity=".867"/><stop offset="1" stop-color="#FF4500"/></linearGradient><linearGradient id="paint3_linear" x1="26.585" y1="26.502" x2="11.736" y2="11.653" gradientUnits="userSpaceOnUse"><stop stop-color="#833AB4" stop-opacity="0"/><stop offset="1" stop-color="#833AB4"/></linearGradient><linearGradient id="paint4_linear" x1="41.121" y1="54.877" x2="33.71" y2="19.938" gradientUnits="userSpaceOnUse"><stop stop-color="#833AB4" stop-opacity="0"/><stop offset="1" stop-color="#833AB4"/></linearGradient><linearGradient id="paint5_linear" x1="43.941" y1="43.941" x2="14.173" y2="14.173" gradientUnits="userSpaceOnUse"><stop stop-color="#833AB4" stop-opacity="0"/><stop offset="1" stop-color="#833AB4"/></linearGradient><linearGradient id="paint6_linear" x1="46.149" y1="25.929" x2="36.305" y2="16.085" gradientUnits="userSpaceOnUse"><stop stop-color="#833AB4" stop-opacity="0"/><stop offset="1" stop-color="#833AB4"/></linearGradient><linearGradient id="paint7_linear" x1="41.912" y1="18.17" x2="17.641" y2="42.441" gradientUnits="userSpaceOnUse"><stop stop-color="#833AB4"/><stop offset=".092" stop-color="#9C3495"/><stop offset=".293" stop-color="#DC2546"/><stop offset=".392" stop-color="#FD1D1D"/><stop offset=".559" stop-color="#FC6831"/><stop offset=".689" stop-color="#FC9B40"/><stop offset=".752" stop-color="#FCAF45"/><stop offset=".781" stop-color="#FDB750"/><stop offset=".866" stop-color="#FECB6A"/><stop offset=".942" stop-color="#FFD87A"/><stop offset="1" stop-color="#FFDC80"/></linearGradient><clipPath id="clip0"><path fill="#fff" d="M0 0h60v60H0z"/></clipPath></defs></svg>