<svg width="60" height="60" fill="none" xmlns="http://www.w3.org/2000/svg"><g clip-path="url(#clip0)"><path d="M30.059 60.06c16.568 0 30-13.43 30-30 0-16.568-13.432-30-30-30-16.569 0-30 13.432-30 30 0 16.57 13.431 30 30 30z" fill="#495F7A"/><path d="M60.012 30.073L45.727 18.611 30.152 34.115l-16.84 12.047 16.7 13.91c16.57 0 30-13.43 30-30z" fill="#31465B"/><path d="M18.352 39.6L13.3 46.092l5.824-.726 1.453 5.098 5.098-6.563.023-.035a22.439 22.439 0 0 0-3.305-2.742 22.39 22.39 0 0 0-4.042-1.524zm23.414 0a21.98 21.98 0 0 0-4.055 1.535 22.438 22.438 0 0 0-3.305 2.743l5.121 6.586 1.453-5.098 5.825.726-5.04-6.492z" fill="#EF2648"/><path d="M45.363 27.88c0-3.06 1.898-6.645.48-9.106-1.476-2.543-5.578-2.672-8.12-4.149-2.462-1.43-4.594-4.969-7.653-4.969-3.058 0-5.18 3.54-7.652 4.957-2.543 1.477-6.656 1.606-8.121 4.149-1.43 2.46.48 6.059.48 9.105 0 3.047-1.898 6.645-.48 9.106 1.476 2.543 5.578 2.672 8.12 4.148 2.462 1.43 4.595 4.97 7.653 4.97 3.059 0 5.18-3.54 7.652-4.958 2.543-1.477 6.657-1.605 8.121-4.148 1.418-2.461-.48-6.059-.48-9.106z" fill="#FFA511"/><path d="M30.059 40.263c6.84 0 12.386-5.545 12.386-12.386 0-6.841-5.545-12.387-12.386-12.387-6.841 0-12.387 5.546-12.387 12.387 0 6.84 5.546 12.386 12.387 12.386z" fill="#FFDC13"/><path d="M37.29 24.96h-4.993l-1.547-4.745a.733.733 0 0 0-.914-.47.72.72 0 0 0-.469.47L27.82 24.96h-4.992a.73.73 0 0 0-.726.726c0 .235.117.457.304.586l4.043 2.942-1.547 4.746a.714.714 0 0 0 .47.914c.222.07.468.035.655-.106l4.043-2.941 4.043 2.93a.73.73 0 0 0 1.02-.164.729.729 0 0 0 .105-.657l-1.547-4.746 4.043-2.941a.73.73 0 0 0 .164-1.02c-.164-.152-.375-.27-.609-.27z" fill="#fff"/><path d="M45.832 18.776c-.035-.059-.07-.105-.105-.152a35.512 35.512 0 0 1-3.797 5.765c1.933 6.563-1.817 13.442-8.367 15.375a12.387 12.387 0 0 1-12.176-3.047c-2.18.422-4.407.633-6.633.633h-.234c1.64 2.203 5.46 2.39 7.886 3.785 2.461 1.43 4.594 4.957 7.653 4.957 3.058 0 5.18-3.539 7.652-4.957 2.543-1.476 6.656-1.605 8.121-4.148 1.43-2.461-.48-6.059-.48-9.106 0-3.046 1.91-6.644.48-9.105z" fill="#F08015"/><path d="M34.371 31.338l.856 2.626a.714.714 0 0 1-.47.914.729.729 0 0 1-.655-.106l-2.45-1.781a34.778 34.778 0 0 1-10.265 3.715c4.875 4.793 12.703 4.734 17.508-.14a12.395 12.395 0 0 0 3.046-12.2 35.052 35.052 0 0 1-7.57 6.973z" fill="#E5AF17"/><path d="M35.215 33.961l-.856-2.625A33.739 33.739 0 0 1 31.641 33l2.449 1.782a.73.73 0 0 0 1.02-.165.695.695 0 0 0 .105-.656z" fill="#E5E3E3"/><path d="M40.629 43.91c1.887 0 3.75.422 5.46 1.243l-4.312-5.544a21.974 21.974 0 0 0-4.054 1.536 22.433 22.433 0 0 0-3.305 2.742l.926 1.195a12.124 12.124 0 0 1 5.285-1.172zm-18.223-2.775a22.889 22.889 0 0 0-4.054-1.535l-.223.293a9.45 9.45 0 0 1 3.844 8.79l3.715-4.782.023-.035a23.122 23.122 0 0 0-3.305-2.73z" fill="#B20D24"/></g><defs><clipPath id="clip0"><path fill="#fff" d="M0 0h60v60H0z"/></clipPath></defs></svg>