<svg width="60" height="60" fill="none" xmlns="http://www.w3.org/2000/svg"><g clip-path="url(#clip0)"><path d="M29.893 59.99c16.568 0 30-13.431 30-30 0-16.569-13.432-30-30-30-16.569 0-30 13.431-30 30 0 16.569 13.431 30 30 30z" fill="#FF3501"/><path d="M41.367 17.578c-2.719-2.73-5.918 13.008-10.078 13.008-8.285 0-7.734-9.223-7.734-.938 0 4.16-2.614 7.945.117 10.664l2.344-6.328-8.438 7.5 20.508 17.402v.012c10.863-3.035 19.242-12.035 21.387-23.25l-18.106-18.07z" fill="#C70024"/><path d="M29.895 46.852c9.314 0 16.864-7.55 16.864-16.864 0-9.313-7.55-16.863-16.864-16.863-9.313 0-16.863 7.55-16.863 16.863 0 9.314 7.55 16.864 16.863 16.864z" fill="#ACABB1"/><path d="M29.898 13.135V46.85c9.316 0 16.863-7.547 16.863-16.863 0-9.317-7.559-16.852-16.864-16.852z" fill="#898890"/><path d="M29.898 44.521c8.025 0 14.53-6.506 14.53-14.531s-6.505-14.531-14.53-14.531c-8.026 0-14.532 6.506-14.532 14.531s6.506 14.531 14.532 14.531z" fill="#fff"/><path d="M29.898 15.459v29.074c8.027 0 14.53-6.504 14.53-14.531 0-8.028-6.503-14.543-14.53-14.543z" fill="#D8D7DA"/><path d="M38.944 23.378l-2.46-2.46-7.337 7.335H22.34v3.48h8.215l8.39-8.355z" fill="#000"/></g><defs><clipPath id="clip0"><path fill="#fff" d="M0 0h60v60H0z"/></clipPath></defs></svg>