<svg width="60" height="60" fill="none" xmlns="http://www.w3.org/2000/svg"><path d="M30 60c16.569 0 30-13.431 30-30C60 13.431 46.569 0 30 0 13.431 0 0 13.431 0 30c0 16.569 13.431 30 30 30z" fill="#09CE67"/><path d="M60 30c0-.95-.047-1.887-.129-2.8L48.668 15.995l-37.36 27.996 15.88 15.88c.925.081 1.863.128 2.8.128C46.57 60 60 46.57 60 30z" fill="#1AAD5C"/><path d="M45.563 45.365H14.436a4.241 4.241 0 0 1-4.242-4.243V18.88a4.241 4.241 0 0 1 4.242-4.242h31.137a4.241 4.241 0 0 1 4.242 4.242v22.242a4.259 4.259 0 0 1-4.254 4.243z" fill="#495F7A"/><path d="M10.195 29.99v11.132a4.241 4.241 0 0 0 4.242 4.243h31.137a4.241 4.241 0 0 0 4.242-4.243V29.99h-39.62z" fill="#31465B"/><path d="M46.194 17.788H15.011v24.434h31.183V17.788z" fill="#fff"/><path d="M46.194 29.99H15.011v12.222h31.183V29.99z" fill="#E9EDF5"/><path d="M12.69 31.722a1.723 1.723 0 1 0 0-3.445 1.723 1.723 0 0 0 0 3.445z" fill="#31465B"/><path d="M10.981 29.99s0 .011 0 0c0 .96.774 1.734 1.723 1.734.95 0 1.723-.773 1.723-1.723v-.011H10.98z" fill="#1B2C3A"/><path d="M27.118 19.57H17.86v9.258h9.258V19.57z" fill="#DCE1EB"/><path d="M27.118 31.079H17.86v9.258h9.258v-9.258z" fill="#CDD2E1"/><path d="M21.083 28.9l-4.125-4.137 2.484-2.485 1.641 1.652 4.453-4.453 2.484 2.485-6.937 6.937z" fill="#FF583E"/><path d="M41.977 24.2H31.255v3.808h10.723v-3.809z" fill="#DCE1EB"/><path d="M41.977 35.708H31.255v3.808h10.723v-3.808z" fill="#CDD2E1"/></svg>