<svg id="logo-webland" xmlns="http://www.w3.org/2000/svg" viewBox="0 0 557.88 126.04"><defs><style>.cls-1{fill:#fff;}</style></defs><title>Векторный смарт-объект21</title><path class="cls-1" d="M129.46,38.72v0h0v0s0-.1,0-.15a1.27,1.27,0,0,0-.06-.18v0s0,0,0,0l0-.08a1.4,1.4,0,0,0-.1-.16l-.07-.09,0-.06,0,0,0,0h0L115.35,22.64a1.55,1.55,0,0,0-.45-.36L73.67.19l-.1,0-.12,0-.18,0-.13,0L73,0h-.14l-.18,0-.13,0h0L13.93,14.89h0a2.09,2.09,0,0,0-.35.13l0,0a1.85,1.85,0,0,0-.27.19l0,0a1.55,1.55,0,0,0-.24.27h0a1.29,1.29,0,0,0-.17.33l0,0L.1,49.86h0l0,.06s0,.11,0,.16l0,.15v0H0c0,.05,0,.09,0,.14a.34.34,0,0,0,0,.1.06.06,0,0,0,0,0,.34.34,0,0,0,0,.1.3.3,0,0,0,0,.1s0,.09,0,.13,0,.07,0,.11a.3.3,0,0,1,0,.1v0l0,.08,0,0,.16.24h0l61,73.94,0,0a.46.46,0,0,1,.07.07,1.64,1.64,0,0,0,.25.21l.11.07a2,2,0,0,0,.33.15l.05,0a1.86,1.86,0,0,0,.34.06h.12a1.73,1.73,0,0,0,.32,0l.1,0,.21-.07h0l.1-.06.14-.08a.69.69,0,0,0,.13-.11l.08-.05L111.1,81.38a1.53,1.53,0,0,0,.39-.55l8.4-19.39h0l9.45-21.81h0l0-.07a1.68,1.68,0,0,0,.07-.24.31.31,0,0,0,0-.1s0-.07,0-.1,0-.08,0-.12,0-.11,0-.16A.28.28,0,0,1,129.46,38.72ZM113.09,25.06l9,10-39-14.31L76.33,5.37ZM84.43,24.8l37.05,13.58-31.1,5.46Zm2.2,18.13L25.51,19.08,80.6,23.64ZM71.94,3.6l7.28,16.61L24.34,15.67ZM15.29,18.65,81.51,44.48,4.09,48.66Zm69.44,29L45.3,83.89,6,51.86ZM13.58,62.3,44,87.11l12.05,26.68Zm95,16.9L63.22,121.6,47.36,86.49,89.5,47.72l26.74,13.82Zm9-20.71-23.21-12,30.74-5.4Z"/><path class="cls-1" d="M226.31,44.72H219.7a2.5,2.5,0,0,0-2.3,1.51L204.23,76.84,190.68,46.21a2.5,2.5,0,0,0-2.29-1.49h-1.15A2.5,2.5,0,0,0,185,46.21L171.52,76.77,158.64,46.24a2.51,2.51,0,0,0-2.31-1.52h-6.54a2.49,2.49,0,0,0-2.29,3.48l21.1,49.41a2.49,2.49,0,0,0,2.3,1.51h1.18a2.52,2.52,0,0,0,2.29-1.48l13.5-30.26,13.52,30.26a2.49,2.49,0,0,0,2.28,1.48h1.18a2.51,2.51,0,0,0,2.29-1.5L228.6,48.21a2.5,2.5,0,0,0-2.29-3.49Z"/><path class="cls-1" d="M262.17,43.45c-9,0-16.21,3.47-21.56,10.31a29.58,29.58,0,0,0,1.12,37.84c5,5.84,12,8.8,20.8,8.8a29.74,29.74,0,0,0,10.67-1.83,26.75,26.75,0,0,0,8.57-5.33,31.76,31.76,0,0,0,6.62-9.06,2.5,2.5,0,0,0-1.06-3.35L282,78a2.49,2.49,0,0,0-3.3.92,27.34,27.34,0,0,1-4.91,6.41,16.8,16.8,0,0,1-5.3,3A18.67,18.67,0,0,1,262,89.54a15,15,0,0,1-11.35-4.74A16.87,16.87,0,0,1,246,74.92H287.8a2.52,2.52,0,0,0,1.78-.74,2.46,2.46,0,0,0,.72-1.78c-.06-7.29-2.08-13.49-6-18.42C278.81,47,271.36,43.45,262.17,43.45Zm-14.68,21a16.14,16.14,0,0,1,3.93-5.86,15.55,15.55,0,0,1,10.84-4,17.28,17.28,0,0,1,7.35,1.63,15,15,0,0,1,5.54,4.2,15.51,15.51,0,0,1,2.26,4.07Z"/><path class="cls-1" d="M329.92,43.31a26.1,26.1,0,0,0-17.27,6.17V28a2.5,2.5,0,0,0-2.5-2.5h-6.36a2.5,2.5,0,0,0-2.5,2.5V96.49a2.5,2.5,0,0,0,2.5,2.5h6.36a2.5,2.5,0,0,0,2.5-2.5V93.9a24.87,24.87,0,0,0,17.09,6.36,26.89,26.89,0,0,0,19.79-8.33,27.62,27.62,0,0,0,8.21-20.06,28,28,0,0,0-8.13-20.2A26.6,26.6,0,0,0,329.92,43.31Zm14,37.15a16.62,16.62,0,0,1-14.74,8.67,16.11,16.11,0,0,1-12.1-5,17.13,17.13,0,0,1-4.93-12.6,18,18,0,0,1,2.2-8.9,15.86,15.86,0,0,1,6.25-6.2,17.18,17.18,0,0,1,8.67-2.33,16,16,0,0,1,8.36,2.31,16.88,16.88,0,0,1,6.27,6.49,17.68,17.68,0,0,1,0,17.58Z"/><rect class="cls-1" x="368.75" y="28.12" width="6.36" height="68.48"/><path class="cls-1" d="M431.28,56.28a25.24,25.24,0,0,0-8.65-7.77,23.41,23.41,0,0,0-11-2.58,24.39,24.39,0,0,0-18,7.58,25,25,0,0,0-7.5,18.25,25.51,25.51,0,0,0,7.43,18.51,25.07,25.07,0,0,0,28.79,5.15,27.29,27.29,0,0,0,9-7.31V96.6h6.26V47.2h-6.26Zm-2.11,26A18.5,18.5,0,0,1,422,89.39,19.9,19.9,0,0,1,412.09,92a18.77,18.77,0,0,1-9.68-2.66A19.47,19.47,0,0,1,395.22,82a20,20,0,0,1,0-20,19.15,19.15,0,0,1,16.95-9.93A18.71,18.71,0,0,1,426,57.82a19.68,19.68,0,0,1,5.65,14.33A20.34,20.34,0,0,1,429.17,82.27Z"/><path class="cls-1" d="M486.56,48.74a17.47,17.47,0,0,0-9.83-2.81,20.77,20.77,0,0,0-10.08,2.52,26.62,26.62,0,0,0-8.45,7.6V47.2h-6.35V96.6h6.35V78.48q0-9.75.91-13.44a17.89,17.89,0,0,1,6-9.44,15.65,15.65,0,0,1,10.33-3.82,12.82,12.82,0,0,1,8.18,2.48,12.53,12.53,0,0,1,4.24,7.38q.71,2.85.7,11.39V96.6h6.36V71.17q0-10.08-2-14.85A16.83,16.83,0,0,0,486.56,48.74Z"/><path class="cls-1" d="M551.61,28.12V56.28A25.06,25.06,0,0,0,543,48.51a23.34,23.34,0,0,0-11-2.58,24.43,24.43,0,0,0-18,7.58,25,25,0,0,0-7.49,18.25,25.5,25.5,0,0,0,7.42,18.51,25.07,25.07,0,0,0,28.79,5.15,27.09,27.09,0,0,0,9-7.31V96.6h6.27V28.12ZM549.5,82.27a18.37,18.37,0,0,1-7.19,7.12A19.87,19.87,0,0,1,532.43,92a18.8,18.8,0,0,1-9.69-2.66A19.55,19.55,0,0,1,515.55,82a20.05,20.05,0,0,1,0-20,19.15,19.15,0,0,1,16.94-9.93,18.7,18.7,0,0,1,13.9,5.76A19.64,19.64,0,0,1,552,72.15,20.34,20.34,0,0,1,549.5,82.27Z"/></svg>