<svg id="logo-webland" xmlns="http://www.w3.org/2000/svg" viewBox="0 0 257.13 169.56"><title>Векторный смарт-объект21</title><path style="fill:#fff;" d="M257.12,5.83c0-.12,0-.25,0-.37l0-.25c0-.11,0-.22-.05-.33L257,4.6c0-.09,0-.19-.08-.29s-.06-.2-.1-.3l-.09-.25c0-.11-.09-.21-.14-.32a2,2,0,0,1-.1-.21,3.79,3.79,0,0,0-.2-.34l-.08-.13,0,0-.22-.3-.14-.19c-.06-.08-.13-.15-.19-.22l-.21-.23-.14-.13L255,1.38l-.09-.07L254.49,1l-.1-.06A4.11,4.11,0,0,0,254,.73l-.24-.11a2.44,2.44,0,0,0-.28-.14l-.32-.12-.22-.08-.3-.08-.27-.07-.25,0-.34,0-.2,0-.41,0H5.94L5.6,0,5.33,0l-.25,0L4.74.13l-.15,0L4.17.28,4.1.31c-.16.06-.31.11-.46.18a.52.52,0,0,0-.13.06L3.12.73,2.84.91,2.64,1l-.34.25s-.09.06-.12.1l-.29.26-.15.13L1.53,2l-.19.21-.15.2c-.07.1-.14.19-.2.29l0,0s0,.1-.08.15a3.37,3.37,0,0,0-.19.32,1.47,1.47,0,0,0-.1.22,2.92,2.92,0,0,0-.14.31A2.77,2.77,0,0,0,.34,4c0,.1-.07.19-.09.29s-.06.2-.08.3l-.06.27c0,.11,0,.22,0,.34a2,2,0,0,0,0,.24c0,.12,0,.25,0,.37S0,5.94,0,6V163.56a6,6,0,0,0,6,6H251.13a6,6,0,0,0,6-6V6C257.13,5.94,257.12,5.89,257.12,5.83ZM230.7,12,128.56,77.65,26.43,12ZM12,157.56V17L125.32,89.83a6,6,0,0,0,6.49,0L245.13,17V157.56Z"/></svg>