<svg width="14" height="14" fill="none" xmlns="http://www.w3.org/2000/svg"><path d="M2.05 0h9.9C13.08 0 14 .92 14 2.05v9.9c0 1.13-.92 2.05-2.05 2.05h-9.9C.92 14 0 13.08 0 11.95v-9.9C0 .92.92 0 2.05 0zm4.923 10.664a3.696 3.696 0 0 0 3.691-3.691A3.696 3.696 0 0 0 6.973 3.28 3.696 3.696 0 0 0 3.28 6.973a3.696 3.696 0 0 0 3.692 3.691zM2.87 4.102a1.231 1.231 0 1 0-.002-2.46A1.231 1.231 0 0 0 2.87 4.1z" fill="#fff"/><path d="M2.871 2.46a.41.41 0 1 1 0 .822.41.41 0 0 1 0-.821zm4.102 1.642a2.875 2.875 0 0 1 2.87 2.87 2.875 2.875 0 0 1-2.87 2.872 2.875 2.875 0 0 1-2.871-2.871 2.875 2.875 0 0 1 2.87-2.871z" fill="#fff"/></svg>