<svg width="107" height="14" fill="none" xmlns="http://www.w3.org/2000/svg"><path d="M11.46 6.484c0 .464-.056.878-.17 1.243a3.498 3.498 0 0 1-.47.968 3.237 3.237 0 0 1-.672.711c-.255.198-.523.36-.804.485a3.892 3.892 0 0 1-.844.273 3.999 3.999 0 0 1-.797.086H3.11V8.219h4.594c.26-.021.495-.073.703-.156.214-.089.396-.206.547-.352a1.52 1.52 0 0 0 .352-.524 1.88 1.88 0 0 0 .125-.703v-.921a2.672 2.672 0 0 0-.164-.704 1.63 1.63 0 0 0-.344-.546 1.441 1.441 0 0 0-.516-.352 1.746 1.746 0 0 0-.703-.133H3.125c-.27 0-.477.07-.617.211-.14.14-.211.344-.211.61V13H.266V4.648c0-.52.093-.963.28-1.328.194-.364.43-.659.712-.882.286-.224.596-.386.93-.485.333-.104.64-.156.921-.156h4.594c.458 0 .87.06 1.234.18.365.114.685.27.961.468.282.193.519.417.711.672.198.255.36.524.485.805a3.999 3.999 0 0 1 .367 1.64v.922zm12.938-.921c0 .463-.057.877-.171 1.242a3.47 3.47 0 0 1-.47.968 3.237 3.237 0 0 1-.671.711 3.888 3.888 0 0 1-1.648.766 4 4 0 0 1-.797.086L24.883 13h-3.14l-4.235-3.664h-1.461V7.305h4.594c.255-.021.487-.073.695-.157.213-.088.396-.205.547-.351.156-.146.276-.32.36-.524.083-.208.124-.445.124-.71V4.28a.55.55 0 0 0-.047-.258.257.257 0 0 0-.11-.132.276.276 0 0 0-.14-.055 1.205 1.205 0 0 0-.133-.008h-6.703V13h-2.03V2.82c0-.14.025-.273.077-.398s.123-.235.211-.328c.094-.094.203-.167.328-.219.125-.052.26-.078.407-.078h7.71c.454 0 .836.083 1.149.25.312.161.565.367.758.617.198.245.338.51.422.797.088.286.132.555.132.805v1.296zm13.797 2.906c0 .682-.117 1.31-.351 1.883a4.462 4.462 0 0 1-.977 1.484 4.463 4.463 0 0 1-1.484.976 4.921 4.921 0 0 1-1.86.344h-2.75a4.982 4.982 0 0 1-1.867-.344 4.462 4.462 0 0 1-1.484-.976 4.562 4.562 0 0 1-.985-1.484 4.926 4.926 0 0 1-.351-1.883v-2.14c0-.678.117-1.303.352-1.876a4.45 4.45 0 0 1 .984-1.484 4.462 4.462 0 0 1 1.484-.977 4.885 4.885 0 0 1 1.867-.351h2.75c.672 0 1.292.117 1.86.351.573.235 1.067.56 1.484.977.417.411.742.906.977 1.484.234.573.351 1.198.351 1.875v2.14zm-2.03-2.14c0-.402-.066-.764-.196-1.087a2.292 2.292 0 0 0-.54-.836 2.293 2.293 0 0 0-.835-.539 2.838 2.838 0 0 0-1.07-.195h-2.75a2.92 2.92 0 0 0-1.087.195 2.383 2.383 0 0 0-.835.54 2.355 2.355 0 0 0-.547.835 2.988 2.988 0 0 0-.188 1.086v2.14c0 .402.063.766.188 1.095.13.322.312.601.547.835.234.23.513.41.835.54.329.124.69.187 1.086.187h2.735c.396 0 .755-.063 1.078-.188.328-.13.61-.31.844-.539a2.39 2.39 0 0 0 .539-.835 2.95 2.95 0 0 0 .195-1.094v-2.14zM51.18 1.796l-5.305 10.805A.952.952 0 0 1 45.5 13a.973.973 0 0 1-.54.156.998.998 0 0 1-.538-.156 1.022 1.022 0 0 1-.375-.398L38.75 1.797h2.273l3.938 8.07 3.953-8.07h2.266zm12.672 6.672c0 .682-.118 1.31-.352 1.883a4.462 4.462 0 0 1-.977 1.484 4.462 4.462 0 0 1-1.484.976 4.921 4.921 0 0 1-1.86.344h-2.75a4.981 4.981 0 0 1-1.867-.344 4.463 4.463 0 0 1-1.484-.976 4.562 4.562 0 0 1-.984-1.484 4.926 4.926 0 0 1-.352-1.883v-2.14c0-.678.117-1.303.352-1.876a4.45 4.45 0 0 1 .984-1.484 4.463 4.463 0 0 1 1.484-.977 4.884 4.884 0 0 1 1.868-.351h2.75a4.84 4.84 0 0 1 1.86.351c.572.235 1.067.56 1.483.977.417.411.743.906.977 1.484.234.573.352 1.198.352 1.875v2.14zm-2.032-2.14c0-.402-.065-.764-.195-1.087a2.292 2.292 0 0 0-.54-.836 2.292 2.292 0 0 0-.835-.539 2.837 2.837 0 0 0-1.07-.195h-2.75a2.92 2.92 0 0 0-1.086.195 2.383 2.383 0 0 0-.836.54 2.355 2.355 0 0 0-.547.835 2.988 2.988 0 0 0-.188 1.086v2.14c0 .402.063.766.188 1.095.13.322.312.601.547.835.234.23.513.41.836.54.328.124.69.187 1.086.187h2.734c.396 0 .755-.063 1.078-.188.328-.13.61-.31.844-.539a2.39 2.39 0 0 0 .539-.835 2.95 2.95 0 0 0 .195-1.094v-2.14zm13.078 3.82c0 .348-.044.664-.132.945a2.82 2.82 0 0 1-.352.734 2.504 2.504 0 0 1-.508.54 3.188 3.188 0 0 1-1.25.57 3.182 3.182 0 0 1-.61.062h-3.663c-.35 0-.662-.044-.938-.133a2.823 2.823 0 0 1-.734-.351 2.672 2.672 0 0 1-.898-1.118 3.409 3.409 0 0 1-.211-.64 3.267 3.267 0 0 1-.063-.61v-2.75c0-.52.094-.96.281-1.32.193-.364.43-.659.711-.883a2.73 2.73 0 0 1 .93-.492 3.25 3.25 0 0 1 .922-.148h3.664v2.03h-3.649c-.27 0-.476.071-.617.212-.14.135-.21.336-.21.601v2.735c0 .276.067.484.202.625.141.14.344.21.61.21h3.664c.276 0 .482-.07.617-.21.135-.14.203-.344.203-.61V.984h2.031v9.164zm13.36 1.984a.963.963 0 0 1-.086.406.98.98 0 0 1-.54.539 1.025 1.025 0 0 1-.398.078c-.125 0-.252-.023-.382-.07a.893.893 0 0 1-.336-.227l-7.422-7.75V13h-2.031V2.664a.97.97 0 0 1 .171-.562c.12-.172.271-.3.454-.383.192-.078.39-.097.593-.055.203.037.378.13.524.281l7.422 7.742v-7.89h2.03v10.336zm4.414.867H90.64V1.797h2.03V13zm14.117 0h-2.883l-4.57-4.578h-1.43V6.375h1.43l4.57-4.578h2.883l-5.758 5.601L106.789 13zm-9.695 0h-2.031V1.797h2.03V13z" fill="#fff"/></svg>