<svg width="73" height="68" fill="none" xmlns="http://www.w3.org/2000/svg"><g clip-path="url(#clip0)" fill="#1F2841"><ellipse cx="11.804" cy="7.033" rx="1.919" ry="1.898"/><ellipse cx="20.44" cy="7.033" rx="1.919" ry="1.898"/><ellipse cx="29.073" cy="7.033" rx="1.919" ry="1.898"/><ellipse cx="37.708" cy="7.033" rx="1.919" ry="1.898"/><ellipse cx="46.344" cy="7.033" rx="1.919" ry="1.898"/><ellipse cx="54.98" cy="7.033" rx="1.919" ry="1.898"/><ellipse cx="63.616" cy="7.033" rx="1.919" ry="1.898"/><ellipse cx="11.804" cy="15.573" rx="1.919" ry="1.898"/><ellipse cx="20.44" cy="15.573" rx="1.919" ry="1.898"/><ellipse cx="29.073" cy="15.573" rx="1.919" ry="1.898"/><ellipse cx="37.708" cy="15.573" rx="1.919" ry="1.898"/><ellipse cx="46.344" cy="15.573" rx="1.919" ry="1.898"/><ellipse cx="54.98" cy="15.573" rx="1.919" ry="1.898"/><ellipse cx="63.616" cy="15.573" rx="1.919" ry="1.898"/><ellipse cx="11.804" cy="24.112" rx="1.919" ry="1.898"/><ellipse cx="20.44" cy="24.112" rx="1.919" ry="1.898"/><ellipse cx="29.073" cy="24.112" rx="1.919" ry="1.898"/><ellipse cx="37.708" cy="24.112" rx="1.919" ry="1.898"/><ellipse cx="46.344" cy="24.112" rx="1.919" ry="1.898"/><ellipse cx="54.98" cy="24.112" rx="1.919" ry="1.898"/><ellipse cx="63.616" cy="24.112" rx="1.919" ry="1.898"/><ellipse cx="11.804" cy="32.652" rx="1.919" ry="1.898"/><ellipse cx="20.44" cy="32.652" rx="1.919" ry="1.898"/><ellipse cx="29.073" cy="32.652" rx="1.919" ry="1.898"/><ellipse cx="37.708" cy="32.652" rx="1.919" ry="1.898"/><ellipse cx="46.344" cy="32.652" rx="1.919" ry="1.898"/><ellipse cx="54.98" cy="32.652" rx="1.919" ry="1.898"/><ellipse cx="63.616" cy="32.652" rx="1.919" ry="1.898"/><ellipse cx="11.804" cy="41.191" rx="1.919" ry="1.898"/><ellipse cx="20.44" cy="41.191" rx="1.919" ry="1.898"/><ellipse cx="29.073" cy="41.191" rx="1.919" ry="1.898"/><ellipse cx="37.708" cy="41.191" rx="1.919" ry="1.898"/><ellipse cx="46.344" cy="41.191" rx="1.919" ry="1.898"/><ellipse cx="54.98" cy="41.191" rx="1.919" ry="1.898"/><ellipse cx="63.616" cy="41.191" rx="1.919" ry="1.898"/><ellipse cx="11.804" cy="49.731" rx="1.919" ry="1.898"/><ellipse cx="20.44" cy="49.731" rx="1.919" ry="1.898"/><ellipse cx="29.073" cy="49.731" rx="1.919" ry="1.898"/><ellipse cx="37.708" cy="49.731" rx="1.919" ry="1.898"/><ellipse cx="46.344" cy="49.731" rx="1.919" ry="1.898"/><ellipse cx="54.98" cy="49.731" rx="1.919" ry="1.898"/><ellipse cx="63.616" cy="49.731" rx="1.919" ry="1.898"/></g><path d="M49.403 45.012c0 4.416-1.152 7.764-3.456 10.044-1.704 1.656-3.852 2.484-6.444 2.484-2.544 0-4.668-.828-6.372-2.484-2.304-2.28-3.456-5.628-3.456-10.044 0-4.488 1.152-7.848 3.456-10.08 1.704-1.656 3.828-2.484 6.372-2.484 2.592 0 4.74.828 6.444 2.484 2.304 2.232 3.456 5.592 3.456 10.08zM41.771 38.1c-.624-.6-1.368-.9-2.232-.9-.864 0-1.608.3-2.232.9-1.344 1.32-2.016 3.612-2.016 6.876 0 3.288.672 5.592 2.016 6.912.624.6 1.368.9 2.232.9.864 0 1.608-.3 2.232-.9 1.344-1.32 2.016-3.624 2.016-6.912 0-3.264-.672-5.556-2.016-6.876zm19.696-5.652l5.94.612-6.336 7.884c.744-.264 1.584-.396 2.52-.396 2.472 0 4.452.768 5.94 2.304 1.392 1.44 2.088 3.288 2.088 5.544 0 2.64-.756 4.788-2.268 6.444-1.656 1.8-4.116 2.7-7.38 2.7-3.456 0-6.048-.936-7.776-2.808-1.392-1.488-2.088-3.432-2.088-5.832 0-1.728.324-3.276.972-4.644.672-1.392 1.632-2.916 2.88-4.572l5.508-7.236zm-2.592 19.44c.792.744 1.764 1.116 2.916 1.116s2.112-.36 2.88-1.08c.84-.792 1.26-1.848 1.26-3.168 0-1.224-.42-2.208-1.26-2.952-.768-.672-1.728-1.008-2.88-1.008-1.224 0-2.196.348-2.916 1.044-.816.744-1.224 1.764-1.224 3.06 0 1.248.408 2.244 1.224 2.988z" fill="#1EAEED"/><circle cx="10.239" cy="9.5" r="9.5" fill="#1EAEED"/><g clip-path="url(#clip1)"><path d="M13.66 7.356a.257.257 0 0 0-.38 0l-4.365 4.676-1.716-1.84a.257.257 0 0 0-.38 0 .303.303 0 0 0 0 .409l1.906 2.043a.257.257 0 0 0 .38 0l4.555-4.88a.303.303 0 0 0 0-.408z" fill="#fff"/></g><defs><clipPath id="clip0"><path fill="#fff" transform="translate(9.883 4.943)" d="M0 0h57.374v46.686H0z"/></clipPath><clipPath id="clip1"><path fill="#fff" transform="translate(6.74 7)" d="M0 0h7v6H0z"/></clipPath></defs></svg>