<svg width="72" height="68" fill="none" xmlns="http://www.w3.org/2000/svg"><g clip-path="url(#clip0)" fill="#1F2841"><ellipse cx="10.385" cy="7.033" rx="1.919" ry="1.898"/><ellipse cx="19.02" cy="7.033" rx="1.919" ry="1.898"/><ellipse cx="27.653" cy="7.033" rx="1.919" ry="1.898"/><ellipse cx="36.289" cy="7.033" rx="1.919" ry="1.898"/><ellipse cx="44.925" cy="7.033" rx="1.919" ry="1.898"/><ellipse cx="53.56" cy="7.033" rx="1.919" ry="1.898"/><ellipse cx="62.196" cy="7.033" rx="1.919" ry="1.898"/><ellipse cx="10.385" cy="15.573" rx="1.919" ry="1.898"/><ellipse cx="19.02" cy="15.573" rx="1.919" ry="1.898"/><ellipse cx="27.653" cy="15.573" rx="1.919" ry="1.898"/><ellipse cx="36.289" cy="15.573" rx="1.919" ry="1.898"/><ellipse cx="44.925" cy="15.573" rx="1.919" ry="1.898"/><ellipse cx="53.56" cy="15.573" rx="1.919" ry="1.898"/><ellipse cx="62.196" cy="15.573" rx="1.919" ry="1.898"/><ellipse cx="10.385" cy="24.112" rx="1.919" ry="1.898"/><ellipse cx="19.02" cy="24.112" rx="1.919" ry="1.898"/><ellipse cx="27.653" cy="24.112" rx="1.919" ry="1.898"/><ellipse cx="36.289" cy="24.112" rx="1.919" ry="1.898"/><ellipse cx="44.925" cy="24.112" rx="1.919" ry="1.898"/><ellipse cx="53.56" cy="24.112" rx="1.919" ry="1.898"/><ellipse cx="62.196" cy="24.112" rx="1.919" ry="1.898"/><ellipse cx="10.385" cy="32.652" rx="1.919" ry="1.898"/><ellipse cx="19.02" cy="32.652" rx="1.919" ry="1.898"/><ellipse cx="27.653" cy="32.652" rx="1.919" ry="1.898"/><ellipse cx="36.289" cy="32.652" rx="1.919" ry="1.898"/><ellipse cx="44.925" cy="32.652" rx="1.919" ry="1.898"/><ellipse cx="53.56" cy="32.652" rx="1.919" ry="1.898"/><ellipse cx="62.196" cy="32.652" rx="1.919" ry="1.898"/><ellipse cx="10.385" cy="41.191" rx="1.919" ry="1.898"/><ellipse cx="19.02" cy="41.191" rx="1.919" ry="1.898"/><ellipse cx="27.653" cy="41.191" rx="1.919" ry="1.898"/><ellipse cx="36.289" cy="41.191" rx="1.919" ry="1.898"/><ellipse cx="44.925" cy="41.191" rx="1.919" ry="1.898"/><ellipse cx="53.56" cy="41.191" rx="1.919" ry="1.898"/><ellipse cx="62.196" cy="41.191" rx="1.919" ry="1.898"/><ellipse cx="10.385" cy="49.731" rx="1.919" ry="1.898"/><ellipse cx="19.02" cy="49.731" rx="1.919" ry="1.898"/><ellipse cx="27.653" cy="49.731" rx="1.919" ry="1.898"/><ellipse cx="36.289" cy="49.731" rx="1.919" ry="1.898"/><ellipse cx="44.925" cy="49.731" rx="1.919" ry="1.898"/><ellipse cx="53.56" cy="49.731" rx="1.919" ry="1.898"/><ellipse cx="62.196" cy="49.731" rx="1.919" ry="1.898"/></g><path d="M48.403 45.012c0 4.416-1.152 7.764-3.456 10.044-1.704 1.656-3.852 2.484-6.444 2.484-2.544 0-4.668-.828-6.372-2.484-2.304-2.28-3.456-5.628-3.456-10.044 0-4.488 1.152-7.848 3.456-10.08 1.704-1.656 3.828-2.484 6.372-2.484 2.592 0 4.74.828 6.444 2.484 2.304 2.232 3.456 5.592 3.456 10.08zM40.771 38.1c-.624-.6-1.368-.9-2.232-.9-.864 0-1.608.3-2.232.9-1.344 1.32-2.016 3.612-2.016 6.876 0 3.288.672 5.592 2.016 6.912.624.6 1.368.9 2.232.9.864 0 1.608-.3 2.232-.9 1.344-1.32 2.016-3.624 2.016-6.912 0-3.264-.672-5.556-2.016-6.876zm26.302-5.112v4.68h-8.1l-.648 3.204a11.25 11.25 0 0 1 1.98-.18c2.568 0 4.608.78 6.12 2.34 1.464 1.464 2.196 3.396 2.196 5.796 0 2.496-.816 4.56-2.448 6.192-1.704 1.68-4.128 2.52-7.272 2.52-3.072 0-5.736-.876-7.992-2.628l1.26-5.148c.744.84 1.512 1.5 2.304 1.98 1.08.696 2.292 1.044 3.636 1.044 1.464 0 2.604-.324 3.42-.972.936-.72 1.404-1.728 1.404-3.024 0-1.152-.408-2.088-1.224-2.808-.96-.84-2.292-1.26-3.996-1.26-1.728 0-3.36.42-4.896 1.26l2.448-12.996h11.808z" fill="#1EAEED"/><circle cx="10.239" cy="9.5" r="9.5" fill="#1EAEED"/><g clip-path="url(#clip1)"><path d="M13.66 7.356a.257.257 0 0 0-.38 0l-4.365 4.676-1.716-1.84a.257.257 0 0 0-.38 0 .303.303 0 0 0 0 .409l1.906 2.043a.257.257 0 0 0 .38 0l4.555-4.88a.303.303 0 0 0 0-.408z" fill="#fff"/></g><defs><clipPath id="clip0"><path fill="#fff" transform="translate(8.463 4.943)" d="M0 0h57.374v46.686H0z"/></clipPath><clipPath id="clip1"><path fill="#fff" transform="translate(6.74 7)" d="M0 0h7v6H0z"/></clipPath></defs></svg>