<svg width="73" height="68" fill="none" xmlns="http://www.w3.org/2000/svg"><g clip-path="url(#clip0)" fill="#1F2841"><ellipse cx="11.804" cy="8.712" rx="1.919" ry="1.898"/><ellipse cx="20.44" cy="8.712" rx="1.919" ry="1.898"/><ellipse cx="29.073" cy="8.712" rx="1.919" ry="1.898"/><ellipse cx="37.708" cy="8.712" rx="1.919" ry="1.898"/><ellipse cx="46.344" cy="8.712" rx="1.919" ry="1.898"/><ellipse cx="54.98" cy="8.712" rx="1.919" ry="1.898"/><ellipse cx="63.616" cy="8.712" rx="1.919" ry="1.898"/><ellipse cx="11.804" cy="17.252" rx="1.919" ry="1.898"/><ellipse cx="20.44" cy="17.252" rx="1.919" ry="1.898"/><ellipse cx="29.073" cy="17.252" rx="1.919" ry="1.898"/><ellipse cx="37.708" cy="17.252" rx="1.919" ry="1.898"/><ellipse cx="46.344" cy="17.252" rx="1.919" ry="1.898"/><ellipse cx="54.98" cy="17.252" rx="1.919" ry="1.898"/><ellipse cx="63.616" cy="17.252" rx="1.919" ry="1.898"/><ellipse cx="11.804" cy="25.791" rx="1.919" ry="1.898"/><ellipse cx="20.44" cy="25.791" rx="1.919" ry="1.898"/><ellipse cx="29.073" cy="25.791" rx="1.919" ry="1.898"/><ellipse cx="37.708" cy="25.791" rx="1.919" ry="1.898"/><ellipse cx="46.344" cy="25.791" rx="1.919" ry="1.898"/><ellipse cx="54.98" cy="25.791" rx="1.919" ry="1.898"/><ellipse cx="63.616" cy="25.791" rx="1.919" ry="1.898"/><ellipse cx="11.804" cy="34.331" rx="1.919" ry="1.898"/><ellipse cx="20.44" cy="34.331" rx="1.919" ry="1.898"/><ellipse cx="29.073" cy="34.331" rx="1.919" ry="1.898"/><ellipse cx="37.708" cy="34.331" rx="1.919" ry="1.898"/><ellipse cx="46.344" cy="34.331" rx="1.919" ry="1.898"/><ellipse cx="54.98" cy="34.331" rx="1.919" ry="1.898"/><ellipse cx="63.616" cy="34.331" rx="1.919" ry="1.898"/><ellipse cx="11.804" cy="42.87" rx="1.919" ry="1.898"/><ellipse cx="20.44" cy="42.87" rx="1.919" ry="1.898"/><ellipse cx="29.073" cy="42.87" rx="1.919" ry="1.898"/><ellipse cx="37.708" cy="42.87" rx="1.919" ry="1.898"/><ellipse cx="46.344" cy="42.87" rx="1.919" ry="1.898"/><ellipse cx="54.98" cy="42.87" rx="1.919" ry="1.898"/><ellipse cx="63.616" cy="42.87" rx="1.919" ry="1.898"/><ellipse cx="11.804" cy="51.41" rx="1.919" ry="1.898"/><ellipse cx="20.44" cy="51.41" rx="1.919" ry="1.898"/><ellipse cx="29.073" cy="51.41" rx="1.919" ry="1.898"/><ellipse cx="37.708" cy="51.41" rx="1.919" ry="1.898"/><ellipse cx="46.344" cy="51.41" rx="1.919" ry="1.898"/><ellipse cx="54.98" cy="51.41" rx="1.919" ry="1.898"/><ellipse cx="63.616" cy="51.41" rx="1.919" ry="1.898"/></g><path d="M49.403 45.012c0 4.416-1.152 7.764-3.456 10.044-1.704 1.656-3.852 2.484-6.444 2.484-2.544 0-4.668-.828-6.372-2.484-2.304-2.28-3.456-5.628-3.456-10.044 0-4.488 1.152-7.848 3.456-10.08 1.704-1.656 3.828-2.484 6.372-2.484 2.592 0 4.74.828 6.444 2.484 2.304 2.232 3.456 5.592 3.456 10.08zM41.771 38.1c-.624-.6-1.368-.9-2.232-.9-.864 0-1.608.3-2.232.9-1.344 1.32-2.016 3.612-2.016 6.876 0 3.288.672 5.592 2.016 6.912.624.6 1.368.9 2.232.9.864 0 1.608-.3 2.232-.9 1.344-1.32 2.016-3.624 2.016-6.912 0-3.264-.672-5.556-2.016-6.876zm15.502 2.088h-5.328c.24-2.232 1.032-4.044 2.376-5.436 1.464-1.512 3.492-2.268 6.084-2.268 2.784 0 4.884.708 6.3 2.124 1.224 1.176 1.836 2.808 1.836 4.896 0 1.296-.324 2.388-.972 3.276a4.615 4.615 0 0 1-1.8 1.512c1.2.432 2.112 1.08 2.736 1.944.744 1.008 1.116 2.268 1.116 3.78 0 2.184-.804 4.008-2.412 5.472-1.536 1.392-3.648 2.088-6.336 2.088-3.024 0-5.364-.828-7.02-2.484-1.536-1.56-2.424-3.54-2.664-5.94h5.544c.096 1.128.48 2.028 1.152 2.7.648.648 1.536.972 2.664.972 1.008 0 1.812-.276 2.412-.828.648-.6.972-1.416.972-2.448 0-.96-.348-1.728-1.044-2.304-.648-.504-1.632-.756-2.952-.756h-.432v-3.816h.324c1.056 0 1.86-.228 2.412-.684.6-.504.9-1.224.9-2.16 0-.816-.264-1.464-.792-1.944s-1.212-.72-2.052-.72c-.912 0-1.632.264-2.16.792-.528.576-.816 1.32-.864 2.232z" fill="#1EAEED"/><circle cx="10.239" cy="9.5" r="9" fill="#1EAEED" stroke="#1EAEED"/><g clip-path="url(#clip1)"><path d="M13.66 7.356a.257.257 0 0 0-.38 0l-4.365 4.676-1.716-1.84a.257.257 0 0 0-.38 0 .303.303 0 0 0 0 .409l1.906 2.043a.257.257 0 0 0 .38 0l4.555-4.88a.303.303 0 0 0 0-.408z" fill="#fff"/></g><defs><clipPath id="clip0"><path fill="#fff" transform="translate(9.883 6.622)" d="M0 0h57.374v46.686H0z"/></clipPath><clipPath id="clip1"><path fill="#fff" transform="translate(6.74 7)" d="M0 0h7v6H0z"/></clipPath></defs></svg>