<svg width="71" height="68" fill="none" xmlns="http://www.w3.org/2000/svg"><g clip-path="url(#clip0)" fill="#1F2841"><ellipse cx="10.385" cy="8.712" rx="1.919" ry="1.898"/><ellipse cx="19.02" cy="8.712" rx="1.919" ry="1.898"/><ellipse cx="27.653" cy="8.712" rx="1.919" ry="1.898"/><ellipse cx="36.289" cy="8.712" rx="1.919" ry="1.898"/><ellipse cx="44.925" cy="8.712" rx="1.919" ry="1.898"/><ellipse cx="53.56" cy="8.712" rx="1.919" ry="1.898"/><ellipse cx="62.196" cy="8.712" rx="1.919" ry="1.898"/><ellipse cx="10.385" cy="17.252" rx="1.919" ry="1.898"/><ellipse cx="19.02" cy="17.252" rx="1.919" ry="1.898"/><ellipse cx="27.653" cy="17.252" rx="1.919" ry="1.898"/><ellipse cx="36.289" cy="17.252" rx="1.919" ry="1.898"/><ellipse cx="44.925" cy="17.252" rx="1.919" ry="1.898"/><ellipse cx="53.56" cy="17.252" rx="1.919" ry="1.898"/><ellipse cx="62.196" cy="17.252" rx="1.919" ry="1.898"/><ellipse cx="10.385" cy="25.791" rx="1.919" ry="1.898"/><ellipse cx="19.02" cy="25.791" rx="1.919" ry="1.898"/><ellipse cx="27.653" cy="25.791" rx="1.919" ry="1.898"/><ellipse cx="36.289" cy="25.791" rx="1.919" ry="1.898"/><ellipse cx="44.925" cy="25.791" rx="1.919" ry="1.898"/><ellipse cx="53.56" cy="25.791" rx="1.919" ry="1.898"/><ellipse cx="62.196" cy="25.791" rx="1.919" ry="1.898"/><ellipse cx="10.385" cy="34.331" rx="1.919" ry="1.898"/><ellipse cx="19.02" cy="34.331" rx="1.919" ry="1.898"/><ellipse cx="27.653" cy="34.331" rx="1.919" ry="1.898"/><ellipse cx="36.289" cy="34.331" rx="1.919" ry="1.898"/><ellipse cx="44.925" cy="34.331" rx="1.919" ry="1.898"/><ellipse cx="53.56" cy="34.331" rx="1.919" ry="1.898"/><ellipse cx="62.196" cy="34.331" rx="1.919" ry="1.898"/><ellipse cx="10.385" cy="42.87" rx="1.919" ry="1.898"/><ellipse cx="19.02" cy="42.87" rx="1.919" ry="1.898"/><ellipse cx="27.653" cy="42.87" rx="1.919" ry="1.898"/><ellipse cx="36.289" cy="42.87" rx="1.919" ry="1.898"/><ellipse cx="44.925" cy="42.87" rx="1.919" ry="1.898"/><ellipse cx="53.56" cy="42.87" rx="1.919" ry="1.898"/><ellipse cx="62.196" cy="42.87" rx="1.919" ry="1.898"/><ellipse cx="10.385" cy="51.41" rx="1.919" ry="1.898"/><ellipse cx="19.02" cy="51.41" rx="1.919" ry="1.898"/><ellipse cx="27.653" cy="51.41" rx="1.919" ry="1.898"/><ellipse cx="36.289" cy="51.41" rx="1.919" ry="1.898"/><ellipse cx="44.925" cy="51.41" rx="1.919" ry="1.898"/><ellipse cx="53.56" cy="51.41" rx="1.919" ry="1.898"/><ellipse cx="62.196" cy="51.41" rx="1.919" ry="1.898"/></g><path d="M48.403 45.012c0 4.416-1.152 7.764-3.456 10.044-1.704 1.656-3.852 2.484-6.444 2.484-2.544 0-4.668-.828-6.372-2.484-2.304-2.28-3.456-5.628-3.456-10.044 0-4.488 1.152-7.848 3.456-10.08 1.704-1.656 3.828-2.484 6.372-2.484 2.592 0 4.74.828 6.444 2.484 2.304 2.232 3.456 5.592 3.456 10.08zM40.771 38.1c-.624-.6-1.368-.9-2.232-.9-.864 0-1.608.3-2.232.9-1.344 1.32-2.016 3.612-2.016 6.876 0 3.288.672 5.592 2.016 6.912.624.6 1.368.9 2.232.9.864 0 1.608-.3 2.232-.9 1.344-1.32 2.016-3.624 2.016-6.912 0-3.264-.672-5.556-2.016-6.876zm27.391 14.22V57h-18.36l7.2-7.848c1.752-1.968 3.06-3.6 3.924-4.896.96-1.536 1.44-2.892 1.44-4.068 0-1.008-.312-1.8-.935-2.376-.505-.456-1.236-.684-2.197-.684-.936 0-1.668.288-2.196.864-.671.744-1.007 1.728-1.007 2.952h-5.544c.215-2.496 1.044-4.5 2.483-6.012 1.56-1.656 3.769-2.484 6.624-2.484 2.569 0 4.645.756 6.229 2.268 1.488 1.488 2.232 3.408 2.232 5.76 0 1.848-.6 3.612-1.8 5.292-.72 1.008-2.004 2.388-3.852 4.14l-2.52 2.412h8.28z" fill="#1EAEED"/><circle cx="10.239" cy="9.5" r="9.5" fill="#1EAEED"/><g clip-path="url(#clip1)"><path d="M13.66 7.356a.257.257 0 0 0-.38 0l-4.365 4.676-1.716-1.84a.257.257 0 0 0-.38 0 .303.303 0 0 0 0 .409l1.906 2.043a.257.257 0 0 0 .38 0l4.555-4.88a.303.303 0 0 0 0-.408z" fill="#fff"/></g><defs><clipPath id="clip0"><path fill="#fff" transform="translate(8.463 6.622)" d="M0 0h57.374v46.686H0z"/></clipPath><clipPath id="clip1"><path fill="#fff" transform="translate(6.74 7)" d="M0 0h7v6H0z"/></clipPath></defs></svg>