<svg width="72" height="68" fill="none" xmlns="http://www.w3.org/2000/svg"><g clip-path="url(#clip0)" fill="#1F2841"><ellipse cx="10.965" cy="7.033" rx="1.919" ry="1.898"/><ellipse cx="19.601" cy="7.033" rx="1.919" ry="1.898"/><ellipse cx="28.234" cy="7.033" rx="1.919" ry="1.898"/><ellipse cx="36.869" cy="7.033" rx="1.919" ry="1.898"/><ellipse cx="45.505" cy="7.033" rx="1.919" ry="1.898"/><ellipse cx="54.141" cy="7.033" rx="1.919" ry="1.898"/><ellipse cx="62.777" cy="7.033" rx="1.919" ry="1.898"/><ellipse cx="10.965" cy="15.573" rx="1.919" ry="1.898"/><ellipse cx="19.601" cy="15.573" rx="1.919" ry="1.898"/><ellipse cx="28.234" cy="15.573" rx="1.919" ry="1.898"/><ellipse cx="36.869" cy="15.573" rx="1.919" ry="1.898"/><ellipse cx="45.505" cy="15.573" rx="1.919" ry="1.898"/><ellipse cx="54.141" cy="15.573" rx="1.919" ry="1.898"/><ellipse cx="62.777" cy="15.573" rx="1.919" ry="1.898"/><ellipse cx="10.965" cy="24.112" rx="1.919" ry="1.898"/><ellipse cx="19.601" cy="24.112" rx="1.919" ry="1.898"/><ellipse cx="28.234" cy="24.112" rx="1.919" ry="1.898"/><ellipse cx="36.869" cy="24.112" rx="1.919" ry="1.898"/><ellipse cx="45.505" cy="24.112" rx="1.919" ry="1.898"/><ellipse cx="54.141" cy="24.112" rx="1.919" ry="1.898"/><ellipse cx="62.777" cy="24.112" rx="1.919" ry="1.898"/><ellipse cx="10.965" cy="32.652" rx="1.919" ry="1.898"/><ellipse cx="19.601" cy="32.652" rx="1.919" ry="1.898"/><ellipse cx="28.234" cy="32.652" rx="1.919" ry="1.898"/><ellipse cx="36.869" cy="32.652" rx="1.919" ry="1.898"/><ellipse cx="45.505" cy="32.652" rx="1.919" ry="1.898"/><ellipse cx="54.141" cy="32.652" rx="1.919" ry="1.898"/><ellipse cx="62.777" cy="32.652" rx="1.919" ry="1.898"/><ellipse cx="10.965" cy="41.191" rx="1.919" ry="1.898"/><ellipse cx="19.601" cy="41.191" rx="1.919" ry="1.898"/><ellipse cx="28.234" cy="41.191" rx="1.919" ry="1.898"/><ellipse cx="36.869" cy="41.191" rx="1.919" ry="1.898"/><ellipse cx="45.505" cy="41.191" rx="1.919" ry="1.898"/><ellipse cx="54.141" cy="41.191" rx="1.919" ry="1.898"/><ellipse cx="62.777" cy="41.191" rx="1.919" ry="1.898"/><ellipse cx="10.965" cy="49.731" rx="1.919" ry="1.898"/><ellipse cx="19.601" cy="49.731" rx="1.919" ry="1.898"/><ellipse cx="28.234" cy="49.731" rx="1.919" ry="1.898"/><ellipse cx="36.869" cy="49.731" rx="1.919" ry="1.898"/><ellipse cx="45.505" cy="49.731" rx="1.919" ry="1.898"/><ellipse cx="54.141" cy="49.731" rx="1.919" ry="1.898"/><ellipse cx="62.777" cy="49.731" rx="1.919" ry="1.898"/></g><path d="M48.403 45.012c0 4.416-1.152 7.764-3.456 10.044-1.704 1.656-3.852 2.484-6.444 2.484-2.544 0-4.668-.828-6.372-2.484-2.304-2.28-3.456-5.628-3.456-10.044 0-4.488 1.152-7.848 3.456-10.08 1.704-1.656 3.828-2.484 6.372-2.484 2.592 0 4.74.828 6.444 2.484 2.304 2.232 3.456 5.592 3.456 10.08zM40.771 38.1c-.624-.6-1.368-.9-2.232-.9-.864 0-1.608.3-2.232.9-1.344 1.32-2.016 3.612-2.016 6.876 0 3.288.672 5.592 2.016 6.912.624.6 1.368.9 2.232.9.864 0 1.608-.3 2.232-.9 1.344-1.32 2.016-3.624 2.016-6.912 0-3.264-.672-5.556-2.016-6.876zm26.302-5.112v15.084h2.88v4.392h-2.88V57h-5.328v-4.536H50.01v-3.168l10.584-16.308h6.48zM55.841 48.072h5.904v-9.324l-5.904 9.324z" fill="#1EAEED"/><circle cx="10.239" cy="9.5" r="9.5" fill="#1EAEED"/><g clip-path="url(#clip1)"><path d="M13.66 7.356a.257.257 0 0 0-.38 0l-4.365 4.676-1.716-1.84a.257.257 0 0 0-.38 0 .303.303 0 0 0 0 .409l1.906 2.043a.257.257 0 0 0 .38 0l4.555-4.88a.303.303 0 0 0 0-.408z" fill="#fff"/></g><defs><clipPath id="clip0"><path fill="#fff" transform="translate(9.044 4.943)" d="M0 0h57.374v46.686H0z"/></clipPath><clipPath id="clip1"><path fill="#fff" transform="translate(6.74 7)" d="M0 0h7v6H0z"/></clipPath></defs></svg>