<svg xmlns="http://www.w3.org/2000/svg" width="27" height="21"><defs><mask id="b" width="2" height="2" x="-1" y="-1"><path fill="#fff" d="M7 6h13v7H7z"/><path d="M7.36 7.768l1.28-1.536 4.86 4.05 4.86-4.05 1.28 1.536-6 5-.14-.168-.14.168z"/></mask><filter id="a" width="51" height="46" x="-12" y="-13" filterUnits="userSpaceOnUse"><feOffset dy="1" in="SourceGraphic" result="FeOffset1023Out"/><feGaussianBlur in="FeOffset1023Out" result="FeGaussianBlur1024Out" stdDeviation="3.6 3.6"/></filter><linearGradient id="c" x1="9.64" x2="17.36" y1="12.77" y2="6.23" gradientUnits="userSpaceOnUse"><stop offset="0" stop-color="#c000ff"/><stop offset=".13" stop-color="#c000ff"/><stop offset="1" stop-color="#ff53c8"/></linearGradient></defs><g filter="url(#a)"><path fill="none" d="M7.36 7.768l1.28-1.536 4.86 4.05 4.86-4.05 1.28 1.536-6 5-.14-.168-.14.168z" mask="url(&quot;#b&quot;)"/><path fill="#c000ff" fill-opacity=".83" d="M7.36 7.768l1.28-1.536 4.86 4.05 4.86-4.05 1.28 1.536-6 5-.14-.168-.14.168z"/></g><path fill="url(#c)" d="M7.36 7.768l1.28-1.536 4.86 4.05 4.86-4.05 1.28 1.536-6 5-.14-.168-.14.168z"/></svg>